<?xml version="1.0" encoding="utf-8"?>
<!-- Generator: Adobe Illustrator 24.1.0, SVG Export Plug-In . SVG Version: 6.00 Build 0)  -->
<svg version="1.2" baseProfile="tiny" id="g-verba-vignette12-feminismo-desktop-img" xmlns="http://www.w3.org/2000/svg" xmlns:xlink="http://www.w3.org/1999/xlink"
	 x="0px" y="0px" viewBox="0 0 673 410.523" xml:space="preserve">
<g>
	
		<line style="opacity:0.8;" fill="none" stroke="#000000" stroke-miterlimit="10" x1="19.75" y1="20" x2="653.25" y2="20"/>
	
		<line style="opacity:0.8;" fill="none" stroke="#000000" stroke-miterlimit="10" x1="22.95" y1="390.523" x2="650.05" y2="390.523"/>
	<g transform="translate(30.95185411632263, 290)">
		<path display="none" fill="none" stroke="#000000" d="M10.5,66.502h611.09"/>
		<g transform="translate(96.78992360183949,0)">
			<line display="none" fill="none" stroke="#000000" x1="10" y1="-193.998" x2="10" y2="66.002"/>
			<text transform="matrix(1 0 0 1 -1.1231 82.1016)" display="none" font-family="'ElMessiri-Bold'" font-size="10px">2015</text>
		</g>
		<g transform="translate(196.3649124758938,0)">
			<line display="none" fill="none" stroke="#000000" x1="10" y1="-193.998" x2="10" y2="66.002"/>
			<text transform="matrix(1 0 0 1 -1.123 82.1016)" display="none" font-family="'ElMessiri-Bold'" font-size="10px">2016</text>
		</g>
		<g transform="translate(296.2127095386441,0)">
			<line display="none" fill="none" stroke="#000000" x1="10" y1="-193.998" x2="10" y2="66.002"/>
			<text transform="matrix(1 0 0 1 -1.1231 82.1016)" display="none" font-family="'ElMessiri-Bold'" font-size="10px">2017</text>
		</g>
		<g transform="translate(395.78769841269843,0)">
			<line display="none" fill="none" stroke="#000000" x1="10" y1="-193.998" x2="10" y2="66.002"/>
			<text transform="matrix(1 0 0 1 -1.1231 82.1016)" display="none" font-family="'ElMessiri-Bold'" font-size="10px">2018</text>
		</g>
		<g transform="translate(495.3626872867527,0)">
			<line display="none" fill="none" stroke="#000000" x1="10" y1="-193.998" x2="10" y2="66.002"/>
			<text transform="matrix(1 0 0 1 -1.123 82.1016)" display="none" font-family="'ElMessiri-Bold'" font-size="10px">2019</text>
		</g>
		<g transform="translate(594.937676160807,0)">
			<line display="none" fill="none" stroke="#000000" x1="10" y1="-193.998" x2="10" y2="66.002"/>
			<text transform="matrix(1 0 0 1 -1.1231 82.1016)" display="none" font-family="'ElMessiri-Bold'" font-size="10px">2020</text>
		</g>
	</g>
	<g transform="translate(30, 0)">
		<path display="none" fill="none" stroke="#000000" d="M4,216.502h6.5v-130H4"/>
		<g transform="translate(0,130.5)">
			<line fill="none" stroke="#000000" stroke-opacity="0.12" x1="10" y1="86.002" x2="623" y2="86.002"/>
			
				
		</g>
		<g transform="translate(0,101.61111111111111)">
			<line fill="none" stroke="#000000" stroke-opacity="0.12" x1="10" y1="86.002" x2="623" y2="86.002"/>
			
				
		</g>
		<g transform="translate(0,72.72222222222223)">
			<line fill="none" stroke="#000000" stroke-opacity="0.12" x1="10" y1="86.002" x2="623" y2="86.002"/>
			
				
		</g>
		<g transform="translate(0,43.83333333333334)">
			<line fill="none" stroke="#000000" stroke-opacity="0.12" x1="10" y1="86.002" x2="623" y2="86.002"/>
			
				
		</g>
		<g transform="translate(0,14.944444444444457)">
			<line fill="none" stroke="#000000" stroke-opacity="0.12" x1="10" y1="86.002" x2="623" y2="86.002"/>
			
				
		</g>
	</g>
	<g>
		<rect x="40" y="213.113" width="1.91" height="5.778"/>
		<rect x="41.91" y="211.668" width="1.91" height="8.667"/>
		<polygon points="43.819,216.002 45.729,216.002 45.729,216.002 		"/>
		<rect x="45.729" y="210.224" width="1.91" height="11.556"/>
		<rect x="47.639" y="214.557" width="1.91" height="2.889"/>
		<polygon points="49.548,216.002 51.458,216.002 51.458,216.002 		"/>
		<rect x="51.458" y="214.557" width="1.91" height="2.889"/>
		<polygon points="53.368,216.002 55.277,216.002 55.277,216.002 		"/>
		<polygon points="55.277,216.002 57.187,216.002 57.187,216.002 		"/>
		<polygon points="57.187,216.002 59.097,216.002 59.097,216.002 		"/>
		<polygon points="59.097,216.002 61.006,216.002 61.006,216.002 		"/>
		<polygon points="61.006,216.002 62.916,216.002 62.916,216.002 		"/>
		<rect x="62.916" y="214.557" width="1.91" height="2.889"/>
		<polygon points="64.826,216.002 66.735,216.002 66.735,216.002 		"/>
		<polygon points="66.735,216.002 68.645,216.002 68.645,216.002 		"/>
		<polygon points="68.645,216.002 70.555,216.002 70.555,216.002 		"/>
		<rect x="70.555" y="213.113" width="1.91" height="5.778"/>
		<polygon points="72.464,216.002 74.374,216.002 74.374,216.002 		"/>
		<polygon points="74.374,216.002 76.283,216.002 76.283,216.002 		"/>
		<rect x="76.283" y="214.557" width="1.91" height="2.889"/>
		<polygon points="78.193,216.002 80.103,216.002 80.103,216.002 		"/>
		<rect x="80.103" y="213.113" width="1.91" height="5.778"/>
		<polygon points="82.012,216.002 83.922,216.002 83.922,216.002 		"/>
		<polygon points="83.922,216.002 85.832,216.002 85.832,216.002 		"/>
		<polygon points="85.832,216.002 87.741,216.002 87.741,216.002 		"/>
		<polygon points="87.741,216.002 89.651,216.002 89.651,216.002 		"/>
		<polygon points="89.651,216.002 91.561,216.002 91.561,216.002 		"/>
		<polygon points="91.561,216.002 93.47,216.002 93.47,216.002 		"/>
		<polygon points="93.47,216.002 95.38,216.002 95.38,216.002 		"/>
		<polygon points="95.38,216.002 97.29,216.002 97.29,216.002 		"/>
		<polygon points="97.29,216.002 99.199,216.002 99.199,216.002 		"/>
		<rect x="99.199" y="213.113" width="1.91" height="5.778"/>
		<polygon points="101.109,216.002 103.019,216.002 103.019,216.002 		"/>
		<polygon points="103.019,216.002 104.928,216.002 104.928,216.002 		"/>
		<polygon points="104.928,216.002 106.838,216.002 106.838,216.002 		"/>
		<polygon points="106.838,216.002 108.748,216.002 108.748,216.002 		"/>
		<rect x="108.748" y="214.557" width="1.91" height="2.889"/>
		<rect x="110.657" y="214.557" width="1.91" height="2.889"/>
		<polygon points="112.567,216.002 114.477,216.002 114.477,216.002 		"/>
		<polygon points="114.477,216.002 116.386,216.002 116.386,216.002 		"/>
		<rect x="116.386" y="214.557" width="1.91" height="2.889"/>
		<polygon points="118.296,216.002 120.206,216.002 120.206,216.002 		"/>
		<rect x="120.206" y="214.557" width="1.91" height="2.889"/>
		<polygon points="122.115,216.002 124.025,216.002 124.025,216.002 		"/>
		<rect x="124.025" y="211.668" width="1.91" height="8.667"/>
		<polygon points="125.935,216.002 127.844,216.002 127.844,216.002 		"/>
		<polygon points="127.844,216.002 129.754,216.002 129.754,216.002 		"/>
		<polygon points="129.754,216.002 131.664,216.002 131.664,216.002 		"/>
		<polygon points="131.664,216.002 133.573,216.002 133.573,216.002 		"/>
		<rect x="133.573" y="214.557" width="1.91" height="2.889"/>
		<polygon points="135.483,216.002 137.393,216.002 137.393,216.002 		"/>
		<polygon points="137.393,216.002 139.302,216.002 139.302,216.002 		"/>
		<polygon points="139.302,216.002 141.212,216.002 141.212,216.002 		"/>
		<polygon points="141.212,216.002 143.121,216.002 143.121,216.002 		"/>
		<polygon points="143.121,216.002 145.031,216.002 145.031,216.002 		"/>
		<polygon points="145.031,216.002 146.941,216.002 146.941,216.002 		"/>
		<polygon points="146.941,216.002 148.85,216.002 148.85,216.002 		"/>
		<rect x="148.85" y="214.557" width="1.91" height="2.889"/>
		<polygon points="150.76,216.002 152.67,216.002 152.67,216.002 		"/>
		<rect x="152.67" y="213.113" width="1.91" height="5.778"/>
		<polygon points="154.579,216.002 156.489,216.002 156.489,216.002 		"/>
		<polygon points="156.489,216.002 158.399,216.002 158.399,216.002 		"/>
		<rect x="158.399" y="214.557" width="1.91" height="2.889"/>
		<polygon points="160.308,216.002 162.218,216.002 162.218,216.002 		"/>
		<polygon points="162.218,216.002 164.128,216.002 164.128,216.002 		"/>
		<polygon points="164.128,216.002 166.037,216.002 166.037,216.002 		"/>
		<polygon points="166.037,216.002 167.947,216.002 167.947,216.002 		"/>
		<polygon points="167.947,216.002 169.857,216.002 169.857,216.002 		"/>
		<polygon points="169.857,216.002 171.766,216.002 171.766,216.002 		"/>
		<polygon points="171.766,216.002 173.676,216.002 173.676,216.002 		"/>
		<polygon points="173.676,216.002 175.586,216.002 175.586,216.002 		"/>
		<rect x="175.586" y="214.557" width="1.91" height="2.889"/>
		<rect x="177.495" y="213.113" width="1.91" height="5.778"/>
		<polygon points="179.405,216.002 181.315,216.002 181.315,216.002 		"/>
		<polygon points="181.315,216.002 183.224,216.002 183.224,216.002 		"/>
		<polygon points="183.224,216.002 185.134,216.002 185.134,216.002 		"/>
		<polygon points="185.134,216.002 187.044,216.002 187.044,216.002 		"/>
		<polygon points="187.044,216.002 188.953,216.002 188.953,216.002 		"/>
		<polygon points="188.953,216.002 190.863,216.002 190.863,216.002 		"/>
		<polygon points="190.863,216.002 192.773,216.002 192.773,216.002 		"/>
		<polygon points="192.773,216.002 194.682,216.002 194.682,216.002 		"/>
		<polygon points="194.682,216.002 196.592,216.002 196.592,216.002 		"/>
		<polygon points="196.592,216.002 198.502,216.002 198.502,216.002 		"/>
		<polygon points="198.502,216.002 200.411,216.002 200.411,216.002 		"/>
		<polygon points="200.411,216.002 202.321,216.002 202.321,216.002 		"/>
		<polygon points="202.321,216.002 204.231,216.002 204.231,216.002 		"/>
		<polygon points="204.231,216.002 206.14,216.002 206.14,216.002 		"/>
		<polygon points="206.14,216.002 208.05,216.002 208.05,216.002 		"/>
		<polygon points="208.05,216.002 209.96,216.002 209.96,216.002 		"/>
		<rect x="209.96" y="213.113" width="1.91" height="5.778"/>
		<polygon points="211.869,216.002 213.779,216.002 213.779,216.002 		"/>
		<polygon points="213.779,216.002 215.688,216.002 215.688,216.002 		"/>
		<polygon points="215.688,216.002 217.598,216.002 217.598,216.002 		"/>
		<polygon points="217.598,216.002 219.508,216.002 219.508,216.002 		"/>
		<rect x="219.508" y="208.779" width="1.91" height="14.444"/>
		<rect x="221.417" y="214.557" width="1.91" height="2.889"/>
		<polygon points="223.327,216.002 225.237,216.002 225.237,216.002 		"/>
		<polygon points="225.237,216.002 227.146,216.002 227.146,216.002 		"/>
		<polygon points="227.146,216.002 229.056,216.002 229.056,216.002 		"/>
		<rect x="229.056" y="214.557" width="1.91" height="2.889"/>
		<polygon points="230.966,216.002 232.875,216.002 232.875,216.002 		"/>
		<rect x="232.875" y="213.113" width="1.91" height="5.778"/>
		<rect x="234.785" y="214.557" width="1.91" height="2.889"/>
		<polygon points="236.695,216.002 238.604,216.002 238.604,216.002 		"/>
		<polygon points="238.604,216.002 240.514,216.002 240.514,216.002 		"/>
		<polygon points="240.514,216.002 242.424,216.002 242.424,216.002 		"/>
		<rect x="242.424" y="214.557" width="1.91" height="2.889"/>
		<polygon points="244.333,216.002 246.243,216.002 246.243,216.002 		"/>
		<polygon points="246.243,216.002 248.153,216.002 248.153,216.002 		"/>
		<rect x="248.153" y="214.557" width="1.91" height="2.889"/>
		<polygon points="250.062,216.002 251.972,216.002 251.972,216.002 		"/>
		<polygon points="251.972,216.002 253.882,216.002 253.882,216.002 		"/>
		<rect x="253.882" y="214.557" width="1.91" height="2.889"/>
		<polygon points="255.791,216.002 257.701,216.002 257.701,216.002 		"/>
		<polygon points="257.701,216.002 259.611,216.002 259.611,216.002 		"/>
		<polygon points="259.611,216.002 261.52,216.002 261.52,216.002 		"/>
		<polygon points="261.52,216.002 263.43,216.002 263.43,216.002 		"/>
		<rect x="263.43" y="214.557" width="1.91" height="2.889"/>
		<rect x="265.34" y="214.557" width="1.91" height="2.889"/>
		<polygon points="267.249,216.002 269.159,216.002 269.159,216.002 		"/>
		<rect x="269.159" y="214.557" width="1.91" height="2.889"/>
		<polygon points="271.069,216.002 272.978,216.002 272.978,216.002 		"/>
		<polygon points="272.978,216.002 274.888,216.002 274.888,216.002 		"/>
		<polygon points="274.888,216.002 276.797,216.002 276.797,216.002 		"/>
		<polygon points="276.797,216.002 278.707,216.002 278.707,216.002 		"/>
		<polygon points="278.707,216.002 280.617,216.002 280.617,216.002 		"/>
		<rect x="280.617" y="214.557" width="1.91" height="2.889"/>
		<rect x="282.526" y="214.557" width="1.91" height="2.889"/>
		<polygon points="284.436,216.002 286.346,216.002 286.346,216.002 		"/>
		<rect x="286.346" y="214.557" width="1.91" height="2.889"/>
		<polygon points="288.255,216.002 290.165,216.002 290.165,216.002 		"/>
		<rect x="290.165" y="211.668" width="1.91" height="8.667"/>
		<polygon points="292.075,216.002 293.984,216.002 293.984,216.002 		"/>
		<polygon points="293.984,216.002 295.894,216.002 295.894,216.002 		"/>
		<polygon points="295.894,216.002 297.804,216.002 297.804,216.002 		"/>
		<rect x="297.804" y="214.557" width="1.91" height="2.889"/>
		<polygon points="299.713,216.002 301.623,216.002 301.623,216.002 		"/>
		<polygon points="301.623,216.002 303.533,216.002 303.533,216.002 		"/>
		<polygon points="303.533,216.002 305.442,216.002 305.442,216.002 		"/>
		<rect x="305.442" y="214.557" width="1.91" height="2.889"/>
		<polygon points="307.352,216.002 309.262,216.002 309.262,216.002 		"/>
		<rect x="309.262" y="214.557" width="1.91" height="2.889"/>
		<rect x="311.171" y="214.557" width="1.91" height="2.889"/>
		<polygon points="313.081,216.002 314.991,216.002 314.991,216.002 		"/>
		<polygon points="314.991,216.002 316.9,216.002 316.9,216.002 		"/>
		<polygon points="316.9,216.002 318.81,216.002 318.81,216.002 		"/>
		<rect x="318.81" y="214.557" width="1.91" height="2.889"/>
		<rect x="320.72" y="213.113" width="1.91" height="5.778"/>
		<rect x="322.629" y="214.557" width="1.91" height="2.889"/>
		<polygon points="324.539,216.002 326.449,216.002 326.449,216.002 		"/>
		<rect x="326.449" y="213.113" width="1.91" height="5.778"/>
		<rect x="328.358" y="213.113" width="1.91" height="5.778"/>
		<polygon points="330.268,216.002 332.178,216.002 332.178,216.002 		"/>
		<polygon points="332.178,216.002 334.087,216.002 334.087,216.002 		"/>
		<rect x="334.087" y="214.557" width="1.91" height="2.889"/>
		<rect x="335.997" y="214.557" width="1.91" height="2.889"/>
		<polygon points="337.907,216.002 339.816,216.002 339.816,216.002 		"/>
		<rect x="339.816" y="211.668" width="1.91" height="8.667"/>
		<rect x="341.726" y="208.779" width="1.91" height="14.444"/>
		<rect x="343.636" y="214.557" width="1.91" height="2.889"/>
		<polygon points="345.545,216.002 347.455,216.002 347.455,216.002 		"/>
		<polygon points="347.455,216.002 349.365,216.002 349.365,216.002 		"/>
		<polygon points="349.364,216.002 351.274,216.002 351.274,216.002 		"/>
		<polygon points="351.274,216.002 353.184,216.002 353.184,216.002 		"/>
		<rect x="353.184" y="211.668" width="1.91" height="8.667"/>
		<rect x="355.093" y="213.113" width="1.91" height="5.778"/>
		<polygon points="357.003,216.002 358.913,216.002 358.913,216.002 		"/>
		<polygon points="358.913,216.002 360.822,216.002 360.822,216.002 		"/>
		<polygon points="360.822,216.002 362.732,216.002 362.732,216.002 		"/>
		<polygon points="362.732,216.002 364.642,216.002 364.642,216.002 		"/>
		<rect x="364.642" y="214.557" width="1.91" height="2.889"/>
		<rect x="366.551" y="210.224" width="1.91" height="11.556"/>
		<rect x="368.461" y="211.668" width="1.91" height="8.667"/>
		<polygon points="370.371,216.002 372.28,216.002 372.28,216.002 		"/>
		<polygon points="372.28,216.002 374.19,216.002 374.19,216.002 		"/>
		<polygon points="374.19,216.002 376.1,216.002 376.1,216.002 		"/>
		<rect x="376.1" y="213.113" width="1.91" height="5.778"/>
		<rect x="378.009" y="214.557" width="1.91" height="2.889"/>
		<polygon points="379.919,216.002 381.829,216.002 381.829,216.002 		"/>
		<rect x="381.829" y="214.557" width="1.91" height="2.889"/>
		<rect x="383.738" y="210.224" width="1.91" height="11.556"/>
		<polygon points="385.648,216.002 387.558,216.002 387.558,216.002 		"/>
		<rect x="387.558" y="214.557" width="1.91" height="2.889"/>
		<polygon points="389.467,216.002 391.377,216.002 391.377,216.002 		"/>
		<polygon points="391.377,216.002 393.287,216.002 393.287,216.002 		"/>
		<polygon points="393.287,216.002 395.196,216.002 395.196,216.002 		"/>
		<polygon points="395.196,216.002 397.106,216.002 397.106,216.002 		"/>
		<polygon points="397.106,216.002 399.016,216.002 399.016,216.002 		"/>
		<rect x="399.016" y="214.557" width="1.91" height="2.889"/>
		<polygon points="400.925,216.002 402.835,216.002 402.835,216.002 		"/>
		<polygon points="402.835,216.002 404.745,216.002 404.745,216.002 		"/>
		<polygon points="404.745,216.002 406.654,216.002 406.654,216.002 		"/>
		<polygon points="406.654,216.002 408.564,216.002 408.564,216.002 		"/>
		<polygon points="408.564,216.002 410.474,216.002 410.474,216.002 		"/>
		<polygon points="410.474,216.002 412.383,216.002 412.383,216.002 		"/>
		<rect x="412.383" y="214.557" width="1.91" height="2.889"/>
		<polygon points="414.293,216.002 416.203,216.002 416.203,216.002 		"/>
		<polygon points="416.202,216.002 418.112,216.002 418.112,216.002 		"/>
		<rect x="418.112" y="214.557" width="1.91" height="2.889"/>
		<rect x="420.022" y="214.557" width="1.91" height="2.889"/>
		<rect x="421.931" y="213.113" width="1.91" height="5.778"/>
		<rect x="423.841" y="208.779" width="1.91" height="14.444"/>
		<rect x="425.751" y="211.668" width="1.91" height="8.667"/>
		<polygon points="427.66,216.002 429.57,216.002 429.57,216.002 		"/>
		<rect x="429.57" y="210.224" width="1.91" height="11.556"/>
		<rect x="431.48" y="213.113" width="1.91" height="5.778"/>
		<polygon points="433.389,216.002 435.299,216.002 435.299,216.002 		"/>
		<rect x="435.299" y="214.557" width="1.91" height="2.889"/>
		<rect x="437.209" y="205.89" width="1.91" height="20.222"/>
		<rect x="439.118" y="213.113" width="1.91" height="5.778"/>
		<rect x="441.028" y="214.557" width="1.91" height="2.889"/>
		<rect x="442.938" y="210.224" width="1.91" height="11.556"/>
		<rect x="444.847" y="214.557" width="1.91" height="2.889"/>
		<rect x="446.757" y="210.224" width="1.91" height="11.556"/>
		<polygon points="448.667,216.002 450.576,216.002 450.576,216.002 		"/>
		<polygon points="450.576,216.002 452.486,216.002 452.486,216.002 		"/>
		<rect x="452.486" y="145.224" width="1.91" height="141.556"/>
		<rect x="454.396" y="210.224" width="1.91" height="11.556"/>
		<polygon points="456.305,216.002 458.215,216.002 458.215,216.002 		"/>
		<polygon points="458.215,216.002 460.125,216.002 460.125,216.002 		"/>
		<polygon points="460.125,216.002 462.034,216.002 462.034,216.002 		"/>
		<polygon points="462.034,216.002 463.944,216.002 463.944,216.002 		"/>
		<rect x="463.944" y="211.668" width="1.91" height="8.667"/>
		<rect x="465.854" y="200.113" width="1.91" height="31.778"/>
		<rect x="467.763" y="201.557" width="1.91" height="28.889"/>
		<rect x="469.673" y="211.668" width="1.91" height="8.667"/>
		<rect x="471.583" y="207.335" width="1.91" height="17.333"/>
		<rect x="473.492" y="213.113" width="1.91" height="5.778"/>
		<rect x="475.402" y="214.557" width="1.91" height="2.889"/>
		<rect x="477.312" y="205.89" width="1.91" height="20.222"/>
		<rect x="479.221" y="214.557" width="1.91" height="2.889"/>
		<polygon points="481.131,216.002 483.04,216.002 483.04,216.002 		"/>
		<polygon points="483.04,216.002 484.95,216.002 484.95,216.002 		"/>
		<polygon points="484.95,216.002 486.86,216.002 486.86,216.002 		"/>
		<rect x="486.86" y="213.113" width="1.91" height="5.778"/>
		<polygon points="488.769,216.002 490.679,216.002 490.679,216.002 		"/>
		<polygon points="490.679,216.002 492.589,216.002 492.589,216.002 		"/>
		<rect x="492.589" y="211.668" width="1.91" height="8.667"/>
		<rect x="494.498" y="211.668" width="1.91" height="8.667"/>
		<rect x="496.408" y="213.113" width="1.91" height="5.778"/>
		<rect x="498.318" y="208.779" width="1.91" height="14.444"/>
		<rect x="500.227" y="213.113" width="1.91" height="5.778"/>
		<rect x="502.137" y="210.224" width="1.91" height="11.556"/>
		<rect x="504.047" y="208.779" width="1.91" height="14.444"/>
		<rect x="505.956" y="214.557" width="1.91" height="2.889"/>
		<rect x="507.866" y="210.224" width="1.91" height="11.556"/>
		<rect x="509.776" y="210.224" width="1.91" height="11.556"/>
		<rect x="511.685" y="213.113" width="1.91" height="5.778"/>
		<rect x="513.595" y="211.668" width="1.91" height="8.667"/>
		<rect x="515.505" y="205.89" width="1.91" height="20.222"/>
		<rect x="517.414" y="214.557" width="1.91" height="2.889"/>
		<rect x="519.324" y="213.113" width="1.91" height="5.778"/>
		<rect x="521.234" y="208.779" width="1.91" height="14.444"/>
		<rect x="523.143" y="198.668" width="1.91" height="34.667"/>
		<rect x="525.053" y="214.557" width="1.91" height="2.889"/>
		<rect x="526.963" y="198.668" width="1.91" height="34.667"/>
		<rect x="528.872" y="208.779" width="1.91" height="14.444"/>
		<rect x="530.782" y="213.113" width="1.91" height="5.778"/>
		<rect x="532.692" y="214.557" width="1.91" height="2.889"/>
		<rect x="534.601" y="205.89" width="1.91" height="20.222"/>
		<rect x="536.511" y="213.113" width="1.91" height="5.778"/>
		<rect x="538.421" y="203.002" width="1.91" height="26"/>
		<rect x="540.33" y="214.557" width="1.91" height="2.889"/>
		<rect x="542.24" y="214.557" width="1.91" height="2.889"/>
		<rect x="544.15" y="214.557" width="1.91" height="2.889"/>
		<polygon points="546.059,216.002 547.969,216.002 547.969,216.002 		"/>
		<rect x="547.969" y="213.113" width="1.91" height="5.778"/>
		<rect x="549.879" y="181.335" width="1.91" height="69.333"/>
		<rect x="551.788" y="99.002" width="1.91" height="234"/>
		<rect x="553.698" y="200.113" width="1.91" height="31.778"/>
		<rect x="555.607" y="213.113" width="1.91" height="5.778"/>
		<rect x="557.517" y="214.557" width="1.91" height="2.889"/>
		<rect x="559.427" y="211.668" width="1.91" height="8.667"/>
		<rect x="561.336" y="207.335" width="1.91" height="17.333"/>
		<rect x="563.246" y="211.668" width="1.91" height="8.667"/>
		<rect x="565.156" y="214.557" width="1.91" height="2.889"/>
		<rect x="567.065" y="213.113" width="1.91" height="5.778"/>
		<rect x="568.975" y="208.779" width="1.91" height="14.444"/>
		<rect x="570.885" y="213.113" width="1.91" height="5.778"/>
		<rect x="572.794" y="204.446" width="1.91" height="23.111"/>
		<rect x="574.704" y="211.668" width="1.91" height="8.667"/>
		<rect x="576.614" y="214.557" width="1.91" height="2.889"/>
		<rect x="578.523" y="211.668" width="1.91" height="8.667"/>
		<rect x="580.433" y="204.446" width="1.91" height="23.111"/>
		<polygon points="582.343,216.002 584.252,216.002 584.252,216.002 		"/>
		<rect x="584.252" y="211.668" width="1.91" height="8.667"/>
		<rect x="586.162" y="210.224" width="1.91" height="11.556"/>
		<rect x="588.072" y="200.113" width="1.91" height="31.778"/>
		<rect x="589.981" y="213.113" width="1.91" height="5.778"/>
		<rect x="591.891" y="203.002" width="1.91" height="26"/>
		<rect x="593.801" y="203.002" width="1.91" height="26"/>
		<rect x="595.71" y="214.557" width="1.91" height="2.889"/>
		<rect x="597.62" y="213.113" width="1.91" height="5.778"/>
		<rect x="599.53" y="213.113" width="1.91" height="5.778"/>
		<rect x="601.439" y="214.557" width="1.91" height="2.889"/>
		<rect x="603.349" y="208.779" width="1.91" height="14.444"/>
		<rect x="605.259" y="197.224" width="1.91" height="37.556"/>
		<rect x="607.168" y="213.113" width="1.91" height="5.778"/>
		<rect x="609.078" y="210.224" width="1.91" height="11.556"/>
		<rect x="610.988" y="207.335" width="1.91" height="17.333"/>
		<rect x="612.897" y="214.557" width="1.91" height="2.889"/>
		<rect x="614.807" y="214.557" width="1.91" height="2.889"/>
		<rect x="616.716" y="213.113" width="1.91" height="5.778"/>
		<rect x="618.626" y="211.668" width="1.91" height="8.667"/>
		<rect x="620.536" y="211.668" width="1.91" height="8.667"/>
		<polygon points="622.445,216.002 624.355,216.002 624.355,216.002 		"/>
		<rect x="624.355" y="214.557" width="1.91" height="2.889"/>
		<rect x="626.265" y="205.89" width="1.91" height="20.222"/>
		<rect x="628.174" y="204.446" width="1.91" height="23.111"/>
		<rect x="630.084" y="204.446" width="1.91" height="23.111"/>
		<rect x="631.994" y="203.002" width="1.91" height="26"/>
		<rect x="633.903" y="210.224" width="1.91" height="11.556"/>
		<rect x="635.813" y="211.668" width="1.91" height="8.667"/>
		<rect x="637.723" y="203.002" width="1.91" height="26"/>
		<polygon points="639.632,216.002 641.542,216.002 641.542,216.002 		"/>
		<polygon points="641.542,216.002 643.452,216.002 643.452,216.002 		"/>
		<rect x="643.452" y="207.335" width="1.91" height="17.333"/>
		<rect x="645.361" y="211.668" width="1.91" height="8.667"/>
		<rect x="647.271" y="207.335" width="1.91" height="17.333"/>
		<rect x="649.181" y="207.335" width="1.91" height="17.333"/>
		<rect x="651.09" y="190.002" width="1.91" height="52"/>
	</g>
	<g>
		<g>
			<g>
				<path fill="none" stroke="#000000" stroke-miterlimit="10" d="M453.311,121.514c-0.464-8.425-1.757-16.685-3.598-23.397
					c-2.747-9.208-6.573-15.266-10.595-16.235"/>
				<g>
					<path d="M453.441,124.529c0.442-1.448,1.236-3.26,2.122-4.406l-2.323,0.999l-2.424-0.718
						C451.83,121.437,452.832,123.143,453.441,124.529z"/>
				</g>
			</g>
		</g>
	</g>
	<g transform="translate(30.95185411632263, 275)">
		<path display="none" fill="none" stroke="#000000" d="M3.522,63.795h611.09"/>
		<g transform="translate(21.756304702566386,0)">
			<line display="none" fill="none" stroke="#000000" x1="3.022" y1="-196.705" x2="3.022" y2="63.295"/>
			
				
		</g>
		<g transform="translate(46.581849873905945,0)">
			<line display="none" fill="none" stroke="#000000" x1="3.022" y1="-196.705" x2="3.022" y2="63.295"/>
			
				
		</g>
		<g transform="translate(71.68020323394155,0)">
			<line display="none" fill="none" stroke="#000000" x1="3.022" y1="-196.705" x2="3.022" y2="63.295"/>
			
				
		</g>
		<g transform="translate(96.78992360183949,0)">
			<line display="none" fill="none" stroke="#000000" x1="3.022" y1="-196.705" x2="3.022" y2="63.295"/>
			
				
		</g>
		<g transform="translate(121.33129357662068,0)">
			<line display="none" fill="none" stroke="#000000" x1="3.022" y1="-196.705" x2="3.022" y2="63.295"/>
			
				
		</g>
		<g transform="translate(146.15683874796025,0)">
			<line display="none" fill="none" stroke="#000000" x1="3.022" y1="-196.705" x2="3.022" y2="63.295"/>
			
				
		</g>
		<g transform="translate(171.25519210799584,0)">
			<line display="none" fill="none" stroke="#000000" x1="3.022" y1="-196.705" x2="3.022" y2="63.295"/>
			
				
		</g>
		<g transform="translate(196.3649124758938,0)">
			<line display="none" fill="none" stroke="#000000" x1="3.022" y1="-196.705" x2="3.022" y2="63.295"/>
			
				
		</g>
		<g transform="translate(221.179090639371,0)">
			<line display="none" fill="none" stroke="#000000" x1="3.022" y1="-196.705" x2="3.022" y2="63.295"/>
			
				
		</g>
		<g transform="translate(246.00463581071057,0)">
			<line display="none" fill="none" stroke="#000000" x1="3.022" y1="-196.705" x2="3.022" y2="63.295"/>
			
				
		</g>
		<g transform="translate(271.1029891707462,0)">
			<line display="none" fill="none" stroke="#000000" x1="3.022" y1="-196.705" x2="3.022" y2="63.295"/>
			
				
		</g>
		<g transform="translate(296.2127095386441,0)">
			<line display="none" fill="none" stroke="#000000" x1="3.022" y1="-196.705" x2="3.022" y2="63.295"/>
			
				
		</g>
		<g transform="translate(320.7540795134253,0)">
			<line display="none" fill="none" stroke="#000000" x1="3.022" y1="-196.705" x2="3.022" y2="63.295"/>
			
				
		</g>
		<g transform="translate(345.5796246847649,0)">
			<line display="none" fill="none" stroke="#000000" x1="3.022" y1="-196.705" x2="3.022" y2="63.295"/>
			
				
		</g>
		<g transform="translate(370.67797804480045,0)">
			<line display="none" fill="none" stroke="#000000" x1="3.022" y1="-196.705" x2="3.022" y2="63.295"/>
			
				
		</g>
		<g transform="translate(395.78769841269843,0)">
			<line display="none" fill="none" stroke="#000000" x1="3.022" y1="-196.705" x2="3.022" y2="63.295"/>
			
				
		</g>
		<g transform="translate(420.32906838747965,0)">
			<line display="none" fill="none" stroke="#000000" x1="3.022" y1="-196.705" x2="3.022" y2="63.295"/>
			
				
		</g>
		<g transform="translate(445.15461355881916,0)">
			<line display="none" fill="none" stroke="#000000" x1="3.022" y1="-196.705" x2="3.022" y2="63.295"/>
			
				
		</g>
		<g transform="translate(470.2529669188548,0)">
			<line display="none" fill="none" stroke="#000000" x1="3.022" y1="-196.705" x2="3.022" y2="63.295"/>
			
				
		</g>
		<g transform="translate(495.3626872867527,0)">
			<line display="none" fill="none" stroke="#000000" x1="3.022" y1="-196.705" x2="3.022" y2="63.295"/>
			
				
		</g>
		<g transform="translate(519.9040572615339,0)">
			<line display="none" fill="none" stroke="#000000" x1="3.022" y1="-196.705" x2="3.022" y2="63.295"/>
			
				
		</g>
		<g transform="translate(544.7296024328734,0)">
			<line display="none" fill="none" stroke="#000000" x1="3.022" y1="-196.705" x2="3.022" y2="63.295"/>
			
				
		</g>
		<g transform="translate(569.827955792909,0)">
			<line display="none" fill="none" stroke="#000000" x1="3.022" y1="-196.705" x2="3.022" y2="63.295"/>
			
				
		</g>
		<g transform="translate(594.937676160807,0)">
			<line display="none" fill="none" stroke="#000000" x1="3.022" y1="-196.705" x2="3.022" y2="63.295"/>
			
				
		</g>
		<g transform="translate(519.9040572615339,0)">
			<line display="none" fill="none" stroke="#000000" x1="100.559" y1="-196.388" x2="100.559" y2="63.612"/>
			
				
		</g>
	</g>
</g>
<style>
#g-verba-vignette12-feminismo-desktop-img rect, #g-verba-vignette12-feminismo-desktop-img circle, #g-verba-vignette12-feminismo-desktop-img path, #g-verba-vignette12-feminismo-desktop-img line, #g-verba-vignette12-feminismo-desktop-img polyline { vector-effect: non-scaling-stroke; }
</style>
</svg>

