<?xml version="1.0" encoding="utf-8"?>
<!-- Generator: Adobe Illustrator 24.0.3, SVG Export Plug-In . SVG Version: 6.00 Build 0)  -->
<svg version="1.2" baseProfile="tiny" id="g-verba-vignette09-violencia-genero-desktop-img" xmlns="http://www.w3.org/2000/svg" xmlns:xlink="http://www.w3.org/1999/xlink"
	 x="0px" y="0px" viewBox="0 0 673 459.47" xml:space="preserve">
<g>
	<g transform="translate(30.963826886524892, 275)">
		<path display="none" fill="none" stroke="#212529" d="M0.5,117.809h611.066"/>
		<g transform="translate(23.958277001652394,0)">
			<line display="none" fill="none" stroke="#212529" x1="0" y1="-142.691" x2="0" y2="117.309"/>
			
				
		</g>
		<g transform="translate(49.09707826348205,0)">
			<line display="none" fill="none" stroke="#212529" x1="0" y1="-142.691" x2="0" y2="117.309"/>
			
				
		</g>
		<g transform="translate(74.51213008862851,0)">
			<line display="none" fill="none" stroke="#212529" x1="0" y1="-142.691" x2="0" y2="117.309"/>
			
				
		</g>
		<g transform="translate(99.93869235391318,0)">
			<line display="none" fill="none" stroke="#212529" x1="0" y1="-142.691" x2="0" y2="117.309"/>
			
				
		</g>
		<g transform="translate(124.78973261228782,0)">
			<line display="none" fill="none" stroke="#212529" x1="0" y1="-142.691" x2="0" y2="117.309"/>
			
				
		</g>
		<g transform="translate(149.92853387411748,0)">
			<line display="none" fill="none" stroke="#212529" x1="0" y1="-142.691" x2="0" y2="117.309"/>
			
				
		</g>
		<g transform="translate(175.34358569926394,0)">
			<line display="none" fill="none" stroke="#212529" x1="0" y1="-142.691" x2="0" y2="117.309"/>
			
				
		</g>
		<g transform="translate(200.7701479645486,0)">
			<line display="none" fill="none" stroke="#212529" x1="0" y1="-142.691" x2="0" y2="117.309"/>
			
				
		</g>
		<g transform="translate(225.89743878624006,0)">
			<line display="none" fill="none" stroke="#212529" x1="0" y1="-142.691" x2="0" y2="117.309"/>
			
				
		</g>
		<g transform="translate(251.03624004806971,0)">
			<line display="none" fill="none" stroke="#212529" x1="0" y1="-142.691" x2="0" y2="117.309"/>
			
				
		</g>
		<g transform="translate(276.4512918732162,0)">
			<line display="none" fill="none" stroke="#212529" x1="0" y1="-142.691" x2="0" y2="117.309"/>
			
				
		</g>
		<g transform="translate(301.8778541385008,0)">
			<line display="none" fill="none" stroke="#212529" x1="0" y1="-142.691" x2="0" y2="117.309"/>
			
				
		</g>
		<g transform="translate(326.7288943968755,0)">
			<line display="none" fill="none" stroke="#212529" x1="0" y1="-142.691" x2="0" y2="117.309"/>
			
				
		</g>
		<g transform="translate(351.86769565870514,0)">
			<line display="none" fill="none" stroke="#212529" x1="0" y1="-142.691" x2="0" y2="117.309"/>
			
				
		</g>
		<g transform="translate(377.2827474838516,0)">
			<line display="none" fill="none" stroke="#212529" x1="0" y1="-142.691" x2="0" y2="117.309"/>
			
				
		</g>
		<g transform="translate(402.70930974913625,0)">
			<line display="none" fill="none" stroke="#212529" x1="0" y1="-142.691" x2="0" y2="117.309"/>
			
				
		</g>
		<g transform="translate(427.5603500075109,0)">
			<line display="none" fill="none" stroke="#212529" x1="0" y1="-142.691" x2="0" y2="117.309"/>
			
				
		</g>
		<g transform="translate(452.6991512693405,0)">
			<line display="none" fill="none" stroke="#212529" x1="0" y1="-142.691" x2="0" y2="117.309"/>
			
				
		</g>
		<g transform="translate(478.11420309448704,0)">
			<line display="none" fill="none" stroke="#212529" x1="0" y1="-142.691" x2="0" y2="117.309"/>
			
				
		</g>
		<g transform="translate(503.5407653597717,0)">
			<line display="none" fill="none" stroke="#212529" x1="0" y1="-142.691" x2="0" y2="117.309"/>
			
				
		</g>
		<g transform="translate(528.3918056181463,0)">
			<line display="none" fill="none" stroke="#212529" x1="0" y1="-142.691" x2="0" y2="117.309"/>
			
				
		</g>
		<g transform="translate(553.530606879976,0)">
			<line display="none" fill="none" stroke="#212529" x1="0" y1="-142.691" x2="0" y2="117.309"/>
			
				
		</g>
		<g transform="translate(578.9456587051225,0)">
			<line display="none" fill="none" stroke="#212529" x1="0" y1="-142.691" x2="0" y2="117.309"/>
			
				
		</g>
		<g transform="translate(604.372220970407,0)">
			<line display="none" fill="none" stroke="#212529" x1="0" y1="-142.691" x2="0" y2="117.309"/>
			
				
		</g>
	</g>
	<g transform="translate(30.963826886524892, 290)">
		<path display="none" fill="none" stroke="#212529" d="M0.5,117.809h611.066"/>
		<g transform="translate(99.93869235391318,0)">
			<line display="none" fill="none" stroke="#212529" x1="0" y1="-142.691" x2="0" y2="117.309"/>
			
				<text transform="matrix(1 0 0 1 -11.123 133.4089)" display="none" fill="#212529" font-family="'ElMessiri-Bold'" font-size="10px">2015</text>
		</g>
		<g transform="translate(200.7701479645486,0)">
			<line display="none" fill="none" stroke="#212529" x1="0" y1="-142.691" x2="0" y2="117.309"/>
			
				<text transform="matrix(1 0 0 1 -11.123 133.4089)" display="none" fill="#212529" font-family="'ElMessiri-Bold'" font-size="10px">2016</text>
		</g>
		<g transform="translate(301.8778541385008,0)">
			<line display="none" fill="none" stroke="#212529" x1="0" y1="-142.691" x2="0" y2="117.309"/>
			
				<text transform="matrix(1 0 0 1 -11.123 133.4089)" display="none" fill="#212529" font-family="'ElMessiri-Bold'" font-size="10px">2017</text>
		</g>
		<g transform="translate(402.70930974913625,0)">
			<line display="none" fill="none" stroke="#212529" x1="0" y1="-142.691" x2="0" y2="117.309"/>
			
				<text transform="matrix(1 0 0 1 -11.123 133.4089)" display="none" fill="#212529" font-family="'ElMessiri-Bold'" font-size="10px">2018</text>
		</g>
		<g transform="translate(503.5407653597717,0)">
			<line display="none" fill="none" stroke="#212529" x1="0" y1="-142.691" x2="0" y2="117.309"/>
			
				<text transform="matrix(1 0 0 1 -11.1231 133.4089)" display="none" fill="#212529" font-family="'ElMessiri-Bold'" font-size="10px">2019</text>
		</g>
		<g transform="translate(604.372220970407,0)">
			<line display="none" fill="none" stroke="#212529" x1="0" y1="-142.691" x2="0" y2="117.309"/>
			
				<text transform="matrix(1 0 0 1 -11.1231 133.4089)" display="none" fill="#212529" font-family="'ElMessiri-Bold'" font-size="10px">2020</text>
		</g>
	</g>
	<g transform="translate(30, 0)">
		<path display="none" fill="none" stroke="#212529" d="M-6,247.809h6.5v-130H-6"/>
		<g transform="translate(0,130.5)">
			<line fill="none" stroke="#212529" stroke-opacity="0.12" x1="0" y1="117.309" x2="613" y2="117.309"/>
			
				
		</g>
		<g transform="translate(0,104.5)">
			<line fill="none" stroke="#212529" stroke-opacity="0.12" x1="0" y1="117.309" x2="613" y2="117.309"/>
			
				
		</g>
		<g transform="translate(0,78.5)">
			<line fill="none" stroke="#212529" stroke-opacity="0.12" x1="0" y1="117.309" x2="613" y2="117.309"/>
			
				
		</g>
		<g transform="translate(0,52.5)">
			<line fill="none" stroke="#212529" stroke-opacity="0.12" x1="0" y1="117.309" x2="613" y2="117.309"/>
			
				
		</g>
		<g transform="translate(0,26.499999999999993)">
			<line fill="none" stroke="#212529" stroke-opacity="0.12" x1="0" y1="117.309" x2="613" y2="117.309"/>
			
				
		</g>
		<g transform="translate(0,0.5)">
			<line fill="none" stroke="#212529" stroke-opacity="0.12" x1="0" y1="117.309" x2="613" y2="117.309"/>
			
				
		</g>
	</g>
	<g>
		<rect x="30" y="236.909" width="1.934" height="20.8"/>
		<rect x="31.934" y="239.509" width="1.934" height="15.6"/>
		<polygon points="33.868,247.309 35.801,247.309 35.801,247.309 		"/>
		<rect x="35.801" y="226.509" width="1.934" height="41.6"/>
		<rect x="37.735" y="226.509" width="1.934" height="41.6"/>
		<rect x="39.669" y="231.709" width="1.934" height="31.2"/>
		<rect x="41.603" y="242.109" width="1.934" height="10.4"/>
		<polygon points="43.536,247.309 45.47,247.309 45.47,247.309 		"/>
		<rect x="45.47" y="184.909" width="1.934" height="124.8"/>
		<polygon points="47.404,247.309 49.338,247.309 49.338,247.309 		"/>
		<rect x="49.338" y="221.309" width="1.934" height="52"/>
		<rect x="51.271" y="216.109" width="1.934" height="62.4"/>
		<rect x="53.205" y="192.709" width="1.934" height="109.2"/>
		<rect x="55.139" y="218.709" width="1.934" height="57.2"/>
		<polygon points="57.073,247.309 59.006,247.309 59.006,247.309 		"/>
		<rect x="59.006" y="231.709" width="1.934" height="31.2"/>
		<rect x="60.94" y="239.509" width="1.934" height="15.6"/>
		<rect x="62.874" y="229.109" width="1.934" height="36.4"/>
		<rect x="64.808" y="229.109" width="1.934" height="36.4"/>
		<rect x="66.741" y="244.709" width="1.934" height="5.2"/>
		<rect x="68.675" y="218.709" width="1.934" height="57.2"/>
		<rect x="70.609" y="236.909" width="1.934" height="20.8"/>
		<rect x="72.543" y="223.909" width="1.934" height="46.8"/>
		<rect x="74.476" y="242.109" width="1.934" height="10.4"/>
		<rect x="76.41" y="218.709" width="1.934" height="57.2"/>
		<polygon points="78.344,247.309 80.278,247.309 80.278,247.309 		"/>
		<polygon points="80.278,247.309 82.211,247.309 82.211,247.309 		"/>
		<polygon points="82.211,247.309 84.145,247.309 84.145,247.309 		"/>
		<rect x="84.145" y="231.709" width="1.934" height="31.2"/>
		<rect x="86.079" y="229.109" width="1.934" height="36.4"/>
		<rect x="88.013" y="192.709" width="1.934" height="109.2"/>
		<rect x="89.946" y="236.909" width="1.934" height="20.8"/>
		<rect x="91.88" y="236.909" width="1.934" height="20.8"/>
		<rect x="93.814" y="200.509" width="1.934" height="93.6"/>
		<rect x="95.748" y="231.709" width="1.934" height="31.2"/>
		<rect x="97.681" y="234.309" width="1.934" height="26"/>
		<rect x="99.615" y="244.709" width="1.934" height="5.2"/>
		<rect x="101.549" y="244.709" width="1.934" height="5.2"/>
		<rect x="103.483" y="229.109" width="1.934" height="36.4"/>
		<rect x="105.416" y="244.709" width="1.934" height="5.2"/>
		<rect x="107.35" y="244.709" width="1.934" height="5.2"/>
		<rect x="109.284" y="242.109" width="1.934" height="10.4"/>
		<rect x="111.218" y="236.909" width="1.934" height="20.8"/>
		<rect x="113.151" y="239.509" width="1.934" height="15.6"/>
		<rect x="115.085" y="223.909" width="1.934" height="46.8"/>
		<rect x="117.019" y="216.109" width="1.934" height="62.4"/>
		<rect x="118.953" y="187.509" width="1.934" height="119.6"/>
		<rect x="120.886" y="223.909" width="1.934" height="46.8"/>
		<rect x="122.82" y="195.309" width="1.934" height="104"/>
		<rect x="124.754" y="244.709" width="1.934" height="5.2"/>
		<polygon points="126.688,247.309 128.621,247.309 128.621,247.309 		"/>
		<rect x="128.621" y="239.509" width="1.934" height="15.6"/>
		<rect x="130.555" y="239.509" width="1.934" height="15.6"/>
		<rect x="132.489" y="242.109" width="1.934" height="10.4"/>
		<rect x="134.423" y="236.909" width="1.934" height="20.8"/>
		<rect x="136.356" y="223.909" width="1.934" height="46.8"/>
		<rect x="138.29" y="244.709" width="1.934" height="5.2"/>
		<rect x="140.224" y="244.709" width="1.934" height="5.2"/>
		<rect x="142.158" y="231.709" width="1.934" height="31.2"/>
		<rect x="144.091" y="244.709" width="1.934" height="5.2"/>
		<rect x="146.025" y="197.909" width="1.934" height="98.8"/>
		<rect x="147.959" y="229.109" width="1.934" height="36.4"/>
		<rect x="149.893" y="242.109" width="1.934" height="10.4"/>
		<polygon points="151.826,247.309 153.76,247.309 153.76,247.309 		"/>
		<rect x="153.76" y="200.509" width="1.934" height="93.6"/>
		<rect x="155.694" y="210.909" width="1.934" height="72.8"/>
		<polygon points="157.628,247.309 159.562,247.309 159.562,247.309 		"/>
		<rect x="159.562" y="218.709" width="1.934" height="57.2"/>
		<rect x="161.495" y="244.709" width="1.934" height="5.2"/>
		<rect x="163.429" y="203.109" width="1.934" height="88.4"/>
		<rect x="165.363" y="200.509" width="1.934" height="93.6"/>
		<rect x="167.297" y="239.509" width="1.934" height="15.6"/>
		<rect x="169.23" y="234.309" width="1.934" height="26"/>
		<rect x="171.164" y="234.309" width="1.934" height="26"/>
		<rect x="173.098" y="239.509" width="1.934" height="15.6"/>
		<rect x="175.032" y="239.509" width="1.934" height="15.6"/>
		<rect x="176.965" y="242.109" width="1.934" height="10.4"/>
		<rect x="178.899" y="231.709" width="1.934" height="31.2"/>
		<rect x="180.833" y="226.509" width="1.934" height="41.6"/>
		<rect x="182.767" y="239.509" width="1.934" height="15.6"/>
		<rect x="184.7" y="231.709" width="1.934" height="31.2"/>
		<rect x="186.634" y="239.509" width="1.934" height="15.6"/>
		<rect x="188.568" y="218.709" width="1.934" height="57.2"/>
		<rect x="190.502" y="200.509" width="1.934" height="93.6"/>
		<rect x="192.435" y="190.109" width="1.934" height="114.4"/>
		<rect x="194.369" y="200.509" width="1.934" height="93.6"/>
		<rect x="196.303" y="244.709" width="1.934" height="5.2"/>
		<rect x="198.237" y="210.909" width="1.934" height="72.8"/>
		<rect x="200.17" y="242.109" width="1.934" height="10.4"/>
		<polygon points="202.104,247.309 204.038,247.309 204.038,247.309 		"/>
		<polygon points="204.038,247.309 205.972,247.309 205.972,247.309 		"/>
		<rect x="205.972" y="234.309" width="1.934" height="26"/>
		<rect x="207.905" y="234.309" width="1.934" height="26"/>
		<rect x="209.839" y="223.909" width="1.934" height="46.8"/>
		<rect x="211.773" y="244.709" width="1.934" height="5.2"/>
		<rect x="213.707" y="197.909" width="1.934" height="98.8"/>
		<rect x="215.64" y="221.309" width="1.934" height="52"/>
		<rect x="217.574" y="231.709" width="1.934" height="31.2"/>
		<rect x="219.508" y="166.709" width="1.934" height="161.2"/>
		<rect x="221.442" y="242.109" width="1.934" height="10.4"/>
		<rect x="223.375" y="208.309" width="1.934" height="78"/>
		<rect x="225.309" y="236.909" width="1.934" height="20.8"/>
		<rect x="227.243" y="239.509" width="1.934" height="15.6"/>
		<rect x="229.177" y="223.909" width="1.934" height="46.8"/>
		<rect x="231.11" y="216.109" width="1.934" height="62.4"/>
		<rect x="233.044" y="236.909" width="1.934" height="20.8"/>
		<rect x="234.978" y="234.309" width="1.934" height="26"/>
		<rect x="236.912" y="239.509" width="1.934" height="15.6"/>
		<rect x="238.845" y="239.509" width="1.934" height="15.6"/>
		<rect x="240.779" y="229.109" width="1.934" height="36.4"/>
		<rect x="242.713" y="236.909" width="1.934" height="20.8"/>
		<rect x="244.647" y="216.109" width="1.934" height="62.4"/>
		<rect x="246.58" y="242.109" width="1.934" height="10.4"/>
		<rect x="248.514" y="226.509" width="1.934" height="41.6"/>
		<rect x="250.448" y="239.509" width="1.934" height="15.6"/>
		<polygon points="252.382,247.309 254.315,247.309 254.315,247.309 		"/>
		<rect x="254.315" y="242.109" width="1.934" height="10.4"/>
		<rect x="256.249" y="218.709" width="1.934" height="57.2"/>
		<rect x="258.183" y="229.109" width="1.934" height="36.4"/>
		<rect x="260.117" y="216.109" width="1.934" height="62.4"/>
		<polygon points="262.05,247.309 263.984,247.309 263.984,247.309 		"/>
		<rect x="263.984" y="236.909" width="1.934" height="20.8"/>
		<polygon points="265.918,247.309 267.852,247.309 267.852,247.309 		"/>
		<rect x="267.852" y="242.109" width="1.934" height="10.4"/>
		<rect x="269.785" y="242.109" width="1.934" height="10.4"/>
		<rect x="271.719" y="244.709" width="1.934" height="5.2"/>
		<rect x="273.653" y="218.709" width="1.934" height="57.2"/>
		<polygon points="275.587,247.309 277.521,247.309 277.521,247.309 		"/>
		<rect x="277.521" y="234.309" width="1.934" height="26"/>
		<rect x="279.454" y="244.709" width="1.934" height="5.2"/>
		<rect x="281.388" y="242.109" width="1.934" height="10.4"/>
		<rect x="283.322" y="231.709" width="1.934" height="31.2"/>
		<rect x="285.256" y="213.509" width="1.934" height="67.6"/>
		<polygon points="287.189,247.309 289.123,247.309 289.123,247.309 		"/>
		<rect x="289.123" y="239.509" width="1.934" height="15.6"/>
		<rect x="291.057" y="229.109" width="1.934" height="36.4"/>
		<rect x="292.991" y="234.309" width="1.934" height="26"/>
		<rect x="294.924" y="242.109" width="1.934" height="10.4"/>
		<rect x="296.858" y="242.109" width="1.934" height="10.4"/>
		<polygon points="298.792,247.309 300.726,247.309 300.726,247.309 		"/>
		<rect x="300.726" y="239.509" width="1.934" height="15.6"/>
		<rect x="302.659" y="244.709" width="1.934" height="5.2"/>
		<rect x="304.593" y="244.709" width="1.934" height="5.2"/>
		<rect x="306.527" y="242.109" width="1.934" height="10.4"/>
		<rect x="308.461" y="244.709" width="1.934" height="5.2"/>
		<rect x="310.394" y="231.709" width="1.934" height="31.2"/>
		<rect x="312.328" y="229.109" width="1.934" height="36.4"/>
		<rect x="314.262" y="221.309" width="1.934" height="52"/>
		<rect x="316.196" y="244.709" width="1.934" height="5.2"/>
		<rect x="318.129" y="208.309" width="1.934" height="78"/>
		<rect x="320.063" y="161.509" width="1.934" height="171.6"/>
		<rect x="321.997" y="231.709" width="1.934" height="31.2"/>
		<rect x="323.931" y="242.109" width="1.934" height="10.4"/>
		<rect x="325.864" y="242.109" width="1.934" height="10.4"/>
		<rect x="327.798" y="221.309" width="1.934" height="52"/>
		<rect x="329.732" y="221.309" width="1.934" height="52"/>
		<rect x="331.666" y="234.309" width="1.934" height="26"/>
		<rect x="333.599" y="236.909" width="1.934" height="20.8"/>
		<rect x="335.533" y="221.309" width="1.934" height="52"/>
		<rect x="337.467" y="231.709" width="1.934" height="31.2"/>
		<rect x="339.401" y="205.709" width="1.934" height="83.2"/>
		<rect x="341.334" y="205.709" width="1.934" height="83.2"/>
		<rect x="343.268" y="184.909" width="1.934" height="124.8"/>
		<rect x="345.202" y="179.709" width="1.934" height="135.2"/>
		<rect x="347.136" y="205.709" width="1.934" height="83.2"/>
		<rect x="349.069" y="192.709" width="1.934" height="109.2"/>
		<rect x="351.003" y="231.709" width="1.934" height="31.2"/>
		<rect x="352.937" y="244.709" width="1.934" height="5.2"/>
		<rect x="354.871" y="184.909" width="1.934" height="124.8"/>
		<rect x="356.804" y="236.909" width="1.934" height="20.8"/>
		<rect x="358.738" y="236.909" width="1.934" height="20.8"/>
		<rect x="360.672" y="242.109" width="1.934" height="10.4"/>
		<rect x="362.606" y="244.709" width="1.934" height="5.2"/>
		<rect x="364.539" y="229.109" width="1.934" height="36.4"/>
		<rect x="366.473" y="229.109" width="1.934" height="36.4"/>
		<rect x="368.407" y="231.709" width="1.934" height="31.2"/>
		<rect x="370.341" y="242.109" width="1.934" height="10.4"/>
		<rect x="372.274" y="195.309" width="1.934" height="104"/>
		<rect x="374.208" y="229.109" width="1.934" height="36.4"/>
		<rect x="376.142" y="229.109" width="1.934" height="36.4"/>
		<rect x="378.076" y="239.509" width="1.934" height="15.6"/>
		<rect x="380.009" y="234.309" width="1.934" height="26"/>
		<rect x="381.943" y="244.709" width="1.934" height="5.2"/>
		<rect x="383.877" y="236.909" width="1.934" height="20.8"/>
		<rect x="385.811" y="236.909" width="1.934" height="20.8"/>
		<rect x="387.744" y="148.509" width="1.934" height="197.6"/>
		<rect x="389.678" y="221.309" width="1.934" height="52"/>
		<rect x="391.612" y="231.709" width="1.934" height="31.2"/>
		<rect x="393.546" y="242.109" width="1.934" height="10.4"/>
		<rect x="395.479" y="218.709" width="1.934" height="57.2"/>
		<rect x="397.413" y="234.309" width="1.934" height="26"/>
		<rect x="399.347" y="223.909" width="1.934" height="46.8"/>
		<polygon points="401.281,247.309 403.215,247.309 403.215,247.309 		"/>
		<rect x="403.215" y="239.509" width="1.934" height="15.6"/>
		<rect x="405.148" y="192.709" width="1.934" height="109.2"/>
		<rect x="407.082" y="234.309" width="1.934" height="26"/>
		<rect x="409.016" y="236.909" width="1.934" height="20.8"/>
		<rect x="410.95" y="234.309" width="1.934" height="26"/>
		<rect x="412.883" y="236.909" width="1.934" height="20.8"/>
		<rect x="414.817" y="234.309" width="1.934" height="26"/>
		<rect x="416.751" y="213.509" width="1.934" height="67.6"/>
		<rect x="418.685" y="213.509" width="1.934" height="67.6"/>
		<rect x="420.618" y="125.109" width="1.934" height="244.4"/>
		<rect x="422.552" y="242.109" width="1.934" height="10.4"/>
		<rect x="424.486" y="242.109" width="1.934" height="10.4"/>
		<rect x="426.42" y="239.509" width="1.934" height="15.6"/>
		<rect x="428.353" y="231.709" width="1.934" height="31.2"/>
		<rect x="430.287" y="161.509" width="1.934" height="171.6"/>
		<rect x="432.221" y="210.909" width="1.934" height="72.8"/>
		<rect x="434.155" y="226.509" width="1.934" height="41.6"/>
		<rect x="436.088" y="216.109" width="1.934" height="62.4"/>
		<rect x="438.022" y="184.909" width="1.934" height="124.8"/>
		<rect x="439.956" y="229.109" width="1.934" height="36.4"/>
		<rect x="441.89" y="234.309" width="1.934" height="26"/>
		<rect x="443.823" y="203.109" width="1.934" height="88.4"/>
		<rect x="445.757" y="216.109" width="1.934" height="62.4"/>
		<polygon points="447.691,247.309 449.625,247.309 449.625,247.309 		"/>
		<rect x="449.625" y="208.309" width="1.934" height="78"/>
		<rect x="451.558" y="239.509" width="1.934" height="15.6"/>
		<rect x="453.492" y="239.509" width="1.934" height="15.6"/>
		<rect x="455.426" y="216.109" width="1.934" height="62.4"/>
		<rect x="457.36" y="210.909" width="1.934" height="72.8"/>
		<rect x="459.293" y="213.509" width="1.934" height="67.6"/>
		<rect x="461.227" y="244.709" width="1.934" height="5.2"/>
		<rect x="463.161" y="216.109" width="1.934" height="62.4"/>
		<rect x="465.095" y="182.309" width="1.934" height="130"/>
		<rect x="467.028" y="223.909" width="1.934" height="46.8"/>
		<rect x="468.962" y="210.909" width="1.934" height="72.8"/>
		<rect x="470.896" y="242.109" width="1.934" height="10.4"/>
		<rect x="472.83" y="239.509" width="1.934" height="15.6"/>
		<rect x="474.763" y="221.309" width="1.934" height="52"/>
		<rect x="476.697" y="221.309" width="1.934" height="52"/>
		<polygon points="478.631,247.309 480.565,247.309 480.565,247.309 		"/>
		<polygon points="480.565,247.309 482.498,247.309 482.498,247.309 		"/>
		<rect x="482.498" y="242.109" width="1.934" height="10.4"/>
		<rect x="484.432" y="218.709" width="1.934" height="57.2"/>
		<rect x="486.366" y="223.909" width="1.934" height="46.8"/>
		<rect x="488.3" y="221.309" width="1.934" height="52"/>
		<rect x="490.233" y="190.109" width="1.934" height="114.4"/>
		<rect x="492.167" y="242.109" width="1.934" height="10.4"/>
		<rect x="494.101" y="234.309" width="1.934" height="26"/>
		<rect x="496.035" y="226.509" width="1.934" height="41.6"/>
		<rect x="497.968" y="195.309" width="1.934" height="104"/>
		<rect x="499.902" y="226.509" width="1.934" height="41.6"/>
		<rect x="501.836" y="216.109" width="1.934" height="62.4"/>
		<rect x="503.77" y="229.109" width="1.934" height="36.4"/>
		<rect x="505.703" y="190.109" width="1.934" height="114.4"/>
		<rect x="507.637" y="205.709" width="1.934" height="83.2"/>
		<rect x="509.571" y="236.909" width="1.934" height="20.8"/>
		<rect x="511.505" y="234.309" width="1.934" height="26"/>
		<rect x="513.438" y="210.909" width="1.934" height="72.8"/>
		<polygon points="515.372,247.309 517.306,247.309 517.306,247.309 		"/>
		<rect x="517.306" y="229.109" width="1.934" height="36.4"/>
		<rect x="519.24" y="213.509" width="1.934" height="67.6"/>
		<rect x="521.173" y="117.309" width="1.934" height="260"/>
		<rect x="523.107" y="239.509" width="1.934" height="15.6"/>
		<rect x="525.041" y="239.509" width="1.934" height="15.6"/>
		<rect x="526.975" y="242.109" width="1.934" height="10.4"/>
		<rect x="528.909" y="226.509" width="1.934" height="41.6"/>
		<rect x="530.842" y="218.709" width="1.934" height="57.2"/>
		<rect x="532.776" y="166.709" width="1.934" height="161.2"/>
		<rect x="534.71" y="161.509" width="1.934" height="171.6"/>
		<rect x="536.644" y="195.309" width="1.934" height="104"/>
		<polygon points="538.577,247.309 540.511,247.309 540.511,247.309 		"/>
		<rect x="540.511" y="231.709" width="1.934" height="31.2"/>
		<rect x="542.445" y="221.309" width="1.934" height="52"/>
		<rect x="544.379" y="236.909" width="1.934" height="20.8"/>
		<rect x="546.312" y="213.509" width="1.934" height="67.6"/>
		<rect x="548.246" y="229.109" width="1.934" height="36.4"/>
		<rect x="550.18" y="208.309" width="1.934" height="78"/>
		<rect x="552.114" y="213.509" width="1.934" height="67.6"/>
		<rect x="554.047" y="236.909" width="1.934" height="20.8"/>
		<rect x="555.981" y="218.709" width="1.934" height="57.2"/>
		<rect x="557.915" y="226.509" width="1.934" height="41.6"/>
		<rect x="559.849" y="192.709" width="1.934" height="109.2"/>
		<rect x="561.782" y="239.509" width="1.934" height="15.6"/>
		<rect x="563.716" y="218.709" width="1.934" height="57.2"/>
		<rect x="565.65" y="226.509" width="1.934" height="41.6"/>
		<rect x="567.584" y="229.109" width="1.934" height="36.4"/>
		<rect x="569.517" y="234.309" width="1.934" height="26"/>
		<polygon points="571.451,247.309 573.385,247.309 573.385,247.309 		"/>
		<rect x="573.385" y="223.909" width="1.934" height="46.8"/>
		<rect x="575.319" y="216.109" width="1.934" height="62.4"/>
		<rect x="577.252" y="190.109" width="1.934" height="114.4"/>
		<rect x="579.186" y="184.909" width="1.934" height="124.8"/>
		<rect x="581.12" y="244.709" width="1.934" height="5.2"/>
		<rect x="583.054" y="234.309" width="1.934" height="26"/>
		<rect x="584.987" y="223.909" width="1.934" height="46.8"/>
		<rect x="586.921" y="242.109" width="1.934" height="10.4"/>
		<rect x="588.855" y="203.109" width="1.934" height="88.4"/>
		<rect x="590.789" y="210.909" width="1.934" height="72.8"/>
		<rect x="592.722" y="177.109" width="1.934" height="140.4"/>
		<rect x="594.656" y="221.309" width="1.934" height="52"/>
		<rect x="596.59" y="244.709" width="1.934" height="5.2"/>
		<rect x="598.524" y="239.509" width="1.934" height="15.6"/>
		<rect x="600.457" y="226.509" width="1.934" height="41.6"/>
		<polygon points="602.391,247.309 604.325,247.309 604.325,247.309 		"/>
		<rect x="604.325" y="171.909" width="1.934" height="150.8"/>
		<rect x="606.259" y="242.109" width="1.934" height="10.4"/>
		<rect x="608.192" y="231.709" width="1.934" height="31.2"/>
		<rect x="610.126" y="236.909" width="1.934" height="20.8"/>
		<rect x="612.06" y="236.909" width="1.934" height="20.8"/>
		<rect x="613.994" y="229.109" width="1.934" height="36.4"/>
		<rect x="615.927" y="239.509" width="1.934" height="15.6"/>
		<rect x="617.861" y="239.509" width="1.934" height="15.6"/>
		<polygon points="619.795,247.309 621.729,247.309 621.729,247.309 		"/>
		<rect x="621.729" y="164.109" width="1.934" height="166.4"/>
		<rect x="623.662" y="140.709" width="1.934" height="213.2"/>
		<rect x="625.596" y="226.509" width="1.934" height="41.6"/>
		<polygon points="627.53,247.309 629.464,247.309 629.464,247.309 		"/>
		<rect x="629.464" y="239.509" width="1.934" height="15.6"/>
		<rect x="631.397" y="242.109" width="1.934" height="10.4"/>
		<rect x="633.331" y="229.109" width="1.934" height="36.4"/>
		<rect x="635.265" y="216.109" width="1.934" height="62.4"/>
		<rect x="637.199" y="210.909" width="1.934" height="72.8"/>
		<rect x="639.133" y="184.909" width="1.934" height="124.8"/>
		<rect x="641.066" y="239.509" width="1.934" height="15.6"/>
	</g>
	<g id="_x2D__x3E__rect_2_">
		<g>
			<line fill="none" stroke="#000000" stroke-miterlimit="10" x1="221.007" y1="147.84" x2="221.007" y2="128.559"/>
			<g>
				<path d="M221.007,150.858c0.527-1.42,1.426-3.182,2.378-4.274l-2.378,0.86l-2.377-0.86
					C219.581,147.676,220.48,149.438,221.007,150.858z"/>
			</g>
		</g>
		<g>
			<line fill="none" stroke="#000000" stroke-miterlimit="10" x1="321.03" y1="140.966" x2="321.03" y2="121.685"/>
			<g>
				<path d="M321.03,143.983c0.527-1.42,1.426-3.182,2.378-4.274l-2.378,0.86l-2.377-0.86
					C319.605,140.802,320.504,142.563,321.03,143.983z"/>
			</g>
		</g>
		<g>
			<line fill="none" stroke="#000000" stroke-miterlimit="10" x1="421.585" y1="104.001" x2="421.585" y2="84.72"/>
			<g>
				<path d="M421.585,107.018c0.527-1.42,1.426-3.182,2.378-4.274l-2.378,0.86l-2.377-0.86
					C420.16,103.837,421.059,105.598,421.585,107.018z"/>
			</g>
		</g>
		<g>
			<line fill="none" stroke="#000000" stroke-miterlimit="10" x1="522.14" y1="96.261" x2="522.14" y2="76.98"/>
			<g>
				<path d="M522.14,99.278c0.527-1.42,1.426-3.182,2.378-4.274l-2.378,0.86l-2.377-0.86
					C520.715,96.097,521.614,97.858,522.14,99.278z"/>
			</g>
		</g>
		<g>
			<line fill="none" stroke="#000000" stroke-miterlimit="10" x1="624.629" y1="120.805" x2="624.629" y2="102.524"/>
			<g>
				<path d="M624.629,123.823c0.527-1.42,1.426-3.182,2.378-4.274l-2.378,0.86l-2.377-0.86
					C623.204,120.641,624.103,122.403,624.629,123.823z"/>
			</g>
		</g>
	</g>
	
		<line style="opacity:0.8;" fill="none" stroke="#000000" stroke-miterlimit="10" x1="19.75" y1="19.999" x2="653.25" y2="19.999"/>
	
		<line style="opacity:0.8;" fill="none" stroke="#000000" stroke-miterlimit="10" x1="22.95" y1="439.47" x2="650.05" y2="439.47"/>
</g>
<style>
#g-verba-vignette09-violencia-genero-desktop-img rect, #g-verba-vignette09-violencia-genero-desktop-img circle, #g-verba-vignette09-violencia-genero-desktop-img path, #g-verba-vignette09-violencia-genero-desktop-img line, #g-verba-vignette09-violencia-genero-desktop-img polyline { vector-effect: non-scaling-stroke; }
</style>
</svg>

