<?xml version="1.0" encoding="utf-8"?>
<!-- Generator: Adobe Illustrator 24.0.3, SVG Export Plug-In . SVG Version: 6.00 Build 0)  -->
<svg version="1.2" baseProfile="tiny" id="g-verba-vignette10-venezuela-desktop-img" xmlns="http://www.w3.org/2000/svg" xmlns:xlink="http://www.w3.org/1999/xlink"
	 x="0px" y="0px" viewBox="0 0 673 469.74" xml:space="preserve">
<g>
	<g transform="translate(30.963826886524892, 275)">
		<path display="none" fill="none" stroke="#212529" d="M0.5,126.566h611.066"/>
		<g transform="translate(23.958277001652394,0)">
			<line display="none" fill="none" stroke="#212529" x1="0" y1="-133.934" x2="0" y2="126.066"/>
			
				
		</g>
		<g transform="translate(49.09707826348205,0)">
			<line display="none" fill="none" stroke="#212529" x1="0" y1="-133.934" x2="0" y2="126.066"/>
			
				
		</g>
		<g transform="translate(74.51213008862851,0)">
			<line display="none" fill="none" stroke="#212529" x1="0" y1="-133.934" x2="0" y2="126.066"/>
			
				
		</g>
		<g transform="translate(99.93869235391318,0)">
			<line display="none" fill="none" stroke="#212529" x1="0" y1="-133.934" x2="0" y2="126.066"/>
			
				
		</g>
		<g transform="translate(124.78973261228782,0)">
			<line display="none" fill="none" stroke="#212529" x1="0" y1="-133.934" x2="0" y2="126.066"/>
			
				
		</g>
		<g transform="translate(149.92853387411748,0)">
			<line display="none" fill="none" stroke="#212529" x1="0" y1="-133.934" x2="0" y2="126.066"/>
			
				
		</g>
		<g transform="translate(175.34358569926394,0)">
			<line display="none" fill="none" stroke="#212529" x1="0" y1="-133.934" x2="0" y2="126.066"/>
			
				
		</g>
		<g transform="translate(200.7701479645486,0)">
			<line display="none" fill="none" stroke="#212529" x1="0" y1="-133.934" x2="0" y2="126.066"/>
			
				
		</g>
		<g transform="translate(225.89743878624006,0)">
			<line display="none" fill="none" stroke="#212529" x1="0" y1="-133.934" x2="0" y2="126.066"/>
			
				
		</g>
		<g transform="translate(251.03624004806971,0)">
			<line display="none" fill="none" stroke="#212529" x1="0" y1="-133.934" x2="0" y2="126.066"/>
			
				
		</g>
		<g transform="translate(276.4512918732162,0)">
			<line display="none" fill="none" stroke="#212529" x1="0" y1="-133.934" x2="0" y2="126.066"/>
			
				
		</g>
		<g transform="translate(301.8778541385008,0)">
			<line display="none" fill="none" stroke="#212529" x1="0" y1="-133.934" x2="0" y2="126.066"/>
			
				
		</g>
		<g transform="translate(326.7288943968755,0)">
			<line display="none" fill="none" stroke="#212529" x1="0" y1="-133.934" x2="0" y2="126.066"/>
			
				
		</g>
		<g transform="translate(351.86769565870514,0)">
			<line display="none" fill="none" stroke="#212529" x1="0" y1="-133.934" x2="0" y2="126.066"/>
			
				
		</g>
		<g transform="translate(377.2827474838516,0)">
			<line display="none" fill="none" stroke="#212529" x1="0" y1="-133.934" x2="0" y2="126.066"/>
			
				
		</g>
		<g transform="translate(402.70930974913625,0)">
			<line display="none" fill="none" stroke="#212529" x1="0" y1="-133.934" x2="0" y2="126.066"/>
			
				
		</g>
		<g transform="translate(427.5603500075109,0)">
			<line display="none" fill="none" stroke="#212529" x1="0" y1="-133.934" x2="0" y2="126.066"/>
			
				
		</g>
		<g transform="translate(452.6991512693405,0)">
			<line display="none" fill="none" stroke="#212529" x1="0" y1="-133.934" x2="0" y2="126.066"/>
			
				
		</g>
		<g transform="translate(478.11420309448704,0)">
			<line display="none" fill="none" stroke="#212529" x1="0" y1="-133.934" x2="0" y2="126.066"/>
			
				
		</g>
		<g transform="translate(503.5407653597717,0)">
			<line display="none" fill="none" stroke="#212529" x1="0" y1="-133.934" x2="0" y2="126.066"/>
			
				
		</g>
		<g transform="translate(528.3918056181463,0)">
			<line display="none" fill="none" stroke="#212529" x1="0" y1="-133.934" x2="0" y2="126.066"/>
			
				
		</g>
		<g transform="translate(553.530606879976,0)">
			<line display="none" fill="none" stroke="#212529" x1="0" y1="-133.934" x2="0" y2="126.066"/>
			
				
		</g>
		<g transform="translate(578.9456587051225,0)">
			<line display="none" fill="none" stroke="#212529" x1="0" y1="-133.934" x2="0" y2="126.066"/>
			
				
		</g>
		<g transform="translate(604.372220970407,0)">
			<line display="none" fill="none" stroke="#212529" x1="0" y1="-133.934" x2="0" y2="126.066"/>
			
				
		</g>
	</g>
	<g transform="translate(30.963826886524892, 290)">
		<path display="none" fill="none" stroke="#212529" d="M0.5,126.566h611.066"/>
		<g transform="translate(99.93869235391318,0)">
			<line display="none" fill="none" stroke="#212529" x1="0" y1="-133.934" x2="0" y2="126.066"/>
			
				<text transform="matrix(1 0 0 1 -11.123 142.1659)" display="none" fill="#212529" font-family="'ElMessiri-Bold'" font-size="10px">2015</text>
		</g>
		<g transform="translate(200.7701479645486,0)">
			<line display="none" fill="none" stroke="#212529" x1="0" y1="-133.934" x2="0" y2="126.066"/>
			
				<text transform="matrix(1 0 0 1 -11.123 142.1659)" display="none" fill="#212529" font-family="'ElMessiri-Bold'" font-size="10px">2016</text>
		</g>
		<g transform="translate(301.8778541385008,0)">
			<line display="none" fill="none" stroke="#212529" x1="0" y1="-133.934" x2="0" y2="126.066"/>
			
				<text transform="matrix(1 0 0 1 -11.123 142.1659)" display="none" fill="#212529" font-family="'ElMessiri-Bold'" font-size="10px">2017</text>
		</g>
		<g transform="translate(402.70930974913625,0)">
			<line display="none" fill="none" stroke="#212529" x1="0" y1="-133.934" x2="0" y2="126.066"/>
			
				<text transform="matrix(1 0 0 1 -11.123 142.1659)" display="none" fill="#212529" font-family="'ElMessiri-Bold'" font-size="10px">2018</text>
		</g>
		<g transform="translate(503.5407653597717,0)">
			<line display="none" fill="none" stroke="#212529" x1="0" y1="-133.934" x2="0" y2="126.066"/>
			
				<text transform="matrix(1 0 0 1 -11.1231 142.1659)" display="none" fill="#212529" font-family="'ElMessiri-Bold'" font-size="10px">2019</text>
		</g>
		<g transform="translate(604.372220970407,0)">
			<line display="none" fill="none" stroke="#212529" x1="0" y1="-133.934" x2="0" y2="126.066"/>
			
				<text transform="matrix(1 0 0 1 -11.1231 142.1659)" display="none" fill="#212529" font-family="'ElMessiri-Bold'" font-size="10px">2020</text>
		</g>
	</g>
	<g transform="translate(30, 0)">
		<path display="none" fill="none" stroke="#212529" d="M-6,276.566h6.5v-130H-6"/>
		<g transform="translate(0,130.5)">
			<line fill="none" stroke="#212529" stroke-opacity="0.12" x1="0" y1="146.066" x2="613" y2="146.066"/>
			
				
		</g>
		<g transform="translate(0,110.5)">
			<line fill="none" stroke="#212529" stroke-opacity="0.12" x1="0" y1="146.066" x2="613" y2="146.066"/>
			
				
		</g>
		<g transform="translate(0,90.5)">
			<line fill="none" stroke="#212529" stroke-opacity="0.12" x1="0" y1="146.066" x2="613" y2="146.066"/>
			
				
		</g>
		<g transform="translate(0,70.5)">
			<line fill="none" stroke="#212529" stroke-opacity="0.12" x1="0" y1="146.066" x2="613" y2="146.066"/>
			
				
		</g>
		<g transform="translate(0,50.49999999999999)">
			<line fill="none" stroke="#212529" stroke-opacity="0.12" x1="0" y1="146.066" x2="613" y2="146.066"/>
			
				
		</g>
		<g transform="translate(0,30.499999999999993)">
			<line fill="none" stroke="#212529" stroke-opacity="0.12" x1="0" y1="146.066" x2="613" y2="146.066"/>
			
				
		</g>
		<g transform="translate(0,10.499999999999993)">
			<line fill="none" stroke="#212529" stroke-opacity="0.12" x1="0" y1="146.066" x2="613" y2="146.066"/>
			
				
		</g>
	</g>
	<g>
		<rect x="30" y="268.066" width="1.934" height="16"/>
		<rect x="31.934" y="272.066" width="1.934" height="8"/>
		<rect x="33.868" y="268.066" width="1.934" height="16"/>
		<polygon points="35.801,276.066 37.735,276.066 37.735,276.066 		"/>
		<rect x="37.735" y="273.066" width="1.934" height="6"/>
		<rect x="39.669" y="264.066" width="1.934" height="24"/>
		<rect x="41.603" y="247.066" width="1.934" height="58"/>
		<rect x="43.536" y="257.066" width="1.934" height="38"/>
		<rect x="45.47" y="250.066" width="1.934" height="52"/>
		<rect x="47.404" y="265.066" width="1.934" height="22"/>
		<rect x="49.338" y="252.066" width="1.934" height="48"/>
		<rect x="51.271" y="267.066" width="1.934" height="18"/>
		<rect x="53.205" y="267.066" width="1.934" height="18"/>
		<rect x="55.139" y="271.066" width="1.934" height="10"/>
		<rect x="57.073" y="269.066" width="1.934" height="14"/>
		<rect x="59.006" y="274.066" width="1.934" height="4"/>
		<polygon points="60.94,276.066 62.874,276.066 62.874,276.066 		"/>
		<rect x="62.874" y="270.066" width="1.934" height="12"/>
		<polygon points="64.808,276.066 66.741,276.066 66.741,276.066 		"/>
		<rect x="66.741" y="268.066" width="1.934" height="16"/>
		<polygon points="68.675,276.066 70.609,276.066 70.609,276.066 		"/>
		<rect x="70.609" y="271.066" width="1.934" height="10"/>
		<rect x="72.543" y="267.066" width="1.934" height="18"/>
		<polygon points="74.476,276.066 76.41,276.066 76.41,276.066 		"/>
		<rect x="76.41" y="275.066" width="1.934" height="2"/>
		<polygon points="78.344,276.066 80.278,276.066 80.278,276.066 		"/>
		<rect x="80.278" y="273.066" width="1.934" height="6"/>
		<rect x="82.211" y="274.066" width="1.934" height="4"/>
		<rect x="84.145" y="271.066" width="1.934" height="10"/>
		<rect x="86.079" y="269.066" width="1.934" height="14"/>
		<rect x="88.013" y="275.066" width="1.934" height="2"/>
		<rect x="89.946" y="270.066" width="1.934" height="12"/>
		<rect x="91.88" y="273.066" width="1.934" height="6"/>
		<polygon points="93.814,276.066 95.748,276.066 95.748,276.066 		"/>
		<rect x="95.748" y="272.066" width="1.934" height="8"/>
		<polygon points="97.681,276.066 99.615,276.066 99.615,276.066 		"/>
		<polygon points="99.615,276.066 101.549,276.066 101.549,276.066 		"/>
		<polygon points="101.549,276.066 103.483,276.066 103.483,276.066 		"/>
		<rect x="103.483" y="270.066" width="1.934" height="12"/>
		<rect x="105.416" y="275.066" width="1.934" height="2"/>
		<rect x="107.35" y="273.066" width="1.934" height="6"/>
		<rect x="109.284" y="273.066" width="1.934" height="6"/>
		<rect x="111.218" y="269.066" width="1.934" height="14"/>
		<polygon points="113.151,276.066 115.085,276.066 115.085,276.066 		"/>
		<rect x="115.085" y="274.066" width="1.934" height="4"/>
		<rect x="117.019" y="272.066" width="1.934" height="8"/>
		<rect x="118.953" y="272.066" width="1.934" height="8"/>
		<polygon points="120.886,276.066 122.82,276.066 122.82,276.066 		"/>
		<rect x="122.82" y="268.066" width="1.934" height="16"/>
		<rect x="124.754" y="270.066" width="1.934" height="12"/>
		<polygon points="126.688,276.066 128.621,276.066 128.621,276.066 		"/>
		<rect x="128.621" y="265.066" width="1.934" height="22"/>
		<polygon points="130.555,276.066 132.489,276.066 132.489,276.066 		"/>
		<rect x="132.489" y="271.066" width="1.934" height="10"/>
		<rect x="134.423" y="262.066" width="1.934" height="28"/>
		<rect x="136.356" y="272.066" width="1.934" height="8"/>
		<rect x="138.29" y="275.066" width="1.934" height="2"/>
		<rect x="140.224" y="271.066" width="1.934" height="10"/>
		<rect x="142.158" y="243.066" width="1.934" height="66"/>
		<rect x="144.091" y="251.066" width="1.934" height="50"/>
		<rect x="146.025" y="251.066" width="1.934" height="50"/>
		<rect x="147.959" y="223.066" width="1.934" height="106"/>
		<rect x="149.893" y="275.066" width="1.934" height="2"/>
		<rect x="151.826" y="274.066" width="1.934" height="4"/>
		<rect x="153.76" y="272.066" width="1.934" height="8"/>
		<rect x="155.694" y="261.066" width="1.934" height="30"/>
		<rect x="157.628" y="260.066" width="1.934" height="32"/>
		<rect x="159.562" y="257.066" width="1.934" height="38"/>
		<rect x="161.495" y="273.066" width="1.934" height="6"/>
		<rect x="163.429" y="274.066" width="1.934" height="4"/>
		<rect x="165.363" y="271.066" width="1.934" height="10"/>
		<rect x="167.297" y="259.066" width="1.934" height="34"/>
		<rect x="169.23" y="269.066" width="1.934" height="14"/>
		<rect x="171.164" y="265.066" width="1.934" height="22"/>
		<rect x="173.098" y="244.066" width="1.934" height="64"/>
		<rect x="175.032" y="260.066" width="1.934" height="32"/>
		<rect x="176.965" y="266.066" width="1.934" height="20"/>
		<rect x="178.899" y="267.066" width="1.934" height="18"/>
		<polygon points="180.833,276.066 182.767,276.066 182.767,276.066 		"/>
		<rect x="182.767" y="273.066" width="1.934" height="6"/>
		<rect x="184.7" y="274.066" width="1.934" height="4"/>
		<rect x="186.634" y="268.066" width="1.934" height="16"/>
		<rect x="188.568" y="270.066" width="1.934" height="12"/>
		<rect x="190.502" y="275.066" width="1.934" height="2"/>
		<rect x="192.435" y="270.066" width="1.934" height="12"/>
		<rect x="194.369" y="252.066" width="1.934" height="48"/>
		<rect x="196.303" y="269.066" width="1.934" height="14"/>
		<rect x="198.237" y="263.066" width="1.934" height="26"/>
		<rect x="200.17" y="257.066" width="1.934" height="38"/>
		<rect x="202.104" y="273.066" width="1.934" height="6"/>
		<polygon points="204.038,276.066 205.972,276.066 205.972,276.066 		"/>
		<polygon points="205.972,276.066 207.905,276.066 207.905,276.066 		"/>
		<rect x="207.905" y="273.066" width="1.934" height="6"/>
		<rect x="209.839" y="275.066" width="1.934" height="2"/>
		<rect x="211.773" y="267.066" width="1.934" height="18"/>
		<rect x="213.707" y="274.066" width="1.934" height="4"/>
		<rect x="215.64" y="272.066" width="1.934" height="8"/>
		<polygon points="217.574,276.066 219.508,276.066 219.508,276.066 		"/>
		<rect x="219.508" y="269.066" width="1.934" height="14"/>
		<rect x="221.442" y="252.066" width="1.934" height="48"/>
		<rect x="223.375" y="245.066" width="1.934" height="62"/>
		<rect x="225.309" y="273.066" width="1.934" height="6"/>
		<rect x="227.243" y="270.066" width="1.934" height="12"/>
		<rect x="229.177" y="270.066" width="1.934" height="12"/>
		<rect x="231.11" y="265.066" width="1.934" height="22"/>
		<rect x="233.044" y="266.066" width="1.934" height="20"/>
		<rect x="234.978" y="263.066" width="1.934" height="26"/>
		<rect x="236.912" y="273.066" width="1.934" height="6"/>
		<rect x="238.845" y="271.066" width="1.934" height="10"/>
		<rect x="240.779" y="273.066" width="1.934" height="6"/>
		<rect x="242.713" y="268.066" width="1.934" height="16"/>
		<rect x="244.647" y="274.066" width="1.934" height="4"/>
		<rect x="246.58" y="270.066" width="1.934" height="12"/>
		<rect x="248.514" y="274.066" width="1.934" height="4"/>
		<rect x="250.448" y="268.066" width="1.934" height="16"/>
		<polygon points="252.382,276.066 254.315,276.066 254.315,276.066 		"/>
		<rect x="254.315" y="266.066" width="1.934" height="20"/>
		<rect x="256.249" y="264.066" width="1.934" height="24"/>
		<rect x="258.183" y="270.066" width="1.934" height="12"/>
		<rect x="260.117" y="269.066" width="1.934" height="14"/>
		<rect x="262.05" y="262.066" width="1.934" height="28"/>
		<rect x="263.984" y="272.066" width="1.934" height="8"/>
		<rect x="265.918" y="261.066" width="1.934" height="30"/>
		<rect x="267.852" y="215.066" width="1.934" height="122"/>
		<rect x="269.785" y="232.066" width="1.934" height="88"/>
		<rect x="271.719" y="254.066" width="1.934" height="44"/>
		<rect x="273.653" y="247.066" width="1.934" height="58"/>
		<rect x="275.587" y="255.066" width="1.934" height="42"/>
		<rect x="277.521" y="271.066" width="1.934" height="10"/>
		<rect x="279.454" y="274.066" width="1.934" height="4"/>
		<rect x="281.388" y="271.066" width="1.934" height="10"/>
		<rect x="283.322" y="271.066" width="1.934" height="10"/>
		<rect x="285.256" y="271.066" width="1.934" height="10"/>
		<rect x="287.189" y="264.066" width="1.934" height="24"/>
		<rect x="289.123" y="269.066" width="1.934" height="14"/>
		<rect x="291.057" y="269.066" width="1.934" height="14"/>
		<rect x="292.991" y="274.066" width="1.934" height="4"/>
		<rect x="294.924" y="274.066" width="1.934" height="4"/>
		<rect x="296.858" y="264.066" width="1.934" height="24"/>
		<rect x="298.792" y="273.066" width="1.934" height="6"/>
		<rect x="300.726" y="272.066" width="1.934" height="8"/>
		<rect x="302.659" y="274.066" width="1.934" height="4"/>
		<rect x="304.593" y="274.066" width="1.934" height="4"/>
		<rect x="306.527" y="271.066" width="1.934" height="10"/>
		<polygon points="308.461,276.066 310.394,276.066 310.394,276.066 		"/>
		<rect x="310.394" y="273.066" width="1.934" height="6"/>
		<rect x="312.328" y="243.066" width="1.934" height="66"/>
		<rect x="314.262" y="264.066" width="1.934" height="24"/>
		<rect x="316.196" y="273.066" width="1.934" height="6"/>
		<rect x="318.129" y="275.066" width="1.934" height="2"/>
		<rect x="320.063" y="271.066" width="1.934" height="10"/>
		<rect x="321.997" y="273.066" width="1.934" height="6"/>
		<rect x="323.931" y="271.066" width="1.934" height="10"/>
		<rect x="325.864" y="271.066" width="1.934" height="10"/>
		<rect x="327.798" y="274.066" width="1.934" height="4"/>
		<rect x="329.732" y="275.066" width="1.934" height="2"/>
		<polygon points="331.666,276.066 333.599,276.066 333.599,276.066 		"/>
		<rect x="333.599" y="275.066" width="1.934" height="2"/>
		<rect x="335.533" y="274.066" width="1.934" height="4"/>
		<rect x="337.467" y="273.066" width="1.934" height="6"/>
		<rect x="339.401" y="272.066" width="1.934" height="8"/>
		<polygon points="341.334,276.066 343.268,276.066 343.268,276.066 		"/>
		<rect x="343.268" y="246.066" width="1.934" height="60"/>
		<rect x="345.202" y="274.066" width="1.934" height="4"/>
		<rect x="347.136" y="274.066" width="1.934" height="4"/>
		<rect x="349.069" y="272.066" width="1.934" height="8"/>
		<rect x="351.003" y="275.066" width="1.934" height="2"/>
		<rect x="352.937" y="268.066" width="1.934" height="16"/>
		<rect x="354.871" y="221.066" width="1.934" height="110"/>
		<rect x="356.804" y="256.066" width="1.934" height="40"/>
		<rect x="358.738" y="258.066" width="1.934" height="36"/>
		<rect x="360.672" y="238.066" width="1.934" height="76"/>
		<rect x="362.606" y="234.066" width="1.934" height="84"/>
		<rect x="364.539" y="242.066" width="1.934" height="68"/>
		<rect x="366.473" y="252.066" width="1.934" height="48"/>
		<rect x="368.407" y="262.066" width="1.934" height="28"/>
		<rect x="370.341" y="271.066" width="1.934" height="10"/>
		<rect x="372.274" y="263.066" width="1.934" height="26"/>
		<rect x="374.208" y="271.066" width="1.934" height="10"/>
		<rect x="376.142" y="268.066" width="1.934" height="16"/>
		<rect x="378.076" y="268.066" width="1.934" height="16"/>
		<rect x="380.009" y="256.066" width="1.934" height="40"/>
		<rect x="381.943" y="233.066" width="1.934" height="86"/>
		<rect x="383.877" y="233.066" width="1.934" height="86"/>
		<rect x="385.811" y="247.066" width="1.934" height="58"/>
		<rect x="387.744" y="235.066" width="1.934" height="82"/>
		<rect x="389.678" y="198.066" width="1.934" height="156"/>
		<rect x="391.612" y="228.066" width="1.934" height="96"/>
		<rect x="393.546" y="244.066" width="1.934" height="64"/>
		<rect x="395.479" y="256.066" width="1.934" height="40"/>
		<rect x="397.413" y="263.066" width="1.934" height="26"/>
		<rect x="399.347" y="267.066" width="1.934" height="18"/>
		<rect x="401.281" y="273.066" width="1.934" height="6"/>
		<rect x="403.215" y="266.066" width="1.934" height="20"/>
		<rect x="405.148" y="268.066" width="1.934" height="16"/>
		<rect x="407.082" y="274.066" width="1.934" height="4"/>
		<rect x="409.016" y="270.066" width="1.934" height="12"/>
		<rect x="410.95" y="272.066" width="1.934" height="8"/>
		<rect x="412.883" y="271.066" width="1.934" height="10"/>
		<rect x="414.817" y="265.066" width="1.934" height="22"/>
		<rect x="416.751" y="270.066" width="1.934" height="12"/>
		<rect x="418.685" y="235.066" width="1.934" height="82"/>
		<rect x="420.618" y="269.066" width="1.934" height="14"/>
		<rect x="422.552" y="274.066" width="1.934" height="4"/>
		<rect x="424.486" y="273.066" width="1.934" height="6"/>
		<rect x="426.42" y="271.066" width="1.934" height="10"/>
		<rect x="428.353" y="273.066" width="1.934" height="6"/>
		<rect x="430.287" y="263.066" width="1.934" height="26"/>
		<rect x="432.221" y="270.066" width="1.934" height="12"/>
		<rect x="434.155" y="275.066" width="1.934" height="2"/>
		<rect x="436.088" y="266.066" width="1.934" height="20"/>
		<rect x="438.022" y="246.066" width="1.934" height="60"/>
		<rect x="439.956" y="269.066" width="1.934" height="14"/>
		<rect x="441.89" y="267.066" width="1.934" height="18"/>
		<rect x="443.823" y="274.066" width="1.934" height="4"/>
		<rect x="445.757" y="269.066" width="1.934" height="14"/>
		<polygon points="447.691,276.066 449.625,276.066 449.625,276.066 		"/>
		<polygon points="449.625,276.066 451.558,276.066 451.558,276.066 		"/>
		<rect x="451.558" y="272.066" width="1.934" height="8"/>
		<rect x="453.492" y="274.066" width="1.934" height="4"/>
		<rect x="455.426" y="264.066" width="1.934" height="24"/>
		<rect x="457.36" y="273.066" width="1.934" height="6"/>
		<rect x="459.293" y="265.066" width="1.934" height="22"/>
		<rect x="461.227" y="265.066" width="1.934" height="22"/>
		<rect x="463.161" y="275.066" width="1.934" height="2"/>
		<rect x="465.095" y="271.066" width="1.934" height="10"/>
		<rect x="467.028" y="274.066" width="1.934" height="4"/>
		<rect x="468.962" y="254.066" width="1.934" height="44"/>
		<rect x="470.896" y="259.066" width="1.934" height="34"/>
		<rect x="472.83" y="271.066" width="1.934" height="10"/>
		<polygon points="474.763,276.066 476.697,276.066 476.697,276.066 		"/>
		<rect x="476.697" y="273.066" width="1.934" height="6"/>
		<polygon points="478.631,276.066 480.565,276.066 480.565,276.066 		"/>
		<polygon points="480.565,276.066 482.498,276.066 482.498,276.066 		"/>
		<polygon points="482.498,276.066 484.432,276.066 484.432,276.066 		"/>
		<polygon points="484.432,276.066 486.366,276.066 486.366,276.066 		"/>
		<rect x="486.366" y="275.066" width="1.934" height="2"/>
		<rect x="488.3" y="273.066" width="1.934" height="6"/>
		<rect x="490.233" y="268.066" width="1.934" height="16"/>
		<rect x="492.167" y="256.066" width="1.934" height="40"/>
		<rect x="494.101" y="264.066" width="1.934" height="24"/>
		<rect x="496.035" y="262.066" width="1.934" height="28"/>
		<rect x="497.968" y="264.066" width="1.934" height="24"/>
		<rect x="499.902" y="257.066" width="1.934" height="38"/>
		<rect x="501.836" y="261.066" width="1.934" height="30"/>
		<rect x="503.77" y="260.066" width="1.934" height="32"/>
		<rect x="505.703" y="255.066" width="1.934" height="42"/>
		<rect x="507.637" y="273.066" width="1.934" height="6"/>
		<rect x="509.571" y="258.066" width="1.934" height="36"/>
		<rect x="511.505" y="273.066" width="1.934" height="6"/>
		<rect x="513.438" y="266.066" width="1.934" height="20"/>
		<rect x="515.372" y="273.066" width="1.934" height="6"/>
		<rect x="517.306" y="275.066" width="1.934" height="2"/>
		<rect x="519.24" y="272.066" width="1.934" height="8"/>
		<rect x="521.173" y="272.066" width="1.934" height="8"/>
		<rect x="523.107" y="273.066" width="1.934" height="6"/>
		<rect x="525.041" y="271.066" width="1.934" height="10"/>
		<rect x="526.975" y="267.066" width="1.934" height="18"/>
		<polygon points="528.909,276.066 530.842,276.066 530.842,276.066 		"/>
		<rect x="530.842" y="271.066" width="1.934" height="10"/>
		<rect x="532.776" y="271.066" width="1.934" height="10"/>
		<rect x="534.71" y="267.066" width="1.934" height="18"/>
		<polygon points="536.644,276.066 538.577,276.066 538.577,276.066 		"/>
		<rect x="538.577" y="183.066" width="1.934" height="186"/>
		<rect x="540.511" y="154.066" width="1.934" height="244"/>
		<rect x="542.445" y="178.066" width="1.934" height="196"/>
		<rect x="544.379" y="218.066" width="1.934" height="116"/>
		<rect x="546.312" y="189.066" width="1.934" height="174"/>
		<rect x="548.246" y="226.066" width="1.934" height="100"/>
		<rect x="550.18" y="234.066" width="1.934" height="84"/>
		<rect x="552.114" y="259.066" width="1.934" height="34"/>
		<rect x="554.047" y="257.066" width="1.934" height="38"/>
		<rect x="555.981" y="257.066" width="1.934" height="38"/>
		<rect x="557.915" y="259.066" width="1.934" height="34"/>
		<rect x="559.849" y="267.066" width="1.934" height="18"/>
		<rect x="561.782" y="272.066" width="1.934" height="8"/>
		<rect x="563.716" y="275.066" width="1.934" height="2"/>
		<rect x="565.65" y="193.066" width="1.934" height="166"/>
		<rect x="567.584" y="259.066" width="1.934" height="34"/>
		<rect x="569.517" y="262.066" width="1.934" height="28"/>
		<rect x="571.451" y="269.066" width="1.934" height="14"/>
		<rect x="573.385" y="275.066" width="1.934" height="2"/>
		<rect x="575.319" y="269.066" width="1.934" height="14"/>
		<rect x="577.252" y="274.066" width="1.934" height="4"/>
		<rect x="579.186" y="269.066" width="1.934" height="14"/>
		<rect x="581.12" y="269.066" width="1.934" height="14"/>
		<rect x="583.054" y="259.066" width="1.934" height="34"/>
		<rect x="584.987" y="271.066" width="1.934" height="10"/>
		<polygon points="586.921,276.066 588.855,276.066 588.855,276.066 		"/>
		<rect x="588.855" y="271.066" width="1.934" height="10"/>
		<polygon points="590.789,276.066 592.722,276.066 592.722,276.066 		"/>
		<rect x="592.722" y="267.066" width="1.934" height="18"/>
		<rect x="594.656" y="274.066" width="1.934" height="4"/>
		<polygon points="596.59,276.066 598.524,276.066 598.524,276.066 		"/>
		<rect x="598.524" y="274.066" width="1.934" height="4"/>
		<rect x="600.457" y="274.066" width="1.934" height="4"/>
		<rect x="602.391" y="271.066" width="1.934" height="10"/>
		<polygon points="604.325,276.066 606.259,276.066 606.259,276.066 		"/>
		<rect x="606.259" y="272.066" width="1.934" height="8"/>
		<rect x="608.192" y="274.066" width="1.934" height="4"/>
		<rect x="610.126" y="270.066" width="1.934" height="12"/>
		<polygon points="612.06,276.066 613.994,276.066 613.994,276.066 		"/>
		<polygon points="613.994,276.066 615.927,276.066 615.927,276.066 		"/>
		<polygon points="615.927,276.066 617.861,276.066 617.861,276.066 		"/>
		<rect x="617.861" y="274.066" width="1.934" height="4"/>
		<rect x="619.795" y="273.066" width="1.934" height="6"/>
		<polygon points="621.729,276.066 623.662,276.066 623.662,276.066 		"/>
		<rect x="623.662" y="273.066" width="1.934" height="6"/>
		<polygon points="625.596,276.066 627.53,276.066 627.53,276.066 		"/>
		<polygon points="627.53,276.066 629.464,276.066 629.464,276.066 		"/>
		<rect x="629.464" y="275.066" width="1.934" height="2"/>
		<rect x="631.397" y="272.066" width="1.934" height="8"/>
		<rect x="633.331" y="273.066" width="1.934" height="6"/>
		<rect x="635.265" y="264.066" width="1.934" height="24"/>
		<rect x="637.199" y="274.066" width="1.934" height="4"/>
		<rect x="639.133" y="260.066" width="1.934" height="32"/>
		<rect x="641.066" y="273.066" width="1.934" height="6"/>
	</g>
	
		<line style="opacity:0.8;" fill="none" stroke="#000000" stroke-miterlimit="10" x1="19.75" y1="20" x2="653.25" y2="20"/>
	
		<line style="opacity:0.8;" fill="none" stroke="#000000" stroke-miterlimit="10" x1="22.95" y1="449.74" x2="650.05" y2="449.74"/>
	<g>
		<g>
			<g>
				<path fill="none" stroke="#000000" stroke-miterlimit="10" d="M390.215,185.547c0.017-36.351-1.85-43.633-14.605-45.578"/>
				<g>
					<path d="M390.21,188.566c0.521-1.422,1.412-3.188,2.36-4.284l-2.374,0.87l-2.381-0.85
						C388.771,185.39,389.678,187.148,390.21,188.566z"/>
				</g>
			</g>
		</g>
	</g>
	<g>
		<g>
			<g>
				<path fill="none" stroke="#000000" stroke-miterlimit="10" d="M541.231,138.562c0.114-36.496,0.247-34.703,0.247-51.286"/>
				<g>
					<path d="M541.221,141.582c0.534-1.417,1.441-3.175,2.398-4.262l-2.382,0.849l-2.373-0.872
						C539.811,138.394,540.702,140.16,541.221,141.582z"/>
				</g>
			</g>
		</g>
	</g>
</g>
<style>
#g-verba-vignette10-venezuela-desktop-img rect, #g-verba-vignette10-venezuela-desktop-img circle, #g-verba-vignette10-venezuela-desktop-img path, #g-verba-vignette10-venezuela-desktop-img line, #g-verba-vignette10-venezuela-desktop-img polyline { vector-effect: non-scaling-stroke; }
</style>
</svg>

