<?xml version="1.0" encoding="utf-8"?>
<!-- Generator: Adobe Illustrator 24.1.0, SVG Export Plug-In . SVG Version: 6.00 Build 0)  -->
<svg version="1.2" baseProfile="tiny" id="g-verba-vignette12-feminismo-mobile-img" xmlns="http://www.w3.org/2000/svg" xmlns:xlink="http://www.w3.org/1999/xlink"
	 x="0px" y="0px" viewBox="0 0 321 311.567" xml:space="preserve">
<g>
	
		<line style="opacity:0.8;" fill="none" stroke="#000000" stroke-miterlimit="10" x1="-0.01" y1="20" x2="319.99" y2="20"/>
	
		<line style="opacity:0.8;" fill="none" stroke="#000000" stroke-miterlimit="10" x1="0.5" y1="291.567" x2="320.5" y2="291.567"/>
	<g transform="translate(30.95185411632263, 275)">
		<path display="none" fill="none" stroke="#000000" d="M-8.134-33.441h290.235"/>
		<g transform="translate(21.756304702566386,0)">
			<line display="none" fill="none" stroke="#000000" x1="-19.794" y1="-163.691" x2="-19.794" y2="-33.691"/>
		</g>
		<g transform="translate(46.581849873905945,0)">
			<line display="none" fill="none" stroke="#000000" x1="-32.829" y1="-163.691" x2="-32.829" y2="-33.691"/>
		</g>
		<g transform="translate(71.68020323394155,0)">
			<line display="none" fill="none" stroke="#000000" x1="-46.007" y1="-163.691" x2="-46.007" y2="-33.691"/>
		</g>
		<g transform="translate(96.78992360183949,0)">
			<line display="none" fill="none" stroke="#000000" x1="-59.191" y1="-163.691" x2="-59.191" y2="-33.691"/>
		</g>
		<g transform="translate(121.33129357662068,0)">
			<line display="none" fill="none" stroke="#000000" x1="-72.077" y1="-163.691" x2="-72.077" y2="-33.691"/>
		</g>
		<g transform="translate(146.15683874796025,0)">
			<line display="none" fill="none" stroke="#000000" x1="-85.112" y1="-163.691" x2="-85.112" y2="-33.691"/>
		</g>
		<g transform="translate(171.25519210799584,0)">
			<line display="none" fill="none" stroke="#000000" x1="-98.289" y1="-163.691" x2="-98.289" y2="-33.691"/>
		</g>
		<g transform="translate(196.3649124758938,0)">
			<line display="none" fill="none" stroke="#000000" x1="-111.473" y1="-163.691" x2="-111.473" y2="-33.691"/>
		</g>
		<g transform="translate(221.179090639371,0)">
			<line display="none" fill="none" stroke="#000000" x1="-124.502" y1="-163.691" x2="-124.502" y2="-33.691"/>
		</g>
		<g transform="translate(246.00463581071057,0)">
			<line display="none" fill="none" stroke="#000000" x1="-137.537" y1="-163.691" x2="-137.537" y2="-33.691"/>
		</g>
		<g transform="translate(271.1029891707462,0)">
			<line display="none" fill="none" stroke="#000000" x1="-150.715" y1="-163.691" x2="-150.715" y2="-33.691"/>
		</g>
		<g transform="translate(296.2127095386441,0)">
			<line display="none" fill="none" stroke="#000000" x1="-163.899" y1="-163.691" x2="-163.899" y2="-33.691"/>
		</g>
		<g transform="translate(320.7540795134253,0)">
			<line display="none" fill="none" stroke="#000000" x1="-176.785" y1="-163.691" x2="-176.785" y2="-33.691"/>
		</g>
		<g transform="translate(345.5796246847649,0)">
			<line display="none" fill="none" stroke="#000000" x1="-189.819" y1="-163.691" x2="-189.819" y2="-33.691"/>
		</g>
		<g transform="translate(370.67797804480045,0)">
			<line display="none" fill="none" stroke="#000000" x1="-202.997" y1="-163.691" x2="-202.997" y2="-33.691"/>
		</g>
		<g transform="translate(395.78769841269843,0)">
			<line display="none" fill="none" stroke="#000000" x1="-216.181" y1="-163.691" x2="-216.181" y2="-33.691"/>
		</g>
		<g transform="translate(420.32906838747965,0)">
			<line display="none" fill="none" stroke="#000000" x1="-229.067" y1="-163.691" x2="-229.067" y2="-33.691"/>
		</g>
		<g transform="translate(445.15461355881916,0)">
			<line display="none" fill="none" stroke="#000000" x1="-242.102" y1="-163.691" x2="-242.102" y2="-33.691"/>
		</g>
		<g transform="translate(470.2529669188548,0)">
			<line display="none" fill="none" stroke="#000000" x1="-255.28" y1="-163.691" x2="-255.28" y2="-33.691"/>
		</g>
		<g transform="translate(495.3626872867527,0)">
			<line display="none" fill="none" stroke="#000000" x1="-268.464" y1="-163.691" x2="-268.464" y2="-33.691"/>
		</g>
		<g transform="translate(519.9040572615339,0)">
			<line display="none" fill="none" stroke="#000000" x1="-281.349" y1="-163.691" x2="-281.349" y2="-33.691"/>
		</g>
		<g transform="translate(544.7296024328734,0)">
			<line display="none" fill="none" stroke="#000000" x1="-294.384" y1="-163.691" x2="-294.384" y2="-33.691"/>
		</g>
		<g transform="translate(569.827955792909,0)">
			<line display="none" fill="none" stroke="#000000" x1="-307.562" y1="-163.691" x2="-307.562" y2="-33.691"/>
		</g>
		<g transform="translate(594.937676160807,0)">
			<line display="none" fill="none" stroke="#000000" x1="-320.746" y1="-163.691" x2="-320.746" y2="-33.691"/>
		</g>
	</g>
	<g transform="translate(30.95185411632263, 290)">
		<path display="none" fill="#212529" d="M-13.134-16.941h290.235"/>
		<g transform="translate(96.78992360183949,0)">
			<line display="none" fill="#212529" x1="-64.191" y1="-147.191" x2="-64.191" y2="-17.191"/>
			
				<text transform="matrix(0.955 0 0 1 -69.4742 -9.1412)" display="none" fill="#212529" font-family="'ElMessiri-Bold'" font-size="10px">2015</text>
		</g>
		<g transform="translate(196.3649124758938,0)">
			<line display="none" fill="#212529" x1="-116.473" y1="-147.191" x2="-116.473" y2="-17.191"/>
			
				<text transform="matrix(0.955 0 0 1 -121.7558 -9.1412)" display="none" fill="#212529" font-family="'ElMessiri-Bold'" font-size="10px">2016</text>
		</g>
		<g transform="translate(296.2127095386441,0)">
			<line display="none" fill="#212529" x1="-168.899" y1="-147.191" x2="-168.899" y2="-17.191"/>
			
				<text transform="matrix(0.955 0 0 1 -174.1812 -9.1412)" display="none" fill="#212529" font-family="'ElMessiri-Bold'" font-size="10px">2017</text>
		</g>
		<g transform="translate(395.78769841269843,0)">
			<line display="none" fill="#212529" x1="-221.181" y1="-147.191" x2="-221.181" y2="-17.191"/>
			
				<text transform="matrix(0.955 0 0 1 -226.4637 -9.1412)" display="none" fill="#212529" font-family="'ElMessiri-Bold'" font-size="10px">2018</text>
		</g>
		<g transform="translate(495.3626872867527,0)">
			<line display="none" fill="#212529" x1="-273.464" y1="-147.191" x2="-273.464" y2="-17.191"/>
			
				<text transform="matrix(0.955 0 0 1 -278.7467 -9.1412)" display="none" fill="#212529" font-family="'ElMessiri-Bold'" font-size="10px">2019</text>
		</g>
		<g transform="translate(594.937676160807,0)">
			<line display="none" fill="#212529" x1="-325.746" y1="-147.191" x2="-325.746" y2="-17.191"/>
			
				<text transform="matrix(0.955 0 0 1 -331.0287 -9.1412)" display="none" fill="#212529" font-family="'ElMessiri-Bold'" font-size="10px">2020</text>
		</g>
	</g>
	<g transform="translate(30, 0)">
		<path display="none" fill="none" stroke="#000000" d="M-10.721,179.059h3.087v-65h-3.087"/>
		<g transform="translate(0,130.5)">
			<line fill="none" stroke="#000000" stroke-opacity="0.12" x1="-7.871" y1="48.559" x2="283.27" y2="48.559"/>
			
				
		</g>
		<g transform="translate(0,101.61111111111111)">
			<line fill="none" stroke="#000000" stroke-opacity="0.12" x1="-7.871" y1="63.004" x2="283.27" y2="63.004"/>
		</g>
		<g transform="translate(0,72.72222222222223)">
			<line fill="none" stroke="#000000" stroke-opacity="0.12" x1="-7.871" y1="77.448" x2="283.27" y2="77.448"/>
			
				
		</g>
		<g transform="translate(0,43.83333333333334)">
			<line fill="none" stroke="#000000" stroke-opacity="0.12" x1="-7.871" y1="91.892" x2="283.27" y2="91.892"/>
		</g>
		<g transform="translate(0,14.944444444444457)">
			<line fill="none" stroke="#000000" stroke-opacity="0.12" x1="-7.871" y1="106.337" x2="283.27" y2="106.337"/>
			
				
		</g>
	</g>
	<g>
		<rect x="22.129" y="177.365" width="0.907" height="2.889"/>
		<rect x="23.036" y="176.642" width="0.907" height="4.333"/>
		<polygon points="23.942,178.809 24.849,178.809 24.849,178.809 		"/>
		<rect x="24.849" y="175.92" width="0.907" height="5.778"/>
		<rect x="25.756" y="178.087" width="0.907" height="1.444"/>
		<polygon points="26.663,178.809 27.57,178.809 27.57,178.809 		"/>
		<rect x="27.57" y="178.087" width="0.907" height="1.444"/>
		<polygon points="28.477,178.809 29.384,178.809 29.384,178.809 		"/>
		<polygon points="29.384,178.809 30.291,178.809 30.291,178.809 		"/>
		<polygon points="30.291,178.809 31.198,178.809 31.198,178.809 		"/>
		<polygon points="31.198,178.809 32.105,178.809 32.105,178.809 		"/>
		<polygon points="32.105,178.809 33.012,178.809 33.012,178.809 		"/>
		<rect x="33.012" y="178.087" width="0.907" height="1.444"/>
		<polygon points="33.919,178.809 34.826,178.809 34.826,178.809 		"/>
		<polygon points="34.826,178.809 35.733,178.809 35.733,178.809 		"/>
		<polygon points="35.733,178.809 36.64,178.809 36.64,178.809 		"/>
		<rect x="36.64" y="177.365" width="0.907" height="2.889"/>
		<polygon points="37.547,178.809 38.454,178.809 38.454,178.809 		"/>
		<polygon points="38.454,178.809 39.361,178.809 39.361,178.809 		"/>
		<rect x="39.361" y="178.087" width="0.907" height="1.444"/>
		<polygon points="40.268,178.809 41.175,178.809 41.175,178.809 		"/>
		<rect x="41.175" y="177.365" width="0.907" height="2.889"/>
		<polygon points="42.082,178.809 42.989,178.809 42.989,178.809 		"/>
		<polygon points="42.989,178.809 43.896,178.809 43.896,178.809 		"/>
		<polygon points="43.896,178.809 44.803,178.809 44.803,178.809 		"/>
		<polygon points="44.803,178.809 45.71,178.809 45.71,178.809 		"/>
		<polygon points="45.71,178.809 46.617,178.809 46.617,178.809 		"/>
		<polygon points="46.617,178.809 47.524,178.809 47.524,178.809 		"/>
		<polygon points="47.524,178.809 48.431,178.809 48.431,178.809 		"/>
		<polygon points="48.431,178.809 49.338,178.809 49.338,178.809 		"/>
		<polygon points="49.338,178.809 50.245,178.809 50.245,178.809 		"/>
		<rect x="50.245" y="177.365" width="0.907" height="2.889"/>
		<polygon points="51.152,178.809 52.059,178.809 52.059,178.809 		"/>
		<polygon points="52.059,178.809 52.966,178.809 52.966,178.809 		"/>
		<polygon points="52.966,178.809 53.873,178.809 53.873,178.809 		"/>
		<polygon points="53.873,178.809 54.78,178.809 54.78,178.809 		"/>
		<rect x="54.78" y="178.087" width="0.907" height="1.444"/>
		<rect x="55.687" y="178.087" width="0.907" height="1.444"/>
		<polygon points="56.594,178.809 57.501,178.809 57.501,178.809 		"/>
		<polygon points="57.501,178.809 58.408,178.809 58.408,178.809 		"/>
		<rect x="58.408" y="178.087" width="0.907" height="1.444"/>
		<polygon points="59.315,178.809 60.222,178.809 60.222,178.809 		"/>
		<rect x="60.222" y="178.087" width="0.907" height="1.444"/>
		<polygon points="61.129,178.809 62.036,178.809 62.036,178.809 		"/>
		<rect x="62.036" y="176.642" width="0.907" height="4.333"/>
		<polygon points="62.943,178.809 63.85,178.809 63.85,178.809 		"/>
		<polygon points="63.85,178.809 64.757,178.809 64.757,178.809 		"/>
		<polygon points="64.757,178.809 65.664,178.809 65.664,178.809 		"/>
		<polygon points="65.664,178.809 66.571,178.809 66.571,178.809 		"/>
		<rect x="66.571" y="178.087" width="0.907" height="1.444"/>
		<polygon points="67.478,178.809 68.385,178.809 68.385,178.809 		"/>
		<polygon points="68.385,178.809 69.292,178.809 69.292,178.809 		"/>
		<polygon points="69.292,178.809 70.199,178.809 70.199,178.809 		"/>
		<polygon points="70.199,178.809 71.106,178.809 71.106,178.809 		"/>
		<polygon points="71.106,178.809 72.013,178.809 72.013,178.809 		"/>
		<polygon points="72.013,178.809 72.92,178.809 72.92,178.809 		"/>
		<polygon points="72.92,178.809 73.827,178.809 73.827,178.809 		"/>
		<rect x="73.827" y="178.087" width="0.907" height="1.444"/>
		<polygon points="74.734,178.809 75.641,178.809 75.641,178.809 		"/>
		<rect x="75.641" y="177.365" width="0.907" height="2.889"/>
		<polygon points="76.548,178.809 77.455,178.809 77.455,178.809 		"/>
		<polygon points="77.455,178.809 78.362,178.809 78.362,178.809 		"/>
		<rect x="78.362" y="178.087" width="0.907" height="1.444"/>
		<polygon points="79.269,178.809 80.175,178.809 80.175,178.809 		"/>
		<polygon points="80.175,178.809 81.082,178.809 81.082,178.809 		"/>
		<polygon points="81.082,178.809 81.989,178.809 81.989,178.809 		"/>
		<polygon points="81.989,178.809 82.896,178.809 82.896,178.809 		"/>
		<polygon points="82.896,178.809 83.803,178.809 83.803,178.809 		"/>
		<polygon points="83.803,178.809 84.71,178.809 84.71,178.809 		"/>
		<polygon points="84.71,178.809 85.617,178.809 85.617,178.809 		"/>
		<polygon points="85.617,178.809 86.524,178.809 86.524,178.809 		"/>
		<rect x="86.524" y="178.087" width="0.907" height="1.444"/>
		<rect x="87.431" y="177.365" width="0.907" height="2.889"/>
		<polygon points="88.338,178.809 89.245,178.809 89.245,178.809 		"/>
		<polygon points="89.245,178.809 90.152,178.809 90.152,178.809 		"/>
		<polygon points="90.152,178.809 91.059,178.809 91.059,178.809 		"/>
		<polygon points="91.059,178.809 91.966,178.809 91.966,178.809 		"/>
		<polygon points="91.966,178.809 92.873,178.809 92.873,178.809 		"/>
		<polygon points="92.873,178.809 93.78,178.809 93.78,178.809 		"/>
		<polygon points="93.78,178.809 94.687,178.809 94.687,178.809 		"/>
		<polygon points="94.687,178.809 95.594,178.809 95.594,178.809 		"/>
		<polygon points="95.594,178.809 96.501,178.809 96.501,178.809 		"/>
		<polygon points="96.501,178.809 97.408,178.809 97.408,178.809 		"/>
		<polygon points="97.408,178.809 98.315,178.809 98.315,178.809 		"/>
		<polygon points="98.315,178.809 99.222,178.809 99.222,178.809 		"/>
		<polygon points="99.222,178.809 100.129,178.809 100.129,178.809 		"/>
		<polygon points="100.129,178.809 101.036,178.809 101.036,178.809 		"/>
		<polygon points="101.036,178.809 101.943,178.809 101.943,178.809 		"/>
		<polygon points="101.943,178.809 102.85,178.809 102.85,178.809 		"/>
		<rect x="102.85" y="177.365" width="0.907" height="2.889"/>
		<polygon points="103.757,178.809 104.664,178.809 104.664,178.809 		"/>
		<polygon points="104.664,178.809 105.571,178.809 105.571,178.809 		"/>
		<polygon points="105.571,178.809 106.478,178.809 106.478,178.809 		"/>
		<polygon points="106.478,178.809 107.385,178.809 107.385,178.809 		"/>
		<rect x="107.385" y="175.198" width="0.907" height="7.222"/>
		<rect x="108.292" y="178.087" width="0.907" height="1.444"/>
		<polygon points="109.199,178.809 110.106,178.809 110.106,178.809 		"/>
		<polygon points="110.106,178.809 111.013,178.809 111.013,178.809 		"/>
		<polygon points="111.013,178.809 111.92,178.809 111.92,178.809 		"/>
		<rect x="111.92" y="178.087" width="0.907" height="1.444"/>
		<polygon points="112.827,178.809 113.734,178.809 113.734,178.809 		"/>
		<rect x="113.734" y="177.365" width="0.907" height="2.889"/>
		<rect x="114.641" y="178.087" width="0.907" height="1.444"/>
		<polygon points="115.548,178.809 116.455,178.809 116.455,178.809 		"/>
		<polygon points="116.455,178.809 117.362,178.809 117.362,178.809 		"/>
		<polygon points="117.362,178.809 118.269,178.809 118.269,178.809 		"/>
		<rect x="118.269" y="178.087" width="0.907" height="1.444"/>
		<polygon points="119.176,178.809 120.083,178.809 120.083,178.809 		"/>
		<polygon points="120.083,178.809 120.99,178.809 120.99,178.809 		"/>
		<rect x="120.99" y="178.087" width="0.907" height="1.444"/>
		<polygon points="121.897,178.809 122.804,178.809 122.804,178.809 		"/>
		<polygon points="122.804,178.809 123.711,178.809 123.711,178.809 		"/>
		<rect x="123.711" y="178.087" width="0.907" height="1.444"/>
		<polygon points="124.618,178.809 125.525,178.809 125.525,178.809 		"/>
		<polygon points="125.525,178.809 126.432,178.809 126.432,178.809 		"/>
		<polygon points="126.432,178.809 127.339,178.809 127.339,178.809 		"/>
		<polygon points="127.339,178.809 128.246,178.809 128.246,178.809 		"/>
		<rect x="128.246" y="178.087" width="0.907" height="1.444"/>
		<rect x="129.153" y="178.087" width="0.907" height="1.444"/>
		<polygon points="130.06,178.809 130.967,178.809 130.967,178.809 		"/>
		<rect x="130.967" y="178.087" width="0.907" height="1.444"/>
		<polygon points="131.874,178.809 132.781,178.809 132.781,178.809 		"/>
		<polygon points="132.781,178.809 133.688,178.809 133.688,178.809 		"/>
		<polygon points="133.688,178.809 134.595,178.809 134.595,178.809 		"/>
		<polygon points="134.595,178.809 135.501,178.809 135.501,178.809 		"/>
		<polygon points="135.502,178.809 136.408,178.809 136.408,178.809 		"/>
		<rect x="136.408" y="178.087" width="0.907" height="1.444"/>
		<rect x="137.315" y="178.087" width="0.907" height="1.444"/>
		<polygon points="138.222,178.809 139.129,178.809 139.129,178.809 		"/>
		<rect x="139.129" y="178.087" width="0.907" height="1.444"/>
		<polygon points="140.036,178.809 140.943,178.809 140.943,178.809 		"/>
		<rect x="140.943" y="176.642" width="0.907" height="4.333"/>
		<polygon points="141.85,178.809 142.757,178.809 142.757,178.809 		"/>
		<polygon points="142.757,178.809 143.664,178.809 143.664,178.809 		"/>
		<polygon points="143.664,178.809 144.571,178.809 144.571,178.809 		"/>
		<rect x="144.571" y="178.087" width="0.907" height="1.444"/>
		<polygon points="145.478,178.809 146.385,178.809 146.385,178.809 		"/>
		<polygon points="146.385,178.809 147.292,178.809 147.292,178.809 		"/>
		<polygon points="147.292,178.809 148.199,178.809 148.199,178.809 		"/>
		<rect x="148.199" y="178.087" width="0.907" height="1.444"/>
		<polygon points="149.106,178.809 150.013,178.809 150.013,178.809 		"/>
		<rect x="150.013" y="178.087" width="0.907" height="1.444"/>
		<rect x="150.92" y="178.087" width="0.907" height="1.444"/>
		<polygon points="151.827,178.809 152.734,178.809 152.734,178.809 		"/>
		<polygon points="152.734,178.809 153.641,178.809 153.641,178.809 		"/>
		<polygon points="153.641,178.809 154.548,178.809 154.548,178.809 		"/>
		<rect x="154.548" y="178.087" width="0.907" height="1.444"/>
		<rect x="155.455" y="177.365" width="0.907" height="2.889"/>
		<rect x="156.362" y="178.087" width="0.907" height="1.444"/>
		<polygon points="157.269,178.809 158.176,178.809 158.176,178.809 		"/>
		<rect x="158.176" y="177.365" width="0.907" height="2.889"/>
		<rect x="159.083" y="177.365" width="0.907" height="2.889"/>
		<polygon points="159.99,178.809 160.897,178.809 160.897,178.809 		"/>
		<polygon points="160.897,178.809 161.804,178.809 161.804,178.809 		"/>
		<rect x="161.804" y="178.087" width="0.907" height="1.444"/>
		<rect x="162.711" y="178.087" width="0.907" height="1.444"/>
		<polygon points="163.618,178.809 164.525,178.809 164.525,178.809 		"/>
		<rect x="164.525" y="176.642" width="0.907" height="4.333"/>
		<rect x="165.432" y="175.198" width="0.907" height="7.222"/>
		<rect x="166.339" y="178.087" width="0.907" height="1.444"/>
		<polygon points="167.246,178.809 168.153,178.809 168.153,178.809 		"/>
		<polygon points="168.153,178.809 169.06,178.809 169.06,178.809 		"/>
		<polygon points="169.06,178.809 169.967,178.809 169.967,178.809 		"/>
		<polygon points="169.967,178.809 170.874,178.809 170.874,178.809 		"/>
		<rect x="170.874" y="176.642" width="0.907" height="4.333"/>
		<rect x="171.781" y="177.365" width="0.907" height="2.889"/>
		<polygon points="172.688,178.809 173.595,178.809 173.595,178.809 		"/>
		<polygon points="173.595,178.809 174.502,178.809 174.502,178.809 		"/>
		<polygon points="174.502,178.809 175.409,178.809 175.409,178.809 		"/>
		<polygon points="175.409,178.809 176.316,178.809 176.316,178.809 		"/>
		<rect x="176.316" y="178.087" width="0.907" height="1.444"/>
		<rect x="177.223" y="175.92" width="0.907" height="5.778"/>
		<rect x="178.13" y="176.642" width="0.907" height="4.333"/>
		<polygon points="179.037,178.809 179.944,178.809 179.944,178.809 		"/>
		<polygon points="179.944,178.809 180.851,178.809 180.851,178.809 		"/>
		<polygon points="180.851,178.809 181.758,178.809 181.758,178.809 		"/>
		<rect x="181.758" y="177.365" width="0.907" height="2.889"/>
		<rect x="182.665" y="178.087" width="0.907" height="1.444"/>
		<polygon points="183.572,178.809 184.479,178.809 184.479,178.809 		"/>
		<rect x="184.479" y="178.087" width="0.907" height="1.444"/>
		<rect x="185.386" y="175.92" width="0.907" height="5.778"/>
		<polygon points="186.293,178.809 187.2,178.809 187.2,178.809 		"/>
		<rect x="187.2" y="178.087" width="0.907" height="1.444"/>
		<polygon points="188.107,178.809 189.014,178.809 189.014,178.809 		"/>
		<polygon points="189.014,178.809 189.921,178.809 189.921,178.809 		"/>
		<polygon points="189.921,178.809 190.828,178.809 190.828,178.809 		"/>
		<polygon points="190.828,178.809 191.734,178.809 191.734,178.809 		"/>
		<polygon points="191.734,178.809 192.641,178.809 192.641,178.809 		"/>
		<rect x="192.641" y="178.087" width="0.907" height="1.444"/>
		<polygon points="193.548,178.809 194.455,178.809 194.455,178.809 		"/>
		<polygon points="194.455,178.809 195.362,178.809 195.362,178.809 		"/>
		<polygon points="195.362,178.809 196.269,178.809 196.269,178.809 		"/>
		<polygon points="196.269,178.809 197.176,178.809 197.176,178.809 		"/>
		<polygon points="197.176,178.809 198.083,178.809 198.083,178.809 		"/>
		<polygon points="198.083,178.809 198.99,178.809 198.99,178.809 		"/>
		<rect x="198.99" y="178.087" width="0.907" height="1.444"/>
		<polygon points="199.897,178.809 200.804,178.809 200.804,178.809 		"/>
		<polygon points="200.804,178.809 201.711,178.809 201.711,178.809 		"/>
		<rect x="201.711" y="178.087" width="0.907" height="1.444"/>
		<rect x="202.618" y="178.087" width="0.907" height="1.444"/>
		<rect x="203.525" y="177.365" width="0.907" height="2.889"/>
		<rect x="204.432" y="175.198" width="0.907" height="7.222"/>
		<rect x="205.339" y="176.642" width="0.907" height="4.333"/>
		<polygon points="206.246,178.809 207.153,178.809 207.153,178.809 		"/>
		<rect x="207.153" y="175.92" width="0.907" height="5.778"/>
		<rect x="208.06" y="177.365" width="0.907" height="2.889"/>
		<polygon points="208.967,178.809 209.874,178.809 209.874,178.809 		"/>
		<rect x="209.874" y="178.087" width="0.907" height="1.444"/>
		<rect x="210.781" y="173.754" width="0.907" height="10.111"/>
		<rect x="211.688" y="177.365" width="0.907" height="2.889"/>
		<rect x="212.595" y="178.087" width="0.907" height="1.444"/>
		<rect x="213.502" y="175.92" width="0.907" height="5.778"/>
		<rect x="214.409" y="178.087" width="0.907" height="1.444"/>
		<rect x="215.316" y="175.92" width="0.907" height="5.778"/>
		<polygon points="216.223,178.809 217.13,178.809 217.13,178.809 		"/>
		<polygon points="217.13,178.809 218.037,178.809 218.037,178.809 		"/>
		<rect x="218.037" y="143.42" width="0.907" height="70.778"/>
		<rect x="218.944" y="175.92" width="0.907" height="5.778"/>
		<polygon points="219.851,178.809 220.758,178.809 220.758,178.809 		"/>
		<polygon points="220.758,178.809 221.665,178.809 221.665,178.809 		"/>
		<polygon points="221.665,178.809 222.572,178.809 222.572,178.809 		"/>
		<polygon points="222.572,178.809 223.479,178.809 223.479,178.809 		"/>
		<rect x="223.479" y="176.642" width="0.907" height="4.333"/>
		<rect x="224.386" y="170.865" width="0.907" height="15.889"/>
		<rect x="225.293" y="171.587" width="0.907" height="14.444"/>
		<rect x="226.2" y="176.642" width="0.907" height="4.333"/>
		<rect x="227.107" y="174.476" width="0.907" height="8.667"/>
		<rect x="228.014" y="177.365" width="0.907" height="2.889"/>
		<rect x="228.921" y="178.087" width="0.907" height="1.444"/>
		<rect x="229.828" y="173.754" width="0.907" height="10.111"/>
		<rect x="230.735" y="178.087" width="0.907" height="1.444"/>
		<polygon points="231.642,178.809 232.549,178.809 232.549,178.809 		"/>
		<polygon points="232.549,178.809 233.456,178.809 233.456,178.809 		"/>
		<polygon points="233.456,178.809 234.363,178.809 234.363,178.809 		"/>
		<rect x="234.363" y="177.365" width="0.907" height="2.889"/>
		<polygon points="235.27,178.809 236.177,178.809 236.177,178.809 		"/>
		<polygon points="236.177,178.809 237.084,178.809 237.084,178.809 		"/>
		<rect x="237.084" y="176.642" width="0.907" height="4.333"/>
		<rect x="237.991" y="176.642" width="0.907" height="4.333"/>
		<rect x="238.898" y="177.365" width="0.907" height="2.889"/>
		<rect x="239.805" y="175.198" width="0.907" height="7.222"/>
		<rect x="240.712" y="177.365" width="0.907" height="2.889"/>
		<rect x="241.619" y="175.92" width="0.907" height="5.778"/>
		<rect x="242.526" y="175.198" width="0.907" height="7.222"/>
		<rect x="243.433" y="178.087" width="0.907" height="1.444"/>
		<rect x="244.34" y="175.92" width="0.907" height="5.778"/>
		<rect x="245.247" y="175.92" width="0.907" height="5.778"/>
		<rect x="246.154" y="177.365" width="0.907" height="2.889"/>
		<rect x="247.061" y="176.642" width="0.907" height="4.333"/>
		<rect x="247.967" y="173.754" width="0.907" height="10.111"/>
		<rect x="248.874" y="178.087" width="0.907" height="1.444"/>
		<rect x="249.781" y="177.365" width="0.907" height="2.889"/>
		<rect x="250.688" y="175.198" width="0.907" height="7.222"/>
		<rect x="251.595" y="170.142" width="0.907" height="17.333"/>
		<rect x="252.502" y="178.087" width="0.907" height="1.444"/>
		<rect x="253.409" y="170.142" width="0.907" height="17.333"/>
		<rect x="254.316" y="175.198" width="0.907" height="7.222"/>
		<rect x="255.223" y="177.365" width="0.907" height="2.889"/>
		<rect x="256.13" y="178.087" width="0.907" height="1.444"/>
		<rect x="257.037" y="173.754" width="0.907" height="10.111"/>
		<rect x="257.944" y="177.365" width="0.907" height="2.889"/>
		<rect x="258.851" y="172.309" width="0.907" height="13"/>
		<rect x="259.758" y="178.087" width="0.907" height="1.444"/>
		<rect x="260.665" y="178.087" width="0.907" height="1.444"/>
		<rect x="261.572" y="178.087" width="0.907" height="1.444"/>
		<polygon points="262.479,178.809 263.386,178.809 263.386,178.809 		"/>
		<rect x="263.386" y="177.365" width="0.907" height="2.889"/>
		<rect x="264.293" y="161.476" width="0.907" height="34.667"/>
		<rect x="265.2" y="120.309" width="0.907" height="117"/>
		<rect x="266.107" y="170.865" width="0.907" height="15.889"/>
		<rect x="267.014" y="177.365" width="0.907" height="2.889"/>
		<rect x="267.921" y="178.087" width="0.907" height="1.444"/>
		<rect x="268.828" y="176.642" width="0.907" height="4.333"/>
		<rect x="269.735" y="174.476" width="0.907" height="8.667"/>
		<rect x="270.642" y="176.642" width="0.907" height="4.333"/>
		<rect x="271.549" y="178.087" width="0.907" height="1.444"/>
		<rect x="272.456" y="177.365" width="0.907" height="2.889"/>
		<rect x="273.363" y="175.198" width="0.907" height="7.222"/>
		<rect x="274.27" y="177.365" width="0.907" height="2.889"/>
		<rect x="275.177" y="173.031" width="0.907" height="11.556"/>
		<rect x="276.084" y="176.642" width="0.907" height="4.333"/>
		<rect x="276.991" y="178.087" width="0.907" height="1.444"/>
		<rect x="277.898" y="176.642" width="0.907" height="4.333"/>
		<rect x="278.805" y="173.031" width="0.907" height="11.556"/>
		<polygon points="279.712,178.809 280.619,178.809 280.619,178.809 		"/>
		<rect x="280.619" y="176.642" width="0.907" height="4.333"/>
		<rect x="281.526" y="175.92" width="0.907" height="5.778"/>
		<rect x="282.433" y="170.865" width="0.907" height="15.889"/>
		<rect x="283.34" y="177.365" width="0.907" height="2.889"/>
		<rect x="284.247" y="172.309" width="0.907" height="13"/>
		<rect x="285.154" y="172.309" width="0.907" height="13"/>
		<rect x="286.061" y="178.087" width="0.907" height="1.444"/>
		<rect x="286.968" y="177.365" width="0.907" height="2.889"/>
		<rect x="287.875" y="177.365" width="0.907" height="2.889"/>
		<rect x="288.782" y="178.087" width="0.907" height="1.444"/>
		<rect x="289.689" y="175.198" width="0.907" height="7.222"/>
		<rect x="290.596" y="169.42" width="0.907" height="18.778"/>
		<rect x="291.503" y="177.365" width="0.907" height="2.889"/>
		<rect x="292.41" y="175.92" width="0.907" height="5.778"/>
		<rect x="293.317" y="174.476" width="0.907" height="8.667"/>
		<rect x="294.224" y="178.087" width="0.907" height="1.444"/>
		<rect x="295.131" y="178.087" width="0.907" height="1.444"/>
		<rect x="296.038" y="177.365" width="0.907" height="2.889"/>
		<rect x="296.945" y="176.642" width="0.907" height="4.333"/>
		<rect x="297.852" y="176.642" width="0.907" height="4.333"/>
		<polygon points="298.759,178.809 299.666,178.809 299.666,178.809 		"/>
		<rect x="299.666" y="178.087" width="0.907" height="1.444"/>
		<rect x="300.573" y="173.754" width="0.907" height="10.111"/>
		<rect x="301.48" y="173.031" width="0.907" height="11.556"/>
		<rect x="302.387" y="173.031" width="0.907" height="11.556"/>
		<rect x="303.294" y="172.309" width="0.907" height="13"/>
		<rect x="304.201" y="175.92" width="0.907" height="5.778"/>
		<rect x="305.107" y="176.642" width="0.907" height="4.333"/>
		<rect x="306.014" y="172.309" width="0.907" height="13"/>
		<polygon points="306.921,178.809 307.828,178.809 307.828,178.809 		"/>
		<polygon points="307.828,178.809 308.735,178.809 308.735,178.809 		"/>
		<rect x="308.735" y="174.476" width="0.907" height="8.667"/>
		<rect x="309.642" y="176.642" width="0.907" height="4.333"/>
		<rect x="310.549" y="174.476" width="0.907" height="8.667"/>
		<rect x="311.456" y="174.476" width="0.907" height="8.667"/>
		<rect x="312.363" y="165.809" width="0.907" height="26"/>
	</g>
	<g>
		<line fill="none" stroke="#000000" stroke-miterlimit="10" x1="218.653" y1="125.199" x2="218.653" y2="90.717"/>
		<g>
			<path d="M218.653,129.726c0.79-2.13,2.139-4.772,3.567-6.411l-3.567,1.29l-3.566-1.29
				C216.515,124.953,217.863,127.596,218.653,129.726z"/>
		</g>
	</g>
</g>
<style>
#g-verba-vignette12-feminismo-mobile-img rect, #g-verba-vignette12-feminismo-mobile-img circle, #g-verba-vignette12-feminismo-mobile-img path, #g-verba-vignette12-feminismo-mobile-img line, #g-verba-vignette12-feminismo-mobile-img polyline { vector-effect: non-scaling-stroke; }
</style>
</svg>

