<?xml version="1.0" encoding="utf-8"?>
<!-- Generator: Adobe Illustrator 21.0.0, SVG Export Plug-In . SVG Version: 6.00 Build 0)  -->
<svg version="1.2" baseProfile="tiny" id="g-verba-tema02-query02-gurtel-vs-ere-desktop-img" xmlns="http://www.w3.org/2000/svg" xmlns:xlink="http://www.w3.org/1999/xlink"
	 x="0px" y="0px" viewBox="0 0 673 460.4" overflow="scroll" xml:space="preserve">
<g>
	<g>
		<g>
			<path fill="none" stroke="#000000" stroke-miterlimit="10" d="M628.045,346.55c4.9-0.8,9.3-3.1,12-6.4c2-2.4,3-5.3,2.9-8.2"/>
			<g>
				<path d="M642.345,328.95c0.7,1.3,1.9,2.9,3,3.9l-2.5-0.5l-2.2,1.2C641.445,332.35,642.045,330.45,642.345,328.95z"/>
			</g>
		</g>
	</g>
	<g>
		<g>
			<path fill="none" stroke="#000000" stroke-miterlimit="10" d="M488.7,68.7c-0.9-3.7-2.5-6.9-4.7-9c-2.7-2.7-6-3.6-9.1-2.4"/>
			<g>
				<path d="M489.3,71.6c0.2-1.5,0.8-3.4,1.5-4.6l-2.2,1.3l-2.5-0.4C487.3,68.8,488.5,70.3,489.3,71.6z"/>
			</g>
		</g>
	</g>
	
		<line style="opacity:0.8;" fill="none" stroke="#000000" stroke-miterlimit="10" x1="9.5" y1="20" x2="653" y2="20"/>
	
		<line style="opacity:0.8;" fill="none" stroke="#000000" stroke-miterlimit="10" x1="9.5" y1="452.027" x2="647" y2="452.027"/>
	<g transform="translate(30, 260)">
		<path display="none" fill="none" stroke="#212529" d="M0.695,149.925h611"/>
		<g transform="translate(3.0388156880875323,0)">
			<line display="none" fill="none" stroke="#212529" x1="0.195" y1="-110.575" x2="0.195" y2="149.425"/>
			
		</g>
		<g transform="translate(28.53324857451071,0)">
			<line display="none" fill="none" stroke="#212529" x1="0.195" y1="-110.575" x2="0.195" y2="149.425"/>
			
		</g>
		<g transform="translate(54.3228925874557,0)">
			<line display="none" fill="none" stroke="#212529" x1="0.195" y1="-110.575" x2="0.195" y2="149.425"/>
			
		</g>
		<g transform="translate(80.39593928186162,0)">
			<line display="none" fill="none" stroke="#212529" x1="0.195" y1="-110.575" x2="0.195" y2="149.425"/>
			
		</g>
		<g transform="translate(106.4807944213284,0)">
			<line display="none" fill="none" stroke="#212529" x1="0.195" y1="-110.575" x2="0.195" y2="149.425"/>
			
		</g>
		<g transform="translate(131.9752273077516,0)">
			<line display="none" fill="none" stroke="#212529" x1="0.195" y1="-110.575" x2="0.195" y2="149.425"/>
			
		</g>
		<g transform="translate(157.76487132069656,0)">
			<line display="none" fill="none" stroke="#212529" x1="0.195" y1="-110.575" x2="0.195" y2="149.425"/>
			
		</g>
		<g transform="translate(183.8379180151025,0)">
			<line display="none" fill="none" stroke="#212529" x1="0.195" y1="-110.575" x2="0.195" y2="149.425"/>
			
		</g>
		<g transform="translate(209.92277315456926,0)">
			<line display="none" fill="none" stroke="#212529" x1="0.195" y1="-110.575" x2="0.195" y2="149.425"/>
			
		</g>
		<g transform="translate(235.70060872245338,0)">
			<line display="none" fill="none" stroke="#212529" x1="0.195" y1="-110.575" x2="0.195" y2="149.425"/>
			
		</g>
		<g transform="translate(261.49025273539837,0)">
			<line display="none" fill="none" stroke="#212529" x1="0.195" y1="-110.575" x2="0.195" y2="149.425"/>
			
		</g>
		<g transform="translate(287.56329942980426,0)">
			<line display="none" fill="none" stroke="#212529" x1="0.195" y1="-110.575" x2="0.195" y2="149.425"/>
			
		</g>
		<g transform="translate(313.64815456927107,0)">
			<line display="none" fill="none" stroke="#212529" x1="0.195" y1="-110.575" x2="0.195" y2="149.425"/>
			
		</g>
		<g transform="translate(339.14258745569424,0)">
			<line display="none" fill="none" stroke="#212529" x1="0.195" y1="-110.575" x2="0.195" y2="149.425"/>
			
		</g>
		<g transform="translate(364.9322314686392,0)">
			<line display="none" fill="none" stroke="#212529" x1="0.195" y1="-110.575" x2="0.195" y2="149.425"/>
			
		</g>
		<g transform="translate(391.00527816304515,0)">
			<line display="none" fill="none" stroke="#212529" x1="0.195" y1="-110.575" x2="0.195" y2="149.425"/>
			
		</g>
		<g transform="translate(417.09013330251196,0)">
			<line display="none" fill="none" stroke="#212529" x1="0.195" y1="-110.575" x2="0.195" y2="149.425"/>
			
		</g>
		<g transform="translate(442.5845661889351,0)">
			<line display="none" fill="none" stroke="#212529" x1="0.195" y1="-110.575" x2="0.195" y2="149.425"/>
			
		</g>
		<g transform="translate(468.3742102018801,0)">
			<line display="none" fill="none" stroke="#212529" x1="0.195" y1="-110.575" x2="0.195" y2="149.425"/>
			
		</g>
		<g transform="translate(494.44725689628604,0)">
			<line display="none" fill="none" stroke="#212529" x1="0.195" y1="-110.575" x2="0.195" y2="149.425"/>
			
		</g>
		<g transform="translate(520.5321120357528,0)">
			<line display="none" fill="none" stroke="#212529" x1="0.195" y1="-110.575" x2="0.195" y2="149.425"/>
			
		</g>
		<g transform="translate(546.026544922176,0)">
			<line display="none" fill="none" stroke="#212529" x1="0.195" y1="-110.575" x2="0.195" y2="149.425"/>
			
		</g>
		<g transform="translate(571.816188935121,0)">
			<line display="none" fill="none" stroke="#212529" x1="0.195" y1="-110.575" x2="0.195" y2="149.425"/>
			
		</g>
		<g transform="translate(597.8892356295269,0)">
			<line display="none" fill="none" stroke="#212529" x1="0.195" y1="-110.575" x2="0.195" y2="149.425"/>
			
		</g>
	</g>
	<g transform="translate(30, 275)">
		<path display="none" fill="none" stroke="#212529" d="M0.695,149.925h611"/>
		<g transform="translate(3.0388156880875323,0)">
			<line display="none" fill="none" stroke="#212529" x1="0.195" y1="-110.575" x2="0.195" y2="149.425"/>
			
				<text transform="matrix(1 0 0 1 -10.928 165.5255)" display="none" fill="#212529" font-family="'ElMessiri-Bold'" font-size="10px">2014</text>
		</g>
		<g transform="translate(106.4807944213284,0)">
			<line display="none" fill="none" stroke="#212529" x1="0.195" y1="-110.575" x2="0.195" y2="149.425"/>
			
				<text transform="matrix(1 0 0 1 -10.9281 165.5255)" display="none" fill="#212529" font-family="'ElMessiri-Bold'" font-size="10px">2015</text>
		</g>
		<g transform="translate(209.92277315456926,0)">
			<line display="none" fill="none" stroke="#212529" x1="0.195" y1="-110.575" x2="0.195" y2="149.425"/>
			
				<text transform="matrix(1 0 0 1 -10.928 165.5255)" display="none" fill="#212529" font-family="'ElMessiri-Bold'" font-size="10px">2016</text>
		</g>
		<g transform="translate(313.64815456927107,0)">
			<line display="none" fill="none" stroke="#212529" x1="0.195" y1="-110.575" x2="0.195" y2="149.425"/>
			
				<text transform="matrix(1 0 0 1 -10.9281 165.5255)" display="none" fill="#212529" font-family="'ElMessiri-Bold'" font-size="10px">2017</text>
		</g>
		<g transform="translate(417.09013330251196,0)">
			<line display="none" fill="none" stroke="#212529" x1="0.195" y1="-110.575" x2="0.195" y2="149.425"/>
			
				<text transform="matrix(1 0 0 1 -10.9282 165.5255)" display="none" fill="#212529" font-family="'ElMessiri-Bold'" font-size="10px">2018</text>
		</g>
		<g transform="translate(520.5321120357528,0)">
			<line display="none" fill="none" stroke="#212529" x1="0.195" y1="-110.575" x2="0.195" y2="149.425"/>
			
				<text transform="matrix(1 0 0 1 -10.9281 165.5255)" display="none" fill="#212529" font-family="'ElMessiri-Bold'" font-size="10px">2019</text>
		</g>
	</g>
	<g transform="translate(30, 0)">
		<path display="none" fill="none" stroke="#212529" d="M-5.805,199.925h6.5v-130h-6.5"/>
		<g transform="translate(0,130.5)">
			<line fill="none" stroke="#212529" stroke-opacity="0.12" x1="0.195" y1="69.425" x2="613.195" y2="69.425"/>
			
		</g>
		<g transform="translate(0,101.61111111111111)">
			<line fill="none" stroke="#212529" stroke-opacity="0.12" x1="0.195" y1="69.425" x2="613.195" y2="69.425"/>
			
		</g>
		<g transform="translate(0,72.72222222222223)">
			<line fill="none" stroke="#212529" stroke-opacity="0.12" x1="0.195" y1="69.425" x2="613.195" y2="69.425"/>
			
		</g>
		<g transform="translate(0,43.83333333333334)">
			<line fill="none" stroke="#212529" stroke-opacity="0.12" x1="0.195" y1="69.425" x2="613.195" y2="69.425"/>
			
		</g>
		<g transform="translate(0,14.944444444444457)">
			<line fill="none" stroke="#212529" stroke-opacity="0.12" x1="0.195" y1="69.425" x2="613.195" y2="69.425"/>
			
		</g>
	</g>
	<g>
		<g transform="translate(0,130.5)">
			<line fill="none" stroke="#212529" stroke-opacity="0.12" x1="30.188" y1="184.943" x2="643.188" y2="184.943"/>
			
		</g>
		<g transform="translate(0,101.61111111111111)">
			<line fill="none" stroke="#212529" stroke-opacity="0.12" x1="30.188" y1="184.943" x2="643.188" y2="184.943"/>
			
		</g>
		<g transform="translate(0,72.72222222222223)">
			<line fill="none" stroke="#212529" stroke-opacity="0.12" x1="30.188" y1="184.943" x2="643.188" y2="184.943"/>
			
		</g>
		<g transform="translate(0,43.83333333333334)">
			<line fill="none" stroke="#212529" stroke-opacity="0.12" x1="30.188" y1="184.943" x2="643.188" y2="184.943"/>
			
		</g>
	</g>
	<g transform="translate(0,14.944444444444457)">
		<line fill="none" stroke="#212529" stroke-opacity="0.12" x1="30.188" y1="184.943" x2="643.188" y2="184.943"/>
	</g>
	<g>
		<g>
			<rect x="30.195" y="197.025" fill="#4731EF" width="2" height="2.9"/>
			<line fill="#4731EF" x1="34.195" y1="199.925" x2="32.195" y2="199.925"/>
			<polygon fill="#4731EF" points="36.195,191.225 34.195,191.225 34.195,199.925 36.195,199.925 36.195,194.126 			"/>
			<polygon fill="#4731EF" points="36.195,194.126 36.195,199.925 38.095,199.925 38.195,199.925 38.195,194.126 			"/>
			<line fill="#4731EF" x1="40.095" y1="199.925" x2="38.195" y2="199.925"/>
			<line fill="#4731EF" x1="38.095" y1="199.925" x2="38.195" y2="199.925"/>
			<rect x="40.095" y="197.025" fill="#4731EF" width="2" height="2.9"/>
			<polygon fill="#4731EF" points="44.095,162.325 42.095,162.325 42.095,197.025 42.095,199.925 44.095,199.925 44.095,194.126 			
				"/>
			<polygon fill="#4731EF" points="46.095,194.126 44.095,194.126 44.095,199.925 46.095,199.925 46.095,197.025 			"/>
			<rect x="46.095" y="197.025" fill="#4731EF" width="2" height="2.9"/>
			<polygon fill="#4731EF" points="48.095,176.825 48.095,197.025 48.095,199.925 49.995,199.925 49.995,176.825 			"/>
			<polygon fill="#4731EF" points="51.995,176.825 50.095,176.825 49.995,176.825 49.995,199.925 51.995,199.925 51.995,197.025 			
				"/>
			<rect x="51.995" y="197.025" fill="#4731EF" width="2" height="2.9"/>
			<polygon fill="#4731EF" points="55.995,165.225 53.995,165.225 53.995,197.025 53.995,199.925 55.995,199.925 55.995,197.025 			
				"/>
			<rect x="55.995" y="197.025" fill="#4731EF" width="2" height="2.9"/>
			<line fill="#4731EF" x1="59.995" y1="199.925" x2="57.995" y2="199.925"/>
			<polygon fill="#4731EF" points="59.995,194.126 59.995,199.925 61.895,199.925 61.995,199.925 61.995,194.126 			"/>
			<line fill="#4731EF" x1="63.895" y1="199.925" x2="61.995" y2="199.925"/>
			<line fill="#4731EF" x1="61.895" y1="199.925" x2="61.995" y2="199.925"/>
			<line fill="#4731EF" x1="65.895" y1="199.925" x2="63.895" y2="199.925"/>
			<line fill="#4731EF" x1="67.895" y1="199.925" x2="65.895" y2="199.925"/>
			<polygon fill="#4731EF" points="69.895,191.225 67.895,191.225 67.895,199.925 69.895,199.925 69.895,197.025 			"/>
			<rect x="69.895" y="197.025" fill="#4731EF" width="2" height="2.9"/>
			<line fill="#4731EF" x1="73.795" y1="199.925" x2="71.895" y2="199.925"/>
			<polygon fill="#4731EF" points="75.795,188.325 73.795,188.325 73.795,199.925 75.795,199.925 75.795,191.225 			"/>
			<polygon fill="#4731EF" points="77.795,191.225 75.795,191.225 75.795,199.925 77.795,199.925 77.795,194.126 			"/>
			<rect x="77.795" y="194.126" fill="#4731EF" width="2" height="5.8"/>
			<rect x="79.795" y="194.126" fill="#4731EF" width="2" height="5.8"/>
			<polygon fill="#4731EF" points="81.795,191.225 81.795,194.126 81.795,199.925 83.795,199.925 83.795,191.225 			"/>
			<polygon fill="#4731EF" points="85.795,194.126 85.795,191.225 83.795,191.225 83.795,199.925 85.695,199.925 85.695,194.126 			
				"/>
			<polygon fill="#4731EF" points="85.795,194.126 85.695,194.126 85.695,199.925 87.695,199.925 87.695,194.126 			"/>
			<line fill="#4731EF" x1="89.695" y1="199.925" x2="87.695" y2="199.925"/>
			<rect x="89.695" y="188.325" fill="#4731EF" width="2" height="11.6"/>
			<polygon fill="#4731EF" points="93.695,176.825 91.695,176.825 91.695,188.325 91.695,199.925 93.695,199.925 93.695,197.025 			
				"/>
			<rect x="93.695" y="197.025" fill="#4731EF" width="2" height="2.9"/>
			<line fill="#4731EF" x1="97.595" y1="199.925" x2="95.695" y2="199.925"/>
			<line fill="#4731EF" x1="99.595" y1="199.925" x2="97.595" y2="199.925"/>
			<line fill="#4731EF" x1="101.595" y1="199.925" x2="99.595" y2="199.925"/>
			<line fill="#4731EF" x1="103.595" y1="199.925" x2="101.595" y2="199.925"/>
			<line fill="#4731EF" x1="105.595" y1="199.925" x2="103.595" y2="199.925"/>
			<line fill="#4731EF" x1="107.595" y1="199.925" x2="105.595" y2="199.925"/>
			<rect x="107.595" y="194.126" fill="#4731EF" width="2" height="5.8"/>
			<line fill="#4731EF" x1="111.495" y1="199.925" x2="109.595" y2="199.925"/>
			<rect x="111.495" y="197.025" fill="#4731EF" width="2" height="2.9"/>
			<rect x="113.495" y="197.025" fill="#4731EF" width="2" height="2.9"/>
			<polygon fill="#4731EF" points="115.495,194.126 115.495,197.025 115.495,199.925 117.495,199.925 117.495,194.126 			"/>
			<line fill="#4731EF" x1="119.495" y1="199.925" x2="117.495" y2="199.925"/>
			<line fill="#4731EF" x1="121.495" y1="199.925" x2="119.495" y2="199.925"/>
			<polygon fill="#4731EF" points="123.495,197.025 123.495,188.325 121.495,188.325 121.495,199.925 123.395,199.925 
				123.395,197.025 			"/>
			<polygon fill="#4731EF" points="123.495,197.025 123.395,197.025 123.395,199.925 125.395,199.925 125.395,197.025 			"/>
			<polygon fill="#4731EF" points="127.395,139.225 125.395,139.225 125.395,197.025 125.395,199.925 127.395,199.925 
				127.395,182.626 			"/>
			<polygon fill="#4731EF" points="129.395,182.626 127.395,182.626 127.395,199.925 129.395,199.925 129.395,188.325 			"/>
			<rect x="129.395" y="188.325" fill="#4731EF" width="2" height="11.6"/>
			<polygon fill="#4731EF" points="133.395,182.626 131.395,182.626 131.395,188.325 131.395,199.925 133.395,199.925 
				133.395,197.025 			"/>
			<rect x="133.395" y="197.025" fill="#4731EF" width="1.9" height="2.9"/>
			<polygon fill="#4731EF" points="135.395,197.025 135.295,197.025 135.295,199.925 137.295,199.925 137.295,197.025 			"/>
			<rect x="137.295" y="197.025" fill="#4731EF" width="2" height="2.9"/>
			<polygon fill="#4731EF" points="139.295,176.825 139.295,197.025 139.295,199.925 141.295,199.925 141.295,176.825 			"/>
			<polygon fill="#4731EF" points="143.295,173.925 141.295,173.925 141.295,176.825 141.295,199.925 143.295,199.925 
				143.295,197.025 			"/>
			<rect x="143.295" y="197.025" fill="#4731EF" width="2" height="2.9"/>
			<line fill="#4731EF" x1="147.195" y1="199.925" x2="145.295" y2="199.925"/>
			<polygon fill="#4731EF" points="149.195,188.325 147.195,188.325 147.195,199.925 149.195,199.925 149.195,194.126 			"/>
			<polygon fill="#4731EF" points="151.195,194.126 149.195,194.126 149.195,199.925 151.195,199.925 151.195,197.025 			"/>
			<rect x="151.195" y="197.025" fill="#4731EF" width="2" height="2.9"/>
			<polygon fill="#4731EF" points="153.195,179.725 153.195,197.025 153.195,199.925 155.195,199.925 155.195,179.725 			"/>
			<polygon fill="#4731EF" points="157.195,168.126 155.195,168.126 155.195,179.725 155.195,199.925 157.195,199.925 
				157.195,194.126 			"/>
			<polygon fill="#4731EF" points="157.195,194.126 157.195,199.925 159.095,199.925 159.195,199.925 159.195,194.126 			"/>
			<line fill="#4731EF" x1="159.095" y1="199.925" x2="159.195" y2="199.925"/>
			<line fill="#4731EF" x1="161.095" y1="199.925" x2="159.195" y2="199.925"/>
			<polygon fill="#4731EF" points="163.095,176.825 161.095,176.825 161.095,199.925 163.095,199.925 163.095,197.025 			"/>
			<rect x="163.095" y="197.025" fill="#4731EF" width="2" height="2.9"/>
			<line fill="#4731EF" x1="167.095" y1="199.925" x2="165.095" y2="199.925"/>
			<rect x="167.095" y="188.325" fill="#4731EF" width="2" height="11.6"/>
			<line fill="#4731EF" x1="171.095" y1="199.925" x2="169.095" y2="199.925"/>
			<line fill="#4731EF" x1="172.995" y1="199.925" x2="171.095" y2="199.925"/>
			<line fill="#4731EF" x1="174.995" y1="199.925" x2="172.995" y2="199.925"/>
			<line fill="#4731EF" x1="176.995" y1="199.925" x2="174.995" y2="199.925"/>
			<line fill="#4731EF" x1="178.995" y1="199.925" x2="176.995" y2="199.925"/>
			<rect x="178.995" y="197.025" fill="#4731EF" width="2" height="2.9"/>
			<rect x="180.995" y="197.025" fill="#4731EF" width="2" height="2.9"/>
			<polygon fill="#4731EF" points="182.995,191.225 182.995,197.025 182.995,199.925 184.895,199.925 184.995,199.925 
				184.995,191.225 			"/>
			<line fill="#4731EF" x1="186.895" y1="199.925" x2="184.995" y2="199.925"/>
			<line fill="#4731EF" x1="184.995" y1="199.925" x2="184.895" y2="199.925"/>
			<line fill="#4731EF" x1="188.895" y1="199.925" x2="186.895" y2="199.925"/>
			<rect x="188.895" y="197.025" fill="#4731EF" width="2" height="2.9"/>
			<line fill="#4731EF" x1="192.895" y1="199.925" x2="190.895" y2="199.925"/>
			<line fill="#4731EF" x1="194.895" y1="199.925" x2="192.895" y2="199.925"/>
			<polygon fill="#4731EF" points="194.895,173.925 194.895,199.925 196.795,199.925 196.895,199.925 196.895,173.925 			"/>
			<line fill="#4731EF" x1="196.795" y1="199.925" x2="196.895" y2="199.925"/>
			<line fill="#4731EF" x1="198.795" y1="199.925" x2="196.895" y2="199.925"/>
			<rect x="198.795" y="191.225" fill="#4731EF" width="2" height="8.7"/>
			<line fill="#4731EF" x1="202.795" y1="199.925" x2="200.795" y2="199.925"/>
			<line fill="#4731EF" x1="204.795" y1="199.925" x2="202.795" y2="199.925"/>
			<line fill="#4731EF" x1="206.795" y1="199.925" x2="204.795" y2="199.925"/>
			<line fill="#4731EF" x1="208.695" y1="199.925" x2="206.795" y2="199.925"/>
			<line fill="#4731EF" x1="210.695" y1="199.925" x2="208.695" y2="199.925"/>
			<line fill="#4731EF" x1="212.695" y1="199.925" x2="210.695" y2="199.925"/>
			<line fill="#4731EF" x1="214.695" y1="199.925" x2="212.695" y2="199.925"/>
			<line fill="#4731EF" x1="216.695" y1="199.925" x2="214.695" y2="199.925"/>
			<line fill="#4731EF" x1="218.695" y1="199.925" x2="216.695" y2="199.925"/>
			<line fill="#4731EF" x1="220.595" y1="199.925" x2="218.695" y2="199.925"/>
			<rect x="220.595" y="191.225" fill="#4731EF" width="2" height="8.7"/>
			<line fill="#4731EF" x1="224.595" y1="199.925" x2="222.595" y2="199.925"/>
			<line fill="#4731EF" x1="226.595" y1="199.925" x2="224.595" y2="199.925"/>
			<line fill="#4731EF" x1="228.595" y1="199.925" x2="226.595" y2="199.925"/>
			<line fill="#4731EF" x1="230.595" y1="199.925" x2="228.595" y2="199.925"/>
			<line fill="#4731EF" x1="232.495" y1="199.925" x2="230.595" y2="199.925"/>
			<line fill="#4731EF" x1="234.495" y1="199.925" x2="232.495" y2="199.925"/>
			<line fill="#4731EF" x1="236.495" y1="199.925" x2="234.495" y2="199.925"/>
			<line fill="#4731EF" x1="238.495" y1="199.925" x2="236.495" y2="199.925"/>
			<line fill="#4731EF" x1="240.495" y1="199.925" x2="238.495" y2="199.925"/>
			<line fill="#4731EF" x1="242.495" y1="199.925" x2="240.495" y2="199.925"/>
			<line fill="#4731EF" x1="244.495" y1="199.925" x2="242.495" y2="199.925"/>
			<line fill="#4731EF" x1="246.395" y1="199.925" x2="244.495" y2="199.925"/>
			<polygon fill="#4731EF" points="248.395,191.225 246.395,191.225 246.395,199.925 248.395,199.925 248.395,194.126 			"/>
			<rect x="248.395" y="194.126" fill="#4731EF" width="2" height="5.8"/>
			<line fill="#4731EF" x1="252.395" y1="199.925" x2="250.395" y2="199.925"/>
			<line fill="#4731EF" x1="254.395" y1="199.925" x2="252.395" y2="199.925"/>
			<rect x="254.395" y="179.725" fill="#4731EF" width="2" height="20.2"/>
			<line fill="#4731EF" x1="258.295" y1="199.925" x2="256.395" y2="199.925"/>
			<line fill="#4731EF" x1="260.295" y1="199.925" x2="258.295" y2="199.925"/>
			<line fill="#4731EF" x1="262.295" y1="199.925" x2="260.295" y2="199.925"/>
			<line fill="#4731EF" x1="264.295" y1="199.925" x2="262.295" y2="199.925"/>
			<polygon fill="#4731EF" points="266.295,185.525 264.295,185.525 264.295,199.925 266.295,199.925 266.295,197.025 			"/>
			<rect x="266.295" y="197.025" fill="#4731EF" width="2" height="2.9"/>
			<line fill="#4731EF" x1="270.195" y1="199.925" x2="268.295" y2="199.925"/>
			<rect x="270.195" y="197.025" fill="#4731EF" width="2" height="2.9"/>
			<polygon fill="#4731EF" points="272.195,191.225 272.195,197.025 272.195,199.925 274.195,199.925 274.195,191.225 			"/>
			<line fill="#4731EF" x1="276.195" y1="199.925" x2="274.195" y2="199.925"/>
			<rect x="276.195" y="191.225" fill="#4731EF" width="2" height="8.7"/>
			<line fill="#4731EF" x1="280.195" y1="199.925" x2="278.195" y2="199.925"/>
			<polygon fill="#4731EF" points="282.195,194.126 282.195,191.225 280.195,191.225 280.195,199.925 282.095,199.925 
				282.095,194.126 			"/>
			<polygon fill="#4731EF" points="284.095,194.126 282.195,194.126 282.095,194.126 282.095,199.925 284.095,199.925 
				284.095,197.025 			"/>
			<rect x="284.095" y="197.025" fill="#4731EF" width="2" height="2.9"/>
			<rect x="286.095" y="197.025" fill="#4731EF" width="2" height="2.9"/>
			<line fill="#4731EF" x1="290.095" y1="199.925" x2="288.095" y2="199.925"/>
			<rect x="290.095" y="194.126" fill="#4731EF" width="2" height="5.8"/>
			<line fill="#4731EF" x1="293.995" y1="199.925" x2="292.095" y2="199.925"/>
			<line fill="#4731EF" x1="295.995" y1="199.925" x2="293.995" y2="199.925"/>
			<line fill="#4731EF" x1="297.995" y1="199.925" x2="295.995" y2="199.925"/>
			<rect x="297.995" y="194.126" fill="#4731EF" width="2" height="5.8"/>
			<line fill="#4731EF" x1="301.995" y1="199.925" x2="299.995" y2="199.925"/>
			<line fill="#4731EF" x1="303.995" y1="199.925" x2="301.995" y2="199.925"/>
			<line fill="#4731EF" x1="305.995" y1="199.925" x2="303.995" y2="199.925"/>
			<polygon fill="#4731EF" points="305.995,197.025 305.995,199.925 307.895,199.925 307.995,199.925 307.995,197.025 			"/>
			<line fill="#4731EF" x1="309.895" y1="199.925" x2="307.995" y2="199.925"/>
			<line fill="#4731EF" x1="307.895" y1="199.925" x2="307.995" y2="199.925"/>
			<polygon fill="#4731EF" points="311.895,188.325 309.895,188.325 309.895,199.925 311.895,199.925 311.895,194.126 			"/>
			<rect x="311.895" y="194.126" fill="#4731EF" width="2" height="5.8"/>
			<line fill="#4731EF" x1="315.895" y1="199.925" x2="313.895" y2="199.925"/>
			<rect x="315.895" y="194.126" fill="#4731EF" width="2" height="5.8"/>
			<polygon fill="#4731EF" points="317.895,162.325 317.895,194.126 317.895,199.925 319.795,199.925 319.795,162.325 			"/>
			<polygon fill="#4731EF" points="321.795,142.126 319.795,142.126 319.795,162.325 319.795,199.925 321.795,199.925 
				321.795,191.225 			"/>
			<rect x="321.795" y="191.225" fill="#4731EF" width="2" height="8.7"/>
			<polygon fill="#4731EF" points="325.795,153.725 323.795,153.725 323.795,191.225 323.795,199.925 325.795,199.925 
				325.795,191.225 			"/>
			<polygon fill="#4731EF" points="327.795,191.225 325.795,191.225 325.795,199.925 327.795,199.925 327.795,194.126 			"/>
			<rect x="327.795" y="194.126" fill="#4731EF" width="2" height="5.8"/>
			<line fill="#4731EF" x1="331.695" y1="199.925" x2="329.795" y2="199.925"/>
			<rect x="331.695" y="197.025" fill="#4731EF" width="2" height="2.9"/>
			<polygon fill="#4731EF" points="333.695,194.126 333.695,197.025 333.695,199.925 335.695,199.925 335.695,194.126 			"/>
			<line fill="#4731EF" x1="337.695" y1="199.925" x2="335.695" y2="199.925"/>
			<rect x="337.695" y="194.126" fill="#4731EF" width="2" height="5.8"/>
			<line fill="#4731EF" x1="341.695" y1="199.925" x2="339.695" y2="199.925"/>
			<line fill="#4731EF" x1="343.595" y1="199.925" x2="341.695" y2="199.925"/>
			<line fill="#4731EF" x1="345.595" y1="199.925" x2="343.595" y2="199.925"/>
			<line fill="#4731EF" x1="347.595" y1="199.925" x2="345.595" y2="199.925"/>
			<polygon fill="#4731EF" points="349.595,176.825 347.595,176.825 347.595,199.925 349.595,199.925 349.595,185.525 			"/>
			<polygon fill="#4731EF" points="351.595,185.525 349.595,185.525 349.595,199.925 351.595,199.925 351.595,194.126 			"/>
			<rect x="351.595" y="194.126" fill="#4731EF" width="2" height="5.8"/>
			<polygon fill="#4731EF" points="355.595,162.325 355.595,153.725 353.595,153.725 353.595,194.126 353.595,199.925 
				355.495,199.925 355.495,162.325 			"/>
			<polygon fill="#4731EF" points="357.495,162.325 355.595,162.325 355.495,162.325 355.495,199.925 357.495,199.925 
				357.495,194.126 			"/>
			<rect x="357.495" y="194.126" fill="#4731EF" width="2" height="5.8"/>
			<rect x="359.495" y="194.126" fill="#4731EF" width="2" height="5.8"/>
			<rect x="361.495" y="194.126" fill="#4731EF" width="2" height="5.8"/>
			<line fill="#4731EF" x1="365.495" y1="199.925" x2="363.495" y2="199.925"/>
			<polygon fill="#4731EF" points="365.495,194.126 365.495,199.925 367.395,199.925 367.495,199.925 367.495,194.126 			"/>
			<line fill="#4731EF" x1="367.395" y1="199.925" x2="367.495" y2="199.925"/>
			<line fill="#4731EF" x1="369.395" y1="199.925" x2="367.495" y2="199.925"/>
			<line fill="#4731EF" x1="371.395" y1="199.925" x2="369.395" y2="199.925"/>
			<line fill="#4731EF" x1="373.395" y1="199.925" x2="371.395" y2="199.925"/>
			<polygon fill="#4731EF" points="375.395,153.725 373.395,153.725 373.395,199.925 375.395,199.925 375.395,182.626 			"/>
			<rect x="375.395" y="182.626" fill="#4731EF" width="2" height="17.3"/>
			<line fill="#4731EF" x1="379.395" y1="199.925" x2="377.395" y2="199.925"/>
			<rect x="379.395" y="197.025" fill="#4731EF" width="1.9" height="2.9"/>
			<polygon fill="#4731EF" points="381.295,194.126 381.295,197.025 381.295,199.925 383.295,199.925 383.295,194.126 			"/>
			<rect x="383.295" y="194.126" fill="#4731EF" width="2" height="5.8"/>
			<polygon fill="#4731EF" points="385.295,185.525 385.295,194.126 385.295,199.925 387.295,199.925 387.295,185.525 			"/>
			<line fill="#4731EF" x1="389.295" y1="199.925" x2="387.295" y2="199.925"/>
			<rect x="389.295" y="197.025" fill="#4731EF" width="2" height="2.9"/>
			<polygon fill="#4731EF" points="391.295,176.825 391.295,197.025 391.295,199.925 393.195,199.925 393.295,199.925 
				393.295,176.825 			"/>
			<line fill="#4731EF" x1="395.195" y1="199.925" x2="393.295" y2="199.925"/>
			<line fill="#4731EF" x1="393.195" y1="199.925" x2="393.295" y2="199.925"/>
			<rect x="395.195" y="194.126" fill="#4731EF" width="2" height="5.8"/>
			<line fill="#4731EF" x1="399.195" y1="199.925" x2="397.195" y2="199.925"/>
			<line fill="#4731EF" x1="401.195" y1="199.925" x2="399.195" y2="199.925"/>
			<rect x="401.195" y="168.126" fill="#4731EF" width="2" height="31.8"/>
			<line fill="#4731EF" x1="405.095" y1="199.925" x2="403.195" y2="199.925"/>
			<line fill="#4731EF" x1="407.095" y1="199.925" x2="405.095" y2="199.925"/>
			<line fill="#4731EF" x1="409.095" y1="199.925" x2="407.095" y2="199.925"/>
			<rect x="409.095" y="197.025" fill="#4731EF" width="2" height="2.9"/>
			<polygon fill="#4731EF" points="411.095,171.025 411.095,197.025 411.095,199.925 413.095,199.925 413.095,171.025 			"/>
			<line fill="#4731EF" x1="415.095" y1="199.925" x2="413.095" y2="199.925"/>
			<line fill="#4731EF" x1="416.995" y1="199.925" x2="415.095" y2="199.925"/>
			<line fill="#4731EF" x1="418.995" y1="199.925" x2="416.995" y2="199.925"/>
			<line fill="#4731EF" x1="420.995" y1="199.925" x2="418.995" y2="199.925"/>
			<line fill="#4731EF" x1="422.995" y1="199.925" x2="420.995" y2="199.925"/>
			<rect x="422.995" y="191.225" fill="#4731EF" width="2" height="8.7"/>
			<line fill="#4731EF" x1="426.995" y1="199.925" x2="424.995" y2="199.925"/>
			<polygon fill="#4731EF" points="426.995,176.825 426.995,199.925 428.895,199.925 428.995,199.925 428.995,176.825 			"/>
			<line fill="#4731EF" x1="430.895" y1="199.925" x2="428.995" y2="199.925"/>
			<line fill="#4731EF" x1="428.895" y1="199.925" x2="428.995" y2="199.925"/>
			<polygon fill="#4731EF" points="432.895,179.725 430.895,179.725 430.895,199.925 432.895,199.925 432.895,188.325 			"/>
			<rect x="432.895" y="188.325" fill="#4731EF" width="2" height="11.6"/>
			<line fill="#4731EF" x1="436.895" y1="199.925" x2="434.895" y2="199.925"/>
			<rect x="436.895" y="197.025" fill="#4731EF" width="2" height="2.9"/>
			<line fill="#4731EF" x1="440.895" y1="199.925" x2="438.895" y2="199.925"/>
			<line fill="#4731EF" x1="442.795" y1="199.925" x2="440.895" y2="199.925"/>
			<line fill="#4731EF" x1="444.795" y1="199.925" x2="442.795" y2="199.925"/>
			<line fill="#4731EF" x1="446.795" y1="199.925" x2="444.795" y2="199.925"/>
			<line fill="#4731EF" x1="448.795" y1="199.925" x2="446.795" y2="199.925"/>
			<rect x="448.795" y="194.126" fill="#4731EF" width="2" height="5.8"/>
			<polygon fill="#4731EF" points="452.795,145.025 450.795,145.025 450.795,194.126 450.795,199.925 452.795,199.925 
				452.795,168.126 			"/>
			<polygon fill="#4731EF" points="452.795,168.126 452.795,199.925 454.695,199.925 454.795,199.925 454.795,168.126 			"/>
			<line fill="#4731EF" x1="456.695" y1="199.925" x2="454.795" y2="199.925"/>
			<line fill="#4731EF" x1="454.695" y1="199.925" x2="454.795" y2="199.925"/>
			<rect x="456.695" y="185.525" fill="#4731EF" width="2" height="14.4"/>
			<polygon fill="#4731EF" points="460.695,176.825 458.695,176.825 458.695,185.525 458.695,199.925 460.695,199.925 
				460.695,194.126 			"/>
			<rect x="460.695" y="194.126" fill="#4731EF" width="2" height="5.8"/>
			<line fill="#4731EF" x1="464.695" y1="199.925" x2="462.695" y2="199.925"/>
			<polygon fill="#4731EF" points="464.695,191.225 464.695,199.925 466.595,199.925 466.695,199.925 466.695,191.225 			"/>
			<line fill="#4731EF" x1="468.595" y1="199.925" x2="466.695" y2="199.925"/>
			<line fill="#4731EF" x1="466.595" y1="199.925" x2="466.695" y2="199.925"/>
			<line fill="#4731EF" x1="470.595" y1="199.925" x2="468.595" y2="199.925"/>
			<line fill="#4731EF" x1="472.595" y1="199.925" x2="470.595" y2="199.925"/>
			<rect x="472.595" y="197.025" fill="#4731EF" width="2" height="2.9"/>
			<line fill="#4731EF" x1="476.595" y1="199.925" x2="474.595" y2="199.925"/>
			<polygon fill="#4731EF" points="478.595,197.025 478.595,194.126 476.595,194.126 476.595,199.925 478.495,199.925 
				478.495,197.025 			"/>
			<polygon fill="#4731EF" points="478.595,197.025 478.495,197.025 478.495,199.925 480.495,199.925 480.495,197.025 			"/>
			<line fill="#4731EF" x1="482.495" y1="199.925" x2="480.495" y2="199.925"/>
			<rect x="482.495" y="182.626" fill="#4731EF" width="2" height="17.3"/>
			<line fill="#4731EF" x1="486.495" y1="199.925" x2="484.495" y2="199.925"/>
			<rect x="486.495" y="107.525" fill="#4731EF" width="2" height="92.4"/>
			<polygon fill="#4731EF" points="490.495,197.025 490.495,78.626 488.495,78.626 488.495,107.525 488.495,199.925 
				490.395,199.925 490.395,197.025 			"/>
			<polygon fill="#4731EF" points="490.495,197.025 490.395,197.025 490.395,199.925 492.395,199.925 492.395,197.025 			"/>
			<polygon fill="#4731EF" points="492.395,182.626 492.395,197.025 492.395,199.925 494.395,199.925 494.395,182.626 			"/>
			<line fill="#4731EF" x1="496.395" y1="199.925" x2="494.395" y2="199.925"/>
			<line fill="#4731EF" x1="498.395" y1="199.925" x2="496.395" y2="199.925"/>
			<line fill="#4731EF" x1="500.395" y1="199.925" x2="498.395" y2="199.925"/>
			<line fill="#4731EF" x1="502.295" y1="199.925" x2="500.395" y2="199.925"/>
			<line fill="#4731EF" x1="504.295" y1="199.925" x2="502.295" y2="199.925"/>
			<rect x="504.295" y="197.025" fill="#4731EF" width="2" height="2.9"/>
			<polygon fill="#4731EF" points="506.295,194.126 506.295,197.025 506.295,199.925 508.295,199.925 508.295,194.126 			"/>
			<line fill="#4731EF" x1="510.295" y1="199.925" x2="508.295" y2="199.925"/>
			<line fill="#4731EF" x1="512.295" y1="199.925" x2="510.295" y2="199.925"/>
			<line fill="#4731EF" x1="514.295" y1="199.925" x2="512.295" y2="199.925"/>
			<line fill="#4731EF" x1="516.195" y1="199.925" x2="514.295" y2="199.925"/>
			<line fill="#4731EF" x1="518.195" y1="199.925" x2="516.195" y2="199.925"/>
			<line fill="#4731EF" x1="520.195" y1="199.925" x2="518.195" y2="199.925"/>
			<polygon fill="#4731EF" points="522.195,179.725 520.195,179.725 520.195,199.925 522.195,199.925 522.195,185.525 			"/>
			<rect x="522.195" y="185.525" fill="#4731EF" width="2" height="14.4"/>
			<line fill="#4731EF" x1="526.195" y1="199.925" x2="524.195" y2="199.925"/>
			<line fill="#4731EF" x1="528.095" y1="199.925" x2="526.195" y2="199.925"/>
			<rect x="528.095" y="197.025" fill="#4731EF" width="2" height="2.9"/>
			<line fill="#4731EF" x1="532.095" y1="199.925" x2="530.095" y2="199.925"/>
			<rect x="532.095" y="147.925" fill="#4731EF" width="2" height="52"/>
			<line fill="#4731EF" x1="536.095" y1="199.925" x2="534.095" y2="199.925"/>
			<polygon fill="#4731EF" points="538.095,173.925 536.095,173.925 536.095,199.925 538.095,199.925 538.095,197.025 			"/>
			<rect x="538.095" y="197.025" fill="#4731EF" width="1.9" height="2.9"/>
			<polygon fill="#4731EF" points="539.995,191.225 539.995,197.025 539.995,199.925 541.995,199.925 541.995,191.225 			"/>
			<polygon fill="#4731EF" points="543.995,185.525 541.995,185.525 541.995,191.225 541.995,199.925 543.995,199.925 
				543.995,191.225 			"/>
			<rect x="543.995" y="191.225" fill="#4731EF" width="2" height="8.7"/>
			<polygon fill="#4731EF" points="547.995,182.626 545.995,182.626 545.995,191.225 545.995,199.925 547.995,199.925 
				547.995,197.025 			"/>
			<rect x="547.995" y="197.025" fill="#4731EF" width="2" height="2.9"/>
			<line fill="#4731EF" x1="551.895" y1="199.925" x2="549.995" y2="199.925"/>
			<line fill="#4731EF" x1="553.895" y1="199.925" x2="551.895" y2="199.925"/>
			<rect x="553.895" y="194.126" fill="#4731EF" width="2" height="5.8"/>
			<line fill="#4731EF" x1="557.895" y1="199.925" x2="555.895" y2="199.925"/>
			<polygon fill="#4731EF" points="559.895,182.626 557.895,182.626 557.895,199.925 559.895,199.925 559.895,194.126 			"/>
			<rect x="559.895" y="194.126" fill="#4731EF" width="2" height="5.8"/>
			<line fill="#4731EF" x1="563.795" y1="199.925" x2="561.895" y2="199.925"/>
			<line fill="#4731EF" x1="565.795" y1="199.925" x2="563.795" y2="199.925"/>
			<line fill="#4731EF" x1="567.795" y1="199.925" x2="565.795" y2="199.925"/>
			<line fill="#4731EF" x1="569.795" y1="199.925" x2="567.795" y2="199.925"/>
			<line fill="#4731EF" x1="571.795" y1="199.925" x2="569.795" y2="199.925"/>
			<line fill="#4731EF" x1="573.795" y1="199.925" x2="571.795" y2="199.925"/>
			<rect x="573.795" y="197.025" fill="#4731EF" width="2" height="2.9"/>
			<line fill="#4731EF" x1="577.695" y1="199.925" x2="575.795" y2="199.925"/>
			<line fill="#4731EF" x1="579.695" y1="199.925" x2="577.695" y2="199.925"/>
			<rect x="579.695" y="197.025" fill="#4731EF" width="2" height="2.9"/>
			<line fill="#4731EF" x1="583.695" y1="199.925" x2="581.695" y2="199.925"/>
			<line fill="#4731EF" x1="585.695" y1="199.925" x2="583.695" y2="199.925"/>
			<line fill="#4731EF" x1="587.695" y1="199.925" x2="585.695" y2="199.925"/>
			<line fill="#4731EF" x1="589.595" y1="199.925" x2="587.695" y2="199.925"/>
			<line fill="#4731EF" x1="591.595" y1="199.925" x2="589.595" y2="199.925"/>
			<rect x="591.595" y="194.126" fill="#4731EF" width="2" height="5.8"/>
			<polygon fill="#4731EF" points="595.595,194.126 593.595,194.126 593.595,199.925 595.595,199.925 595.595,197.025 			"/>
			<rect x="595.595" y="197.025" fill="#4731EF" width="2" height="2.9"/>
			<rect x="597.595" y="197.025" fill="#4731EF" width="2" height="2.9"/>
			<line fill="#4731EF" x1="601.495" y1="199.925" x2="599.595" y2="199.925"/>
			<line fill="#4731EF" x1="603.495" y1="199.925" x2="601.495" y2="199.925"/>
			<line fill="#4731EF" x1="605.495" y1="199.925" x2="603.495" y2="199.925"/>
			<line fill="#4731EF" x1="607.495" y1="199.925" x2="605.495" y2="199.925"/>
			<rect x="607.495" y="197.025" fill="#4731EF" width="2" height="2.9"/>
			<line fill="#4731EF" x1="611.495" y1="199.925" x2="609.495" y2="199.925"/>
			<rect x="611.495" y="197.025" fill="#4731EF" width="1.9" height="2.9"/>
			<polygon fill="#4731EF" points="615.395,188.325 613.395,188.325 613.395,197.025 613.395,199.925 615.395,199.925 
				615.395,197.025 			"/>
			<rect x="615.395" y="197.025" fill="#4731EF" width="2" height="2.9"/>
			<rect x="617.395" y="197.025" fill="#4731EF" width="2" height="2.9"/>
			<line fill="#4731EF" x1="621.395" y1="199.925" x2="619.395" y2="199.925"/>
			<line fill="#4731EF" x1="623.395" y1="199.925" x2="621.395" y2="199.925"/>
			<polygon fill="#4731EF" points="625.395,194.126 625.395,185.525 623.395,185.525 623.395,199.925 625.295,199.925 
				625.295,194.126 			"/>
			<polygon fill="#4731EF" points="625.395,194.126 625.295,194.126 625.295,199.925 627.295,199.925 627.295,194.126 			"/>
			<polygon fill="#4731EF" points="629.295,194.126 627.295,194.126 627.295,199.925 629.295,199.925 629.295,197.025 			"/>
			<rect x="629.295" y="197.025" fill="#4731EF" width="2" height="2.9"/>
			<line fill="#4731EF" x1="633.295" y1="199.925" x2="631.295" y2="199.925"/>
			<line fill="#4731EF" x1="635.295" y1="199.925" x2="633.295" y2="199.925"/>
			<rect x="635.295" y="197.025" fill="#4731EF" width="1.9" height="2.9"/>
			<polygon fill="#4731EF" points="637.195,194.126 637.195,197.025 637.195,199.925 639.195,199.925 639.195,194.126 			"/>
			<line fill="#4731EF" x1="641.195" y1="199.925" x2="639.195" y2="199.925"/>
			<rect x="641.195" y="191.225" fill="#4731EF" width="2" height="8.7"/>
		</g>
		<g>
			<rect x="30.195" y="197.025" fill="#4731EF" width="2" height="2.9"/>
			
				<line fill="none" stroke="#000000" stroke-width="0" stroke-linecap="round" stroke-linejoin="round" x1="34.195" y1="199.925" x2="32.195" y2="199.925"/>
			<polygon fill="#4731EF" points="36.195,191.225 34.195,191.225 34.195,199.925 36.195,199.925 36.195,194.126 			"/>
			<polygon fill="#4731EF" points="36.195,194.126 36.195,199.925 38.095,199.925 38.195,199.925 38.195,194.126 			"/>
			
				<line fill="none" stroke="#000000" stroke-width="0" stroke-linecap="round" stroke-linejoin="round" x1="40.095" y1="199.925" x2="38.195" y2="199.925"/>
			
				<line fill="none" stroke="#000000" stroke-width="0" stroke-linecap="round" stroke-linejoin="round" x1="38.095" y1="199.925" x2="38.195" y2="199.925"/>
			<rect x="40.095" y="197.025" fill="#4731EF" width="2" height="2.9"/>
			<polygon fill="#4731EF" points="44.095,162.325 42.095,162.325 42.095,197.025 42.095,199.925 44.095,199.925 44.095,194.126 			
				"/>
			<polygon fill="#4731EF" points="46.095,194.126 44.095,194.126 44.095,199.925 46.095,199.925 46.095,197.025 			"/>
			<rect x="46.095" y="197.025" fill="#4731EF" width="2" height="2.9"/>
			<polygon fill="#4731EF" points="48.095,176.825 48.095,197.025 48.095,199.925 49.995,199.925 49.995,176.825 			"/>
			<polygon fill="#4731EF" points="51.995,176.825 50.095,176.825 49.995,176.825 49.995,199.925 51.995,199.925 51.995,197.025 			
				"/>
			<rect x="51.995" y="197.025" fill="#4731EF" width="2" height="2.9"/>
			<polygon fill="#4731EF" points="55.995,165.225 53.995,165.225 53.995,197.025 53.995,199.925 55.995,199.925 55.995,197.025 			
				"/>
			<rect x="55.995" y="197.025" fill="#4731EF" width="2" height="2.9"/>
			
				<line fill="none" stroke="#000000" stroke-width="0" stroke-linecap="round" stroke-linejoin="round" x1="59.995" y1="199.925" x2="57.995" y2="199.925"/>
			<polygon fill="#4731EF" points="59.995,194.126 59.995,199.925 61.895,199.925 61.995,199.925 61.995,194.126 			"/>
			
				<line fill="none" stroke="#000000" stroke-width="0" stroke-linecap="round" stroke-linejoin="round" x1="63.895" y1="199.925" x2="61.995" y2="199.925"/>
			
				<line fill="none" stroke="#000000" stroke-width="0" stroke-linecap="round" stroke-linejoin="round" x1="61.895" y1="199.925" x2="61.995" y2="199.925"/>
			
				<line fill="none" stroke="#000000" stroke-width="0" stroke-linecap="round" stroke-linejoin="round" x1="65.895" y1="199.925" x2="63.895" y2="199.925"/>
			
				<line fill="none" stroke="#000000" stroke-width="0" stroke-linecap="round" stroke-linejoin="round" x1="67.895" y1="199.925" x2="65.895" y2="199.925"/>
			<polygon fill="#4731EF" points="69.895,191.225 67.895,191.225 67.895,199.925 69.895,199.925 69.895,197.025 			"/>
			<rect x="69.895" y="197.025" fill="#4731EF" width="2" height="2.9"/>
			
				<line fill="none" stroke="#000000" stroke-width="0" stroke-linecap="round" stroke-linejoin="round" x1="73.795" y1="199.925" x2="71.895" y2="199.925"/>
			<polygon fill="#4731EF" points="75.795,188.325 73.795,188.325 73.795,199.925 75.795,199.925 75.795,191.225 			"/>
			<polygon fill="#4731EF" points="77.795,191.225 75.795,191.225 75.795,199.925 77.795,199.925 77.795,194.126 			"/>
			<rect x="77.795" y="194.126" fill="#4731EF" width="2" height="5.8"/>
			<rect x="79.795" y="194.126" fill="#4731EF" width="2" height="5.8"/>
			<polygon fill="#4731EF" points="81.795,191.225 81.795,194.126 81.795,199.925 83.795,199.925 83.795,191.225 			"/>
			<polygon fill="#4731EF" points="85.795,194.126 85.795,191.225 83.795,191.225 83.795,199.925 85.695,199.925 85.695,194.126 			
				"/>
			<polygon fill="#4731EF" points="85.795,194.126 85.695,194.126 85.695,199.925 87.695,199.925 87.695,194.126 			"/>
			
				<line fill="none" stroke="#000000" stroke-width="0" stroke-linecap="round" stroke-linejoin="round" x1="89.695" y1="199.925" x2="87.695" y2="199.925"/>
			<rect x="89.695" y="188.325" fill="#4731EF" width="2" height="11.6"/>
			<polygon fill="#4731EF" points="93.695,176.825 91.695,176.825 91.695,188.325 91.695,199.925 93.695,199.925 93.695,197.025 			
				"/>
			<rect x="93.695" y="197.025" fill="#4731EF" width="2" height="2.9"/>
			
				<line fill="none" stroke="#000000" stroke-width="0" stroke-linecap="round" stroke-linejoin="round" x1="97.595" y1="199.925" x2="95.695" y2="199.925"/>
			
				<line fill="none" stroke="#000000" stroke-width="0" stroke-linecap="round" stroke-linejoin="round" x1="99.595" y1="199.925" x2="97.595" y2="199.925"/>
			
				<line fill="none" stroke="#000000" stroke-width="0" stroke-linecap="round" stroke-linejoin="round" x1="101.595" y1="199.925" x2="99.595" y2="199.925"/>
			
				<line fill="none" stroke="#000000" stroke-width="0" stroke-linecap="round" stroke-linejoin="round" x1="103.595" y1="199.925" x2="101.595" y2="199.925"/>
			
				<line fill="none" stroke="#000000" stroke-width="0" stroke-linecap="round" stroke-linejoin="round" x1="105.595" y1="199.925" x2="103.595" y2="199.925"/>
			
				<line fill="none" stroke="#000000" stroke-width="0" stroke-linecap="round" stroke-linejoin="round" x1="107.595" y1="199.925" x2="105.595" y2="199.925"/>
			<rect x="107.595" y="194.126" fill="#4731EF" width="2" height="5.8"/>
			
				<line fill="none" stroke="#000000" stroke-width="0" stroke-linecap="round" stroke-linejoin="round" x1="111.495" y1="199.925" x2="109.595" y2="199.925"/>
			<rect x="111.495" y="197.025" fill="#4731EF" width="2" height="2.9"/>
			<rect x="113.495" y="197.025" fill="#4731EF" width="2" height="2.9"/>
			<polygon fill="#4731EF" points="115.495,194.126 115.495,197.025 115.495,199.925 117.495,199.925 117.495,194.126 			"/>
			
				<line fill="none" stroke="#000000" stroke-width="0" stroke-linecap="round" stroke-linejoin="round" x1="119.495" y1="199.925" x2="117.495" y2="199.925"/>
			
				<line fill="none" stroke="#000000" stroke-width="0" stroke-linecap="round" stroke-linejoin="round" x1="121.495" y1="199.925" x2="119.495" y2="199.925"/>
			<polygon fill="#4731EF" points="123.495,197.025 123.495,188.325 121.495,188.325 121.495,199.925 123.395,199.925 
				123.395,197.025 			"/>
			<polygon fill="#4731EF" points="123.495,197.025 123.395,197.025 123.395,199.925 125.395,199.925 125.395,197.025 			"/>
			<polygon fill="#4731EF" points="127.395,139.225 125.395,139.225 125.395,197.025 125.395,199.925 127.395,199.925 
				127.395,182.626 			"/>
			<polygon fill="#4731EF" points="129.395,182.626 127.395,182.626 127.395,199.925 129.395,199.925 129.395,188.325 			"/>
			<rect x="129.395" y="188.325" fill="#4731EF" width="2" height="11.6"/>
			<polygon fill="#4731EF" points="133.395,182.626 131.395,182.626 131.395,188.325 131.395,199.925 133.395,199.925 
				133.395,197.025 			"/>
			<rect x="133.395" y="197.025" fill="#4731EF" width="1.9" height="2.9"/>
			<polygon fill="#4731EF" points="135.395,197.025 135.295,197.025 135.295,199.925 137.295,199.925 137.295,197.025 			"/>
			<rect x="137.295" y="197.025" fill="#4731EF" width="2" height="2.9"/>
			<polygon fill="#4731EF" points="139.295,176.825 139.295,197.025 139.295,199.925 141.295,199.925 141.295,176.825 			"/>
			<polygon fill="#4731EF" points="143.295,173.925 141.295,173.925 141.295,176.825 141.295,199.925 143.295,199.925 
				143.295,197.025 			"/>
			<rect x="143.295" y="197.025" fill="#4731EF" width="2" height="2.9"/>
			
				<line fill="none" stroke="#000000" stroke-width="0" stroke-linecap="round" stroke-linejoin="round" x1="147.195" y1="199.925" x2="145.295" y2="199.925"/>
			<polygon fill="#4731EF" points="149.195,188.325 147.195,188.325 147.195,199.925 149.195,199.925 149.195,194.126 			"/>
			<polygon fill="#4731EF" points="151.195,194.126 149.195,194.126 149.195,199.925 151.195,199.925 151.195,197.025 			"/>
			<rect x="151.195" y="197.025" fill="#4731EF" width="2" height="2.9"/>
			<polygon fill="#4731EF" points="153.195,179.725 153.195,197.025 153.195,199.925 155.195,199.925 155.195,179.725 			"/>
			<polygon fill="#4731EF" points="157.195,168.126 155.195,168.126 155.195,179.725 155.195,199.925 157.195,199.925 
				157.195,194.126 			"/>
			<polygon fill="#4731EF" points="157.195,194.126 157.195,199.925 159.095,199.925 159.195,199.925 159.195,194.126 			"/>
			
				<line fill="none" stroke="#000000" stroke-width="0" stroke-linecap="round" stroke-linejoin="round" x1="159.095" y1="199.925" x2="159.195" y2="199.925"/>
			
				<line fill="none" stroke="#000000" stroke-width="0" stroke-linecap="round" stroke-linejoin="round" x1="161.095" y1="199.925" x2="159.195" y2="199.925"/>
			<polygon fill="#4731EF" points="163.095,176.825 161.095,176.825 161.095,199.925 163.095,199.925 163.095,197.025 			"/>
			<rect x="163.095" y="197.025" fill="#4731EF" width="2" height="2.9"/>
			
				<line fill="none" stroke="#000000" stroke-width="0" stroke-linecap="round" stroke-linejoin="round" x1="167.095" y1="199.925" x2="165.095" y2="199.925"/>
			<rect x="167.095" y="188.325" fill="#4731EF" width="2" height="11.6"/>
			
				<line fill="none" stroke="#000000" stroke-width="0" stroke-linecap="round" stroke-linejoin="round" x1="171.095" y1="199.925" x2="169.095" y2="199.925"/>
			
				<line fill="none" stroke="#000000" stroke-width="0" stroke-linecap="round" stroke-linejoin="round" x1="172.995" y1="199.925" x2="171.095" y2="199.925"/>
			
				<line fill="none" stroke="#000000" stroke-width="0" stroke-linecap="round" stroke-linejoin="round" x1="174.995" y1="199.925" x2="172.995" y2="199.925"/>
			
				<line fill="none" stroke="#000000" stroke-width="0" stroke-linecap="round" stroke-linejoin="round" x1="176.995" y1="199.925" x2="174.995" y2="199.925"/>
			
				<line fill="none" stroke="#000000" stroke-width="0" stroke-linecap="round" stroke-linejoin="round" x1="178.995" y1="199.925" x2="176.995" y2="199.925"/>
			<rect x="178.995" y="197.025" fill="#4731EF" width="2" height="2.9"/>
			<rect x="180.995" y="197.025" fill="#4731EF" width="2" height="2.9"/>
			<polygon fill="#4731EF" points="182.995,191.225 182.995,197.025 182.995,199.925 184.895,199.925 184.995,199.925 
				184.995,191.225 			"/>
			
				<line fill="none" stroke="#000000" stroke-width="0" stroke-linecap="round" stroke-linejoin="round" x1="186.895" y1="199.925" x2="184.995" y2="199.925"/>
			
				<line fill="none" stroke="#000000" stroke-width="0" stroke-linecap="round" stroke-linejoin="round" x1="184.995" y1="199.925" x2="184.895" y2="199.925"/>
			
				<line fill="none" stroke="#000000" stroke-width="0" stroke-linecap="round" stroke-linejoin="round" x1="188.895" y1="199.925" x2="186.895" y2="199.925"/>
			<rect x="188.895" y="197.025" fill="#4731EF" width="2" height="2.9"/>
			
				<line fill="none" stroke="#000000" stroke-width="0" stroke-linecap="round" stroke-linejoin="round" x1="192.895" y1="199.925" x2="190.895" y2="199.925"/>
			
				<line fill="none" stroke="#000000" stroke-width="0" stroke-linecap="round" stroke-linejoin="round" x1="194.895" y1="199.925" x2="192.895" y2="199.925"/>
			<polygon fill="#4731EF" points="194.895,173.925 194.895,199.925 196.795,199.925 196.895,199.925 196.895,173.925 			"/>
			
				<line fill="none" stroke="#000000" stroke-width="0" stroke-linecap="round" stroke-linejoin="round" x1="196.795" y1="199.925" x2="196.895" y2="199.925"/>
			
				<line fill="none" stroke="#000000" stroke-width="0" stroke-linecap="round" stroke-linejoin="round" x1="198.795" y1="199.925" x2="196.895" y2="199.925"/>
			<rect x="198.795" y="191.225" fill="#4731EF" width="2" height="8.7"/>
			
				<line fill="none" stroke="#000000" stroke-width="0" stroke-linecap="round" stroke-linejoin="round" x1="202.795" y1="199.925" x2="200.795" y2="199.925"/>
			
				<line fill="none" stroke="#000000" stroke-width="0" stroke-linecap="round" stroke-linejoin="round" x1="204.795" y1="199.925" x2="202.795" y2="199.925"/>
			
				<line fill="none" stroke="#000000" stroke-width="0" stroke-linecap="round" stroke-linejoin="round" x1="206.795" y1="199.925" x2="204.795" y2="199.925"/>
			
				<line fill="none" stroke="#000000" stroke-width="0" stroke-linecap="round" stroke-linejoin="round" x1="208.695" y1="199.925" x2="206.795" y2="199.925"/>
			
				<line fill="none" stroke="#000000" stroke-width="0" stroke-linecap="round" stroke-linejoin="round" x1="210.695" y1="199.925" x2="208.695" y2="199.925"/>
			
				<line fill="none" stroke="#000000" stroke-width="0" stroke-linecap="round" stroke-linejoin="round" x1="212.695" y1="199.925" x2="210.695" y2="199.925"/>
			
				<line fill="none" stroke="#000000" stroke-width="0" stroke-linecap="round" stroke-linejoin="round" x1="214.695" y1="199.925" x2="212.695" y2="199.925"/>
			
				<line fill="none" stroke="#000000" stroke-width="0" stroke-linecap="round" stroke-linejoin="round" x1="216.695" y1="199.925" x2="214.695" y2="199.925"/>
			
				<line fill="none" stroke="#000000" stroke-width="0" stroke-linecap="round" stroke-linejoin="round" x1="218.695" y1="199.925" x2="216.695" y2="199.925"/>
			
				<line fill="none" stroke="#000000" stroke-width="0" stroke-linecap="round" stroke-linejoin="round" x1="220.595" y1="199.925" x2="218.695" y2="199.925"/>
			<rect x="220.595" y="191.225" fill="#4731EF" width="2" height="8.7"/>
			
				<line fill="none" stroke="#000000" stroke-width="0" stroke-linecap="round" stroke-linejoin="round" x1="224.595" y1="199.925" x2="222.595" y2="199.925"/>
			
				<line fill="none" stroke="#000000" stroke-width="0" stroke-linecap="round" stroke-linejoin="round" x1="226.595" y1="199.925" x2="224.595" y2="199.925"/>
			
				<line fill="none" stroke="#000000" stroke-width="0" stroke-linecap="round" stroke-linejoin="round" x1="228.595" y1="199.925" x2="226.595" y2="199.925"/>
			
				<line fill="none" stroke="#000000" stroke-width="0" stroke-linecap="round" stroke-linejoin="round" x1="230.595" y1="199.925" x2="228.595" y2="199.925"/>
			
				<line fill="none" stroke="#000000" stroke-width="0" stroke-linecap="round" stroke-linejoin="round" x1="232.495" y1="199.925" x2="230.595" y2="199.925"/>
			
				<line fill="none" stroke="#000000" stroke-width="0" stroke-linecap="round" stroke-linejoin="round" x1="234.495" y1="199.925" x2="232.495" y2="199.925"/>
			
				<line fill="none" stroke="#000000" stroke-width="0" stroke-linecap="round" stroke-linejoin="round" x1="236.495" y1="199.925" x2="234.495" y2="199.925"/>
			
				<line fill="none" stroke="#000000" stroke-width="0" stroke-linecap="round" stroke-linejoin="round" x1="238.495" y1="199.925" x2="236.495" y2="199.925"/>
			
				<line fill="none" stroke="#000000" stroke-width="0" stroke-linecap="round" stroke-linejoin="round" x1="240.495" y1="199.925" x2="238.495" y2="199.925"/>
			
				<line fill="none" stroke="#000000" stroke-width="0" stroke-linecap="round" stroke-linejoin="round" x1="242.495" y1="199.925" x2="240.495" y2="199.925"/>
			
				<line fill="none" stroke="#000000" stroke-width="0" stroke-linecap="round" stroke-linejoin="round" x1="244.495" y1="199.925" x2="242.495" y2="199.925"/>
			
				<line fill="none" stroke="#000000" stroke-width="0" stroke-linecap="round" stroke-linejoin="round" x1="246.395" y1="199.925" x2="244.495" y2="199.925"/>
			<polygon fill="#4731EF" points="248.395,191.225 246.395,191.225 246.395,199.925 248.395,199.925 248.395,194.126 			"/>
			<rect x="248.395" y="194.126" fill="#4731EF" width="2" height="5.8"/>
			
				<line fill="none" stroke="#000000" stroke-width="0" stroke-linecap="round" stroke-linejoin="round" x1="252.395" y1="199.925" x2="250.395" y2="199.925"/>
			
				<line fill="none" stroke="#000000" stroke-width="0" stroke-linecap="round" stroke-linejoin="round" x1="254.395" y1="199.925" x2="252.395" y2="199.925"/>
			<rect x="254.395" y="179.725" fill="#4731EF" width="2" height="20.2"/>
			
				<line fill="none" stroke="#000000" stroke-width="0" stroke-linecap="round" stroke-linejoin="round" x1="258.295" y1="199.925" x2="256.395" y2="199.925"/>
			
				<line fill="none" stroke="#000000" stroke-width="0" stroke-linecap="round" stroke-linejoin="round" x1="260.295" y1="199.925" x2="258.295" y2="199.925"/>
			
				<line fill="none" stroke="#000000" stroke-width="0" stroke-linecap="round" stroke-linejoin="round" x1="262.295" y1="199.925" x2="260.295" y2="199.925"/>
			
				<line fill="none" stroke="#000000" stroke-width="0" stroke-linecap="round" stroke-linejoin="round" x1="264.295" y1="199.925" x2="262.295" y2="199.925"/>
			<polygon fill="#4731EF" points="266.295,185.525 264.295,185.525 264.295,199.925 266.295,199.925 266.295,197.025 			"/>
			<rect x="266.295" y="197.025" fill="#4731EF" width="2" height="2.9"/>
			
				<line fill="none" stroke="#000000" stroke-width="0" stroke-linecap="round" stroke-linejoin="round" x1="270.195" y1="199.925" x2="268.295" y2="199.925"/>
			<rect x="270.195" y="197.025" fill="#4731EF" width="2" height="2.9"/>
			<polygon fill="#4731EF" points="272.195,191.225 272.195,197.025 272.195,199.925 274.195,199.925 274.195,191.225 			"/>
			
				<line fill="none" stroke="#000000" stroke-width="0" stroke-linecap="round" stroke-linejoin="round" x1="276.195" y1="199.925" x2="274.195" y2="199.925"/>
			<rect x="276.195" y="191.225" fill="#4731EF" width="2" height="8.7"/>
			
				<line fill="none" stroke="#000000" stroke-width="0" stroke-linecap="round" stroke-linejoin="round" x1="280.195" y1="199.925" x2="278.195" y2="199.925"/>
			<polygon fill="#4731EF" points="282.195,194.126 282.195,191.225 280.195,191.225 280.195,199.925 282.095,199.925 
				282.095,194.126 			"/>
			<polygon fill="#4731EF" points="284.095,194.126 282.195,194.126 282.095,194.126 282.095,199.925 284.095,199.925 
				284.095,197.025 			"/>
			<rect x="284.095" y="197.025" fill="#4731EF" width="2" height="2.9"/>
			<rect x="286.095" y="197.025" fill="#4731EF" width="2" height="2.9"/>
			
				<line fill="none" stroke="#000000" stroke-width="0" stroke-linecap="round" stroke-linejoin="round" x1="290.095" y1="199.925" x2="288.095" y2="199.925"/>
			<rect x="290.095" y="194.126" fill="#4731EF" width="2" height="5.8"/>
			
				<line fill="none" stroke="#000000" stroke-width="0" stroke-linecap="round" stroke-linejoin="round" x1="293.995" y1="199.925" x2="292.095" y2="199.925"/>
			
				<line fill="none" stroke="#000000" stroke-width="0" stroke-linecap="round" stroke-linejoin="round" x1="295.995" y1="199.925" x2="293.995" y2="199.925"/>
			
				<line fill="none" stroke="#000000" stroke-width="0" stroke-linecap="round" stroke-linejoin="round" x1="297.995" y1="199.925" x2="295.995" y2="199.925"/>
			<rect x="297.995" y="194.126" fill="#4731EF" width="2" height="5.8"/>
			
				<line fill="none" stroke="#000000" stroke-width="0" stroke-linecap="round" stroke-linejoin="round" x1="301.995" y1="199.925" x2="299.995" y2="199.925"/>
			
				<line fill="none" stroke="#000000" stroke-width="0" stroke-linecap="round" stroke-linejoin="round" x1="303.995" y1="199.925" x2="301.995" y2="199.925"/>
			
				<line fill="none" stroke="#000000" stroke-width="0" stroke-linecap="round" stroke-linejoin="round" x1="305.995" y1="199.925" x2="303.995" y2="199.925"/>
			<polygon fill="#4731EF" points="305.995,197.025 305.995,199.925 307.895,199.925 307.995,199.925 307.995,197.025 			"/>
			
				<line fill="none" stroke="#000000" stroke-width="0" stroke-linecap="round" stroke-linejoin="round" x1="309.895" y1="199.925" x2="307.995" y2="199.925"/>
			
				<line fill="none" stroke="#000000" stroke-width="0" stroke-linecap="round" stroke-linejoin="round" x1="307.895" y1="199.925" x2="307.995" y2="199.925"/>
			<polygon fill="#4731EF" points="311.895,188.325 309.895,188.325 309.895,199.925 311.895,199.925 311.895,194.126 			"/>
			<rect x="311.895" y="194.126" fill="#4731EF" width="2" height="5.8"/>
			
				<line fill="none" stroke="#000000" stroke-width="0" stroke-linecap="round" stroke-linejoin="round" x1="315.895" y1="199.925" x2="313.895" y2="199.925"/>
			<rect x="315.895" y="194.126" fill="#4731EF" width="2" height="5.8"/>
			<polygon fill="#4731EF" points="317.895,162.325 317.895,194.126 317.895,199.925 319.795,199.925 319.795,162.325 			"/>
			<polygon fill="#4731EF" points="321.795,142.126 319.795,142.126 319.795,162.325 319.795,199.925 321.795,199.925 
				321.795,191.225 			"/>
			<rect x="321.795" y="191.225" fill="#4731EF" width="2" height="8.7"/>
			<polygon fill="#4731EF" points="325.795,153.725 323.795,153.725 323.795,191.225 323.795,199.925 325.795,199.925 
				325.795,191.225 			"/>
			<polygon fill="#4731EF" points="327.795,191.225 325.795,191.225 325.795,199.925 327.795,199.925 327.795,194.126 			"/>
			<rect x="327.795" y="194.126" fill="#4731EF" width="2" height="5.8"/>
			
				<line fill="none" stroke="#000000" stroke-width="0" stroke-linecap="round" stroke-linejoin="round" x1="331.695" y1="199.925" x2="329.795" y2="199.925"/>
			<rect x="331.695" y="197.025" fill="#4731EF" width="2" height="2.9"/>
			<polygon fill="#4731EF" points="333.695,194.126 333.695,197.025 333.695,199.925 335.695,199.925 335.695,194.126 			"/>
			
				<line fill="none" stroke="#000000" stroke-width="0" stroke-linecap="round" stroke-linejoin="round" x1="337.695" y1="199.925" x2="335.695" y2="199.925"/>
			<rect x="337.695" y="194.126" fill="#4731EF" width="2" height="5.8"/>
			
				<line fill="none" stroke="#000000" stroke-width="0" stroke-linecap="round" stroke-linejoin="round" x1="341.695" y1="199.925" x2="339.695" y2="199.925"/>
			
				<line fill="none" stroke="#000000" stroke-width="0" stroke-linecap="round" stroke-linejoin="round" x1="343.595" y1="199.925" x2="341.695" y2="199.925"/>
			
				<line fill="none" stroke="#000000" stroke-width="0" stroke-linecap="round" stroke-linejoin="round" x1="345.595" y1="199.925" x2="343.595" y2="199.925"/>
			
				<line fill="none" stroke="#000000" stroke-width="0" stroke-linecap="round" stroke-linejoin="round" x1="347.595" y1="199.925" x2="345.595" y2="199.925"/>
			<polygon fill="#4731EF" points="349.595,176.825 347.595,176.825 347.595,199.925 349.595,199.925 349.595,185.525 			"/>
			<polygon fill="#4731EF" points="351.595,185.525 349.595,185.525 349.595,199.925 351.595,199.925 351.595,194.126 			"/>
			<rect x="351.595" y="194.126" fill="#4731EF" width="2" height="5.8"/>
			<polygon fill="#4731EF" points="355.595,162.325 355.595,153.725 353.595,153.725 353.595,194.126 353.595,199.925 
				355.495,199.925 355.495,162.325 			"/>
			<polygon fill="#4731EF" points="357.495,162.325 355.595,162.325 355.495,162.325 355.495,199.925 357.495,199.925 
				357.495,194.126 			"/>
			<rect x="357.495" y="194.126" fill="#4731EF" width="2" height="5.8"/>
			<rect x="359.495" y="194.126" fill="#4731EF" width="2" height="5.8"/>
			<rect x="361.495" y="194.126" fill="#4731EF" width="2" height="5.8"/>
			
				<line fill="none" stroke="#000000" stroke-width="0" stroke-linecap="round" stroke-linejoin="round" x1="365.495" y1="199.925" x2="363.495" y2="199.925"/>
			<polygon fill="#4731EF" points="365.495,194.126 365.495,199.925 367.395,199.925 367.495,199.925 367.495,194.126 			"/>
			
				<line fill="none" stroke="#000000" stroke-width="0" stroke-linecap="round" stroke-linejoin="round" x1="367.395" y1="199.925" x2="367.495" y2="199.925"/>
			
				<line fill="none" stroke="#000000" stroke-width="0" stroke-linecap="round" stroke-linejoin="round" x1="369.395" y1="199.925" x2="367.495" y2="199.925"/>
			
				<line fill="none" stroke="#000000" stroke-width="0" stroke-linecap="round" stroke-linejoin="round" x1="371.395" y1="199.925" x2="369.395" y2="199.925"/>
			
				<line fill="none" stroke="#000000" stroke-width="0" stroke-linecap="round" stroke-linejoin="round" x1="373.395" y1="199.925" x2="371.395" y2="199.925"/>
			<polygon fill="#4731EF" points="375.395,153.725 373.395,153.725 373.395,199.925 375.395,199.925 375.395,182.626 			"/>
			<rect x="375.395" y="182.626" fill="#4731EF" width="2" height="17.3"/>
			
				<line fill="none" stroke="#000000" stroke-width="0" stroke-linecap="round" stroke-linejoin="round" x1="379.395" y1="199.925" x2="377.395" y2="199.925"/>
			<rect x="379.395" y="197.025" fill="#4731EF" width="1.9" height="2.9"/>
			<polygon fill="#4731EF" points="381.295,194.126 381.295,197.025 381.295,199.925 383.295,199.925 383.295,194.126 			"/>
			<rect x="383.295" y="194.126" fill="#4731EF" width="2" height="5.8"/>
			<polygon fill="#4731EF" points="385.295,185.525 385.295,194.126 385.295,199.925 387.295,199.925 387.295,185.525 			"/>
			
				<line fill="none" stroke="#000000" stroke-width="0" stroke-linecap="round" stroke-linejoin="round" x1="389.295" y1="199.925" x2="387.295" y2="199.925"/>
			<rect x="389.295" y="197.025" fill="#4731EF" width="2" height="2.9"/>
			<polygon fill="#4731EF" points="391.295,176.825 391.295,197.025 391.295,199.925 393.195,199.925 393.295,199.925 
				393.295,176.825 			"/>
			
				<line fill="none" stroke="#000000" stroke-width="0" stroke-linecap="round" stroke-linejoin="round" x1="395.195" y1="199.925" x2="393.295" y2="199.925"/>
			
				<line fill="none" stroke="#000000" stroke-width="0" stroke-linecap="round" stroke-linejoin="round" x1="393.195" y1="199.925" x2="393.295" y2="199.925"/>
			<rect x="395.195" y="194.126" fill="#4731EF" width="2" height="5.8"/>
			
				<line fill="none" stroke="#000000" stroke-width="0" stroke-linecap="round" stroke-linejoin="round" x1="399.195" y1="199.925" x2="397.195" y2="199.925"/>
			
				<line fill="none" stroke="#000000" stroke-width="0" stroke-linecap="round" stroke-linejoin="round" x1="401.195" y1="199.925" x2="399.195" y2="199.925"/>
			<rect x="401.195" y="168.126" fill="#4731EF" width="2" height="31.8"/>
			
				<line fill="none" stroke="#000000" stroke-width="0" stroke-linecap="round" stroke-linejoin="round" x1="405.095" y1="199.925" x2="403.195" y2="199.925"/>
			
				<line fill="none" stroke="#000000" stroke-width="0" stroke-linecap="round" stroke-linejoin="round" x1="407.095" y1="199.925" x2="405.095" y2="199.925"/>
			
				<line fill="none" stroke="#000000" stroke-width="0" stroke-linecap="round" stroke-linejoin="round" x1="409.095" y1="199.925" x2="407.095" y2="199.925"/>
			<rect x="409.095" y="197.025" fill="#4731EF" width="2" height="2.9"/>
			<polygon fill="#4731EF" points="411.095,171.025 411.095,197.025 411.095,199.925 413.095,199.925 413.095,171.025 			"/>
			
				<line fill="none" stroke="#000000" stroke-width="0" stroke-linecap="round" stroke-linejoin="round" x1="415.095" y1="199.925" x2="413.095" y2="199.925"/>
			
				<line fill="none" stroke="#000000" stroke-width="0" stroke-linecap="round" stroke-linejoin="round" x1="416.995" y1="199.925" x2="415.095" y2="199.925"/>
			
				<line fill="none" stroke="#000000" stroke-width="0" stroke-linecap="round" stroke-linejoin="round" x1="418.995" y1="199.925" x2="416.995" y2="199.925"/>
			
				<line fill="none" stroke="#000000" stroke-width="0" stroke-linecap="round" stroke-linejoin="round" x1="420.995" y1="199.925" x2="418.995" y2="199.925"/>
			
				<line fill="none" stroke="#000000" stroke-width="0" stroke-linecap="round" stroke-linejoin="round" x1="422.995" y1="199.925" x2="420.995" y2="199.925"/>
			<rect x="422.995" y="191.225" fill="#4731EF" width="2" height="8.7"/>
			
				<line fill="none" stroke="#000000" stroke-width="0" stroke-linecap="round" stroke-linejoin="round" x1="426.995" y1="199.925" x2="424.995" y2="199.925"/>
			<polygon fill="#4731EF" points="426.995,176.825 426.995,199.925 428.895,199.925 428.995,199.925 428.995,176.825 			"/>
			
				<line fill="none" stroke="#000000" stroke-width="0" stroke-linecap="round" stroke-linejoin="round" x1="430.895" y1="199.925" x2="428.995" y2="199.925"/>
			
				<line fill="none" stroke="#000000" stroke-width="0" stroke-linecap="round" stroke-linejoin="round" x1="428.895" y1="199.925" x2="428.995" y2="199.925"/>
			<polygon fill="#4731EF" points="432.895,179.725 430.895,179.725 430.895,199.925 432.895,199.925 432.895,188.325 			"/>
			<rect x="432.895" y="188.325" fill="#4731EF" width="2" height="11.6"/>
			
				<line fill="none" stroke="#000000" stroke-width="0" stroke-linecap="round" stroke-linejoin="round" x1="436.895" y1="199.925" x2="434.895" y2="199.925"/>
			<rect x="436.895" y="197.025" fill="#4731EF" width="2" height="2.9"/>
			
				<line fill="none" stroke="#000000" stroke-width="0" stroke-linecap="round" stroke-linejoin="round" x1="440.895" y1="199.925" x2="438.895" y2="199.925"/>
			
				<line fill="none" stroke="#000000" stroke-width="0" stroke-linecap="round" stroke-linejoin="round" x1="442.795" y1="199.925" x2="440.895" y2="199.925"/>
			
				<line fill="none" stroke="#000000" stroke-width="0" stroke-linecap="round" stroke-linejoin="round" x1="444.795" y1="199.925" x2="442.795" y2="199.925"/>
			
				<line fill="none" stroke="#000000" stroke-width="0" stroke-linecap="round" stroke-linejoin="round" x1="446.795" y1="199.925" x2="444.795" y2="199.925"/>
			
				<line fill="none" stroke="#000000" stroke-width="0" stroke-linecap="round" stroke-linejoin="round" x1="448.795" y1="199.925" x2="446.795" y2="199.925"/>
			<rect x="448.795" y="194.126" fill="#4731EF" width="2" height="5.8"/>
			<polygon fill="#4731EF" points="452.795,145.025 450.795,145.025 450.795,194.126 450.795,199.925 452.795,199.925 
				452.795,168.126 			"/>
			<polygon fill="#4731EF" points="452.795,168.126 452.795,199.925 454.695,199.925 454.795,199.925 454.795,168.126 			"/>
			
				<line fill="none" stroke="#000000" stroke-width="0" stroke-linecap="round" stroke-linejoin="round" x1="456.695" y1="199.925" x2="454.795" y2="199.925"/>
			
				<line fill="none" stroke="#000000" stroke-width="0" stroke-linecap="round" stroke-linejoin="round" x1="454.695" y1="199.925" x2="454.795" y2="199.925"/>
			<rect x="456.695" y="185.525" fill="#4731EF" width="2" height="14.4"/>
			<polygon fill="#4731EF" points="460.695,176.825 458.695,176.825 458.695,185.525 458.695,199.925 460.695,199.925 
				460.695,194.126 			"/>
			<rect x="460.695" y="194.126" fill="#4731EF" width="2" height="5.8"/>
			
				<line fill="none" stroke="#000000" stroke-width="0" stroke-linecap="round" stroke-linejoin="round" x1="464.695" y1="199.925" x2="462.695" y2="199.925"/>
			<polygon fill="#4731EF" points="464.695,191.225 464.695,199.925 466.595,199.925 466.695,199.925 466.695,191.225 			"/>
			
				<line fill="none" stroke="#000000" stroke-width="0" stroke-linecap="round" stroke-linejoin="round" x1="468.595" y1="199.925" x2="466.695" y2="199.925"/>
			
				<line fill="none" stroke="#000000" stroke-width="0" stroke-linecap="round" stroke-linejoin="round" x1="466.595" y1="199.925" x2="466.695" y2="199.925"/>
			
				<line fill="none" stroke="#000000" stroke-width="0" stroke-linecap="round" stroke-linejoin="round" x1="470.595" y1="199.925" x2="468.595" y2="199.925"/>
			
				<line fill="none" stroke="#000000" stroke-width="0" stroke-linecap="round" stroke-linejoin="round" x1="472.595" y1="199.925" x2="470.595" y2="199.925"/>
			<rect x="472.595" y="197.025" fill="#4731EF" width="2" height="2.9"/>
			
				<line fill="none" stroke="#000000" stroke-width="0" stroke-linecap="round" stroke-linejoin="round" x1="476.595" y1="199.925" x2="474.595" y2="199.925"/>
			<polygon fill="#4731EF" points="478.595,197.025 478.595,194.126 476.595,194.126 476.595,199.925 478.495,199.925 
				478.495,197.025 			"/>
			<polygon fill="#4731EF" points="478.595,197.025 478.495,197.025 478.495,199.925 480.495,199.925 480.495,197.025 			"/>
			
				<line fill="none" stroke="#000000" stroke-width="0" stroke-linecap="round" stroke-linejoin="round" x1="482.495" y1="199.925" x2="480.495" y2="199.925"/>
			<rect x="482.495" y="182.626" fill="#4731EF" width="2" height="17.3"/>
			
				<line fill="none" stroke="#000000" stroke-width="0" stroke-linecap="round" stroke-linejoin="round" x1="486.495" y1="199.925" x2="484.495" y2="199.925"/>
			<rect x="486.495" y="107.525" fill="#4731EF" width="2" height="92.4"/>
			<polygon fill="#4731EF" points="490.495,197.025 490.495,78.626 488.495,78.626 488.495,107.525 488.495,199.925 
				490.395,199.925 490.395,197.025 			"/>
			<polygon fill="#4731EF" points="490.495,197.025 490.395,197.025 490.395,199.925 492.395,199.925 492.395,197.025 			"/>
			<polygon fill="#4731EF" points="492.395,182.626 492.395,197.025 492.395,199.925 494.395,199.925 494.395,182.626 			"/>
			
				<line fill="none" stroke="#000000" stroke-width="0" stroke-linecap="round" stroke-linejoin="round" x1="496.395" y1="199.925" x2="494.395" y2="199.925"/>
			
				<line fill="none" stroke="#000000" stroke-width="0" stroke-linecap="round" stroke-linejoin="round" x1="498.395" y1="199.925" x2="496.395" y2="199.925"/>
			
				<line fill="none" stroke="#000000" stroke-width="0" stroke-linecap="round" stroke-linejoin="round" x1="500.395" y1="199.925" x2="498.395" y2="199.925"/>
			
				<line fill="none" stroke="#000000" stroke-width="0" stroke-linecap="round" stroke-linejoin="round" x1="502.295" y1="199.925" x2="500.395" y2="199.925"/>
			
				<line fill="none" stroke="#000000" stroke-width="0" stroke-linecap="round" stroke-linejoin="round" x1="504.295" y1="199.925" x2="502.295" y2="199.925"/>
			<rect x="504.295" y="197.025" fill="#4731EF" width="2" height="2.9"/>
			<polygon fill="#4731EF" points="506.295,194.126 506.295,197.025 506.295,199.925 508.295,199.925 508.295,194.126 			"/>
			
				<line fill="none" stroke="#000000" stroke-width="0" stroke-linecap="round" stroke-linejoin="round" x1="510.295" y1="199.925" x2="508.295" y2="199.925"/>
			
				<line fill="none" stroke="#000000" stroke-width="0" stroke-linecap="round" stroke-linejoin="round" x1="512.295" y1="199.925" x2="510.295" y2="199.925"/>
			
				<line fill="none" stroke="#000000" stroke-width="0" stroke-linecap="round" stroke-linejoin="round" x1="514.295" y1="199.925" x2="512.295" y2="199.925"/>
			
				<line fill="none" stroke="#000000" stroke-width="0" stroke-linecap="round" stroke-linejoin="round" x1="516.195" y1="199.925" x2="514.295" y2="199.925"/>
			
				<line fill="none" stroke="#000000" stroke-width="0" stroke-linecap="round" stroke-linejoin="round" x1="518.195" y1="199.925" x2="516.195" y2="199.925"/>
			
				<line fill="none" stroke="#000000" stroke-width="0" stroke-linecap="round" stroke-linejoin="round" x1="520.195" y1="199.925" x2="518.195" y2="199.925"/>
			<polygon fill="#4731EF" points="522.195,179.725 520.195,179.725 520.195,199.925 522.195,199.925 522.195,185.525 			"/>
			<rect x="522.195" y="185.525" fill="#4731EF" width="2" height="14.4"/>
			
				<line fill="none" stroke="#000000" stroke-width="0" stroke-linecap="round" stroke-linejoin="round" x1="526.195" y1="199.925" x2="524.195" y2="199.925"/>
			
				<line fill="none" stroke="#000000" stroke-width="0" stroke-linecap="round" stroke-linejoin="round" x1="528.095" y1="199.925" x2="526.195" y2="199.925"/>
			<rect x="528.095" y="197.025" fill="#4731EF" width="2" height="2.9"/>
			
				<line fill="none" stroke="#000000" stroke-width="0" stroke-linecap="round" stroke-linejoin="round" x1="532.095" y1="199.925" x2="530.095" y2="199.925"/>
			<rect x="532.095" y="147.925" fill="#4731EF" width="2" height="52"/>
			
				<line fill="none" stroke="#000000" stroke-width="0" stroke-linecap="round" stroke-linejoin="round" x1="536.095" y1="199.925" x2="534.095" y2="199.925"/>
			<polygon fill="#4731EF" points="538.095,173.925 536.095,173.925 536.095,199.925 538.095,199.925 538.095,197.025 			"/>
			<rect x="538.095" y="197.025" fill="#4731EF" width="1.9" height="2.9"/>
			<polygon fill="#4731EF" points="539.995,191.225 539.995,197.025 539.995,199.925 541.995,199.925 541.995,191.225 			"/>
			<polygon fill="#4731EF" points="543.995,185.525 541.995,185.525 541.995,191.225 541.995,199.925 543.995,199.925 
				543.995,191.225 			"/>
			<rect x="543.995" y="191.225" fill="#4731EF" width="2" height="8.7"/>
			<polygon fill="#4731EF" points="547.995,182.626 545.995,182.626 545.995,191.225 545.995,199.925 547.995,199.925 
				547.995,197.025 			"/>
			<rect x="547.995" y="197.025" fill="#4731EF" width="2" height="2.9"/>
			
				<line fill="none" stroke="#000000" stroke-width="0" stroke-linecap="round" stroke-linejoin="round" x1="551.895" y1="199.925" x2="549.995" y2="199.925"/>
			
				<line fill="none" stroke="#000000" stroke-width="0" stroke-linecap="round" stroke-linejoin="round" x1="553.895" y1="199.925" x2="551.895" y2="199.925"/>
			<rect x="553.895" y="194.126" fill="#4731EF" width="2" height="5.8"/>
			
				<line fill="none" stroke="#000000" stroke-width="0" stroke-linecap="round" stroke-linejoin="round" x1="557.895" y1="199.925" x2="555.895" y2="199.925"/>
			<polygon fill="#4731EF" points="559.895,182.626 557.895,182.626 557.895,199.925 559.895,199.925 559.895,194.126 			"/>
			<rect x="559.895" y="194.126" fill="#4731EF" width="2" height="5.8"/>
			
				<line fill="none" stroke="#000000" stroke-width="0" stroke-linecap="round" stroke-linejoin="round" x1="563.795" y1="199.925" x2="561.895" y2="199.925"/>
			
				<line fill="none" stroke="#000000" stroke-width="0" stroke-linecap="round" stroke-linejoin="round" x1="565.795" y1="199.925" x2="563.795" y2="199.925"/>
			
				<line fill="none" stroke="#000000" stroke-width="0" stroke-linecap="round" stroke-linejoin="round" x1="567.795" y1="199.925" x2="565.795" y2="199.925"/>
			
				<line fill="none" stroke="#000000" stroke-width="0" stroke-linecap="round" stroke-linejoin="round" x1="569.795" y1="199.925" x2="567.795" y2="199.925"/>
			
				<line fill="none" stroke="#000000" stroke-width="0" stroke-linecap="round" stroke-linejoin="round" x1="571.795" y1="199.925" x2="569.795" y2="199.925"/>
			
				<line fill="none" stroke="#000000" stroke-width="0" stroke-linecap="round" stroke-linejoin="round" x1="573.795" y1="199.925" x2="571.795" y2="199.925"/>
			<rect x="573.795" y="197.025" fill="#4731EF" width="2" height="2.9"/>
			
				<line fill="none" stroke="#000000" stroke-width="0" stroke-linecap="round" stroke-linejoin="round" x1="577.695" y1="199.925" x2="575.795" y2="199.925"/>
			
				<line fill="none" stroke="#000000" stroke-width="0" stroke-linecap="round" stroke-linejoin="round" x1="579.695" y1="199.925" x2="577.695" y2="199.925"/>
			<rect x="579.695" y="197.025" fill="#4731EF" width="2" height="2.9"/>
			
				<line fill="none" stroke="#000000" stroke-width="0" stroke-linecap="round" stroke-linejoin="round" x1="583.695" y1="199.925" x2="581.695" y2="199.925"/>
			
				<line fill="none" stroke="#000000" stroke-width="0" stroke-linecap="round" stroke-linejoin="round" x1="585.695" y1="199.925" x2="583.695" y2="199.925"/>
			
				<line fill="none" stroke="#000000" stroke-width="0" stroke-linecap="round" stroke-linejoin="round" x1="587.695" y1="199.925" x2="585.695" y2="199.925"/>
			
				<line fill="none" stroke="#000000" stroke-width="0" stroke-linecap="round" stroke-linejoin="round" x1="589.595" y1="199.925" x2="587.695" y2="199.925"/>
			
				<line fill="none" stroke="#000000" stroke-width="0" stroke-linecap="round" stroke-linejoin="round" x1="591.595" y1="199.925" x2="589.595" y2="199.925"/>
			<rect x="591.595" y="194.126" fill="#4731EF" width="2" height="5.8"/>
			<polygon fill="#4731EF" points="595.595,194.126 593.595,194.126 593.595,199.925 595.595,199.925 595.595,197.025 			"/>
			<rect x="595.595" y="197.025" fill="#4731EF" width="2" height="2.9"/>
			<rect x="597.595" y="197.025" fill="#4731EF" width="2" height="2.9"/>
			
				<line fill="none" stroke="#000000" stroke-width="0" stroke-linecap="round" stroke-linejoin="round" x1="601.495" y1="199.925" x2="599.595" y2="199.925"/>
			
				<line fill="none" stroke="#000000" stroke-width="0" stroke-linecap="round" stroke-linejoin="round" x1="603.495" y1="199.925" x2="601.495" y2="199.925"/>
			
				<line fill="none" stroke="#000000" stroke-width="0" stroke-linecap="round" stroke-linejoin="round" x1="605.495" y1="199.925" x2="603.495" y2="199.925"/>
			
				<line fill="none" stroke="#000000" stroke-width="0" stroke-linecap="round" stroke-linejoin="round" x1="607.495" y1="199.925" x2="605.495" y2="199.925"/>
			<rect x="607.495" y="197.025" fill="#4731EF" width="2" height="2.9"/>
			
				<line fill="none" stroke="#000000" stroke-width="0" stroke-linecap="round" stroke-linejoin="round" x1="611.495" y1="199.925" x2="609.495" y2="199.925"/>
			<rect x="611.495" y="197.025" fill="#4731EF" width="1.9" height="2.9"/>
			<polygon fill="#4731EF" points="615.395,188.325 613.395,188.325 613.395,197.025 613.395,199.925 615.395,199.925 
				615.395,197.025 			"/>
			<rect x="615.395" y="197.025" fill="#4731EF" width="2" height="2.9"/>
			<rect x="617.395" y="197.025" fill="#4731EF" width="2" height="2.9"/>
			
				<line fill="none" stroke="#000000" stroke-width="0" stroke-linecap="round" stroke-linejoin="round" x1="621.395" y1="199.925" x2="619.395" y2="199.925"/>
			
				<line fill="none" stroke="#000000" stroke-width="0" stroke-linecap="round" stroke-linejoin="round" x1="623.395" y1="199.925" x2="621.395" y2="199.925"/>
			<polygon fill="#4731EF" points="625.395,194.126 625.395,185.525 623.395,185.525 623.395,199.925 625.295,199.925 
				625.295,194.126 			"/>
			<polygon fill="#4731EF" points="625.395,194.126 625.295,194.126 625.295,199.925 627.295,199.925 627.295,194.126 			"/>
			<polygon fill="#4731EF" points="629.295,194.126 627.295,194.126 627.295,199.925 629.295,199.925 629.295,197.025 			"/>
			<rect x="629.295" y="197.025" fill="#4731EF" width="2" height="2.9"/>
			
				<line fill="none" stroke="#000000" stroke-width="0" stroke-linecap="round" stroke-linejoin="round" x1="633.295" y1="199.925" x2="631.295" y2="199.925"/>
			
				<line fill="none" stroke="#000000" stroke-width="0" stroke-linecap="round" stroke-linejoin="round" x1="635.295" y1="199.925" x2="633.295" y2="199.925"/>
			<rect x="635.295" y="197.025" fill="#4731EF" width="1.9" height="2.9"/>
			<polygon fill="#4731EF" points="637.195,194.126 637.195,197.025 637.195,199.925 639.195,199.925 639.195,194.126 			"/>
			
				<line fill="none" stroke="#000000" stroke-width="0" stroke-linecap="round" stroke-linejoin="round" x1="641.195" y1="199.925" x2="639.195" y2="199.925"/>
			<rect x="641.195" y="191.225" fill="#4731EF" width="2" height="8.7"/>
		</g>
	</g>
	<g>
		<polygon fill="#EF9B31" points="36.486,203.053 36.486,199.975 34.461,199.975 34.461,206.083 36.486,206.083 		"/>
		<rect x="36.486" y="199.975" fill="#EF9B31" width="1.924" height="3.077"/>
		<polygon fill="#EF9B31" points="38.41,212.237 40.435,212.237 40.435,199.975 38.41,199.975 38.41,203.053 		"/>
		<polygon fill="#EF9B31" points="40.435,218.392 42.359,218.392 42.359,199.975 40.435,199.975 40.435,212.237 		"/>
		<polygon fill="#EF9B31" points="42.359,227.671 44.384,227.671 44.384,221.516 44.384,199.975 42.359,199.975 42.359,218.392 		
			"/>
		<polygon fill="#EF9B31" points="46.409,221.516 46.409,212.237 46.409,199.975 44.384,199.975 44.384,221.516 		"/>
		<polygon fill="#EF9B31" points="48.434,212.237 48.434,206.083 48.333,206.083 48.333,199.975 46.409,199.975 46.409,212.237 		
			"/>
		<polygon fill="#EF9B31" points="48.434,206.083 50.358,206.083 50.358,199.975 48.333,199.975 48.333,206.083 		"/>
		<polygon fill="#EF9B31" points="50.358,224.546 52.383,224.546 52.383,215.362 52.281,215.362 52.281,199.975 50.358,199.975 
			50.358,206.083 		"/>
		<polygon fill="#EF9B31" points="52.383,215.362 54.306,215.362 54.306,199.975 52.281,199.975 52.281,215.362 		"/>
		<polygon fill="#EF9B31" points="54.306,221.516 56.331,221.516 56.331,206.083 56.23,206.083 56.23,199.975 54.306,199.975 
			54.306,215.362 		"/>
		<polygon fill="#EF9B31" points="56.331,206.083 58.255,206.083 58.255,199.975 56.23,199.975 56.23,206.083 		"/>
		<polygon fill="#EF9B31" points="58.255,218.392 60.28,218.392 60.28,199.975 58.255,199.975 58.255,206.083 		"/>
		<polygon fill="#EF9B31" points="60.28,243.01 62.305,243.01 62.305,206.083 62.204,206.083 62.204,199.975 60.28,199.975 
			60.28,218.392 		"/>
		<polygon fill="#EF9B31" points="62.305,206.083 64.229,206.083 64.229,199.975 62.204,199.975 62.204,206.083 		"/>
		<polygon fill="#EF9B31" points="64.229,227.671 66.153,227.671 66.153,199.975 64.229,199.975 64.229,206.083 		"/>
		<polygon fill="#EF9B31" points="66.254,227.671 68.178,227.671 68.178,199.975 66.153,199.975 66.153,227.671 		"/>
		<rect x="68.178" y="199.975" fill="#EF9B31" width="2.025" height="27.695"/>
		<polygon fill="#EF9B31" points="70.203,236.855 72.228,236.855 72.228,230.701 72.127,230.701 72.127,199.975 70.203,199.975 
			70.203,227.671 		"/>
		<polygon fill="#EF9B31" points="72.228,230.701 74.152,230.701 74.152,203.053 74.152,199.975 72.127,199.975 72.127,230.701 		
			"/>
		<rect x="74.152" y="199.975" fill="#EF9B31" width="1.924" height="3.077"/>
		<polygon fill="#EF9B31" points="76.075,218.392 78.1,218.392 78.1,212.237 78.1,199.975 76.075,199.975 76.075,203.053 		"/>
		<polygon fill="#EF9B31" points="80.125,212.237 80.125,203.053 80.024,203.053 80.024,199.975 78.1,199.975 78.1,212.237 		"/>
		<polygon fill="#EF9B31" points="80.125,203.053 82.049,203.053 82.049,199.975 80.024,199.975 80.024,203.053 		"/>
		<polygon fill="#EF9B31" points="82.049,224.546 84.074,224.546 84.074,212.237 84.074,199.975 82.049,199.975 82.049,203.053 		
			"/>
		<rect x="84.074" y="199.975" fill="#EF9B31" width="2.025" height="12.262"/>
		<polygon fill="#EF9B31" points="88.023,227.671 90.048,227.671 90.048,206.083 89.947,206.083 89.947,199.975 88.023,199.975 		
			"/>
		<polygon fill="#EF9B31" points="90.048,206.083 91.972,206.083 91.972,199.975 89.947,199.975 89.947,206.083 		"/>
		<polygon fill="#EF9B31" points="91.972,218.392 93.997,218.392 93.997,203.053 93.997,199.975 91.972,199.975 91.972,206.083 		
			"/>
		<rect x="93.997" y="199.975" fill="#EF9B31" width="1.924" height="3.077"/>
		<polygon fill="#EF9B31" points="95.921,249.164 97.945,249.164 97.945,227.671 97.945,199.975 95.921,199.975 95.921,203.053 		
			"/>
		<rect x="97.945" y="199.975" fill="#EF9B31" width="2.025" height="27.695"/>
		<polygon fill="#EF9B31" points="101.894,212.237 103.919,212.237 103.919,209.207 103.818,209.207 103.818,199.975 
			101.894,199.975 		"/>
		<polygon fill="#EF9B31" points="103.919,209.207 105.843,209.207 105.843,206.083 105.843,199.975 103.818,199.975 
			103.818,209.207 		"/>
		<rect x="105.843" y="199.975" fill="#EF9B31" width="2.025" height="6.107"/>
		<polygon fill="#EF9B31" points="107.868,209.207 109.893,209.207 109.893,206.083 109.792,206.083 109.792,199.975 
			107.868,199.975 107.868,206.083 		"/>
		<polygon fill="#EF9B31" points="109.893,206.083 111.817,206.083 111.817,199.975 109.792,199.975 109.792,206.083 		"/>
		<polygon fill="#EF9B31" points="111.817,209.207 113.842,209.207 113.842,199.975 111.817,199.975 111.817,206.083 		"/>
		<rect x="115.766" y="199.975" fill="#EF9B31" width="2.025" height="12.262"/>
		<polygon fill="#EF9B31" points="117.791,212.237 117.791,221.516 119.714,221.516 119.714,199.975 117.791,199.975 		"/>
		<polygon fill="#EF9B31" points="119.714,233.825 121.739,233.825 121.739,199.975 119.714,199.975 119.714,221.516 		"/>
		<polygon fill="#EF9B31" points="121.739,243.01 123.764,243.01 123.764,212.237 123.663,212.237 123.663,199.975 121.739,199.975 
			121.739,233.825 		"/>
		<polygon fill="#EF9B31" points="123.764,212.237 125.688,212.237 125.688,199.975 123.663,199.975 123.663,212.237 		"/>
		<polygon fill="#EF9B31" points="125.688,218.392 127.713,218.392 127.713,203.053 127.612,203.053 127.612,199.975 
			125.688,199.975 125.688,212.237 		"/>
		<polygon fill="#EF9B31" points="127.713,203.053 129.637,203.053 129.637,199.975 127.612,199.975 127.612,203.053 		"/>
		<rect x="131.662" y="199.975" fill="#EF9B31" width="1.924" height="3.077"/>
		<polygon fill="#EF9B31" points="133.586,215.362 135.611,215.362 135.611,199.975 133.586,199.975 133.586,203.053 		"/>
		<rect x="141.585" y="199.975" fill="#EF9B31" width="2.025" height="33.85"/>
		<rect x="145.533" y="199.975" fill="#EF9B31" width="1.924" height="3.077"/>
		<polygon fill="#EF9B31" points="147.457,243.01 149.482,243.01 149.482,218.392 149.482,199.975 147.457,199.975 147.457,203.053 
					"/>
		<rect x="149.482" y="199.975" fill="#EF9B31" width="1.924" height="18.416"/>
		<polygon fill="#EF9B31" points="151.507,218.392 153.431,218.392 153.431,203.053 153.431,199.975 151.406,199.975 
			151.406,218.392 		"/>
		<rect x="153.431" y="199.975" fill="#EF9B31" width="2.025" height="3.077"/>
		<polygon fill="#EF9B31" points="155.456,206.083 157.481,206.083 157.481,199.975 155.456,199.975 155.456,203.053 		"/>
		<rect x="159.405" y="199.975" fill="#EF9B31" width="1.924" height="3.077"/>
		<polygon fill="#EF9B31" points="161.328,199.975 161.328,203.053 161.43,203.053 163.353,203.053 163.353,199.975 		"/>
		<polygon fill="#EF9B31" points="163.353,203.053 163.353,252.289 165.378,252.289 165.378,236.855 165.378,199.975 
			163.353,199.975 		"/>
		<polygon fill="#EF9B31" points="167.404,236.855 167.404,230.701 167.302,230.701 167.302,199.975 165.378,199.975 
			165.378,236.855 		"/>
		<polygon fill="#EF9B31" points="167.404,230.701 169.327,230.701 169.327,199.975 167.302,199.975 167.302,230.701 		"/>
		<polygon fill="#EF9B31" points="169.327,239.98 171.352,239.98 171.352,199.975 169.327,199.975 169.327,230.701 		"/>
		<polygon fill="#EF9B31" points="173.276,212.237 175.301,212.237 175.301,203.053 175.301,199.975 173.276,199.975 		"/>
		<rect x="175.301" y="199.975" fill="#EF9B31" width="2.025" height="3.077"/>
		<rect x="179.25" y="199.975" fill="#EF9B31" width="1.924" height="3.077"/>
		<polygon fill="#EF9B31" points="181.174,199.975 181.174,203.053 181.275,203.053 183.199,203.053 183.199,199.975 		"/>
		<polygon fill="#EF9B31" points="183.199,203.053 183.199,221.516 185.122,221.516 185.122,199.975 183.199,199.975 		"/>
		<polygon fill="#EF9B31" points="185.122,255.318 187.147,255.318 187.147,215.362 187.147,199.975 185.122,199.975 
			185.122,221.516 		"/>
		<polygon fill="#EF9B31" points="189.172,215.362 189.172,206.083 189.172,199.975 187.147,199.975 187.147,215.362 		"/>
		<rect x="189.172" y="199.975" fill="#EF9B31" width="2.025" height="6.107"/>
		<rect x="195.045" y="199.975" fill="#EF9B31" width="2.025" height="9.232"/>
		<rect x="208.916" y="199.975" fill="#EF9B31" width="2.025" height="9.232"/>
		<polygon fill="#EF9B31" points="212.966,212.237 212.966,199.975 210.941,199.975 210.941,209.207 210.941,212.237 		"/>
		<polygon fill="#EF9B31" points="216.915,215.362 218.94,215.362 218.94,203.053 218.839,203.053 218.839,199.975 216.915,199.975 
					"/>
		<polygon fill="#EF9B31" points="218.94,203.053 220.864,203.053 220.864,199.975 218.839,199.975 218.839,203.053 		"/>
		<rect x="224.813" y="199.975" fill="#EF9B31" width="2.025" height="3.077"/>
		<polygon fill="#EF9B31" points="226.838,203.053 226.838,212.237 228.863,212.237 228.863,199.975 226.838,199.975 		"/>
		<polygon fill="#EF9B31" points="232.71,206.083 234.735,206.083 234.735,203.053 234.735,199.975 232.71,199.975 		"/>
		<rect x="234.735" y="199.975" fill="#EF9B31" width="2.025" height="3.077"/>
		<rect x="242.633" y="199.975" fill="#EF9B31" width="2.025" height="3.077"/>
		<rect x="244.658" y="199.975" fill="#EF9B31" width="2.025" height="3.077"/>
		<polygon fill="#EF9B31" points="246.683,203.053 246.683,206.083 248.607,206.083 248.607,199.975 246.683,199.975 		"/>
		<polygon fill="#EF9B31" points="248.607,218.392 250.632,218.392 250.632,206.083 250.632,199.975 248.607,199.975 
			248.607,206.083 		"/>
		<rect x="250.632" y="199.975" fill="#EF9B31" width="1.924" height="6.107"/>
		<polygon fill="#EF9B31" points="252.555,212.237 254.58,212.237 254.58,199.975 252.555,199.975 252.555,206.083 		"/>
		<rect x="258.529" y="199.975" fill="#EF9B31" width="2.025" height="24.571"/>
		<polygon fill="#EF9B31" points="260.554,224.546 260.554,239.98 262.579,239.98 262.579,199.975 260.554,199.975 		"/>
		<rect x="264.503" y="199.975" fill="#EF9B31" width="2.025" height="24.571"/>
		<rect x="268.452" y="199.975" fill="#EF9B31" width="2.025" height="3.077"/>
		<polygon fill="#EF9B31" points="272.4,209.207 272.4,199.975 270.477,199.975 270.477,203.053 270.477,209.207 		"/>
		<polygon fill="#EF9B31" points="272.502,209.207 274.425,209.207 274.425,199.975 272.4,199.975 272.4,209.207 		"/>
		<rect x="278.374" y="199.975" fill="#EF9B31" width="2.025" height="6.107"/>
		<polygon fill="#EF9B31" points="282.323,233.825 284.348,233.825 284.348,209.207 284.348,199.975 282.323,199.975 		"/>
		<rect x="284.348" y="199.975" fill="#EF9B31" width="2.025" height="9.232"/>
		<rect x="294.271" y="199.975" fill="#EF9B31" width="2.025" height="3.077"/>
		<rect x="302.168" y="199.975" fill="#EF9B31" width="2.025" height="6.107"/>
		<rect x="310.066" y="199.975" fill="#EF9B31" width="2.025" height="9.232"/>
		<polygon fill="#EF9B31" points="312.091,209.207 312.091,230.701 314.116,230.701 314.116,203.053 314.014,203.053 
			314.014,199.975 312.091,199.975 		"/>
		<polygon fill="#EF9B31" points="314.116,203.053 316.039,203.053 316.039,199.975 314.014,199.975 314.014,203.053 		"/>
		<polygon fill="#EF9B31" points="319.988,218.392 322.013,218.392 322.013,203.053 322.013,199.975 319.988,199.975 		"/>
		<rect x="322.013" y="199.975" fill="#EF9B31" width="2.025" height="3.077"/>
		<rect x="325.962" y="199.975" fill="#EF9B31" width="2.025" height="18.416"/>
		<rect x="329.911" y="199.975" fill="#EF9B31" width="2.025" height="3.077"/>
		<rect x="339.833" y="199.975" fill="#EF9B31" width="2.025" height="3.077"/>
		<rect x="353.705" y="199.975" fill="#EF9B31" width="2.025" height="3.077"/>
		<polygon fill="#EF9B31" points="355.73,203.053 355.73,206.083 357.654,206.083 357.654,199.975 355.73,199.975 		"/>
		<polygon fill="#EF9B31" points="357.654,212.237 359.679,212.237 359.679,199.975 357.654,199.975 357.654,206.083 		"/>
		<rect x="363.627" y="199.975" fill="#EF9B31" width="2.025" height="9.232"/>
		<rect x="367.576" y="199.975" fill="#EF9B31" width="2.025" height="3.077"/>
		<rect x="371.525" y="199.975" fill="#EF9B31" width="2.025" height="3.077"/>
		<rect x="373.55" y="199.975" fill="#EF9B31" width="2.025" height="3.077"/>
		<polygon fill="#EF9B31" points="375.575,203.053 375.575,212.237 377.6,212.237 377.6,203.053 377.499,203.053 377.499,199.975 
			375.575,199.975 		"/>
		<polygon fill="#EF9B31" points="377.6,203.053 379.524,203.053 379.524,199.975 377.499,199.975 377.499,203.053 		"/>
		<polygon fill="#EF9B31" points="379.524,215.362 381.549,215.362 381.549,199.975 379.524,199.975 379.524,203.053 		"/>
		<rect x="389.446" y="199.975" fill="#EF9B31" width="1.924" height="9.232"/>
		<polygon fill="#EF9B31" points="391.37,199.975 391.37,209.207 391.471,209.207 393.395,209.207 393.395,203.053 393.395,199.975 
					"/>
		<rect x="393.395" y="199.975" fill="#EF9B31" width="2.025" height="3.077"/>
		<rect x="429.035" y="199.975" fill="#EF9B31" width="2.025" height="6.107"/>
		<rect x="440.983" y="199.975" fill="#EF9B31" width="2.025" height="46.159"/>
		<polygon fill="#EF9B31" points="448.88,218.392 450.905,218.392 450.905,206.083 450.905,199.975 448.88,199.975 		"/>
		<rect x="450.905" y="199.975" fill="#EF9B31" width="2.025" height="6.107"/>
		<rect x="456.879" y="199.975" fill="#EF9B31" width="1.924" height="6.107"/>
		<polygon fill="#EF9B31" points="458.803,230.701 460.828,230.701 460.828,206.083 460.828,199.975 458.803,199.975 
			458.803,206.083 		"/>
		<rect x="460.828" y="199.975" fill="#EF9B31" width="1.924" height="6.107"/>
		<polygon fill="#EF9B31" points="462.752,212.237 464.777,212.237 464.777,199.975 462.752,199.975 462.752,206.083 		"/>
		<polygon fill="#EF9B31" points="464.777,221.516 466.802,221.516 466.802,199.975 464.777,199.975 464.777,212.237 		"/>
		<polygon fill="#EF9B31" points="468.726,215.362 470.751,215.362 470.751,206.083 470.751,199.975 468.726,199.975 		"/>
		<rect x="470.751" y="199.975" fill="#EF9B31" width="1.924" height="6.107"/>
		<polygon fill="#EF9B31" points="472.674,218.392 474.699,218.392 474.699,199.975 472.674,199.975 472.674,206.083 		"/>
		<polygon fill="#EF9B31" points="474.699,239.98 476.724,239.98 476.724,224.546 476.623,224.546 476.623,199.975 474.699,199.975 
			474.699,218.392 		"/>
		<polygon fill="#EF9B31" points="476.724,224.546 478.648,224.546 478.648,209.207 478.648,199.975 476.623,199.975 
			476.623,224.546 		"/>
		<rect x="478.648" y="199.975" fill="#EF9B31" width="2.025" height="9.232"/>
		<rect x="480.673" y="199.975" fill="#EF9B31" width="1.924" height="9.232"/>
		<polygon fill="#EF9B31" points="482.597,212.237 484.622,212.237 484.622,206.083 484.622,199.975 482.597,199.975 
			482.597,209.207 		"/>
		<rect x="484.622" y="199.975" fill="#EF9B31" width="1.924" height="6.107"/>
		<polygon fill="#EF9B31" points="486.546,218.392 488.571,218.392 488.571,199.975 486.546,199.975 486.546,206.083 		"/>
		<polygon fill="#EF9B31" points="488.571,236.855 490.596,236.855 490.596,212.237 490.494,212.237 490.494,199.975 
			488.571,199.975 488.571,218.392 		"/>
		<polygon fill="#EF9B31" points="490.596,212.237 492.519,212.237 492.519,199.975 490.494,199.975 490.494,212.237 		"/>
		<rect x="492.519" y="199.975" fill="#EF9B31" width="2.025" height="12.262"/>
		<rect x="500.417" y="199.975" fill="#EF9B31" width="2.025" height="3.077"/>
		<polygon fill="#EF9B31" points="504.467,209.207 504.467,199.975 502.442,199.975 502.442,203.053 502.442,209.207 		"/>
		<rect x="514.288" y="199.975" fill="#EF9B31" width="2.025" height="9.232"/>
		<polygon fill="#EF9B31" points="518.338,227.671 518.338,199.975 516.313,199.975 516.313,209.207 516.313,227.671 		"/>
		<rect x="520.262" y="199.975" fill="#EF9B31" width="2.025" height="6.107"/>
		<rect x="526.236" y="199.975" fill="#EF9B31" width="2.025" height="6.107"/>
		<rect x="528.261" y="199.975" fill="#EF9B31" width="2.025" height="6.107"/>
		<polygon fill="#EF9B31" points="532.21,233.825 534.235,233.825 534.235,224.546 534.133,224.546 534.133,199.975 532.21,199.975 
					"/>
		<polygon fill="#EF9B31" points="534.235,224.546 536.158,224.546 536.158,209.207 536.158,199.975 534.133,199.975 
			534.133,224.546 		"/>
		<polygon fill="#EF9B31" points="538.183,209.207 538.183,203.053 538.183,199.975 536.158,199.975 536.158,209.207 		"/>
		<rect x="538.183" y="199.975" fill="#EF9B31" width="1.924" height="3.077"/>
		<polygon fill="#EF9B31" points="540.107,209.207 542.132,209.207 542.132,199.975 540.107,199.975 540.107,203.053 		"/>
		<rect x="544.056" y="199.975" fill="#EF9B31" width="2.025" height="12.262"/>
		<rect x="546.081" y="199.975" fill="#EF9B31" width="2.025" height="12.262"/>
		<rect x="550.03" y="199.975" fill="#EF9B31" width="2.025" height="3.077"/>
		<rect x="561.977" y="199.975" fill="#EF9B31" width="2.025" height="3.077"/>
		<rect x="569.875" y="199.975" fill="#EF9B31" width="2.025" height="3.077"/>
		<rect x="601.566" y="199.975" fill="#EF9B31" width="2.025" height="3.077"/>
		<rect x="607.54" y="199.975" fill="#EF9B31" width="2.025" height="3.077"/>
		<rect x="621.412" y="199.975" fill="#EF9B31" width="2.025" height="15.386"/>
		<rect x="625.36" y="199.975" fill="#EF9B31" width="2.025" height="3.077"/>
		<rect x="631.334" y="199.975" fill="#EF9B31" width="2.025" height="6.107"/>
		<rect x="639.232" y="199.975" fill="#EF9B31" width="2.025" height="3.077"/>
		<polygon fill="#EF9B31" points="643.282,315.443 643.282,233.825 643.18,233.825 643.18,199.975 641.257,199.975 641.257,203.053 
			641.257,315.443 		"/>
		<polygon fill="#EF9B31" points="643.282,233.825 645.205,233.825 645.205,209.207 645.205,199.975 643.18,199.975 643.18,233.825 
					"/>
		<rect x="645.205" y="199.975" fill="#EF9B31" width="2.025" height="9.232"/>
		<polygon fill="#EF9B31" points="647.23,218.392 649.255,218.392 649.255,199.975 647.23,199.975 647.23,209.207 		"/>
		<rect x="651.179" y="199.975" fill="#EF9B31" width="1.924" height="3.077"/>
		<polygon fill="#EF9B31" points="653.103,199.975 653.103,203.053 653.204,203.053 655.128,203.053 655.128,199.975 		"/>
	</g>
</g>
<style>
#g-verba-tema02-query02-gurtel-vs-ere-desktop-img rect, #g-verba-tema02-query02-gurtel-vs-ere-desktop-img circle, #g-verba-tema02-query02-gurtel-vs-ere-desktop-img path, #g-verba-tema02-query02-gurtel-vs-ere-desktop-img line, #g-verba-tema02-query02-gurtel-vs-ere-desktop-img polyline { vector-effect: non-scaling-stroke; }
</style>
</svg>

