<?xml version="1.0" encoding="utf-8"?>
<!-- Generator: Adobe Illustrator 24.0.3, SVG Export Plug-In . SVG Version: 6.00 Build 0)  -->
<svg version="1.2" baseProfile="tiny" id="g-verba-vignette08-vox-desktop-img" xmlns="http://www.w3.org/2000/svg" xmlns:xlink="http://www.w3.org/1999/xlink"
	 x="0px" y="0px" viewBox="0 0 673 492.76" xml:space="preserve">
<g>
	<g transform="translate(30.96686728889601, 275)">
		<path display="none" fill="none" stroke="#212529" d="M6.5,151.885h611.1"/>
		<g transform="translate(22.092638637733575,0)">
			<line display="none" fill="none" stroke="#212529" x1="6" y1="-108.615" x2="6" y2="151.385"/>
			
				
		</g>
		<g transform="translate(47.310993068113326,0)">
			<line display="none" fill="none" stroke="#212529" x1="6" y1="-108.615" x2="6" y2="151.385"/>
			
				
		</g>
		<g transform="translate(72.80647227245328,0)">
			<line display="none" fill="none" stroke="#212529" x1="6" y1="-108.615" x2="6" y2="151.385"/>
			
				
		</g>
		<g transform="translate(98.31349834237491,0)">
			<line display="none" fill="none" stroke="#212529" x1="6" y1="-108.615" x2="6" y2="151.385"/>
			
				
		</g>
		<g transform="translate(123.24318113321277,0)">
			<line display="none" fill="none" stroke="#212529" x1="6" y1="-108.615" x2="6" y2="151.385"/>
			
				
		</g>
		<g transform="translate(148.46153556359252,0)">
			<line display="none" fill="none" stroke="#212529" x1="6" y1="-108.615" x2="6" y2="151.385"/>
			
				
		</g>
		<g transform="translate(173.9570147679325,0)">
			<line display="none" fill="none" stroke="#212529" x1="6" y1="-108.615" x2="6" y2="151.385"/>
			
				
		</g>
		<g transform="translate(199.46404083785413,0)">
			<line display="none" fill="none" stroke="#212529" x1="6" y1="-108.615" x2="6" y2="151.385"/>
			
				
		</g>
		<g transform="translate(224.6708484026522,0)">
			<line display="none" fill="none" stroke="#212529" x1="6" y1="-108.615" x2="6" y2="151.385"/>
			
				
		</g>
		<g transform="translate(249.88920283303193,0)">
			<line display="none" fill="none" stroke="#212529" x1="6" y1="-108.615" x2="6" y2="151.385"/>
			
				
		</g>
		<g transform="translate(275.3846820373719,0)">
			<line display="none" fill="none" stroke="#212529" x1="6" y1="-108.615" x2="6" y2="151.385"/>
			
				
		</g>
		<g transform="translate(300.89170810729354,0)">
			<line display="none" fill="none" stroke="#212529" x1="6" y1="-108.615" x2="6" y2="151.385"/>
			
				
		</g>
		<g transform="translate(325.8213908981314,0)">
			<line display="none" fill="none" stroke="#212529" x1="6" y1="-108.615" x2="6" y2="151.385"/>
			
				
		</g>
		<g transform="translate(351.0397453285112,0)">
			<line display="none" fill="none" stroke="#212529" x1="6" y1="-108.615" x2="6" y2="151.385"/>
			
				
		</g>
		<g transform="translate(376.5352245328511,0)">
			<line display="none" fill="none" stroke="#212529" x1="6" y1="-108.615" x2="6" y2="151.385"/>
			
				
		</g>
		<g transform="translate(402.04225060277275,0)">
			<line display="none" fill="none" stroke="#212529" x1="6" y1="-108.615" x2="6" y2="151.385"/>
			
				
		</g>
		<g transform="translate(426.97193339361064,0)">
			<line display="none" fill="none" stroke="#212529" x1="6" y1="-108.615" x2="6" y2="151.385"/>
			
				
		</g>
		<g transform="translate(452.19028782399033,0)">
			<line display="none" fill="none" stroke="#212529" x1="6" y1="-108.615" x2="6" y2="151.385"/>
			
				
		</g>
		<g transform="translate(477.6857670283303,0)">
			<line display="none" fill="none" stroke="#212529" x1="6" y1="-108.615" x2="6" y2="151.385"/>
			
				
		</g>
		<g transform="translate(503.19279309825197,0)">
			<line display="none" fill="none" stroke="#212529" x1="6" y1="-108.615" x2="6" y2="151.385"/>
			
				
		</g>
		<g transform="translate(528.1224758890899,0)">
			<line display="none" fill="none" stroke="#212529" x1="6" y1="-108.615" x2="6" y2="151.385"/>
			
				
		</g>
		<g transform="translate(553.3408303194695,0)">
			<line display="none" fill="none" stroke="#212529" x1="6" y1="-108.615" x2="6" y2="151.385"/>
			
				
		</g>
		<g transform="translate(578.8363095238095,0)">
			<line display="none" fill="none" stroke="#212529" x1="6" y1="-108.615" x2="6" y2="151.385"/>
			
				
		</g>
		<g transform="translate(604.3433355937311,0)">
			<line display="none" fill="none" stroke="#212529" x1="6" y1="-108.615" x2="6" y2="151.385"/>
			
				
		</g>
	</g>
	<g transform="translate(30.96686728889601, 290)">
		<path display="none" fill="none" stroke="#212529" d="M6.5,151.885h611.1"/>
		<g transform="translate(98.31349834237491,0)">
			<line display="none" fill="none" stroke="#212529" x1="6" y1="-108.615" x2="6" y2="151.385"/>
			
				<text transform="matrix(1 0 0 1 -5.123 167.4848)" display="none" fill="#212529" font-family="'ElMessiri-Bold'" font-size="10px">2015</text>
		</g>
		<g transform="translate(199.46404083785413,0)">
			<line display="none" fill="none" stroke="#212529" x1="6" y1="-108.615" x2="6" y2="151.385"/>
			
				<text transform="matrix(1 0 0 1 -5.123 167.4848)" display="none" fill="#212529" font-family="'ElMessiri-Bold'" font-size="10px">2016</text>
		</g>
		<g transform="translate(300.89170810729354,0)">
			<line display="none" fill="none" stroke="#212529" x1="6" y1="-108.615" x2="6" y2="151.385"/>
			
				<text transform="matrix(1 0 0 1 -5.1231 167.4848)" display="none" fill="#212529" font-family="'ElMessiri-Bold'" font-size="10px">2017</text>
		</g>
		<g transform="translate(402.04225060277275,0)">
			<line display="none" fill="none" stroke="#212529" x1="6" y1="-108.615" x2="6" y2="151.385"/>
			
				<text transform="matrix(1 0 0 1 -5.1231 167.4848)" display="none" fill="#212529" font-family="'ElMessiri-Bold'" font-size="10px">2018</text>
		</g>
		<g transform="translate(503.19279309825197,0)">
			<line display="none" fill="none" stroke="#212529" x1="6" y1="-108.615" x2="6" y2="151.385"/>
			
				<text transform="matrix(1 0 0 1 -5.123 167.4848)" display="none" fill="#212529" font-family="'ElMessiri-Bold'" font-size="10px">2019</text>
		</g>
		<g transform="translate(604.3433355937311,0)">
			<line display="none" fill="none" stroke="#212529" x1="6" y1="-108.615" x2="6" y2="151.385"/>
			
				<text transform="matrix(1 0 0 1 -5.1231 167.4848)" display="none" fill="#212529" font-family="'ElMessiri-Bold'" font-size="10px">2020</text>
		</g>
	</g>
	<g transform="translate(30, 0)">
		<path display="none" fill="none" stroke="#212529" d="M0,261.885h6.5v-130H0"/>
		<g transform="translate(0,130.5)">
			<line fill="none" stroke="#212529" stroke-opacity="0.12" x1="6" y1="131.385" x2="619" y2="131.385"/>
			
				
		</g>
		<g transform="translate(0,111.92857142857143)">
			<line fill="none" stroke="#212529" stroke-opacity="0.12" x1="6" y1="131.385" x2="619" y2="131.385"/>
			
				
		</g>
		<g transform="translate(0,93.35714285714286)">
			<line fill="none" stroke="#212529" stroke-opacity="0.12" x1="6" y1="131.385" x2="619" y2="131.385"/>
			
				
		</g>
		<g transform="translate(0,74.78571428571428)">
			<line fill="none" stroke="#212529" stroke-opacity="0.12" x1="6" y1="131.385" x2="619" y2="131.385"/>
			
				
		</g>
		<g transform="translate(0,56.214285714285715)">
			<line fill="none" stroke="#212529" stroke-opacity="0.12" x1="6" y1="131.385" x2="619" y2="131.385"/>
			
				
		</g>
		<g transform="translate(0,37.64285714285714)">
			<line fill="none" stroke="#212529" stroke-opacity="0.12" x1="6" y1="131.385" x2="619" y2="131.385"/>
			
				
		</g>
		<g transform="translate(0,19.071428571428577)">
			<line fill="none" stroke="#212529" stroke-opacity="0.12" x1="6" y1="131.385" x2="619" y2="131.385"/>
			
				
		</g>
		<g transform="translate(0,0.5)">
			<line fill="none" stroke="#212529" stroke-opacity="0.12" x1="6" y1="131.385" x2="619" y2="131.385"/>
			
				
		</g>
	</g>
	<g>
		<rect x="36" y="259.485" width="1.9" height="3.7"/>
		<polygon points="37.9,261.385 39.9,261.385 39.9,261.385 		"/>
		<rect x="39.9" y="257.685" width="1.9" height="7.4"/>
		<polygon points="41.8,261.385 43.8,261.385 43.8,261.385 		"/>
		<polygon points="43.8,261.385 45.7,261.385 45.7,261.385 		"/>
		<polygon points="45.7,261.385 47.6,261.385 47.6,261.385 		"/>
		<polygon points="47.6,261.385 49.6,261.385 49.6,261.385 		"/>
		<polygon points="49.6,261.385 51.5,261.385 51.5,261.385 		"/>
		<polygon points="51.5,261.385 53.5,261.385 53.5,261.385 		"/>
		<polygon points="53.5,261.385 55.4,261.385 55.4,261.385 		"/>
		<polygon points="55.4,261.385 57.3,261.385 57.3,261.385 		"/>
		<polygon points="57.3,261.385 59.3,261.385 59.3,261.385 		"/>
		<polygon points="59.3,261.385 61.2,261.385 61.2,261.385 		"/>
		<polygon points="61.2,261.385 63.2,261.385 63.2,261.385 		"/>
		<polygon points="63.2,261.385 65.1,261.385 65.1,261.385 		"/>
		<polygon points="65.1,261.385 67,261.385 67,261.385 		"/>
		<polygon points="67,261.385 69,261.385 69,261.385 		"/>
		<polygon points="69,261.385 70.9,261.385 70.9,261.385 		"/>
		<polygon points="70.9,261.385 72.9,261.385 72.9,261.385 		"/>
		<polygon points="72.9,261.385 74.8,261.385 74.8,261.385 		"/>
		<polygon points="74.8,261.385 76.7,261.385 76.7,261.385 		"/>
		<polygon points="76.7,261.385 78.7,261.385 78.7,261.385 		"/>
		<polygon points="78.7,261.385 80.6,261.385 80.6,261.385 		"/>
		<polygon points="80.6,261.385 82.6,261.385 82.6,261.385 		"/>
		<polygon points="82.6,261.385 84.5,261.385 84.5,261.385 		"/>
		<polygon points="84.5,261.385 86.4,261.385 86.4,261.385 		"/>
		<polygon points="86.4,261.385 88.4,261.385 88.4,261.385 		"/>
		<polygon points="88.4,261.385 90.3,261.385 90.3,261.385 		"/>
		<polygon points="90.3,261.385 92.3,261.385 92.3,261.385 		"/>
		<polygon points="92.3,261.385 94.2,261.385 94.2,261.385 		"/>
		<polygon points="94.2,261.385 96.1,261.385 96.1,261.385 		"/>
		<polygon points="96.1,261.385 98.1,261.385 98.1,261.385 		"/>
		<polygon points="98.1,261.385 100,261.385 100,261.385 		"/>
		<polygon points="100,261.385 102,261.385 102,261.385 		"/>
		<polygon points="102,261.385 103.9,261.385 103.9,261.385 		"/>
		<polygon points="103.9,261.385 105.8,261.385 105.8,261.385 		"/>
		<polygon points="105.8,261.385 107.8,261.385 107.8,261.385 		"/>
		<polygon points="107.8,261.385 109.7,261.385 109.7,261.385 		"/>
		<polygon points="109.7,261.385 111.7,261.385 111.7,261.385 		"/>
		<polygon points="111.7,261.385 113.6,261.385 113.6,261.385 		"/>
		<polygon points="113.6,261.385 115.5,261.385 115.5,261.385 		"/>
		<polygon points="115.5,261.385 117.5,261.385 117.5,261.385 		"/>
		<polygon points="117.5,261.385 119.4,261.385 119.4,261.385 		"/>
		<rect x="119.4" y="257.685" width="1.9" height="7.4"/>
		<polygon points="121.4,261.385 123.3,261.385 123.3,261.385 		"/>
		<polygon points="123.3,261.385 125.2,261.385 125.2,261.385 		"/>
		<polygon points="125.2,261.385 127.2,261.385 127.2,261.385 		"/>
		<polygon points="127.2,261.385 129.1,261.385 129.1,261.385 		"/>
		<polygon points="129.1,261.385 131.1,261.385 131.1,261.385 		"/>
		<polygon points="131.1,261.385 133,261.385 133,261.385 		"/>
		<polygon points="133,261.385 134.9,261.385 134.9,261.385 		"/>
		<polygon points="134.9,261.385 136.9,261.385 136.9,261.385 		"/>
		<polygon points="136.9,261.385 138.8,261.385 138.8,261.385 		"/>
		<polygon points="138.8,261.385 140.8,261.385 140.8,261.385 		"/>
		<polygon points="140.8,261.385 142.7,261.385 142.7,261.385 		"/>
		<polygon points="142.7,261.385 144.6,261.385 144.6,261.385 		"/>
		<polygon points="144.6,261.385 146.6,261.385 146.6,261.385 		"/>
		<polygon points="146.6,261.385 148.5,261.385 148.5,261.385 		"/>
		<polygon points="148.5,261.385 150.5,261.385 150.5,261.385 		"/>
		<polygon points="150.5,261.385 152.4,261.385 152.4,261.385 		"/>
		<rect x="152.4" y="260.485" width="1.9" height="1.9"/>
		<polygon points="154.3,261.385 156.3,261.385 156.3,261.385 		"/>
		<polygon points="156.3,261.385 158.2,261.385 158.2,261.385 		"/>
		<polygon points="158.2,261.385 160.2,261.385 160.2,261.385 		"/>
		<polygon points="160.2,261.385 162.1,261.385 162.1,261.385 		"/>
		<polygon points="162.1,261.385 164,261.385 164,261.385 		"/>
		<polygon points="164,261.385 166,261.385 166,261.385 		"/>
		<polygon points="166,261.385 167.9,261.385 167.9,261.385 		"/>
		<polygon points="167.9,261.385 169.9,261.385 169.9,261.385 		"/>
		<polygon points="169.9,261.385 171.8,261.385 171.8,261.385 		"/>
		<polygon points="171.8,261.385 173.7,261.385 173.7,261.385 		"/>
		<polygon points="173.7,261.385 175.7,261.385 175.7,261.385 		"/>
		<polygon points="175.7,261.385 177.6,261.385 177.6,261.385 		"/>
		<polygon points="177.6,261.385 179.6,261.385 179.6,261.385 		"/>
		<polygon points="179.6,261.385 181.5,261.385 181.5,261.385 		"/>
		<polygon points="181.5,261.385 183.4,261.385 183.4,261.385 		"/>
		<polygon points="183.4,261.385 185.4,261.385 185.4,261.385 		"/>
		<polygon points="185.4,261.385 187.3,261.385 187.3,261.385 		"/>
		<polygon points="187.3,261.385 189.2,261.385 189.2,261.385 		"/>
		<polygon points="189.2,261.385 191.2,261.385 191.2,261.385 		"/>
		<polygon points="191.2,261.385 193.1,261.385 193.1,261.385 		"/>
		<polygon points="193.1,261.385 195.1,261.385 195.1,261.385 		"/>
		<polygon points="195.1,261.385 197,261.385 197,261.385 		"/>
		<polygon points="197,261.385 198.9,261.385 198.9,261.385 		"/>
		<rect x="198.9" y="256.785" width="1.9" height="9.3"/>
		<polygon points="200.9,261.385 202.8,261.385 202.8,261.385 		"/>
		<polygon points="202.8,261.385 204.8,261.385 204.8,261.385 		"/>
		<polygon points="204.8,261.385 206.7,261.385 206.7,261.385 		"/>
		<rect x="206.7" y="259.485" width="1.9" height="3.7"/>
		<polygon points="208.6,261.385 210.6,261.385 210.6,261.385 		"/>
		<polygon points="210.6,261.385 212.5,261.385 212.5,261.385 		"/>
		<polygon points="212.5,261.385 214.5,261.385 214.5,261.385 		"/>
		<polygon points="214.5,261.385 216.4,261.385 216.4,261.385 		"/>
		<polygon points="216.4,261.385 218.3,261.385 218.3,261.385 		"/>
		<polygon points="218.3,261.385 220.3,261.385 220.3,261.385 		"/>
		<polygon points="220.3,261.385 222.2,261.385 222.2,261.385 		"/>
		<polygon points="222.2,261.385 224.2,261.385 224.2,261.385 		"/>
		<polygon points="224.2,261.385 226.1,261.385 226.1,261.385 		"/>
		<polygon points="226.1,261.385 228,261.385 228,261.385 		"/>
		<polygon points="228,261.385 230,261.385 230,261.385 		"/>
		<polygon points="230,261.385 231.9,261.385 231.9,261.385 		"/>
		<polygon points="231.9,261.385 233.9,261.385 233.9,261.385 		"/>
		<polygon points="233.9,261.385 235.8,261.385 235.8,261.385 		"/>
		<polygon points="235.8,261.385 237.7,261.385 237.7,261.385 		"/>
		<polygon points="237.7,261.385 239.7,261.385 239.7,261.385 		"/>
		<polygon points="239.7,261.385 241.6,261.385 241.6,261.385 		"/>
		<polygon points="241.6,261.385 243.6,261.385 243.6,261.385 		"/>
		<polygon points="243.6,261.385 245.5,261.385 245.5,261.385 		"/>
		<polygon points="245.5,261.385 247.4,261.385 247.4,261.385 		"/>
		<polygon points="247.4,261.385 249.4,261.385 249.4,261.385 		"/>
		<polygon points="249.4,261.385 251.3,261.385 251.3,261.385 		"/>
		<polygon points="251.3,261.385 253.3,261.385 253.3,261.385 		"/>
		<polygon points="253.3,261.385 255.2,261.385 255.2,261.385 		"/>
		<polygon points="255.2,261.385 257.1,261.385 257.1,261.385 		"/>
		<polygon points="257.1,261.385 259.1,261.385 259.1,261.385 		"/>
		<polygon points="259.1,261.385 261,261.385 261,261.385 		"/>
		<polygon points="261,261.385 263,261.385 263,261.385 		"/>
		<polygon points="263,261.385 264.9,261.385 264.9,261.385 		"/>
		<polygon points="264.9,261.385 266.8,261.385 266.8,261.385 		"/>
		<polygon points="266.8,261.385 268.8,261.385 268.8,261.385 		"/>
		<polygon points="268.8,261.385 270.7,261.385 270.7,261.385 		"/>
		<polygon points="270.7,261.385 272.7,261.385 272.7,261.385 		"/>
		<polygon points="272.7,261.385 274.6,261.385 274.6,261.385 		"/>
		<rect x="274.6" y="259.485" width="1.9" height="3.7"/>
		<polygon points="276.5,261.385 278.5,261.385 278.5,261.385 		"/>
		<polygon points="278.5,261.385 280.4,261.385 280.4,261.385 		"/>
		<polygon points="280.4,261.385 282.4,261.385 282.4,261.385 		"/>
		<rect x="282.4" y="259.485" width="1.9" height="3.7"/>
		<polygon points="284.3,261.385 286.2,261.385 286.2,261.385 		"/>
		<polygon points="286.2,261.385 288.2,261.385 288.2,261.385 		"/>
		<polygon points="288.2,261.385 290.1,261.385 290.1,261.385 		"/>
		<polygon points="290.1,261.385 292.1,261.385 292.1,261.385 		"/>
		<polygon points="292.1,261.385 294,261.385 294,261.385 		"/>
		<polygon points="294,261.385 295.9,261.385 295.9,261.385 		"/>
		<polygon points="295.9,261.385 297.9,261.385 297.9,261.385 		"/>
		<polygon points="297.9,261.385 299.8,261.385 299.8,261.385 		"/>
		<polygon points="299.8,261.385 301.8,261.385 301.8,261.385 		"/>
		<polygon points="301.8,261.385 303.7,261.385 303.7,261.385 		"/>
		<polygon points="303.7,261.385 305.6,261.385 305.6,261.385 		"/>
		<polygon points="305.6,261.385 307.6,261.385 307.6,261.385 		"/>
		<polygon points="307.6,261.385 309.5,261.385 309.5,261.385 		"/>
		<polygon points="309.5,261.385 311.5,261.385 311.5,261.385 		"/>
		<polygon points="311.5,261.385 313.4,261.385 313.4,261.385 		"/>
		<polygon points="313.4,261.385 315.3,261.385 315.3,261.385 		"/>
		<polygon points="315.3,261.385 317.3,261.385 317.3,261.385 		"/>
		<polygon points="317.3,261.385 319.2,261.385 319.2,261.385 		"/>
		<polygon points="319.2,261.385 321.2,261.385 321.2,261.385 		"/>
		<polygon points="321.2,261.385 323.1,261.385 323.1,261.385 		"/>
		<rect x="323.1" y="260.485" width="1.9" height="1.9"/>
		<polygon points="325,261.385 327,261.385 327,261.385 		"/>
		<polygon points="327,261.385 328.9,261.385 328.9,261.385 		"/>
		<polygon points="328.9,261.385 330.9,261.385 330.9,261.385 		"/>
		<polygon points="330.9,261.385 332.8,261.385 332.8,261.385 		"/>
		<polygon points="332.8,261.385 334.7,261.385 334.7,261.385 		"/>
		<polygon points="334.7,261.385 336.7,261.385 336.7,261.385 		"/>
		<polygon points="336.7,261.385 338.6,261.385 338.6,261.385 		"/>
		<polygon points="338.6,261.385 340.6,261.385 340.6,261.385 		"/>
		<polygon points="340.6,261.385 342.5,261.385 342.5,261.385 		"/>
		<rect x="342.5" y="260.485" width="1.9" height="1.9"/>
		<polygon points="344.4,261.385 346.4,261.385 346.4,261.385 		"/>
		<polygon points="346.4,261.385 348.3,261.385 348.3,261.385 		"/>
		<polygon points="348.3,261.385 350.3,261.385 350.3,261.385 		"/>
		<polygon points="350.3,261.385 352.2,261.385 352.2,261.385 		"/>
		<polygon points="352.2,261.385 354.1,261.385 354.1,261.385 		"/>
		<rect x="354.1" y="260.485" width="1.9" height="1.9"/>
		<polygon points="356.1,261.385 358,261.385 358,261.385 		"/>
		<polygon points="358,261.385 360,261.385 360,261.385 		"/>
		<polygon points="360,261.385 361.9,261.385 361.9,261.385 		"/>
		<polygon points="361.9,261.385 363.8,261.385 363.8,261.385 		"/>
		<polygon points="363.8,261.385 365.8,261.385 365.8,261.385 		"/>
		<polygon points="365.8,261.385 367.7,261.385 367.7,261.385 		"/>
		<polygon points="367.7,261.385 369.7,261.385 369.7,261.385 		"/>
		<polygon points="369.7,261.385 371.6,261.385 371.6,261.385 		"/>
		<polygon points="371.6,261.385 373.5,261.385 373.5,261.385 		"/>
		<polygon points="373.5,261.385 375.5,261.385 375.5,261.385 		"/>
		<polygon points="375.5,261.385 377.4,261.385 377.4,261.385 		"/>
		<polygon points="377.4,261.385 379.4,261.385 379.4,261.385 		"/>
		<polygon points="379.4,261.385 381.3,261.385 381.3,261.385 		"/>
		<polygon points="381.3,261.385 383.2,261.385 383.2,261.385 		"/>
		<polygon points="383.2,261.385 385.2,261.385 385.2,261.385 		"/>
		<polygon points="385.2,261.385 387.1,261.385 387.1,261.385 		"/>
		<polygon points="387.1,261.385 389.1,261.385 389.1,261.385 		"/>
		<polygon points="389.1,261.385 391,261.385 391,261.385 		"/>
		<polygon points="391,261.385 392.9,261.385 392.9,261.385 		"/>
		<polygon points="392.9,261.385 394.9,261.385 394.9,261.385 		"/>
		<polygon points="394.9,261.385 396.8,261.385 396.8,261.385 		"/>
		<polygon points="396.8,261.385 398.8,261.385 398.8,261.385 		"/>
		<polygon points="398.8,261.385 400.7,261.385 400.7,261.385 		"/>
		<polygon points="400.7,261.385 402.6,261.385 402.6,261.385 		"/>
		<polygon points="402.6,261.385 404.6,261.385 404.6,261.385 		"/>
		<polygon points="404.6,261.385 406.5,261.385 406.5,261.385 		"/>
		<polygon points="406.5,261.385 408.5,261.385 408.5,261.385 		"/>
		<polygon points="408.5,261.385 410.4,261.385 410.4,261.385 		"/>
		<polygon points="410.4,261.385 412.3,261.385 412.3,261.385 		"/>
		<polygon points="412.3,261.385 414.3,261.385 414.3,261.385 		"/>
		<rect x="414.3" y="259.485" width="1.9" height="3.7"/>
		<polygon points="416.2,261.385 418.2,261.385 418.2,261.385 		"/>
		<polygon points="418.2,261.385 420.1,261.385 420.1,261.385 		"/>
		<polygon points="420.1,261.385 422,261.385 422,261.385 		"/>
		<polygon points="422,261.385 424,261.385 424,261.385 		"/>
		<polygon points="424,261.385 425.9,261.385 425.9,261.385 		"/>
		<polygon points="425.9,261.385 427.9,261.385 427.9,261.385 		"/>
		<rect x="427.9" y="258.585" width="1.9" height="5.6"/>
		<polygon points="429.8,261.385 431.7,261.385 431.7,261.385 		"/>
		<polygon points="431.7,261.385 433.7,261.385 433.7,261.385 		"/>
		<polygon points="433.7,261.385 435.6,261.385 435.6,261.385 		"/>
		<polygon points="435.6,261.385 437.6,261.385 437.6,261.385 		"/>
		<polygon points="437.6,261.385 439.5,261.385 439.5,261.385 		"/>
		<polygon points="439.5,261.385 441.4,261.385 441.4,261.385 		"/>
		<polygon points="441.4,261.385 443.4,261.385 443.4,261.385 		"/>
		<rect x="443.4" y="260.485" width="1.9" height="1.9"/>
		<polygon points="445.3,261.385 447.3,261.385 447.3,261.385 		"/>
		<polygon points="447.3,261.385 449.2,261.385 449.2,261.385 		"/>
		<polygon points="449.2,261.385 451.1,261.385 451.1,261.385 		"/>
		<rect x="451.1" y="259.485" width="1.9" height="3.7"/>
		<polygon points="453.1,261.385 455,261.385 455,261.385 		"/>
		<polygon points="455,261.385 457,261.385 457,261.385 		"/>
		<polygon points="457,261.385 458.9,261.385 458.9,261.385 		"/>
		<polygon points="458.9,261.385 460.8,261.385 460.8,261.385 		"/>
		<polygon points="460.8,261.385 462.8,261.385 462.8,261.385 		"/>
		<polygon points="462.8,261.385 464.7,261.385 464.7,261.385 		"/>
		<polygon points="464.7,261.385 466.7,261.385 466.7,261.385 		"/>
		<polygon points="466.7,261.385 468.6,261.385 468.6,261.385 		"/>
		<polygon points="468.6,261.385 470.5,261.385 470.5,261.385 		"/>
		<polygon points="470.5,261.385 472.5,261.385 472.5,261.385 		"/>
		<rect x="472.5" y="260.485" width="1.9" height="1.9"/>
		<polygon points="474.4,261.385 476.4,261.385 476.4,261.385 		"/>
		<polygon points="476.4,261.385 478.3,261.385 478.3,261.385 		"/>
		<polygon points="478.3,261.385 480.2,261.385 480.2,261.385 		"/>
		<polygon points="480.2,261.385 482.2,261.385 482.2,261.385 		"/>
		<polygon points="482.2,261.385 484.1,261.385 484.1,261.385 		"/>
		<polygon points="484.1,261.385 486.1,261.385 486.1,261.385 		"/>
		<polygon points="486.1,261.385 488,261.385 488,261.385 		"/>
		<polygon points="488,261.385 489.9,261.385 489.9,261.385 		"/>
		<polygon points="489.9,261.385 491.9,261.385 491.9,261.385 		"/>
		<polygon points="491.9,261.385 493.8,261.385 493.8,261.385 		"/>
		<polygon points="493.8,261.385 495.8,261.385 495.8,261.385 		"/>
		<polygon points="495.8,261.385 497.7,261.385 497.7,261.385 		"/>
		<polygon points="497.7,261.385 499.6,261.385 499.6,261.385 		"/>
		<polygon points="499.6,261.385 501.6,261.385 501.6,261.385 		"/>
		<polygon points="501.6,261.385 503.5,261.385 503.5,261.385 		"/>
		<polygon points="503.5,261.385 505.4,261.385 505.4,261.385 		"/>
		<polygon points="505.4,261.385 507.4,261.385 507.4,261.385 		"/>
		<polygon points="507.4,261.385 509.3,261.385 509.3,261.385 		"/>
		<polygon points="509.3,261.385 511.3,261.385 511.3,261.385 		"/>
		<rect x="511.3" y="260.485" width="1.9" height="1.9"/>
		<rect x="513.2" y="254.885" width="1.9" height="13"/>
		<rect x="515.1" y="248.385" width="1.9" height="26"/>
		<rect x="517.1" y="259.485" width="1.9" height="3.7"/>
		<rect x="519" y="259.485" width="1.9" height="3.7"/>
		<rect x="521" y="250.285" width="1.9" height="22.3"/>
		<rect x="522.9" y="252.985" width="1.9" height="16.7"/>
		<rect x="524.8" y="256.785" width="1.9" height="9.3"/>
		<rect x="526.8" y="258.585" width="1.9" height="5.6"/>
		<rect x="528.7" y="239.085" width="1.9" height="44.6"/>
		<rect x="530.7" y="187.985" width="1.9" height="146.7"/>
		<rect x="532.6" y="242.785" width="1.9" height="37.1"/>
		<rect x="534.5" y="254.885" width="1.9" height="13"/>
		<rect x="536.5" y="200.085" width="1.9" height="122.6"/>
		<rect x="538.4" y="190.785" width="1.9" height="141.1"/>
		<rect x="540.4" y="138.785" width="1.9" height="245.1"/>
		<rect x="542.3" y="186.185" width="1.9" height="150.4"/>
		<rect x="544.2" y="249.285" width="1.9" height="24.1"/>
		<rect x="546.2" y="252.985" width="1.9" height="16.7"/>
		<rect x="548.1" y="231.685" width="1.9" height="59.4"/>
		<rect x="550.1" y="242.785" width="1.9" height="37.1"/>
		<rect x="552" y="226.085" width="1.9" height="70.6"/>
		<rect x="553.9" y="238.185" width="1.9" height="46.4"/>
		<rect x="555.9" y="231.685" width="1.9" height="59.4"/>
		<rect x="557.8" y="245.585" width="1.9" height="31.6"/>
		<rect x="559.8" y="244.685" width="1.9" height="33.4"/>
		<rect x="561.7" y="239.985" width="1.9" height="42.7"/>
		<rect x="563.6" y="250.285" width="1.9" height="22.3"/>
		<rect x="565.6" y="232.585" width="1.9" height="57.6"/>
		<rect x="567.5" y="238.185" width="1.9" height="46.4"/>
		<rect x="569.5" y="239.985" width="1.9" height="42.7"/>
		<rect x="571.4" y="197.285" width="1.9" height="128.1"/>
		<rect x="573.3" y="252.085" width="1.9" height="18.6"/>
		<rect x="575.3" y="243.785" width="1.9" height="35.3"/>
		<rect x="577.2" y="222.385" width="1.9" height="78"/>
		<rect x="579.2" y="177.785" width="1.9" height="167.1"/>
		<rect x="581.1" y="202.885" width="1.9" height="117"/>
		<rect x="583" y="138.785" width="1.9" height="245.1"/>
		<rect x="585" y="205.685" width="1.9" height="111.4"/>
		<rect x="586.9" y="195.485" width="1.9" height="131.9"/>
		<rect x="588.9" y="175.985" width="1.9" height="170.9"/>
		<rect x="590.8" y="200.985" width="1.9" height="120.7"/>
		<rect x="592.7" y="228.885" width="1.9" height="65"/>
		<rect x="594.7" y="237.285" width="1.9" height="48.3"/>
		<rect x="596.6" y="243.785" width="1.9" height="35.3"/>
		<rect x="598.6" y="254.885" width="1.9" height="13"/>
		<rect x="600.5" y="226.985" width="1.9" height="68.7"/>
		<rect x="602.4" y="256.785" width="1.9" height="9.3"/>
		<rect x="604.4" y="251.185" width="1.9" height="20.4"/>
		<rect x="606.3" y="254.885" width="1.9" height="13"/>
		<rect x="608.3" y="246.485" width="1.9" height="29.7"/>
		<rect x="610.2" y="244.685" width="1.9" height="33.4"/>
		<rect x="612.1" y="252.985" width="1.9" height="16.7"/>
		<rect x="614.1" y="229.785" width="1.9" height="63.1"/>
		<rect x="616" y="239.985" width="1.9" height="42.7"/>
		<rect x="618" y="245.585" width="1.9" height="31.6"/>
		<rect x="619.9" y="222.385" width="1.9" height="78"/>
		<rect x="621.8" y="225.185" width="1.9" height="72.4"/>
		<rect x="623.8" y="230.785" width="1.9" height="61.3"/>
		<rect x="625.7" y="223.285" width="1.9" height="76.1"/>
		<rect x="627.7" y="240.985" width="1.9" height="40.9"/>
		<rect x="629.6" y="222.385" width="1.9" height="78"/>
		<rect x="631.5" y="182.485" width="1.9" height="157.9"/>
		<rect x="633.5" y="244.685" width="1.9" height="33.4"/>
		<rect x="635.4" y="255.785" width="1.9" height="11.1"/>
		<rect x="637.4" y="233.485" width="1.9" height="55.7"/>
		<rect x="639.3" y="224.285" width="1.9" height="74.3"/>
		<rect x="641.2" y="230.785" width="1.9" height="61.3"/>
		<rect x="643.2" y="212.185" width="1.9" height="98.4"/>
		<rect x="645.1" y="224.285" width="1.9" height="74.3"/>
		<rect x="647.1" y="242.785" width="1.9" height="37.1"/>
	</g>
	<g>
		<g>
			<path fill="none" stroke="#000000" stroke-miterlimit="10" d="M40.737,281.935c0.3,3.9,1.7,7.8,3.8,10.9
				c2.8,3.8,6.7,6.3,10.8,6.7"/>
			<g>
				<path d="M43.037,283.135l-2.3-0.9l-2.4,0.9c0.9-1.1,1.9-2.9,2.4-4.3C41.337,280.335,42.237,282.135,43.037,283.135z"/>
			</g>
		</g>
	</g>
	<g>
		<path fill="none" stroke="#000000" stroke-miterlimit="10" d="M523.402,289.929c-0.987,4.767-3.237,9.394-6.345,13.207
			c-5.005,5.645-11.977,9.359-19.307,9.953"/>
		<g>
			<path d="M523.85,286.944c-0.747,1.318-1.916,2.913-3.03,3.839l2.485-0.469l2.21,1.229
				C524.749,290.312,524.143,288.43,523.85,286.944z"/>
		</g>
	</g>
	<g>
		<path fill="none" stroke="#000000" stroke-miterlimit="10" d="M474.4,159.342c8.731,1.637,17.461,9.279,24.401,20.742
			c8.124,14.596,13.594,34.667,14.85,55.936"/>
		<g>
			<path d="M513.8,239.035c-0.62-1.382-1.633-3.08-2.656-4.107l2.43,0.701l2.315-1.016
				C515.011,235.766,514.231,237.583,513.8,239.035z"/>
		</g>
	</g>
	
		<line style="opacity:0.8;" fill="none" stroke="#000000" stroke-miterlimit="10" x1="19.5" y1="20.002" x2="653" y2="20.002"/>
	
		<line style="opacity:0.8;" fill="none" stroke="#000000" stroke-miterlimit="10" x1="19.9" y1="472.758" x2="647" y2="472.758"/>
	
		<line fill="none" stroke="#000000" stroke-width="0.5" stroke-miterlimit="10" stroke-dasharray="8" x1="530.983" y1="81.02" x2="530.983" y2="422.085"/>
</g>
<style>
#g-verba-vignette08-vox-desktop-img rect, #g-verba-vignette08-vox-desktop-img circle, #g-verba-vignette08-vox-desktop-img path, #g-verba-vignette08-vox-desktop-img line, #g-verba-vignette08-vox-desktop-img polyline { vector-effect: non-scaling-stroke; }
</style>
</svg>

