<?xml version="1.0" encoding="utf-8"?>
<!-- Generator: Adobe Illustrator 24.0.3, SVG Export Plug-In . SVG Version: 6.00 Build 0)  -->
<svg version="1.2" baseProfile="tiny" id="g-verba-vignette07-coronavirus-desktop-img" xmlns="http://www.w3.org/2000/svg" xmlns:xlink="http://www.w3.org/1999/xlink"
	 x="0px" y="0px" viewBox="0 0 673 431" xml:space="preserve">
<g>
	<g transform="translate(31.014889460381234, 275)">
		<path display="none" fill="none" stroke="#212529" d="M0.5,92.11h610.963"/>
		<g transform="translate(19.095594051574118,0)">
			<line display="none" fill="none" stroke="#212529" x1="0" y1="-168.39" x2="0" y2="91.61"/>
			
				
		</g>
		<g transform="translate(45.86161208669514,0)">
			<line display="none" fill="none" stroke="#212529" x1="0" y1="-168.39" x2="0" y2="91.61"/>
			
				
		</g>
		<g transform="translate(72.63975241259294,0)">
			<line display="none" fill="none" stroke="#212529" x1="0" y1="-168.39" x2="0" y2="91.61"/>
			
				
		</g>
		<g transform="translate(98.81177819965197,0)">
			<line display="none" fill="none" stroke="#212529" x1="0" y1="-168.39" x2="0" y2="91.61"/>
			
				
		</g>
		<g transform="translate(125.28686125613036,0)">
			<line display="none" fill="none" stroke="#212529" x1="0" y1="-168.39" x2="0" y2="91.61"/>
			
				
		</g>
		<g transform="translate(152.0528792912514,0)">
			<line display="none" fill="none" stroke="#212529" x1="0" y1="-168.39" x2="0" y2="91.61"/>
			
				
		</g>
		<g transform="translate(178.83101961714917,0)">
			<line display="none" fill="none" stroke="#212529" x1="0" y1="-168.39" x2="0" y2="91.61"/>
			
				
		</g>
		<g transform="translate(205.29398038285083,0)">
			<line display="none" fill="none" stroke="#212529" x1="0" y1="-168.39" x2="0" y2="91.61"/>
			
				
		</g>
		<g transform="translate(231.76906343932924,0)">
			<line display="none" fill="none" stroke="#212529" x1="0" y1="-168.39" x2="0" y2="91.61"/>
			
				
		</g>
		<g transform="translate(258.53508147445024,0)">
			<line display="none" fill="none" stroke="#212529" x1="0" y1="-168.39" x2="0" y2="91.61"/>
			
				
		</g>
		<g transform="translate(285.31322180034806,0)">
			<line display="none" fill="none" stroke="#212529" x1="0" y1="-168.39" x2="0" y2="91.61"/>
			
				
		</g>
		<g transform="translate(311.48524758740706,0)">
			<line display="none" fill="none" stroke="#212529" x1="0" y1="-168.39" x2="0" y2="91.61"/>
			
				
		</g>
		<g transform="translate(337.96033064388547,0)">
			<line display="none" fill="none" stroke="#212529" x1="0" y1="-168.39" x2="0" y2="91.61"/>
			
				
		</g>
		<g transform="translate(364.72634867900643,0)">
			<line display="none" fill="none" stroke="#212529" x1="0" y1="-168.39" x2="0" y2="91.61"/>
			
				
		</g>
		<g transform="translate(391.50448900490426,0)">
			<line display="none" fill="none" stroke="#212529" x1="0" y1="-168.39" x2="0" y2="91.61"/>
			
				
		</g>
		<g transform="translate(417.67651479196326,0)">
			<line display="none" fill="none" stroke="#212529" x1="0" y1="-168.39" x2="0" y2="91.61"/>
			
				
		</g>
		<g transform="translate(444.15159784844167,0)">
			<line display="none" fill="none" stroke="#212529" x1="0" y1="-168.39" x2="0" y2="91.61"/>
			
				
		</g>
		<g transform="translate(470.91761588356275,0)">
			<line display="none" fill="none" stroke="#212529" x1="0" y1="-168.39" x2="0" y2="91.61"/>
			
				
		</g>
		<g transform="translate(497.6957562094605,0)">
			<line display="none" fill="none" stroke="#212529" x1="0" y1="-168.39" x2="0" y2="91.61"/>
			
				
		</g>
		<g transform="translate(523.8677819965195,0)">
			<line display="none" fill="none" stroke="#212529" x1="0" y1="-168.39" x2="0" y2="91.61"/>
			
				
		</g>
		<g transform="translate(550.3428650529979,0)">
			<line display="none" fill="none" stroke="#212529" x1="0" y1="-168.39" x2="0" y2="91.61"/>
			
				
		</g>
		<g transform="translate(577.108883088119,0)">
			<line display="none" fill="none" stroke="#212529" x1="0" y1="-168.39" x2="0" y2="91.61"/>
			
				
		</g>
		<g transform="translate(603.8870234140168,0)">
			<line display="none" fill="none" stroke="#212529" x1="0" y1="-168.39" x2="0" y2="91.61"/>
			
				
		</g>
	</g>
	<g transform="translate(31.014889460381234, 290)">
		<path display="none" fill="none" stroke="#212529" d="M0.5,92.11h610.963"/>
		<g transform="translate(72.63975241259294,0)">
			<line display="none" fill="none" stroke="#212529" x1="0" y1="-168.39" x2="0" y2="91.61"/>
			
				<text transform="matrix(1 0 0 1 -11.1231 107.71)" display="none" fill="#212529" font-family="'ElMessiri-Bold'" font-size="10px">2015</text>
		</g>
		<g transform="translate(178.83101961714917,0)">
			<line display="none" fill="none" stroke="#212529" x1="0" y1="-168.39" x2="0" y2="91.61"/>
			
				<text transform="matrix(1 0 0 1 -11.123 107.71)" display="none" fill="#212529" font-family="'ElMessiri-Bold'" font-size="10px">2016</text>
		</g>
		<g transform="translate(285.31322180034806,0)">
			<line display="none" fill="none" stroke="#212529" x1="0" y1="-168.39" x2="0" y2="91.61"/>
			
				<text transform="matrix(1 0 0 1 -11.123 107.71)" display="none" fill="#212529" font-family="'ElMessiri-Bold'" font-size="10px">2017</text>
		</g>
		<g transform="translate(391.50448900490426,0)">
			<line display="none" fill="none" stroke="#212529" x1="0" y1="-168.39" x2="0" y2="91.61"/>
			
				<text transform="matrix(1 0 0 1 -11.123 107.71)" display="none" fill="#212529" font-family="'ElMessiri-Bold'" font-size="10px">2018</text>
		</g>
		<g transform="translate(497.6957562094605,0)">
			<line display="none" fill="none" stroke="#212529" x1="0" y1="-168.39" x2="0" y2="91.61"/>
			
				<text transform="matrix(1 0 0 1 -11.1231 107.71)" display="none" fill="#212529" font-family="'ElMessiri-Bold'" font-size="10px">2019</text>
		</g>
		<g transform="translate(603.8870234140168,0)">
			<line display="none" fill="none" stroke="#212529" x1="0" y1="-168.39" x2="0" y2="91.61"/>
			
				<text transform="matrix(1 0 0 1 -11.123 107.71)" display="none" fill="#212529" font-family="'ElMessiri-Bold'" font-size="10px">2020</text>
		</g>
	</g>
	<g transform="translate(30, 0)">
		<path display="none" fill="none" stroke="#212529" d="M-6,222.11h6.5v-130H-6"/>
		<g transform="translate(0,130.5)">
			<line fill="none" stroke="#212529" stroke-opacity="0.12" x1="0" y1="91.61" x2="613" y2="91.61"/>
			
				
		</g>
		<g transform="translate(0,101.61111111111111)">
			<line fill="none" stroke="#212529" stroke-opacity="0.12" x1="0" y1="91.61" x2="613" y2="91.61"/>
			
				
		</g>
		<g transform="translate(0,72.72222222222223)">
			<line fill="none" stroke="#212529" stroke-opacity="0.12" x1="0" y1="91.61" x2="613" y2="91.61"/>
			
				
		</g>
		<g transform="translate(0,43.833333333333336)">
			<line fill="none" stroke="#212529" stroke-opacity="0.12" x1="0" y1="91.61" x2="613" y2="91.61"/>
			
				
		</g>
		<g transform="translate(0,14.94444444444445)">
			<line fill="none" stroke="#212529" stroke-opacity="0.12" x1="0" y1="91.61" x2="613" y2="91.61"/>
			
				
		</g>
	</g>
	<g>
		<rect x="30" y="220.166" width="2.037" height="2.889"/>
		<polygon points="32.037,221.61 34.073,221.61 34.073,221.61 		"/>
		<polygon points="34.073,221.61 36.11,221.61 36.11,221.61 		"/>
		<polygon points="36.11,221.61 38.146,221.61 38.146,221.61 		"/>
		<polygon points="38.146,221.61 40.183,221.61 40.183,221.61 		"/>
		<rect x="40.183" y="215.832" width="2.037" height="11.556"/>
		<polygon points="42.219,221.61 44.256,221.61 44.256,221.61 		"/>
		<polygon points="44.256,221.61 46.292,221.61 46.292,221.61 		"/>
		<polygon points="46.292,221.61 48.329,221.61 48.329,221.61 		"/>
		<polygon points="48.329,221.61 50.365,221.61 50.365,221.61 		"/>
		<polygon points="50.365,221.61 52.402,221.61 52.402,221.61 		"/>
		<polygon points="52.402,221.61 54.439,221.61 54.439,221.61 		"/>
		<polygon points="54.439,221.61 56.475,221.61 56.475,221.61 		"/>
		<polygon points="56.475,221.61 58.512,221.61 58.512,221.61 		"/>
		<polygon points="58.512,221.61 60.548,221.61 60.548,221.61 		"/>
		<polygon points="60.548,221.61 62.585,221.61 62.585,221.61 		"/>
		<polygon points="62.585,221.61 64.621,221.61 64.621,221.61 		"/>
		<polygon points="64.621,221.61 66.658,221.61 66.658,221.61 		"/>
		<polygon points="66.658,221.61 68.694,221.61 68.694,221.61 		"/>
		<polygon points="68.694,221.61 70.731,221.61 70.731,221.61 		"/>
		<polygon points="70.731,221.61 72.767,221.61 72.767,221.61 		"/>
		<polygon points="72.767,221.61 74.804,221.61 74.804,221.61 		"/>
		<polygon points="74.804,221.61 76.841,221.61 76.841,221.61 		"/>
		<polygon points="76.841,221.61 78.877,221.61 78.877,221.61 		"/>
		<polygon points="78.877,221.61 80.914,221.61 80.914,221.61 		"/>
		<polygon points="80.914,221.61 82.95,221.61 82.95,221.61 		"/>
		<polygon points="82.95,221.61 84.987,221.61 84.987,221.61 		"/>
		<polygon points="84.987,221.61 87.023,221.61 87.023,221.61 		"/>
		<polygon points="87.023,221.61 89.06,221.61 89.06,221.61 		"/>
		<polygon points="89.06,221.61 91.096,221.61 91.096,221.61 		"/>
		<polygon points="91.096,221.61 93.133,221.61 93.133,221.61 		"/>
		<polygon points="93.133,221.61 95.169,221.61 95.169,221.61 		"/>
		<polygon points="95.169,221.61 97.206,221.61 97.206,221.61 		"/>
		<polygon points="97.206,221.61 99.243,221.61 99.243,221.61 		"/>
		<polygon points="99.243,221.61 101.279,221.61 101.279,221.61 		"/>
		<polygon points="101.279,221.61 103.316,221.61 103.316,221.61 		"/>
		<polygon points="103.316,221.61 105.352,221.61 105.352,221.61 		"/>
		<polygon points="105.352,221.61 107.389,221.61 107.389,221.61 		"/>
		<polygon points="107.389,221.61 109.425,221.61 109.425,221.61 		"/>
		<polygon points="109.425,221.61 111.462,221.61 111.462,221.61 		"/>
		<polygon points="111.462,221.61 113.498,221.61 113.498,221.61 		"/>
		<polygon points="113.498,221.61 115.535,221.61 115.535,221.61 		"/>
		<polygon points="115.535,221.61 117.571,221.61 117.571,221.61 		"/>
		<polygon points="117.571,221.61 119.608,221.61 119.608,221.61 		"/>
		<polygon points="119.608,221.61 121.645,221.61 121.645,221.61 		"/>
		<polygon points="121.645,221.61 123.681,221.61 123.681,221.61 		"/>
		<polygon points="123.681,221.61 125.718,221.61 125.718,221.61 		"/>
		<polygon points="125.718,221.61 127.754,221.61 127.754,221.61 		"/>
		<polygon points="127.754,221.61 129.791,221.61 129.791,221.61 		"/>
		<polygon points="129.791,221.61 131.827,221.61 131.827,221.61 		"/>
		<polygon points="131.827,221.61 133.864,221.61 133.864,221.61 		"/>
		<polygon points="133.864,221.61 135.9,221.61 135.9,221.61 		"/>
		<polygon points="135.9,221.61 137.937,221.61 137.937,221.61 		"/>
		<polygon points="137.937,221.61 139.973,221.61 139.973,221.61 		"/>
		<polygon points="139.973,221.61 142.01,221.61 142.01,221.61 		"/>
		<polygon points="142.01,221.61 144.047,221.61 144.047,221.61 		"/>
		<polygon points="144.047,221.61 146.083,221.61 146.083,221.61 		"/>
		<rect x="146.083" y="220.166" width="2.037" height="2.889"/>
		<rect x="148.12" y="220.166" width="2.037" height="2.889"/>
		<rect x="150.156" y="215.832" width="2.037" height="11.556"/>
		<polygon points="152.193,221.61 154.229,221.61 154.229,221.61 		"/>
		<polygon points="154.229,221.61 156.266,221.61 156.266,221.61 		"/>
		<polygon points="156.266,221.61 158.302,221.61 158.302,221.61 		"/>
		<polygon points="158.302,221.61 160.339,221.61 160.339,221.61 		"/>
		<polygon points="160.339,221.61 162.375,221.61 162.375,221.61 		"/>
		<polygon points="162.375,221.61 164.412,221.61 164.412,221.61 		"/>
		<polygon points="164.412,221.61 166.449,221.61 166.449,221.61 		"/>
		<polygon points="166.449,221.61 168.485,221.61 168.485,221.61 		"/>
		<polygon points="168.485,221.61 170.522,221.61 170.522,221.61 		"/>
		<polygon points="170.522,221.61 172.558,221.61 172.558,221.61 		"/>
		<polygon points="172.558,221.61 174.595,221.61 174.595,221.61 		"/>
		<polygon points="174.595,221.61 176.631,221.61 176.631,221.61 		"/>
		<polygon points="176.631,221.61 178.668,221.61 178.668,221.61 		"/>
		<polygon points="178.668,221.61 180.704,221.61 180.704,221.61 		"/>
		<polygon points="180.704,221.61 182.741,221.61 182.741,221.61 		"/>
		<polygon points="182.741,221.61 184.777,221.61 184.777,221.61 		"/>
		<polygon points="184.777,221.61 186.814,221.61 186.814,221.61 		"/>
		<polygon points="186.814,221.61 188.85,221.61 188.85,221.61 		"/>
		<polygon points="188.85,221.61 190.887,221.61 190.887,221.61 		"/>
		<polygon points="190.887,221.61 192.924,221.61 192.924,221.61 		"/>
		<polygon points="192.924,221.61 194.96,221.61 194.96,221.61 		"/>
		<polygon points="194.96,221.61 196.997,221.61 196.997,221.61 		"/>
		<polygon points="196.997,221.61 199.033,221.61 199.033,221.61 		"/>
		<polygon points="199.033,221.61 201.07,221.61 201.07,221.61 		"/>
		<polygon points="201.07,221.61 203.106,221.61 203.106,221.61 		"/>
		<polygon points="203.106,221.61 205.143,221.61 205.143,221.61 		"/>
		<polygon points="205.143,221.61 207.179,221.61 207.179,221.61 		"/>
		<polygon points="207.179,221.61 209.216,221.61 209.216,221.61 		"/>
		<polygon points="209.216,221.61 211.252,221.61 211.252,221.61 		"/>
		<polygon points="211.252,221.61 213.289,221.61 213.289,221.61 		"/>
		<polygon points="213.289,221.61 215.326,221.61 215.326,221.61 		"/>
		<polygon points="215.326,221.61 217.362,221.61 217.362,221.61 		"/>
		<polygon points="217.362,221.61 219.399,221.61 219.399,221.61 		"/>
		<polygon points="219.399,221.61 221.435,221.61 221.435,221.61 		"/>
		<polygon points="221.435,221.61 223.472,221.61 223.472,221.61 		"/>
		<polygon points="223.472,221.61 225.508,221.61 225.508,221.61 		"/>
		<polygon points="225.508,221.61 227.545,221.61 227.545,221.61 		"/>
		<polygon points="227.545,221.61 229.581,221.61 229.581,221.61 		"/>
		<polygon points="229.581,221.61 231.618,221.61 231.618,221.61 		"/>
		<polygon points="231.618,221.61 233.654,221.61 233.654,221.61 		"/>
		<polygon points="233.654,221.61 235.691,221.61 235.691,221.61 		"/>
		<polygon points="235.691,221.61 237.728,221.61 237.728,221.61 		"/>
		<polygon points="237.728,221.61 239.764,221.61 239.764,221.61 		"/>
		<polygon points="239.764,221.61 241.801,221.61 241.801,221.61 		"/>
		<polygon points="241.801,221.61 243.837,221.61 243.837,221.61 		"/>
		<polygon points="243.837,221.61 245.874,221.61 245.874,221.61 		"/>
		<polygon points="245.874,221.61 247.91,221.61 247.91,221.61 		"/>
		<polygon points="247.91,221.61 249.947,221.61 249.947,221.61 		"/>
		<polygon points="249.947,221.61 251.983,221.61 251.983,221.61 		"/>
		<polygon points="251.983,221.61 254.02,221.61 254.02,221.61 		"/>
		<polygon points="254.02,221.61 256.056,221.61 256.056,221.61 		"/>
		<polygon points="256.056,221.61 258.093,221.61 258.093,221.61 		"/>
		<polygon points="258.093,221.61 260.13,221.61 260.13,221.61 		"/>
		<polygon points="260.13,221.61 262.166,221.61 262.166,221.61 		"/>
		<polygon points="262.166,221.61 264.203,221.61 264.203,221.61 		"/>
		<polygon points="264.203,221.61 266.239,221.61 266.239,221.61 		"/>
		<polygon points="266.239,221.61 268.276,221.61 268.276,221.61 		"/>
		<polygon points="268.276,221.61 270.312,221.61 270.312,221.61 		"/>
		<polygon points="270.312,221.61 272.349,221.61 272.349,221.61 		"/>
		<polygon points="272.349,221.61 274.385,221.61 274.385,221.61 		"/>
		<polygon points="274.385,221.61 276.422,221.61 276.422,221.61 		"/>
		<polygon points="276.422,221.61 278.458,221.61 278.458,221.61 		"/>
		<polygon points="278.458,221.61 280.495,221.61 280.495,221.61 		"/>
		<polygon points="280.495,221.61 282.532,221.61 282.532,221.61 		"/>
		<polygon points="282.532,221.61 284.568,221.61 284.568,221.61 		"/>
		<polygon points="284.568,221.61 286.605,221.61 286.605,221.61 		"/>
		<polygon points="286.605,221.61 288.641,221.61 288.641,221.61 		"/>
		<polygon points="288.641,221.61 290.678,221.61 290.678,221.61 		"/>
		<polygon points="290.678,221.61 292.714,221.61 292.714,221.61 		"/>
		<polygon points="292.714,221.61 294.751,221.61 294.751,221.61 		"/>
		<polygon points="294.751,221.61 296.787,221.61 296.787,221.61 		"/>
		<polygon points="296.787,221.61 298.824,221.61 298.824,221.61 		"/>
		<polygon points="298.824,221.61 300.86,221.61 300.86,221.61 		"/>
		<polygon points="300.86,221.61 302.897,221.61 302.897,221.61 		"/>
		<polygon points="302.897,221.61 304.934,221.61 304.934,221.61 		"/>
		<polygon points="304.934,221.61 306.97,221.61 306.97,221.61 		"/>
		<polygon points="306.97,221.61 309.007,221.61 309.007,221.61 		"/>
		<polygon points="309.007,221.61 311.043,221.61 311.043,221.61 		"/>
		<polygon points="311.043,221.61 313.08,221.61 313.08,221.61 		"/>
		<polygon points="313.08,221.61 315.116,221.61 315.116,221.61 		"/>
		<polygon points="315.116,221.61 317.153,221.61 317.153,221.61 		"/>
		<polygon points="317.153,221.61 319.189,221.61 319.189,221.61 		"/>
		<polygon points="319.189,221.61 321.226,221.61 321.226,221.61 		"/>
		<polygon points="321.226,221.61 323.262,221.61 323.262,221.61 		"/>
		<polygon points="323.262,221.61 325.299,221.61 325.299,221.61 		"/>
		<polygon points="325.299,221.61 327.336,221.61 327.336,221.61 		"/>
		<polygon points="327.336,221.61 329.372,221.61 329.372,221.61 		"/>
		<polygon points="329.372,221.61 331.409,221.61 331.409,221.61 		"/>
		<polygon points="331.409,221.61 333.445,221.61 333.445,221.61 		"/>
		<polygon points="333.445,221.61 335.482,221.61 335.482,221.61 		"/>
		<polygon points="335.482,221.61 337.518,221.61 337.518,221.61 		"/>
		<polygon points="337.518,221.61 339.555,221.61 339.555,221.61 		"/>
		<polygon points="339.555,221.61 341.591,221.61 341.591,221.61 		"/>
		<polygon points="341.591,221.61 343.628,221.61 343.628,221.61 		"/>
		<polygon points="343.628,221.61 345.664,221.61 345.664,221.61 		"/>
		<polygon points="345.664,221.61 347.701,221.61 347.701,221.61 		"/>
		<polygon points="347.701,221.61 349.738,221.61 349.738,221.61 		"/>
		<polygon points="349.738,221.61 351.774,221.61 351.774,221.61 		"/>
		<polygon points="351.774,221.61 353.811,221.61 353.811,221.61 		"/>
		<polygon points="353.811,221.61 355.847,221.61 355.847,221.61 		"/>
		<polygon points="355.847,221.61 357.884,221.61 357.884,221.61 		"/>
		<polygon points="357.884,221.61 359.92,221.61 359.92,221.61 		"/>
		<polygon points="359.92,221.61 361.957,221.61 361.957,221.61 		"/>
		<polygon points="361.957,221.61 363.993,221.61 363.993,221.61 		"/>
		<polygon points="363.993,221.61 366.03,221.61 366.03,221.61 		"/>
		<polygon points="366.03,221.61 368.066,221.61 368.066,221.61 		"/>
		<polygon points="368.066,221.61 370.103,221.61 370.103,221.61 		"/>
		<polygon points="370.103,221.61 372.14,221.61 372.14,221.61 		"/>
		<polygon points="372.14,221.61 374.176,221.61 374.176,221.61 		"/>
		<polygon points="374.176,221.61 376.213,221.61 376.213,221.61 		"/>
		<polygon points="376.213,221.61 378.249,221.61 378.249,221.61 		"/>
		<polygon points="378.249,221.61 380.286,221.61 380.286,221.61 		"/>
		<polygon points="380.286,221.61 382.322,221.61 382.322,221.61 		"/>
		<polygon points="382.322,221.61 384.359,221.61 384.359,221.61 		"/>
		<polygon points="384.359,221.61 386.395,221.61 386.395,221.61 		"/>
		<polygon points="386.395,221.61 388.432,221.61 388.432,221.61 		"/>
		<polygon points="388.432,221.61 390.468,221.61 390.468,221.61 		"/>
		<polygon points="390.468,221.61 392.505,221.61 392.505,221.61 		"/>
		<polygon points="392.505,221.61 394.542,221.61 394.542,221.61 		"/>
		<polygon points="394.542,221.61 396.578,221.61 396.578,221.61 		"/>
		<polygon points="396.578,221.61 398.615,221.61 398.615,221.61 		"/>
		<polygon points="398.615,221.61 400.651,221.61 400.651,221.61 		"/>
		<polygon points="400.651,221.61 402.688,221.61 402.688,221.61 		"/>
		<polygon points="402.688,221.61 404.724,221.61 404.724,221.61 		"/>
		<polygon points="404.724,221.61 406.761,221.61 406.761,221.61 		"/>
		<polygon points="406.761,221.61 408.797,221.61 408.797,221.61 		"/>
		<polygon points="408.797,221.61 410.834,221.61 410.834,221.61 		"/>
		<polygon points="410.834,221.61 412.87,221.61 412.87,221.61 		"/>
		<polygon points="412.87,221.61 414.907,221.61 414.907,221.61 		"/>
		<polygon points="414.907,221.61 416.944,221.61 416.944,221.61 		"/>
		<polygon points="416.944,221.61 418.98,221.61 418.98,221.61 		"/>
		<polygon points="418.98,221.61 421.017,221.61 421.017,221.61 		"/>
		<polygon points="421.017,221.61 423.053,221.61 423.053,221.61 		"/>
		<polygon points="423.053,221.61 425.09,221.61 425.09,221.61 		"/>
		<polygon points="425.09,221.61 427.126,221.61 427.126,221.61 		"/>
		<polygon points="427.126,221.61 429.163,221.61 429.163,221.61 		"/>
		<polygon points="429.163,221.61 431.199,221.61 431.199,221.61 		"/>
		<polygon points="431.199,221.61 433.236,221.61 433.236,221.61 		"/>
		<polygon points="433.236,221.61 435.272,221.61 435.272,221.61 		"/>
		<polygon points="435.272,221.61 437.309,221.61 437.309,221.61 		"/>
		<polygon points="437.309,221.61 439.346,221.61 439.346,221.61 		"/>
		<polygon points="439.346,221.61 441.382,221.61 441.382,221.61 		"/>
		<polygon points="441.382,221.61 443.419,221.61 443.419,221.61 		"/>
		<polygon points="443.419,221.61 445.455,221.61 445.455,221.61 		"/>
		<polygon points="445.455,221.61 447.492,221.61 447.492,221.61 		"/>
		<polygon points="447.492,221.61 449.528,221.61 449.528,221.61 		"/>
		<polygon points="449.528,221.61 451.565,221.61 451.565,221.61 		"/>
		<polygon points="451.565,221.61 453.601,221.61 453.601,221.61 		"/>
		<polygon points="453.601,221.61 455.638,221.61 455.638,221.61 		"/>
		<polygon points="455.638,221.61 457.674,221.61 457.674,221.61 		"/>
		<polygon points="457.674,221.61 459.711,221.61 459.711,221.61 		"/>
		<polygon points="459.711,221.61 461.747,221.61 461.747,221.61 		"/>
		<polygon points="461.747,221.61 463.784,221.61 463.784,221.61 		"/>
		<polygon points="463.784,221.61 465.821,221.61 465.821,221.61 		"/>
		<polygon points="465.821,221.61 467.857,221.61 467.857,221.61 		"/>
		<polygon points="467.857,221.61 469.894,221.61 469.894,221.61 		"/>
		<polygon points="469.894,221.61 471.93,221.61 471.93,221.61 		"/>
		<polygon points="471.93,221.61 473.967,221.61 473.967,221.61 		"/>
		<polygon points="473.967,221.61 476.003,221.61 476.003,221.61 		"/>
		<polygon points="476.003,221.61 478.04,221.61 478.04,221.61 		"/>
		<polygon points="478.04,221.61 480.076,221.61 480.076,221.61 		"/>
		<polygon points="480.076,221.61 482.113,221.61 482.113,221.61 		"/>
		<polygon points="482.113,221.61 484.149,221.61 484.149,221.61 		"/>
		<polygon points="484.15,221.61 486.186,221.61 486.186,221.61 		"/>
		<polygon points="486.186,221.61 488.223,221.61 488.223,221.61 		"/>
		<polygon points="488.223,221.61 490.259,221.61 490.259,221.61 		"/>
		<polygon points="490.259,221.61 492.296,221.61 492.296,221.61 		"/>
		<polygon points="492.296,221.61 494.332,221.61 494.332,221.61 		"/>
		<polygon points="494.332,221.61 496.369,221.61 496.369,221.61 		"/>
		<polygon points="496.369,221.61 498.405,221.61 498.405,221.61 		"/>
		<polygon points="498.405,221.61 500.442,221.61 500.442,221.61 		"/>
		<polygon points="500.442,221.61 502.478,221.61 502.478,221.61 		"/>
		<polygon points="502.478,221.61 504.515,221.61 504.515,221.61 		"/>
		<polygon points="504.515,221.61 506.552,221.61 506.552,221.61 		"/>
		<polygon points="506.551,221.61 508.588,221.61 508.588,221.61 		"/>
		<polygon points="508.588,221.61 510.625,221.61 510.625,221.61 		"/>
		<polygon points="510.625,221.61 512.661,221.61 512.661,221.61 		"/>
		<polygon points="512.661,221.61 514.698,221.61 514.698,221.61 		"/>
		<polygon points="514.698,221.61 516.734,221.61 516.734,221.61 		"/>
		<polygon points="516.734,221.61 518.771,221.61 518.771,221.61 		"/>
		<polygon points="518.771,221.61 520.807,221.61 520.807,221.61 		"/>
		<polygon points="520.807,221.61 522.844,221.61 522.844,221.61 		"/>
		<polygon points="522.844,221.61 524.88,221.61 524.88,221.61 		"/>
		<polygon points="524.88,221.61 526.917,221.61 526.917,221.61 		"/>
		<polygon points="526.917,221.61 528.953,221.61 528.953,221.61 		"/>
		<polygon points="528.953,221.61 530.99,221.61 530.99,221.61 		"/>
		<polygon points="530.99,221.61 533.027,221.61 533.027,221.61 		"/>
		<polygon points="533.027,221.61 535.063,221.61 535.063,221.61 		"/>
		<polygon points="535.063,221.61 537.1,221.61 537.1,221.61 		"/>
		<polygon points="537.1,221.61 539.136,221.61 539.136,221.61 		"/>
		<polygon points="539.136,221.61 541.173,221.61 541.173,221.61 		"/>
		<polygon points="541.173,221.61 543.209,221.61 543.209,221.61 		"/>
		<polygon points="543.209,221.61 545.246,221.61 545.246,221.61 		"/>
		<polygon points="545.246,221.61 547.282,221.61 547.282,221.61 		"/>
		<polygon points="547.282,221.61 549.319,221.61 549.319,221.61 		"/>
		<polygon points="549.319,221.61 551.355,221.61 551.355,221.61 		"/>
		<polygon points="551.355,221.61 553.392,221.61 553.392,221.61 		"/>
		<polygon points="553.392,221.61 555.429,221.61 555.429,221.61 		"/>
		<polygon points="555.429,221.61 557.465,221.61 557.465,221.61 		"/>
		<polygon points="557.465,221.61 559.502,221.61 559.502,221.61 		"/>
		<polygon points="559.502,221.61 561.538,221.61 561.538,221.61 		"/>
		<polygon points="561.538,221.61 563.575,221.61 563.575,221.61 		"/>
		<polygon points="563.575,221.61 565.611,221.61 565.611,221.61 		"/>
		<polygon points="565.611,221.61 567.648,221.61 567.648,221.61 		"/>
		<polygon points="567.648,221.61 569.684,221.61 569.684,221.61 		"/>
		<polygon points="569.684,221.61 571.721,221.61 571.721,221.61 		"/>
		<polygon points="571.721,221.61 573.758,221.61 573.758,221.61 		"/>
		<polygon points="573.757,221.61 575.794,221.61 575.794,221.61 		"/>
		<polygon points="575.794,221.61 577.831,221.61 577.831,221.61 		"/>
		<polygon points="577.831,221.61 579.867,221.61 579.867,221.61 		"/>
		<polygon points="579.867,221.61 581.904,221.61 581.904,221.61 		"/>
		<polygon points="581.904,221.61 583.94,221.61 583.94,221.61 		"/>
		<polygon points="583.94,221.61 585.977,221.61 585.977,221.61 		"/>
		<polygon points="585.977,221.61 588.013,221.61 588.013,221.61 		"/>
		<polygon points="588.013,221.61 590.05,221.61 590.05,221.61 		"/>
		<polygon points="590.05,221.61 592.086,221.61 592.086,221.61 		"/>
		<polygon points="592.086,221.61 594.123,221.61 594.123,221.61 		"/>
		<polygon points="594.123,221.61 596.159,221.61 596.159,221.61 		"/>
		<polygon points="596.159,221.61 598.196,221.61 598.196,221.61 		"/>
		<polygon points="598.196,221.61 600.233,221.61 600.233,221.61 		"/>
		<polygon points="600.233,221.61 602.269,221.61 602.269,221.61 		"/>
		<polygon points="602.269,221.61 604.306,221.61 604.306,221.61 		"/>
		<polygon points="604.306,221.61 606.342,221.61 606.342,221.61 		"/>
		<polygon points="606.342,221.61 608.379,221.61 608.379,221.61 		"/>
		<polygon points="608.379,221.61 610.415,221.61 610.415,221.61 		"/>
		<polygon points="610.415,221.61 612.452,221.61 612.452,221.61 		"/>
		<polygon points="612.452,221.61 614.488,221.61 614.488,221.61 		"/>
		<polygon points="614.488,221.61 616.525,221.61 616.525,221.61 		"/>
		<polygon points="616.525,221.61 618.561,221.61 618.561,221.61 		"/>
		<polygon points="618.561,221.61 620.598,221.61 620.598,221.61 		"/>
		<polygon points="620.598,221.61 622.635,221.61 622.635,221.61 		"/>
		<polygon points="622.635,221.61 624.671,221.61 624.671,221.61 		"/>
		<polygon points="624.671,221.61 626.708,221.61 626.708,221.61 		"/>
		<polygon points="626.708,221.61 628.744,221.61 628.744,221.61 		"/>
		<polygon points="628.744,221.61 630.781,221.61 630.781,221.61 		"/>
		<polygon points="630.781,221.61 632.817,221.61 632.817,221.61 		"/>
		<polygon points="632.817,221.61 634.854,221.61 634.854,221.61 		"/>
		<polygon points="634.854,221.61 636.89,221.61 636.89,221.61 		"/>
		<rect x="636.89" y="217.277" width="2.037" height="8.667"/>
		<rect x="638.927" y="124.832" width="2.037" height="193.556"/>
		<rect x="640.963" y="95.943" width="2.037" height="251.333"/>
	</g>
	<g>
		<path fill="none" stroke="#000000" stroke-miterlimit="10" d="M636.388,79.224c-0.623-2.861-1.797-5.609-3.359-7.914
			c-2.8-3.8-6.7-6.3-10.8-6.7"/>
		<g>
			<path d="M636.829,82.21c0.296-1.485,0.905-3.367,1.673-4.596l-2.212,1.225l-2.483-0.474
				C634.919,79.293,636.085,80.891,636.829,82.21z"/>
		</g>
	</g>
	<g>
		<path fill="none" stroke="#000000" stroke-miterlimit="10" d="M38.415,241.657c0.623,2.861,1.798,5.609,3.359,7.914
			c2.8,3.8,6.7,6.3,10.8,6.7"/>
		<g>
			<path d="M37.974,238.671c-0.296,1.485-0.905,3.367-1.673,4.596l2.212-1.225l2.483,0.474
				C39.884,241.588,38.718,239.99,37.974,238.671z"/>
		</g>
	</g>
	
		<line style="opacity:0.8;" fill="none" stroke="#000000" stroke-miterlimit="10" x1="19.5" y1="19.583" x2="653" y2="19.583"/>
	
		<line style="opacity:0.8;" fill="none" stroke="#000000" stroke-miterlimit="10" x1="19.9" y1="411.417" x2="647" y2="411.417"/>
</g>
<style>
#g-verba-vignette07-coronavirus-desktop-img rect, #g-verba-vignette07-coronavirus-desktop-img circle, #g-verba-vignette07-coronavirus-desktop-img path, #g-verba-vignette07-coronavirus-desktop-img line, #g-verba-vignette07-coronavirus-desktop-img polyline { vector-effect: non-scaling-stroke; }
</style>
</svg>

