<?xml version="1.0" encoding="utf-8"?>
<!-- Generator: Adobe Illustrator 24.0.3, SVG Export Plug-In . SVG Version: 6.00 Build 0)  -->
<svg version="1.2" baseProfile="tiny" id="g-verba-vignette11-loteria-mobile-img" xmlns="http://www.w3.org/2000/svg" xmlns:xlink="http://www.w3.org/1999/xlink"
	 x="0px" y="0px" viewBox="0 0 321 336.733" xml:space="preserve">
<g>
	<g transform="translate(30.969926933736456, 275)">
		<path display="none" fill="none" stroke="#212529" d="M-13.439,2.05h294.266"/>
		<g transform="translate(24.107218442932727,0)">
			<line display="none" fill="none" stroke="#212529" x1="-26.178" y1="-128.2" x2="-26.178" y2="1.8"/>
		</g>
		<g transform="translate(49.40563114134543,0)">
			<line display="none" fill="none" stroke="#212529" x1="-39.497" y1="-128.2" x2="-39.497" y2="1.8"/>
			
				
		</g>
		<g transform="translate(74.98204837490552,0)">
			<line display="none" fill="none" stroke="#212529" x1="-52.553" y1="-128.2" x2="-52.553" y2="1.8"/>
		</g>
		<g transform="translate(100.57004913076342,0)">
			<line display="none" fill="none" stroke="#212529" x1="-66.229" y1="-128.2" x2="-66.229" y2="1.8"/>
			
				
		</g>
		<g transform="translate(125.57887377173093,0)">
			<line display="none" fill="none" stroke="#212529" x1="-78.783" y1="-128.2" x2="-78.783" y2="1.8"/>
		</g>
		<g transform="translate(150.87728647014362,0)">
			<line display="none" fill="none" stroke="#212529" x1="-92.513" y1="-128.2" x2="-92.513" y2="1.8"/>
			
				
		</g>
		<g transform="translate(176.45370370370372,0)">
			<line display="none" fill="none" stroke="#212529" x1="-105.158" y1="-128.2" x2="-105.158" y2="1.8"/>
		</g>
		<g transform="translate(202.0417044595616,0)">
			<line display="none" fill="none" stroke="#212529" x1="-119.245" y1="-128.2" x2="-119.245" y2="1.8"/>
			
				
		</g>
		<g transform="translate(227.32853363567648,0)">
			<line display="none" fill="none" stroke="#212529" x1="-131.533" y1="-128.2" x2="-131.533" y2="1.8"/>
		</g>
		<g transform="translate(252.6269463340892,0)">
			<line display="none" fill="none" stroke="#212529" x1="-145.675" y1="-128.2" x2="-145.675" y2="1.8"/>
			
				
		</g>
		<g transform="translate(278.20336356764926,0)">
			<line display="none" fill="none" stroke="#212529" x1="-157.908" y1="-128.2" x2="-157.908" y2="1.8"/>
		</g>
		<g transform="translate(303.7913643235072,0)">
			<line display="none" fill="none" stroke="#212529" x1="-172.407" y1="-128.2" x2="-172.407" y2="1.8"/>
			
				
		</g>
		<g transform="translate(328.8001889644747,0)">
			<line display="none" fill="none" stroke="#212529" x1="-184.139" y1="-128.2" x2="-184.139" y2="1.8"/>
		</g>
		<g transform="translate(354.0986016628874,0)">
			<line display="none" fill="none" stroke="#212529" x1="-198.692" y1="-128.2" x2="-198.692" y2="1.8"/>
			
				
		</g>
		<g transform="translate(379.6750188964475,0)">
			<line display="none" fill="none" stroke="#212529" x1="-210.514" y1="-128.2" x2="-210.514" y2="1.8"/>
		</g>
		<g transform="translate(405.2630196523054,0)">
			<line display="none" fill="none" stroke="#212529" x1="-225.424" y1="-128.2" x2="-225.424" y2="1.8"/>
			
				
		</g>
		<g transform="translate(430.27184429327286,0)">
			<line display="none" fill="none" stroke="#212529" x1="-236.745" y1="-128.2" x2="-236.745" y2="1.8"/>
		</g>
		<g transform="translate(455.5702569916856,0)">
			<line display="none" fill="none" stroke="#212529" x1="-251.708" y1="-128.2" x2="-251.708" y2="1.8"/>
			
				
		</g>
		<g transform="translate(481.1466742252457,0)">
			<line display="none" fill="none" stroke="#212529" x1="-263.12" y1="-128.2" x2="-263.12" y2="1.8"/>
		</g>
		<g transform="translate(506.7346749811036,0)">
			<line display="none" fill="none" stroke="#212529" x1="-278.44" y1="-128.2" x2="-278.44" y2="1.8"/>
			
				
		</g>
		<g transform="translate(531.7434996220711,0)">
			<line display="none" fill="none" stroke="#212529" x1="-289.351" y1="-128.2" x2="-289.351" y2="1.8"/>
		</g>
		<g transform="translate(557.0419123204838,0)">
			<line display="none" fill="none" stroke="#212529" x1="-304.724" y1="-128.2" x2="-304.724" y2="1.8"/>
			
				
		</g>
		<g transform="translate(582.6183295540438,0)">
			<line display="none" fill="none" stroke="#212529" x1="-315.726" y1="-128.2" x2="-315.726" y2="1.8"/>
		</g>
		<g transform="translate(608.2063303099018,0)">
			<line display="none" fill="none" stroke="#212529" x1="-331.457" y1="-128.2" x2="-331.457" y2="1.8"/>
			
				
		</g>
	</g>
	<g transform="translate(30.969926933736456, 290)">
		<path display="none" fill="none" stroke="#212529" d="M-13.445-5.45h291.793"/>
		<g transform="translate(100.57004913076342,0)">
			<line display="none" fill="none" stroke="#212529" x1="-66.229" y1="-135.7" x2="-66.229" y2="-5.7"/>
			
				<text transform="matrix(0.955 0 0 1 -72.4951 9.3508)" display="none" fill="#212529" font-family="'ElMessiri-Bold'" font-size="10px">2015</text>
		</g>
		<g transform="translate(202.0417044595616,0)">
			<line display="none" fill="none" stroke="#212529" x1="-119.245" y1="-135.7" x2="-119.245" y2="-5.7"/>
			
				<text transform="matrix(0.955 0 0 1 -125.5117 9.3508)" display="none" fill="#212529" font-family="'ElMessiri-Bold'" font-size="10px">2016</text>
		</g>
		<g transform="translate(303.7913643235072,0)">
			<line display="none" fill="none" stroke="#212529" x1="-172.407" y1="-135.7" x2="-172.407" y2="-5.7"/>
			
				<text transform="matrix(0.955 0 0 1 -178.6729 9.3508)" display="none" fill="#212529" font-family="'ElMessiri-Bold'" font-size="10px">2017</text>
		</g>
		<g transform="translate(405.2630196523054,0)">
			<line display="none" fill="none" stroke="#212529" x1="-225.424" y1="-135.7" x2="-225.424" y2="-5.7"/>
			
				<text transform="matrix(0.955 0 0 1 -231.6895 9.3508)" display="none" fill="#212529" font-family="'ElMessiri-Bold'" font-size="10px">2018</text>
		</g>
		<g transform="translate(506.7346749811036,0)">
			<line display="none" fill="none" stroke="#212529" x1="-278.44" y1="-135.7" x2="-278.44" y2="-5.7"/>
			
				<text transform="matrix(0.955 0 0 1 -284.7061 9.3508)" display="none" fill="#212529" font-family="'ElMessiri-Bold'" font-size="10px">2019</text>
		</g>
		<g transform="translate(608.2063303099018,0)">
			<line display="none" fill="none" stroke="#212529" x1="-331.457" y1="-135.7" x2="-331.457" y2="-5.7"/>
			
				<text transform="matrix(0.955 0 0 1 -342.6406 9.3508)" display="none" fill="#212529" font-family="'ElMessiri-Bold'" font-size="10px">2020</text>
		</g>
	</g>
	<g transform="translate(30, 0)">
		<path display="none" fill="none" stroke="#212529" d="M-16.177,184.55h3.25v-65h-3.25"/>
		<g transform="translate(0,130.5)">
			<line fill="none" stroke="#212529" stroke-opacity="0.12" x1="-3.177" y1="54.05" x2="293.323" y2="54.05"/>
			
				
		</g>
		<g transform="translate(0,94.38888888888889)">
			<line fill="none" stroke="#212529" stroke-opacity="0.12" x1="-3.177" y1="72.106" x2="293.323" y2="72.106"/>
			
				
		</g>
		<g transform="translate(0,58.27777777777777)">
			<line fill="none" stroke="#212529" stroke-opacity="0.12" x1="-3.177" y1="90.161" x2="293.323" y2="90.161"/>
			
				
		</g>
		<g transform="translate(0,22.16666666666666)">
			<line fill="none" stroke="#212529" stroke-opacity="0.12" x1="-3.177" y1="108.217" x2="293.323" y2="108.217"/>
			
				
		</g>
	</g>
	<g>
		<polygon points="26.823,184.3 27.752,184.3 27.752,184.3 		"/>
		<polygon points="27.752,184.3 28.682,184.3 28.682,184.3 		"/>
		<polygon points="28.682,184.3 29.611,184.3 29.611,184.3 		"/>
		<polygon points="29.611,184.3 30.54,184.3 30.54,184.3 		"/>
		<polygon points="30.54,184.3 31.47,184.3 31.47,184.3 		"/>
		<polygon points="31.47,184.3 32.399,184.3 32.399,184.3 		"/>
		<polygon points="32.399,184.3 33.328,184.3 33.328,184.3 		"/>
		<polygon points="33.328,184.3 34.257,184.3 34.257,184.3 		"/>
		<polygon points="34.257,184.3 35.187,184.3 35.187,184.3 		"/>
		<polygon points="35.187,184.3 36.116,184.3 36.116,184.3 		"/>
		<polygon points="36.116,184.3 37.045,184.3 37.045,184.3 		"/>
		<polygon points="37.045,184.3 37.974,184.3 37.974,184.3 		"/>
		<polygon points="37.974,184.3 38.904,184.3 38.904,184.3 		"/>
		<polygon points="38.904,184.3 29.833,184.3 29.833,184.3 		"/>
		<polygon points="29.833,184.3 30.762,184.3 30.762,184.3 		"/>
		<polygon points="30.762,184.3 31.692,184.3 31.692,184.3 		"/>
		<polygon points="31.692,184.3 32.621,184.3 32.621,184.3 		"/>
		<polygon points="32.621,184.3 33.55,184.3 33.55,184.3 		"/>
		<polygon points="33.55,184.3 34.479,184.3 34.479,184.3 		"/>
		<polygon points="34.479,184.3 35.409,184.3 35.409,184.3 		"/>
		<polygon points="35.409,184.3 36.338,184.3 36.338,184.3 		"/>
		<polygon points="36.338,184.3 37.267,184.3 37.267,184.3 		"/>
		<polygon points="37.267,184.3 38.197,184.3 38.197,184.3 		"/>
		<polygon points="38.197,184.3 39.126,184.3 39.126,184.3 		"/>
		<polygon points="39.126,184.3 40.055,184.3 40.055,184.3 		"/>
		<polygon points="40.055,184.3 40.984,184.3 40.984,184.3 		"/>
		<polygon points="40.984,184.3 41.914,184.3 41.914,184.3 		"/>
		<rect x="41.914" y="169.856" width="0.929" height="28.889"/>
		<polygon points="42.843,184.3 43.772,184.3 43.772,184.3 		"/>
		<polygon points="43.772,184.3 44.701,184.3 44.701,184.3 		"/>
		<polygon points="44.701,184.3 45.631,184.3 45.631,184.3 		"/>
		<polygon points="45.631,184.3 46.56,184.3 46.56,184.3 		"/>
		<polygon points="46.56,184.3 47.489,184.3 47.489,184.3 		"/>
		<polygon points="47.489,184.3 48.419,184.3 48.419,184.3 		"/>
		<polygon points="48.419,184.3 49.348,184.3 49.348,184.3 		"/>
		<polygon points="49.348,184.3 50.277,184.3 50.277,184.3 		"/>
		<polygon points="50.277,184.3 51.206,184.3 51.206,184.3 		"/>
		<polygon points="51.206,184.3 52.136,184.3 52.136,184.3 		"/>
		<polygon points="52.136,184.3 53.065,184.3 53.065,184.3 		"/>
		<polygon points="53.065,184.3 53.994,184.3 53.994,184.3 		"/>
		<rect x="53.994" y="180.689" width="0.929" height="7.222"/>
		<polygon points="54.924,184.3 55.853,184.3 55.853,184.3 		"/>
		<polygon points="55.853,184.3 56.782,184.3 56.782,184.3 		"/>
		<polygon points="56.782,184.3 57.711,184.3 57.711,184.3 		"/>
		<rect x="57.711" y="166.244" width="0.929" height="36.111"/>
		<rect x="58.641" y="177.078" width="0.929" height="14.444"/>
		<polygon points="59.57,184.3 60.499,184.3 60.499,184.3 		"/>
		<polygon points="60.499,184.3 61.428,184.3 61.428,184.3 		"/>
		<rect x="61.428" y="162.633" width="0.929" height="43.333"/>
		<rect x="62.358" y="162.633" width="0.929" height="43.333"/>
		<rect x="63.287" y="137.356" width="0.929" height="93.889"/>
		<rect x="64.216" y="180.689" width="0.929" height="7.222"/>
		<polygon points="65.146,184.3 66.075,184.3 66.075,184.3 		"/>
		<polygon points="66.075,184.3 67.004,184.3 67.004,184.3 		"/>
		<polygon points="67.004,184.3 67.933,184.3 67.933,184.3 		"/>
		<polygon points="67.933,184.3 68.863,184.3 68.863,184.3 		"/>
		<polygon points="68.863,184.3 69.792,184.3 69.792,184.3 		"/>
		<polygon points="69.792,184.3 70.721,184.3 70.721,184.3 		"/>
		<polygon points="70.721,184.3 71.651,184.3 71.651,184.3 		"/>
		<polygon points="71.651,184.3 72.58,184.3 72.58,184.3 		"/>
		<polygon points="72.58,184.3 73.509,184.3 73.509,184.3 		"/>
		<polygon points="73.509,184.3 74.438,184.3 74.438,184.3 		"/>
		<polygon points="74.438,184.3 75.368,184.3 75.368,184.3 		"/>
		<polygon points="75.368,184.3 76.297,184.3 76.297,184.3 		"/>
		<polygon points="76.297,184.3 77.226,184.3 77.226,184.3 		"/>
		<polygon points="77.226,184.3 78.155,184.3 78.155,184.3 		"/>
		<polygon points="78.155,184.3 79.085,184.3 79.085,184.3 		"/>
		<polygon points="79.085,184.3 80.014,184.3 80.014,184.3 		"/>
		<polygon points="80.014,184.3 80.943,184.3 80.943,184.3 		"/>
		<polygon points="80.943,184.3 81.873,184.3 81.873,184.3 		"/>
		<polygon points="81.873,184.3 82.802,184.3 82.802,184.3 		"/>
		<polygon points="82.802,184.3 83.731,184.3 83.731,184.3 		"/>
		<polygon points="83.731,184.3 84.66,184.3 84.66,184.3 		"/>
		<polygon points="84.66,184.3 85.59,184.3 85.59,184.3 		"/>
		<polygon points="85.59,184.3 86.519,184.3 86.519,184.3 		"/>
		<polygon points="86.519,184.3 87.448,184.3 87.448,184.3 		"/>
		<polygon points="87.448,184.3 88.378,184.3 88.378,184.3 		"/>
		<polygon points="88.378,184.3 89.307,184.3 89.307,184.3 		"/>
		<polygon points="89.307,184.3 90.236,184.3 90.236,184.3 		"/>
		<rect x="90.236" y="166.244" width="0.929" height="36.111"/>
		<polygon points="91.165,184.3 92.095,184.3 92.095,184.3 		"/>
		<polygon points="92.095,184.3 93.024,184.3 93.024,184.3 		"/>
		<polygon points="93.024,184.3 93.953,184.3 93.953,184.3 		"/>
		<polygon points="93.953,184.3 94.882,184.3 94.882,184.3 		"/>
		<polygon points="94.882,184.3 95.812,184.3 95.812,184.3 		"/>
		<polygon points="95.812,184.3 96.741,184.3 96.741,184.3 		"/>
		<polygon points="96.741,184.3 97.67,184.3 97.67,184.3 		"/>
		<polygon points="97.67,184.3 98.6,184.3 98.6,184.3 		"/>
		<polygon points="98.6,184.3 99.529,184.3 99.529,184.3 		"/>
		<polygon points="99.529,184.3 100.458,184.3 100.458,184.3 		"/>
		<polygon points="100.458,184.3 101.387,184.3 101.387,184.3 		"/>
		<polygon points="101.387,184.3 102.317,184.3 102.317,184.3 		"/>
		<rect x="102.317" y="177.078" width="0.929" height="14.444"/>
		<polygon points="103.246,184.3 104.175,184.3 104.175,184.3 		"/>
		<polygon points="104.175,184.3 105.104,184.3 105.104,184.3 		"/>
		<polygon points="105.104,184.3 106.034,184.3 106.034,184.3 		"/>
		<rect x="106.034" y="173.467" width="0.929" height="21.667"/>
		<rect x="106.963" y="166.244" width="0.929" height="36.111"/>
		<polygon points="107.892,184.3 108.822,184.3 108.822,184.3 		"/>
		<polygon points="108.822,184.3 109.751,184.3 109.751,184.3 		"/>
		<rect x="109.751" y="180.689" width="0.929" height="7.222"/>
		<rect x="110.68" y="133.744" width="0.929" height="101.111"/>
		<rect x="111.609" y="126.522" width="0.929" height="115.556"/>
		<rect x="112.539" y="180.689" width="0.929" height="7.222"/>
		<rect x="113.468" y="177.078" width="0.929" height="14.444"/>
		<polygon points="114.397,184.3 115.327,184.3 115.327,184.3 		"/>
		<polygon points="115.327,184.3 116.256,184.3 116.256,184.3 		"/>
		<polygon points="116.256,184.3 117.185,184.3 117.185,184.3 		"/>
		<polygon points="117.185,184.3 118.114,184.3 118.114,184.3 		"/>
		<polygon points="118.114,184.3 119.044,184.3 119.044,184.3 		"/>
		<polygon points="119.044,184.3 119.973,184.3 119.973,184.3 		"/>
		<polygon points="119.973,184.3 120.902,184.3 120.902,184.3 		"/>
		<polygon points="120.902,184.3 121.831,184.3 121.831,184.3 		"/>
		<polygon points="121.831,184.3 122.761,184.3 122.761,184.3 		"/>
		<polygon points="122.761,184.3 123.69,184.3 123.69,184.3 		"/>
		<polygon points="123.69,184.3 124.619,184.3 124.619,184.3 		"/>
		<polygon points="124.619,184.3 125.549,184.3 125.549,184.3 		"/>
		<polygon points="125.549,184.3 126.478,184.3 126.478,184.3 		"/>
		<polygon points="126.478,184.3 127.407,184.3 127.407,184.3 		"/>
		<polygon points="127.407,184.3 128.336,184.3 128.336,184.3 		"/>
		<polygon points="128.336,184.3 129.266,184.3 129.266,184.3 		"/>
		<polygon points="129.266,184.3 130.195,184.3 130.195,184.3 		"/>
		<polygon points="130.195,184.3 131.124,184.3 131.124,184.3 		"/>
		<polygon points="131.124,184.3 132.054,184.3 132.054,184.3 		"/>
		<polygon points="132.054,184.3 132.983,184.3 132.983,184.3 		"/>
		<polygon points="132.983,184.3 133.912,184.3 133.912,184.3 		"/>
		<polygon points="133.912,184.3 134.841,184.3 134.841,184.3 		"/>
		<polygon points="134.841,184.3 135.771,184.3 135.771,184.3 		"/>
		<polygon points="135.771,184.3 136.7,184.3 136.7,184.3 		"/>
		<polygon points="136.7,184.3 137.629,184.3 137.629,184.3 		"/>
		<polygon points="137.629,184.3 138.558,184.3 138.558,184.3 		"/>
		<rect x="138.558" y="169.856" width="0.929" height="28.889"/>
		<rect x="139.488" y="173.467" width="0.929" height="21.667"/>
		<polygon points="140.417,184.3 141.346,184.3 141.346,184.3 		"/>
		<polygon points="141.346,184.3 142.276,184.3 142.276,184.3 		"/>
		<polygon points="142.276,184.3 143.205,184.3 143.205,184.3 		"/>
		<polygon points="143.205,184.3 144.134,184.3 144.134,184.3 		"/>
		<polygon points="144.134,184.3 145.063,184.3 145.063,184.3 		"/>
		<polygon points="145.063,184.3 145.993,184.3 145.993,184.3 		"/>
		<polygon points="145.993,184.3 146.922,184.3 146.922,184.3 		"/>
		<polygon points="146.922,184.3 147.851,184.3 147.851,184.3 		"/>
		<polygon points="147.851,184.3 148.781,184.3 148.781,184.3 		"/>
		<polygon points="148.781,184.3 149.71,184.3 149.71,184.3 		"/>
		<polygon points="149.71,184.3 150.639,184.3 150.639,184.3 		"/>
		<rect x="150.639" y="173.467" width="0.929" height="21.667"/>
		<polygon points="151.568,184.3 152.498,184.3 152.498,184.3 		"/>
		<polygon points="152.498,184.3 153.427,184.3 153.427,184.3 		"/>
		<polygon points="153.427,184.3 154.356,184.3 154.356,184.3 		"/>
		<polygon points="154.356,184.3 155.285,184.3 155.285,184.3 		"/>
		<rect x="155.285" y="166.244" width="0.929" height="36.111"/>
		<rect x="156.215" y="173.467" width="0.929" height="21.667"/>
		<rect x="157.144" y="177.078" width="0.929" height="14.444"/>
		<rect x="158.073" y="169.856" width="0.929" height="28.889"/>
		<rect x="159.003" y="166.244" width="0.929" height="36.111"/>
		<rect x="159.932" y="122.911" width="0.929" height="122.778"/>
		<rect x="160.861" y="180.689" width="0.929" height="7.222"/>
		<rect x="161.79" y="173.467" width="0.929" height="21.667"/>
		<polygon points="162.72,184.3 163.649,184.3 163.649,184.3 		"/>
		<polygon points="163.649,184.3 164.578,184.3 164.578,184.3 		"/>
		<polygon points="164.578,184.3 165.508,184.3 165.508,184.3 		"/>
		<polygon points="165.508,184.3 166.437,184.3 166.437,184.3 		"/>
		<polygon points="166.437,184.3 167.366,184.3 167.366,184.3 		"/>
		<polygon points="167.366,184.3 168.295,184.3 168.295,184.3 		"/>
		<polygon points="168.295,184.3 169.225,184.3 169.225,184.3 		"/>
		<polygon points="169.225,184.3 170.154,184.3 170.154,184.3 		"/>
		<polygon points="170.154,184.3 171.083,184.3 171.083,184.3 		"/>
		<polygon points="171.083,184.3 172.012,184.3 172.012,184.3 		"/>
		<polygon points="172.012,184.3 172.942,184.3 172.942,184.3 		"/>
		<polygon points="172.942,184.3 173.871,184.3 173.871,184.3 		"/>
		<polygon points="173.871,184.3 174.8,184.3 174.8,184.3 		"/>
		<polygon points="174.8,184.3 175.73,184.3 175.73,184.3 		"/>
		<polygon points="175.73,184.3 176.659,184.3 176.659,184.3 		"/>
		<polygon points="176.659,184.3 177.588,184.3 177.588,184.3 		"/>
		<polygon points="177.588,184.3 178.517,184.3 178.517,184.3 		"/>
		<polygon points="178.517,184.3 179.447,184.3 179.447,184.3 		"/>
		<polygon points="179.447,184.3 180.376,184.3 180.376,184.3 		"/>
		<polygon points="180.376,184.3 181.305,184.3 181.305,184.3 		"/>
		<polygon points="181.305,184.3 182.235,184.3 182.235,184.3 		"/>
		<rect x="182.235" y="180.689" width="0.929" height="7.222"/>
		<polygon points="183.164,184.3 184.093,184.3 184.093,184.3 		"/>
		<polygon points="184.093,184.3 185.022,184.3 185.022,184.3 		"/>
		<polygon points="185.022,184.3 185.952,184.3 185.952,184.3 		"/>
		<polygon points="185.952,184.3 186.881,184.3 186.881,184.3 		"/>
		<rect x="186.881" y="169.856" width="0.929" height="28.889"/>
		<polygon points="187.81,184.3 188.739,184.3 188.739,184.3 		"/>
		<polygon points="188.739,184.3 189.669,184.3 189.669,184.3 		"/>
		<polygon points="189.669,184.3 190.598,184.3 190.598,184.3 		"/>
		<polygon points="190.598,184.3 191.527,184.3 191.527,184.3 		"/>
		<polygon points="191.527,184.3 192.457,184.3 192.457,184.3 		"/>
		<polygon points="192.457,184.3 193.386,184.3 193.386,184.3 		"/>
		<rect x="193.386" y="177.078" width="0.929" height="14.444"/>
		<polygon points="194.315,184.3 195.244,184.3 195.244,184.3 		"/>
		<polygon points="195.244,184.3 196.174,184.3 196.174,184.3 		"/>
		<polygon points="196.174,184.3 197.103,184.3 197.103,184.3 		"/>
		<polygon points="197.103,184.3 198.032,184.3 198.032,184.3 		"/>
		<polygon points="198.032,184.3 198.962,184.3 198.962,184.3 		"/>
		<rect x="198.962" y="169.856" width="0.929" height="28.889"/>
		<polygon points="199.891,184.3 200.82,184.3 200.82,184.3 		"/>
		<rect x="200.82" y="180.689" width="0.929" height="7.222"/>
		<polygon points="201.749,184.3 202.679,184.3 202.679,184.3 		"/>
		<polygon points="202.679,184.3 203.608,184.3 203.608,184.3 		"/>
		<rect x="203.608" y="148.189" width="0.929" height="72.222"/>
		<polygon points="204.537,184.3 205.466,184.3 205.466,184.3 		"/>
		<polygon points="205.466,184.3 206.396,184.3 206.396,184.3 		"/>
		<rect x="206.396" y="177.078" width="0.929" height="14.444"/>
		<rect x="207.325" y="169.856" width="0.929" height="28.889"/>
		<rect x="208.254" y="130.133" width="0.929" height="108.333"/>
		<rect x="209.184" y="180.689" width="0.929" height="7.222"/>
		<rect x="210.113" y="162.633" width="0.929" height="43.333"/>
		<polygon points="211.042,184.3 211.971,184.3 211.971,184.3 		"/>
		<rect x="211.971" y="173.467" width="0.929" height="21.667"/>
		<polygon points="212.901,184.3 213.83,184.3 213.83,184.3 		"/>
		<polygon points="213.83,184.3 214.759,184.3 214.759,184.3 		"/>
		<polygon points="214.759,184.3 215.689,184.3 215.689,184.3 		"/>
		<polygon points="215.689,184.3 216.618,184.3 216.618,184.3 		"/>
		<polygon points="216.618,184.3 217.547,184.3 217.547,184.3 		"/>
		<polygon points="217.547,184.3 218.476,184.3 218.476,184.3 		"/>
		<polygon points="218.476,184.3 219.406,184.3 219.406,184.3 		"/>
		<polygon points="219.406,184.3 220.335,184.3 220.335,184.3 		"/>
		<polygon points="220.335,184.3 221.264,184.3 221.264,184.3 		"/>
		<polygon points="221.264,184.3 222.193,184.3 222.193,184.3 		"/>
		<polygon points="222.193,184.3 223.123,184.3 223.123,184.3 		"/>
		<polygon points="223.123,184.3 224.052,184.3 224.052,184.3 		"/>
		<polygon points="224.052,184.3 224.981,184.3 224.981,184.3 		"/>
		<polygon points="224.981,184.3 225.911,184.3 225.911,184.3 		"/>
		<polygon points="225.911,184.3 226.84,184.3 226.84,184.3 		"/>
		<polygon points="226.84,184.3 227.769,184.3 227.769,184.3 		"/>
		<polygon points="227.769,184.3 228.698,184.3 228.698,184.3 		"/>
		<polygon points="228.698,184.3 229.628,184.3 229.628,184.3 		"/>
		<polygon points="229.628,184.3 230.557,184.3 230.557,184.3 		"/>
		<polygon points="230.557,184.3 231.486,184.3 231.486,184.3 		"/>
		<polygon points="231.486,184.3 232.416,184.3 232.416,184.3 		"/>
		<polygon points="232.416,184.3 233.345,184.3 233.345,184.3 		"/>
		<polygon points="233.345,184.3 234.274,184.3 234.274,184.3 		"/>
		<polygon points="234.274,184.3 235.203,184.3 235.203,184.3 		"/>
		<rect x="235.203" y="173.467" width="0.929" height="21.667"/>
		<polygon points="236.133,184.3 237.062,184.3 237.062,184.3 		"/>
		<polygon points="237.062,184.3 237.991,184.3 237.991,184.3 		"/>
		<polygon points="237.991,184.3 238.92,184.3 238.92,184.3 		"/>
		<polygon points="238.92,184.3 239.85,184.3 239.85,184.3 		"/>
		<polygon points="239.85,184.3 240.779,184.3 240.779,184.3 		"/>
		<polygon points="240.779,184.3 241.708,184.3 241.708,184.3 		"/>
		<polygon points="241.708,184.3 242.638,184.3 242.638,184.3 		"/>
		<polygon points="242.638,184.3 243.567,184.3 243.567,184.3 		"/>
		<polygon points="243.567,184.3 244.496,184.3 244.496,184.3 		"/>
		<polygon points="244.496,184.3 245.425,184.3 245.425,184.3 		"/>
		<polygon points="245.425,184.3 246.355,184.3 246.355,184.3 		"/>
		<rect x="246.355" y="180.689" width="0.929" height="7.222"/>
		<polygon points="247.284,184.3 248.213,184.3 248.213,184.3 		"/>
		<polygon points="248.213,184.3 249.143,184.3 249.143,184.3 		"/>
		<polygon points="249.143,184.3 250.072,184.3 250.072,184.3 		"/>
		<polygon points="250.072,184.3 251.001,184.3 251.001,184.3 		"/>
		<polygon points="251.001,184.3 251.93,184.3 251.93,184.3 		"/>
		<rect x="251.93" y="173.467" width="0.929" height="21.667"/>
		<polygon points="252.86,184.3 253.789,184.3 253.789,184.3 		"/>
		<polygon points="253.789,184.3 254.718,184.3 254.718,184.3 		"/>
		<rect x="254.718" y="173.467" width="0.929" height="21.667"/>
		<rect x="255.647" y="162.633" width="0.929" height="43.333"/>
		<rect x="256.577" y="140.967" width="0.929" height="86.667"/>
		<rect x="257.506" y="173.467" width="0.929" height="21.667"/>
		<rect x="258.435" y="173.467" width="0.929" height="21.667"/>
		<polygon points="259.365,184.3 260.294,184.3 260.294,184.3 		"/>
		<polygon points="260.294,184.3 261.223,184.3 261.223,184.3 		"/>
		<rect x="261.223" y="180.689" width="0.929" height="7.222"/>
		<polygon points="262.152,184.3 263.082,184.3 263.082,184.3 		"/>
		<polygon points="263.082,184.3 264.011,184.3 264.011,184.3 		"/>
		<polygon points="264.011,184.3 264.94,184.3 264.94,184.3 		"/>
		<polygon points="264.94,184.3 265.87,184.3 265.87,184.3 		"/>
		<polygon points="265.87,184.3 266.799,184.3 266.799,184.3 		"/>
		<polygon points="266.799,184.3 267.728,184.3 267.728,184.3 		"/>
		<rect x="267.728" y="180.689" width="0.929" height="7.222"/>
		<polygon points="268.657,184.3 269.587,184.3 269.587,184.3 		"/>
		<polygon points="269.587,184.3 270.516,184.3 270.516,184.3 		"/>
		<polygon points="270.516,184.3 271.445,184.3 271.445,184.3 		"/>
		<polygon points="271.445,184.3 272.374,184.3 272.374,184.3 		"/>
		<polygon points="272.374,184.3 273.304,184.3 273.304,184.3 		"/>
		<polygon points="273.304,184.3 274.233,184.3 274.233,184.3 		"/>
		<polygon points="274.233,184.3 275.162,184.3 275.162,184.3 		"/>
		<polygon points="275.162,184.3 276.092,184.3 276.092,184.3 		"/>
		<polygon points="276.092,184.3 277.021,184.3 277.021,184.3 		"/>
		<polygon points="277.021,184.3 277.95,184.3 277.95,184.3 		"/>
		<polygon points="277.95,184.3 278.879,184.3 278.879,184.3 		"/>
		<polygon points="278.879,184.3 279.809,184.3 279.809,184.3 		"/>
		<polygon points="279.809,184.3 280.738,184.3 280.738,184.3 		"/>
		<polygon points="280.738,184.3 281.667,184.3 281.667,184.3 		"/>
		<polygon points="281.667,184.3 282.596,184.3 282.596,184.3 		"/>
		<polygon points="282.596,184.3 283.526,184.3 283.526,184.3 		"/>
		<polygon points="283.526,184.3 284.455,184.3 284.455,184.3 		"/>
		<polygon points="284.455,184.3 285.384,184.3 285.384,184.3 		"/>
		<polygon points="285.384,184.3 286.314,184.3 286.314,184.3 		"/>
		<polygon points="286.314,184.3 287.243,184.3 287.243,184.3 		"/>
		<polygon points="287.243,184.3 288.172,184.3 288.172,184.3 		"/>
		<polygon points="288.172,184.3 289.101,184.3 289.101,184.3 		"/>
		<polygon points="289.101,184.3 290.031,184.3 290.031,184.3 		"/>
		<polygon points="290.031,184.3 290.96,184.3 290.96,184.3 		"/>
		<polygon points="290.96,184.3 291.889,184.3 291.889,184.3 		"/>
		<polygon points="291.889,184.3 292.819,184.3 292.819,184.3 		"/>
		<polygon points="292.819,184.3 293.748,184.3 293.748,184.3 		"/>
		<polygon points="293.748,184.3 294.677,184.3 294.677,184.3 		"/>
		<polygon points="294.677,184.3 295.606,184.3 295.606,184.3 		"/>
		<polygon points="295.606,184.3 296.536,184.3 296.536,184.3 		"/>
		<polygon points="296.536,184.3 297.465,184.3 297.465,184.3 		"/>
		<polygon points="297.465,184.3 298.394,184.3 298.394,184.3 		"/>
		<rect x="298.394" y="180.689" width="0.929" height="7.222"/>
		<polygon points="299.323,184.3 300.253,184.3 300.253,184.3 		"/>
		<rect x="300.253" y="166.244" width="0.929" height="36.111"/>
		<rect x="301.182" y="173.467" width="0.929" height="21.667"/>
		<polygon points="302.111,184.3 303.041,184.3 303.041,184.3 		"/>
		<polygon points="303.041,184.3 303.97,184.3 303.97,184.3 		"/>
		<rect x="303.97" y="148.189" width="0.929" height="72.222"/>
		<rect x="304.899" y="130.133" width="0.929" height="108.333"/>
		<rect x="305.828" y="173.467" width="0.929" height="21.667"/>
		<polygon points="306.758,184.3 307.687,184.3 307.687,184.3 		"/>
		<polygon points="307.687,184.3 308.616,184.3 308.616,184.3 		"/>
		<rect x="308.616" y="180.689" width="0.929" height="7.222"/>
	</g>
	<g>
		<g>
			<g>
				<path fill="none" stroke="#000000" stroke-miterlimit="10" d="M305.091,110.667c-0.495-5.78-1.534-11.365-2.948-16
					c-2.373-7.154-5.678-11.86-9.152-12.613"/>
				<g>
					<path d="M305.364,115.186c0.649-2.177,1.821-4.902,3.139-6.631l-3.475,1.521l-3.643-1.054
						C302.918,110.564,304.436,113.112,305.364,115.186z"/>
				</g>
			</g>
		</g>
	</g>
	
		<line style="opacity:0.8;" fill="none" stroke="#000000" stroke-miterlimit="10" x1="0.5" y1="21.269" x2="320.5" y2="21.269"/>
	
		<line style="opacity:0.8;" fill="none" stroke="#000000" stroke-miterlimit="10" x1="0.5" y1="312.225" x2="320.5" y2="312.225"/>
</g>
<style>
#g-verba-vignette11-loteria-mobile-img rect, #g-verba-vignette11-loteria-mobile-img circle, #g-verba-vignette11-loteria-mobile-img path, #g-verba-vignette11-loteria-mobile-img line, #g-verba-vignette11-loteria-mobile-img polyline { vector-effect: non-scaling-stroke; }
</style>
</svg>

