<?xml version="1.0" encoding="utf-8"?>
<!-- Generator: Adobe Illustrator 24.0.3, SVG Export Plug-In . SVG Version: 6.00 Build 0)  -->
<svg version="1.2" baseProfile="tiny" id="g-verba-vignette11-loteria-desktop-img" xmlns="http://www.w3.org/2000/svg" xmlns:xlink="http://www.w3.org/1999/xlink"
	 x="0px" y="0px" viewBox="0 0 673 430.52" xml:space="preserve">
<g>
	<g transform="translate(30.969926933736456, 275)">
		<path display="none" fill="none" stroke="#212529" d="M0.5,89.482h611.054"/>
		<g transform="translate(24.107218442932727,0)">
			<line display="none" fill="none" stroke="#212529" x1="0" y1="-171.018" x2="0" y2="88.982"/>
			
				
		</g>
		<g transform="translate(49.40563114134543,0)">
			<line display="none" fill="none" stroke="#212529" x1="0" y1="-171.018" x2="0" y2="88.982"/>
			
				
		</g>
		<g transform="translate(74.98204837490552,0)">
			<line display="none" fill="none" stroke="#212529" x1="0" y1="-171.018" x2="0" y2="88.982"/>
			
				
		</g>
		<g transform="translate(100.57004913076342,0)">
			<line display="none" fill="none" stroke="#212529" x1="0" y1="-171.018" x2="0" y2="88.982"/>
			
				
		</g>
		<g transform="translate(125.57887377173093,0)">
			<line display="none" fill="none" stroke="#212529" x1="0" y1="-171.018" x2="0" y2="88.982"/>
			
				
		</g>
		<g transform="translate(150.87728647014362,0)">
			<line display="none" fill="none" stroke="#212529" x1="0" y1="-171.018" x2="0" y2="88.982"/>
			
				
		</g>
		<g transform="translate(176.45370370370372,0)">
			<line display="none" fill="none" stroke="#212529" x1="0" y1="-171.018" x2="0" y2="88.982"/>
			
				
		</g>
		<g transform="translate(202.0417044595616,0)">
			<line display="none" fill="none" stroke="#212529" x1="0" y1="-171.018" x2="0" y2="88.982"/>
			
				
		</g>
		<g transform="translate(227.32853363567648,0)">
			<line display="none" fill="none" stroke="#212529" x1="0" y1="-171.018" x2="0" y2="88.982"/>
			
				
		</g>
		<g transform="translate(252.6269463340892,0)">
			<line display="none" fill="none" stroke="#212529" x1="0" y1="-171.018" x2="0" y2="88.982"/>
			
				
		</g>
		<g transform="translate(278.20336356764926,0)">
			<line display="none" fill="none" stroke="#212529" x1="0" y1="-171.018" x2="0" y2="88.982"/>
			
				
		</g>
		<g transform="translate(303.7913643235072,0)">
			<line display="none" fill="none" stroke="#212529" x1="0" y1="-171.018" x2="0" y2="88.982"/>
			
				
		</g>
		<g transform="translate(328.8001889644747,0)">
			<line display="none" fill="none" stroke="#212529" x1="0" y1="-171.018" x2="0" y2="88.982"/>
			
				
		</g>
		<g transform="translate(354.0986016628874,0)">
			<line display="none" fill="none" stroke="#212529" x1="0" y1="-171.018" x2="0" y2="88.982"/>
			
				
		</g>
		<g transform="translate(379.6750188964475,0)">
			<line display="none" fill="none" stroke="#212529" x1="0" y1="-171.018" x2="0" y2="88.982"/>
			
				
		</g>
		<g transform="translate(405.2630196523054,0)">
			<line display="none" fill="none" stroke="#212529" x1="0" y1="-171.018" x2="0" y2="88.982"/>
			
				
		</g>
		<g transform="translate(430.27184429327286,0)">
			<line display="none" fill="none" stroke="#212529" x1="0" y1="-171.018" x2="0" y2="88.982"/>
			
				
		</g>
		<g transform="translate(455.5702569916856,0)">
			<line display="none" fill="none" stroke="#212529" x1="0" y1="-171.018" x2="0" y2="88.982"/>
			
				
		</g>
		<g transform="translate(481.1466742252457,0)">
			<line display="none" fill="none" stroke="#212529" x1="0" y1="-171.018" x2="0" y2="88.982"/>
			
				
		</g>
		<g transform="translate(506.7346749811036,0)">
			<line display="none" fill="none" stroke="#212529" x1="0" y1="-171.018" x2="0" y2="88.982"/>
			
				
		</g>
		<g transform="translate(531.7434996220711,0)">
			<line display="none" fill="none" stroke="#212529" x1="0" y1="-171.018" x2="0" y2="88.982"/>
			
				
		</g>
		<g transform="translate(557.0419123204838,0)">
			<line display="none" fill="none" stroke="#212529" x1="0" y1="-171.018" x2="0" y2="88.982"/>
			
				
		</g>
		<g transform="translate(582.6183295540438,0)">
			<line display="none" fill="none" stroke="#212529" x1="0" y1="-171.018" x2="0" y2="88.982"/>
			
				
		</g>
		<g transform="translate(608.2063303099018,0)">
			<line display="none" fill="none" stroke="#212529" x1="0" y1="-171.018" x2="0" y2="88.982"/>
			
				
		</g>
	</g>
	<g transform="translate(30.969926933736456, 290)">
		<path display="none" fill="none" stroke="#212529" d="M0.5,89.482h611.054"/>
		<g transform="translate(100.57004913076342,0)">
			<line display="none" fill="none" stroke="#212529" x1="0" y1="-171.018" x2="0" y2="88.982"/>
			
				<text transform="matrix(1 0 0 1 -11.1231 105.0822)" display="none" fill="#212529" font-family="'ElMessiri-Bold'" font-size="10px">2015</text>
		</g>
		<g transform="translate(202.0417044595616,0)">
			<line display="none" fill="none" stroke="#212529" x1="0" y1="-171.018" x2="0" y2="88.982"/>
			
				<text transform="matrix(1 0 0 1 -11.123 105.0822)" display="none" fill="#212529" font-family="'ElMessiri-Bold'" font-size="10px">2016</text>
		</g>
		<g transform="translate(303.7913643235072,0)">
			<line display="none" fill="none" stroke="#212529" x1="0" y1="-171.018" x2="0" y2="88.982"/>
			
				<text transform="matrix(1 0 0 1 -11.123 105.0822)" display="none" fill="#212529" font-family="'ElMessiri-Bold'" font-size="10px">2017</text>
		</g>
		<g transform="translate(405.2630196523054,0)">
			<line display="none" fill="none" stroke="#212529" x1="0" y1="-171.018" x2="0" y2="88.982"/>
			
				<text transform="matrix(1 0 0 1 -11.123 105.0822)" display="none" fill="#212529" font-family="'ElMessiri-Bold'" font-size="10px">2018</text>
		</g>
		<g transform="translate(506.7346749811036,0)">
			<line display="none" fill="none" stroke="#212529" x1="0" y1="-171.018" x2="0" y2="88.982"/>
			
				<text transform="matrix(1 0 0 1 -11.1231 105.0822)" display="none" fill="#212529" font-family="'ElMessiri-Bold'" font-size="10px">2019</text>
		</g>
		<g transform="translate(608.2063303099018,0)">
			<line display="none" fill="none" stroke="#212529" x1="0" y1="-171.018" x2="0" y2="88.982"/>
			
				<text transform="matrix(1 0 0 1 -11.1231 105.0822)" display="none" fill="#212529" font-family="'ElMessiri-Bold'" font-size="10px">2020</text>
		</g>
	</g>
	<g transform="translate(30, 0)">
		<path display="none" fill="none" stroke="#212529" d="M-6,219.482h6.5v-130H-6"/>
		<g transform="translate(0,130.5)">
			<line fill="none" stroke="#212529" stroke-opacity="0.12" x1="0" y1="88.982" x2="613" y2="88.982"/>
			
				
		</g>
		<g transform="translate(0,94.38888888888889)">
			<line fill="none" stroke="#212529" stroke-opacity="0.12" x1="0" y1="88.982" x2="613" y2="88.982"/>
			
				
		</g>
		<g transform="translate(0,58.27777777777777)">
			<line fill="none" stroke="#212529" stroke-opacity="0.12" x1="0" y1="88.982" x2="613" y2="88.982"/>
			
				
		</g>
		<g transform="translate(0,22.16666666666666)">
			<line fill="none" stroke="#212529" stroke-opacity="0.12" x1="0" y1="88.982" x2="613" y2="88.982"/>
			
				
		</g>
	</g>
	<g>
		<polygon points="30,218.982 31.946,218.982 31.946,218.982 		"/>
		<polygon points="31.946,218.982 33.892,218.982 33.892,218.982 		"/>
		<polygon points="33.892,218.982 35.838,218.982 35.838,218.982 		"/>
		<polygon points="35.838,218.982 37.784,218.982 37.784,218.982 		"/>
		<polygon points="37.784,218.982 39.73,218.982 39.73,218.982 		"/>
		<polygon points="39.73,218.982 41.676,218.982 41.676,218.982 		"/>
		<polygon points="41.676,218.982 43.622,218.982 43.622,218.982 		"/>
		<polygon points="43.622,218.982 45.568,218.982 45.568,218.982 		"/>
		<polygon points="45.568,218.982 47.514,218.982 47.514,218.982 		"/>
		<polygon points="47.514,218.982 49.46,218.982 49.46,218.982 		"/>
		<polygon points="49.46,218.982 51.406,218.982 51.406,218.982 		"/>
		<polygon points="51.406,218.982 53.352,218.982 53.352,218.982 		"/>
		<polygon points="53.352,218.982 55.298,218.982 55.298,218.982 		"/>
		<polygon points="55.298,218.982 57.244,218.982 57.244,218.982 		"/>
		<polygon points="57.244,218.982 59.19,218.982 59.19,218.982 		"/>
		<polygon points="59.19,218.982 61.137,218.982 61.137,218.982 		"/>
		<polygon points="61.137,218.982 63.083,218.982 63.083,218.982 		"/>
		<polygon points="63.083,218.982 65.029,218.982 65.029,218.982 		"/>
		<polygon points="65.029,218.982 66.975,218.982 66.975,218.982 		"/>
		<polygon points="66.975,218.982 68.921,218.982 68.921,218.982 		"/>
		<polygon points="68.921,218.982 70.867,218.982 70.867,218.982 		"/>
		<polygon points="70.867,218.982 72.813,218.982 72.813,218.982 		"/>
		<polygon points="72.813,218.982 74.759,218.982 74.759,218.982 		"/>
		<polygon points="74.759,218.982 76.705,218.982 76.705,218.982 		"/>
		<polygon points="76.705,218.982 78.651,218.982 78.651,218.982 		"/>
		<polygon points="78.651,218.982 80.597,218.982 80.597,218.982 		"/>
		<polygon points="80.597,218.982 82.543,218.982 82.543,218.982 		"/>
		<rect x="82.543" y="190.093" width="1.946" height="57.778"/>
		<polygon points="84.489,218.982 86.435,218.982 86.435,218.982 		"/>
		<polygon points="86.435,218.982 88.381,218.982 88.381,218.982 		"/>
		<polygon points="88.381,218.982 90.327,218.982 90.327,218.982 		"/>
		<polygon points="90.327,218.982 92.273,218.982 92.273,218.982 		"/>
		<polygon points="92.273,218.982 94.219,218.982 94.219,218.982 		"/>
		<polygon points="94.219,218.982 96.165,218.982 96.165,218.982 		"/>
		<polygon points="96.165,218.982 98.111,218.982 98.111,218.982 		"/>
		<polygon points="98.111,218.982 100.057,218.982 100.057,218.982 		"/>
		<polygon points="100.057,218.982 102.003,218.982 102.003,218.982 		"/>
		<polygon points="102.003,218.982 103.949,218.982 103.949,218.982 		"/>
		<polygon points="103.949,218.982 105.895,218.982 105.895,218.982 		"/>
		<polygon points="105.895,218.982 107.841,218.982 107.841,218.982 		"/>
		<rect x="107.841" y="211.76" width="1.946" height="14.444"/>
		<polygon points="109.787,218.982 111.733,218.982 111.733,218.982 		"/>
		<polygon points="111.733,218.982 113.679,218.982 113.679,218.982 		"/>
		<polygon points="113.679,218.982 115.625,218.982 115.625,218.982 		"/>
		<rect x="115.625" y="182.871" width="1.946" height="72.222"/>
		<rect x="117.571" y="204.538" width="1.946" height="28.889"/>
		<polygon points="119.517,218.982 121.463,218.982 121.463,218.982 		"/>
		<polygon points="121.463,218.982 123.41,218.982 123.41,218.982 		"/>
		<rect x="123.41" y="175.649" width="1.946" height="86.667"/>
		<rect x="125.356" y="175.649" width="1.946" height="86.667"/>
		<rect x="127.302" y="125.093" width="1.946" height="187.778"/>
		<rect x="129.248" y="211.76" width="1.946" height="14.444"/>
		<polygon points="131.194,218.982 133.14,218.982 133.14,218.982 		"/>
		<polygon points="133.14,218.982 135.086,218.982 135.086,218.982 		"/>
		<polygon points="135.086,218.982 137.032,218.982 137.032,218.982 		"/>
		<polygon points="137.032,218.982 138.978,218.982 138.978,218.982 		"/>
		<polygon points="138.978,218.982 140.924,218.982 140.924,218.982 		"/>
		<polygon points="140.924,218.982 142.87,218.982 142.87,218.982 		"/>
		<polygon points="142.87,218.982 144.816,218.982 144.816,218.982 		"/>
		<polygon points="144.816,218.982 146.762,218.982 146.762,218.982 		"/>
		<polygon points="146.762,218.982 148.708,218.982 148.708,218.982 		"/>
		<polygon points="148.708,218.982 150.654,218.982 150.654,218.982 		"/>
		<polygon points="150.654,218.982 152.6,218.982 152.6,218.982 		"/>
		<polygon points="152.6,218.982 154.546,218.982 154.546,218.982 		"/>
		<polygon points="154.546,218.982 156.492,218.982 156.492,218.982 		"/>
		<polygon points="156.492,218.982 158.438,218.982 158.438,218.982 		"/>
		<polygon points="158.438,218.982 160.384,218.982 160.384,218.982 		"/>
		<polygon points="160.384,218.982 162.33,218.982 162.33,218.982 		"/>
		<polygon points="162.33,218.982 164.276,218.982 164.276,218.982 		"/>
		<polygon points="164.276,218.982 166.222,218.982 166.222,218.982 		"/>
		<polygon points="166.222,218.982 168.168,218.982 168.168,218.982 		"/>
		<polygon points="168.168,218.982 170.114,218.982 170.114,218.982 		"/>
		<polygon points="170.114,218.982 172.06,218.982 172.06,218.982 		"/>
		<polygon points="172.06,218.982 174.006,218.982 174.006,218.982 		"/>
		<polygon points="174.006,218.982 175.952,218.982 175.952,218.982 		"/>
		<polygon points="175.952,218.982 177.898,218.982 177.898,218.982 		"/>
		<polygon points="177.898,218.982 179.844,218.982 179.844,218.982 		"/>
		<polygon points="179.844,218.982 181.79,218.982 181.79,218.982 		"/>
		<polygon points="181.79,218.982 183.737,218.982 183.737,218.982 		"/>
		<rect x="183.737" y="182.871" width="1.946" height="72.222"/>
		<polygon points="185.683,218.982 187.629,218.982 187.629,218.982 		"/>
		<polygon points="187.629,218.982 189.575,218.982 189.575,218.982 		"/>
		<polygon points="189.575,218.982 191.521,218.982 191.521,218.982 		"/>
		<polygon points="191.521,218.982 193.467,218.982 193.467,218.982 		"/>
		<polygon points="193.467,218.982 195.413,218.982 195.413,218.982 		"/>
		<polygon points="195.413,218.982 197.359,218.982 197.359,218.982 		"/>
		<polygon points="197.359,218.982 199.305,218.982 199.305,218.982 		"/>
		<polygon points="199.305,218.982 201.251,218.982 201.251,218.982 		"/>
		<polygon points="201.251,218.982 203.197,218.982 203.197,218.982 		"/>
		<polygon points="203.197,218.982 205.143,218.982 205.143,218.982 		"/>
		<polygon points="205.143,218.982 207.089,218.982 207.089,218.982 		"/>
		<polygon points="207.089,218.982 209.035,218.982 209.035,218.982 		"/>
		<rect x="209.035" y="204.538" width="1.946" height="28.889"/>
		<polygon points="210.981,218.982 212.927,218.982 212.927,218.982 		"/>
		<polygon points="212.927,218.982 214.873,218.982 214.873,218.982 		"/>
		<polygon points="214.873,218.982 216.819,218.982 216.819,218.982 		"/>
		<rect x="216.819" y="197.316" width="1.946" height="43.333"/>
		<rect x="218.765" y="182.871" width="1.946" height="72.222"/>
		<polygon points="220.711,218.982 222.657,218.982 222.657,218.982 		"/>
		<polygon points="222.657,218.982 224.603,218.982 224.603,218.982 		"/>
		<rect x="224.603" y="211.76" width="1.946" height="14.444"/>
		<rect x="226.549" y="117.871" width="1.946" height="202.222"/>
		<rect x="228.495" y="103.427" width="1.946" height="231.111"/>
		<rect x="230.441" y="211.76" width="1.946" height="14.444"/>
		<rect x="232.387" y="204.538" width="1.946" height="28.889"/>
		<polygon points="234.333,218.982 236.279,218.982 236.279,218.982 		"/>
		<polygon points="236.279,218.982 238.225,218.982 238.225,218.982 		"/>
		<polygon points="238.225,218.982 240.171,218.982 240.171,218.982 		"/>
		<polygon points="240.171,218.982 242.117,218.982 242.117,218.982 		"/>
		<polygon points="242.117,218.982 244.063,218.982 244.063,218.982 		"/>
		<polygon points="244.063,218.982 246.01,218.982 246.01,218.982 		"/>
		<polygon points="246.01,218.982 247.956,218.982 247.956,218.982 		"/>
		<polygon points="247.956,218.982 249.902,218.982 249.902,218.982 		"/>
		<polygon points="249.902,218.982 251.848,218.982 251.848,218.982 		"/>
		<polygon points="251.848,218.982 253.794,218.982 253.794,218.982 		"/>
		<polygon points="253.794,218.982 255.74,218.982 255.74,218.982 		"/>
		<polygon points="255.74,218.982 257.686,218.982 257.686,218.982 		"/>
		<polygon points="257.686,218.982 259.632,218.982 259.632,218.982 		"/>
		<polygon points="259.632,218.982 261.578,218.982 261.578,218.982 		"/>
		<polygon points="261.578,218.982 263.524,218.982 263.524,218.982 		"/>
		<polygon points="263.524,218.982 265.47,218.982 265.47,218.982 		"/>
		<polygon points="265.47,218.982 267.416,218.982 267.416,218.982 		"/>
		<polygon points="267.416,218.982 269.362,218.982 269.362,218.982 		"/>
		<polygon points="269.362,218.982 271.308,218.982 271.308,218.982 		"/>
		<polygon points="271.308,218.982 273.254,218.982 273.254,218.982 		"/>
		<polygon points="273.254,218.982 275.2,218.982 275.2,218.982 		"/>
		<polygon points="275.2,218.982 277.146,218.982 277.146,218.982 		"/>
		<polygon points="277.146,218.982 279.092,218.982 279.092,218.982 		"/>
		<polygon points="279.092,218.982 281.038,218.982 281.038,218.982 		"/>
		<polygon points="281.038,218.982 282.984,218.982 282.984,218.982 		"/>
		<polygon points="282.984,218.982 284.93,218.982 284.93,218.982 		"/>
		<rect x="284.93" y="190.093" width="1.946" height="57.778"/>
		<rect x="286.876" y="197.316" width="1.946" height="43.333"/>
		<polygon points="288.822,218.982 290.768,218.982 290.768,218.982 		"/>
		<polygon points="290.768,218.982 292.714,218.982 292.714,218.982 		"/>
		<polygon points="292.714,218.982 294.66,218.982 294.66,218.982 		"/>
		<polygon points="294.66,218.982 296.606,218.982 296.606,218.982 		"/>
		<polygon points="296.606,218.982 298.552,218.982 298.552,218.982 		"/>
		<polygon points="298.552,218.982 300.498,218.982 300.498,218.982 		"/>
		<polygon points="300.498,218.982 302.444,218.982 302.444,218.982 		"/>
		<polygon points="302.444,218.982 304.391,218.982 304.391,218.982 		"/>
		<polygon points="304.39,218.982 306.337,218.982 306.337,218.982 		"/>
		<polygon points="306.337,218.982 308.283,218.982 308.283,218.982 		"/>
		<polygon points="308.283,218.982 310.229,218.982 310.229,218.982 		"/>
		<rect x="310.229" y="197.316" width="1.946" height="43.333"/>
		<polygon points="312.175,218.982 314.121,218.982 314.121,218.982 		"/>
		<polygon points="314.121,218.982 316.067,218.982 316.067,218.982 		"/>
		<polygon points="316.067,218.982 318.013,218.982 318.013,218.982 		"/>
		<polygon points="318.013,218.982 319.959,218.982 319.959,218.982 		"/>
		<rect x="319.959" y="182.871" width="1.946" height="72.222"/>
		<rect x="321.905" y="197.316" width="1.946" height="43.333"/>
		<rect x="323.851" y="204.538" width="1.946" height="28.889"/>
		<rect x="325.797" y="190.093" width="1.946" height="57.778"/>
		<rect x="327.743" y="182.871" width="1.946" height="72.222"/>
		<rect x="329.689" y="96.204" width="1.946" height="245.556"/>
		<rect x="331.635" y="211.76" width="1.946" height="14.444"/>
		<rect x="333.581" y="197.316" width="1.946" height="43.333"/>
		<polygon points="335.527,218.982 337.473,218.982 337.473,218.982 		"/>
		<polygon points="337.473,218.982 339.419,218.982 339.419,218.982 		"/>
		<polygon points="339.419,218.982 341.365,218.982 341.365,218.982 		"/>
		<polygon points="341.365,218.982 343.311,218.982 343.311,218.982 		"/>
		<polygon points="343.311,218.982 345.257,218.982 345.257,218.982 		"/>
		<polygon points="345.257,218.982 347.203,218.982 347.203,218.982 		"/>
		<polygon points="347.203,218.982 349.149,218.982 349.149,218.982 		"/>
		<polygon points="349.149,218.982 351.095,218.982 351.095,218.982 		"/>
		<polygon points="351.095,218.982 353.041,218.982 353.041,218.982 		"/>
		<polygon points="353.041,218.982 354.987,218.982 354.987,218.982 		"/>
		<polygon points="354.987,218.982 356.933,218.982 356.933,218.982 		"/>
		<polygon points="356.933,218.982 358.879,218.982 358.879,218.982 		"/>
		<polygon points="358.879,218.982 360.825,218.982 360.825,218.982 		"/>
		<polygon points="360.825,218.982 362.771,218.982 362.771,218.982 		"/>
		<polygon points="362.771,218.982 364.717,218.982 364.717,218.982 		"/>
		<polygon points="364.717,218.982 366.664,218.982 366.664,218.982 		"/>
		<polygon points="366.663,218.982 368.61,218.982 368.61,218.982 		"/>
		<polygon points="368.61,218.982 370.556,218.982 370.556,218.982 		"/>
		<polygon points="370.556,218.982 372.502,218.982 372.502,218.982 		"/>
		<polygon points="372.502,218.982 374.448,218.982 374.448,218.982 		"/>
		<polygon points="374.448,218.982 376.394,218.982 376.394,218.982 		"/>
		<rect x="376.394" y="211.76" width="1.946" height="14.444"/>
		<polygon points="378.34,218.982 380.286,218.982 380.286,218.982 		"/>
		<polygon points="380.286,218.982 382.232,218.982 382.232,218.982 		"/>
		<polygon points="382.232,218.982 384.178,218.982 384.178,218.982 		"/>
		<polygon points="384.178,218.982 386.124,218.982 386.124,218.982 		"/>
		<rect x="386.124" y="190.093" width="1.946" height="57.778"/>
		<polygon points="388.07,218.982 390.016,218.982 390.016,218.982 		"/>
		<polygon points="390.016,218.982 391.962,218.982 391.962,218.982 		"/>
		<polygon points="391.962,218.982 393.908,218.982 393.908,218.982 		"/>
		<polygon points="393.908,218.982 395.854,218.982 395.854,218.982 		"/>
		<polygon points="395.854,218.982 397.8,218.982 397.8,218.982 		"/>
		<polygon points="397.8,218.982 399.746,218.982 399.746,218.982 		"/>
		<rect x="399.746" y="204.538" width="1.946" height="28.889"/>
		<polygon points="401.692,218.982 403.638,218.982 403.638,218.982 		"/>
		<polygon points="403.638,218.982 405.584,218.982 405.584,218.982 		"/>
		<polygon points="405.584,218.982 407.53,218.982 407.53,218.982 		"/>
		<polygon points="407.53,218.982 409.476,218.982 409.476,218.982 		"/>
		<polygon points="409.476,218.982 411.422,218.982 411.422,218.982 		"/>
		<rect x="411.422" y="190.093" width="1.946" height="57.778"/>
		<polygon points="413.368,218.982 415.314,218.982 415.314,218.982 		"/>
		<rect x="415.314" y="211.76" width="1.946" height="14.444"/>
		<polygon points="417.26,218.982 419.206,218.982 419.206,218.982 		"/>
		<polygon points="419.206,218.982 421.152,218.982 421.152,218.982 		"/>
		<rect x="421.152" y="146.76" width="1.946" height="144.444"/>
		<polygon points="423.098,218.982 425.044,218.982 425.044,218.982 		"/>
		<polygon points="425.044,218.982 426.99,218.982 426.99,218.982 		"/>
		<rect x="426.99" y="204.538" width="1.946" height="28.889"/>
		<rect x="428.936" y="190.093" width="1.946" height="57.778"/>
		<rect x="430.883" y="110.649" width="1.946" height="216.667"/>
		<rect x="432.829" y="211.76" width="1.946" height="14.444"/>
		<rect x="434.775" y="175.649" width="1.946" height="86.667"/>
		<polygon points="436.721,218.982 438.667,218.982 438.667,218.982 		"/>
		<rect x="438.667" y="197.316" width="1.946" height="43.333"/>
		<polygon points="440.613,218.982 442.559,218.982 442.559,218.982 		"/>
		<polygon points="442.559,218.982 444.505,218.982 444.505,218.982 		"/>
		<polygon points="444.505,218.982 446.451,218.982 446.451,218.982 		"/>
		<polygon points="446.451,218.982 448.397,218.982 448.397,218.982 		"/>
		<polygon points="448.397,218.982 450.343,218.982 450.343,218.982 		"/>
		<polygon points="450.343,218.982 452.289,218.982 452.289,218.982 		"/>
		<polygon points="452.289,218.982 454.235,218.982 454.235,218.982 		"/>
		<polygon points="454.235,218.982 456.181,218.982 456.181,218.982 		"/>
		<polygon points="456.181,218.982 458.127,218.982 458.127,218.982 		"/>
		<polygon points="458.127,218.982 460.073,218.982 460.073,218.982 		"/>
		<polygon points="460.073,218.982 462.019,218.982 462.019,218.982 		"/>
		<polygon points="462.019,218.982 463.965,218.982 463.965,218.982 		"/>
		<polygon points="463.965,218.982 465.911,218.982 465.911,218.982 		"/>
		<polygon points="465.911,218.982 467.857,218.982 467.857,218.982 		"/>
		<polygon points="467.857,218.982 469.803,218.982 469.803,218.982 		"/>
		<polygon points="469.803,218.982 471.749,218.982 471.749,218.982 		"/>
		<polygon points="471.749,218.982 473.695,218.982 473.695,218.982 		"/>
		<polygon points="473.695,218.982 475.641,218.982 475.641,218.982 		"/>
		<polygon points="475.641,218.982 477.587,218.982 477.587,218.982 		"/>
		<polygon points="477.587,218.982 479.533,218.982 479.533,218.982 		"/>
		<polygon points="479.533,218.982 481.479,218.982 481.479,218.982 		"/>
		<polygon points="481.479,218.982 483.425,218.982 483.425,218.982 		"/>
		<polygon points="483.425,218.982 485.371,218.982 485.371,218.982 		"/>
		<polygon points="485.371,218.982 487.317,218.982 487.317,218.982 		"/>
		<rect x="487.317" y="197.316" width="1.946" height="43.333"/>
		<polygon points="489.263,218.982 491.21,218.982 491.21,218.982 		"/>
		<polygon points="491.21,218.982 493.156,218.982 493.156,218.982 		"/>
		<polygon points="493.156,218.982 495.102,218.982 495.102,218.982 		"/>
		<polygon points="495.102,218.982 497.048,218.982 497.048,218.982 		"/>
		<polygon points="497.048,218.982 498.994,218.982 498.994,218.982 		"/>
		<polygon points="498.994,218.982 500.94,218.982 500.94,218.982 		"/>
		<polygon points="500.94,218.982 502.886,218.982 502.886,218.982 		"/>
		<polygon points="502.886,218.982 504.832,218.982 504.832,218.982 		"/>
		<polygon points="504.832,218.982 506.778,218.982 506.778,218.982 		"/>
		<polygon points="506.778,218.982 508.724,218.982 508.724,218.982 		"/>
		<polygon points="508.724,218.982 510.67,218.982 510.67,218.982 		"/>
		<rect x="510.67" y="211.76" width="1.946" height="14.444"/>
		<polygon points="512.616,218.982 514.562,218.982 514.562,218.982 		"/>
		<polygon points="514.562,218.982 516.508,218.982 516.508,218.982 		"/>
		<polygon points="516.508,218.982 518.454,218.982 518.454,218.982 		"/>
		<polygon points="518.454,218.982 520.4,218.982 520.4,218.982 		"/>
		<polygon points="520.4,218.982 522.346,218.982 522.346,218.982 		"/>
		<rect x="522.346" y="197.316" width="1.946" height="43.333"/>
		<polygon points="524.292,218.982 526.238,218.982 526.238,218.982 		"/>
		<polygon points="526.238,218.982 528.184,218.982 528.184,218.982 		"/>
		<rect x="528.184" y="197.316" width="1.946" height="43.333"/>
		<rect x="530.13" y="175.649" width="1.946" height="86.667"/>
		<rect x="532.076" y="132.316" width="1.946" height="173.333"/>
		<rect x="534.022" y="197.316" width="1.946" height="43.333"/>
		<rect x="535.968" y="197.316" width="1.946" height="43.333"/>
		<polygon points="537.914,218.982 539.86,218.982 539.86,218.982 		"/>
		<polygon points="539.86,218.982 541.806,218.982 541.806,218.982 		"/>
		<rect x="541.806" y="211.76" width="1.946" height="14.444"/>
		<polygon points="543.752,218.982 545.698,218.982 545.698,218.982 		"/>
		<polygon points="545.698,218.982 547.644,218.982 547.644,218.982 		"/>
		<polygon points="547.644,218.982 549.591,218.982 549.591,218.982 		"/>
		<polygon points="549.59,218.982 551.536,218.982 551.536,218.982 		"/>
		<polygon points="551.536,218.982 553.483,218.982 553.483,218.982 		"/>
		<polygon points="553.483,218.982 555.429,218.982 555.429,218.982 		"/>
		<rect x="555.429" y="211.76" width="1.946" height="14.444"/>
		<polygon points="557.375,218.982 559.321,218.982 559.321,218.982 		"/>
		<polygon points="559.321,218.982 561.267,218.982 561.267,218.982 		"/>
		<polygon points="561.267,218.982 563.213,218.982 563.213,218.982 		"/>
		<polygon points="563.213,218.982 565.159,218.982 565.159,218.982 		"/>
		<polygon points="565.159,218.982 567.105,218.982 567.105,218.982 		"/>
		<polygon points="567.105,218.982 569.051,218.982 569.051,218.982 		"/>
		<polygon points="569.051,218.982 570.997,218.982 570.997,218.982 		"/>
		<polygon points="570.997,218.982 572.943,218.982 572.943,218.982 		"/>
		<polygon points="572.943,218.982 574.889,218.982 574.889,218.982 		"/>
		<polygon points="574.889,218.982 576.835,218.982 576.835,218.982 		"/>
		<polygon points="576.835,218.982 578.781,218.982 578.781,218.982 		"/>
		<polygon points="578.781,218.982 580.727,218.982 580.727,218.982 		"/>
		<polygon points="580.727,218.982 582.673,218.982 582.673,218.982 		"/>
		<polygon points="582.673,218.982 584.619,218.982 584.619,218.982 		"/>
		<polygon points="584.619,218.982 586.565,218.982 586.565,218.982 		"/>
		<polygon points="586.565,218.982 588.511,218.982 588.511,218.982 		"/>
		<polygon points="588.511,218.982 590.457,218.982 590.457,218.982 		"/>
		<polygon points="590.457,218.982 592.403,218.982 592.403,218.982 		"/>
		<polygon points="592.403,218.982 594.349,218.982 594.349,218.982 		"/>
		<polygon points="594.349,218.982 596.295,218.982 596.295,218.982 		"/>
		<polygon points="596.295,218.982 598.241,218.982 598.241,218.982 		"/>
		<polygon points="598.241,218.982 600.187,218.982 600.187,218.982 		"/>
		<polygon points="600.187,218.982 602.133,218.982 602.133,218.982 		"/>
		<polygon points="602.133,218.982 604.079,218.982 604.079,218.982 		"/>
		<polygon points="604.079,218.982 606.025,218.982 606.025,218.982 		"/>
		<polygon points="606.025,218.982 607.971,218.982 607.971,218.982 		"/>
		<polygon points="607.971,218.982 609.917,218.982 609.917,218.982 		"/>
		<polygon points="609.917,218.982 611.864,218.982 611.864,218.982 		"/>
		<polygon points="611.863,218.982 613.81,218.982 613.81,218.982 		"/>
		<polygon points="613.81,218.982 615.756,218.982 615.756,218.982 		"/>
		<polygon points="615.756,218.982 617.702,218.982 617.702,218.982 		"/>
		<polygon points="617.702,218.982 619.648,218.982 619.648,218.982 		"/>
		<rect x="619.648" y="211.76" width="1.946" height="14.444"/>
		<polygon points="621.594,218.982 623.54,218.982 623.54,218.982 		"/>
		<rect x="623.54" y="182.871" width="1.946" height="72.222"/>
		<rect x="625.486" y="197.316" width="1.946" height="43.333"/>
		<polygon points="627.432,218.982 629.378,218.982 629.378,218.982 		"/>
		<polygon points="629.378,218.982 631.324,218.982 631.324,218.982 		"/>
		<rect x="631.324" y="146.76" width="1.946" height="144.444"/>
		<rect x="633.27" y="110.649" width="1.946" height="216.667"/>
		<rect x="635.216" y="197.316" width="1.946" height="43.333"/>
		<polygon points="637.162,218.982 639.108,218.982 639.108,218.982 		"/>
		<polygon points="639.108,218.982 641.054,218.982 641.054,218.982 		"/>
		<rect x="641.054" y="211.76" width="1.946" height="14.444"/>
	</g>
	<g>
		<g>
			<g>
				<path fill="none" stroke="#000000" stroke-miterlimit="10" d="M633.959,96.589c-0.577-6.357-2.033-12.561-4.079-17.633
					c-3.157-7.197-7.555-11.932-12.178-12.689"/>
				<g>
					<path d="M634.165,99.6c0.402-1.46,1.145-3.293,1.999-4.463l-2.295,1.063l-2.443-0.651
						C632.47,96.553,633.518,98.231,634.165,99.6z"/>
				</g>
			</g>
		</g>
	</g>
	
		<line style="opacity:0.8;" fill="none" stroke="#000000" stroke-miterlimit="10" x1="19.75" y1="19.998" x2="653.25" y2="19.998"/>
	
		<line style="opacity:0.8;" fill="none" stroke="#000000" stroke-miterlimit="10" x1="22.95" y1="410.522" x2="650.05" y2="410.522"/>
</g>
<style>
#g-verba-vignette11-loteria-desktop-img rect, #g-verba-vignette11-loteria-desktop-img circle, #g-verba-vignette11-loteria-desktop-img path, #g-verba-vignette11-loteria-desktop-img line, #g-verba-vignette11-loteria-desktop-img polyline { vector-effect: non-scaling-stroke; }
</style>
</svg>

