<?xml version="1.0" encoding="utf-8"?>
<!-- Generator: Adobe Illustrator 24.0.3, SVG Export Plug-In . SVG Version: 6.00 Build 0)  -->
<svg version="1.2" baseProfile="tiny" id="g-verba-vignette07-coronavirus-desktop-img" xmlns="http://www.w3.org/2000/svg" xmlns:xlink="http://www.w3.org/1999/xlink"
	 x="0px" y="0px" viewBox="0 0 673 441.83" xml:space="preserve">
<g>
	<g transform="translate(31.014889460381234, 275)">
		<path display="none" fill="none" stroke="#212529" d="M0.5,102.525h610.963"/>
		<g transform="translate(19.095594051574118,0)">
			<line display="none" fill="none" stroke="#212529" x1="0" y1="-157.975" x2="0" y2="102.025"/>
			
				
		</g>
		<g transform="translate(45.86161208669514,0)">
			<line display="none" fill="none" stroke="#212529" x1="0" y1="-157.975" x2="0" y2="102.025"/>
			
				
		</g>
		<g transform="translate(72.63975241259294,0)">
			<line display="none" fill="none" stroke="#212529" x1="0" y1="-157.975" x2="0" y2="102.025"/>
			
				
		</g>
		<g transform="translate(98.81177819965197,0)">
			<line display="none" fill="none" stroke="#212529" x1="0" y1="-157.975" x2="0" y2="102.025"/>
			
				
		</g>
		<g transform="translate(125.28686125613036,0)">
			<line display="none" fill="none" stroke="#212529" x1="0" y1="-157.975" x2="0" y2="102.025"/>
			
				
		</g>
		<g transform="translate(152.0528792912514,0)">
			<line display="none" fill="none" stroke="#212529" x1="0" y1="-157.975" x2="0" y2="102.025"/>
			
				
		</g>
		<g transform="translate(178.83101961714917,0)">
			<line display="none" fill="none" stroke="#212529" x1="0" y1="-157.975" x2="0" y2="102.025"/>
			
				
		</g>
		<g transform="translate(205.29398038285083,0)">
			<line display="none" fill="none" stroke="#212529" x1="0" y1="-157.975" x2="0" y2="102.025"/>
			
				
		</g>
		<g transform="translate(231.76906343932924,0)">
			<line display="none" fill="none" stroke="#212529" x1="0" y1="-157.975" x2="0" y2="102.025"/>
			
				
		</g>
		<g transform="translate(258.53508147445024,0)">
			<line display="none" fill="none" stroke="#212529" x1="0" y1="-157.975" x2="0" y2="102.025"/>
			
				
		</g>
		<g transform="translate(285.31322180034806,0)">
			<line display="none" fill="none" stroke="#212529" x1="0" y1="-157.975" x2="0" y2="102.025"/>
			
				
		</g>
		<g transform="translate(311.48524758740706,0)">
			<line display="none" fill="none" stroke="#212529" x1="0" y1="-157.975" x2="0" y2="102.025"/>
			
				
		</g>
		<g transform="translate(337.96033064388547,0)">
			<line display="none" fill="none" stroke="#212529" x1="0" y1="-157.975" x2="0" y2="102.025"/>
			
				
		</g>
		<g transform="translate(364.72634867900643,0)">
			<line display="none" fill="none" stroke="#212529" x1="0" y1="-157.975" x2="0" y2="102.025"/>
			
				
		</g>
		<g transform="translate(391.50448900490426,0)">
			<line display="none" fill="none" stroke="#212529" x1="0" y1="-157.975" x2="0" y2="102.025"/>
			
				
		</g>
		<g transform="translate(417.67651479196326,0)">
			<line display="none" fill="none" stroke="#212529" x1="0" y1="-157.975" x2="0" y2="102.025"/>
			
				
		</g>
		<g transform="translate(444.15159784844167,0)">
			<line display="none" fill="none" stroke="#212529" x1="0" y1="-157.975" x2="0" y2="102.025"/>
			
				
		</g>
		<g transform="translate(470.91761588356275,0)">
			<line display="none" fill="none" stroke="#212529" x1="0" y1="-157.975" x2="0" y2="102.025"/>
			
				
		</g>
		<g transform="translate(497.6957562094605,0)">
			<line display="none" fill="none" stroke="#212529" x1="0" y1="-157.975" x2="0" y2="102.025"/>
			
				
		</g>
		<g transform="translate(523.8677819965195,0)">
			<line display="none" fill="none" stroke="#212529" x1="0" y1="-157.975" x2="0" y2="102.025"/>
			
				
		</g>
		<g transform="translate(550.3428650529979,0)">
			<line display="none" fill="none" stroke="#212529" x1="0" y1="-157.975" x2="0" y2="102.025"/>
			
				
		</g>
		<g transform="translate(577.108883088119,0)">
			<line display="none" fill="none" stroke="#212529" x1="0" y1="-157.975" x2="0" y2="102.025"/>
			
				
		</g>
		<g transform="translate(603.8870234140168,0)">
			<line display="none" fill="none" stroke="#212529" x1="0" y1="-157.975" x2="0" y2="102.025"/>
			
				
		</g>
	</g>
	<g transform="translate(31.014889460381234, 290)">
		<path display="none" fill="none" stroke="#212529" d="M0.5,102.525h610.963"/>
		<g transform="translate(72.63975241259294,0)">
			<line display="none" fill="none" stroke="#212529" x1="0" y1="-157.975" x2="0" y2="102.025"/>
			
				<text transform="matrix(1 0 0 1 -11.1231 118.125)" display="none" fill="#212529" font-family="'ElMessiri-Bold'" font-size="10px">2015</text>
		</g>
		<g transform="translate(178.83101961714917,0)">
			<line display="none" fill="none" stroke="#212529" x1="0" y1="-157.975" x2="0" y2="102.025"/>
			
				<text transform="matrix(1 0 0 1 -11.123 118.125)" display="none" fill="#212529" font-family="'ElMessiri-Bold'" font-size="10px">2016</text>
		</g>
		<g transform="translate(285.31322180034806,0)">
			<line display="none" fill="none" stroke="#212529" x1="0" y1="-157.975" x2="0" y2="102.025"/>
			
				<text transform="matrix(1 0 0 1 -11.123 118.125)" display="none" fill="#212529" font-family="'ElMessiri-Bold'" font-size="10px">2017</text>
		</g>
		<g transform="translate(391.50448900490426,0)">
			<line display="none" fill="none" stroke="#212529" x1="0" y1="-157.975" x2="0" y2="102.025"/>
			
				<text transform="matrix(1 0 0 1 -11.123 118.125)" display="none" fill="#212529" font-family="'ElMessiri-Bold'" font-size="10px">2018</text>
		</g>
		<g transform="translate(497.6957562094605,0)">
			<line display="none" fill="none" stroke="#212529" x1="0" y1="-157.975" x2="0" y2="102.025"/>
			
				<text transform="matrix(1 0 0 1 -11.1231 118.125)" display="none" fill="#212529" font-family="'ElMessiri-Bold'" font-size="10px">2019</text>
		</g>
		<g transform="translate(603.8870234140168,0)">
			<line display="none" fill="none" stroke="#212529" x1="0" y1="-157.975" x2="0" y2="102.025"/>
			
				<text transform="matrix(1 0 0 1 -11.123 118.125)" display="none" fill="#212529" font-family="'ElMessiri-Bold'" font-size="10px">2020</text>
		</g>
	</g>
	<g transform="translate(30, 0)">
		<path display="none" fill="none" stroke="#212529" d="M-6,232.525h6.5v-130H-6"/>
		<g transform="translate(0,130.5)">
			<line fill="none" stroke="#212529" stroke-opacity="0.12" x1="0" y1="102.025" x2="613" y2="102.025"/>
			
				
		</g>
		<g transform="translate(0,101.61111111111111)">
			<line fill="none" stroke="#212529" stroke-opacity="0.12" x1="0" y1="102.025" x2="613" y2="102.025"/>
			
				
		</g>
		<g transform="translate(0,72.72222222222223)">
			<line fill="none" stroke="#212529" stroke-opacity="0.12" x1="0" y1="102.025" x2="613" y2="102.025"/>
			
				
		</g>
		<g transform="translate(0,43.833333333333336)">
			<line fill="none" stroke="#212529" stroke-opacity="0.12" x1="0" y1="102.025" x2="613" y2="102.025"/>
			
				
		</g>
		<g transform="translate(0,14.94444444444445)">
			<line fill="none" stroke="#212529" stroke-opacity="0.12" x1="0" y1="102.025" x2="613" y2="102.025"/>
			
				
		</g>
	</g>
	<g>
		<rect x="30" y="230.581" width="2.037" height="2.889"/>
		<polygon points="32.037,232.025 34.073,232.025 34.073,232.025 		"/>
		<polygon points="34.073,232.025 36.11,232.025 36.11,232.025 		"/>
		<polygon points="36.11,232.025 38.146,232.025 38.146,232.025 		"/>
		<polygon points="38.146,232.025 40.183,232.025 40.183,232.025 		"/>
		<rect x="40.183" y="226.247" width="2.037" height="11.556"/>
		<polygon points="42.219,232.025 44.256,232.025 44.256,232.025 		"/>
		<polygon points="44.256,232.025 46.292,232.025 46.292,232.025 		"/>
		<polygon points="46.292,232.025 48.329,232.025 48.329,232.025 		"/>
		<polygon points="48.329,232.025 50.365,232.025 50.365,232.025 		"/>
		<polygon points="50.365,232.025 52.402,232.025 52.402,232.025 		"/>
		<polygon points="52.402,232.025 54.439,232.025 54.439,232.025 		"/>
		<polygon points="54.439,232.025 56.475,232.025 56.475,232.025 		"/>
		<polygon points="56.475,232.025 58.512,232.025 58.512,232.025 		"/>
		<polygon points="58.512,232.025 60.548,232.025 60.548,232.025 		"/>
		<polygon points="60.548,232.025 62.585,232.025 62.585,232.025 		"/>
		<polygon points="62.585,232.025 64.621,232.025 64.621,232.025 		"/>
		<polygon points="64.621,232.025 66.658,232.025 66.658,232.025 		"/>
		<polygon points="66.658,232.025 68.694,232.025 68.694,232.025 		"/>
		<polygon points="68.694,232.025 70.731,232.025 70.731,232.025 		"/>
		<polygon points="70.731,232.025 72.767,232.025 72.767,232.025 		"/>
		<polygon points="72.767,232.025 74.804,232.025 74.804,232.025 		"/>
		<polygon points="74.804,232.025 76.841,232.025 76.841,232.025 		"/>
		<polygon points="76.841,232.025 78.877,232.025 78.877,232.025 		"/>
		<polygon points="78.877,232.025 80.914,232.025 80.914,232.025 		"/>
		<polygon points="80.914,232.025 82.95,232.025 82.95,232.025 		"/>
		<polygon points="82.95,232.025 84.987,232.025 84.987,232.025 		"/>
		<polygon points="84.987,232.025 87.023,232.025 87.023,232.025 		"/>
		<polygon points="87.023,232.025 89.06,232.025 89.06,232.025 		"/>
		<polygon points="89.06,232.025 91.096,232.025 91.096,232.025 		"/>
		<polygon points="91.096,232.025 93.133,232.025 93.133,232.025 		"/>
		<polygon points="93.133,232.025 95.169,232.025 95.169,232.025 		"/>
		<polygon points="95.169,232.025 97.206,232.025 97.206,232.025 		"/>
		<polygon points="97.206,232.025 99.243,232.025 99.243,232.025 		"/>
		<polygon points="99.243,232.025 101.279,232.025 101.279,232.025 		"/>
		<polygon points="101.279,232.025 103.316,232.025 103.316,232.025 		"/>
		<polygon points="103.316,232.025 105.352,232.025 105.352,232.025 		"/>
		<polygon points="105.352,232.025 107.389,232.025 107.389,232.025 		"/>
		<polygon points="107.389,232.025 109.425,232.025 109.425,232.025 		"/>
		<polygon points="109.425,232.025 111.462,232.025 111.462,232.025 		"/>
		<polygon points="111.462,232.025 113.498,232.025 113.498,232.025 		"/>
		<polygon points="113.498,232.025 115.535,232.025 115.535,232.025 		"/>
		<polygon points="115.535,232.025 117.571,232.025 117.571,232.025 		"/>
		<polygon points="117.571,232.025 119.608,232.025 119.608,232.025 		"/>
		<polygon points="119.608,232.025 121.645,232.025 121.645,232.025 		"/>
		<polygon points="121.645,232.025 123.681,232.025 123.681,232.025 		"/>
		<polygon points="123.681,232.025 125.718,232.025 125.718,232.025 		"/>
		<polygon points="125.718,232.025 127.754,232.025 127.754,232.025 		"/>
		<polygon points="127.754,232.025 129.791,232.025 129.791,232.025 		"/>
		<polygon points="129.791,232.025 131.827,232.025 131.827,232.025 		"/>
		<polygon points="131.827,232.025 133.864,232.025 133.864,232.025 		"/>
		<polygon points="133.864,232.025 135.9,232.025 135.9,232.025 		"/>
		<polygon points="135.9,232.025 137.937,232.025 137.937,232.025 		"/>
		<polygon points="137.937,232.025 139.973,232.025 139.973,232.025 		"/>
		<polygon points="139.973,232.025 142.01,232.025 142.01,232.025 		"/>
		<polygon points="142.01,232.025 144.047,232.025 144.047,232.025 		"/>
		<polygon points="144.047,232.025 146.083,232.025 146.083,232.025 		"/>
		<rect x="146.083" y="230.581" width="2.037" height="2.889"/>
		<rect x="148.12" y="230.581" width="2.037" height="2.889"/>
		<rect x="150.156" y="226.247" width="2.037" height="11.556"/>
		<polygon points="152.193,232.025 154.229,232.025 154.229,232.025 		"/>
		<polygon points="154.229,232.025 156.266,232.025 156.266,232.025 		"/>
		<polygon points="156.266,232.025 158.302,232.025 158.302,232.025 		"/>
		<polygon points="158.302,232.025 160.339,232.025 160.339,232.025 		"/>
		<polygon points="160.339,232.025 162.375,232.025 162.375,232.025 		"/>
		<polygon points="162.375,232.025 164.412,232.025 164.412,232.025 		"/>
		<polygon points="164.412,232.025 166.449,232.025 166.449,232.025 		"/>
		<polygon points="166.449,232.025 168.485,232.025 168.485,232.025 		"/>
		<polygon points="168.485,232.025 170.522,232.025 170.522,232.025 		"/>
		<polygon points="170.522,232.025 172.558,232.025 172.558,232.025 		"/>
		<polygon points="172.558,232.025 174.595,232.025 174.595,232.025 		"/>
		<polygon points="174.595,232.025 176.631,232.025 176.631,232.025 		"/>
		<polygon points="176.631,232.025 178.668,232.025 178.668,232.025 		"/>
		<polygon points="178.668,232.025 180.704,232.025 180.704,232.025 		"/>
		<polygon points="180.704,232.025 182.741,232.025 182.741,232.025 		"/>
		<polygon points="182.741,232.025 184.777,232.025 184.777,232.025 		"/>
		<polygon points="184.777,232.025 186.814,232.025 186.814,232.025 		"/>
		<polygon points="186.814,232.025 188.85,232.025 188.85,232.025 		"/>
		<polygon points="188.85,232.025 190.887,232.025 190.887,232.025 		"/>
		<polygon points="190.887,232.025 192.924,232.025 192.924,232.025 		"/>
		<polygon points="192.924,232.025 194.96,232.025 194.96,232.025 		"/>
		<polygon points="194.96,232.025 196.997,232.025 196.997,232.025 		"/>
		<polygon points="196.997,232.025 199.033,232.025 199.033,232.025 		"/>
		<polygon points="199.033,232.025 201.07,232.025 201.07,232.025 		"/>
		<polygon points="201.07,232.025 203.106,232.025 203.106,232.025 		"/>
		<polygon points="203.106,232.025 205.143,232.025 205.143,232.025 		"/>
		<polygon points="205.143,232.025 207.179,232.025 207.179,232.025 		"/>
		<polygon points="207.179,232.025 209.216,232.025 209.216,232.025 		"/>
		<polygon points="209.216,232.025 211.252,232.025 211.252,232.025 		"/>
		<polygon points="211.252,232.025 213.289,232.025 213.289,232.025 		"/>
		<polygon points="213.289,232.025 215.326,232.025 215.326,232.025 		"/>
		<polygon points="215.326,232.025 217.362,232.025 217.362,232.025 		"/>
		<polygon points="217.362,232.025 219.399,232.025 219.399,232.025 		"/>
		<polygon points="219.399,232.025 221.435,232.025 221.435,232.025 		"/>
		<polygon points="221.435,232.025 223.472,232.025 223.472,232.025 		"/>
		<polygon points="223.472,232.025 225.508,232.025 225.508,232.025 		"/>
		<polygon points="225.508,232.025 227.545,232.025 227.545,232.025 		"/>
		<polygon points="227.545,232.025 229.581,232.025 229.581,232.025 		"/>
		<polygon points="229.581,232.025 231.618,232.025 231.618,232.025 		"/>
		<polygon points="231.618,232.025 233.654,232.025 233.654,232.025 		"/>
		<polygon points="233.654,232.025 235.691,232.025 235.691,232.025 		"/>
		<polygon points="235.691,232.025 237.728,232.025 237.728,232.025 		"/>
		<polygon points="237.728,232.025 239.764,232.025 239.764,232.025 		"/>
		<polygon points="239.764,232.025 241.801,232.025 241.801,232.025 		"/>
		<polygon points="241.801,232.025 243.837,232.025 243.837,232.025 		"/>
		<polygon points="243.837,232.025 245.874,232.025 245.874,232.025 		"/>
		<polygon points="245.874,232.025 247.91,232.025 247.91,232.025 		"/>
		<polygon points="247.91,232.025 249.947,232.025 249.947,232.025 		"/>
		<polygon points="249.947,232.025 251.983,232.025 251.983,232.025 		"/>
		<polygon points="251.983,232.025 254.02,232.025 254.02,232.025 		"/>
		<polygon points="254.02,232.025 256.056,232.025 256.056,232.025 		"/>
		<polygon points="256.056,232.025 258.093,232.025 258.093,232.025 		"/>
		<polygon points="258.093,232.025 260.13,232.025 260.13,232.025 		"/>
		<polygon points="260.13,232.025 262.166,232.025 262.166,232.025 		"/>
		<polygon points="262.166,232.025 264.203,232.025 264.203,232.025 		"/>
		<polygon points="264.203,232.025 266.239,232.025 266.239,232.025 		"/>
		<polygon points="266.239,232.025 268.276,232.025 268.276,232.025 		"/>
		<polygon points="268.276,232.025 270.312,232.025 270.312,232.025 		"/>
		<polygon points="270.312,232.025 272.349,232.025 272.349,232.025 		"/>
		<polygon points="272.349,232.025 274.385,232.025 274.385,232.025 		"/>
		<polygon points="274.385,232.025 276.422,232.025 276.422,232.025 		"/>
		<polygon points="276.422,232.025 278.458,232.025 278.458,232.025 		"/>
		<polygon points="278.458,232.025 280.495,232.025 280.495,232.025 		"/>
		<polygon points="280.495,232.025 282.532,232.025 282.532,232.025 		"/>
		<polygon points="282.532,232.025 284.568,232.025 284.568,232.025 		"/>
		<polygon points="284.568,232.025 286.605,232.025 286.605,232.025 		"/>
		<polygon points="286.605,232.025 288.641,232.025 288.641,232.025 		"/>
		<polygon points="288.641,232.025 290.678,232.025 290.678,232.025 		"/>
		<polygon points="290.678,232.025 292.714,232.025 292.714,232.025 		"/>
		<polygon points="292.714,232.025 294.751,232.025 294.751,232.025 		"/>
		<polygon points="294.751,232.025 296.787,232.025 296.787,232.025 		"/>
		<polygon points="296.787,232.025 298.824,232.025 298.824,232.025 		"/>
		<polygon points="298.824,232.025 300.86,232.025 300.86,232.025 		"/>
		<polygon points="300.86,232.025 302.897,232.025 302.897,232.025 		"/>
		<polygon points="302.897,232.025 304.934,232.025 304.934,232.025 		"/>
		<polygon points="304.934,232.025 306.97,232.025 306.97,232.025 		"/>
		<polygon points="306.97,232.025 309.007,232.025 309.007,232.025 		"/>
		<polygon points="309.007,232.025 311.043,232.025 311.043,232.025 		"/>
		<polygon points="311.043,232.025 313.08,232.025 313.08,232.025 		"/>
		<polygon points="313.08,232.025 315.116,232.025 315.116,232.025 		"/>
		<polygon points="315.116,232.025 317.153,232.025 317.153,232.025 		"/>
		<polygon points="317.153,232.025 319.189,232.025 319.189,232.025 		"/>
		<polygon points="319.189,232.025 321.226,232.025 321.226,232.025 		"/>
		<polygon points="321.226,232.025 323.262,232.025 323.262,232.025 		"/>
		<polygon points="323.262,232.025 325.299,232.025 325.299,232.025 		"/>
		<polygon points="325.299,232.025 327.336,232.025 327.336,232.025 		"/>
		<polygon points="327.336,232.025 329.372,232.025 329.372,232.025 		"/>
		<polygon points="329.372,232.025 331.409,232.025 331.409,232.025 		"/>
		<polygon points="331.409,232.025 333.445,232.025 333.445,232.025 		"/>
		<polygon points="333.445,232.025 335.482,232.025 335.482,232.025 		"/>
		<polygon points="335.482,232.025 337.518,232.025 337.518,232.025 		"/>
		<polygon points="337.518,232.025 339.555,232.025 339.555,232.025 		"/>
		<polygon points="339.555,232.025 341.591,232.025 341.591,232.025 		"/>
		<polygon points="341.591,232.025 343.628,232.025 343.628,232.025 		"/>
		<polygon points="343.628,232.025 345.664,232.025 345.664,232.025 		"/>
		<polygon points="345.664,232.025 347.701,232.025 347.701,232.025 		"/>
		<polygon points="347.701,232.025 349.738,232.025 349.738,232.025 		"/>
		<polygon points="349.738,232.025 351.774,232.025 351.774,232.025 		"/>
		<polygon points="351.774,232.025 353.811,232.025 353.811,232.025 		"/>
		<polygon points="353.811,232.025 355.847,232.025 355.847,232.025 		"/>
		<polygon points="355.847,232.025 357.884,232.025 357.884,232.025 		"/>
		<polygon points="357.884,232.025 359.92,232.025 359.92,232.025 		"/>
		<polygon points="359.92,232.025 361.957,232.025 361.957,232.025 		"/>
		<polygon points="361.957,232.025 363.993,232.025 363.993,232.025 		"/>
		<polygon points="363.993,232.025 366.03,232.025 366.03,232.025 		"/>
		<polygon points="366.03,232.025 368.066,232.025 368.066,232.025 		"/>
		<polygon points="368.066,232.025 370.103,232.025 370.103,232.025 		"/>
		<polygon points="370.103,232.025 372.14,232.025 372.14,232.025 		"/>
		<polygon points="372.14,232.025 374.176,232.025 374.176,232.025 		"/>
		<polygon points="374.176,232.025 376.213,232.025 376.213,232.025 		"/>
		<polygon points="376.213,232.025 378.249,232.025 378.249,232.025 		"/>
		<polygon points="378.249,232.025 380.286,232.025 380.286,232.025 		"/>
		<polygon points="380.286,232.025 382.322,232.025 382.322,232.025 		"/>
		<polygon points="382.322,232.025 384.359,232.025 384.359,232.025 		"/>
		<polygon points="384.359,232.025 386.395,232.025 386.395,232.025 		"/>
		<polygon points="386.395,232.025 388.432,232.025 388.432,232.025 		"/>
		<polygon points="388.432,232.025 390.468,232.025 390.468,232.025 		"/>
		<polygon points="390.468,232.025 392.505,232.025 392.505,232.025 		"/>
		<polygon points="392.505,232.025 394.542,232.025 394.542,232.025 		"/>
		<polygon points="394.542,232.025 396.578,232.025 396.578,232.025 		"/>
		<polygon points="396.578,232.025 398.615,232.025 398.615,232.025 		"/>
		<polygon points="398.615,232.025 400.651,232.025 400.651,232.025 		"/>
		<polygon points="400.651,232.025 402.688,232.025 402.688,232.025 		"/>
		<polygon points="402.688,232.025 404.724,232.025 404.724,232.025 		"/>
		<polygon points="404.724,232.025 406.761,232.025 406.761,232.025 		"/>
		<polygon points="406.761,232.025 408.797,232.025 408.797,232.025 		"/>
		<polygon points="408.797,232.025 410.834,232.025 410.834,232.025 		"/>
		<polygon points="410.834,232.025 412.87,232.025 412.87,232.025 		"/>
		<polygon points="412.87,232.025 414.907,232.025 414.907,232.025 		"/>
		<polygon points="414.907,232.025 416.944,232.025 416.944,232.025 		"/>
		<polygon points="416.944,232.025 418.98,232.025 418.98,232.025 		"/>
		<polygon points="418.98,232.025 421.017,232.025 421.017,232.025 		"/>
		<polygon points="421.017,232.025 423.053,232.025 423.053,232.025 		"/>
		<polygon points="423.053,232.025 425.09,232.025 425.09,232.025 		"/>
		<polygon points="425.09,232.025 427.126,232.025 427.126,232.025 		"/>
		<polygon points="427.126,232.025 429.163,232.025 429.163,232.025 		"/>
		<polygon points="429.163,232.025 431.199,232.025 431.199,232.025 		"/>
		<polygon points="431.199,232.025 433.236,232.025 433.236,232.025 		"/>
		<polygon points="433.236,232.025 435.272,232.025 435.272,232.025 		"/>
		<polygon points="435.272,232.025 437.309,232.025 437.309,232.025 		"/>
		<polygon points="437.309,232.025 439.346,232.025 439.346,232.025 		"/>
		<polygon points="439.346,232.025 441.382,232.025 441.382,232.025 		"/>
		<polygon points="441.382,232.025 443.419,232.025 443.419,232.025 		"/>
		<polygon points="443.419,232.025 445.455,232.025 445.455,232.025 		"/>
		<polygon points="445.455,232.025 447.492,232.025 447.492,232.025 		"/>
		<polygon points="447.492,232.025 449.528,232.025 449.528,232.025 		"/>
		<polygon points="449.528,232.025 451.565,232.025 451.565,232.025 		"/>
		<polygon points="451.565,232.025 453.601,232.025 453.601,232.025 		"/>
		<polygon points="453.601,232.025 455.638,232.025 455.638,232.025 		"/>
		<polygon points="455.638,232.025 457.674,232.025 457.674,232.025 		"/>
		<polygon points="457.674,232.025 459.711,232.025 459.711,232.025 		"/>
		<polygon points="459.711,232.025 461.747,232.025 461.747,232.025 		"/>
		<polygon points="461.747,232.025 463.784,232.025 463.784,232.025 		"/>
		<polygon points="463.784,232.025 465.821,232.025 465.821,232.025 		"/>
		<polygon points="465.821,232.025 467.857,232.025 467.857,232.025 		"/>
		<polygon points="467.857,232.025 469.894,232.025 469.894,232.025 		"/>
		<polygon points="469.894,232.025 471.93,232.025 471.93,232.025 		"/>
		<polygon points="471.93,232.025 473.967,232.025 473.967,232.025 		"/>
		<polygon points="473.967,232.025 476.003,232.025 476.003,232.025 		"/>
		<polygon points="476.003,232.025 478.04,232.025 478.04,232.025 		"/>
		<polygon points="478.04,232.025 480.076,232.025 480.076,232.025 		"/>
		<polygon points="480.076,232.025 482.113,232.025 482.113,232.025 		"/>
		<polygon points="482.113,232.025 484.149,232.025 484.149,232.025 		"/>
		<polygon points="484.15,232.025 486.186,232.025 486.186,232.025 		"/>
		<polygon points="486.186,232.025 488.223,232.025 488.223,232.025 		"/>
		<polygon points="488.223,232.025 490.259,232.025 490.259,232.025 		"/>
		<polygon points="490.259,232.025 492.296,232.025 492.296,232.025 		"/>
		<polygon points="492.296,232.025 494.332,232.025 494.332,232.025 		"/>
		<polygon points="494.332,232.025 496.369,232.025 496.369,232.025 		"/>
		<polygon points="496.369,232.025 498.405,232.025 498.405,232.025 		"/>
		<polygon points="498.405,232.025 500.442,232.025 500.442,232.025 		"/>
		<polygon points="500.442,232.025 502.478,232.025 502.478,232.025 		"/>
		<polygon points="502.478,232.025 504.515,232.025 504.515,232.025 		"/>
		<polygon points="504.515,232.025 506.552,232.025 506.552,232.025 		"/>
		<polygon points="506.551,232.025 508.588,232.025 508.588,232.025 		"/>
		<polygon points="508.588,232.025 510.625,232.025 510.625,232.025 		"/>
		<polygon points="510.625,232.025 512.661,232.025 512.661,232.025 		"/>
		<polygon points="512.661,232.025 514.698,232.025 514.698,232.025 		"/>
		<polygon points="514.698,232.025 516.734,232.025 516.734,232.025 		"/>
		<polygon points="516.734,232.025 518.771,232.025 518.771,232.025 		"/>
		<polygon points="518.771,232.025 520.807,232.025 520.807,232.025 		"/>
		<polygon points="520.807,232.025 522.844,232.025 522.844,232.025 		"/>
		<polygon points="522.844,232.025 524.88,232.025 524.88,232.025 		"/>
		<polygon points="524.88,232.025 526.917,232.025 526.917,232.025 		"/>
		<polygon points="526.917,232.025 528.953,232.025 528.953,232.025 		"/>
		<polygon points="528.953,232.025 530.99,232.025 530.99,232.025 		"/>
		<polygon points="530.99,232.025 533.027,232.025 533.027,232.025 		"/>
		<polygon points="533.027,232.025 535.063,232.025 535.063,232.025 		"/>
		<polygon points="535.063,232.025 537.1,232.025 537.1,232.025 		"/>
		<polygon points="537.1,232.025 539.136,232.025 539.136,232.025 		"/>
		<polygon points="539.136,232.025 541.173,232.025 541.173,232.025 		"/>
		<polygon points="541.173,232.025 543.209,232.025 543.209,232.025 		"/>
		<polygon points="543.209,232.025 545.246,232.025 545.246,232.025 		"/>
		<polygon points="545.246,232.025 547.282,232.025 547.282,232.025 		"/>
		<polygon points="547.282,232.025 549.319,232.025 549.319,232.025 		"/>
		<polygon points="549.319,232.025 551.355,232.025 551.355,232.025 		"/>
		<polygon points="551.355,232.025 553.392,232.025 553.392,232.025 		"/>
		<polygon points="553.392,232.025 555.429,232.025 555.429,232.025 		"/>
		<polygon points="555.429,232.025 557.465,232.025 557.465,232.025 		"/>
		<polygon points="557.465,232.025 559.502,232.025 559.502,232.025 		"/>
		<polygon points="559.502,232.025 561.538,232.025 561.538,232.025 		"/>
		<polygon points="561.538,232.025 563.575,232.025 563.575,232.025 		"/>
		<polygon points="563.575,232.025 565.611,232.025 565.611,232.025 		"/>
		<polygon points="565.611,232.025 567.648,232.025 567.648,232.025 		"/>
		<polygon points="567.648,232.025 569.684,232.025 569.684,232.025 		"/>
		<polygon points="569.684,232.025 571.721,232.025 571.721,232.025 		"/>
		<polygon points="571.721,232.025 573.758,232.025 573.758,232.025 		"/>
		<polygon points="573.757,232.025 575.794,232.025 575.794,232.025 		"/>
		<polygon points="575.794,232.025 577.831,232.025 577.831,232.025 		"/>
		<polygon points="577.831,232.025 579.867,232.025 579.867,232.025 		"/>
		<polygon points="579.867,232.025 581.904,232.025 581.904,232.025 		"/>
		<polygon points="581.904,232.025 583.94,232.025 583.94,232.025 		"/>
		<polygon points="583.94,232.025 585.977,232.025 585.977,232.025 		"/>
		<polygon points="585.977,232.025 588.013,232.025 588.013,232.025 		"/>
		<polygon points="588.013,232.025 590.05,232.025 590.05,232.025 		"/>
		<polygon points="590.05,232.025 592.086,232.025 592.086,232.025 		"/>
		<polygon points="592.086,232.025 594.123,232.025 594.123,232.025 		"/>
		<polygon points="594.123,232.025 596.159,232.025 596.159,232.025 		"/>
		<polygon points="596.159,232.025 598.196,232.025 598.196,232.025 		"/>
		<polygon points="598.196,232.025 600.233,232.025 600.233,232.025 		"/>
		<polygon points="600.233,232.025 602.269,232.025 602.269,232.025 		"/>
		<polygon points="602.269,232.025 604.306,232.025 604.306,232.025 		"/>
		<polygon points="604.306,232.025 606.342,232.025 606.342,232.025 		"/>
		<polygon points="606.342,232.025 608.379,232.025 608.379,232.025 		"/>
		<polygon points="608.379,232.025 610.415,232.025 610.415,232.025 		"/>
		<polygon points="610.415,232.025 612.452,232.025 612.452,232.025 		"/>
		<polygon points="612.452,232.025 614.488,232.025 614.488,232.025 		"/>
		<polygon points="614.488,232.025 616.525,232.025 616.525,232.025 		"/>
		<polygon points="616.525,232.025 618.561,232.025 618.561,232.025 		"/>
		<polygon points="618.561,232.025 620.598,232.025 620.598,232.025 		"/>
		<polygon points="620.598,232.025 622.635,232.025 622.635,232.025 		"/>
		<polygon points="622.635,232.025 624.671,232.025 624.671,232.025 		"/>
		<polygon points="624.671,232.025 626.708,232.025 626.708,232.025 		"/>
		<polygon points="626.708,232.025 628.744,232.025 628.744,232.025 		"/>
		<polygon points="628.744,232.025 630.781,232.025 630.781,232.025 		"/>
		<polygon points="630.781,232.025 632.817,232.025 632.817,232.025 		"/>
		<polygon points="632.817,232.025 634.854,232.025 634.854,232.025 		"/>
		<polygon points="634.854,232.025 636.89,232.025 636.89,232.025 		"/>
		<rect x="636.89" y="227.692" width="2.037" height="8.667"/>
		<rect x="638.927" y="135.247" width="2.037" height="193.556"/>
		<rect x="640.963" y="106.358" width="2.037" height="251.333"/>
	</g>
	<g>
		<path fill="none" stroke="#000000" stroke-miterlimit="10" d="M636.388,89.639c-0.623-2.861-1.797-5.609-3.359-7.914
			c-2.8-3.8-6.7-6.3-10.8-6.7"/>
		<g>
			<path d="M636.829,92.625c0.296-1.485,0.905-3.367,1.673-4.596l-2.212,1.225l-2.483-0.474
				C634.919,89.708,636.085,91.306,636.829,92.625z"/>
		</g>
	</g>
	<g>
		<path fill="none" stroke="#000000" stroke-miterlimit="10" d="M38.415,252.072c0.623,2.861,1.798,5.609,3.359,7.914
			c2.8,3.8,6.7,6.3,10.8,6.7"/>
		<g>
			<path d="M37.974,249.086c-0.296,1.485-0.905,3.367-1.673,4.596l2.212-1.225l2.483,0.474
				C39.884,252.003,38.718,250.405,37.974,249.086z"/>
		</g>
	</g>
	
		<line style="opacity:0.8;" fill="none" stroke="#000000" stroke-miterlimit="10" x1="19.5" y1="19.998" x2="653" y2="19.998"/>
	
		<line style="opacity:0.8;" fill="none" stroke="#000000" stroke-miterlimit="10" x1="19.9" y1="421.832" x2="647" y2="421.832"/>
	<g transform="matrix(0.13080008,0,0,0.13080008,-1.249529,7.3768107)">
		<path d="M4689.646,326.065c-0.58,0.029-1.106,0.082-1.708,0.263c-5.087,1.169-10.422,0.972-15.372,2.759
			c-1.306,0.894-1.94,2.304-2.627,3.679c-1.718,0.687-2.696,2.148-2.627,4.073h1.577c0.137-0.481,0.457-1.295,0.525-1.708
			c2.268,2.131,2.328,5.265,3.153,8.014c-1.237,0.481-2.516,0.82-3.547,1.577c-1.581,1.925-1.51,4.707-3.022,6.7
			c-1.718,2.062-1.691,4.97-3.547,6.963c-1.443,1.375-0.206,3.474,0,5.124c-1.787,0.619-3.668,0.952-5.386,1.708
			c-1.925,0.825-1.817,3.579-3.81,4.335c-1.031,0.344-1.934-0.438-2.759-0.92c-1.925-0.55-3.737-1.528-5.387-2.628
			c-1.1,2.337-2.197,4.689-3.021,7.094c-1.925,4.674-5.373,9.159-4.204,14.452c3.574-2.062,9.062-2.311,12.086,0.92
			c0.619-1.169,1.158-2.441,1.708-3.679c1.994-0.069,3.919-0.194,5.912-0.263c1.375,3.231,4.414,5.295,7.095,7.357
			c1.031,2.131,2.065,4.369,2.89,6.569c-3.506-0.344-7.005-1.195-10.51-0.92c-2.681,0.069-4.871,2.258-7.62,1.708
			c0.206,0.687,0.257,1.283,0.394,1.971c-1.924,0.137-3.856,0.388-5.78,0.526c-0.825,1.306-1.603,2.504-2.497,3.81
			c0.275,0.756,0.645,1.609,0.92,2.365c-0.756-0.069-1.478-0.194-2.233-0.263c-1.512,4.124-6.292,2.753-9.591,2.89
			c-0.206,1.031-0.382,1.991-0.657,3.022c-0.55-0.275-1.158-0.513-1.708-0.788c-0.138,0.619-0.325,1.352-0.394,1.971
			c-1.031,0.137-2.06,0.257-3.022,0.394l1.051,1.708c-0.688,0.206-1.283,0.319-1.971,0.526c-0.069-0.275-0.326-0.776-0.394-1.051
			c-4.674,1.169-7.425-3.616-11.824-3.547c-0.413,3.024-1.091,6.002-3.153,8.408c0.688-0.412,1.415-0.707,2.102-1.051
			c-0.137,0.894-0.319,1.865-0.525,2.759c1.512-0.481,3.003,0.258,3.416,1.839c-1.994,3.299-6.777,4.033-8.014,7.883
			c-0.481-0.137-0.964-0.388-1.445-0.526c-0.481,1.031-0.689,2.322-1.445,3.284c-1.65,0.962-3.6,1.346-5.387,2.102
			c-4.605,1.787-9.709,0.388-14.452,0.526c-4.331,1.443-8.357,3.468-12.481,5.255c-1.512,0.55-2.71,1.659-3.81,2.759
			c-1.512-1.1-3.062-2.903-5.124-2.628c-3.437,0.412-6.823-0.202-9.985-1.577c0.275-0.619,0.513-1.352,0.788-1.971
			c-2.406,2.062-7.638,0.678-7.226-2.759c-0.825,0.275-1.609,0.513-2.365,0.788c-0.069-0.344-0.131-0.97-0.131-1.314
			c-0.894,0.137-1.734,0.388-2.628,0.526c0-0.275-0.062-0.907-0.131-1.182c-7.423,0.962-14.979,0.987-22.334-0.526
			c-3.299-0.825-7.979,1.335-10.248-2.102c-2.474-3.712-4.493-7.888-5.386-12.218c-3.024,0.069-5.671-1.109-8.146-2.759
			c-0.962-0.412-0.914-1.603-1.051-2.496c-7.148-3.643-16.273,0.331-22.597-5.649c-1.1-2.543,2.296-4.163,2.365-6.569
			c0.068-3.368,0.747-7.535-2.759-9.459c-0.481-2.2-1.372-4.268-3.021-5.781c0.069-0.894,0.062-1.865,0.131-2.759
			c-1.168,0.344-2.316,0.77-3.416,1.182c-0.206-0.894-0.319-1.797-0.525-2.759c-0.825,0.481-1.74,0.895-2.496,1.445
			c-1.375-0.962-2.886-1.809-4.467-2.496c0.137-0.55,0.194-1.158,0.263-1.708c-0.619-0.137-1.089-0.257-1.708-0.394l1.183-1.445
			c-1.237,0.137-2.31,0.319-3.547,0.526c0.206-1.1,0.256-2.185,0.394-3.284c-0.756,0.206-1.54,0.319-2.365,0.526l1.445-4.73
			c-2.543,0.962-5.202,1.427-7.883,1.839c-0.413,1.787-0.626,3.668-1.314,5.387c-1.581,1.1-3.668,0.576-5.386,0.92
			c-0.756,2.337-1.532,4.751-1.051,7.226c-0.894,1.375,1.73,4.618-0.263,5.649c-2.131,1.237-4.489,2.258-6.963,1.708
			c-3.506-0.137-7.029-0.634-9.985-2.628c0.137,0.825,0.256,1.54,0.394,2.365c-0.206,0-0.451,0.131-0.657,0.131
			c-0.962,4.124-2.904,7.9-4.073,11.955c-0.894,2.268,1.471,4.056,2.365,5.912c-0.825,0.069-1.671,0.063-2.496,0.131
			c0-0.275-0.132-0.776-0.132-1.051c-1.1,0.481-2.122,0.77-3.153,1.182c-0.138-0.962-0.388-1.734-0.525-2.628
			c-3.918,1.856-8.082,3.21-12.481,3.416c1.237,0.962,2.566,2.003,3.941,2.759c-0.619,1.581-1.132,3.211-0.789,4.861
			c0.413,3.024,2.901,5.903,1.183,9.065c-0.481,2.062-1.791,3.731-2.891,5.518c-0.275,1.581,0.251,3.149,0.526,4.73
			c-1.719,1.031-3.593,2.009-5.518,2.628c-4.399,1.306-7.255,5.158-11.036,7.357c-2.131,0.756-4.576-0.637-6.569,0.394
			c-1.375,1.925-2.178,4.313-3.416,6.306c-0.138-0.412-0.52-1.296-0.657-1.708c-1.1,0.275-2.054,0.576-3.153,0.92
			c-0.206-1.031-0.582-1.991-0.788-3.022c-3.85,1.237-7.349,3.438-10.51,5.912c-1.719,1.169-0.807,3.211-0.395,4.861
			c-0.894-0.137-1.796-0.194-2.759-0.263c0.688,2.681,1.183,5.327,1.183,8.145c1.718-0.206,3.28-0.695,4.861-1.314
			c0,0.206,0.131,0.582,0.131,0.788c0.756,0.069,1.54,0.194,2.365,0.263c-0.137,3.093,0.044,6.297,0.525,9.459
			c0.688,0,1.415,0.063,2.102,0.131c0.069,0.275,0.063,0.776,0.131,1.051c-0.619,0-1.22,0.069-1.839,0
			c0.068,0.206,0.263,0.582,0.263,0.788c-1.65-0.687-3.349-0.305-4.861,0.657c0.55,0.687,1.158,1.352,1.708,1.971l0.263-1.577
			c2.818,1.65,5.847,2.829,8.803,4.204c1.581,1.718-0.755,4.931,1.445,6.306c4.125,1.718,8.763,2.524,12.612,4.861
			c1.787,2.131,1.475,6.312,5.255,6.175c0.069,0.275,0.062,0.576,0.131,0.92c0.619-0.069,1.221-0.131,1.839-0.131
			c-1.306,2.268-3.758,4.602-1.971,7.489c1.1,1.306,2.642,2.116,3.81,3.284c0.756,1.306,0.907,2.829,1.182,4.204
			c-1.787,0.412-3.668,1.021-5.386,1.708c0.206-0.894,0.451-1.734,0.657-2.628c-1.031,0.275-2.122,0.513-3.153,0.788l1.051,4.598
			c0.619-0.344,1.29-0.839,1.839-1.182c0.413,2.406,0.087,4.82-0.394,7.226c0.756-0.275,1.477-0.451,2.233-0.657
			c1.787,2.612,4.658,3.966,7.751,3.416c-0.069,0.825-0.063,1.603-0.132,2.496c3.437-0.344,4.477,3.636,7.226,4.598
			c0.962-1.237,1.74-2.698,2.496-4.073c3.712,2.749,7.019,6.189,11.693,7.357c-0.138,0.687-0.257,1.415-0.394,2.102
			c0.55-0.412,1.026-0.77,1.576-1.182c0.069,0.962,0.131,1.865,0.131,2.759c1.031-0.825,2.179-1.552,3.416-2.102
			c0.825,3.093,3.106,5.239,5.649,7.094v-1.445c0.344,0,0.97-0.063,1.313-0.131c-0.068,0.825-0.062,1.54-0.131,2.365
			c1.856,0.481,3.662,0.839,5.518,1.182c0.069,0.825,0.194,1.671,0.263,2.496c1.1-0.825,2.167-2.052,3.679-1.708
			c2.612,0,4.476,2.771,7.226,2.496c3.093-0.344,5.772-2.421,8.934-2.628c-0.481,2.131-0.875,4.501-0.394,6.7
			c1.924-3.024,3.251-7.034,6.963-8.408c4.399,2.131,9.327,2.467,13.795,4.598c3.437,0.137,5.402-3.405,8.014-5.124
			c2.131-2.062,5.851-1.843,7.226-4.73c0.756-1.993,3.08-1.946,4.729-2.496c0.138,0.55,0.257,1.089,0.394,1.708
			c0.825-0.138,1.734-0.257,2.628-0.394c0.068,0.412,0.125,1.164,0.263,1.577c0.825-1.169,1.74-2.31,2.496-3.547
			c0.756,0.137,2.266,0.451,3.021,0.657c1.169,1.787,2.478,3.518,2.891,5.649c-0.688,0-1.478,0.063-2.233,0.131
			c0,0.687-0.063,1.346-0.131,2.102c1.168-0.619,2.441-1.221,3.678-1.839c0.413,0.619,0.77,1.221,1.183,1.839
			c0.619-0.481,1.352-0.964,1.971-1.445c-0.069,0.756-0.194,1.609-0.263,2.365l1.445-0.526c0-0.756-0.069-1.54,0-2.365
			c1.306,0.825,2.779,1.328,3.81,2.496c1.1,1.787,1.496,3.85,1.839,5.912c0.825-0.756,1.609-1.477,2.365-2.233
			c0.069,2.475,0.433,4.951,1.051,7.357c-0.481,2.681-1.19,5.346-2.496,7.751c-1.925,2.268-5.112,3.858-5.387,7.226
			c-0.275,0.069-0.776,0.325-1.051,0.394c0.619,0.894,1.152,1.734,1.839,2.628c-0.825,1.169-1.609,2.373-2.365,3.679
			c2.681-0.206,5.202-1.182,7.883-1.182c1.994,1.444,1.496,4.175,1.839,6.306c1.512-0.206,3.023-0.319,4.467-0.526
			c-0.894,2.681-0.834,5.746-2.759,8.014c3.574,0.069,6.108,2.431,7.62,5.387c-0.069-0.412-0.125-1.164-0.263-1.577
			c1.237,0.481,2.573,1.095,3.81,1.577c0.344-1.169,0.576-2.316,0.92-3.416c1.375,1.581,2.271,3.393,2.89,5.387
			c0.069-0.481,0.263-1.358,0.263-1.839c0.825,0.412,1.609,0.895,2.365,1.445c0.344,0.069,1.039,0.194,1.314,0.263
			c-0.962-3.231-1.865-6.423-2.759-9.722c1.443,0.137,2.892,0.469,4.335,0.263c0.962-0.825,1.483-1.991,2.102-3.022
			c1.649,1.169,3.28,2.31,4.861,3.547c0-0.894,0.131-1.865,0.131-2.759c0.962,0.55,1.859,1.027,2.891,1.577
			c-0.344-0.825-0.708-1.671-1.051-2.496c0.55,0.137,1.089,0.257,1.708,0.394c0.688,0.962,1.477,1.997,2.233,2.89l-0.525-3.153
			c0.894,0.55,1.865,1.095,2.759,1.577c0.069-0.275,0.194-0.907,0.263-1.182c0.619,0,1.221-0.069,1.839,0
			c0.344-3.024,3.244-3.266,5.649-3.679c-0.069,0.481-0.062,0.964-0.131,1.445c2.543,1.787,5.715,1.714,8.671,1.577
			c0,0.687,0.062,1.283,0.131,1.971h-2.496c0.275,4.124,4.288,5.602,6.832,8.145v-1.577c1.787,0.55,3.662,1.439,5.518,1.577
			c1.168-0.481,2.059-1.477,3.021-2.233c-0.137,0.55-0.451,1.158-0.657,1.708c0.619,0.069,1.352,0.063,1.971,0.131
			c1.718,1.443,3.913,1.546,6.043,2.233c-0.55,0.137-1.621,0.457-2.102,0.526c0.962,2.268,2.159,4.489,2.365,6.963
			c1.649-0.344,3.349-0.889,4.861-1.577c-0.619-1.169-1.158-2.247-1.708-3.416c1.581-1.512,2.787-3.854,5.124-4.336
			c3.643-0.962,7.587-1.763,11.298-0.526c-0.412-2.749,2.286-3.173,4.073-4.204c1.444-1.512,1.734-3.599,2.628-5.387
			c0,1.787,0.062,3.531,0.131,5.387c4.124-1.169,7.287-4.604,11.824-4.467c0.481-0.481,0.964-0.964,1.445-1.445
			c-0.137,0.756-0.388,1.477-0.525,2.233c1.787-0.756,3.599-1.671,5.386-2.496c-0.137-0.55-0.325-1.027-0.394-1.577
			c1.65-0.069,3.28-0.633,4.861-1.182l-1.445-1.314c1.306-0.138,3.054,0.255,3.81-1.051c2.2-2.681,4.232-5.408,6.569-7.883
			c0.069,0.894,0.131,1.797,0.131,2.759c1.925-2.131,2.762-5.406,5.649-6.438c-0.894-0.756-1.803-1.54-2.628-2.365
			c1.719,0.55,3.343,1.409,4.993,2.233c0.412-0.756,0.77-1.609,1.182-2.365c-0.962-0.825-1.928-1.734-2.89-2.628h1.708
			c-0.413-0.619-0.833-1.221-1.314-1.839c1.1-0.55,2.403-0.74,3.022-1.839c1.856-3.024,3.893-6.154,4.992-9.591
			c1.031-2.887,4.363-3.48,6.7-4.992c-0.481-0.138-1.427-0.388-1.839-0.526c1.375-4.88,4.988-8.652,6.569-13.532
			c-2.337-0.687-2.911,0.934-3.941,2.102c-0.481,0-1.027,0.069-1.577,0c-0.55-0.894-0.74-2.215-1.839-2.628
			c-2.062,0.412-4.113,0.982-6.175,1.051c2.131-1.581,3.981-3.543,6.043-5.124c1.375-1.1,3.086-0.2,4.598-0.131l-1.577-3.153
			c0.481-1.512,1.488-3.217,0.526-4.73c-1.512-2.818-3.732-5.419-6.963-6.175c0.619-2.887-0.527-5.74-1.971-8.146
			c-0.412-1.306-0.776-2.567-1.051-3.941c-0.138,0-0.52-0.063-0.657-0.131c0.068-0.687,0.256-1.415,0.394-2.102
			c-0.481,0.069-1.096,0.063-1.577,0.131c0-0.137-0.131-0.388-0.131-0.526c-3.024-0.412-4.657-3.056-6.306-5.255
			c1.925-0.962,3.373-2.542,4.335-4.467c1.375-2.75,4.576-3.781,6.569-5.912c2.612-2.818,6.104-4.307,9.197-6.438v2.496
			c1.1-0.619,2.247-1.352,3.416-1.971c0.069-1.581-0.383-3.454-2.102-4.073c-1.649-1.1-3.468,0.131-5.255,0.131
			c-1.787-1.1-3.531-2.579-5.387-3.679c-0.069,0.344-0.194,1.102-0.263,1.445c-0.688,0-1.283,0-1.971,0
			c-1.168,1.718-2.635,3.211-3.941,4.861h-5.255c-0.069-2.406,0.711-5.22-0.526-7.489c-1.787-1.512-4.507-0.558-6.569-1.314
			c-1.1-0.756-1.991-1.671-3.021-2.496c0.619-2.131,0.464-4.519,1.839-6.306c1.443-1.306,2.779,0.883,3.81,1.708
			c1.375-0.344,2.835-0.426,4.073-1.182c1.719-1.581,1.854-4.119,3.022-6.043c1.237-0.962,2.767-1.346,4.073-2.102
			c1.1-0.412,2.185-0.839,3.284-1.182c0-0.825,0.069-1.671,0-2.496c2.337-1.031,3.856-2.955,5.781-4.467
			c0.619,0.481,1.096,1.089,1.577,1.708c1.65,0.481,3.405,0.964,5.124,1.445c-1.031,1.925-1.21,4.756-3.547,5.649
			c-1.65,0.619-2.466,2.166-3.153,3.679c-0.55,0.137-1.158,0.194-1.708,0.263c1.031,1.237,2.054,2.379,3.153,3.547
			c-1.1,0.962-2.241,1.677-3.547,2.365c0.138,0.619,0.257,1.352,0.394,1.971c3.024-0.894,5.17-3.118,7.095-5.387
			c2.337-2.681,6.115-2.936,8.934-4.861c-0.069,0.344-0.388,0.97-0.525,1.314c2.062-0.619,4.244-1.221,6.306-1.839
			c0.069-0.894,0.257-1.865,0.394-2.759c1.168-0.619,2.072-1.59,2.759-2.759c0.688,0.412,1.346,0.839,2.102,1.182
			c-0.206-0.687-0.451-1.477-0.657-2.233c3.437-0.275,6.271-2.386,8.54-4.861c0.069-0.412,0.194-0.77,0.263-1.182
			c1.444-1.306,2.266-2.88,3.022-4.598c0.481,0,1.026-0.069,1.577,0c0.137,0.894,0.256,1.797,0.394,2.759
			c2.818,0.275,5.458,1.158,8.277,1.708c-0.55-2.2-1.403-4.244-2.365-6.306c2.268,0.275,4.5,0.55,6.7,0
			c0.825-1.031,1.227-2.247,1.708-3.416c1.031,0,2.053,0,3.153,0c0-0.619,0.062-1.221,0.131-1.839
			c0.344-1.169,0.582-2.247,0.789-3.416c0.687,0.069,1.283,0.131,1.971,0.131c0.825,2.062,1.972,4,3.416,5.649l-0.131-4.598
			c1.306-0.412,3.266-0.321,3.679-1.971c1.237-3.299,1.688-7.011,0.657-10.379c-0.069-0.55-0.062-1.027-0.131-1.577h-0.919
			c0.137-1.031,0.194-2.059,0.263-3.022c-0.756-0.687-1.546-1.283-2.233-1.971c2.543-0.206,5.218-1.261,6.043-3.941
			c2.956,0.481,5.602,1.641,8.146,3.153c0.619-3.574,3.074-6.303,4.861-9.328c1.512-2.612,1.028-6.009,3.021-8.277
			c0.344-1.993,0.382-3.919,0.657-5.912c2.2-0.275,3.579-2.148,4.335-4.073c-0.619-0.137-1.221-0.388-1.839-0.526
			c0.481-1.512,1.033-2.886,1.445-4.467c-0.481-0.137-0.964-0.388-1.445-0.526c-1.581-0.55-3.092,0.301-4.467,0.92
			c-2.475,1.169-5.339,1.146-7.883,1.971c-0.413,0.962-0.582,1.991-0.788,3.022c-3.506-0.069-7.067-0.131-10.642-0.131
			c-0.894-0.962-1.797-1.997-2.759-2.89c1.787-1.718,0.431-3.405-0.394-5.124c-0.962-1.237,2.181-2.797,0.394-3.416
			c-3.437-0.481-5.701-2.969-7.488-5.649c-1.306,0.344-2.504,0.513-3.81,0.788c-0.413-0.412-0.77-0.77-1.183-1.182
			c0.344-0.55,0.576-1.095,0.92-1.577c-2.269,0.412-4.501,0.833-6.701,1.314c-1.1-1.718-3.04-3.318-2.627-5.518
			c0.688-3.506-2.434-6.154-2.365-9.591c-0.55,0-1.027-0.131-1.577-0.131c-0.275-2.2-0.289-4.507-1.182-6.569
			c-0.619-1.512-1.846-2.88-1.708-4.598c0.275-3.162-2.334-5.584-3.022-8.54c-1.993-0.481-3.066-2.017-3.547-3.941
			c-1.237-0.412-2.441-0.833-3.679-1.314c0.069,0.412,0.062,1.164,0.131,1.577C4697.193,329.062,4693.7,325.864,4689.646,326.065z
			 M4754.021,384.529c1.168,0.275,0.305,1.983-0.657,1.708C4752.195,385.962,4753.059,384.323,4754.021,384.529z M4561.289,460.597
			l-1.051,7.489l7.095,3.022l-7.489,1.314l-0.657,7.62l-3.547-6.7l-7.489,1.839l5.124-5.518l-3.81-6.569l6.7,3.284L4561.289,460.597
			z M4504.27,467.166l6.569,22.597l23.78-0.394l-19.444,13.401l7.751,22.466l-18.656-14.452l-19.05,14.452l8.014-22.203
			l-19.576-13.795l23.517,0.788L4504.27,467.166z M4573.901,480.435l4.992,5.781l6.832-3.416l-3.81,6.569l5.255,5.518l-7.357-1.708
			l-3.679,6.7l-0.657-7.489l-7.488-1.314l6.832-3.022L4573.901,480.435z M4578.236,509.207l2.102,7.226l7.751-0.131l-6.307,4.204
			l2.497,7.357l-6.043-4.73l-6.043,4.598l2.496-7.094l-6.175-4.467l7.62,0.263L4578.236,509.207z M4560.763,529.177l-0.525,7.489
			l7.226,2.628l-7.357,1.839l-0.131,7.62l-4.073-6.438l-7.226,2.233l4.729-5.781l-4.335-6.306l7.094,2.89L4560.763,529.177z
			 M4517.539,586.326c2.337-0.344,0.093,2.919-0.525,0.788L4517.539,586.326z"/>
		<path d="M4397.408,415.57c0.55-0.756,1.925,0.069,1.375,0.962C4398.233,417.289,4396.79,416.464,4397.408,415.57z"/>
		<path d="M4681.225,539.091c1.1-0.412,1.444,0,1.1,1.1C4681.225,540.535,4680.812,540.191,4681.225,539.091z"/>
		<path d="M4600.527,616.421c2.268-0.756,4.88-1.306,6.324,1.1c-1.581,2.268-3.781,4.399-3.437,7.492
			c-2.131,0.894-3.437,2.887-5.155,4.33c-2.612-0.412-4.88-1.718-7.423-2.337c0.068-2.062,0.068-4.193,0.343-6.255
			C4593.378,617.864,4596.884,615.939,4600.527,616.421z"/>
	</g>
	<g>
		<path d="M102.8,283.3l-0.264,0.091l-0.224-0.072l0.083-0.486l-0.094-0.545l0.039-0.349l-0.245,0.033l-0.196-0.212l-0.575-0.199
			l-0.359-0.34l-0.275-0.435l-0.078-0.379l-0.574-0.652l1.1-1.368l0.046-0.337l-0.142-0.397l-1.031-0.165l-0.041-0.608l0.08-0.389
			l-0.369-1.337l0.348-0.415l-0.013-0.069l0.013-0.056l0.095-0.01l-0.443-0.125l-0.07-0.717l0.188-0.304l0.269-0.021l-0.19-0.28
			l0.282-0.169l0.204-0.669l-0.071-0.23l0.118-0.078l0.099-0.443l-0.076-0.1l0.047-0.32l-0.155-0.121l0.132-0.215l-0.118-0.794
			l-0.935,0.015l-0.397-0.617l-0.558-0.124l-0.181-0.315l-0.08-0.302l-0.131,0.041l-0.507-0.283l-0.075,0.098l-0.222-0.123
			l-0.221,0.112l-0.278-0.227l-0.941-0.296l0.033-0.136l-0.202-0.327l-0.194,0.16l-0.317-0.113h-0.453l-0.094,0.082l-0.023,0.202
			l-0.66-0.09l-0.339,0.047l-0.328,0.233l-0.103-0.016l-0.318,0.291l-0.044,0.19l-0.035,0.156l-0.11,0.083l-0.551,0.242
			l-0.153-0.031l-0.244,0.002l0.021,0.111l0.029,0.093l0.033,0.13l0.032,0.115l0.034,0.112l0.021,0.052l-0.023,0.07l0.01,0.099
			l-0.088,0.044l-0.056,0.021l-0.191,0.003l-0.214,0.003l-0.126-0.007l-0.044-0.031l-0.023-0.036l0.028-0.021l0.155-0.016
			l0.144-0.047l0.204-0.036l0.155-0.016v-0.033l-0.154,0.018l-0.212,0.039l-0.111,0.028l-0.118,0.021l-0.173,0.016l-0.159,0.025
			l-0.109,0.031l-0.113,0.029l-0.067,0.036l-0.098,0.031l-0.216,0.033l-0.16,0.034l-0.101,0.033l-0.145,0.029l-0.137,0.031
			l-0.092,0.033l-0.064,0.036l-0.062,0.033l-0.377,0.011l-0.077-0.029l-0.085-0.031l-0.088-0.028l-0.07-0.047l-0.096-0.036
			l-0.126-0.013l-0.126-0.029l-0.078-0.011l-0.095-0.029l-0.085-0.02l-0.064-0.033l-0.036-0.029l-0.07-0.038l-0.057-0.057
			l-0.044-0.029l-0.054-0.036l-0.039-0.033l-0.056-0.033l-0.065-0.033l-0.06-0.034l-0.07-0.06l-0.1-0.072l-0.095-0.095l-0.046-0.054
			l-0.023-0.065l-0.029-0.062l-0.036-0.069l-0.033-0.064l-0.031-0.065l-0.072-0.015l-0.117-0.007l-0.039-0.041l-0.076-0.05
			l-0.107,0.033h-0.092l-0.113-0.015l-0.131-0.022l-0.131-0.03l-0.126-0.044l-0.133-0.085l-0.081-0.041l-0.076-0.07l-0.061-0.083
			l-0.048-0.081l-0.017-0.115l-0.037-0.131l-0.022-0.085l-0.026-0.196l-0.013-0.238l-0.022-0.281l-0.257,0.062l-0.258-0.32
			l-0.162-0.013l-0.062-0.139l-0.275-0.198v-0.114l0.351-0.168l-0.224-0.376l0.266-0.199l-0.425-0.479l-0.726,0.346l-1.031,0.948
			l-0.24-0.088l-0.23,0.126l-0.085-0.064l-0.224-0.005l-0.525-0.185l-0.172-0.288l-0.163-0.02l-0.243-0.381l-0.074-0.234
			c-0.033-0.043-0.047-0.097-0.08-0.14l-0.215-0.235l-0.343-0.27l-0.439,0.019l-0.323-0.137l0.054-0.079l-0.208-0.511l0.125-0.079
			l0.122-0.267l-0.093-0.391l-0.231-0.14v-0.159l-0.042-0.089l-0.256-0.035l-0.118-0.083l0.09-0.089l-0.205-0.108l-0.154-0.214
			l-0.064,0.052l-0.032-0.133l-0.279-0.029l-0.09,0.219l-0.628-0.137l-0.17,0.118l-0.362-0.118l-0.034,0.061l-0.064,0.058
			l-0.034,0.05l-0.027,0.062l-0.09,0.014l-0.055,0.026l-0.347,0.257l-0.127,0.026l-0.107,0.034l-0.063,0.062l-0.042,0.049
			l-0.102,0.058l-0.077,0.038l-0.055,0.006l-0.022-0.017l-0.136,0.016l-0.049,0.039l-0.07,0.065l-0.08,0.055l-0.112,0.004
			l-0.06-0.024l-0.067-0.04l-0.202,0.005l-0.061-0.039l-0.059-0.005l-0.034-0.035l-0.045,0.003l-0.08,0.011l-0.08-0.066
			l-0.073-0.074h-0.08l-0.063,0.033l-0.079,0.003l-0.081,0.004l-0.035-0.016l-0.055-0.005l-0.036,0.042l-0.099,0.016l-0.149,0.02
			l-0.143,0.068l-0.074,0.043l-0.075,0.013l-0.06-0.02l-0.059,0.026l-0.069,0.041l-0.122,0.017l-0.099,0.001l-0.027-0.04
			l-0.142-0.032l-0.164-0.033l-0.208-0.016l-0.025-0.023l-0.047-0.023l-0.017-0.037l-0.002-0.026l-0.017-0.044l-0.001-0.042
			l-0.088-0.014l-0.027-0.016l-0.029,0.014l-0.022,0.038l-0.022,0.022l-0.026,0.044l-0.035,0.041l-0.046-0.005l-0.086-0.041
			l-0.095-0.082l-0.083-0.022l-0.046-0.021l-0.05-0.022l-0.077-0.022l-0.121-0.018L71.546,263l-0.021-0.061l-0.019-0.064
			l-0.042-0.019l-0.042-0.022l-0.044-0.021l-0.042-0.021L71.3,262.77l-0.065-0.022l-0.06-0.018l-0.074-0.016l-0.03,0.015
			l-0.02,0.044l-0.019,0.04l-0.025,0.042l-0.048,0.043l-0.096,0.02l-0.063-0.002l-0.064-0.058l-0.044-0.049l-0.059-0.058
			l-0.066-0.067l-0.042-0.06l-0.019-0.047l-0.043-0.041l0.002-0.226l-0.045-0.044l-0.041-0.044l-0.045-0.02l-0.065-0.072
			l-0.058,0.029l-0.04,0.019l-0.042,0.021l-0.042,0.023l-0.043,0.023l-0.101,0.018l-0.088,0.023l-0.096,0.002l-0.091-0.029
			l-0.105-0.046l-0.096-0.053l-0.075-0.08l-0.077-0.094l-0.059-0.086l-0.023-0.04l0.002-0.095l0.027-0.082l-0.027-0.021
			l-0.047-0.034l-0.04-0.042l-0.025-0.034l-0.034-0.005l-0.062,0.06l-0.023,0.043l-0.02,0.022l-0.02,0.038l-0.051,0.064
			l-0.084,0.023l-0.194-0.003l-0.046-0.018l-0.07-0.037l-0.114,0.038l-0.036,0.014l-0.092-0.015l-0.164-0.024l-0.095-0.004
			l-0.101-0.011l-0.034,0.016l-0.086,0.001l-0.141-0.018l-0.186-0.025l-0.149-0.019l-0.147-0.022l-0.1,0.029l-0.083,0.04
			l-0.085,0.039l-0.083,0.03l-0.063,0.035l-0.06,0.04l-0.084,0.023l-0.104,0.036l-0.129,0.021l-0.09,0.023l-0.07,0.022l-0.085,0.034
			l-0.083,0.048l-0.059,0.029l-0.045,0.036l-0.043,0.024l-0.04,0.021l-0.032,0.018l-0.033,0.023l-0.041,0.043l-0.027,0.059
			l-0.035,0.023l-0.088,0.019l-0.036,0.027l-0.023,0.039l-0.064,0.021l-0.057,0.023l-0.044,0.021l-0.066,0.04l-0.098,0.06
			l-0.086,0.048l-0.064,0.037l-0.047,0.021l-0.036,0.022l-0.084,0.06l-0.048,0.022l-0.01,0.109l-0.026,0.064l-0.042,0.066
			l-0.065,0.062l-0.078,0.02l-0.102,0.025l-0.085,0.018h-0.396l-0.058-0.042l-0.067-0.038l-0.123-0.007l-0.146-0.04l-0.163-0.044
			l-0.063-0.004l-0.015,0.037l-0.03,0.033l-0.263,0.018l-0.156-0.017l-0.118-0.02l-0.233-0.039l-0.085-0.044l-0.082-0.02
			l-0.153-0.005l-0.089,0.002l-0.132-0.024l-0.159-0.028l-0.11-0.034l-0.125-0.04l-0.081-0.044l-0.105-0.041l-0.084-0.065
			l-0.083-0.044l-0.082-0.039l-0.106-0.064l-0.102-0.064l-0.063-0.044l-0.039-0.04l-0.025-0.04l-0.02-0.024l-0.02-0.04l-0.002-0.025
			l-0.022-0.061l-0.022-0.083l-0.036-0.085l-0.042-0.068l-0.006-0.037l0.019-0.025l0.018-0.039l0.032,0.023l0.025-0.005
			l-0.006-0.067l-0.026-0.11l-0.203-0.024l-0.036,0.11l-0.107-0.074l-0.195,0.148l-0.288-0.279l-0.299-0.033l-0.142,0.144
			l-0.411,0.04l-0.118,0.248l-0.179,0.019l-0.019,0.156l0.283,0.187l0.05,0.411l-0.376,0.164l0.02,0.433l-0.121,0.224l-0.221,0.169
			l0.02,0.169l0.041,0.042l0.039,0.019l0.251-0.002l0.144-0.021l0.125-0.021l0.022-0.021l0.106-0.02l0.135-0.025l0.032,0.024
			l0.019,0.041l0.006,0.031l-0.009,0.037l-0.035,0.021l-0.046,0.037l-0.023,0.021l-0.038,0.022l-0.041,0.004l-0.086,0.019
			l-0.022,0.019l-0.042,0.021l-0.022,0.022l-0.038,0.019l-0.025,0.021l-0.041,0.021l-0.042,0.024l-0.034,0.021l-0.022,0.021
			l-0.025,0.021l-0.042,0.022l-0.026,0.018l-0.037,0.023l0.002,0.023l0.017,0.03l-0.016,0.014l-0.024-0.004l0.002,0.042l0.02,0.048
			l0.001,0.034l0.01,0.024l-0.01,0.024l-0.021,0.06l-0.021,0.023l-0.013,0.02l-0.018,0.033l-0.011,0.053l0.04-0.005l0.062-0.043
			l0.022-0.017l0.038-0.003l0.04-0.043l0.022-0.017l-0.002-0.045l0.001-0.038l0.021-0.025l0.026-0.02l0.038-0.025l0.041-0.04
			l0.043-0.023l0.064-0.056l0.022-0.027l0.036-0.044l0.026-0.042l0.018-0.02l0.022-0.04l0.021-0.024l0.023-0.038l0.021-0.023
			l0.042-0.021l0.042-0.021l0.042-0.021l0.037-0.02l0.026-0.021l0.06-0.023l0.082-0.023l0.022-0.039l0.105-0.022l0.06-0.04
			l0.063-0.043l0.064-0.062l0.04-0.044l0.042-0.061l0.042-0.045l0.022-0.021l0.021-0.021l0.043-0.042l0.02-0.041l0.021-0.064
			l0.021-0.076l0.022-0.052l0.038-0.002l0.032,0.006l0.089-0.011l0.104-0.019l0.066-0.015l0.046,0.04l0.035,0.028l0.12-0.006
			l0.026-0.029l0.035-0.059l0.043-0.033l0.046-0.01l0.077-0.025l0.08-0.019l0.042,0.022l0.096,0.024l0.07,0.016l0.058,0.022
			l0.048,0.021l0.039,0.021l0.034,0.008l0.04-0.022l0.066,0.021l0.077,0.024l0.078,0.014l0.096-0.019l0.08-0.022l0.087-0.018
			l0.065,0.036l0.065,0.035l0.049,0.039l0.046,0.041l0.062,0.041l0.06,0.046l0.024,0.04l-0.009,0.033l0.071,0.025l0.015,0.024
			l0.01,0.02l0.21,0.006l0.075-0.008l0.09,0.003l0.076,0.017l0.09,0.021l0.065,0.002l0.045-0.021l0.04-0.002l0.02,0.027
			l-0.028,0.033l-0.055,0.013l-0.115-0.007l-0.171,0.021l-0.114,0.025l-0.064-0.01l-0.115,0.019l-0.042,0.029l-0.069,0.027
			l-0.283,0.021l-0.064,0.019l-0.08,0.019l-0.04,0.024l-0.04,0.041l-0.064,0.03l-0.043,0.04l0.066,0.057l0.051,0.029l0.034,0.025
			l0.08-0.013l0.117-0.025l0.016,0.022l0.024,0.022l0.021,0.029l-0.014,0.051l-0.075,0.035l-0.078,0.029l-0.093,0.006l-0.054-0.032
			l-0.086-0.002l-0.067,0.025h-0.118l-0.122-0.016l-0.256-0.014l-0.106-0.008l-0.035,0.003l-0.178,0.024l-0.056,0.024l-0.086,0.013
			l-0.029-0.024l-0.014-0.021l0.01-0.022l0.072-0.064l0.05-0.04l-0.006-0.035l-0.032-0.025l-0.147-0.024l-0.131-0.022l-0.048,0.03
			l-0.006,0.04l0.021,0.035l0.019,0.032l0.022,0.035l0.048,0.046l0.08,0.002l0.01,0.04l-0.034,0.024l-0.051,0.038l-0.075,0.021
			l-0.247,0.021l-0.082-0.01l-0.051-0.025l-0.037-0.025l-0.064-0.037l-0.034-0.03l-0.011-0.132l-0.04,0.025l-0.059,0.025
			l-0.104,0.014l-0.08,0.008l-0.027,0.04l-0.043,0.011l-0.08-0.014l-0.027-0.03l-0.109,0.019l-0.04-0.013l-0.056,0.03l-0.078,0.068
			l-0.037,0.052l-0.05,0.06l-0.072,0.07l-0.05,0.022l-0.039,0.02l-0.037,0.025l-0.016,0.041l-0.02,0.041l-0.014,0.064l-0.026,0.041
			l-0.031,0.043l-0.026,0.035l-0.041,0.027l-0.032,0.014l-0.065-0.018l-0.023,0.007l-0.021,0.078l-0.018,0.078l-0.014,0.086
			l0.007,0.094l0.003,0.105l0.007,0.059l-0.007,0.025l-0.022,0.041l0.001,0.026l-0.022,0.037l-0.018,0.044l-0.021,0.039
			l-0.003,0.033l-0.018,0.034v0.035l0.042,0.025l0.02,0.022l0.04-0.001l0.105-0.02l0.104-0.023l0.063-0.02l0.06-0.02l0.046-0.022
			l0.064-0.019l0.064-0.002l0.077-0.022l0.063-0.001l0.046-0.019l0.14,0.001l0.047,0.018l0.046,0.005l0.03,0.032l-0.014,0.036
			l-0.005,0.052l-0.083,0.003l-0.046,0.035l-0.034,0.029l-0.001,0.085l-0.032,0.026l-0.05,0.035l-0.037,0.023l-0.026,0.039
			l-0.01,0.023l0.065,0.023l0.016,0.042l0.015,0.041l0.019,0.058l0.021,0.026l0.063,0.064l0.017,0.021l0.029,0.018l0.017,0.031
			l-0.022,0.017l-0.015,0.044l-0.025,0.04l-0.032,0.056l-0.009,0.022l0.034,0.025l0.044,0.022l0.022,0.018l0.121-0.021l0.047-0.015
			l0.023,0.016l0.008,0.069l-0.017,0.039l-0.038,0.024l-0.021,0.016l-0.026,0.048l-0.033,0.062l-0.022,0.018l-0.167,0.024
			l-0.044,0.018l0.005,0.127l0.041,0.04l0.018,0.021l0.018,0.041l0.021,0.041l0.021,0.022l0.023,0.023l0.021,0.037l0.019,0.025
			l0.023,0.022l0.124,0.003l0.047,0.018l0.044,0.001l0.066-0.013l0.05,0.011l0.006,0.056l-0.115,0.011l-0.075,0.001l-0.068,0.021
			l-0.036,0.015l-0.085,0.012l-0.059,0.03l-0.074-0.003l-0.019-0.028l-0.019-0.04l-0.029-0.007l-0.045,0.025l-0.004,0.057
			l0.018,0.044l-0.033,0.007l-0.006-0.029l-0.021-0.043l-0.021-0.039l-0.02-0.064l0.021-0.051l-0.001-0.068l-0.019-0.031
			l-0.021-0.006l-0.022-0.041l-0.022-0.041l-0.036-0.042l-0.026-0.038l-0.048-0.018l-0.114,0.017l-0.01,0.059l0.012,0.088
			l0.019,0.038l0.021,0.041l0.015,0.029l0.028,0.036l0.037,0.019l0.022,0.014l0.019,0.028l-0.018,0.026l-0.034,0.048l-0.029,0.036
			l-0.018,0.02l-0.009,0.022l-0.036-0.014l-0.044-0.032l-0.059-0.013l-0.015,0.087l-0.011,0.053l0.06,0.033l0.055-0.002l0.035,0.035
			l0.039,0.024l0.041,0.021l0.062,0.019l0.024,0.023l0.018,0.022l0.034,0.029l0.043-0.033l0.024-0.021l0.023-0.044l0.021-0.026
			l0.102-0.013l0.025,0.039l0.018,0.024l0.022,0.043l0.018,0.061l0.018,0.044l0.006,0.022l0.016,0.04l0.022-0.001l0.012-0.027
			l0.022-0.009l0.095,0.017l0.094,0.022l0.025,0.021l0.02,0.019l0.027,0.021l0.013,0.021l0.045,0.002l0.037-0.02l0.03,0.017
			l0.022,0.025l-0.002,0.083l0.019,0.174l0.001,0.057l-0.018,0.025l-0.022,0.064l-0.021,0.026l-0.106,0.015l-0.095,0.011
			l0.012,0.029l0.045,0.025l0.018,0.019l0.043,0.02l0.036,0.022l0.026,0.021l0.016,0.019l-0.014,0.025l-0.013,0.027l0.012,0.039
			v0.036l0.019,0.064v0.043l0.015,0.033l-0.014,0.027l-0.021,0.022v0.025l0.039,0.019l0.042-0.003l0.018-0.017l0.042-0.021
			l0.022-0.023l0.041-0.023l0.034-0.02l0.01,0.02l0.01,0.125l0.012,0.023l0.077-0.018l0.006,0.028l-0.019,0.014l-0.023,0.03
			l0.021,0.033l0.031,0.016l0.032-0.019l0.034-0.025l0.014-0.014l0.014,0.017l0.008,0.037l-0.01,0.052l-0.023,0.037l-0.022,0.068
			l-0.04,0.04l-0.02,0.022l-0.04,0.019l-0.038-0.019l-0.022-0.021l-0.021-0.02l-0.022-0.012l-0.023-0.03l-0.03,0.002l-0.022,0.028
			l-0.028,0.031l-0.022,0.022l-0.022,0.017l-0.02,0.024v0.04l0.022,0.066l0.017,0.021l0.018,0.017l0.014-0.017l0.034-0.021
			l0.043-0.021l0.04-0.024l0.022-0.018l0.024,0.017l0.039,0.023l0.024,0.021l0.185-0.001l0.155-0.019l0.107-0.024l0.056-0.016
			l0.098,0.017l0.059-0.001l0.232-0.023l0.09-0.014l0.009,0.036l-0.041,0.044l-0.041,0.042l-0.056,0.045l-0.046,0.04l-0.02,0.005
			l-0.023-0.005l-0.079-0.023l-0.027,0.001l0.004,0.046l0.02,0.024l-0.001,0.117l-0.02,0.024h-0.041l-0.06-0.02l-0.087-0.002
			l-0.038-0.017h-0.034l-0.034,0.018l-0.054,0.023l-0.033,0.018l-0.021-0.019l-0.094,0.002l-0.044,0.04l-0.11,0.019l-0.066,0.008
			l-0.029,0.039l-0.014,0.055l0.031,0.026l0.015,0.009l0.084-0.012l0.042-0.018l0.05,0.002l0.034,0.016l0.038,0.006l0.028-0.022
			l0.022-0.045l0.021-0.056l0.022-0.008l0.088,0.001l0.106,0.002l0.094-0.017l0.081-0.007l0.036-0.016l0.022-0.023l0.027-0.015
			l0.001,0.04l0.02,0.042l0.001,0.032l-0.021,0.011l-0.025,0.016l-0.039,0.024l-0.005,0.013l0.026,0.029l0.014,0.022l0.005,0.025
			l-0.041,0.017l-0.021,0.019l-0.038,0.008l-0.01,0.022l0.036,0.025l0.031,0.006l0.046-0.041l0.04-0.039l0.02-0.028l0.022-0.066
			L61,270.043l0.034-0.021l0.018-0.031l0.019-0.087l0.013-0.071l0.03-0.023l0.016,0.017l0.038,0.033l0.04,0.017l0.029,0.01
			l0.03-0.017l0.004-0.034l0.017-0.012l0.046,0.032l0.045,0.022l0.03,0.025l0.019-0.058l0.037-0.011l0.026,0.021l0.011,0.078v0.052
			l0.016,0.027l0.025-0.006l0.024-0.021l0.022,0.017l0.038,0.023l0.045,0.021l0.04,0.021l0.02,0.017l0.032,0.009l0.046-0.048
			l0.039-0.047l0.029-0.039l0.039,0.002l0.041,0.043l0.055,0.025l0.042,0.019l0.025,0.03l0.003,0.029l-0.023,0.024l-0.012,0.025
			l-0.027,0.039l0.02,0.041l0.042,0.02l0.035,0.027l0.005,0.226l0.065,0.085l0.063,0.044l0.061,0.038l0.042,0.025l0.024,0.023
			l0.038-0.002l0.057,0.003l0.101,0.025l0.11-0.006l0.023,0.044l0.024,0.039l0.04,0.029l0.074,0.002l0.099-0.023l0.086-0.014
			l0.011-0.052l0.024-0.01l0.086-0.022l0.086-0.006l0.061-0.01l0.03-0.048l0.037-0.038l0.062-0.013l0.046-0.013l0.059,0.005
			l0.027,0.022l0.042,0.019l0.042,0.024v0.071l0.027-0.013l0.027-0.046l0.043-0.057l0.026-0.057l-0.026-0.064l-0.018-0.032
			l0.018-0.037l0.04-0.065l0.022-0.043l0.026-0.054v-0.229l0.016-0.14l0.03-0.075l0.045-0.041l0.075-0.011l0.083,0.013l0.085,0.008
			l0.154-0.013l0.104-0.006l0.115,0.025l0.17,0.04l0.04,0.021l0.061,0.019l0.022,0.027l0.046,0.027l0.083,0.032l0.075,0.04
			l0.078,0.051l0.113,0.054l0.061,0.044l0.059,0.023l0.058,0.018l0.07,0.024l0.082,0.022l0.046,0.037l0.041,0.043l0.041,0.065
			l0.06,0.064l0.043,0.061l0.041,0.067l0.023,0.039l0.018,0.024l0.023,0.041l0.06,0.064l0.078,0.065l0.088,0.08l0.05,0.036
			l0.042,0.001l0.046-0.015l0.03,0.03l0.045,0.021l0.017,0.034l0.059,0.018l0.062,0.017l0.046-0.012l0.044-0.044l0.03-0.004
			l0.02-0.02l0.042-0.023l0.032-0.014l0.031,0.011l0.118,0.024l0.033-0.019l0.018-0.031l0.028-0.026l0.04-0.021l0.132-0.008
			l0.107-0.002l0.053,0.012l0.181-0.031l0.072-0.036l0.034,0.006l0.007,0.039l0.031,0.014l0.01-0.055l0.11-0.097l0.062-0.04
			l0.041-0.028l0.051-0.025l0.029,0.014l0.022,0.025l0.027,0.015l0.049-0.033l0.043-0.028l0.022-0.121l0.021-0.042l0.059-0.064
			l0.062-0.066l0.086-0.088l0.057-0.062l0.067-0.062l0.058-0.012l0.06-0.07l0.089-0.083l0.088-0.071l0.101-0.026h0.045l0.063,0.031
			l0.041,0.04l0.041,0.02l0.043,0.043l0.046,0.02l0.058,0.021l0.045,0.023l0.062,0.018l0.044,0.022l0.058,0.04l0.064,0.044
			l0.073,0.035l0.059,0.021l0.059,0.019l0.034-0.029l0.048-0.022l0.051,0.014l0.113,0.006l0.053-0.04l0.021-0.04l0.034-0.087
			l0.009-0.036l-0.053-0.025v-0.028l0.07-0.034l0.132-0.004l0.12-0.131l0.094-0.091l0.045-0.023l0.032,0.034l0.068,0.04l0.045,0.025
			l0.017,0.034l0.047,0.066l0.028,0.072l-0.017,0.133l-0.079,0.135l-0.156,0.131l-0.128,0.108l-0.107,0.127l-0.019,0.049v0.042
			l0.122,0.15l0.021,0.042l0.023,0.061l0.023,0.049l0.021,0.074l0.009,0.044l-0.036,0.036l-0.018,0.03l-0.034,0.051l-0.046,0.066
			l0.017,0.141l-0.081,0.097l-0.027,0.066v0.056l0.037,0.062l0.079,0.075l0.031,0.062l0.041,0.103l0.023,0.104l0.002,0.166
			l-0.023,0.066l-0.06,0.106l-0.002,0.211l0.043,0.13l0.041,0.168l0.038,0.119l-0.07,0.136l-0.102,0.106l-0.204,0.229l-0.074,0.363
			l-0.078,0.122l-0.151,0.298l-0.2,0.527l-0.151,0.404l-0.163,0.38l-0.135,0.527l-0.106,0.393l-0.098,0.285l-0.152,0.38
			l-0.215,0.323l-0.224,0.196l-0.056,0.059l-0.094,0.062l-0.134,0.066l-0.152,0.047l-0.141,0.036l-0.091,0.024l-0.113-0.006
			l-0.133-0.018l-0.03,0.049l-0.159,0.012l-0.101,0.041l-0.065,0.024l-0.032-0.086l-0.029-0.056l-0.03-0.031l-0.062,0.067
			l-0.042,0.04l-0.145,0.005l-0.092,0.058l-0.144,0.006l-0.096-0.014l-0.046-0.032l-0.169-0.175l-0.084-0.016l-0.019-0.066
			l-0.089,0.008l-0.037-0.038l-0.102-0.064l-0.025-0.016l-0.035-0.01l-0.047-0.041l-0.036-0.046l-0.025-0.056l-0.042-0.068
			l-0.064-0.02l-0.074-0.018l-0.076,0.065l-0.161,0.018l-0.114,0.018l-0.107-0.015l-0.109-0.062l-0.104-0.053l-0.106-0.051
			l-0.123-0.014l-0.103-0.008l-0.084,0.029c-0.102,0.025-0.027,0.016-0.129,0.041l-0.223,0.091l-0.115,0.018l-0.108,0.02
			l-0.122-0.018l-0.007,0.09l-0.023,0.049l-0.05,0.048l-0.066,0.065l-0.071,0.025l-0.083-0.008l-0.039-0.044l-0.11,0.058
			l-0.084,0.093l-0.105,0.1l-0.111,0.07l-0.092,0.067l-0.103,0.073l-0.113,0.056l-0.116,0.064l-0.13,0.051l-0.069,0.029
			l-0.088,0.011l-0.155-0.007l-0.128-0.07l-0.066-0.059l-0.113-0.092l-0.113-0.031l-0.179-0.052l-0.074-0.062l-0.261,0.023
			l-0.174-0.019l-0.216-0.031l-0.012-0.047l-0.018-0.071l-0.011-0.055l-0.073,0.034l-0.087,0.024l-0.12,0.02l-0.076-0.014
			l-0.069-0.012l-0.102-0.036l-0.05-0.086l-0.044-0.083l-0.056-0.034l-0.246-0.007l-0.112-0.089l-0.201-0.004l-0.059-0.05
			l-0.368-0.023l-0.142-0.044l-0.131-0.035l-0.12-0.049l-0.165-0.031l-0.164-0.023l-0.113,0.035l-0.116,0.044l-0.092,0.034
			l-0.119,0.031l-0.149,0.026l-0.143-0.013l-0.085-0.028l-0.038-0.076l-0.001-0.116l-0.341,0.36l0.013,0.357l0.166,0.516
			l-0.099,0.398l-0.282,0.463l0.265,0.761l-0.067,0.108l0.168,0.372l0.002,9.646h7.539l0.188-0.279l0.048,0.042l-0.13,0.237h6.566
			v-0.073l-0.092-0.096l-0.054-0.05l-0.067,0.03l-0.171-0.182l-0.145-0.068l-0.062-0.104l-0.099-0.085l-0.042-0.05l-0.036-0.07
			l-0.046-0.064l-0.08-0.022l-0.078-0.018l-0.09-0.022l-0.078-0.052l-0.102-0.068l-0.067-0.079l-0.026-0.07l-0.079-0.054
			l-0.06-0.047l-0.001-0.141l-0.042-0.09l-0.039-0.096l-0.03-0.067l-0.014-0.06l-0.022-0.145l-0.054-0.09l0.014-0.074l-0.002-0.243
			l-0.029-0.062l0.011-0.096l0.017-0.089l0.012-0.076l0.1,0.041l0.059,0.024l0.056,0.017l0.041-0.017l0.012-0.065l-0.105-0.006
			l-0.044-0.057l-0.081-0.098l-0.071-0.042l-0.073-0.115l-0.108-0.128l-0.068-0.078l-0.101-0.107l-0.051-0.064l0.026-0.065
			l-0.061-0.058l-0.029-0.117l-0.04-0.1l-0.054-0.079l-0.054-0.103l-0.034-0.085l-0.046-0.119l-0.06-0.138l-0.079-0.166
			l-0.063-0.135l-0.046-0.097l-0.048-0.054l-0.048-0.07l-0.042-0.129l-0.044-0.116l-0.107-0.105l-0.066-0.096l-0.036-0.089
			l-0.044-0.094l-0.057-0.11l-0.047-0.082l-0.042-0.094l-0.023-0.102l-0.087-0.127l-0.044-0.093l-0.042-0.1l-0.116-0.132
			l-0.022-0.109l0.017-0.076l0.027-0.068l0.02-0.025l0.004-0.032l-0.097-0.108l-0.006-0.114l-0.031-0.037l-0.038-0.048l-0.017-0.049
			l0.018-0.114l-0.079-0.049l-0.055-0.038l-0.046-0.044l-0.026-0.105l-0.064-0.093l-0.067-0.097l-0.083-0.102l0.02-0.077l0.002-0.09
			l-0.039-0.085l0.025-0.016l0.031,0.018l0.031-0.003l0.012-0.067l-0.012-0.053l-0.038-0.05l-0.085-0.078l-0.106-0.04l-0.071-0.082
			l-0.054-0.081l-0.081-0.099l-0.067-0.082l-0.062-0.115l-0.084-0.147l-0.087-0.094l-0.073-0.017l-0.019-0.071l-0.018-0.09
			l-0.055-0.146l-0.089-0.067l-0.062-0.064l-0.032-0.055l-0.029-0.147l0.05-0.108l-0.022-0.09l-0.02-0.107l-0.034-0.074l-0.02-0.067
			l-0.038-0.039l-0.046-0.041l-0.022-0.031l-0.06-0.074l-0.062-0.06l-0.05-0.048l-0.013-0.079l0.024-0.102l0.043-0.054l0.048-0.061
			l0.061-0.078l-0.002-0.103l0.019-0.047l0.064-0.027l0.036,0.02l0.055,0.078l0.001,0.093l0.024,0.056l0.036,0.05l0.013,0.141
			l0.032,0.171l0.046,0.117l0.093,0.056l0.006,0.086l0.026,0.062l0.05,0.109l0.069,0.022l0.058,0.07l0.08,0.109l0.117,0.077
			l0.025,0.091l-0.012,0.16l0.042,0.074l-0.015,0.153l0.075,0.111l0.046,0.118l0.07,0.023l0.015,0.038l0.02,0.073l0.041,0.027
			l0.105,0.065l0.042,0.04l0.08,0.129l0.087,0.139l0.086,0.111l0.098,0.067l0.112,0.07l0.09,0.075l0.076,0.076l0.054,0.027
			l0.093,0.007l0.046,0.056l0.025-0.072l0.065-0.137l0.062-0.064l0.06-0.05l0.01-0.066l0.02-0.209l-0.029-0.024v-0.217l0.034-0.11
			l0.043-0.04l0.048-0.041l0.016-0.064l0.02-0.065l0.01-0.068l0.038-0.059l0.036-0.041l0.002-0.278l0.02-0.065l0.044-0.03
			l0.014-0.215l0.046-0.079l0.008-0.17l0.05-0.033l0.044-0.088l0.05-0.062l0.053-0.047l0.065-0.033l-0.013,0.198l-0.01,0.065
			l-0.037,0.098L69,280.648l-0.03,0.191l-0.03,0.184l-0.029,0.204l-0.015,0.305l-0.039,0.074l-0.061,0.179l-0.069,0.128
			l-0.049,0.099l-0.037,0.101l0.067,0.044l0.066-0.101l0.029-0.034l0.012,0.059l0.032,0.025l0.246-0.029l0.125-0.002l0.069,0.03
			l0.093,0.034l0.029,0.072l0.069,0.103l0.056,0.081l0.051,0.083l0.083,0.066l0.054,0.138l0.056,0.123l0.069,0.133l0.091,0.128
			l0.113,0.111l0.052,0.099l-0.022,0.083l0.02,0.051l0.088,0.084l0.093,0.106l0.061,0.093l0.057,0.113l0.089,0.145l0.088,0.069
			l0.062,0.051l0.066,0.145l0.054,0.152l0.057,0.12l0.062,0.078l0.024,0.12l0.027,0.035l0.078,0.037l0.103,0.054l0.049,0.039
			l0.01,0.105l-0.013,0.062l-0.049,0.074l0.051,0.108l0.054,0.02l0.064-0.022l0.032,0.019l0.062,0.066l0.086,0.079l0.059,0.079
			l0.027,0.074l0.062,0.094v0.049l-0.057,0.007l-0.02,0.024l0.073,0.034l0.062,0.062l0.052,0.081l0.081,0.067l0.022,0.088
			l-0.002,0.126l0.051,0.091l-0.01,0.074l-0.046,0.091l-0.034,0.089l0.027,0.096l0.057,0.027l0.035,0.047l0.066,0.088l0.079,0.125
			l0.03,0.046l-0.025,0.047l-0.013,0.091l0.03,0.044l0.064,0.062l0.072,0.029l0.069-0.005l0.061-0.059l0.037,0.017l0.059,0.066
			l0.059,0.062l0.054,0.056l0.064-0.02l0.054,0.017l0.061,0.069l0.081,0.015l0.051,0.04l0.074,0.067l0.052,0.054l0.076,0.007
			l0.064,0.051l0.067,0.054l0.074,0.094l0.027,0.076l0.02,0.123l0.03,0.093l0.027,0.035l0.064,0.012l0.02,0.03l0.034,0.116
			l0.03,0.094l0.029,0.088l0.03,0.098l0.03,0.044l0.051,0.067l0.013,0.079l-0.005,0.069l0.062,0.079l0.025,0.064l0.04-0.022
			l0.027,0.017l0.042,0.012L73.879,289l-0.03,0.04l-0.062-0.061l-0.015,0.019l0.059,0.076l0.059,0.056l0.029,0.091l0.03,0.086
			l0.042,0.084l-0.005,0.164l0.022,0.081l0.002,0.083l-0.042,0.126l-0.022,0.138l-0.032,0.084l-0.03,0.089l-0.057,0.008l0.032,0.138
			l0.027,0.019l0.049,0.017l0.019,0.051l0.064,0.089l0.003,0.096l0.017,0.121l0.052,0.091l0.032,0.078l-0.002,0.057l-0.056,0.059
			l-0.034,0.04l0.032,0.076l0.032,0.081l0.056,0.088l0.057,0.04l0.008,0.062l0.02,0.076l0.086,0.093l0.093,0.116l0.086,0.121
			l0.091,0.138l0.083,0.121l0.059,0.086l0.064,0.059l0.088,0.062l0.083,0.083l0.076,0.027l0.056-0.005l0.071-0.051l0.046,0.002
			l0.029,0.046l0.035,0.067l0.062,0.061l0.098,0.035l0.283,0.169l0.017,0.076l0.034,0.094l0.03,0.042l0.069,0.062l0.108-0.027
			l0.059,0.071l0.005,0.165l0.081,0.099l0.103,0.032l-0.005,0.143l0.078,0.101l0.066,0.108l0.061,0.069l0.029,0.101l0.012,0.111
			l0.057,0.012l0.059,0.013l0.084,0.007l-0.003,0.046l-0.091,0.007l-0.049-0.027l-0.071,0.007l0.022,0.098l0.059,0.017l0.019,0.046
			l-0.017,0.062v0.106l0.056,0.086l0.035,0.056l0.084,0.01l0.034,0.044l0.046,0.039l0.01,0.115l0.035,0.103l0.051,0.128l0.051,0.106
			l0.066,0.113l0.096,0.069l0.066,0.108l0.126,0.123l0.13,0.088l0.079,0.056l0.081,0.061l0.059,0.061l0.096,0.104l0.11,0.115
			l0.005,0.14l0.027,0.098l0.032,0.067l0.059,0.015l0.027,0.046l0.003,0.074l0.076,0.062l0.062,0.04l-0.017,0.027l-0.008,0.103
			l0.04,0.047l0.051,0.042l0.094,0.089l0.029,0.056l0.015,0.083l-0.019,0.079l0.054,0.096l0.03,0.029l-0.013,0.088l0.021,0.159
			l0.023,0.083l0.019,0.091l0.002,0.246l-0.016,0.074l-0.061,0.118l-0.051,0.077l-0.037,0.051l0.039,0.098l0.019,0.101l0.024,0.085
			l0.042,0.144l0.015,0.089l-0.011,0.049l-0.022,0.011l-0.047-0.052l-0.03-0.045l-0.032,0.037l-0.02,0.059l0.043,0.019l0.089,0.024
			l0.036,0.02l0.068,0.051l0.011,0.143l0.026,0.041l0.037,0.055l0.008,0.062l-0.004,0.119l0.039,0.108l0.025,0.103l0.025,0.157
			l-0.028,0.053l0.045,0.085l0.04,0.097l0.02,0.085l0.022,0.148l0.04,0.108l0.064,0.098l0.067,0.082l0.014,0.101l0.042,0.096
			l0.004,0.118l-0.026,0.244l-0.007,0.242l0.052,0.095l0.06,0.107l0.06,0.117l0.062,0.088l0.038,0.091l0.005,0.056l-0.014,0.121
			l0.113-0.061l0.043-0.015l0.052,0.012l0.121,0.047l0.144,0.063l0.095,0.069l0.128-0.034l0.145-0.035l0.023,0.024l0.109-0.022
			l0.08-0.021l0.084-0.019l0.039-0.049l0.075-0.079l0.068-0.027l0.079-0.007l0.056,0.031l0.038,0.052l0.063-0.012l0.026-0.021
			l0.056,0.008l0.052,0.009l0.029-0.049l0.04-0.025l0.036-0.03l0.054,0.02l0.056,0.005l0.004-0.041l0.019-0.059l0.041-0.061
			l0.042-0.064l0.095-0.02l0.082-0.027l0.095-0.029l0.042-0.049l0.082-0.081l0.106-0.14l0.065-0.085l0.131-0.018l0.167-0.038
			l0.179-0.027l0.145,0.016l0.125-0.032l0.101,0.024l0.224,0.008l0.109-0.035l0.074,0.028l0.115-0.076l0.1-0.043l0.164-0.049
			l0.134-0.043l0.112-0.021l0.112-0.03l0.119-0.03l0.047-0.035l0.105-0.099l0.124-0.107l0.086-0.077l0.117-0.033l0.064-0.038
			l0.058-0.057l0.076-0.038l0.09,0.004l0.087,0.023l0.093,0.062l0.138-0.018l0.018-0.032l0.113-0.02l0.056,0.032l0.085-0.061h0.205
			l0.066-0.059l0.072-0.077l0.051-0.065l0.057-0.065l0.09-0.046l0.008-0.109l0.124-0.166l0.082-0.006l0.125-0.094l0.088-0.04
			l0.118-0.048l0.096-0.034l0.104-0.061l0.1-0.02l0.138-0.027l0.131-0.058l0.046-0.001l0.09,0.026l0.103-0.017l0.088-0.016
			l0.042-0.059l0.102-0.039l0.085-0.038l0.096-0.065l0.075-0.039l0.155-0.029l0.233-0.033l0.229-0.066l0.086-0.037l0.104-0.024
			l0.063-0.018l0.142-0.025l0.055-0.04l0.06-0.039l0.09-0.022l0.105-0.016l0.008-0.055l0.041-0.035l0.109-0.061h0.091l0.031-0.039
			l0.032-0.026l0.201-0.085l0.099-0.032l0.093-0.05l-0.023-0.045l-0.015-0.188l-0.032-0.02l0.001-0.081l-0.015-0.111l0.067-0.189
			l0.077-0.123l0.158-0.153l0.132-0.091l0.098-0.044l0.287-0.104l0.316-0.111l0.38-0.115l0.285-0.049l0.101-0.107l0.205-0.043
			l0.119-0.104l0.263-0.04l0.236-0.021l0.217,0.064l0.104,0.049l0.3-0.031l0.214-0.202l0.086-0.15l0.015-0.199l-0.061-0.083
			l-0.009-0.046l0.028-0.055l0.135-0.135l0.092-0.153l0.028-0.04l0.23-0.021l0.199-0.064l0.285-0.037l0.334-0.034l0.156-0.11
			l0.089-0.089l0.049-0.153l0.031-0.101l0.031-0.334l0.162-0.184l0.116-0.095l0.276-0.089l0.276-0.08l0.435-0.015l0.156-0.04
			l0.018-0.074l-0.043-0.26l-0.037-0.205l-0.092-0.074l0.006-0.11l0.046-0.15l0.031-0.214l0.052-0.175l0.025-0.285l0.178-0.153
			l0.037-0.141l0.077-0.135l0.126-0.055l0.135,0.021l-0.031,0.104l-0.04,0.135l0.365-0.043l0.052-0.165l0.037-0.156l0.113-0.043
			l0.058-0.086l0.038-0.214l0.069-0.172l0.239-0.233l0.116-0.113l0.227-0.089l0.058-0.141l0.104-0.221l0.11-0.199l0.098-0.193
			l0.159-0.214l0.049-0.129l0.015-0.303l-0.245-0.04l-0.178-0.055l-0.199-0.214l-0.08-0.092l-0.031-0.175l-0.193-0.233l-0.2-0.263
			l-0.306-0.355l-0.355,0.029l-0.151-0.029l-0.118-0.114l-0.333-0.043l-0.3-0.051l-0.257-0.104l-0.194-0.084l-0.216-0.159
			l-0.261-0.312l-0.161-0.198l-0.143-0.206l-0.104-0.247l-0.086-0.221l-0.018-0.823l-0.084-0.092v-0.094l0.092-0.202l0.047-0.306
			l0.059-0.282l-0.082-0.076l-0.061,0.098l-0.016,0.116h-0.131l-0.092,0.133l-0.098,0.239l-0.067,0.149l-0.098,0.102l-0.212,0.141
			l-0.098,0.098l-0.149,0.035l-0.212,0.278l-0.204,0.251l-0.1,0.114l-0.137,0.141l-0.282,0.182l-0.076,0.09l-0.039,0.219
			l-0.031,0.116l-0.151-0.018l-0.11-0.097l-0.071,0.054l-0.006,0.08l0.084,0.076l0.069,0.078l-0.037,0.041l-0.114-0.025l-0.19,0.002
			l-0.053,0.102l-0.065,0.035l-0.057,0.149l-0.314,0.071l-0.259-0.01l-0.216-0.067l-0.511-0.022l-0.527,0.022l-0.2,0.159
			l-0.165,0.024l-0.251-0.022l-0.172,0.039l-0.076-0.1l0.02-0.19l-0.059-0.139l-0.17,0.012h-0.051l-0.017-0.025l-0.057-0.069
			l-0.103,0.003l-0.098,0.012l-0.035-0.039l0.019-0.025l0.013-0.101l0.076-0.071l0.128-0.096v-0.035l-0.076-0.069l0.056-0.122
			l0.135-0.187l0.08-0.217l-0.043-0.279l-0.11-0.04l-0.031-0.245l-0.009-0.119l0.119-0.15l-0.031-0.285l-0.172-0.037l-0.095-0.224
			l-0.058-0.021l-0.248,0.101l-0.031,0.08l-0.098,0.374l-0.064,0.202l-0.121,0.061l-0.044,0.049l0.035,0.533l0.054,0.181v0.123
			l-0.054,0.083h-0.03l-0.046-0.121l-0.029-0.051l-0.029-0.047l-0.064-0.11l-0.057-0.062l-0.03-0.088l-0.029-0.101l-0.022-0.046
			l0.008-0.079l-0.012-0.074l-0.029-0.073l-0.057-0.062l-0.044-0.035l-0.032,0.024l-0.047-0.046l-0.086-0.116l-0.049-0.061
			l-0.034-0.076l0.019-0.044v-0.054l-0.062-0.062l-0.032-0.049l-0.005-0.074l-0.034-0.086l-0.037-0.066l-0.046,0.013l-0.046-0.049
			l-0.007-0.115l0.019-0.083l0.046-0.024l0.056,0.051l0.013,0.052l0.04,0.013l0.034-0.024l0.013-0.099l0.035-0.069v-0.133
			l-0.017-0.049v-0.104l-0.088,0.024l-0.052-0.037l-0.029-0.061l-0.034-0.062l-0.025-0.074l0.013-0.062l0.074-0.019v-0.047
			l-0.088-0.12l-0.049-0.039l-0.118-0.017l-0.064-0.042l-0.091-0.064l-0.086-0.061l-0.017-0.088l-0.064-0.062l-0.035-0.088
			l-0.014-0.101l-0.039-0.014l-0.03,0.098l-0.039,0.062l-0.035-0.019l-0.04-0.059l-0.054,0.046l-0.019-0.019l-0.027-0.155
			l-0.01-0.056l-0.118-0.032l-0.024-0.03l-0.034-0.037l0.002-0.047l0.086-0.035l0.064-0.039l-0.027-0.046l-0.089-0.03l-0.145-0.03
			l-0.054-0.02l-0.042-0.052l-0.051,0.024l-0.046,0.037l-0.039-0.04l-0.035-0.106l-0.059-0.027l-0.002-0.069l0.108-0.086
			l-0.058-0.076l-0.134-0.152l-0.116-0.134l-0.022-0.031l0.022-0.049v-0.054l-0.04-0.058l-0.076-0.09l-0.004-0.076l0.027-0.09
			l-0.049-0.072l-0.081-0.076l-0.324-0.608l-0.055-0.266l-0.062-0.227l-0.098-0.061l-0.141,0.113l-0.089-0.04v-0.15l0.224-0.175
			l0.092,0.031l0.116,0.015l0.15-0.159l0.064-0.178l-0.233-0.315l0,0l0.171,0.103l0.194,0.037h0.153
			c0.028-0.007,0.056-0.014,0.084-0.021l0.025-0.074l0.265-0.022l0.032-0.068l0.019-0.108l-0.015-0.056l-0.034-0.061l-0.033-0.053
			v-0.042l-0.011-0.048l0.01-0.047l0.032-0.033l0.034-0.031l0.033-0.007l0.059,0.008l0.036-0.008l0.057-0.036l0.042-0.026
			l0.018-0.023l0.031,0.016l0.029-0.008l0.02,0.06l0.026,0.047l0.005,0.039l-0.047,0.028l-0.042-0.029l-0.087-0.005l-0.113,0.007
			l-0.026,0.015l0.029,0.046l0.029,0.034l0.028,0.028l0.067,0.033l0.065,0.038l0.067,0.034l0.031,0.031l0.034,0.057l0.06,0.008
			l0.219-0.031l0.038,0.029l0.023,0.036l-0.018,0.038l-0.002,0.052l0.028,0.031l0.024,0.028l0.044-0.025l0.064-0.031l0.062-0.038
			l0.098-0.062l0.093-0.062l0.077-0.059l0.085-0.015l0.069,0.008l0.052,0.049l0.034,0.054l0.025,0.072l0.018,0.077l-0.01,0.052
			l0.01,0.051l0.028,0.036l0.031,0.062l0.039,0.054l0.029,0.044l0.041,0.062l0.047,0.065l0.056,0.062l0.059,0.056l0.069,0.069
			l0.054,0.069l0.028,0.039l0.034,0.059l0.033,0.033l0.031,0.034l0.031,0.08l0.002,0.052l0.029,0.095l-0.029,0.093l-0.013,0.051
			l0.018,0.044l0.057-0.002l0.074-0.026l0.059,0.028l0.06,0.034l0.033,0.033l0.023,0.021l0.008,0.07l-0.029,0.036l-0.049-0.007
			l-0.041,0.011l-0.02,0.044l0.013,0.067l0.039,0.054l0.036,0.038l0.083-0.015l0.052-0.01l0.018,0.046l0.025,0.075l0.007,0.052
			l0.029,0.18l0.002,0.074l0.034,0.07l0.029,0.078l0.036,0.074l0.029,0.038l0.033,0.034l0.031,0.06l0.031,0.039l0.029,0.042
			l0.005,0.049l-0.008,0.077v0.026l0.057,0.018l0.023,0.064l0.028,0.082l0.021,0.054l0.031,0.01l0.054-0.031l0.028,0.036
			l0.029,0.042l0.067,0.028l0.062,0.041l0.105-0.005l0.34,0.007l0.074,0.018l0.041,0.039l0.06,0.064l0.067,0.064l0.054,0.038
			l0.128,0.037l0.127,0.027l0.032,0.037l0.031,0.038l0.034,0.05l0.033,0.037l0.032,0.032l0.033,0.032l0.045,0.011l0.024,0.029
			l-0.01,0.031l-0.031,0.03l-0.027,0.009l-0.016,0.029l-0.011,0.024l0.061,0.029l0.032,0.035l0.058,0.036l0.035,0.03l0.033,0.034
			l0.055,0.033l0.044,0.027l0.06,0.029l0.063,0.034l0.06,0.025l0.069,0.014l0.036,0.023l0.098,0.037l0.099,0.033l0.126,0.031
			l0.074,0.028l0.045,0.039l0.007,0.058l0.014,0.029l0.038,0.058l0.027,0.032l0.034,0.031l0.043,0.023l0.038,0.034l0.03,0.027
			l0.037,0.03l0.042,0.011l0.218-0.001l0.055-0.008l0.027-0.034l0.038-0.011l0.037,0.012l0.035,0.03l0.057,0.007l0.195-0.008
			l0.054,0.012l0.014,0.037l0.026,0.038l0.004,0.036l0.038,0.027l0.102,0.011l0.066,0.024l0.025,0.029l0.041,0.036l0.019,0.042
			l0.179-0.009l0.163-0.029l0.035-0.03l0.025-0.042l0.041-0.02l0.031-0.034l0.065-0.029l0.078-0.044l0.08-0.02l0.036-0.035
			l0.031-0.06l0.071,0.001l0.181,0.03l0.109-0.066l0.027-0.127l0.025-0.037l0.04-0.027l0.034-0.028l0.034-0.034l0.031-0.003
			l0.132-0.007l0.157-0.025l0.056-0.038l0.03-0.032l0.035-0.027l0.041-0.029l0.055-0.033l0.042-0.005l0.047,0.005l0.033-0.006
			l0.067-0.031l0.069-0.029l0.046-0.026l0.064,0.025l0.16,0.02l0.271,0.028l0.021,0.048l0.031,0.071l0.03,0.058l0.088-0.004
			l0.011,0.027l-0.026,0.015l-0.005,0.049l0.035,0.047l0.035,0.058l0.027,0.066l0.046,0.066l0.016,0.068l0.033,0.114l-0.001,0.21
			l0.002,0.094l0.032,0.112l0.029,0.078l0.037,0.061l0.026,0.029l0.037,0.039l0.012,0.026l-0.014,0.036l-0.011,0.069l0.011,0.043
			l0.032,0.061l0.033,0.05v0.04l0.032,0.098l0.034,0.061l0.085,0.036l0.1,0.032l0.038,0.028l0.153-0.004l0.082-0.02l0.059,0.023
			l0.058,0.064l0.003,0.026l-0.026,0.013l0.013,0.027l0.074-0.035l0.04-0.04l0.096-0.008l0.029,0.049l0.036,0.061l0.06,0.035
			l0.033,0.029l0.048,0.009l0.054-0.027l0.117-0.015l0.034-0.025h0.06l0.264,0.026l0.12,0.005l0.174,0.033l0.061,0.033l0.034,0.027
			l0.098,0.096l0.033,0.033l0.031,0.038l0.107-0.004l0.105-0.101l0.033-0.016l0.013,0.019l0.008,0.032l0.045,0.013l0.073-0.011
			l0.066-0.026l0.094-0.011l0.037,0.04l0.059,0.032l0.04,0.034l0.059,0.007l0.218-0.025l0.016,0.045l0.045,0.019l0.159-0.015
			l0.032-0.013l0.044,0.021l0.073,0.027l0.064,0.033l0.031-0.009l0.033-0.06l0.031-0.024l0.024,0.008l0.012,0.054l0.036,0.028h0.057
			l0.031-0.029l0.024-0.038l0.027-0.044l0.046-0.019l0.025-0.025l0.041-0.005l0.063,0.036l0.028,0.037l0.013,0.146l0.057,0.008
			l0.092,0.005l0.133,0.027l0.133,0.034l0.124,0.029l0.097,0.033l0.025,0.033l0.013,0.061l0.033,0.007l0.137,0.026l0.081,0.013
			l0.061-0.015l0.039-0.031l0.013-0.041l0.035-0.068l0.065-0.013h0.065l0.068-0.621l0.07-0.096h0.129l-0.037-0.124l0.065-0.063
			l-0.063-0.131l0.105-0.388l0.174-0.087l0.198,0.102l0.107-0.34l0.514-0.159l0.553-0.035l0.065-0.573l0.094-0.057L102.8,283.3z"/>
		<polygon points="94.142,284.057 94.18,284.024 94.24,283.995 94.277,283.935 94.304,283.902 94.337,283.869 94.369,283.807 
			94.403,283.773 94.495,283.76 94.466,283.714 94.421,283.686 94.279,283.708 94.183,283.74 94.117,283.775 94.037,283.809 
			93.953,283.773 93.906,283.747 93.891,283.795 93.892,283.835 93.923,283.902 93.934,283.945 93.82,283.964 93.79,283.972 
			93.715,284.002 93.649,284.036 93.581,284.071 93.518,284.102 93.455,284.134 93.328,284.155 93.317,284.259 93.433,284.243 
			93.529,284.222 93.604,284.19 93.692,284.155 93.753,284.114 93.808,284.09 93.947,284.065 93.988,284.024 94.027,284.031 
			94.056,284.063 94.097,284.073 		"/>
		<polygon points="94.02,284.125 94.012,284.157 94.043,284.173 94.067,284.14 94.039,284.125 		"/>
		<polygon points="93.818,283.885 93.818,283.772 93.765,283.807 93.758,283.87 93.733,283.925 93.739,283.942 93.794,283.903 		"/>
		<polygon points="91.761,284.259 91.704,284.303 91.757,284.321 91.833,284.321 91.825,284.249 		"/>
		<polygon points="90.869,283.906 90.907,283.934 90.988,283.934 90.988,283.906 90.929,283.9 90.869,283.893 		"/>
		<polygon points="58.453,265.21 58.438,265.164 58.398,265.156 58.359,265.173 58.409,265.21 		"/>
		<polygon points="60.432,263.896 60.318,263.867 60.23,263.945 60.351,263.98 60.432,263.929 		"/>
		<polygon points="78.131,298.505 78.122,298.568 78.16,298.606 78.186,298.508 78.197,298.446 78.156,298.453 		"/>
		<polygon points="89.738,302.385 89.616,302.358 89.572,302.385 89.656,302.424 89.724,302.456 89.841,302.435 89.826,302.404 		
			"/>
		<polygon points="92.278,301.924 92.196,301.884 92.111,301.861 92.047,301.842 91.995,301.817 91.953,301.771 91.903,301.779 
			91.841,301.83 91.673,301.84 91.607,301.9 91.57,301.899 91.521,301.86 91.414,301.802 91.264,301.766 91.216,301.771 
			91.019,301.976 91.111,302.046 91.178,302.086 91.248,302.167 91.304,302.231 91.405,302.256 91.523,302.262 91.634,302.235 
			91.898,302.193 92.028,302.151 92.108,302.105 92.173,302.066 92.3,302.047 92.373,301.987 92.361,301.963 		"/>
		<polygon points="87.637,284.617 87.578,284.675 87.566,284.885 87.623,285.071 87.696,285.171 87.731,284.967 87.688,284.675 		
			"/>
		<polygon points="97.553,291.949 97.492,292.074 97.425,292.178 97.363,292.233 97.285,292.262 97.272,292.316 97.293,292.399 
			97.36,292.436 97.468,292.289 97.492,292.197 97.624,292.022 97.599,291.847 		"/>
	</g>
</g>
<style>
#g-verba-vignette07-coronavirus-desktop-img rect, #g-verba-vignette07-coronavirus-desktop-img circle, #g-verba-vignette07-coronavirus-desktop-img path, #g-verba-vignette07-coronavirus-desktop-img line, #g-verba-vignette07-coronavirus-desktop-img polyline { vector-effect: non-scaling-stroke; }
</style>
</svg>

