<?xml version="1.0" encoding="utf-8"?>
<!-- Generator: Adobe Illustrator 24.0.3, SVG Export Plug-In . SVG Version: 6.00 Build 0)  -->
<svg version="1.2" baseProfile="tiny" id="g-verba-vignette08-vox-mobile-img" xmlns="http://www.w3.org/2000/svg" xmlns:xlink="http://www.w3.org/1999/xlink"
	 x="0px" y="0px" viewBox="0 0 320 362.13" xml:space="preserve">
<g>
	<g transform="translate(0,130.5)">
		<line fill="none" stroke="#212529" stroke-opacity="0.12" x1="22.934" y1="29.847" x2="311.931" y2="29.847"/>
	</g>
	<g transform="translate(0,111.92857142857143)">
		<line fill="none" stroke="#212529" stroke-opacity="0.12" x1="22.934" y1="39.132" x2="311.931" y2="39.132"/>
	</g>
	<g transform="translate(0,93.35714285714286)">
		<line fill="none" stroke="#212529" stroke-opacity="0.12" x1="22.934" y1="48.418" x2="311.931" y2="48.418"/>
	</g>
	<g transform="translate(0,74.78571428571428)">
		<line fill="none" stroke="#212529" stroke-opacity="0.12" x1="22.934" y1="57.704" x2="311.931" y2="57.704"/>
	</g>
	<g transform="translate(0,56.214285714285715)">
		<line fill="none" stroke="#212529" stroke-opacity="0.12" x1="22.934" y1="66.99" x2="311.931" y2="66.99"/>
	</g>
	<g transform="translate(0,37.64285714285714)">
		<line fill="none" stroke="#212529" stroke-opacity="0.12" x1="22.934" y1="76.275" x2="311.931" y2="76.275"/>
	</g>
	<g transform="translate(0,19.071428571428577)">
		<line fill="none" stroke="#212529" stroke-opacity="0.12" x1="22.934" y1="85.561" x2="311.931" y2="85.561"/>
	</g>
	<g transform="translate(0,0.5)">
		<line fill="none" stroke="#212529" stroke-opacity="0.12" x1="22.934" y1="94.847" x2="311.931" y2="94.847"/>
	</g>
	<g>
		<rect x="22.559" y="159.147" width="0.897" height="1.85"/>
		<polygon points="23.456,160.097 24.4,160.097 24.4,160.097 		"/>
		<rect x="24.4" y="158.247" width="0.897" height="3.7"/>
		<polygon points="25.297,160.097 26.241,160.097 26.241,160.097 		"/>
		<polygon points="26.241,160.097 27.138,160.097 27.138,160.097 		"/>
		<polygon points="27.138,160.097 28.035,160.097 28.035,160.097 		"/>
		<polygon points="28.035,160.097 28.979,160.097 28.979,160.097 		"/>
		<polygon points="28.979,160.097 29.876,160.097 29.876,160.097 		"/>
		<polygon points="29.876,160.097 30.82,160.097 30.82,160.097 		"/>
		<polygon points="30.82,160.097 31.717,160.097 31.717,160.097 		"/>
		<polygon points="31.717,160.097 32.614,160.097 32.614,160.097 		"/>
		<polygon points="32.614,160.097 33.558,160.097 33.558,160.097 		"/>
		<polygon points="33.558,160.097 34.455,160.097 34.455,160.097 		"/>
		<polygon points="34.455,160.097 35.399,160.097 35.399,160.097 		"/>
		<polygon points="35.399,160.097 36.296,160.097 36.296,160.097 		"/>
		<polygon points="36.296,160.097 37.193,160.097 37.193,160.097 		"/>
		<polygon points="37.193,160.097 38.137,160.097 38.137,160.097 		"/>
		<polygon points="38.137,160.097 39.034,160.097 39.034,160.097 		"/>
		<polygon points="39.034,160.097 39.978,160.097 39.978,160.097 		"/>
		<polygon points="39.978,160.097 40.875,160.097 40.875,160.097 		"/>
		<polygon points="40.875,160.097 41.772,160.097 41.772,160.097 		"/>
		<polygon points="41.772,160.097 42.716,160.097 42.716,160.097 		"/>
		<polygon points="42.716,160.097 43.613,160.097 43.613,160.097 		"/>
		<polygon points="43.613,160.097 44.557,160.097 44.557,160.097 		"/>
		<polygon points="44.557,160.097 45.454,160.097 45.454,160.097 		"/>
		<polygon points="45.454,160.097 46.351,160.097 46.351,160.097 		"/>
		<polygon points="46.351,160.097 47.295,160.097 47.295,160.097 		"/>
		<polygon points="47.295,160.097 48.192,160.097 48.192,160.097 		"/>
		<polygon points="48.192,160.097 49.136,160.097 49.136,160.097 		"/>
		<polygon points="49.136,160.097 50.033,160.097 50.033,160.097 		"/>
		<polygon points="50.033,160.097 50.93,160.097 50.93,160.097 		"/>
		<polygon points="50.93,160.097 51.874,160.097 51.874,160.097 		"/>
		<polygon points="51.874,160.097 52.771,160.097 52.771,160.097 		"/>
		<polygon points="52.771,160.097 53.715,160.097 53.715,160.097 		"/>
		<polygon points="53.715,160.097 54.612,160.097 54.612,160.097 		"/>
		<polygon points="54.612,160.097 55.509,160.097 55.509,160.097 		"/>
		<polygon points="55.509,160.097 56.453,160.097 56.453,160.097 		"/>
		<polygon points="56.453,160.097 57.35,160.097 57.35,160.097 		"/>
		<polygon points="57.35,160.097 58.294,160.097 58.294,160.097 		"/>
		<polygon points="58.294,160.097 59.191,160.097 59.191,160.097 		"/>
		<polygon points="59.191,160.097 60.088,160.097 60.088,160.097 		"/>
		<polygon points="60.088,160.097 61.032,160.097 61.032,160.097 		"/>
		<polygon points="61.032,160.097 61.929,160.097 61.929,160.097 		"/>
		<rect x="61.929" y="158.247" width="0.897" height="3.7"/>
		<polygon points="62.873,160.097 63.77,160.097 63.77,160.097 		"/>
		<polygon points="63.77,160.097 64.667,160.097 64.667,160.097 		"/>
		<polygon points="64.667,160.097 65.611,160.097 65.611,160.097 		"/>
		<polygon points="65.611,160.097 66.508,160.097 66.508,160.097 		"/>
		<polygon points="66.508,160.097 67.452,160.097 67.452,160.097 		"/>
		<polygon points="67.452,160.097 68.349,160.097 68.349,160.097 		"/>
		<polygon points="68.349,160.097 69.246,160.097 69.246,160.097 		"/>
		<polygon points="69.246,160.097 70.19,160.097 70.19,160.097 		"/>
		<polygon points="70.19,160.097 71.087,160.097 71.087,160.097 		"/>
		<polygon points="71.087,160.097 72.031,160.097 72.031,160.097 		"/>
		<polygon points="72.031,160.097 72.928,160.097 72.928,160.097 		"/>
		<polygon points="72.928,160.097 73.825,160.097 73.825,160.097 		"/>
		<polygon points="73.825,160.097 74.769,160.097 74.769,160.097 		"/>
		<polygon points="74.769,160.097 75.666,160.097 75.666,160.097 		"/>
		<polygon points="75.666,160.097 76.61,160.097 76.61,160.097 		"/>
		<polygon points="76.61,160.097 77.507,160.097 77.507,160.097 		"/>
		<rect x="77.507" y="159.647" width="0.897" height="0.95"/>
		<polygon points="78.404,160.097 79.348,160.097 79.348,160.097 		"/>
		<polygon points="79.348,160.097 80.245,160.097 80.245,160.097 		"/>
		<polygon points="80.245,160.097 81.189,160.097 81.189,160.097 		"/>
		<polygon points="81.189,160.097 82.086,160.097 82.086,160.097 		"/>
		<polygon points="82.086,160.097 82.983,160.097 82.983,160.097 		"/>
		<polygon points="82.983,160.097 83.927,160.097 83.927,160.097 		"/>
		<polygon points="83.927,160.097 84.824,160.097 84.824,160.097 		"/>
		<polygon points="84.824,160.097 85.768,160.097 85.768,160.097 		"/>
		<polygon points="85.768,160.097 86.665,160.097 86.665,160.097 		"/>
		<polygon points="86.665,160.097 87.562,160.097 87.562,160.097 		"/>
		<polygon points="87.562,160.097 88.506,160.097 88.506,160.097 		"/>
		<polygon points="88.506,160.097 89.403,160.097 89.403,160.097 		"/>
		<polygon points="89.403,160.097 90.347,160.097 90.347,160.097 		"/>
		<polygon points="90.347,160.097 91.244,160.097 91.244,160.097 		"/>
		<polygon points="91.244,160.097 92.141,160.097 92.141,160.097 		"/>
		<polygon points="92.141,160.097 93.085,160.097 93.085,160.097 		"/>
		<polygon points="93.085,160.097 93.982,160.097 93.982,160.097 		"/>
		<polygon points="93.982,160.097 94.879,160.097 94.879,160.097 		"/>
		<polygon points="94.879,160.097 95.823,160.097 95.823,160.097 		"/>
		<polygon points="95.823,160.097 96.72,160.097 96.72,160.097 		"/>
		<polygon points="96.72,160.097 97.664,160.097 97.664,160.097 		"/>
		<polygon points="97.664,160.097 98.561,160.097 98.561,160.097 		"/>
		<polygon points="98.561,160.097 99.458,160.097 99.458,160.097 		"/>
		<rect x="99.458" y="157.797" width="0.897" height="4.65"/>
		<polygon points="100.402,160.097 101.299,160.097 101.299,160.097 		"/>
		<polygon points="101.299,160.097 102.243,160.097 102.243,160.097 		"/>
		<polygon points="102.243,160.097 103.14,160.097 103.14,160.097 		"/>
		<rect x="103.14" y="159.147" width="0.897" height="1.85"/>
		<polygon points="104.037,160.097 104.981,160.097 104.981,160.097 		"/>
		<polygon points="104.981,160.097 105.878,160.097 105.878,160.097 		"/>
		<polygon points="105.878,160.097 106.822,160.097 106.822,160.097 		"/>
		<polygon points="106.822,160.097 107.719,160.097 107.719,160.097 		"/>
		<polygon points="107.719,160.097 108.616,160.097 108.616,160.097 		"/>
		<polygon points="108.616,160.097 109.56,160.097 109.56,160.097 		"/>
		<polygon points="109.56,160.097 110.457,160.097 110.457,160.097 		"/>
		<polygon points="110.457,160.097 111.401,160.097 111.401,160.097 		"/>
		<polygon points="111.401,160.097 112.298,160.097 112.298,160.097 		"/>
		<polygon points="112.298,160.097 113.195,160.097 113.195,160.097 		"/>
		<polygon points="113.195,160.097 114.139,160.097 114.139,160.097 		"/>
		<polygon points="114.139,160.097 115.036,160.097 115.036,160.097 		"/>
		<polygon points="115.036,160.097 115.98,160.097 115.98,160.097 		"/>
		<polygon points="115.98,160.097 116.877,160.097 116.877,160.097 		"/>
		<polygon points="116.877,160.097 117.774,160.097 117.774,160.097 		"/>
		<polygon points="117.774,160.097 118.718,160.097 118.718,160.097 		"/>
		<polygon points="118.718,160.097 119.615,160.097 119.615,160.097 		"/>
		<polygon points="119.615,160.097 120.559,160.097 120.559,160.097 		"/>
		<polygon points="120.559,160.097 121.456,160.097 121.456,160.097 		"/>
		<polygon points="121.456,160.097 122.353,160.097 122.353,160.097 		"/>
		<polygon points="122.353,160.097 123.297,160.097 123.297,160.097 		"/>
		<polygon points="123.297,160.097 124.194,160.097 124.194,160.097 		"/>
		<polygon points="124.194,160.097 125.138,160.097 125.138,160.097 		"/>
		<polygon points="125.138,160.097 126.035,160.097 126.035,160.097 		"/>
		<polygon points="126.035,160.097 126.932,160.097 126.932,160.097 		"/>
		<polygon points="126.932,160.097 127.876,160.097 127.876,160.097 		"/>
		<polygon points="127.876,160.097 128.773,160.097 128.773,160.097 		"/>
		<polygon points="128.773,160.097 129.717,160.097 129.717,160.097 		"/>
		<polygon points="129.717,160.097 130.614,160.097 130.614,160.097 		"/>
		<polygon points="130.614,160.097 131.51,160.097 131.51,160.097 		"/>
		<polygon points="131.51,160.097 132.455,160.097 132.455,160.097 		"/>
		<polygon points="132.455,160.097 133.352,160.097 133.352,160.097 		"/>
		<polygon points="133.352,160.097 134.296,160.097 134.296,160.097 		"/>
		<polygon points="134.296,160.097 135.193,160.097 135.193,160.097 		"/>
		<rect x="135.193" y="159.147" width="0.897" height="1.85"/>
		<polygon points="136.089,160.097 137.034,160.097 137.034,160.097 		"/>
		<polygon points="137.034,160.097 137.93,160.097 137.93,160.097 		"/>
		<polygon points="137.93,160.097 138.875,160.097 138.875,160.097 		"/>
		<rect x="138.875" y="159.147" width="0.897" height="1.85"/>
		<polygon points="139.771,160.097 140.668,160.097 140.668,160.097 		"/>
		<polygon points="140.668,160.097 141.613,160.097 141.613,160.097 		"/>
		<polygon points="141.613,160.097 142.509,160.097 142.509,160.097 		"/>
		<polygon points="142.509,160.097 143.454,160.097 143.454,160.097 		"/>
		<polygon points="143.454,160.097 144.35,160.097 144.35,160.097 		"/>
		<polygon points="144.35,160.097 145.247,160.097 145.247,160.097 		"/>
		<polygon points="145.247,160.097 146.191,160.097 146.191,160.097 		"/>
		<polygon points="146.191,160.097 147.088,160.097 147.088,160.097 		"/>
		<polygon points="147.088,160.097 148.033,160.097 148.033,160.097 		"/>
		<polygon points="148.033,160.097 148.929,160.097 148.929,160.097 		"/>
		<polygon points="148.929,160.097 149.826,160.097 149.826,160.097 		"/>
		<polygon points="149.826,160.097 150.77,160.097 150.77,160.097 		"/>
		<polygon points="150.77,160.097 151.667,160.097 151.667,160.097 		"/>
		<polygon points="151.667,160.097 152.611,160.097 152.611,160.097 		"/>
		<polygon points="152.611,160.097 153.508,160.097 153.508,160.097 		"/>
		<polygon points="153.508,160.097 154.405,160.097 154.405,160.097 		"/>
		<polygon points="154.405,160.097 155.349,160.097 155.349,160.097 		"/>
		<polygon points="155.349,160.097 156.246,160.097 156.246,160.097 		"/>
		<polygon points="156.246,160.097 157.19,160.097 157.19,160.097 		"/>
		<polygon points="157.19,160.097 158.087,160.097 158.087,160.097 		"/>
		<rect x="158.087" y="159.647" width="0.897" height="0.95"/>
		<polygon points="158.984,160.097 159.928,160.097 159.928,160.097 		"/>
		<polygon points="159.928,160.097 160.825,160.097 160.825,160.097 		"/>
		<polygon points="160.825,160.097 161.769,160.097 161.769,160.097 		"/>
		<polygon points="161.769,160.097 162.666,160.097 162.666,160.097 		"/>
		<polygon points="162.666,160.097 163.563,160.097 163.563,160.097 		"/>
		<polygon points="163.563,160.097 164.507,160.097 164.507,160.097 		"/>
		<polygon points="164.507,160.097 165.404,160.097 165.404,160.097 		"/>
		<polygon points="165.404,160.097 166.348,160.097 166.348,160.097 		"/>
		<polygon points="166.348,160.097 167.245,160.097 167.245,160.097 		"/>
		<rect x="167.245" y="159.647" width="0.897" height="0.95"/>
		<polygon points="168.142,160.097 169.086,160.097 169.086,160.097 		"/>
		<polygon points="169.086,160.097 169.983,160.097 169.983,160.097 		"/>
		<polygon points="169.983,160.097 170.927,160.097 170.927,160.097 		"/>
		<polygon points="170.927,160.097 171.824,160.097 171.824,160.097 		"/>
		<polygon points="171.824,160.097 172.721,160.097 172.721,160.097 		"/>
		<rect x="172.721" y="159.647" width="0.897" height="0.95"/>
		<polygon points="173.665,160.097 174.562,160.097 174.562,160.097 		"/>
		<polygon points="174.562,160.097 175.506,160.097 175.506,160.097 		"/>
		<polygon points="175.506,160.097 176.403,160.097 176.403,160.097 		"/>
		<polygon points="176.403,160.097 177.3,160.097 177.3,160.097 		"/>
		<polygon points="177.3,160.097 178.244,160.097 178.244,160.097 		"/>
		<polygon points="178.244,160.097 179.141,160.097 179.141,160.097 		"/>
		<polygon points="179.141,160.097 180.085,160.097 180.085,160.097 		"/>
		<polygon points="180.085,160.097 180.982,160.097 180.982,160.097 		"/>
		<polygon points="180.982,160.097 181.879,160.097 181.879,160.097 		"/>
		<polygon points="181.879,160.097 182.823,160.097 182.823,160.097 		"/>
		<polygon points="182.823,160.097 183.72,160.097 183.72,160.097 		"/>
		<polygon points="183.72,160.097 184.664,160.097 184.664,160.097 		"/>
		<polygon points="184.664,160.097 185.561,160.097 185.561,160.097 		"/>
		<polygon points="185.561,160.097 186.458,160.097 186.458,160.097 		"/>
		<polygon points="186.458,160.097 187.402,160.097 187.402,160.097 		"/>
		<polygon points="187.402,160.097 188.299,160.097 188.299,160.097 		"/>
		<polygon points="188.299,160.097 189.243,160.097 189.243,160.097 		"/>
		<polygon points="189.243,160.097 190.14,160.097 190.14,160.097 		"/>
		<polygon points="190.14,160.097 191.037,160.097 191.037,160.097 		"/>
		<polygon points="191.037,160.097 191.981,160.097 191.981,160.097 		"/>
		<polygon points="191.981,160.097 192.878,160.097 192.878,160.097 		"/>
		<polygon points="192.878,160.097 193.822,160.097 193.822,160.097 		"/>
		<polygon points="193.822,160.097 194.719,160.097 194.719,160.097 		"/>
		<polygon points="194.719,160.097 195.616,160.097 195.616,160.097 		"/>
		<polygon points="195.616,160.097 196.56,160.097 196.56,160.097 		"/>
		<polygon points="196.56,160.097 197.457,160.097 197.457,160.097 		"/>
		<polygon points="197.457,160.097 198.401,160.097 198.401,160.097 		"/>
		<polygon points="198.401,160.097 199.298,160.097 199.298,160.097 		"/>
		<polygon points="199.298,160.097 200.195,160.097 200.195,160.097 		"/>
		<polygon points="200.195,160.097 201.139,160.097 201.139,160.097 		"/>
		<rect x="201.139" y="159.147" width="0.897" height="1.85"/>
		<polygon points="202.036,160.097 202.98,160.097 202.98,160.097 		"/>
		<polygon points="202.98,160.097 203.877,160.097 203.877,160.097 		"/>
		<polygon points="203.877,160.097 204.774,160.097 204.774,160.097 		"/>
		<polygon points="204.774,160.097 205.718,160.097 205.718,160.097 		"/>
		<polygon points="205.718,160.097 206.615,160.097 206.615,160.097 		"/>
		<polygon points="206.615,160.097 207.559,160.097 207.559,160.097 		"/>
		<rect x="207.559" y="158.697" width="0.897" height="2.8"/>
		<polygon points="208.456,160.097 209.353,160.097 209.353,160.097 		"/>
		<polygon points="209.353,160.097 210.297,160.097 210.297,160.097 		"/>
		<polygon points="210.297,160.097 211.194,160.097 211.194,160.097 		"/>
		<polygon points="211.194,160.097 212.138,160.097 212.138,160.097 		"/>
		<polygon points="212.138,160.097 213.035,160.097 213.035,160.097 		"/>
		<polygon points="213.035,160.097 213.932,160.097 213.932,160.097 		"/>
		<polygon points="213.932,160.097 214.876,160.097 214.876,160.097 		"/>
		<rect x="214.876" y="159.647" width="0.897" height="0.95"/>
		<polygon points="215.773,160.097 216.717,160.097 216.717,160.097 		"/>
		<polygon points="216.717,160.097 217.614,160.097 217.614,160.097 		"/>
		<polygon points="217.614,160.097 218.511,160.097 218.511,160.097 		"/>
		<rect x="218.511" y="159.147" width="0.897" height="1.85"/>
		<polygon points="219.455,160.097 220.352,160.097 220.352,160.097 		"/>
		<polygon points="220.352,160.097 221.296,160.097 221.296,160.097 		"/>
		<polygon points="221.296,160.097 222.193,160.097 222.193,160.097 		"/>
		<polygon points="222.193,160.097 223.09,160.097 223.09,160.097 		"/>
		<polygon points="223.09,160.097 224.034,160.097 224.034,160.097 		"/>
		<polygon points="224.034,160.097 224.931,160.097 224.931,160.097 		"/>
		<polygon points="224.931,160.097 225.875,160.097 225.875,160.097 		"/>
		<polygon points="225.875,160.097 226.772,160.097 226.772,160.097 		"/>
		<polygon points="226.772,160.097 227.669,160.097 227.669,160.097 		"/>
		<polygon points="227.669,160.097 228.613,160.097 228.613,160.097 		"/>
		<rect x="228.613" y="159.647" width="0.897" height="0.95"/>
		<polygon points="229.51,160.097 230.454,160.097 230.454,160.097 		"/>
		<polygon points="230.454,160.097 231.351,160.097 231.351,160.097 		"/>
		<polygon points="231.351,160.097 232.248,160.097 232.248,160.097 		"/>
		<polygon points="232.248,160.097 233.192,160.097 233.192,160.097 		"/>
		<polygon points="233.192,160.097 234.089,160.097 234.089,160.097 		"/>
		<polygon points="234.089,160.097 235.033,160.097 235.033,160.097 		"/>
		<polygon points="235.033,160.097 235.93,160.097 235.93,160.097 		"/>
		<polygon points="235.93,160.097 236.827,160.097 236.827,160.097 		"/>
		<polygon points="236.827,160.097 237.771,160.097 237.771,160.097 		"/>
		<polygon points="237.771,160.097 238.668,160.097 238.668,160.097 		"/>
		<polygon points="238.668,160.097 239.612,160.097 239.612,160.097 		"/>
		<polygon points="239.612,160.097 240.509,160.097 240.509,160.097 		"/>
		<polygon points="240.509,160.097 241.406,160.097 241.406,160.097 		"/>
		<polygon points="241.406,160.097 242.35,160.097 242.35,160.097 		"/>
		<polygon points="242.35,160.097 243.247,160.097 243.247,160.097 		"/>
		<polygon points="243.247,160.097 244.144,160.097 244.144,160.097 		"/>
		<polygon points="244.144,160.097 245.088,160.097 245.088,160.097 		"/>
		<polygon points="245.088,160.097 245.985,160.097 245.985,160.097 		"/>
		<polygon points="245.985,160.097 246.929,160.097 246.929,160.097 		"/>
		<rect x="246.929" y="159.647" width="0.897" height="0.95"/>
		<rect x="247.826" y="156.847" width="0.897" height="6.5"/>
		<rect x="248.723" y="153.597" width="0.897" height="13"/>
		<rect x="249.667" y="159.147" width="0.897" height="1.85"/>
		<rect x="250.564" y="159.147" width="0.897" height="1.85"/>
		<rect x="251.508" y="154.547" width="0.897" height="11.15"/>
		<rect x="252.405" y="155.897" width="0.897" height="8.35"/>
		<rect x="253.302" y="157.797" width="0.897" height="4.65"/>
		<rect x="254.246" y="158.697" width="0.897" height="2.8"/>
		<rect x="255.143" y="148.947" width="0.897" height="22.3"/>
		<rect x="256.087" y="123.397" width="0.897" height="73.35"/>
		<rect x="256.984" y="150.797" width="0.897" height="18.55"/>
		<rect x="257.881" y="156.847" width="0.897" height="6.5"/>
		<rect x="258.825" y="129.447" width="0.897" height="61.3"/>
		<rect x="259.722" y="124.797" width="0.897" height="70.55"/>
		<rect x="260.666" y="98.797" width="0.897" height="122.55"/>
		<rect x="261.563" y="122.497" width="0.897" height="75.2"/>
		<rect x="262.46" y="154.047" width="0.897" height="12.05"/>
		<rect x="263.404" y="155.897" width="0.897" height="8.35"/>
		<rect x="264.301" y="145.247" width="0.897" height="29.7"/>
		<rect x="265.245" y="150.797" width="0.897" height="18.55"/>
		<rect x="266.142" y="142.447" width="0.897" height="35.3"/>
		<rect x="267.039" y="148.497" width="0.897" height="23.2"/>
		<rect x="267.983" y="145.247" width="0.897" height="29.7"/>
		<rect x="268.88" y="152.197" width="0.897" height="15.8"/>
		<rect x="269.824" y="151.747" width="0.897" height="16.7"/>
		<rect x="270.721" y="149.397" width="0.897" height="21.35"/>
		<rect x="271.617" y="154.547" width="0.897" height="11.15"/>
		<rect x="272.562" y="145.697" width="0.897" height="28.8"/>
		<rect x="273.459" y="148.497" width="0.897" height="23.2"/>
		<rect x="274.403" y="149.397" width="0.897" height="21.35"/>
		<rect x="275.3" y="128.047" width="0.897" height="64.05"/>
		<rect x="276.196" y="155.447" width="0.897" height="9.3"/>
		<rect x="277.141" y="151.297" width="0.897" height="17.65"/>
		<rect x="278.037" y="140.597" width="0.897" height="39"/>
		<rect x="278.982" y="118.297" width="0.897" height="83.55"/>
		<rect x="279.879" y="130.847" width="0.897" height="58.5"/>
		<rect x="280.775" y="98.797" width="0.897" height="122.55"/>
		<rect x="281.72" y="132.247" width="0.897" height="55.7"/>
		<rect x="282.616" y="127.147" width="0.897" height="65.95"/>
		<rect x="283.561" y="117.397" width="0.897" height="85.45"/>
		<rect x="284.457" y="129.897" width="0.897" height="60.35"/>
		<rect x="285.354" y="143.847" width="0.897" height="32.5"/>
		<rect x="286.299" y="148.047" width="0.897" height="24.15"/>
		<rect x="287.195" y="151.297" width="0.897" height="17.65"/>
		<rect x="288.14" y="156.847" width="0.897" height="6.5"/>
		<rect x="289.036" y="142.897" width="0.897" height="34.35"/>
		<rect x="289.933" y="157.797" width="0.897" height="4.65"/>
		<rect x="290.878" y="154.997" width="0.897" height="10.2"/>
		<rect x="291.774" y="156.847" width="0.897" height="6.5"/>
		<rect x="292.719" y="152.647" width="0.897" height="14.85"/>
		<rect x="293.615" y="151.747" width="0.897" height="16.7"/>
		<rect x="294.512" y="155.897" width="0.897" height="8.35"/>
		<rect x="295.456" y="144.297" width="0.897" height="31.55"/>
		<rect x="296.353" y="149.397" width="0.897" height="21.35"/>
		<rect x="297.297" y="152.197" width="0.897" height="15.8"/>
		<rect x="298.194" y="140.597" width="0.897" height="39"/>
		<rect x="299.091" y="141.997" width="0.897" height="36.2"/>
		<rect x="300.035" y="144.797" width="0.897" height="30.65"/>
		<rect x="300.932" y="141.047" width="0.897" height="38.05"/>
		<rect x="301.876" y="149.897" width="0.897" height="20.45"/>
		<rect x="302.773" y="140.597" width="0.897" height="39"/>
		<rect x="303.67" y="120.647" width="0.897" height="78.95"/>
		<rect x="304.614" y="151.747" width="0.897" height="16.7"/>
		<rect x="305.511" y="157.297" width="0.897" height="5.55"/>
		<rect x="306.455" y="146.147" width="0.897" height="27.85"/>
		<rect x="307.352" y="141.547" width="0.897" height="37.15"/>
		<rect x="308.249" y="144.797" width="0.897" height="30.65"/>
		<rect x="309.193" y="135.497" width="0.897" height="49.2"/>
		<rect x="310.09" y="141.547" width="0.897" height="37.15"/>
		<rect x="311.034" y="150.797" width="0.897" height="18.55"/>
	</g>
	
		<line style="opacity:0.8;" fill="none" stroke="#000000" stroke-miterlimit="10" x1="0" y1="20.001" x2="320" y2="20.001"/>
	
		<line style="opacity:0.8;" fill="none" stroke="#000000" stroke-miterlimit="10" x1="0" y1="342.129" x2="320" y2="342.129"/>
	<g>
		<path fill="none" stroke="#000000" stroke-miterlimit="10" d="M24.989,177.976c-0.011,15.504,0.003,15.119,0.003,25.074"/>
		<g>
			<path d="M24.992,173.447c-0.791,2.13-2.14,4.772-3.569,6.409l3.567-1.289l3.566,1.291
				C27.128,178.22,25.781,175.577,24.992,173.447z"/>
		</g>
	</g>
	<g>
		<path fill="none" stroke="#000000" stroke-miterlimit="10" d="M251.732,179.722c0.06,24.325,0.326,34.715-3.262,35.088"/>
		<g>
			<path d="M251.724,175.19c-0.786,2.131-2.129,4.777-3.554,6.418l3.564-1.297l3.569,1.283
				C253.872,179.958,252.518,177.319,251.724,175.19z"/>
		</g>
	</g>
	<g>
		<path fill="none" stroke="#000000" stroke-miterlimit="10" d="M247.783,141.822c0.255-32.318,2.085-56.18-7.377-61.314"/>
		<g>
			<path d="M247.759,146.348c0.815-2.121,2.194-4.747,3.641-6.369l-3.582,1.249l-3.551-1.331
				C245.677,141.551,246.994,144.209,247.759,146.348z"/>
		</g>
	</g>
</g>
<style>
#g-verba-vignette08-vox-mobile-img rect, #g-verba-vignette08-vox-mobile-img circle, #g-verba-vignette08-vox-mobile-img path, #g-verba-vignette08-vox-mobile-img line, #g-verba-vignette08-vox-mobile-img polyline { vector-effect: non-scaling-stroke; }
</style>
</svg>

