<?xml version="1.0" encoding="utf-8"?>
<!-- Generator: Adobe Illustrator 21.0.0, SVG Export Plug-In . SVG Version: 6.00 Build 0)  -->
<svg version="1.2" baseProfile="tiny" id="g-verba-tema03-query01-dieta-desktop-img" xmlns="http://www.w3.org/2000/svg" xmlns:xlink="http://www.w3.org/1999/xlink"
	 x="0px" y="0px" viewBox="0 0 673 474" overflow="scroll" xml:space="preserve">
<g>
	<g transform="translate(30, 260)">
		<path display="none" fill="none" stroke="#212529" d="M0.5,149.5h611.078"/>
		<g transform="translate(2.9592289894014034,0)">
			<line display="none" fill="none" stroke="#212529" x1="0" y1="-111" x2="0" y2="149"/>
			
		</g>
		<g transform="translate(27.654463352739214,0)">
			<line display="none" fill="none" stroke="#212529" x1="0" y1="-111" x2="0" y2="149"/>
			
		</g>
		<g transform="translate(52.63565457530975,0)">
			<line display="none" fill="none" stroke="#212529" x1="0" y1="-111" x2="0" y2="149"/>
			
		</g>
		<g transform="translate(77.8913643827437,0)">
			<line display="none" fill="none" stroke="#212529" x1="0" y1="-111" x2="0" y2="149"/>
			
		</g>
		<g transform="translate(103.15851246454696,0)">
			<line display="none" fill="none" stroke="#212529" x1="0" y1="-111" x2="0" y2="149"/>
			
		</g>
		<g transform="translate(127.85374682788478,0)">
			<line display="none" fill="none" stroke="#212529" x1="0" y1="-111" x2="0" y2="149"/>
			
		</g>
		<g transform="translate(152.8349380504553,0)">
			<line display="none" fill="none" stroke="#212529" x1="0" y1="-111" x2="0" y2="149"/>
			
		</g>
		<g transform="translate(178.09064785788925,0)">
			<line display="none" fill="none" stroke="#212529" x1="0" y1="-111" x2="0" y2="149"/>
			
		</g>
		<g transform="translate(203.3577959396925,0)">
			<line display="none" fill="none" stroke="#212529" x1="0" y1="-111" x2="0" y2="149"/>
			
		</g>
		<g transform="translate(228.32754888789373,0)">
			<line display="none" fill="none" stroke="#212529" x1="0" y1="-111" x2="0" y2="149"/>
			
		</g>
		<g transform="translate(253.30874011046424,0)">
			<line display="none" fill="none" stroke="#212529" x1="0" y1="-111" x2="0" y2="149"/>
			
		</g>
		<g transform="translate(278.5644499178982,0)">
			<line display="none" fill="none" stroke="#212529" x1="0" y1="-111" x2="0" y2="149"/>
			
		</g>
		<g transform="translate(303.83159799970144,0)">
			<line display="none" fill="none" stroke="#212529" x1="0" y1="-111" x2="0" y2="149"/>
			
		</g>
		<g transform="translate(328.52683236303926,0)">
			<line display="none" fill="none" stroke="#212529" x1="0" y1="-111" x2="0" y2="149"/>
			
		</g>
		<g transform="translate(353.5080235856098,0)">
			<line display="none" fill="none" stroke="#212529" x1="0" y1="-111" x2="0" y2="149"/>
			
		</g>
		<g transform="translate(378.76373339304376,0)">
			<line display="none" fill="none" stroke="#212529" x1="0" y1="-111" x2="0" y2="149"/>
			
		</g>
		<g transform="translate(404.03088147484704,0)">
			<line display="none" fill="none" stroke="#212529" x1="0" y1="-111" x2="0" y2="149"/>
			
		</g>
		<g transform="translate(428.7261158381848,0)">
			<line display="none" fill="none" stroke="#212529" x1="0" y1="-111" x2="0" y2="149"/>
			
		</g>
		<g transform="translate(453.70730706075534,0)">
			<line display="none" fill="none" stroke="#212529" x1="0" y1="-111" x2="0" y2="149"/>
			
		</g>
		<g transform="translate(478.96301686818936,0)">
			<line display="none" fill="none" stroke="#212529" x1="0" y1="-111" x2="0" y2="149"/>
			
		</g>
		<g transform="translate(504.23016494999257,0)">
			<line display="none" fill="none" stroke="#212529" x1="0" y1="-111" x2="0" y2="149"/>
			
		</g>
		<g transform="translate(528.9253993133304,0)">
			<line display="none" fill="none" stroke="#212529" x1="0" y1="-111" x2="0" y2="149"/>
			
		</g>
		<g transform="translate(553.9065905359009,0)">
			<line display="none" fill="none" stroke="#212529" x1="0" y1="-111" x2="0" y2="149"/>
			
		</g>
		<g transform="translate(579.1623003433348,0)">
			<line display="none" fill="none" stroke="#212529" x1="0" y1="-111" x2="0" y2="149"/>
			
		</g>
		<g transform="translate(604.429448425138,0)">
			<line display="none" fill="none" stroke="#212529" x1="0" y1="-111" x2="0" y2="149"/>
			
		</g>
	</g>
	<g transform="translate(30, 275)">
		<path display="none" fill="none" stroke="#212529" d="M0.5,149.5h611.078"/>
		<g transform="translate(2.9592289894014034,0)">
			<line display="none" fill="none" stroke="#212529" x1="0" y1="-111" x2="0" y2="149"/>
			
				<text transform="matrix(1 0 0 1 -11.123 165.1)" display="none" fill="#212529" font-family="'ElMessiri-Bold'" font-size="10px">2014</text>
		</g>
		<g transform="translate(103.15851246454696,0)">
			<line display="none" fill="none" stroke="#212529" x1="0" y1="-111" x2="0" y2="149"/>
			
				<text transform="matrix(1 0 0 1 -11.1231 165.1)" display="none" fill="#212529" font-family="'ElMessiri-Bold'" font-size="10px">2015</text>
		</g>
		<g transform="translate(203.3577959396925,0)">
			<line display="none" fill="none" stroke="#212529" x1="0" y1="-111" x2="0" y2="149"/>
			
				<text transform="matrix(1 0 0 1 -11.1231 165.1)" display="none" fill="#212529" font-family="'ElMessiri-Bold'" font-size="10px">2016</text>
		</g>
		<g transform="translate(303.83159799970144,0)">
			<line display="none" fill="none" stroke="#212529" x1="0" y1="-111" x2="0" y2="149"/>
			
				<text transform="matrix(1 0 0 1 -11.123 165.1)" display="none" fill="#212529" font-family="'ElMessiri-Bold'" font-size="10px">2017</text>
		</g>
		<g transform="translate(404.03088147484704,0)">
			<line display="none" fill="none" stroke="#212529" x1="0" y1="-111" x2="0" y2="149"/>
			
				<text transform="matrix(1 0 0 1 -11.123 165.1)" display="none" fill="#212529" font-family="'ElMessiri-Bold'" font-size="10px">2018</text>
		</g>
		<g transform="translate(504.23016494999257,0)">
			<line display="none" fill="none" stroke="#212529" x1="0" y1="-111" x2="0" y2="149"/>
			
				<text transform="matrix(1 0 0 1 -11.123 165.1)" display="none" fill="#212529" font-family="'ElMessiri-Bold'" font-size="10px">2019</text>
		</g>
		<g transform="translate(604.429448425138,0)">
			<line display="none" fill="none" stroke="#212529" x1="0" y1="-111" x2="0" y2="149"/>
			
				<text transform="matrix(1 0 0 1 -11.123 165.1)" display="none" fill="#212529" font-family="'ElMessiri-Bold'" font-size="10px">2020</text>
		</g>
	</g>
	<g transform="translate(30, 0)">
		<path display="none" fill="none" stroke="#212529" d="M-6,219.5h6.5v-130H-6"/>
		<g transform="translate(0,130.5)">
			<line fill="none" stroke="#212529" stroke-opacity="0.12" x1="0" y1="89" x2="613" y2="89"/>
			
		</g>
		<g transform="translate(0,108.83333333333334)">
			<line fill="none" stroke="#212529" stroke-opacity="0.12" x1="0" y1="89" x2="613" y2="89"/>
			
		</g>
		<g transform="translate(0,87.16666666666667)">
			<line fill="none" stroke="#212529" stroke-opacity="0.12" x1="0" y1="89" x2="613" y2="89"/>
			
		</g>
		<g transform="translate(0,65.5)">
			<line fill="none" stroke="#212529" stroke-opacity="0.12" x1="0" y1="89" x2="613" y2="89"/>
			
		</g>
		<g transform="translate(0,43.83333333333334)">
			<line fill="none" stroke="#212529" stroke-opacity="0.12" x1="0" y1="89" x2="613" y2="89"/>
			
		</g>
		<g transform="translate(0,22.166666666666657)">
			<line fill="none" stroke="#212529" stroke-opacity="0.12" x1="0" y1="89" x2="613" y2="89"/>
			
		</g>
		<g transform="translate(0,0.5)">
			<line fill="none" stroke="#212529" stroke-opacity="0.12" x1="0" y1="89" x2="613" y2="89"/>
			
		</g>
	</g>
	<g>
		<g>
			<path fill="none" stroke="#000000" stroke-miterlimit="10" d="M197,74.5c-16.3,4-33.4,25.2-42.7,43c-7.2,14-10.8,31.4-10.2,48.1"
				/>
			<g>
				<path d="M144.1,169.1c-0.5-1.4-1.5-3.1-2.4-4.3l2.4,0.9l2.3-0.9C145.6,165.8,144.7,167.6,144.1,169.1z"/>
			</g>
		</g>
	</g>
	<g>
		<g>
			<path fill="none" stroke="#000000" stroke-miterlimit="10" d="M265.3,278.17c-0.325,7.802,1.626,15.931,5.529,22.472
				c5.041,8.316,13.064,14.156,21.9,16.025"/>
			<g>
				<path d="M267.629,278.697l-2.3-0.592l-2.4,0.592c0.9-0.79,1.9-1.909,2.4-2.83C265.929,276.854,266.829,278.038,267.629,278.697z
					"/>
			</g>
		</g>
	</g>
	<path d="M224.5,73.8L224.5,73.8l-2.4-4.2v-0.1c-1.1-4.1-4.4-9.5-9.3-12.2l-0.3-0.2l0.1-0.4c0.3-1,1-1.6,1.6-2l0,0
		c0.5-0.4-0.1-0.7-0.1-0.7c-0.7-0.1-1.3-0.2-2-0.2c-2.6,0-4.4,1.1-5.2,1.8l-0.1,0.1h-0.2c-0.5,0-1.1,0.1-1.6,0.1
		c-8.7,1.3-8.9,7.7-8.9,7.7v0.2L196,64c-1.7,1.6-1.9,2.1-1.9,2.2c0,0,0.2,0.1,0.5,0.1c1.5,0,4.5-1.1,4.5-1.1
		c1.9-0.7,3.9-1.1,5.8-1.2c-0.3-0.3-0.5-0.6-0.7-0.8c-0.1-0.1-0.1-0.3,0.1-0.4c0.4-0.3,0.8,0.1,0.8,0.1c0.3,0.4,0.7,0.8,1,1.1l0,0
		l0.1,0.2c2,2,2.7,2.2,2.8,2.2l0,0l0,0c0,0,0,0,0.1-0.1c0.1-0.3,0.1-1-0.5-2.7l0,0v-0.1c0-0.1-0.1-0.1-0.1-0.2s0-0.3,0.3-0.4
		c0.5-0.1,0.6,0.3,0.6,0.3c0.1,0.5,0.3,0.9,0.4,1.3c6.1,1.2,10,4.7,10.1,4.9l0.1,0.1v0.1c0.5,1.6,0,3.3-0.5,4.5l0,0
		c0,0-0.3,0.6,0.3,0.5l0,0l0,0c0.6-0.1,1.3-0.3,1.8-0.7l0.1-0.1c0,0,0.1-0.1,0.3,0l0.1,0.1c0.6,0.3,1.3,0.6,2,0.9h0.1h0.1
		C225,74.7,224.6,74,224.5,73.8L224.5,73.8z M199,62.2c-0.4,0-0.7-0.3-0.7-0.7c0-0.4,0.3-0.7,0.7-0.7s0.7,0.3,0.7,0.7
		C199.7,61.9,199.4,62.2,199,62.2z"/>
	
		<line style="opacity:0.8;" fill="none" stroke="#000000" stroke-miterlimit="10" x1="20" y1="454" x2="653" y2="454"/>
	
		<line style="opacity:0.8;" fill="none" stroke="#000000" stroke-miterlimit="10" x1="19.5" y1="20.3" x2="653" y2="20.3"/>
	<g>
		<rect x="30" y="197.833" width="1.922" height="43.333"/>
		<rect x="31.922" y="176.167" width="1.922" height="86.667"/>
		<rect x="33.843" y="197.833" width="1.922" height="43.333"/>
		<rect x="35.765" y="197.833" width="1.922" height="43.333"/>
		<polygon points="37.687,219.5 39.608,219.5 39.608,219.5 		"/>
		<rect x="39.608" y="111.167" width="1.922" height="216.667"/>
		<rect x="41.53" y="208.667" width="1.922" height="21.667"/>
		<rect x="43.451" y="143.667" width="1.922" height="151.667"/>
		<rect x="45.373" y="208.667" width="1.922" height="21.667"/>
		<polygon points="47.295,219.5 49.216,219.5 49.216,219.5 		"/>
		<rect x="49.216" y="208.667" width="1.922" height="21.667"/>
		<rect x="51.138" y="154.5" width="1.922" height="130"/>
		<rect x="53.06" y="208.667" width="1.922" height="21.667"/>
		<rect x="54.981" y="197.833" width="1.922" height="43.333"/>
		<rect x="56.903" y="208.667" width="1.922" height="21.667"/>
		<rect x="58.824" y="176.167" width="1.922" height="86.667"/>
		<rect x="60.746" y="208.667" width="1.922" height="21.667"/>
		<rect x="62.668" y="197.833" width="1.922" height="43.333"/>
		<rect x="64.589" y="208.667" width="1.922" height="21.667"/>
		<polygon points="66.511,219.5 68.433,219.5 68.433,219.5 		"/>
		<rect x="68.433" y="208.667" width="1.922" height="21.667"/>
		<rect x="70.354" y="208.667" width="1.922" height="21.667"/>
		<rect x="72.276" y="187" width="1.922" height="65"/>
		<rect x="74.197" y="165.333" width="1.922" height="108.333"/>
		<rect x="76.119" y="208.667" width="1.922" height="21.667"/>
		<polygon points="78.041,219.5 79.962,219.5 79.962,219.5 		"/>
		<polygon points="79.962,219.5 81.884,219.5 81.884,219.5 		"/>
		<rect x="81.884" y="208.667" width="1.922" height="21.667"/>
		<rect x="83.806" y="208.667" width="1.922" height="21.667"/>
		<polygon points="85.727,219.5 87.649,219.5 87.649,219.5 		"/>
		<polygon points="87.649,219.5 89.571,219.5 89.571,219.5 		"/>
		<rect x="89.571" y="208.667" width="1.922" height="21.667"/>
		<polygon points="91.492,219.5 93.414,219.5 93.414,219.5 		"/>
		<polygon points="93.414,219.5 95.335,219.5 95.335,219.5 		"/>
		<rect x="95.335" y="197.833" width="1.922" height="43.333"/>
		<polygon points="97.257,219.5 99.179,219.5 99.179,219.5 		"/>
		<rect x="99.179" y="89.5" width="1.922" height="260"/>
		<polygon points="101.1,219.5 103.022,219.5 103.022,219.5 		"/>
		<rect x="103.022" y="197.833" width="1.922" height="43.333"/>
		<polygon points="104.944,219.5 106.865,219.5 106.865,219.5 		"/>
		<polygon points="106.865,219.5 108.787,219.5 108.787,219.5 		"/>
		<polygon points="108.787,219.5 110.708,219.5 110.708,219.5 		"/>
		<polygon points="110.708,219.5 112.63,219.5 112.63,219.5 		"/>
		<rect x="112.63" y="197.833" width="1.922" height="43.333"/>
		<rect x="114.552" y="208.667" width="1.922" height="21.667"/>
		<polygon points="116.473,219.5 118.395,219.5 118.395,219.5 		"/>
		<rect x="118.395" y="197.833" width="1.922" height="43.333"/>
		<rect x="120.317" y="197.833" width="1.922" height="43.333"/>
		<rect x="122.238" y="197.833" width="1.922" height="43.333"/>
		<polygon points="124.16,219.5 126.082,219.5 126.082,219.5 		"/>
		<polygon points="126.082,219.5 128.003,219.5 128.003,219.5 		"/>
		<polygon points="128.003,219.5 129.925,219.5 129.925,219.5 		"/>
		<rect x="129.925" y="208.667" width="1.922" height="21.667"/>
		<rect x="131.846" y="197.833" width="1.922" height="43.333"/>
		<rect x="133.768" y="197.833" width="1.922" height="43.333"/>
		<rect x="135.69" y="208.667" width="1.922" height="21.667"/>
		<polygon points="137.611,219.5 139.533,219.5 139.533,219.5 		"/>
		<polygon points="139.533,219.5 141.455,219.5 141.455,219.5 		"/>
		<polygon points="141.455,219.5 143.376,219.5 143.376,219.5 		"/>
		<rect x="143.376" y="208.667" width="1.922" height="21.667"/>
		<rect x="145.298" y="208.667" width="1.922" height="21.667"/>
		<rect x="147.219" y="197.833" width="1.922" height="43.333"/>
		<rect x="149.141" y="197.833" width="1.922" height="43.333"/>
		<rect x="151.063" y="208.667" width="1.922" height="21.667"/>
		<polygon points="152.984,219.5 154.906,219.5 154.906,219.5 		"/>
		<rect x="154.906" y="208.667" width="1.922" height="21.667"/>
		<rect x="156.828" y="208.667" width="1.922" height="21.667"/>
		<rect x="158.749" y="208.667" width="1.922" height="21.667"/>
		<rect x="160.671" y="208.667" width="1.922" height="21.667"/>
		<rect x="162.592" y="208.667" width="1.922" height="21.667"/>
		<rect x="164.514" y="208.667" width="1.922" height="21.667"/>
		<rect x="166.436" y="208.667" width="1.922" height="21.667"/>
		<rect x="168.357" y="176.167" width="1.922" height="86.667"/>
		<rect x="170.279" y="176.167" width="1.922" height="86.667"/>
		<polygon points="172.201,219.5 174.122,219.5 174.122,219.5 		"/>
		<rect x="174.122" y="208.667" width="1.922" height="21.667"/>
		<rect x="176.044" y="208.667" width="1.922" height="21.667"/>
		<rect x="177.966" y="165.333" width="1.922" height="108.333"/>
		<polygon points="179.887,219.5 181.809,219.5 181.809,219.5 		"/>
		<polygon points="181.809,219.5 183.73,219.5 183.73,219.5 		"/>
		<polygon points="183.73,219.5 185.652,219.5 185.652,219.5 		"/>
		<polygon points="185.652,219.5 187.574,219.5 187.574,219.5 		"/>
		<polygon points="187.574,219.5 189.495,219.5 189.495,219.5 		"/>
		<rect x="189.495" y="197.833" width="1.922" height="43.333"/>
		<polygon points="191.417,219.5 193.339,219.5 193.339,219.5 		"/>
		<rect x="193.339" y="187" width="1.922" height="65"/>
		<polygon points="195.26,219.5 197.182,219.5 197.182,219.5 		"/>
		<rect x="197.182" y="187" width="1.922" height="65"/>
		<polygon points="199.103,219.5 201.025,219.5 201.025,219.5 		"/>
		<rect x="201.025" y="208.667" width="1.922" height="21.667"/>
		<rect x="202.947" y="165.333" width="1.922" height="108.333"/>
		<rect x="204.868" y="111.167" width="1.922" height="216.667"/>
		<rect x="206.79" y="208.667" width="1.922" height="21.667"/>
		<rect x="208.712" y="208.667" width="1.922" height="21.667"/>
		<rect x="210.633" y="187" width="1.922" height="65"/>
		<rect x="212.555" y="208.667" width="1.922" height="21.667"/>
		<rect x="214.476" y="176.167" width="1.922" height="86.667"/>
		<rect x="216.398" y="208.667" width="1.922" height="21.667"/>
		<polygon points="218.32,219.5 220.241,219.5 220.241,219.5 		"/>
		<polygon points="220.241,219.5 222.163,219.5 222.163,219.5 		"/>
		<polygon points="222.163,219.5 224.085,219.5 224.085,219.5 		"/>
		<polygon points="224.085,219.5 226.006,219.5 226.006,219.5 		"/>
		<rect x="226.006" y="197.833" width="1.922" height="43.333"/>
		<polygon points="227.928,219.5 229.85,219.5 229.85,219.5 		"/>
		<polygon points="229.85,219.5 231.771,219.5 231.771,219.5 		"/>
		<polygon points="231.771,219.5 233.693,219.5 233.693,219.5 		"/>
		<rect x="233.693" y="197.833" width="1.922" height="43.333"/>
		<polygon points="235.614,219.5 237.536,219.5 237.536,219.5 		"/>
		<rect x="237.536" y="208.667" width="1.922" height="21.667"/>
		<rect x="239.458" y="197.833" width="1.922" height="43.333"/>
		<polygon points="241.379,219.5 243.301,219.5 243.301,219.5 		"/>
		<rect x="243.301" y="208.667" width="1.922" height="21.667"/>
		<polygon points="245.223,219.5 247.144,219.5 247.144,219.5 		"/>
		<polygon points="247.144,219.5 249.066,219.5 249.066,219.5 		"/>
		<polygon points="249.066,219.5 250.987,219.5 250.987,219.5 		"/>
		<polygon points="250.987,219.5 252.909,219.5 252.909,219.5 		"/>
		<polygon points="252.909,219.5 254.831,219.5 254.831,219.5 		"/>
		<polygon points="254.831,219.5 256.752,219.5 256.752,219.5 		"/>
		<polygon points="256.752,219.5 258.674,219.5 258.674,219.5 		"/>
		<rect x="258.674" y="187" width="1.922" height="65"/>
		<rect x="260.596" y="208.667" width="1.922" height="21.667"/>
		<polygon points="262.517,219.5 264.439,219.5 264.439,219.5 		"/>
		<rect x="264.439" y="187" width="1.922" height="65"/>
		<polygon points="266.361,219.5 268.282,219.5 268.282,219.5 		"/>
		<polygon points="268.282,219.5 270.204,219.5 270.204,219.5 		"/>
		<rect x="270.204" y="176.167" width="1.922" height="86.667"/>
		<polygon points="272.125,219.5 274.047,219.5 274.047,219.5 		"/>
		<rect x="274.047" y="197.833" width="1.922" height="43.333"/>
		<rect x="275.969" y="197.833" width="1.922" height="43.333"/>
		<polygon points="277.89,219.5 279.812,219.5 279.812,219.5 		"/>
		<rect x="279.812" y="176.167" width="1.922" height="86.667"/>
		<rect x="281.734" y="197.833" width="1.922" height="43.333"/>
		<rect x="283.655" y="208.667" width="1.922" height="21.667"/>
		<rect x="285.577" y="208.667" width="1.922" height="21.667"/>
		<polygon points="287.498,219.5 289.42,219.5 289.42,219.5 		"/>
		<polygon points="289.42,219.5 291.342,219.5 291.342,219.5 		"/>
		<polygon points="291.342,219.5 293.263,219.5 293.263,219.5 		"/>
		<rect x="293.263" y="208.667" width="1.922" height="21.667"/>
		<polygon points="295.185,219.5 297.107,219.5 297.107,219.5 		"/>
		<rect x="297.107" y="165.333" width="1.922" height="108.333"/>
		<rect x="299.028" y="197.833" width="1.922" height="43.333"/>
		<rect x="300.95" y="208.667" width="1.922" height="21.667"/>
		<rect x="302.871" y="176.167" width="1.922" height="86.667"/>
		<rect x="304.793" y="197.833" width="1.922" height="43.333"/>
		<rect x="306.715" y="187" width="1.922" height="65"/>
		<polygon points="308.636,219.5 310.558,219.5 310.558,219.5 		"/>
		<rect x="310.558" y="187" width="1.922" height="65"/>
		<rect x="312.48" y="208.667" width="1.922" height="21.667"/>
		<polygon points="314.401,219.5 316.323,219.5 316.323,219.5 		"/>
		<polygon points="316.323,219.5 318.245,219.5 318.245,219.5 		"/>
		<polygon points="318.245,219.5 320.166,219.5 320.166,219.5 		"/>
		<polygon points="320.166,219.5 322.088,219.5 322.088,219.5 		"/>
		<polygon points="322.088,219.5 324.009,219.5 324.009,219.5 		"/>
		<polygon points="324.009,219.5 325.931,219.5 325.931,219.5 		"/>
		<rect x="325.931" y="197.833" width="1.922" height="43.333"/>
		<polygon points="327.853,219.5 329.774,219.5 329.774,219.5 		"/>
		<rect x="329.774" y="208.667" width="1.922" height="21.667"/>
		<rect x="331.696" y="197.833" width="1.922" height="43.333"/>
		<polygon points="333.618,219.5 335.539,219.5 335.539,219.5 		"/>
		<rect x="335.539" y="165.333" width="1.922" height="108.333"/>
		<polygon points="337.461,219.5 339.382,219.5 339.382,219.5 		"/>
		<rect x="339.382" y="208.667" width="1.922" height="21.667"/>
		<rect x="341.304" y="187" width="1.922" height="65"/>
		<rect x="343.226" y="197.833" width="1.922" height="43.333"/>
		<rect x="345.147" y="208.667" width="1.922" height="21.667"/>
		<rect x="347.069" y="197.833" width="1.922" height="43.333"/>
		<rect x="348.991" y="208.667" width="1.922" height="21.667"/>
		<rect x="350.912" y="208.667" width="1.922" height="21.667"/>
		<rect x="352.834" y="208.667" width="1.922" height="21.667"/>
		<polygon points="354.755,219.5 356.677,219.5 356.677,219.5 		"/>
		<rect x="356.677" y="208.667" width="1.922" height="21.667"/>
		<polygon points="358.599,219.5 360.52,219.5 360.52,219.5 		"/>
		<rect x="360.52" y="197.833" width="1.922" height="43.333"/>
		<polygon points="362.442,219.5 364.364,219.5 364.364,219.5 		"/>
		<polygon points="364.364,219.5 366.285,219.5 366.285,219.5 		"/>
		<polygon points="366.285,219.5 368.207,219.5 368.207,219.5 		"/>
		<rect x="368.207" y="176.167" width="1.922" height="86.667"/>
		<polygon points="370.129,219.5 372.05,219.5 372.05,219.5 		"/>
		<rect x="372.05" y="187" width="1.922" height="65"/>
		<rect x="373.972" y="143.667" width="1.922" height="151.667"/>
		<polygon points="375.893,219.5 377.815,219.5 377.815,219.5 		"/>
		<polygon points="377.815,219.5 379.737,219.5 379.737,219.5 		"/>
		<polygon points="379.737,219.5 381.658,219.5 381.658,219.5 		"/>
		<polygon points="381.658,219.5 383.58,219.5 383.58,219.5 		"/>
		<rect x="383.58" y="197.833" width="1.922" height="43.333"/>
		<rect x="385.502" y="197.833" width="1.922" height="43.333"/>
		<rect x="387.423" y="197.833" width="1.922" height="43.333"/>
		<polygon points="389.345,219.5 391.266,219.5 391.266,219.5 		"/>
		<polygon points="391.266,219.5 393.188,219.5 393.188,219.5 		"/>
		<polygon points="393.188,219.5 395.11,219.5 395.11,219.5 		"/>
		<polygon points="395.11,219.5 397.031,219.5 397.031,219.5 		"/>
		<rect x="397.031" y="197.833" width="1.922" height="43.333"/>
		<polygon points="398.953,219.5 400.875,219.5 400.875,219.5 		"/>
		<rect x="400.875" y="197.833" width="1.922" height="43.333"/>
		<polygon points="402.796,219.5 404.718,219.5 404.718,219.5 		"/>
		<rect x="404.718" y="208.667" width="1.922" height="21.667"/>
		<rect x="406.639" y="208.667" width="1.922" height="21.667"/>
		<polygon points="408.561,219.5 410.483,219.5 410.483,219.5 		"/>
		<polygon points="410.483,219.5 412.404,219.5 412.404,219.5 		"/>
		<polygon points="412.404,219.5 414.326,219.5 414.326,219.5 		"/>
		<polygon points="414.326,219.5 416.248,219.5 416.248,219.5 		"/>
		<polygon points="416.248,219.5 418.169,219.5 418.169,219.5 		"/>
		<polygon points="418.169,219.5 420.091,219.5 420.091,219.5 		"/>
		<polygon points="420.091,219.5 422.013,219.5 422.013,219.5 		"/>
		<rect x="422.013" y="208.667" width="1.922" height="21.667"/>
		<polygon points="423.934,219.5 425.856,219.5 425.856,219.5 		"/>
		<polygon points="425.856,219.5 427.777,219.5 427.777,219.5 		"/>
		<polygon points="427.777,219.5 429.699,219.5 429.699,219.5 		"/>
		<polygon points="429.699,219.5 431.621,219.5 431.621,219.5 		"/>
		<polygon points="431.621,219.5 433.542,219.5 433.542,219.5 		"/>
		<rect x="433.542" y="208.667" width="1.922" height="21.667"/>
		<rect x="435.464" y="208.667" width="1.922" height="21.667"/>
		<rect x="437.386" y="208.667" width="1.922" height="21.667"/>
		<rect x="439.307" y="208.667" width="1.922" height="21.667"/>
		<polygon points="441.229,219.5 443.15,219.5 443.15,219.5 		"/>
		<rect x="443.15" y="187" width="1.922" height="65"/>
		<polygon points="445.072,219.5 446.994,219.5 446.994,219.5 		"/>
		<polygon points="446.994,219.5 448.915,219.5 448.915,219.5 		"/>
		<rect x="448.915" y="208.667" width="1.922" height="21.667"/>
		<polygon points="450.837,219.5 452.759,219.5 452.759,219.5 		"/>
		<polygon points="452.759,219.5 454.68,219.5 454.68,219.5 		"/>
		<polygon points="454.68,219.5 456.602,219.5 456.602,219.5 		"/>
		<polygon points="456.602,219.5 458.523,219.5 458.523,219.5 		"/>
		<polygon points="458.523,219.5 460.445,219.5 460.445,219.5 		"/>
		<polygon points="460.445,219.5 462.367,219.5 462.367,219.5 		"/>
		<polygon points="462.367,219.5 464.288,219.5 464.288,219.5 		"/>
		<polygon points="464.288,219.5 466.21,219.5 466.21,219.5 		"/>
		<polygon points="466.21,219.5 468.132,219.5 468.132,219.5 		"/>
		<polygon points="468.132,219.5 470.053,219.5 470.053,219.5 		"/>
		<polygon points="470.053,219.5 471.975,219.5 471.975,219.5 		"/>
		<rect x="471.975" y="197.833" width="1.922" height="43.333"/>
		<polygon points="473.897,219.5 475.818,219.5 475.818,219.5 		"/>
		<rect x="475.818" y="208.667" width="1.922" height="21.667"/>
		<rect x="477.74" y="208.667" width="1.922" height="21.667"/>
		<polygon points="479.661,219.5 481.583,219.5 481.583,219.5 		"/>
		<polygon points="481.583,219.5 483.505,219.5 483.505,219.5 		"/>
		<polygon points="483.505,219.5 485.426,219.5 485.426,219.5 		"/>
		<polygon points="485.426,219.5 487.348,219.5 487.348,219.5 		"/>
		<rect x="487.348" y="197.833" width="1.922" height="43.333"/>
		<rect x="489.27" y="187" width="1.922" height="65"/>
		<polygon points="491.191,219.5 493.113,219.5 493.113,219.5 		"/>
		<polygon points="493.113,219.5 495.034,219.5 495.034,219.5 		"/>
		<rect x="495.034" y="197.833" width="1.922" height="43.333"/>
		<polygon points="496.956,219.5 498.878,219.5 498.878,219.5 		"/>
		<rect x="498.878" y="176.167" width="1.922" height="86.667"/>
		<rect x="500.799" y="208.667" width="1.922" height="21.667"/>
		<rect x="502.721" y="197.833" width="1.922" height="43.333"/>
		<rect x="504.643" y="208.667" width="1.922" height="21.667"/>
		<rect x="506.564" y="208.667" width="1.922" height="21.667"/>
		<rect x="508.486" y="208.667" width="1.922" height="21.667"/>
		<polygon points="510.408,219.5 512.329,219.5 512.329,219.5 		"/>
		<polygon points="512.329,219.5 514.251,219.5 514.251,219.5 		"/>
		<rect x="514.251" y="208.667" width="1.922" height="21.667"/>
		<polygon points="516.172,219.5 518.094,219.5 518.094,219.5 		"/>
		<rect x="518.094" y="208.667" width="1.922" height="21.667"/>
		<rect x="520.016" y="154.5" width="1.922" height="130"/>
		<polygon points="521.937,219.5 523.859,219.5 523.859,219.5 		"/>
		<rect x="523.859" y="187" width="1.922" height="65"/>
		<polygon points="525.781,219.5 527.702,219.5 527.702,219.5 		"/>
		<rect x="527.702" y="208.667" width="1.922" height="21.667"/>
		<polygon points="529.624,219.5 531.545,219.5 531.545,219.5 		"/>
		<rect x="531.545" y="111.167" width="1.922" height="216.667"/>
		<rect x="533.467" y="208.667" width="1.922" height="21.667"/>
		<rect x="535.389" y="176.167" width="1.922" height="86.667"/>
		<rect x="537.31" y="208.667" width="1.922" height="21.667"/>
		<polygon points="539.232,219.5 541.154,219.5 541.154,219.5 		"/>
		<polygon points="541.154,219.5 543.075,219.5 543.075,219.5 		"/>
		<polygon points="543.075,219.5 544.997,219.5 544.997,219.5 		"/>
		<polygon points="544.997,219.5 546.919,219.5 546.919,219.5 		"/>
		<polygon points="546.919,219.5 548.84,219.5 548.84,219.5 		"/>
		<rect x="548.84" y="208.667" width="1.922" height="21.667"/>
		<rect x="550.762" y="165.333" width="1.922" height="108.333"/>
		<polygon points="552.683,219.5 554.605,219.5 554.605,219.5 		"/>
		<polygon points="554.605,219.5 556.527,219.5 556.527,219.5 		"/>
		<rect x="556.527" y="208.667" width="1.922" height="21.667"/>
		<rect x="558.448" y="197.833" width="1.922" height="43.333"/>
		<polygon points="560.37,219.5 562.292,219.5 562.292,219.5 		"/>
		<rect x="562.292" y="187" width="1.922" height="65"/>
		<polygon points="564.213,219.5 566.135,219.5 566.135,219.5 		"/>
		<rect x="566.135" y="208.667" width="1.922" height="21.667"/>
		<polygon points="568.056,219.5 569.978,219.5 569.978,219.5 		"/>
		<rect x="569.978" y="208.667" width="1.922" height="21.667"/>
		<rect x="571.9" y="154.5" width="1.922" height="130"/>
		<rect x="573.821" y="165.333" width="1.922" height="108.333"/>
		<rect x="575.743" y="208.667" width="1.922" height="21.667"/>
		<polygon points="577.665,219.5 579.586,219.5 579.586,219.5 		"/>
		<rect x="579.586" y="187" width="1.922" height="65"/>
		<rect x="581.508" y="208.667" width="1.922" height="21.667"/>
		<polygon points="583.429,219.5 585.351,219.5 585.351,219.5 		"/>
		<rect x="585.351" y="208.667" width="1.922" height="21.667"/>
		<polygon points="587.273,219.5 589.194,219.5 589.194,219.5 		"/>
		<rect x="589.194" y="187" width="1.922" height="65"/>
		<rect x="591.116" y="208.667" width="1.922" height="21.667"/>
		<rect x="593.038" y="143.667" width="1.922" height="151.667"/>
		<polygon points="594.959,219.5 596.881,219.5 596.881,219.5 		"/>
		<polygon points="596.881,219.5 598.802,219.5 598.802,219.5 		"/>
		<rect x="598.802" y="176.167" width="1.922" height="86.667"/>
		<polygon points="600.724,219.5 602.646,219.5 602.646,219.5 		"/>
		<polygon points="602.646,219.5 604.567,219.5 604.567,219.5 		"/>
		<polygon points="604.567,219.5 606.489,219.5 606.489,219.5 		"/>
		<rect x="606.489" y="197.833" width="1.922" height="43.333"/>
		<polygon points="608.411,219.5 610.332,219.5 610.332,219.5 		"/>
		<polygon points="610.332,219.5 612.254,219.5 612.254,219.5 		"/>
		<rect x="612.254" y="208.667" width="1.922" height="21.667"/>
		<rect x="614.176" y="208.667" width="1.922" height="21.667"/>
		<polygon points="616.097,219.5 618.019,219.5 618.019,219.5 		"/>
		<polygon points="618.019,219.5 619.94,219.5 619.94,219.5 		"/>
		<rect x="619.94" y="208.667" width="1.922" height="21.667"/>
		<polygon points="621.862,219.5 623.784,219.5 623.784,219.5 		"/>
		<polygon points="623.784,219.5 625.705,219.5 625.705,219.5 		"/>
		<rect x="625.705" y="176.167" width="1.922" height="86.667"/>
		<polygon points="627.627,219.5 629.549,219.5 629.549,219.5 		"/>
		<rect x="629.549" y="208.667" width="1.922" height="21.667"/>
		<polygon points="631.47,219.5 633.392,219.5 633.392,219.5 		"/>
		<polygon points="633.392,219.5 635.313,219.5 635.313,219.5 		"/>
		<polygon points="635.313,219.5 637.235,219.5 637.235,219.5 		"/>
		<rect x="637.235" y="208.667" width="1.922" height="21.667"/>
		<polygon points="639.157,219.5 641.078,219.5 641.078,219.5 		"/>
		<rect x="641.078" y="165.333" width="1.922" height="108.333"/>
	</g>
	<g>
		<g transform="translate(0.000000, -1.000000)">
			<path d="M316.379,331.103c0,0.019-0.065,1.934-1.147,2.988c-0.246,0.24-0.525,0.416-0.843,0.527
				c0.005-0.007,0.009-0.015,0.014-0.021c0.126-0.169,0.244-0.348,0.355-0.538c0.02-0.033,0.038-0.068,0.057-0.102
				c0.056-0.1,0.116-0.195,0.168-0.3c0.141-0.289,0.264-0.605,0.368-0.94c0.018-0.057,0.033-0.116,0.05-0.175
				c0.042-0.147,0.078-0.299,0.111-0.454c0.013-0.06,0.033-0.116,0.043-0.177c0.007-0.036,0.008-0.074,0.014-0.111
				c0.03-0.181,0.053-0.368,0.069-0.556c0.009-0.105,0.016-0.209,0.02-0.313c0.008-0.169,0.009-0.34,0.003-0.513
				c-0.002-0.085-0.005-0.168-0.011-0.252c-0.013-0.206-0.037-0.416-0.07-0.627c-0.008-0.049-0.016-0.098-0.025-0.146
				c-0.212-1.213-0.757-2.473-1.788-3.647c-0.001-0.002-0.002-0.003-0.003-0.005C316.317,327.529,316.445,330.041,316.379,331.103
				 M306.445,334.768c-0.357,0.009-0.679-0.042-0.972-0.141c-0.03-0.01-0.061-0.019-0.09-0.03c-0.294-0.112-0.558-0.279-0.79-0.505
				c-1.073-1.047-1.145-2.942-1.148-2.942c0.002-0.036,0.003-0.072,0.001-0.108c-0.065-1.006,0.063-3.538,2.672-5.338
				c1.154-0.852,1.759-1.578,2.232-2.425c-0.044,0.855-0.159,1.765-0.387,2.645c-0.009,0.037-0.019,0.074-0.029,0.112
				c-0.047,0.176-0.102,0.35-0.159,0.522c-0.026,0.08-0.056,0.159-0.085,0.238c-0.051,0.141-0.105,0.281-0.164,0.417
				c-0.052,0.12-0.11,0.237-0.168,0.353c-0.049,0.099-0.095,0.199-0.149,0.295c-0.119,0.215-0.248,0.424-0.392,0.622
				c-0.163,0.223-0.302,0.444-0.425,0.662c-0.019,0.034-0.034,0.07-0.053,0.104c-0.102,0.189-0.194,0.375-0.27,0.558
				c-0.023,0.056-0.041,0.112-0.062,0.167c-0.062,0.164-0.118,0.324-0.161,0.481c-0.021,0.074-0.039,0.149-0.056,0.224
				c-0.033,0.14-0.058,0.275-0.078,0.408c-0.013,0.085-0.027,0.17-0.036,0.255c-0.016,0.168-0.022,0.33-0.022,0.486
				c0,0.108,0.007,0.215,0.014,0.322c0.009,0.113,0.019,0.22,0.033,0.324c0.011,0.081,0.02,0.164,0.036,0.245v0.003
				c0.036,0.19,0.085,0.376,0.143,0.558c0.022,0.067,0.053,0.133,0.078,0.199c0.053,0.143,0.111,0.285,0.178,0.422
				c0.012,0.025,0.019,0.051,0.032,0.076c0.026,0.05,0.057,0.094,0.085,0.143c0.053,0.095,0.107,0.189,0.167,0.281
				c0.047,0.073,0.097,0.143,0.148,0.212c0.035,0.047,0.064,0.099,0.101,0.145C306.595,334.763,306.521,334.767,306.445,334.768
				 M314.619,324.449c-0.332-0.246-0.645-0.468-0.942-0.678c-1.114-0.788-1.926-1.367-2.643-2.416
				c-0.186-0.581-0.366-1.222-0.573-1.972l-0.32-1.149c-0.061-0.22-0.218-0.403-0.426-0.497c-0.209-0.095-0.449-0.092-0.655,0.006
				l-0.569,0.272c-0.322,0.154-0.498,0.507-0.426,0.856c0.003,0.015,0.076,0.382,0.15,0.97c-0.187,0.413-0.352,0.794-0.498,1.134
				c-0.235,0.546-0.427,0.987-0.634,1.381c-0.454,0.285-0.956,0.548-1.492,0.822c-0.75,0.382-1.525,0.779-2.18,1.263
				c-2.613,1.803-4.21,4.423-4.074,6.68c-0.002,0.43,0.071,2.281,1.352,3.665c0.939,1.017,2.273,1.532,3.962,1.532
				c0.265,0,0.534-0.036,0.811-0.093c0.293,0.06,0.6,0.094,0.922,0.094c0.029,0,0.057,0,0.087-0.001
				c0.59-0.01,1.153-0.133,1.682-0.358c0.501,0.245,1.041,0.38,1.586,0.38h1.097c0.047,0,0.094-0.003,0.155-0.009
				c0.118,0.015,0.235,0.022,0.353,0.022c0.344,0,0.687-0.063,1.021-0.178c0.33,0.081,0.662,0.137,0.991,0.143
				c0.029,0.001,0.057,0.001,0.086,0.001c1.21,0,2.217-0.417,2.994-1.241c1.307-1.385,1.47-3.446,1.489-3.937h0.003
				C318.098,328.502,316.862,326.001,314.619,324.449"/>
		</g>
	</g>
</g>
<style>
#g-verba-tema03-query01-dieta-desktop-img rect, #g-verba-tema03-query01-dieta-desktop-img circle, #g-verba-tema03-query01-dieta-desktop-img path, #g-verba-tema03-query01-dieta-desktop-img line, #g-verba-tema03-query01-dieta-desktop-img polyline { vector-effect: non-scaling-stroke; }
</style>
</svg>

