<?xml version="1.0" encoding="utf-8"?>
<!-- Generator: Adobe Illustrator 24.0.3, SVG Export Plug-In . SVG Version: 6.00 Build 0)  -->
<svg version="1.2" baseProfile="tiny" id="g-verba-vignette09-violencia-genero-mobile-img" xmlns="http://www.w3.org/2000/svg" xmlns:xlink="http://www.w3.org/1999/xlink"
	 x="0px" y="0px" viewBox="0 0 321 340.95" xml:space="preserve">
<g>
	<g style="opacity:0.75;" transform="translate(30.963826886524892, 275)">
		<path display="none" fill="#212529" d="M-10.405-1.533h289.862"/>
		<g transform="translate(23.958277001652394,0)">
			<line display="none" fill="#212529" x1="-23.236" y1="-131.783" x2="-23.236" y2="-1.783"/>
		</g>
		<g transform="translate(49.09707826348205,0)">
			<line display="none" fill="#212529" x1="-36.527" y1="-131.783" x2="-36.527" y2="-1.783"/>
			
				
		</g>
		<g transform="translate(74.51213008862851,0)">
			<line display="none" fill="#212529" x1="-49.81" y1="-131.783" x2="-49.81" y2="-1.783"/>
		</g>
		<g transform="translate(99.93869235391318,0)">
			<line display="none" fill="#212529" x1="-63.337" y1="-131.783" x2="-63.337" y2="-1.783"/>
			
				
		</g>
		<g transform="translate(124.78973261228782,0)">
			<line display="none" fill="#212529" x1="-76.238" y1="-131.783" x2="-76.238" y2="-1.783"/>
		</g>
		<g transform="translate(149.92853387411748,0)">
			<line display="none" fill="#212529" x1="-89.698" y1="-131.783" x2="-89.698" y2="-1.783"/>
			
				
		</g>
		<g transform="translate(175.34358569926394,0)">
			<line display="none" fill="#212529" x1="-102.811" y1="-131.783" x2="-102.811" y2="-1.783"/>
		</g>
		<g transform="translate(200.7701479645486,0)">
			<line display="none" fill="#212529" x1="-116.508" y1="-131.783" x2="-116.508" y2="-1.783"/>
			
				
		</g>
		<g transform="translate(225.89743878624006,0)">
			<line display="none" fill="#212529" x1="-129.385" y1="-131.783" x2="-129.385" y2="-1.783"/>
		</g>
		<g transform="translate(251.03624004806971,0)">
			<line display="none" fill="#212529" x1="-143.014" y1="-131.783" x2="-143.014" y2="-1.783"/>
			
				
		</g>
		<g transform="translate(276.4512918732162,0)">
			<line display="none" fill="#212529" x1="-155.958" y1="-131.783" x2="-155.958" y2="-1.783"/>
		</g>
		<g transform="translate(301.8778541385008,0)">
			<line display="none" fill="#212529" x1="-169.824" y1="-131.783" x2="-169.824" y2="-1.783"/>
			
				
		</g>
		<g transform="translate(326.7288943968755,0)">
			<line display="none" fill="#212529" x1="-182.386" y1="-131.783" x2="-182.386" y2="-1.783"/>
		</g>
		<g transform="translate(351.86769565870514,0)">
			<line display="none" fill="#212529" x1="-196.185" y1="-131.783" x2="-196.185" y2="-1.783"/>
			
				
		</g>
		<g transform="translate(377.2827474838516,0)">
			<line display="none" fill="#212529" x1="-208.96" y1="-131.783" x2="-208.96" y2="-1.783"/>
		</g>
		<g transform="translate(402.70930974913625,0)">
			<line display="none" fill="#212529" x1="-222.995" y1="-131.783" x2="-222.995" y2="-1.783"/>
			
				
		</g>
		<g transform="translate(427.5603500075109,0)">
			<line display="none" fill="#212529" x1="-235.388" y1="-131.783" x2="-235.388" y2="-1.783"/>
		</g>
		<g transform="translate(452.6991512693405,0)">
			<line display="none" fill="#212529" x1="-249.355" y1="-131.783" x2="-249.355" y2="-1.783"/>
			
				
		</g>
		<g transform="translate(478.11420309448704,0)">
			<line display="none" fill="#212529" x1="-261.961" y1="-131.783" x2="-261.961" y2="-1.783"/>
		</g>
		<g transform="translate(503.5407653597717,0)">
			<line display="none" fill="#212529" x1="-276.165" y1="-131.783" x2="-276.165" y2="-1.783"/>
			
				
		</g>
		<g transform="translate(528.3918056181463,0)">
			<line display="none" fill="#212529" x1="-288.39" y1="-131.783" x2="-288.39" y2="-1.783"/>
		</g>
		<g transform="translate(553.530606879976,0)">
			<line display="none" fill="#212529" x1="-302.526" y1="-131.783" x2="-302.526" y2="-1.783"/>
			
				
		</g>
		<g transform="translate(578.9456587051225,0)">
			<line display="none" fill="#212529" x1="-314.963" y1="-131.783" x2="-314.963" y2="-1.783"/>
		</g>
		<g transform="translate(604.372220970407,0)">
			<line display="none" fill="#212529" x1="-329.336" y1="-131.783" x2="-329.336" y2="-1.783"/>
			
				
		</g>
	</g>
	<g transform="translate(30.963826886524892, 290)">
		<path display="none" fill="#212529" d="M-8.51-7.033h288.838"/>
		<g transform="translate(99.93869235391318,0)">
			<line display="none" fill="#212529" x1="-61.447" y1="-137.283" x2="-61.447" y2="-7.283"/>
			
				<text transform="matrix(1 0 0 1 -70.486 6.7668)" display="none" fill="#212529" font-family="'ElMessiri-Bold'" font-size="10px">2015</text>
		</g>
		<g transform="translate(200.7701479645486,0)">
			<line display="none" fill="#212529" x1="-114.617" y1="-137.283" x2="-114.617" y2="-7.283"/>
			
				<text transform="matrix(1 0 0 1 -123.6563 6.7668)" display="none" fill="#212529" font-family="'ElMessiri-Bold'" font-size="10px">2016</text>
		</g>
		<g transform="translate(301.8778541385008,0)">
			<line display="none" fill="#212529" x1="-167.933" y1="-137.283" x2="-167.933" y2="-7.283"/>
			
				<text transform="matrix(1 0 0 1 -176.9721 6.7668)" display="none" fill="#212529" font-family="'ElMessiri-Bold'" font-size="10px">2017</text>
		</g>
		<g transform="translate(402.70930974913625,0)">
			<line display="none" fill="#212529" x1="-221.104" y1="-137.283" x2="-221.104" y2="-7.283"/>
			
				<text transform="matrix(1 0 0 1 -230.1429 6.7668)" display="none" fill="#212529" font-family="'ElMessiri-Bold'" font-size="10px">2018</text>
		</g>
		<g transform="translate(503.5407653597717,0)">
			<line display="none" fill="#212529" x1="-274.274" y1="-137.283" x2="-274.274" y2="-7.283"/>
			
				<text transform="matrix(1 0 0 1 -283.3142 6.7668)" display="none" fill="#212529" font-family="'ElMessiri-Bold'" font-size="10px">2019</text>
		</g>
		<g transform="translate(604.372220970407,0)">
			<line display="none" fill="#212529" x1="-327.445" y1="-137.283" x2="-327.445" y2="-7.283"/>
			
				<text transform="matrix(1 0 0 1 -339.3441 6.7668)" display="none" fill="#212529" font-family="'ElMessiri-Bold'" font-size="10px">2020</text>
		</g>
	</g>
	<g transform="translate(30, 0)">
		<path display="none" fill="none" stroke="#212529" d="M-11.174,200.967h3.25v-65h-3.25"/>
		<g transform="translate(0,130.5)">
			<line fill="none" stroke="#212529" stroke-opacity="0.12" x1="-8.174" y1="70.467" x2="281.514" y2="70.467"/>
			
				
		</g>
		<g transform="translate(0,104.5)">
			<line fill="none" stroke="#212529" stroke-opacity="0.12" x1="-8.174" y1="83.467" x2="281.514" y2="83.467"/>
		</g>
		<g transform="translate(0,78.5)">
			<line fill="none" stroke="#212529" stroke-opacity="0.12" x1="-8.174" y1="96.467" x2="281.514" y2="96.467"/>
		</g>
		<g transform="translate(0,52.5)">
			<line fill="none" stroke="#212529" stroke-opacity="0.12" x1="-8.174" y1="109.467" x2="281.514" y2="109.467"/>
			
				
		</g>
		<g transform="translate(0,26.499999999999993)">
			<line fill="none" stroke="#212529" stroke-opacity="0.12" x1="-8.174" y1="122.467" x2="281.514" y2="122.467"/>
		</g>
		<g transform="translate(0,0.5)">
			<line fill="none" stroke="#212529" stroke-opacity="0.12" x1="-8.174" y1="135.467" x2="281.514" y2="135.467"/>
			
				
		</g>
	</g>
	<g>
		<rect x="21.761" y="195.517" width="0.914" height="10.4"/>
		<rect x="22.675" y="196.817" width="0.914" height="7.8"/>
		<polygon points="23.59,200.717 24.504,200.717 24.504,200.717 		"/>
		<rect x="24.504" y="190.317" width="0.914" height="20.8"/>
		<rect x="25.418" y="190.317" width="0.914" height="20.8"/>
		<rect x="26.332" y="192.917" width="0.914" height="15.6"/>
		<rect x="27.246" y="198.117" width="0.914" height="5.2"/>
		<polygon points="28.16,200.717 29.074,200.717 29.074,200.717 		"/>
		<rect x="29.074" y="169.517" width="0.914" height="62.4"/>
		<polygon points="29.988,200.717 30.902,200.717 30.902,200.717 		"/>
		<rect x="30.902" y="187.717" width="0.914" height="26"/>
		<rect x="31.816" y="185.117" width="0.914" height="31.2"/>
		<rect x="32.73" y="173.417" width="0.914" height="54.6"/>
		<rect x="33.644" y="186.417" width="0.914" height="28.6"/>
		<polygon points="34.558,200.717 35.472,200.717 35.472,200.717 		"/>
		<rect x="35.472" y="192.917" width="0.914" height="15.6"/>
		<rect x="36.386" y="196.817" width="0.914" height="7.8"/>
		<rect x="37.3" y="191.617" width="0.914" height="18.2"/>
		<rect x="38.214" y="191.617" width="0.914" height="18.2"/>
		<rect x="39.128" y="199.417" width="0.914" height="2.6"/>
		<rect x="40.042" y="186.417" width="0.914" height="28.6"/>
		<rect x="40.956" y="195.517" width="0.914" height="10.4"/>
		<rect x="41.87" y="189.017" width="0.914" height="23.4"/>
		<rect x="42.784" y="198.117" width="0.914" height="5.2"/>
		<rect x="43.699" y="186.417" width="0.914" height="28.6"/>
		<polygon points="44.613,200.717 45.527,200.717 45.527,200.717 		"/>
		<polygon points="45.527,200.717 46.441,200.717 46.441,200.717 		"/>
		<polygon points="46.441,200.717 47.355,200.717 47.355,200.717 		"/>
		<rect x="47.355" y="192.917" width="0.914" height="15.6"/>
		<rect x="48.269" y="191.617" width="0.914" height="18.2"/>
		<rect x="49.183" y="173.417" width="0.914" height="54.6"/>
		<rect x="50.097" y="195.517" width="0.914" height="10.4"/>
		<rect x="51.011" y="195.517" width="0.914" height="10.4"/>
		<rect x="51.925" y="177.317" width="0.914" height="46.8"/>
		<rect x="52.839" y="192.917" width="0.914" height="15.6"/>
		<rect x="53.753" y="194.217" width="0.914" height="13"/>
		<rect x="54.667" y="199.417" width="0.914" height="2.6"/>
		<rect x="55.581" y="199.417" width="0.914" height="2.6"/>
		<rect x="56.495" y="191.617" width="0.914" height="18.2"/>
		<rect x="57.409" y="199.417" width="0.914" height="2.6"/>
		<rect x="58.323" y="199.417" width="0.914" height="2.6"/>
		<rect x="59.237" y="198.117" width="0.914" height="5.2"/>
		<rect x="60.151" y="195.517" width="0.914" height="10.4"/>
		<rect x="61.065" y="196.817" width="0.914" height="7.8"/>
		<rect x="61.979" y="189.017" width="0.914" height="23.4"/>
		<rect x="62.893" y="185.117" width="0.914" height="31.2"/>
		<rect x="63.807" y="170.817" width="0.914" height="59.8"/>
		<rect x="64.722" y="189.017" width="0.914" height="23.4"/>
		<rect x="65.636" y="174.717" width="0.914" height="52"/>
		<rect x="66.55" y="199.417" width="0.914" height="2.6"/>
		<polygon points="67.464,200.717 68.378,200.717 68.378,200.717 		"/>
		<rect x="68.378" y="196.817" width="0.914" height="7.8"/>
		<rect x="69.292" y="196.817" width="0.914" height="7.8"/>
		<rect x="70.206" y="198.117" width="0.914" height="5.2"/>
		<rect x="71.12" y="195.517" width="0.914" height="10.4"/>
		<rect x="72.034" y="189.017" width="0.914" height="23.4"/>
		<rect x="72.948" y="199.417" width="0.914" height="2.6"/>
		<rect x="73.862" y="199.417" width="0.914" height="2.6"/>
		<rect x="74.776" y="192.917" width="0.914" height="15.6"/>
		<rect x="75.69" y="199.417" width="0.914" height="2.6"/>
		<rect x="76.604" y="176.017" width="0.914" height="49.4"/>
		<rect x="77.518" y="191.617" width="0.914" height="18.2"/>
		<rect x="78.432" y="198.117" width="0.914" height="5.2"/>
		<polygon points="79.346,200.717 80.26,200.717 80.26,200.717 		"/>
		<rect x="80.26" y="177.317" width="0.914" height="46.8"/>
		<rect x="81.174" y="182.517" width="0.914" height="36.4"/>
		<polygon points="82.088,200.717 83.002,200.717 83.002,200.717 		"/>
		<rect x="83.002" y="186.417" width="0.914" height="28.6"/>
		<rect x="83.916" y="199.417" width="0.914" height="2.6"/>
		<rect x="84.831" y="178.617" width="0.914" height="44.2"/>
		<rect x="85.745" y="177.317" width="0.914" height="46.8"/>
		<rect x="86.659" y="196.817" width="0.914" height="7.8"/>
		<rect x="87.573" y="194.217" width="0.914" height="13"/>
		<rect x="88.487" y="194.217" width="0.914" height="13"/>
		<rect x="89.401" y="196.817" width="0.914" height="7.8"/>
		<rect x="90.315" y="196.817" width="0.914" height="7.8"/>
		<rect x="91.229" y="198.117" width="0.914" height="5.2"/>
		<rect x="92.143" y="192.917" width="0.914" height="15.6"/>
		<rect x="93.057" y="190.317" width="0.914" height="20.8"/>
		<rect x="93.971" y="196.817" width="0.914" height="7.8"/>
		<rect x="94.885" y="192.917" width="0.914" height="15.6"/>
		<rect x="95.799" y="196.817" width="0.914" height="7.8"/>
		<rect x="96.713" y="186.417" width="0.914" height="28.6"/>
		<rect x="97.627" y="177.317" width="0.914" height="46.8"/>
		<rect x="98.541" y="172.117" width="0.914" height="57.2"/>
		<rect x="99.455" y="177.317" width="0.914" height="46.8"/>
		<rect x="100.369" y="199.417" width="0.914" height="2.6"/>
		<rect x="101.283" y="182.517" width="0.914" height="36.4"/>
		<rect x="102.197" y="198.117" width="0.914" height="5.2"/>
		<polygon points="103.111,200.717 104.025,200.717 104.025,200.717 		"/>
		<polygon points="104.025,200.717 104.94,200.717 104.94,200.717 		"/>
		<rect x="104.939" y="194.217" width="0.914" height="13"/>
		<rect x="105.854" y="194.217" width="0.914" height="13"/>
		<rect x="106.768" y="189.017" width="0.914" height="23.4"/>
		<rect x="107.682" y="199.417" width="0.914" height="2.6"/>
		<rect x="108.596" y="176.017" width="0.914" height="49.4"/>
		<rect x="109.51" y="187.717" width="0.914" height="26"/>
		<rect x="110.424" y="192.917" width="0.914" height="15.6"/>
		<rect x="111.338" y="160.417" width="0.914" height="80.6"/>
		<rect x="112.252" y="198.117" width="0.914" height="5.2"/>
		<rect x="113.166" y="181.217" width="0.914" height="39"/>
		<rect x="114.08" y="195.517" width="0.914" height="10.4"/>
		<rect x="114.994" y="196.817" width="0.914" height="7.8"/>
		<rect x="115.908" y="189.017" width="0.914" height="23.4"/>
		<rect x="116.822" y="185.117" width="0.914" height="31.2"/>
		<rect x="117.736" y="195.517" width="0.914" height="10.4"/>
		<rect x="118.65" y="194.217" width="0.914" height="13"/>
		<rect x="119.564" y="196.817" width="0.914" height="7.8"/>
		<rect x="120.478" y="196.817" width="0.914" height="7.8"/>
		<rect x="121.392" y="191.617" width="0.914" height="18.2"/>
		<rect x="122.306" y="195.517" width="0.914" height="10.4"/>
		<rect x="123.22" y="185.117" width="0.914" height="31.2"/>
		<rect x="124.134" y="198.117" width="0.914" height="5.2"/>
		<rect x="125.048" y="190.317" width="0.914" height="20.8"/>
		<rect x="125.963" y="196.817" width="0.914" height="7.8"/>
		<polygon points="126.877,200.717 127.791,200.717 127.791,200.717 		"/>
		<rect x="127.791" y="198.117" width="0.914" height="5.2"/>
		<rect x="128.705" y="186.417" width="0.914" height="28.6"/>
		<rect x="129.619" y="191.617" width="0.914" height="18.2"/>
		<rect x="130.533" y="185.117" width="0.914" height="31.2"/>
		<polygon points="131.447,200.717 132.361,200.717 132.361,200.717 		"/>
		<rect x="132.361" y="195.517" width="0.914" height="10.4"/>
		<polygon points="133.275,200.717 134.189,200.717 134.189,200.717 		"/>
		<rect x="134.189" y="198.117" width="0.914" height="5.2"/>
		<rect x="135.103" y="198.117" width="0.914" height="5.2"/>
		<rect x="136.017" y="199.417" width="0.914" height="2.6"/>
		<rect x="136.931" y="186.417" width="0.914" height="28.6"/>
		<polygon points="137.845,200.717 138.759,200.717 138.759,200.717 		"/>
		<rect x="138.759" y="194.217" width="0.914" height="13"/>
		<rect x="139.673" y="199.417" width="0.914" height="2.6"/>
		<rect x="140.587" y="198.117" width="0.914" height="5.2"/>
		<rect x="141.501" y="192.917" width="0.914" height="15.6"/>
		<rect x="142.415" y="183.817" width="0.914" height="33.8"/>
		<polygon points="143.329,200.717 144.243,200.717 144.243,200.717 		"/>
		<rect x="144.243" y="196.817" width="0.914" height="7.8"/>
		<rect x="145.157" y="191.617" width="0.914" height="18.2"/>
		<rect x="146.072" y="194.217" width="0.914" height="13"/>
		<rect x="146.986" y="198.117" width="0.914" height="5.2"/>
		<rect x="147.9" y="198.117" width="0.914" height="5.2"/>
		<polygon points="148.814,200.717 149.728,200.717 149.728,200.717 		"/>
		<rect x="149.728" y="196.817" width="0.914" height="7.8"/>
		<rect x="150.642" y="199.417" width="0.914" height="2.6"/>
		<rect x="151.556" y="199.417" width="0.914" height="2.6"/>
		<rect x="152.47" y="198.117" width="0.914" height="5.2"/>
		<rect x="153.384" y="199.417" width="0.914" height="2.6"/>
		<rect x="154.298" y="192.917" width="0.914" height="15.6"/>
		<rect x="155.212" y="191.617" width="0.914" height="18.2"/>
		<rect x="156.126" y="187.717" width="0.914" height="26"/>
		<rect x="157.04" y="199.417" width="0.914" height="2.6"/>
		<rect x="157.954" y="181.217" width="0.914" height="39"/>
		<rect x="158.868" y="157.817" width="0.914" height="85.8"/>
		<rect x="159.782" y="192.917" width="0.914" height="15.6"/>
		<rect x="160.696" y="198.117" width="0.914" height="5.2"/>
		<rect x="161.61" y="198.117" width="0.914" height="5.2"/>
		<rect x="162.524" y="187.717" width="0.914" height="26"/>
		<rect x="163.438" y="187.717" width="0.914" height="26"/>
		<rect x="164.352" y="194.217" width="0.914" height="13"/>
		<rect x="165.266" y="195.517" width="0.914" height="10.4"/>
		<rect x="166.18" y="187.717" width="0.914" height="26"/>
		<rect x="167.095" y="192.917" width="0.914" height="15.6"/>
		<rect x="168.009" y="179.917" width="0.914" height="41.6"/>
		<rect x="168.923" y="179.917" width="0.914" height="41.6"/>
		<rect x="169.837" y="169.517" width="0.914" height="62.4"/>
		<rect x="170.751" y="166.917" width="0.914" height="67.6"/>
		<rect x="171.665" y="179.917" width="0.914" height="41.6"/>
		<rect x="172.579" y="173.417" width="0.914" height="54.6"/>
		<rect x="173.493" y="192.917" width="0.914" height="15.6"/>
		<rect x="174.407" y="199.417" width="0.914" height="2.6"/>
		<rect x="175.321" y="169.517" width="0.914" height="62.4"/>
		<rect x="176.235" y="195.517" width="0.914" height="10.4"/>
		<rect x="177.149" y="195.517" width="0.914" height="10.4"/>
		<rect x="178.063" y="198.117" width="0.914" height="5.2"/>
		<rect x="178.977" y="199.417" width="0.914" height="2.6"/>
		<rect x="179.891" y="191.617" width="0.914" height="18.2"/>
		<rect x="180.805" y="191.617" width="0.914" height="18.2"/>
		<rect x="181.719" y="192.917" width="0.914" height="15.6"/>
		<rect x="182.633" y="198.117" width="0.914" height="5.2"/>
		<rect x="183.547" y="174.717" width="0.914" height="52"/>
		<rect x="184.461" y="191.617" width="0.914" height="18.2"/>
		<rect x="185.375" y="191.617" width="0.914" height="18.2"/>
		<rect x="186.289" y="196.817" width="0.914" height="7.8"/>
		<rect x="187.204" y="194.217" width="0.914" height="13"/>
		<rect x="188.118" y="199.417" width="0.914" height="2.6"/>
		<rect x="189.032" y="195.517" width="0.914" height="10.4"/>
		<rect x="189.946" y="195.517" width="0.914" height="10.4"/>
		<rect x="190.86" y="151.317" width="0.914" height="98.8"/>
		<rect x="191.774" y="187.717" width="0.914" height="26"/>
		<rect x="192.688" y="192.917" width="0.914" height="15.6"/>
		<rect x="193.602" y="198.117" width="0.914" height="5.2"/>
		<rect x="194.516" y="186.417" width="0.914" height="28.6"/>
		<rect x="195.43" y="194.217" width="0.914" height="13"/>
		<rect x="196.344" y="189.017" width="0.914" height="23.4"/>
		<polygon points="197.258,200.717 198.172,200.717 198.172,200.717 		"/>
		<rect x="198.172" y="196.817" width="0.914" height="7.8"/>
		<rect x="199.086" y="173.417" width="0.914" height="54.6"/>
		<rect x="200" y="194.217" width="0.914" height="13"/>
		<rect x="200.914" y="195.517" width="0.914" height="10.4"/>
		<rect x="201.828" y="194.217" width="0.914" height="13"/>
		<rect x="202.742" y="195.517" width="0.914" height="10.4"/>
		<rect x="203.656" y="194.217" width="0.914" height="13"/>
		<rect x="204.57" y="183.817" width="0.914" height="33.8"/>
		<rect x="205.484" y="183.817" width="0.914" height="33.8"/>
		<rect x="206.398" y="139.617" width="0.914" height="122.2"/>
		<rect x="207.313" y="198.117" width="0.914" height="5.2"/>
		<rect x="208.227" y="198.117" width="0.914" height="5.2"/>
		<rect x="209.141" y="196.817" width="0.914" height="7.8"/>
		<rect x="210.055" y="192.917" width="0.914" height="15.6"/>
		<rect x="210.969" y="157.817" width="0.914" height="85.8"/>
		<rect x="211.883" y="182.517" width="0.914" height="36.4"/>
		<rect x="212.797" y="190.317" width="0.914" height="20.8"/>
		<rect x="213.711" y="185.117" width="0.914" height="31.2"/>
		<rect x="214.625" y="169.517" width="0.914" height="62.4"/>
		<rect x="215.539" y="191.617" width="0.914" height="18.2"/>
		<rect x="216.453" y="194.217" width="0.914" height="13"/>
		<rect x="217.367" y="178.617" width="0.914" height="44.2"/>
		<rect x="218.281" y="185.117" width="0.914" height="31.2"/>
		<polygon points="219.195,200.717 220.109,200.717 220.109,200.717 		"/>
		<rect x="220.109" y="181.217" width="0.914" height="39"/>
		<rect x="221.023" y="196.817" width="0.914" height="7.8"/>
		<rect x="221.937" y="196.817" width="0.914" height="7.8"/>
		<rect x="222.851" y="185.117" width="0.914" height="31.2"/>
		<rect x="223.765" y="182.517" width="0.914" height="36.4"/>
		<rect x="224.679" y="183.817" width="0.914" height="33.8"/>
		<rect x="225.593" y="199.417" width="0.914" height="2.6"/>
		<rect x="226.507" y="185.117" width="0.914" height="31.2"/>
		<rect x="227.421" y="168.217" width="0.914" height="65"/>
		<rect x="228.336" y="189.017" width="0.914" height="23.4"/>
		<rect x="229.25" y="182.517" width="0.914" height="36.4"/>
		<rect x="230.164" y="198.117" width="0.914" height="5.2"/>
		<rect x="231.078" y="196.817" width="0.914" height="7.8"/>
		<rect x="231.992" y="187.717" width="0.914" height="26"/>
		<rect x="232.906" y="187.717" width="0.914" height="26"/>
		<polygon points="233.82,200.717 234.734,200.717 234.734,200.717 		"/>
		<polygon points="234.734,200.717 235.648,200.717 235.648,200.717 		"/>
		<rect x="235.648" y="198.117" width="0.914" height="5.2"/>
		<rect x="236.562" y="186.417" width="0.914" height="28.6"/>
		<rect x="237.476" y="189.017" width="0.914" height="23.4"/>
		<rect x="238.39" y="187.717" width="0.914" height="26"/>
		<rect x="239.304" y="172.117" width="0.914" height="57.2"/>
		<rect x="240.218" y="198.117" width="0.914" height="5.2"/>
		<rect x="241.132" y="194.217" width="0.914" height="13"/>
		<rect x="242.046" y="190.317" width="0.914" height="20.8"/>
		<rect x="242.96" y="174.717" width="0.914" height="52"/>
		<rect x="243.874" y="190.317" width="0.914" height="20.8"/>
		<rect x="244.788" y="185.117" width="0.914" height="31.2"/>
		<rect x="245.702" y="191.617" width="0.914" height="18.2"/>
		<rect x="246.616" y="172.117" width="0.914" height="57.2"/>
		<rect x="247.53" y="179.917" width="0.914" height="41.6"/>
		<rect x="248.445" y="195.517" width="0.914" height="10.4"/>
		<rect x="249.359" y="194.217" width="0.914" height="13"/>
		<rect x="250.273" y="182.517" width="0.914" height="36.4"/>
		<polygon points="251.187,200.717 252.101,200.717 252.101,200.717 		"/>
		<rect x="252.101" y="191.617" width="0.914" height="18.2"/>
		<rect x="253.015" y="183.817" width="0.914" height="33.8"/>
		<rect x="253.929" y="135.717" width="0.914" height="130"/>
		<rect x="254.843" y="196.817" width="0.914" height="7.8"/>
		<rect x="255.757" y="196.817" width="0.914" height="7.8"/>
		<rect x="256.671" y="198.117" width="0.914" height="5.2"/>
		<rect x="257.585" y="190.317" width="0.914" height="20.8"/>
		<rect x="258.499" y="186.417" width="0.914" height="28.6"/>
		<rect x="259.413" y="160.417" width="0.914" height="80.6"/>
		<rect x="260.327" y="157.817" width="0.914" height="85.8"/>
		<rect x="261.241" y="174.717" width="0.914" height="52"/>
		<polygon points="262.155,200.717 263.069,200.717 263.069,200.717 		"/>
		<rect x="263.069" y="192.917" width="0.914" height="15.6"/>
		<rect x="263.983" y="187.717" width="0.914" height="26"/>
		<rect x="264.897" y="195.517" width="0.914" height="10.4"/>
		<rect x="265.811" y="183.817" width="0.914" height="33.8"/>
		<rect x="266.725" y="191.617" width="0.914" height="18.2"/>
		<rect x="267.639" y="181.217" width="0.914" height="39"/>
		<rect x="268.553" y="183.817" width="0.914" height="33.8"/>
		<rect x="269.468" y="195.517" width="0.914" height="10.4"/>
		<rect x="270.382" y="186.417" width="0.914" height="28.6"/>
		<rect x="271.296" y="190.317" width="0.914" height="20.8"/>
		<rect x="272.21" y="173.417" width="0.914" height="54.6"/>
		<rect x="273.124" y="196.817" width="0.914" height="7.8"/>
		<rect x="274.038" y="186.417" width="0.914" height="28.6"/>
		<rect x="274.952" y="190.317" width="0.914" height="20.8"/>
		<rect x="275.866" y="191.617" width="0.914" height="18.2"/>
		<rect x="276.78" y="194.217" width="0.914" height="13"/>
		<polygon points="277.694,200.717 278.608,200.717 278.608,200.717 		"/>
		<rect x="278.608" y="189.017" width="0.914" height="23.4"/>
		<rect x="279.522" y="185.117" width="0.914" height="31.2"/>
		<rect x="280.436" y="172.117" width="0.914" height="57.2"/>
		<rect x="281.35" y="169.517" width="0.914" height="62.4"/>
		<rect x="282.264" y="199.417" width="0.914" height="2.6"/>
		<rect x="283.178" y="194.217" width="0.914" height="13"/>
		<rect x="284.092" y="189.017" width="0.914" height="23.4"/>
		<rect x="285.006" y="198.117" width="0.914" height="5.2"/>
		<rect x="285.92" y="178.617" width="0.914" height="44.2"/>
		<rect x="286.834" y="182.517" width="0.914" height="36.4"/>
		<rect x="287.748" y="165.617" width="0.914" height="70.2"/>
		<rect x="288.662" y="187.717" width="0.914" height="26"/>
		<rect x="289.577" y="199.417" width="0.914" height="2.6"/>
		<rect x="290.491" y="196.817" width="0.914" height="7.8"/>
		<rect x="291.405" y="190.317" width="0.914" height="20.8"/>
		<polygon points="292.319,200.717 293.233,200.717 293.233,200.717 		"/>
		<rect x="293.233" y="163.017" width="0.914" height="75.4"/>
		<rect x="294.147" y="198.117" width="0.914" height="5.2"/>
		<rect x="295.061" y="192.917" width="0.914" height="15.6"/>
		<rect x="295.975" y="195.517" width="0.914" height="10.4"/>
		<rect x="296.889" y="195.517" width="0.914" height="10.4"/>
		<rect x="297.803" y="191.617" width="0.914" height="18.2"/>
		<rect x="298.717" y="196.817" width="0.914" height="7.8"/>
		<rect x="299.631" y="196.817" width="0.914" height="7.8"/>
		<polygon points="300.545,200.717 301.459,200.717 301.459,200.717 		"/>
		<rect x="301.459" y="159.117" width="0.914" height="83.2"/>
		<rect x="302.373" y="147.417" width="0.914" height="106.6"/>
		<rect x="303.287" y="190.317" width="0.914" height="20.8"/>
		<polygon points="304.201,200.717 305.115,200.717 305.115,200.717 		"/>
		<rect x="305.115" y="196.817" width="0.914" height="7.8"/>
		<rect x="306.029" y="198.117" width="0.914" height="5.2"/>
		<rect x="306.943" y="191.617" width="0.914" height="18.2"/>
		<rect x="307.857" y="185.117" width="0.914" height="31.2"/>
		<rect x="308.771" y="182.517" width="0.914" height="36.4"/>
		<rect x="309.686" y="169.517" width="0.914" height="62.4"/>
		<rect x="310.6" y="196.817" width="0.914" height="7.8"/>
	</g>
	<g id="_x2D__x3E__rect_2_">
		<g>
			<line fill="none" stroke="#000000" stroke-miterlimit="10" x1="112.046" y1="147.965" x2="112.046" y2="125.415"/>
			<g>
				<path d="M112.046,152.492c0.79-2.13,2.139-4.772,3.567-6.411l-3.567,1.29l-3.566-1.29
					C109.908,147.719,111.257,150.362,112.046,152.492z"/>
			</g>
		</g>
		<g>
			<line fill="none" stroke="#000000" stroke-miterlimit="10" x1="159.325" y1="143.713" x2="159.325" y2="121.162"/>
			<g>
				<path d="M159.325,148.239c0.79-2.13,2.139-4.772,3.567-6.411l-3.567,1.29l-3.566-1.29
					C157.187,143.467,158.536,146.109,159.325,148.239z"/>
			</g>
		</g>
		<g>
			<line fill="none" stroke="#000000" stroke-miterlimit="10" x1="206.855" y1="125.141" x2="206.855" y2="102.591"/>
			<g>
				<path d="M206.855,129.668c0.79-2.13,2.139-4.772,3.567-6.411l-3.567,1.29l-3.566-1.29
					C204.718,124.895,206.066,127.538,206.855,129.668z"/>
			</g>
		</g>
		<g>
			<line fill="none" stroke="#000000" stroke-miterlimit="10" x1="254.386" y1="122.565" x2="254.386" y2="100.014"/>
			<g>
				<path d="M254.386,127.091c0.79-2.13,2.139-4.772,3.567-6.411l-3.567,1.29l-3.566-1.29
					C252.248,122.319,253.596,124.961,254.386,127.091z"/>
			</g>
		</g>
		<g>
			<line fill="none" stroke="#000000" stroke-miterlimit="10" x1="302.83" y1="134.009" x2="302.83" y2="111.459"/>
			<g>
				<path d="M302.83,138.536c0.79-2.13,2.139-4.772,3.567-6.411l-3.567,1.29l-3.566-1.29
					C300.692,133.763,302.041,136.406,302.83,138.536z"/>
			</g>
		</g>
	</g>
	
		<line style="opacity:0.8;" fill="none" stroke="#000000" stroke-miterlimit="10" x1="0.5" y1="21.498" x2="320.5" y2="21.498"/>
	
		<line style="opacity:0.8;" fill="none" stroke="#000000" stroke-miterlimit="10" x1="0.5" y1="319.452" x2="320.5" y2="319.452"/>
</g>
<style>
#g-verba-vignette09-violencia-genero-mobile-img rect, #g-verba-vignette09-violencia-genero-mobile-img circle, #g-verba-vignette09-violencia-genero-mobile-img path, #g-verba-vignette09-violencia-genero-mobile-img line, #g-verba-vignette09-violencia-genero-mobile-img polyline { vector-effect: non-scaling-stroke; }
</style>
</svg>

