<?xml version="1.0" encoding="utf-8"?>
<!-- Generator: Adobe Illustrator 24.0.3, SVG Export Plug-In . SVG Version: 6.00 Build 0)  -->
<svg version="1.2" baseProfile="tiny" id="g-verba-vignette06-BOTH-desktop-img" xmlns="http://www.w3.org/2000/svg" xmlns:xlink="http://www.w3.org/1999/xlink"
	 x="0px" y="0px" viewBox="0 0 673 568.76" xml:space="preserve">
<g>
	<g transform="translate(35.37547831632653, 275)">
		<path display="none" fill="none" stroke="#212529" d="M7.976,231.043H610.03"/>
		<g transform="translate(39.529230442176875,0)">
			<line display="none" fill="none" stroke="#212529" x1="7.476" y1="-29.457" x2="7.476" y2="230.543"/>
			
				
			
				
		</g>
		<g transform="translate(83.31494472789117,0)">
			<line display="none" fill="none" stroke="#212529" x1="7.476" y1="-29.457" x2="7.476" y2="230.543"/>
			
				
		</g>
		<g transform="translate(131.72682823129253,0)">
			<line display="none" fill="none" stroke="#212529" x1="7.476" y1="-29.457" x2="7.476" y2="230.543"/>
			
				
		</g>
		<g transform="translate(178.64009353741497,0)">
			<line display="none" fill="none" stroke="#212529" x1="7.476" y1="-29.457" x2="7.476" y2="230.543"/>
			
				
		</g>
		<g transform="translate(227.1171343537415,0)">
			<line display="none" fill="none" stroke="#212529" x1="7.476" y1="-29.457" x2="7.476" y2="230.543"/>
			
				
		</g>
		<g transform="translate(274.0303996598639,0)">
			<line display="none" fill="none" stroke="#212529" x1="7.476" y1="-29.457" x2="7.476" y2="230.543"/>
			
				
		</g>
		<g transform="translate(322.5074404761904,0)">
			<line display="none" fill="none" stroke="#212529" x1="7.476" y1="-29.457" x2="7.476" y2="230.543"/>
			
				
		</g>
		<g transform="translate(370.984481292517,0)">
			<line display="none" fill="none" stroke="#212529" x1="7.476" y1="-29.457" x2="7.476" y2="230.543"/>
			
				
		</g>
		<g transform="translate(417.89774659863946,0)">
			<line display="none" fill="none" stroke="#212529" x1="7.476" y1="-29.457" x2="7.476" y2="230.543"/>
			
				
		</g>
		<g transform="translate(466.43994472789115,0)">
			<line display="none" fill="none" stroke="#212529" x1="7.476" y1="-29.457" x2="7.476" y2="230.543"/>
			
				
		</g>
		<g transform="translate(513.3532100340136,0)">
			<line display="none" fill="none" stroke="#212529" x1="7.476" y1="-29.457" x2="7.476" y2="230.543"/>
			
				
		</g>
		<g transform="translate(561.8302508503401,0)">
			<line display="none" fill="none" stroke="#212529" x1="7.476" y1="-29.457" x2="7.476" y2="230.543"/>
			
				
		</g>
	</g>
	<g transform="translate(35.37547831632653, 290)">
		<path display="none" fill="none" stroke="#212529" d="M9.902,231.043h602.054"/>
		<g transform="translate(561.8302508503401,0)">
			<line display="none" fill="none" stroke="#212529" x1="9.402" y1="-29.457" x2="9.402" y2="230.543"/>
			
				<text transform="matrix(1 0 0 1 -4.445 246.6423)" display="none" fill="#212529" font-family="'ElMessiri-Bold'" font-size="10px">2020</text>
			
				<text transform="matrix(1 0 0 1 -562.9988 246.6423)" display="none" fill="#212529" font-family="'ElMessiri-Bold'" font-size="10px">2019</text>
		</g>
	</g>
	<g transform="translate(30, 0)">
		<path display="none" fill="none" stroke="#212529" d="M1.476,311.043h6.5v-130h-6.5"/>
		<g transform="translate(0,130.5)">
			<line fill="none" stroke="#212529" stroke-opacity="0.12" x1="7.476" y1="180.543" x2="620.476" y2="180.543"/>
			
				
		</g>
		<g transform="translate(0,98)">
			<line fill="none" stroke="#212529" stroke-opacity="0.12" x1="7.476" y1="180.543" x2="620.476" y2="180.543"/>
			
				
		</g>
		<g transform="translate(0,65.5)">
			<line fill="none" stroke="#212529" stroke-opacity="0.12" x1="7.476" y1="180.543" x2="620.476" y2="180.543"/>
			
				
		</g>
		<g transform="translate(0,33)">
			<line fill="none" stroke="#212529" stroke-opacity="0.12" x1="7.476" y1="180.543" x2="620.476" y2="180.543"/>
			
				
		</g>
		<g transform="translate(0,0.5)">
			<line fill="none" stroke="#212529" stroke-opacity="0.12" x1="7.476" y1="180.543" x2="620.476" y2="180.543"/>
			
				
		</g>
	</g>
	<g>
		<g transform="translate(0,130.5)">
			<line fill="none" stroke="#212529" stroke-opacity="0.12" x1="37.476" y1="310.139" x2="650.476" y2="310.139"/>
			
				
		</g>
		<g transform="translate(0,98)">
			<line fill="none" stroke="#212529" stroke-opacity="0.12" x1="37.476" y1="310.139" x2="650.476" y2="310.139"/>
			
				
		</g>
		<g transform="translate(0,65.5)">
			<line fill="none" stroke="#212529" stroke-opacity="0.12" x1="37.476" y1="310.139" x2="650.476" y2="310.139"/>
			
				
		</g>
		<g transform="translate(0,33)">
			<line fill="none" stroke="#212529" stroke-opacity="0.12" x1="37.476" y1="310.139" x2="650.476" y2="310.139"/>
			
				
		</g>
	</g>
	<g transform="translate(0,0.5)">
		<line fill="none" stroke="#212529" stroke-opacity="0.12" x1="37.476" y1="310.139" x2="650.476" y2="310.139"/>
	</g>
	
		<line style="opacity:0.8;" fill="none" stroke="#000000" stroke-miterlimit="10" x1="14.75" y1="20.001" x2="658.25" y2="20.001"/>
	
		<line style="opacity:0.8;" fill="none" stroke="#000000" stroke-miterlimit="10" x1="18" y1="548.759" x2="655" y2="548.759"/>
	<g id="PEDRO_SANCHEZ_2_">
		<rect x="37.476" y="274.793" fill="#4731EF" width="10.946" height="35.75"/>
		<polygon fill="#4731EF" points="48.423,268.943 48.423,274.793 48.423,310.543 59.369,310.543 59.369,268.943 		"/>
		<polygon fill="#4731EF" points="70.316,251.393 59.369,251.393 59.369,268.943 59.369,310.543 70.316,310.543 70.316,255.293 		
			"/>
		<rect x="70.316" y="255.293" fill="#4731EF" width="10.946" height="55.25"/>
		<polygon fill="#4731EF" points="81.262,224.743 81.262,255.293 81.262,310.543 92.208,310.543 92.208,224.743 		"/>
		<polygon fill="#4731EF" points="103.155,201.993 92.208,201.993 92.208,224.743 92.208,310.543 103.155,310.543 103.155,244.893 
					"/>
		<polygon fill="#4731EF" points="114.101,244.893 103.155,244.893 103.155,310.543 114.101,310.543 114.101,274.143 		"/>
		<polygon fill="#4731EF" points="125.048,274.143 114.101,274.143 114.101,310.543 125.048,310.543 125.048,284.543 		"/>
		<rect x="125.048" y="284.543" fill="#4731EF" width="10.946" height="26"/>
		<polygon fill="#4731EF" points="146.941,263.743 135.994,263.743 135.994,284.543 135.994,310.543 146.941,310.543 
			146.941,283.893 		"/>
		<rect x="146.941" y="283.893" fill="#4731EF" width="10.946" height="26.65"/>
		<polygon fill="#4731EF" points="157.887,266.343 157.887,283.893 157.887,310.543 168.833,310.543 168.833,266.343 		"/>
		<polygon fill="#4731EF" points="179.78,263.743 168.833,263.743 168.833,266.343 168.833,310.543 179.78,310.543 179.78,265.043 
					"/>
		<rect x="179.78" y="265.043" fill="#4731EF" width="10.946" height="45.5"/>
		<polygon fill="#4731EF" points="201.673,230.593 190.726,230.593 190.726,265.043 190.726,310.543 201.673,310.543 
			201.673,232.543 		"/>
		<polygon fill="#4731EF" points="212.619,232.543 201.673,232.543 201.673,310.543 212.619,310.543 212.619,262.443 		"/>
		<rect x="212.619" y="262.443" fill="#4731EF" width="10.946" height="48.1"/>
		<polygon fill="#4731EF" points="234.512,261.793 223.566,261.793 223.566,262.443 223.566,310.543 234.512,310.543 
			234.512,264.393 		"/>
		<polygon fill="#4731EF" points="245.458,264.393 234.512,264.393 234.512,310.543 245.458,310.543 245.458,271.543 		"/>
		<rect x="245.458" y="271.543" fill="#4731EF" width="10.946" height="39"/>
		<polygon fill="#4731EF" points="256.405,267.643 256.405,271.543 256.405,310.543 267.351,310.543 267.351,267.643 		"/>
		<polygon fill="#4731EF" points="278.298,257.243 267.351,257.243 267.351,267.643 267.351,310.543 278.298,310.543 
			278.298,260.493 		"/>
		<rect x="278.298" y="260.493" fill="#4731EF" width="10.946" height="50.05"/>
		<polygon fill="#4731EF" points="289.244,253.343 289.244,260.493 289.244,310.543 300.191,310.543 300.191,253.343 		"/>
		<polygon fill="#4731EF" points="311.137,257.243 311.137,221.493 300.191,221.493 300.191,253.343 300.191,310.543 
			311.137,310.543 311.137,257.243 		"/>
		<polygon fill="#4731EF" points="311.137,257.243 311.137,257.243 311.137,310.543 322.083,310.543 322.083,257.243 		"/>
		<polygon fill="#4731EF" points="322.083,254.643 322.083,257.243 322.083,310.543 333.03,310.543 333.03,254.643 		"/>
		<polygon fill="#4731EF" points="333.03,237.093 333.03,254.643 333.03,310.543 343.976,310.543 343.976,237.093 		"/>
		<polygon fill="#4731EF" points="354.923,207.193 343.976,207.193 343.976,237.093 343.976,310.543 354.923,310.543 
			354.923,250.743 		"/>
		<rect x="354.923" y="250.743" fill="#4731EF" width="10.946" height="59.8"/>
		<polygon fill="#4731EF" points="376.816,242.293 365.869,242.293 365.869,250.743 365.869,310.543 376.816,310.543 
			376.816,286.493 		"/>
		<rect x="376.816" y="286.493" fill="#4731EF" width="10.946" height="24.05"/>
		<polygon fill="#4731EF" points="387.762,284.543 387.762,286.493 387.762,310.543 398.708,310.543 398.708,284.543 		"/>
		<polygon fill="#4731EF" points="409.655,251.393 398.708,251.393 398.708,284.543 398.708,310.543 409.655,310.543 
			409.655,252.043 		"/>
		<polygon fill="#4731EF" points="420.601,252.043 409.655,252.043 409.655,310.543 420.601,310.543 420.601,255.943 		"/>
		<rect x="420.601" y="255.943" fill="#4731EF" width="10.946" height="54.6"/>
		<polygon fill="#4731EF" points="442.494,252.043 431.548,252.043 431.548,255.943 431.548,310.543 442.494,310.543 
			442.494,259.193 		"/>
		<rect x="442.494" y="259.193" fill="#4731EF" width="10.946" height="51.35"/>
		<polygon fill="#4731EF" points="464.387,261.143 464.387,254.643 453.441,254.643 453.441,259.193 453.441,310.543 
			464.387,310.543 464.387,261.143 		"/>
		<polygon fill="#4731EF" points="475.333,261.143 464.387,261.143 464.387,261.143 464.387,310.543 475.333,310.543 
			475.333,261.793 		"/>
		<polygon fill="#4731EF" points="486.28,261.793 475.333,261.793 475.333,310.543 486.28,310.543 486.28,275.443 		"/>
		<rect x="486.28" y="275.443" fill="#4731EF" width="10.946" height="35.1"/>
		<polygon fill="#4731EF" points="497.226,249.443 497.226,275.443 497.226,310.543 508.173,310.543 508.173,249.443 		"/>
		<polygon fill="#4731EF" points="508.173,237.093 508.173,249.443 508.173,310.543 519.119,310.543 519.119,237.093 		"/>
		<polygon fill="#4731EF" points="530.066,223.443 519.119,223.443 519.119,237.093 519.119,310.543 530.066,310.543 
			530.066,247.493 		"/>
		<polygon fill="#4731EF" points="541.012,271.543 541.012,247.493 530.066,247.493 530.066,310.543 541.012,310.543 
			541.012,271.543 		"/>
		<polygon fill="#4731EF" points="541.012,271.543 541.012,271.543 541.012,310.543 551.958,310.543 551.958,271.543 		"/>
		<polygon fill="#4731EF" points="562.905,252.693 551.958,252.693 551.958,271.543 551.958,310.543 562.905,310.543 		"/>
		<polygon fill="#4731EF" points="562.905,242.943 562.905,310.543 573.851,310.543 573.851,263.743 573.851,242.943 		"/>
		<polygon fill="#4731EF" points="584.798,310.543 584.798,283.243 584.798,263.743 573.851,263.743 573.851,310.543 		"/>
		<rect x="584.798" y="283.243" fill="#4731EF" width="10.946" height="27.3"/>
		<rect x="595.744" y="194.843" fill="#4731EF" width="10.946" height="115.7"/>
		<polygon fill="#4731EF" points="617.637,183.143 606.691,183.143 606.691,194.843 606.691,310.543 617.637,310.543 
			617.637,257.243 		"/>
		<rect x="617.637" y="257.243" fill="#4731EF" width="10.946" height="53.3"/>
		<polygon fill="#4731EF" points="639.53,246.843 628.583,246.843 628.583,257.243 628.583,310.543 639.53,310.543 		"/>
		<rect x="639.53" y="266.993" fill="#4731EF" width="10.946" height="43.55"/>
	</g>
	<g>
		<rect x="37.476" y="310.543" fill="#EF9B31" width="10.946" height="23.863"/>
		<polygon fill="#EF9B31" points="48.423,348.683 59.369,348.683 59.369,325.32 59.369,310.543 48.423,310.543 48.423,334.406 		"/>
		<rect x="59.369" y="310.543" fill="#EF9B31" width="10.946" height="14.777"/>
		<polygon fill="#EF9B31" points="70.316,339.598 81.262,339.598 81.262,325.32 81.262,310.543 70.316,310.543 70.316,325.32 		"/>
		<rect x="81.262" y="310.543" fill="#EF9B31" width="10.946" height="14.777"/>
		<polygon fill="#EF9B31" points="92.208,351.279 103.155,351.279 103.155,310.543 92.208,310.543 92.208,325.32 		"/>
		<polygon fill="#EF9B31" points="103.155,362.961 114.101,362.961 114.101,351.279 114.101,310.543 103.155,310.543 
			103.155,351.279 		"/>
		<rect x="114.101" y="310.543" fill="#EF9B31" width="10.946" height="40.736"/>
		<polygon fill="#EF9B31" points="125.048,354.524 135.994,354.524 135.994,310.543 125.048,310.543 125.048,351.279 		"/>
		<polygon fill="#EF9B31" points="135.994,358.418 146.941,358.418 146.941,331.81 146.941,310.543 135.994,310.543 
			135.994,354.524 		"/>
		<rect x="146.941" y="310.543" fill="#EF9B31" width="10.946" height="21.267"/>
		<polygon fill="#EF9B31" points="157.887,339.598 168.833,339.598 168.833,310.543 157.887,310.543 157.887,331.81 		"/>
		<polygon fill="#EF9B31" points="168.833,347.385 179.78,347.385 179.78,310.543 168.833,310.543 168.833,339.598 		"/>
		<polygon fill="#EF9B31" points="179.78,357.769 190.726,357.769 190.726,351.279 190.726,310.543 179.78,310.543 179.78,347.385 
					"/>
		<polygon fill="#EF9B31" points="201.673,351.279 201.673,349.332 201.673,310.543 190.726,310.543 190.726,351.279 		"/>
		<rect x="201.673" y="310.543" fill="#EF9B31" width="10.946" height="38.789"/>
		<polygon fill="#EF9B31" points="212.619,368.153 223.566,368.153 223.566,362.961 223.566,310.543 212.619,310.543 
			212.619,349.332 		"/>
		<rect x="223.566" y="310.543" fill="#EF9B31" width="10.946" height="52.418"/>
		<polygon fill="#EF9B31" points="234.512,374.642 245.458,374.642 245.458,353.226 245.458,310.543 234.512,310.543 		"/>
		<rect x="245.458" y="310.543" fill="#EF9B31" width="10.946" height="42.683"/>
		<polygon fill="#EF9B31" points="256.405,403.846 267.351,403.846 267.351,362.961 267.351,310.543 256.405,310.543 
			256.405,353.226 		"/>
		<rect x="267.351" y="310.543" fill="#EF9B31" width="10.946" height="52.418"/>
		<polygon fill="#EF9B31" points="278.298,395.409 289.244,395.409 289.244,364.908 289.244,310.543 278.298,310.543 
			278.298,362.961 		"/>
		<polygon fill="#EF9B31" points="300.191,364.908 300.191,357.769 300.191,310.543 289.244,310.543 289.244,364.908 		"/>
		<polygon fill="#EF9B31" points="311.137,357.769 311.137,349.332 311.137,310.543 300.191,310.543 300.191,357.769 		"/>
		<rect x="311.137" y="310.543" fill="#EF9B31" width="10.946" height="38.789"/>
		<polygon fill="#EF9B31" points="322.083,365.557 333.03,365.557 333.03,310.543 322.083,310.543 322.083,349.332 		"/>
		<polygon fill="#EF9B31" points="333.03,377.238 343.976,377.238 343.976,310.543 333.03,310.543 333.03,365.557 		"/>
		<polygon fill="#EF9B31" points="343.976,379.834 354.923,379.834 354.923,354.524 354.923,310.543 343.976,310.543 
			343.976,377.238 		"/>
		<polygon fill="#EF9B31" points="365.869,354.524 365.869,344.79 365.869,344.79 365.869,310.543 354.923,310.543 354.923,354.524 
					"/>
		<polygon fill="#EF9B31" points="365.869,344.79 376.816,344.79 376.816,327.916 376.816,310.543 365.869,310.543 365.869,344.79 
					"/>
		<rect x="376.816" y="310.543" fill="#EF9B31" width="10.946" height="17.373"/>
		<polygon fill="#EF9B31" points="387.762,332.459 398.708,332.459 398.708,310.543 387.762,310.543 387.762,327.916 		"/>
		<polygon fill="#EF9B31" points="398.708,349.981 409.655,349.981 409.655,310.543 398.708,310.543 398.708,332.459 		"/>
		<polygon fill="#EF9B31" points="409.655,363.61 420.601,363.61 420.601,355.822 420.601,310.543 409.655,310.543 409.655,349.981 
					"/>
		<polygon fill="#EF9B31" points="431.548,355.822 431.548,344.141 431.548,310.543 420.601,310.543 420.601,355.822 		"/>
		<polygon fill="#EF9B31" points="442.494,344.141 442.494,332.459 442.494,332.459 442.494,310.543 431.548,310.543 
			431.548,344.141 		"/>
		<polygon fill="#EF9B31" points="442.494,332.459 453.441,332.459 453.441,310.543 442.494,310.543 442.494,332.459 		"/>
		<polygon fill="#EF9B31" points="453.441,364.259 464.387,364.259 464.387,361.663 464.387,310.543 453.441,310.543 
			453.441,332.459 		"/>
		<polygon fill="#EF9B31" points="475.333,361.663 475.333,317.533 475.333,310.543 464.387,310.543 464.387,361.663 		"/>
		<rect x="475.333" y="310.543" fill="#EF9B31" width="10.946" height="6.99"/>
		<polygon fill="#EF9B31" points="486.28,323.373 497.226,323.373 497.226,310.543 486.28,310.543 486.28,317.533 		"/>
		<polygon fill="#EF9B31" points="497.226,373.344 508.173,373.344 508.173,346.736 508.173,310.543 497.226,310.543 
			497.226,323.373 		"/>
		<rect x="508.173" y="310.543" fill="#EF9B31" width="10.946" height="36.194"/>
		<polygon fill="#EF9B31" points="519.119,404.495 530.066,404.495 530.066,377.887 530.066,310.543 519.119,310.543 
			519.119,346.736 		"/>
		<polygon fill="#EF9B31" points="541.012,377.887 541.012,370.748 541.012,310.543 530.066,310.543 530.066,377.887 		"/>
		<polygon fill="#EF9B31" points="551.958,370.748 551.958,362.961 551.958,310.543 541.012,310.543 541.012,370.748 		"/>
		<rect x="551.958" y="310.543" fill="#EF9B31" width="10.946" height="52.418"/>
		<polygon fill="#EF9B31" points="562.905,366.855 573.851,366.855 573.851,359.067 573.851,310.543 562.905,310.543 		"/>
		<polygon fill="#EF9B31" points="584.798,359.067 584.798,338.3 584.798,310.543 573.851,310.543 573.851,359.067 		"/>
		<rect x="584.798" y="310.543" fill="#EF9B31" width="10.946" height="27.757"/>
		<polygon fill="#EF9B31" points="595.744,390.867 606.691,390.867 606.691,363.61 606.691,310.543 595.744,310.543 		"/>
		<polygon fill="#EF9B31" points="617.637,363.61 617.637,334.406 617.637,310.543 606.691,310.543 606.691,363.61 		"/>
		<polygon fill="#EF9B31" points="628.583,334.406 628.583,323.373 628.583,310.543 617.637,310.543 617.637,334.406 		"/>
		<rect x="628.583" y="310.543" fill="#EF9B31" width="10.946" height="12.831"/>
		<rect x="639.53" y="310.543" fill="#EF9B31" width="10.946" height="10.235"/>
	</g>
	<g>
		
			<line fill="none" stroke="#000000" stroke-width="0.5" stroke-miterlimit="10" x1="212.619" y1="93.926" x2="212.619" y2="97.926"/>
		
			<line fill="none" stroke="#000000" stroke-width="0.5" stroke-miterlimit="10" stroke-dasharray="8.0334,8.0334" x1="212.619" y1="105.96" x2="212.619" y2="471.479"/>
		
			<line fill="none" stroke="#000000" stroke-width="0.5" stroke-miterlimit="10" x1="212.619" y1="475.495" x2="212.619" y2="479.495"/>
	</g>
	<g>
		
			<line fill="none" stroke="#000000" stroke-width="0.5" stroke-miterlimit="10" x1="256.405" y1="93.926" x2="256.405" y2="97.926"/>
		
			<line fill="none" stroke="#000000" stroke-width="0.5" stroke-miterlimit="10" stroke-dasharray="8.0334,8.0334" x1="256.405" y1="105.96" x2="256.405" y2="471.479"/>
		
			<line fill="none" stroke="#000000" stroke-width="0.5" stroke-miterlimit="10" x1="256.405" y1="475.495" x2="256.405" y2="479.495"/>
	</g>
	<g>
		
			<line fill="none" stroke="#000000" stroke-width="0.5" stroke-miterlimit="10" x1="530.065" y1="93.926" x2="530.065" y2="97.926"/>
		
			<line fill="none" stroke="#000000" stroke-width="0.5" stroke-miterlimit="10" stroke-dasharray="8.0334,8.0334" x1="530.065" y1="105.96" x2="530.065" y2="471.479"/>
		
			<line fill="none" stroke="#000000" stroke-width="0.5" stroke-miterlimit="10" x1="530.065" y1="475.495" x2="530.065" y2="479.495"/>
	</g>
</g>
<style>
#g-verba-vignette06-BOTH-desktop-img rect, #g-verba-vignette06-BOTH-desktop-img circle, #g-verba-vignette06-BOTH-desktop-img path, #g-verba-vignette06-BOTH-desktop-img line, #g-verba-vignette06-BOTH-desktop-img polyline { vector-effect: non-scaling-stroke; }
</style>
</svg>

