<?xml version="1.0" encoding="utf-8"?>
<!-- Generator: Adobe Illustrator 21.0.0, SVG Export Plug-In . SVG Version: 6.00 Build 0)  -->
<svg version="1.2" baseProfile="tiny" id="g-verba-tema02-query02-gurtel-vs-ere-mobile-img" xmlns="http://www.w3.org/2000/svg" xmlns:xlink="http://www.w3.org/1999/xlink"
	 x="0px" y="0px" viewBox="0 0 320 376.63" overflow="scroll" xml:space="preserve">
<g>
	
		<line style="opacity:0.8;" fill="none" stroke="#000000" stroke-miterlimit="10" x1="0" y1="21.918" x2="320" y2="21.918"/>
	<g transform="translate(30, 275)">
		<path display="none" fill="none" stroke="#212529" d="M-111-75.771h611.1"/>
		<g transform="translate(1.0409906864954184,0)">
			<line display="none" fill="none" stroke="#212529" x1="-2.5" y1="-202.271" x2="-2.5" y2="57.729"/>
			
				<text transform="matrix(1 0 0 1 -13.6231 73.779)" display="none" fill="#212529" font-family="'ElMessiri-Bold'" font-size="10px">2014</text>
		</g>
		<g transform="translate(101.87244629713084,0)">
			<line display="none" fill="none" stroke="#212529" x1="-55.282" y1="-202.271" x2="-55.282" y2="57.729"/>
			
				<text transform="matrix(1 0 0 1 -66.4053 73.779)" display="none" fill="#212529" font-family="'ElMessiri-Bold'" font-size="10px">2015</text>
		</g>
		<g transform="translate(202.70390190776627,0)">
			<line display="none" fill="none" stroke="#212529" x1="-108.265" y1="-202.271" x2="-108.265" y2="57.729"/>
			
				<text transform="matrix(1 0 0 1 -119.3881 73.779)" display="none" fill="#212529" font-family="'ElMessiri-Bold'" font-size="10px">2016</text>
		</g>
		<g transform="translate(303.81160808171853,0)">
			<line display="none" fill="none" stroke="#212529" x1="-161.019" y1="-202.271" x2="-161.019" y2="57.729"/>
			
				<text transform="matrix(1 0 0 1 -172.1416 73.779)" display="none" fill="#212529" font-family="'ElMessiri-Bold'" font-size="10px">2017</text>
		</g>
		<g transform="translate(404.6430636923539,0)">
			<line display="none" fill="none" stroke="#212529" x1="-214.456" y1="-202.271" x2="-214.456" y2="57.729"/>
			
				<text transform="matrix(1 0 0 1 -225.5786 73.779)" display="none" fill="#212529" font-family="'ElMessiri-Bold'" font-size="10px">2018</text>
		</g>
		<g transform="translate(505.47451930298934,0)">
			<line display="none" fill="none" stroke="#212529" x1="-267.278" y1="-202.271" x2="-267.278" y2="57.729"/>
			
				<text transform="matrix(1 0 0 1 -278.4014 73.779)" display="none" fill="#212529" font-family="'ElMessiri-Bold'" font-size="10px">2019</text>
		</g>
		<g transform="translate(606.3059749136247,0)">
			<line display="none" fill="none" stroke="#212529" x1="-321.5" y1="-202.271" x2="-321.5" y2="57.729"/>
		</g>
	</g>
	
		<line style="opacity:0.8;" fill="none" stroke="#000000" stroke-miterlimit="10" x1="0" y1="356.629" x2="320" y2="356.629"/>
	<g>
		<path fill="none" stroke="#000000" stroke-miterlimit="10" d="M236.953,105.685c0.051-16.94,0.186-24.206-2.536-24.473"/>
		<g>
			<path d="M236.943,110.211c0.795-2.128,2.149-4.768,3.581-6.403l-3.57,1.283l-3.563-1.298
				C234.815,105.434,236.158,108.08,236.943,110.211z"/>
		</g>
	</g>
	<g>
		<path fill="none" stroke="#000000" stroke-miterlimit="10" d="M307.895,250.789c0.051,16.94,0.186,24.206-2.536,24.473"/>
		<g>
			<path d="M307.885,246.262c-0.786,2.131-2.129,4.777-3.553,6.418l3.564-1.298l3.569,1.283
				C310.033,251.03,308.679,248.391,307.885,246.262z"/>
		</g>
	</g>
	<g transform="translate(30, 0)">
		<path display="none" fill="none" stroke="#212529" d="M-12.62,178.967h3.25v-65h-3.25"/>
		<g transform="translate(0,130.5)">
			<line fill="none" stroke="#212529" stroke-opacity="0.12" x1="-9.62" y1="48.467" x2="283.982" y2="48.467"/>
			
		</g>
		<g transform="translate(0,101.61111111111111)">
			<line fill="none" stroke="#212529" stroke-opacity="0.12" x1="-9.62" y1="62.912" x2="283.982" y2="62.912"/>
		</g>
		<g transform="translate(0,72.72222222222223)">
			<line fill="none" stroke="#212529" stroke-opacity="0.12" x1="-9.62" y1="77.356" x2="283.982" y2="77.356"/>
			
		</g>
		<g transform="translate(0,43.83333333333334)">
			<line fill="none" stroke="#212529" stroke-opacity="0.12" x1="-9.62" y1="91.8" x2="283.982" y2="91.8"/>
		</g>
		<g transform="translate(0,14.944444444444457)">
			<line fill="none" stroke="#212529" stroke-opacity="0.12" x1="-9.62" y1="106.245" x2="283.982" y2="106.245"/>
			
		</g>
	</g>
	<g>
		<g transform="translate(0,130.5)">
			<line fill="none" stroke="#212529" stroke-opacity="0.12" x1="20.376" y1="106.226" x2="313.978" y2="106.226"/>
			
		</g>
		<g transform="translate(0,101.61111111111111)">
			<line fill="none" stroke="#212529" stroke-opacity="0.12" x1="20.376" y1="120.67" x2="313.978" y2="120.67"/>
		</g>
		<g transform="translate(0,72.72222222222223)">
			<line fill="none" stroke="#212529" stroke-opacity="0.12" x1="20.376" y1="135.115" x2="313.978" y2="135.115"/>
			
		</g>
		<g transform="translate(0,43.83333333333334)">
			<line fill="none" stroke="#212529" stroke-opacity="0.12" x1="20.376" y1="149.559" x2="313.978" y2="149.559"/>
		</g>
	</g>
	<g>
		<g>
			<rect x="20.38" y="177.517" fill="#4731EF" width="0.94" height="1.45"/>
			<line fill="#4731EF" x1="22.259" y1="178.967" x2="21.32" y2="178.967"/>
			<polygon fill="#4731EF" points="23.199,174.617 22.259,174.617 22.259,178.967 23.199,178.967 23.199,176.067 			"/>
			<polygon fill="#4731EF" points="23.199,176.067 23.199,178.967 24.091,178.967 24.138,178.967 24.138,176.067 			"/>
			<line fill="#4731EF" x1="25.031" y1="178.967" x2="24.138" y2="178.967"/>
			<line fill="#4731EF" x1="24.091" y1="178.967" x2="24.138" y2="178.967"/>
			<rect x="25.031" y="177.517" fill="#4731EF" width="0.94" height="1.45"/>
			<polygon fill="#4731EF" points="26.91,160.167 25.971,160.167 25.971,177.517 25.971,178.967 26.91,178.967 26.91,176.067 			"/>
			<polygon fill="#4731EF" points="27.85,176.067 26.91,176.067 26.91,178.967 27.85,178.967 27.85,177.517 			"/>
			<rect x="27.85" y="177.517" fill="#4731EF" width="0.94" height="1.45"/>
			<polygon fill="#4731EF" points="28.79,167.417 28.79,177.517 28.79,178.967 29.682,178.967 29.682,167.417 			"/>
			<polygon fill="#4731EF" points="30.622,167.417 29.729,167.417 29.682,167.417 29.682,178.967 30.622,178.967 30.622,177.517 			
				"/>
			<rect x="30.622" y="177.517" fill="#4731EF" width="0.94" height="1.45"/>
			<polygon fill="#4731EF" points="32.501,161.617 31.561,161.617 31.561,177.517 31.561,178.967 32.501,178.967 32.501,177.517 			
				"/>
			<rect x="32.501" y="177.517" fill="#4731EF" width="0.94" height="1.45"/>
			<line fill="#4731EF" x1="34.38" y1="178.967" x2="33.441" y2="178.967"/>
			<polygon fill="#4731EF" points="34.38,176.067 34.38,178.967 35.273,178.967 35.32,178.967 35.32,176.067 			"/>
			<line fill="#4731EF" x1="36.213" y1="178.967" x2="35.32" y2="178.967"/>
			<line fill="#4731EF" x1="35.273" y1="178.967" x2="35.32" y2="178.967"/>
			<line fill="#4731EF" x1="37.152" y1="178.967" x2="36.213" y2="178.967"/>
			<line fill="#4731EF" x1="38.092" y1="178.967" x2="37.152" y2="178.967"/>
			<polygon fill="#4731EF" points="39.031,174.617 38.092,174.617 38.092,178.967 39.031,178.967 39.031,177.517 			"/>
			<rect x="39.031" y="177.517" fill="#4731EF" width="0.94" height="1.45"/>
			<line fill="#4731EF" x1="40.864" y1="178.967" x2="39.971" y2="178.967"/>
			<polygon fill="#4731EF" points="41.803,173.167 40.864,173.167 40.864,178.967 41.803,178.967 41.803,174.617 			"/>
			<polygon fill="#4731EF" points="42.743,174.617 41.803,174.617 41.803,178.967 42.743,178.967 42.743,176.067 			"/>
			<rect x="42.743" y="176.067" fill="#4731EF" width="0.94" height="2.9"/>
			<rect x="43.682" y="176.067" fill="#4731EF" width="0.94" height="2.9"/>
			<polygon fill="#4731EF" points="44.622,174.617 44.622,176.067 44.622,178.967 45.562,178.967 45.562,174.617 			"/>
			<polygon fill="#4731EF" points="46.501,176.067 46.501,174.617 45.562,174.617 45.562,178.967 46.454,178.967 46.454,176.067 			
				"/>
			<polygon fill="#4731EF" points="46.501,176.067 46.454,176.067 46.454,178.967 47.394,178.967 47.394,176.067 			"/>
			<line fill="#4731EF" x1="48.334" y1="178.967" x2="47.394" y2="178.967"/>
			<rect x="48.334" y="173.167" fill="#4731EF" width="0.94" height="5.8"/>
			<polygon fill="#4731EF" points="50.213,167.417 49.273,167.417 49.273,173.167 49.273,178.967 50.213,178.967 50.213,177.517 			
				"/>
			<rect x="50.213" y="177.517" fill="#4731EF" width="0.94" height="1.45"/>
			<line fill="#4731EF" x1="52.045" y1="178.967" x2="51.152" y2="178.967"/>
			<line fill="#4731EF" x1="52.985" y1="178.967" x2="52.045" y2="178.967"/>
			<line fill="#4731EF" x1="53.924" y1="178.967" x2="52.985" y2="178.967"/>
			<line fill="#4731EF" x1="54.864" y1="178.967" x2="53.924" y2="178.967"/>
			<line fill="#4731EF" x1="55.804" y1="178.967" x2="54.864" y2="178.967"/>
			<line fill="#4731EF" x1="56.743" y1="178.967" x2="55.804" y2="178.967"/>
			<rect x="56.743" y="176.067" fill="#4731EF" width="0.94" height="2.9"/>
			<line fill="#4731EF" x1="58.575" y1="178.967" x2="57.683" y2="178.967"/>
			<rect x="58.575" y="177.517" fill="#4731EF" width="0.94" height="1.45"/>
			<rect x="59.515" y="177.517" fill="#4731EF" width="0.94" height="1.45"/>
			<polygon fill="#4731EF" points="60.455,176.067 60.455,177.517 60.455,178.967 61.394,178.967 61.394,176.067 			"/>
			<line fill="#4731EF" x1="62.334" y1="178.967" x2="61.394" y2="178.967"/>
			<line fill="#4731EF" x1="63.274" y1="178.967" x2="62.334" y2="178.967"/>
			<polygon fill="#4731EF" points="64.213,177.517 64.213,173.167 63.274,173.167 63.274,178.967 64.166,178.967 64.166,177.517 			
				"/>
			<polygon fill="#4731EF" points="64.213,177.517 64.166,177.517 64.166,178.967 65.106,178.967 65.106,177.517 			"/>
			<polygon fill="#4731EF" points="66.045,148.617 65.106,148.617 65.106,177.517 65.106,178.967 66.045,178.967 66.045,170.317 			
				"/>
			<polygon fill="#4731EF" points="66.985,170.317 66.045,170.317 66.045,178.967 66.985,178.967 66.985,173.167 			"/>
			<rect x="66.985" y="173.167" fill="#4731EF" width="0.94" height="5.8"/>
			<polygon fill="#4731EF" points="68.864,170.317 67.925,170.317 67.925,173.167 67.925,178.967 68.864,178.967 68.864,177.517 			
				"/>
			<rect x="68.864" y="177.517" fill="#4731EF" width="0.893" height="1.45"/>
			<polygon fill="#4731EF" points="69.804,177.517 69.757,177.517 69.757,178.967 70.697,178.967 70.697,177.517 			"/>
			<rect x="70.697" y="177.517" fill="#4731EF" width="0.94" height="1.45"/>
			<polygon fill="#4731EF" points="71.636,167.417 71.636,177.517 71.636,178.967 72.576,178.967 72.576,167.417 			"/>
			<polygon fill="#4731EF" points="73.515,165.967 72.576,165.967 72.576,167.417 72.576,178.967 73.515,178.967 73.515,177.517 			
				"/>
			<rect x="73.515" y="177.517" fill="#4731EF" width="0.94" height="1.45"/>
			<line fill="#4731EF" x1="75.348" y1="178.967" x2="74.455" y2="178.967"/>
			<polygon fill="#4731EF" points="76.287,173.167 75.348,173.167 75.348,178.967 76.287,178.967 76.287,176.067 			"/>
			<polygon fill="#4731EF" points="77.227,176.067 76.287,176.067 76.287,178.967 77.227,178.967 77.227,177.517 			"/>
			<rect x="77.227" y="177.517" fill="#4731EF" width="0.94" height="1.45"/>
			<polygon fill="#4731EF" points="78.167,168.867 78.167,177.517 78.167,178.967 79.106,178.967 79.106,168.867 			"/>
			<polygon fill="#4731EF" points="80.046,163.067 79.106,163.067 79.106,168.867 79.106,178.967 80.046,178.967 80.046,176.067 			
				"/>
			<polygon fill="#4731EF" points="80.046,176.067 80.046,178.967 80.938,178.967 80.985,178.967 80.985,176.067 			"/>
			<line fill="#4731EF" x1="80.938" y1="178.967" x2="80.985" y2="178.967"/>
			<line fill="#4731EF" x1="81.878" y1="178.967" x2="80.985" y2="178.967"/>
			<polygon fill="#4731EF" points="82.818,167.417 81.878,167.417 81.878,178.967 82.818,178.967 82.818,177.517 			"/>
			<rect x="82.818" y="177.517" fill="#4731EF" width="0.94" height="1.45"/>
			<line fill="#4731EF" x1="84.697" y1="178.967" x2="83.757" y2="178.967"/>
			<rect x="84.697" y="173.167" fill="#4731EF" width="0.94" height="5.8"/>
			<line fill="#4731EF" x1="86.576" y1="178.967" x2="85.637" y2="178.967"/>
			<line fill="#4731EF" x1="87.469" y1="178.967" x2="86.576" y2="178.967"/>
			<line fill="#4731EF" x1="88.408" y1="178.967" x2="87.469" y2="178.967"/>
			<line fill="#4731EF" x1="89.348" y1="178.967" x2="88.408" y2="178.967"/>
			<line fill="#4731EF" x1="90.288" y1="178.967" x2="89.348" y2="178.967"/>
			<rect x="90.288" y="177.517" fill="#4731EF" width="0.94" height="1.45"/>
			<rect x="91.227" y="177.517" fill="#4731EF" width="0.94" height="1.45"/>
			<polygon fill="#4731EF" points="92.167,174.617 92.167,177.517 92.167,178.967 93.06,178.967 93.107,178.967 93.107,174.617 			
				"/>
			<line fill="#4731EF" x1="93.999" y1="178.967" x2="93.107" y2="178.967"/>
			<line fill="#4731EF" x1="93.107" y1="178.967" x2="93.06" y2="178.967"/>
			<line fill="#4731EF" x1="94.939" y1="178.967" x2="93.999" y2="178.967"/>
			<rect x="94.939" y="177.517" fill="#4731EF" width="0.94" height="1.45"/>
			<line fill="#4731EF" x1="96.818" y1="178.967" x2="95.878" y2="178.967"/>
			<line fill="#4731EF" x1="97.758" y1="178.967" x2="96.818" y2="178.967"/>
			<polygon fill="#4731EF" points="97.758,165.967 97.758,178.967 98.65,178.967 98.697,178.967 98.697,165.967 			"/>
			<line fill="#4731EF" x1="98.65" y1="178.967" x2="98.697" y2="178.967"/>
			<line fill="#4731EF" x1="99.59" y1="178.967" x2="98.697" y2="178.967"/>
			<rect x="99.59" y="174.617" fill="#4731EF" width="0.94" height="4.35"/>
			<line fill="#4731EF" x1="101.469" y1="178.967" x2="100.53" y2="178.967"/>
			<line fill="#4731EF" x1="102.409" y1="178.967" x2="101.469" y2="178.967"/>
			<line fill="#4731EF" x1="103.348" y1="178.967" x2="102.409" y2="178.967"/>
			<line fill="#4731EF" x1="104.241" y1="178.967" x2="103.348" y2="178.967"/>
			<line fill="#4731EF" x1="105.181" y1="178.967" x2="104.241" y2="178.967"/>
			<line fill="#4731EF" x1="106.12" y1="178.967" x2="105.181" y2="178.967"/>
			<line fill="#4731EF" x1="107.06" y1="178.967" x2="106.12" y2="178.967"/>
			<line fill="#4731EF" x1="108" y1="178.967" x2="107.06" y2="178.967"/>
			<line fill="#4731EF" x1="108.939" y1="178.967" x2="108" y2="178.967"/>
			<line fill="#4731EF" x1="109.832" y1="178.967" x2="108.939" y2="178.967"/>
			<rect x="109.832" y="174.617" fill="#4731EF" width="0.94" height="4.35"/>
			<line fill="#4731EF" x1="111.711" y1="178.967" x2="110.771" y2="178.967"/>
			<line fill="#4731EF" x1="112.651" y1="178.967" x2="111.711" y2="178.967"/>
			<line fill="#4731EF" x1="113.59" y1="178.967" x2="112.651" y2="178.967"/>
			<line fill="#4731EF" x1="114.53" y1="178.967" x2="113.59" y2="178.967"/>
			<line fill="#4731EF" x1="115.423" y1="178.967" x2="114.53" y2="178.967"/>
			<line fill="#4731EF" x1="116.362" y1="178.967" x2="115.423" y2="178.967"/>
			<line fill="#4731EF" x1="117.302" y1="178.967" x2="116.362" y2="178.967"/>
			<line fill="#4731EF" x1="118.241" y1="178.967" x2="117.302" y2="178.967"/>
			<line fill="#4731EF" x1="119.181" y1="178.967" x2="118.241" y2="178.967"/>
			<line fill="#4731EF" x1="120.121" y1="178.967" x2="119.181" y2="178.967"/>
			<line fill="#4731EF" x1="121.06" y1="178.967" x2="120.121" y2="178.967"/>
			<line fill="#4731EF" x1="121.953" y1="178.967" x2="121.06" y2="178.967"/>
			<polygon fill="#4731EF" points="122.893,174.617 121.953,174.617 121.953,178.967 122.893,178.967 122.893,176.067 			"/>
			<rect x="122.893" y="176.067" fill="#4731EF" width="0.94" height="2.9"/>
			<line fill="#4731EF" x1="124.772" y1="178.967" x2="123.832" y2="178.967"/>
			<line fill="#4731EF" x1="125.711" y1="178.967" x2="124.772" y2="178.967"/>
			<rect x="125.711" y="168.867" fill="#4731EF" width="0.94" height="10.1"/>
			<line fill="#4731EF" x1="127.544" y1="178.967" x2="126.651" y2="178.967"/>
			<line fill="#4731EF" x1="128.483" y1="178.967" x2="127.544" y2="178.967"/>
			<line fill="#4731EF" x1="129.423" y1="178.967" x2="128.483" y2="178.967"/>
			<line fill="#4731EF" x1="130.363" y1="178.967" x2="129.423" y2="178.967"/>
			<polygon fill="#4731EF" points="131.302,171.767 130.363,171.767 130.363,178.967 131.302,178.967 131.302,177.517 			"/>
			<rect x="131.302" y="177.517" fill="#4731EF" width="0.94" height="1.45"/>
			<line fill="#4731EF" x1="133.134" y1="178.967" x2="132.242" y2="178.967"/>
			<rect x="133.134" y="177.517" fill="#4731EF" width="0.94" height="1.45"/>
			<polygon fill="#4731EF" points="134.074,174.617 134.074,177.517 134.074,178.967 135.014,178.967 135.014,174.617 			"/>
			<line fill="#4731EF" x1="135.953" y1="178.967" x2="135.014" y2="178.967"/>
			<rect x="135.953" y="174.617" fill="#4731EF" width="0.94" height="4.35"/>
			<line fill="#4731EF" x1="137.833" y1="178.967" x2="136.893" y2="178.967"/>
			<polygon fill="#4731EF" points="138.772,176.067 138.772,174.617 137.833,174.617 137.833,178.967 138.725,178.967 
				138.725,176.067 			"/>
			<polygon fill="#4731EF" points="139.665,176.067 138.772,176.067 138.725,176.067 138.725,178.967 139.665,178.967 
				139.665,177.517 			"/>
			<rect x="139.665" y="177.517" fill="#4731EF" width="0.94" height="1.45"/>
			<rect x="140.604" y="177.517" fill="#4731EF" width="0.94" height="1.45"/>
			<line fill="#4731EF" x1="142.484" y1="178.967" x2="141.544" y2="178.967"/>
			<rect x="142.484" y="176.067" fill="#4731EF" width="0.94" height="2.9"/>
			<line fill="#4731EF" x1="144.316" y1="178.967" x2="143.423" y2="178.967"/>
			<line fill="#4731EF" x1="145.255" y1="178.967" x2="144.316" y2="178.967"/>
			<line fill="#4731EF" x1="146.195" y1="178.967" x2="145.255" y2="178.967"/>
			<rect x="146.195" y="176.067" fill="#4731EF" width="0.94" height="2.9"/>
			<line fill="#4731EF" x1="148.074" y1="178.967" x2="147.135" y2="178.967"/>
			<line fill="#4731EF" x1="149.014" y1="178.967" x2="148.074" y2="178.967"/>
			<line fill="#4731EF" x1="149.954" y1="178.967" x2="149.014" y2="178.967"/>
			<polygon fill="#4731EF" points="149.954,177.517 149.954,178.967 150.846,178.967 150.893,178.967 150.893,177.517 			"/>
			<line fill="#4731EF" x1="151.786" y1="178.967" x2="150.893" y2="178.967"/>
			<line fill="#4731EF" x1="150.846" y1="178.967" x2="150.893" y2="178.967"/>
			<polygon fill="#4731EF" points="152.725,173.167 151.786,173.167 151.786,178.967 152.725,178.967 152.725,176.067 			"/>
			<rect x="152.725" y="176.067" fill="#4731EF" width="0.94" height="2.9"/>
			<line fill="#4731EF" x1="154.605" y1="178.967" x2="153.665" y2="178.967"/>
			<rect x="154.605" y="176.067" fill="#4731EF" width="0.94" height="2.9"/>
			<polygon fill="#4731EF" points="155.544,160.167 155.544,176.067 155.544,178.967 156.437,178.967 156.437,160.167 			"/>
			<polygon fill="#4731EF" points="157.377,150.067 156.437,150.067 156.437,160.167 156.437,178.967 157.377,178.967 
				157.377,174.617 			"/>
			<rect x="157.377" y="174.617" fill="#4731EF" width="0.94" height="4.35"/>
			<polygon fill="#4731EF" points="159.256,155.867 158.316,155.867 158.316,174.617 158.316,178.967 159.256,178.967 
				159.256,174.617 			"/>
			<polygon fill="#4731EF" points="160.195,174.617 159.256,174.617 159.256,178.967 160.195,178.967 160.195,176.067 			"/>
			<rect x="160.195" y="176.067" fill="#4731EF" width="0.94" height="2.9"/>
			<line fill="#4731EF" x1="162.028" y1="178.967" x2="161.135" y2="178.967"/>
			<rect x="162.028" y="177.517" fill="#4731EF" width="0.94" height="1.45"/>
			<polygon fill="#4731EF" points="162.967,176.067 162.967,177.517 162.967,178.967 163.907,178.967 163.907,176.067 			"/>
			<line fill="#4731EF" x1="164.847" y1="178.967" x2="163.907" y2="178.967"/>
			<rect x="164.847" y="176.067" fill="#4731EF" width="0.94" height="2.9"/>
			<line fill="#4731EF" x1="166.726" y1="178.967" x2="165.786" y2="178.967"/>
			<line fill="#4731EF" x1="167.618" y1="178.967" x2="166.726" y2="178.967"/>
			<line fill="#4731EF" x1="168.558" y1="178.967" x2="167.618" y2="178.967"/>
			<line fill="#4731EF" x1="169.498" y1="178.967" x2="168.558" y2="178.967"/>
			<polygon fill="#4731EF" points="170.437,167.417 169.498,167.417 169.498,178.967 170.437,178.967 170.437,171.767 			"/>
			<polygon fill="#4731EF" points="171.377,171.767 170.437,171.767 170.437,178.967 171.377,178.967 171.377,176.067 			"/>
			<rect x="171.377" y="176.067" fill="#4731EF" width="0.94" height="2.9"/>
			<polygon fill="#4731EF" points="173.256,160.167 173.256,155.867 172.317,155.867 172.317,176.067 172.317,178.967 
				173.209,178.967 173.209,160.167 			"/>
			<polygon fill="#4731EF" points="174.149,160.167 173.256,160.167 173.209,160.167 173.209,178.967 174.149,178.967 
				174.149,176.067 			"/>
			<rect x="174.149" y="176.067" fill="#4731EF" width="0.94" height="2.9"/>
			<rect x="175.088" y="176.067" fill="#4731EF" width="0.94" height="2.9"/>
			<rect x="176.028" y="176.067" fill="#4731EF" width="0.94" height="2.9"/>
			<line fill="#4731EF" x1="177.907" y1="178.967" x2="176.968" y2="178.967"/>
			<polygon fill="#4731EF" points="177.907,176.067 177.907,178.967 178.8,178.967 178.847,178.967 178.847,176.067 			"/>
			<line fill="#4731EF" x1="178.8" y1="178.967" x2="178.847" y2="178.967"/>
			<line fill="#4731EF" x1="179.74" y1="178.967" x2="178.847" y2="178.967"/>
			<line fill="#4731EF" x1="180.679" y1="178.967" x2="179.74" y2="178.967"/>
			<line fill="#4731EF" x1="181.619" y1="178.967" x2="180.679" y2="178.967"/>
			<polygon fill="#4731EF" points="182.558,155.867 181.619,155.867 181.619,178.967 182.558,178.967 182.558,170.317 			"/>
			<rect x="182.558" y="170.317" fill="#4731EF" width="0.94" height="8.65"/>
			<line fill="#4731EF" x1="184.438" y1="178.967" x2="183.498" y2="178.967"/>
			<rect x="184.438" y="177.517" fill="#4731EF" width="0.893" height="1.45"/>
			<polygon fill="#4731EF" points="185.33,176.067 185.33,177.517 185.33,178.967 186.27,178.967 186.27,176.067 			"/>
			<rect x="186.27" y="176.067" fill="#4731EF" width="0.94" height="2.9"/>
			<polygon fill="#4731EF" points="187.21,171.767 187.21,176.067 187.21,178.967 188.149,178.967 188.149,171.767 			"/>
			<line fill="#4731EF" x1="189.089" y1="178.967" x2="188.149" y2="178.967"/>
			<rect x="189.089" y="177.517" fill="#4731EF" width="0.94" height="1.45"/>
			<polygon fill="#4731EF" points="190.028,167.417 190.028,177.517 190.028,178.967 190.921,178.967 190.968,178.967 
				190.968,167.417 			"/>
			<line fill="#4731EF" x1="191.861" y1="178.967" x2="190.968" y2="178.967"/>
			<line fill="#4731EF" x1="190.921" y1="178.967" x2="190.968" y2="178.967"/>
			<rect x="191.861" y="176.067" fill="#4731EF" width="0.94" height="2.9"/>
			<line fill="#4731EF" x1="193.74" y1="178.967" x2="192.8" y2="178.967"/>
			<line fill="#4731EF" x1="194.68" y1="178.967" x2="193.74" y2="178.967"/>
			<rect x="194.68" y="163.067" fill="#4731EF" width="0.94" height="15.9"/>
			<line fill="#4731EF" x1="196.512" y1="178.967" x2="195.619" y2="178.967"/>
			<line fill="#4731EF" x1="197.451" y1="178.967" x2="196.512" y2="178.967"/>
			<line fill="#4731EF" x1="198.391" y1="178.967" x2="197.451" y2="178.967"/>
			<rect x="198.391" y="177.517" fill="#4731EF" width="0.94" height="1.45"/>
			<polygon fill="#4731EF" points="199.331,164.517 199.331,177.517 199.331,178.967 200.27,178.967 200.27,164.517 			"/>
			<line fill="#4731EF" x1="201.21" y1="178.967" x2="200.27" y2="178.967"/>
			<line fill="#4731EF" x1="202.103" y1="178.967" x2="201.21" y2="178.967"/>
			<line fill="#4731EF" x1="203.042" y1="178.967" x2="202.103" y2="178.967"/>
			<line fill="#4731EF" x1="203.982" y1="178.967" x2="203.042" y2="178.967"/>
			<line fill="#4731EF" x1="204.921" y1="178.967" x2="203.982" y2="178.967"/>
			<rect x="204.921" y="174.617" fill="#4731EF" width="0.94" height="4.35"/>
			<line fill="#4731EF" x1="206.801" y1="178.967" x2="205.861" y2="178.967"/>
			<polygon fill="#4731EF" points="206.801,167.417 206.801,178.967 207.693,178.967 207.74,178.967 207.74,167.417 			"/>
			<line fill="#4731EF" x1="208.633" y1="178.967" x2="207.74" y2="178.967"/>
			<line fill="#4731EF" x1="207.693" y1="178.967" x2="207.74" y2="178.967"/>
			<polygon fill="#4731EF" points="209.573,168.867 208.633,168.867 208.633,178.967 209.573,178.967 209.573,173.167 			"/>
			<rect x="209.573" y="173.167" fill="#4731EF" width="0.94" height="5.8"/>
			<line fill="#4731EF" x1="211.452" y1="178.967" x2="210.512" y2="178.967"/>
			<rect x="211.452" y="177.517" fill="#4731EF" width="0.94" height="1.45"/>
			<line fill="#4731EF" x1="213.331" y1="178.967" x2="212.391" y2="178.967"/>
			<line fill="#4731EF" x1="214.224" y1="178.967" x2="213.331" y2="178.967"/>
			<line fill="#4731EF" x1="215.163" y1="178.967" x2="214.224" y2="178.967"/>
			<line fill="#4731EF" x1="216.103" y1="178.967" x2="215.163" y2="178.967"/>
			<line fill="#4731EF" x1="217.043" y1="178.967" x2="216.103" y2="178.967"/>
			<rect x="217.043" y="176.067" fill="#4731EF" width="0.94" height="2.9"/>
			<polygon fill="#4731EF" points="218.922,151.517 217.982,151.517 217.982,176.067 217.982,178.967 218.922,178.967 
				218.922,163.067 			"/>
			<polygon fill="#4731EF" points="218.922,163.067 218.922,178.967 219.814,178.967 219.861,178.967 219.861,163.067 			"/>
			<line fill="#4731EF" x1="220.754" y1="178.967" x2="219.861" y2="178.967"/>
			<line fill="#4731EF" x1="219.814" y1="178.967" x2="219.861" y2="178.967"/>
			<rect x="220.754" y="171.767" fill="#4731EF" width="0.94" height="7.2"/>
			<polygon fill="#4731EF" points="222.633,167.417 221.694,167.417 221.694,171.767 221.694,178.967 222.633,178.967 
				222.633,176.067 			"/>
			<rect x="222.633" y="176.067" fill="#4731EF" width="0.94" height="2.9"/>
			<line fill="#4731EF" x1="224.513" y1="178.967" x2="223.573" y2="178.967"/>
			<polygon fill="#4731EF" points="224.513,174.617 224.513,178.967 225.405,178.967 225.452,178.967 225.452,174.617 			"/>
			<line fill="#4731EF" x1="226.345" y1="178.967" x2="225.452" y2="178.967"/>
			<line fill="#4731EF" x1="225.405" y1="178.967" x2="225.452" y2="178.967"/>
			<line fill="#4731EF" x1="227.284" y1="178.967" x2="226.345" y2="178.967"/>
			<line fill="#4731EF" x1="228.224" y1="178.967" x2="227.284" y2="178.967"/>
			<rect x="228.224" y="177.517" fill="#4731EF" width="0.94" height="1.45"/>
			<line fill="#4731EF" x1="230.103" y1="178.967" x2="229.164" y2="178.967"/>
			<polygon fill="#4731EF" points="231.043,177.517 231.043,176.067 230.103,176.067 230.103,178.967 230.996,178.967 
				230.996,177.517 			"/>
			<polygon fill="#4731EF" points="231.043,177.517 230.996,177.517 230.996,178.967 231.936,178.967 231.936,177.517 			"/>
			<line fill="#4731EF" x1="232.875" y1="178.967" x2="231.936" y2="178.967"/>
			<rect x="232.875" y="170.317" fill="#4731EF" width="0.94" height="8.65"/>
			<line fill="#4731EF" x1="234.754" y1="178.967" x2="233.815" y2="178.967"/>
			<rect x="234.754" y="132.767" fill="#4731EF" width="0.94" height="46.2"/>
			<polygon fill="#4731EF" points="236.634,177.517 236.634,118.317 235.694,118.317 235.694,132.767 235.694,178.967 
				236.587,178.967 236.587,177.517 			"/>
			<polygon fill="#4731EF" points="236.634,177.517 236.587,177.517 236.587,178.967 237.526,178.967 237.526,177.517 			"/>
			<polygon fill="#4731EF" points="237.526,170.317 237.526,177.517 237.526,178.967 238.466,178.967 238.466,170.317 			"/>
			<line fill="#4731EF" x1="239.406" y1="178.967" x2="238.466" y2="178.967"/>
			<line fill="#4731EF" x1="240.345" y1="178.967" x2="239.406" y2="178.967"/>
			<line fill="#4731EF" x1="241.285" y1="178.967" x2="240.345" y2="178.967"/>
			<line fill="#4731EF" x1="242.177" y1="178.967" x2="241.285" y2="178.967"/>
			<line fill="#4731EF" x1="243.117" y1="178.967" x2="242.177" y2="178.967"/>
			<rect x="243.117" y="177.517" fill="#4731EF" width="0.94" height="1.45"/>
			<polygon fill="#4731EF" points="244.057,176.067 244.057,177.517 244.057,178.967 244.996,178.967 244.996,176.067 			"/>
			<line fill="#4731EF" x1="245.936" y1="178.967" x2="244.996" y2="178.967"/>
			<line fill="#4731EF" x1="246.875" y1="178.967" x2="245.936" y2="178.967"/>
			<line fill="#4731EF" x1="247.815" y1="178.967" x2="246.875" y2="178.967"/>
			<line fill="#4731EF" x1="248.708" y1="178.967" x2="247.815" y2="178.967"/>
			<line fill="#4731EF" x1="249.647" y1="178.967" x2="248.708" y2="178.967"/>
			<line fill="#4731EF" x1="250.587" y1="178.967" x2="249.647" y2="178.967"/>
			<polygon fill="#4731EF" points="251.527,168.867 250.587,168.867 250.587,178.967 251.527,178.967 251.527,171.767 			"/>
			<rect x="251.527" y="171.767" fill="#4731EF" width="0.94" height="7.2"/>
			<line fill="#4731EF" x1="253.406" y1="178.967" x2="252.466" y2="178.967"/>
			<line fill="#4731EF" x1="254.298" y1="178.967" x2="253.406" y2="178.967"/>
			<rect x="254.298" y="177.517" fill="#4731EF" width="0.94" height="1.45"/>
			<line fill="#4731EF" x1="256.178" y1="178.967" x2="255.238" y2="178.967"/>
			<rect x="256.178" y="152.967" fill="#4731EF" width="0.94" height="26"/>
			<line fill="#4731EF" x1="258.057" y1="178.967" x2="257.117" y2="178.967"/>
			<polygon fill="#4731EF" points="258.997,165.967 258.057,165.967 258.057,178.967 258.997,178.967 258.997,177.517 			"/>
			<rect x="258.997" y="177.517" fill="#4731EF" width="0.893" height="1.45"/>
			<polygon fill="#4731EF" points="259.889,174.617 259.889,177.517 259.889,178.967 260.829,178.967 260.829,174.617 			"/>
			<polygon fill="#4731EF" points="261.768,171.767 260.829,171.767 260.829,174.617 260.829,178.967 261.768,178.967 
				261.768,174.617 			"/>
			<rect x="261.768" y="174.617" fill="#4731EF" width="0.94" height="4.35"/>
			<polygon fill="#4731EF" points="263.648,170.317 262.708,170.317 262.708,174.617 262.708,178.967 263.648,178.967 
				263.648,177.517 			"/>
			<rect x="263.648" y="177.517" fill="#4731EF" width="0.94" height="1.45"/>
			<line fill="#4731EF" x1="265.48" y1="178.967" x2="264.587" y2="178.967"/>
			<line fill="#4731EF" x1="266.42" y1="178.967" x2="265.48" y2="178.967"/>
			<rect x="266.42" y="176.067" fill="#4731EF" width="0.94" height="2.9"/>
			<line fill="#4731EF" x1="268.299" y1="178.967" x2="267.359" y2="178.967"/>
			<polygon fill="#4731EF" points="269.238,170.317 268.299,170.317 268.299,178.967 269.238,178.967 269.238,176.067 			"/>
			<rect x="269.238" y="176.067" fill="#4731EF" width="0.94" height="2.9"/>
			<line fill="#4731EF" x1="271.071" y1="178.967" x2="270.178" y2="178.967"/>
			<line fill="#4731EF" x1="272.01" y1="178.967" x2="271.071" y2="178.967"/>
			<line fill="#4731EF" x1="272.95" y1="178.967" x2="272.01" y2="178.967"/>
			<line fill="#4731EF" x1="273.89" y1="178.967" x2="272.95" y2="178.967"/>
			<line fill="#4731EF" x1="274.829" y1="178.967" x2="273.89" y2="178.967"/>
			<line fill="#4731EF" x1="275.769" y1="178.967" x2="274.829" y2="178.967"/>
			<rect x="275.769" y="177.517" fill="#4731EF" width="0.94" height="1.45"/>
			<line fill="#4731EF" x1="277.601" y1="178.967" x2="276.708" y2="178.967"/>
			<line fill="#4731EF" x1="278.541" y1="178.967" x2="277.601" y2="178.967"/>
			<rect x="278.541" y="177.517" fill="#4731EF" width="0.94" height="1.45"/>
			<line fill="#4731EF" x1="280.42" y1="178.967" x2="279.48" y2="178.967"/>
			<line fill="#4731EF" x1="281.36" y1="178.967" x2="280.42" y2="178.967"/>
			<line fill="#4731EF" x1="282.299" y1="178.967" x2="281.36" y2="178.967"/>
			<line fill="#4731EF" x1="283.192" y1="178.967" x2="282.299" y2="178.967"/>
			<line fill="#4731EF" x1="284.131" y1="178.967" x2="283.192" y2="178.967"/>
			<rect x="284.131" y="176.067" fill="#4731EF" width="0.94" height="2.9"/>
			<polygon fill="#4731EF" points="286.011,176.067 285.071,176.067 285.071,178.967 286.011,178.967 286.011,177.517 			"/>
			<rect x="286.011" y="177.517" fill="#4731EF" width="0.94" height="1.45"/>
			<rect x="286.95" y="177.517" fill="#4731EF" width="0.94" height="1.45"/>
			<line fill="#4731EF" x1="288.783" y1="178.967" x2="287.89" y2="178.967"/>
			<line fill="#4731EF" x1="289.722" y1="178.967" x2="288.783" y2="178.967"/>
			<line fill="#4731EF" x1="290.662" y1="178.967" x2="289.722" y2="178.967"/>
			<line fill="#4731EF" x1="291.601" y1="178.967" x2="290.662" y2="178.967"/>
			<rect x="291.601" y="177.517" fill="#4731EF" width="0.94" height="1.45"/>
			<line fill="#4731EF" x1="293.481" y1="178.967" x2="292.541" y2="178.967"/>
			<rect x="293.481" y="177.517" fill="#4731EF" width="0.893" height="1.45"/>
			<polygon fill="#4731EF" points="295.313,173.167 294.373,173.167 294.373,177.517 294.373,178.967 295.313,178.967 
				295.313,177.517 			"/>
			<rect x="295.313" y="177.517" fill="#4731EF" width="0.94" height="1.45"/>
			<rect x="296.253" y="177.517" fill="#4731EF" width="0.94" height="1.45"/>
			<line fill="#4731EF" x1="298.132" y1="178.967" x2="297.192" y2="178.967"/>
			<line fill="#4731EF" x1="299.071" y1="178.967" x2="298.132" y2="178.967"/>
			<polygon fill="#4731EF" points="300.011,176.067 300.011,171.767 299.071,171.767 299.071,178.967 299.964,178.967 
				299.964,176.067 			"/>
			<polygon fill="#4731EF" points="300.011,176.067 299.964,176.067 299.964,178.967 300.904,178.967 300.904,176.067 			"/>
			<polygon fill="#4731EF" points="301.843,176.067 300.904,176.067 300.904,178.967 301.843,178.967 301.843,177.517 			"/>
			<rect x="301.843" y="177.517" fill="#4731EF" width="0.94" height="1.45"/>
			<line fill="#4731EF" x1="303.723" y1="178.967" x2="302.783" y2="178.967"/>
			<line fill="#4731EF" x1="304.662" y1="178.967" x2="303.723" y2="178.967"/>
			<rect x="304.662" y="177.517" fill="#4731EF" width="0.893" height="1.45"/>
			<polygon fill="#4731EF" points="305.555,176.067 305.555,177.517 305.555,178.967 306.494,178.967 306.494,176.067 			"/>
			<line fill="#4731EF" x1="307.434" y1="178.967" x2="306.494" y2="178.967"/>
			<rect x="307.434" y="174.617" fill="#4731EF" width="0.94" height="4.35"/>
		</g>
		<g>
			<rect x="20.38" y="177.517" fill="#4731EF" width="0.94" height="1.45"/>
			
				<line fill="none" stroke="#000000" stroke-width="0" stroke-linecap="round" stroke-linejoin="round" x1="22.259" y1="178.967" x2="21.32" y2="178.967"/>
			<polygon fill="#4731EF" points="23.199,174.617 22.259,174.617 22.259,178.967 23.199,178.967 23.199,176.067 			"/>
			<polygon fill="#4731EF" points="23.199,176.067 23.199,178.967 24.091,178.967 24.138,178.967 24.138,176.067 			"/>
			
				<line fill="none" stroke="#000000" stroke-width="0" stroke-linecap="round" stroke-linejoin="round" x1="25.031" y1="178.967" x2="24.138" y2="178.967"/>
			
				<line fill="none" stroke="#000000" stroke-width="0" stroke-linecap="round" stroke-linejoin="round" x1="24.091" y1="178.967" x2="24.138" y2="178.967"/>
			<rect x="25.031" y="177.517" fill="#4731EF" width="0.94" height="1.45"/>
			<polygon fill="#4731EF" points="26.91,160.167 25.971,160.167 25.971,177.517 25.971,178.967 26.91,178.967 26.91,176.067 			"/>
			<polygon fill="#4731EF" points="27.85,176.067 26.91,176.067 26.91,178.967 27.85,178.967 27.85,177.517 			"/>
			<rect x="27.85" y="177.517" fill="#4731EF" width="0.94" height="1.45"/>
			<polygon fill="#4731EF" points="28.79,167.417 28.79,177.517 28.79,178.967 29.682,178.967 29.682,167.417 			"/>
			<polygon fill="#4731EF" points="30.622,167.417 29.729,167.417 29.682,167.417 29.682,178.967 30.622,178.967 30.622,177.517 			
				"/>
			<rect x="30.622" y="177.517" fill="#4731EF" width="0.94" height="1.45"/>
			<polygon fill="#4731EF" points="32.501,161.617 31.561,161.617 31.561,177.517 31.561,178.967 32.501,178.967 32.501,177.517 			
				"/>
			<rect x="32.501" y="177.517" fill="#4731EF" width="0.94" height="1.45"/>
			
				<line fill="none" stroke="#000000" stroke-width="0" stroke-linecap="round" stroke-linejoin="round" x1="34.38" y1="178.967" x2="33.441" y2="178.967"/>
			<polygon fill="#4731EF" points="34.38,176.067 34.38,178.967 35.273,178.967 35.32,178.967 35.32,176.067 			"/>
			
				<line fill="none" stroke="#000000" stroke-width="0" stroke-linecap="round" stroke-linejoin="round" x1="36.213" y1="178.967" x2="35.32" y2="178.967"/>
			
				<line fill="none" stroke="#000000" stroke-width="0" stroke-linecap="round" stroke-linejoin="round" x1="35.273" y1="178.967" x2="35.32" y2="178.967"/>
			
				<line fill="none" stroke="#000000" stroke-width="0" stroke-linecap="round" stroke-linejoin="round" x1="37.152" y1="178.967" x2="36.213" y2="178.967"/>
			
				<line fill="none" stroke="#000000" stroke-width="0" stroke-linecap="round" stroke-linejoin="round" x1="38.092" y1="178.967" x2="37.152" y2="178.967"/>
			<polygon fill="#4731EF" points="39.031,174.617 38.092,174.617 38.092,178.967 39.031,178.967 39.031,177.517 			"/>
			<rect x="39.031" y="177.517" fill="#4731EF" width="0.94" height="1.45"/>
			
				<line fill="none" stroke="#000000" stroke-width="0" stroke-linecap="round" stroke-linejoin="round" x1="40.864" y1="178.967" x2="39.971" y2="178.967"/>
			<polygon fill="#4731EF" points="41.803,173.167 40.864,173.167 40.864,178.967 41.803,178.967 41.803,174.617 			"/>
			<polygon fill="#4731EF" points="42.743,174.617 41.803,174.617 41.803,178.967 42.743,178.967 42.743,176.067 			"/>
			<rect x="42.743" y="176.067" fill="#4731EF" width="0.94" height="2.9"/>
			<rect x="43.682" y="176.067" fill="#4731EF" width="0.94" height="2.9"/>
			<polygon fill="#4731EF" points="44.622,174.617 44.622,176.067 44.622,178.967 45.562,178.967 45.562,174.617 			"/>
			<polygon fill="#4731EF" points="46.501,176.067 46.501,174.617 45.562,174.617 45.562,178.967 46.454,178.967 46.454,176.067 			
				"/>
			<polygon fill="#4731EF" points="46.501,176.067 46.454,176.067 46.454,178.967 47.394,178.967 47.394,176.067 			"/>
			
				<line fill="none" stroke="#000000" stroke-width="0" stroke-linecap="round" stroke-linejoin="round" x1="48.334" y1="178.967" x2="47.394" y2="178.967"/>
			<rect x="48.334" y="173.167" fill="#4731EF" width="0.94" height="5.8"/>
			<polygon fill="#4731EF" points="50.213,167.417 49.273,167.417 49.273,173.167 49.273,178.967 50.213,178.967 50.213,177.517 			
				"/>
			<rect x="50.213" y="177.517" fill="#4731EF" width="0.94" height="1.45"/>
			
				<line fill="none" stroke="#000000" stroke-width="0" stroke-linecap="round" stroke-linejoin="round" x1="52.045" y1="178.967" x2="51.152" y2="178.967"/>
			
				<line fill="none" stroke="#000000" stroke-width="0" stroke-linecap="round" stroke-linejoin="round" x1="52.985" y1="178.967" x2="52.045" y2="178.967"/>
			
				<line fill="none" stroke="#000000" stroke-width="0" stroke-linecap="round" stroke-linejoin="round" x1="53.924" y1="178.967" x2="52.985" y2="178.967"/>
			
				<line fill="none" stroke="#000000" stroke-width="0" stroke-linecap="round" stroke-linejoin="round" x1="54.864" y1="178.967" x2="53.924" y2="178.967"/>
			
				<line fill="none" stroke="#000000" stroke-width="0" stroke-linecap="round" stroke-linejoin="round" x1="55.804" y1="178.967" x2="54.864" y2="178.967"/>
			
				<line fill="none" stroke="#000000" stroke-width="0" stroke-linecap="round" stroke-linejoin="round" x1="56.743" y1="178.967" x2="55.804" y2="178.967"/>
			<rect x="56.743" y="176.067" fill="#4731EF" width="0.94" height="2.9"/>
			
				<line fill="none" stroke="#000000" stroke-width="0" stroke-linecap="round" stroke-linejoin="round" x1="58.575" y1="178.967" x2="57.683" y2="178.967"/>
			<rect x="58.575" y="177.517" fill="#4731EF" width="0.94" height="1.45"/>
			<rect x="59.515" y="177.517" fill="#4731EF" width="0.94" height="1.45"/>
			<polygon fill="#4731EF" points="60.455,176.067 60.455,177.517 60.455,178.967 61.394,178.967 61.394,176.067 			"/>
			
				<line fill="none" stroke="#000000" stroke-width="0" stroke-linecap="round" stroke-linejoin="round" x1="62.334" y1="178.967" x2="61.394" y2="178.967"/>
			
				<line fill="none" stroke="#000000" stroke-width="0" stroke-linecap="round" stroke-linejoin="round" x1="63.274" y1="178.967" x2="62.334" y2="178.967"/>
			<polygon fill="#4731EF" points="64.213,177.517 64.213,173.167 63.274,173.167 63.274,178.967 64.166,178.967 64.166,177.517 			
				"/>
			<polygon fill="#4731EF" points="64.213,177.517 64.166,177.517 64.166,178.967 65.106,178.967 65.106,177.517 			"/>
			<polygon fill="#4731EF" points="66.045,148.617 65.106,148.617 65.106,177.517 65.106,178.967 66.045,178.967 66.045,170.317 			
				"/>
			<polygon fill="#4731EF" points="66.985,170.317 66.045,170.317 66.045,178.967 66.985,178.967 66.985,173.167 			"/>
			<rect x="66.985" y="173.167" fill="#4731EF" width="0.94" height="5.8"/>
			<polygon fill="#4731EF" points="68.864,170.317 67.925,170.317 67.925,173.167 67.925,178.967 68.864,178.967 68.864,177.517 			
				"/>
			<rect x="68.864" y="177.517" fill="#4731EF" width="0.893" height="1.45"/>
			<polygon fill="#4731EF" points="69.804,177.517 69.757,177.517 69.757,178.967 70.697,178.967 70.697,177.517 			"/>
			<rect x="70.697" y="177.517" fill="#4731EF" width="0.94" height="1.45"/>
			<polygon fill="#4731EF" points="71.636,167.417 71.636,177.517 71.636,178.967 72.576,178.967 72.576,167.417 			"/>
			<polygon fill="#4731EF" points="73.515,165.967 72.576,165.967 72.576,167.417 72.576,178.967 73.515,178.967 73.515,177.517 			
				"/>
			<rect x="73.515" y="177.517" fill="#4731EF" width="0.94" height="1.45"/>
			
				<line fill="none" stroke="#000000" stroke-width="0" stroke-linecap="round" stroke-linejoin="round" x1="75.348" y1="178.967" x2="74.455" y2="178.967"/>
			<polygon fill="#4731EF" points="76.287,173.167 75.348,173.167 75.348,178.967 76.287,178.967 76.287,176.067 			"/>
			<polygon fill="#4731EF" points="77.227,176.067 76.287,176.067 76.287,178.967 77.227,178.967 77.227,177.517 			"/>
			<rect x="77.227" y="177.517" fill="#4731EF" width="0.94" height="1.45"/>
			<polygon fill="#4731EF" points="78.167,168.867 78.167,177.517 78.167,178.967 79.106,178.967 79.106,168.867 			"/>
			<polygon fill="#4731EF" points="80.046,163.067 79.106,163.067 79.106,168.867 79.106,178.967 80.046,178.967 80.046,176.067 			
				"/>
			<polygon fill="#4731EF" points="80.046,176.067 80.046,178.967 80.938,178.967 80.985,178.967 80.985,176.067 			"/>
			
				<line fill="none" stroke="#000000" stroke-width="0" stroke-linecap="round" stroke-linejoin="round" x1="80.938" y1="178.967" x2="80.985" y2="178.967"/>
			
				<line fill="none" stroke="#000000" stroke-width="0" stroke-linecap="round" stroke-linejoin="round" x1="81.878" y1="178.967" x2="80.985" y2="178.967"/>
			<polygon fill="#4731EF" points="82.818,167.417 81.878,167.417 81.878,178.967 82.818,178.967 82.818,177.517 			"/>
			<rect x="82.818" y="177.517" fill="#4731EF" width="0.94" height="1.45"/>
			
				<line fill="none" stroke="#000000" stroke-width="0" stroke-linecap="round" stroke-linejoin="round" x1="84.697" y1="178.967" x2="83.757" y2="178.967"/>
			<rect x="84.697" y="173.167" fill="#4731EF" width="0.94" height="5.8"/>
			
				<line fill="none" stroke="#000000" stroke-width="0" stroke-linecap="round" stroke-linejoin="round" x1="86.576" y1="178.967" x2="85.637" y2="178.967"/>
			
				<line fill="none" stroke="#000000" stroke-width="0" stroke-linecap="round" stroke-linejoin="round" x1="87.469" y1="178.967" x2="86.576" y2="178.967"/>
			
				<line fill="none" stroke="#000000" stroke-width="0" stroke-linecap="round" stroke-linejoin="round" x1="88.408" y1="178.967" x2="87.469" y2="178.967"/>
			
				<line fill="none" stroke="#000000" stroke-width="0" stroke-linecap="round" stroke-linejoin="round" x1="89.348" y1="178.967" x2="88.408" y2="178.967"/>
			
				<line fill="none" stroke="#000000" stroke-width="0" stroke-linecap="round" stroke-linejoin="round" x1="90.288" y1="178.967" x2="89.348" y2="178.967"/>
			<rect x="90.288" y="177.517" fill="#4731EF" width="0.94" height="1.45"/>
			<rect x="91.227" y="177.517" fill="#4731EF" width="0.94" height="1.45"/>
			<polygon fill="#4731EF" points="92.167,174.617 92.167,177.517 92.167,178.967 93.06,178.967 93.107,178.967 93.107,174.617 			
				"/>
			
				<line fill="none" stroke="#000000" stroke-width="0" stroke-linecap="round" stroke-linejoin="round" x1="93.999" y1="178.967" x2="93.107" y2="178.967"/>
			
				<line fill="none" stroke="#000000" stroke-width="0" stroke-linecap="round" stroke-linejoin="round" x1="93.107" y1="178.967" x2="93.06" y2="178.967"/>
			
				<line fill="none" stroke="#000000" stroke-width="0" stroke-linecap="round" stroke-linejoin="round" x1="94.939" y1="178.967" x2="93.999" y2="178.967"/>
			<rect x="94.939" y="177.517" fill="#4731EF" width="0.94" height="1.45"/>
			
				<line fill="none" stroke="#000000" stroke-width="0" stroke-linecap="round" stroke-linejoin="round" x1="96.818" y1="178.967" x2="95.878" y2="178.967"/>
			
				<line fill="none" stroke="#000000" stroke-width="0" stroke-linecap="round" stroke-linejoin="round" x1="97.758" y1="178.967" x2="96.818" y2="178.967"/>
			<polygon fill="#4731EF" points="97.758,165.967 97.758,178.967 98.65,178.967 98.697,178.967 98.697,165.967 			"/>
			
				<line fill="none" stroke="#000000" stroke-width="0" stroke-linecap="round" stroke-linejoin="round" x1="98.65" y1="178.967" x2="98.697" y2="178.967"/>
			
				<line fill="none" stroke="#000000" stroke-width="0" stroke-linecap="round" stroke-linejoin="round" x1="99.59" y1="178.967" x2="98.697" y2="178.967"/>
			<rect x="99.59" y="174.617" fill="#4731EF" width="0.94" height="4.35"/>
			
				<line fill="none" stroke="#000000" stroke-width="0" stroke-linecap="round" stroke-linejoin="round" x1="101.469" y1="178.967" x2="100.53" y2="178.967"/>
			
				<line fill="none" stroke="#000000" stroke-width="0" stroke-linecap="round" stroke-linejoin="round" x1="102.409" y1="178.967" x2="101.469" y2="178.967"/>
			
				<line fill="none" stroke="#000000" stroke-width="0" stroke-linecap="round" stroke-linejoin="round" x1="103.348" y1="178.967" x2="102.409" y2="178.967"/>
			
				<line fill="none" stroke="#000000" stroke-width="0" stroke-linecap="round" stroke-linejoin="round" x1="104.241" y1="178.967" x2="103.348" y2="178.967"/>
			
				<line fill="none" stroke="#000000" stroke-width="0" stroke-linecap="round" stroke-linejoin="round" x1="105.181" y1="178.967" x2="104.241" y2="178.967"/>
			
				<line fill="none" stroke="#000000" stroke-width="0" stroke-linecap="round" stroke-linejoin="round" x1="106.12" y1="178.967" x2="105.181" y2="178.967"/>
			
				<line fill="none" stroke="#000000" stroke-width="0" stroke-linecap="round" stroke-linejoin="round" x1="107.06" y1="178.967" x2="106.12" y2="178.967"/>
			
				<line fill="none" stroke="#000000" stroke-width="0" stroke-linecap="round" stroke-linejoin="round" x1="108" y1="178.967" x2="107.06" y2="178.967"/>
			
				<line fill="none" stroke="#000000" stroke-width="0" stroke-linecap="round" stroke-linejoin="round" x1="108.939" y1="178.967" x2="108" y2="178.967"/>
			
				<line fill="none" stroke="#000000" stroke-width="0" stroke-linecap="round" stroke-linejoin="round" x1="109.832" y1="178.967" x2="108.939" y2="178.967"/>
			<rect x="109.832" y="174.617" fill="#4731EF" width="0.94" height="4.35"/>
			
				<line fill="none" stroke="#000000" stroke-width="0" stroke-linecap="round" stroke-linejoin="round" x1="111.711" y1="178.967" x2="110.771" y2="178.967"/>
			
				<line fill="none" stroke="#000000" stroke-width="0" stroke-linecap="round" stroke-linejoin="round" x1="112.651" y1="178.967" x2="111.711" y2="178.967"/>
			
				<line fill="none" stroke="#000000" stroke-width="0" stroke-linecap="round" stroke-linejoin="round" x1="113.59" y1="178.967" x2="112.651" y2="178.967"/>
			
				<line fill="none" stroke="#000000" stroke-width="0" stroke-linecap="round" stroke-linejoin="round" x1="114.53" y1="178.967" x2="113.59" y2="178.967"/>
			
				<line fill="none" stroke="#000000" stroke-width="0" stroke-linecap="round" stroke-linejoin="round" x1="115.423" y1="178.967" x2="114.53" y2="178.967"/>
			
				<line fill="none" stroke="#000000" stroke-width="0" stroke-linecap="round" stroke-linejoin="round" x1="116.362" y1="178.967" x2="115.423" y2="178.967"/>
			
				<line fill="none" stroke="#000000" stroke-width="0" stroke-linecap="round" stroke-linejoin="round" x1="117.302" y1="178.967" x2="116.362" y2="178.967"/>
			
				<line fill="none" stroke="#000000" stroke-width="0" stroke-linecap="round" stroke-linejoin="round" x1="118.241" y1="178.967" x2="117.302" y2="178.967"/>
			
				<line fill="none" stroke="#000000" stroke-width="0" stroke-linecap="round" stroke-linejoin="round" x1="119.181" y1="178.967" x2="118.241" y2="178.967"/>
			
				<line fill="none" stroke="#000000" stroke-width="0" stroke-linecap="round" stroke-linejoin="round" x1="120.121" y1="178.967" x2="119.181" y2="178.967"/>
			
				<line fill="none" stroke="#000000" stroke-width="0" stroke-linecap="round" stroke-linejoin="round" x1="121.06" y1="178.967" x2="120.121" y2="178.967"/>
			
				<line fill="none" stroke="#000000" stroke-width="0" stroke-linecap="round" stroke-linejoin="round" x1="121.953" y1="178.967" x2="121.06" y2="178.967"/>
			<polygon fill="#4731EF" points="122.893,174.617 121.953,174.617 121.953,178.967 122.893,178.967 122.893,176.067 			"/>
			<rect x="122.893" y="176.067" fill="#4731EF" width="0.94" height="2.9"/>
			
				<line fill="none" stroke="#000000" stroke-width="0" stroke-linecap="round" stroke-linejoin="round" x1="124.772" y1="178.967" x2="123.832" y2="178.967"/>
			
				<line fill="none" stroke="#000000" stroke-width="0" stroke-linecap="round" stroke-linejoin="round" x1="125.711" y1="178.967" x2="124.772" y2="178.967"/>
			<rect x="125.711" y="168.867" fill="#4731EF" width="0.94" height="10.1"/>
			
				<line fill="none" stroke="#000000" stroke-width="0" stroke-linecap="round" stroke-linejoin="round" x1="127.544" y1="178.967" x2="126.651" y2="178.967"/>
			
				<line fill="none" stroke="#000000" stroke-width="0" stroke-linecap="round" stroke-linejoin="round" x1="128.483" y1="178.967" x2="127.544" y2="178.967"/>
			
				<line fill="none" stroke="#000000" stroke-width="0" stroke-linecap="round" stroke-linejoin="round" x1="129.423" y1="178.967" x2="128.483" y2="178.967"/>
			
				<line fill="none" stroke="#000000" stroke-width="0" stroke-linecap="round" stroke-linejoin="round" x1="130.363" y1="178.967" x2="129.423" y2="178.967"/>
			<polygon fill="#4731EF" points="131.302,171.767 130.363,171.767 130.363,178.967 131.302,178.967 131.302,177.517 			"/>
			<rect x="131.302" y="177.517" fill="#4731EF" width="0.94" height="1.45"/>
			
				<line fill="none" stroke="#000000" stroke-width="0" stroke-linecap="round" stroke-linejoin="round" x1="133.134" y1="178.967" x2="132.242" y2="178.967"/>
			<rect x="133.134" y="177.517" fill="#4731EF" width="0.94" height="1.45"/>
			<polygon fill="#4731EF" points="134.074,174.617 134.074,177.517 134.074,178.967 135.014,178.967 135.014,174.617 			"/>
			
				<line fill="none" stroke="#000000" stroke-width="0" stroke-linecap="round" stroke-linejoin="round" x1="135.953" y1="178.967" x2="135.014" y2="178.967"/>
			<rect x="135.953" y="174.617" fill="#4731EF" width="0.94" height="4.35"/>
			
				<line fill="none" stroke="#000000" stroke-width="0" stroke-linecap="round" stroke-linejoin="round" x1="137.833" y1="178.967" x2="136.893" y2="178.967"/>
			<polygon fill="#4731EF" points="138.772,176.067 138.772,174.617 137.833,174.617 137.833,178.967 138.725,178.967 
				138.725,176.067 			"/>
			<polygon fill="#4731EF" points="139.665,176.067 138.772,176.067 138.725,176.067 138.725,178.967 139.665,178.967 
				139.665,177.517 			"/>
			<rect x="139.665" y="177.517" fill="#4731EF" width="0.94" height="1.45"/>
			<rect x="140.604" y="177.517" fill="#4731EF" width="0.94" height="1.45"/>
			
				<line fill="none" stroke="#000000" stroke-width="0" stroke-linecap="round" stroke-linejoin="round" x1="142.484" y1="178.967" x2="141.544" y2="178.967"/>
			<rect x="142.484" y="176.067" fill="#4731EF" width="0.94" height="2.9"/>
			
				<line fill="none" stroke="#000000" stroke-width="0" stroke-linecap="round" stroke-linejoin="round" x1="144.316" y1="178.967" x2="143.423" y2="178.967"/>
			
				<line fill="none" stroke="#000000" stroke-width="0" stroke-linecap="round" stroke-linejoin="round" x1="145.255" y1="178.967" x2="144.316" y2="178.967"/>
			
				<line fill="none" stroke="#000000" stroke-width="0" stroke-linecap="round" stroke-linejoin="round" x1="146.195" y1="178.967" x2="145.255" y2="178.967"/>
			<rect x="146.195" y="176.067" fill="#4731EF" width="0.94" height="2.9"/>
			
				<line fill="none" stroke="#000000" stroke-width="0" stroke-linecap="round" stroke-linejoin="round" x1="148.074" y1="178.967" x2="147.135" y2="178.967"/>
			
				<line fill="none" stroke="#000000" stroke-width="0" stroke-linecap="round" stroke-linejoin="round" x1="149.014" y1="178.967" x2="148.074" y2="178.967"/>
			
				<line fill="none" stroke="#000000" stroke-width="0" stroke-linecap="round" stroke-linejoin="round" x1="149.954" y1="178.967" x2="149.014" y2="178.967"/>
			<polygon fill="#4731EF" points="149.954,177.517 149.954,178.967 150.846,178.967 150.893,178.967 150.893,177.517 			"/>
			
				<line fill="none" stroke="#000000" stroke-width="0" stroke-linecap="round" stroke-linejoin="round" x1="151.786" y1="178.967" x2="150.893" y2="178.967"/>
			
				<line fill="none" stroke="#000000" stroke-width="0" stroke-linecap="round" stroke-linejoin="round" x1="150.846" y1="178.967" x2="150.893" y2="178.967"/>
			<polygon fill="#4731EF" points="152.725,173.167 151.786,173.167 151.786,178.967 152.725,178.967 152.725,176.067 			"/>
			<rect x="152.725" y="176.067" fill="#4731EF" width="0.94" height="2.9"/>
			
				<line fill="none" stroke="#000000" stroke-width="0" stroke-linecap="round" stroke-linejoin="round" x1="154.605" y1="178.967" x2="153.665" y2="178.967"/>
			<rect x="154.605" y="176.067" fill="#4731EF" width="0.94" height="2.9"/>
			<polygon fill="#4731EF" points="155.544,160.167 155.544,176.067 155.544,178.967 156.437,178.967 156.437,160.167 			"/>
			<polygon fill="#4731EF" points="157.377,150.067 156.437,150.067 156.437,160.167 156.437,178.967 157.377,178.967 
				157.377,174.617 			"/>
			<rect x="157.377" y="174.617" fill="#4731EF" width="0.94" height="4.35"/>
			<polygon fill="#4731EF" points="159.256,155.867 158.316,155.867 158.316,174.617 158.316,178.967 159.256,178.967 
				159.256,174.617 			"/>
			<polygon fill="#4731EF" points="160.195,174.617 159.256,174.617 159.256,178.967 160.195,178.967 160.195,176.067 			"/>
			<rect x="160.195" y="176.067" fill="#4731EF" width="0.94" height="2.9"/>
			
				<line fill="none" stroke="#000000" stroke-width="0" stroke-linecap="round" stroke-linejoin="round" x1="162.028" y1="178.967" x2="161.135" y2="178.967"/>
			<rect x="162.028" y="177.517" fill="#4731EF" width="0.94" height="1.45"/>
			<polygon fill="#4731EF" points="162.967,176.067 162.967,177.517 162.967,178.967 163.907,178.967 163.907,176.067 			"/>
			
				<line fill="none" stroke="#000000" stroke-width="0" stroke-linecap="round" stroke-linejoin="round" x1="164.847" y1="178.967" x2="163.907" y2="178.967"/>
			<rect x="164.847" y="176.067" fill="#4731EF" width="0.94" height="2.9"/>
			
				<line fill="none" stroke="#000000" stroke-width="0" stroke-linecap="round" stroke-linejoin="round" x1="166.726" y1="178.967" x2="165.786" y2="178.967"/>
			
				<line fill="none" stroke="#000000" stroke-width="0" stroke-linecap="round" stroke-linejoin="round" x1="167.618" y1="178.967" x2="166.726" y2="178.967"/>
			
				<line fill="none" stroke="#000000" stroke-width="0" stroke-linecap="round" stroke-linejoin="round" x1="168.558" y1="178.967" x2="167.618" y2="178.967"/>
			
				<line fill="none" stroke="#000000" stroke-width="0" stroke-linecap="round" stroke-linejoin="round" x1="169.498" y1="178.967" x2="168.558" y2="178.967"/>
			<polygon fill="#4731EF" points="170.437,167.417 169.498,167.417 169.498,178.967 170.437,178.967 170.437,171.767 			"/>
			<polygon fill="#4731EF" points="171.377,171.767 170.437,171.767 170.437,178.967 171.377,178.967 171.377,176.067 			"/>
			<rect x="171.377" y="176.067" fill="#4731EF" width="0.94" height="2.9"/>
			<polygon fill="#4731EF" points="173.256,160.167 173.256,155.867 172.317,155.867 172.317,176.067 172.317,178.967 
				173.209,178.967 173.209,160.167 			"/>
			<polygon fill="#4731EF" points="174.149,160.167 173.256,160.167 173.209,160.167 173.209,178.967 174.149,178.967 
				174.149,176.067 			"/>
			<rect x="174.149" y="176.067" fill="#4731EF" width="0.94" height="2.9"/>
			<rect x="175.088" y="176.067" fill="#4731EF" width="0.94" height="2.9"/>
			<rect x="176.028" y="176.067" fill="#4731EF" width="0.94" height="2.9"/>
			
				<line fill="none" stroke="#000000" stroke-width="0" stroke-linecap="round" stroke-linejoin="round" x1="177.907" y1="178.967" x2="176.968" y2="178.967"/>
			<polygon fill="#4731EF" points="177.907,176.067 177.907,178.967 178.8,178.967 178.847,178.967 178.847,176.067 			"/>
			
				<line fill="none" stroke="#000000" stroke-width="0" stroke-linecap="round" stroke-linejoin="round" x1="178.8" y1="178.967" x2="178.847" y2="178.967"/>
			
				<line fill="none" stroke="#000000" stroke-width="0" stroke-linecap="round" stroke-linejoin="round" x1="179.74" y1="178.967" x2="178.847" y2="178.967"/>
			
				<line fill="none" stroke="#000000" stroke-width="0" stroke-linecap="round" stroke-linejoin="round" x1="180.679" y1="178.967" x2="179.74" y2="178.967"/>
			
				<line fill="none" stroke="#000000" stroke-width="0" stroke-linecap="round" stroke-linejoin="round" x1="181.619" y1="178.967" x2="180.679" y2="178.967"/>
			<polygon fill="#4731EF" points="182.558,155.867 181.619,155.867 181.619,178.967 182.558,178.967 182.558,170.317 			"/>
			<rect x="182.558" y="170.317" fill="#4731EF" width="0.94" height="8.65"/>
			
				<line fill="none" stroke="#000000" stroke-width="0" stroke-linecap="round" stroke-linejoin="round" x1="184.438" y1="178.967" x2="183.498" y2="178.967"/>
			<rect x="184.438" y="177.517" fill="#4731EF" width="0.893" height="1.45"/>
			<polygon fill="#4731EF" points="185.33,176.067 185.33,177.517 185.33,178.967 186.27,178.967 186.27,176.067 			"/>
			<rect x="186.27" y="176.067" fill="#4731EF" width="0.94" height="2.9"/>
			<polygon fill="#4731EF" points="187.21,171.767 187.21,176.067 187.21,178.967 188.149,178.967 188.149,171.767 			"/>
			
				<line fill="none" stroke="#000000" stroke-width="0" stroke-linecap="round" stroke-linejoin="round" x1="189.089" y1="178.967" x2="188.149" y2="178.967"/>
			<rect x="189.089" y="177.517" fill="#4731EF" width="0.94" height="1.45"/>
			<polygon fill="#4731EF" points="190.028,167.417 190.028,177.517 190.028,178.967 190.921,178.967 190.968,178.967 
				190.968,167.417 			"/>
			
				<line fill="none" stroke="#000000" stroke-width="0" stroke-linecap="round" stroke-linejoin="round" x1="191.861" y1="178.967" x2="190.968" y2="178.967"/>
			
				<line fill="none" stroke="#000000" stroke-width="0" stroke-linecap="round" stroke-linejoin="round" x1="190.921" y1="178.967" x2="190.968" y2="178.967"/>
			<rect x="191.861" y="176.067" fill="#4731EF" width="0.94" height="2.9"/>
			
				<line fill="none" stroke="#000000" stroke-width="0" stroke-linecap="round" stroke-linejoin="round" x1="193.74" y1="178.967" x2="192.8" y2="178.967"/>
			
				<line fill="none" stroke="#000000" stroke-width="0" stroke-linecap="round" stroke-linejoin="round" x1="194.68" y1="178.967" x2="193.74" y2="178.967"/>
			<rect x="194.68" y="163.067" fill="#4731EF" width="0.94" height="15.9"/>
			
				<line fill="none" stroke="#000000" stroke-width="0" stroke-linecap="round" stroke-linejoin="round" x1="196.512" y1="178.967" x2="195.619" y2="178.967"/>
			
				<line fill="none" stroke="#000000" stroke-width="0" stroke-linecap="round" stroke-linejoin="round" x1="197.451" y1="178.967" x2="196.512" y2="178.967"/>
			
				<line fill="none" stroke="#000000" stroke-width="0" stroke-linecap="round" stroke-linejoin="round" x1="198.391" y1="178.967" x2="197.451" y2="178.967"/>
			<rect x="198.391" y="177.517" fill="#4731EF" width="0.94" height="1.45"/>
			<polygon fill="#4731EF" points="199.331,164.517 199.331,177.517 199.331,178.967 200.27,178.967 200.27,164.517 			"/>
			
				<line fill="none" stroke="#000000" stroke-width="0" stroke-linecap="round" stroke-linejoin="round" x1="201.21" y1="178.967" x2="200.27" y2="178.967"/>
			
				<line fill="none" stroke="#000000" stroke-width="0" stroke-linecap="round" stroke-linejoin="round" x1="202.103" y1="178.967" x2="201.21" y2="178.967"/>
			
				<line fill="none" stroke="#000000" stroke-width="0" stroke-linecap="round" stroke-linejoin="round" x1="203.042" y1="178.967" x2="202.103" y2="178.967"/>
			
				<line fill="none" stroke="#000000" stroke-width="0" stroke-linecap="round" stroke-linejoin="round" x1="203.982" y1="178.967" x2="203.042" y2="178.967"/>
			
				<line fill="none" stroke="#000000" stroke-width="0" stroke-linecap="round" stroke-linejoin="round" x1="204.921" y1="178.967" x2="203.982" y2="178.967"/>
			<rect x="204.921" y="174.617" fill="#4731EF" width="0.94" height="4.35"/>
			
				<line fill="none" stroke="#000000" stroke-width="0" stroke-linecap="round" stroke-linejoin="round" x1="206.801" y1="178.967" x2="205.861" y2="178.967"/>
			<polygon fill="#4731EF" points="206.801,167.417 206.801,178.967 207.693,178.967 207.74,178.967 207.74,167.417 			"/>
			
				<line fill="none" stroke="#000000" stroke-width="0" stroke-linecap="round" stroke-linejoin="round" x1="208.633" y1="178.967" x2="207.74" y2="178.967"/>
			
				<line fill="none" stroke="#000000" stroke-width="0" stroke-linecap="round" stroke-linejoin="round" x1="207.693" y1="178.967" x2="207.74" y2="178.967"/>
			<polygon fill="#4731EF" points="209.573,168.867 208.633,168.867 208.633,178.967 209.573,178.967 209.573,173.167 			"/>
			<rect x="209.573" y="173.167" fill="#4731EF" width="0.94" height="5.8"/>
			
				<line fill="none" stroke="#000000" stroke-width="0" stroke-linecap="round" stroke-linejoin="round" x1="211.452" y1="178.967" x2="210.512" y2="178.967"/>
			<rect x="211.452" y="177.517" fill="#4731EF" width="0.94" height="1.45"/>
			
				<line fill="none" stroke="#000000" stroke-width="0" stroke-linecap="round" stroke-linejoin="round" x1="213.331" y1="178.967" x2="212.391" y2="178.967"/>
			
				<line fill="none" stroke="#000000" stroke-width="0" stroke-linecap="round" stroke-linejoin="round" x1="214.224" y1="178.967" x2="213.331" y2="178.967"/>
			
				<line fill="none" stroke="#000000" stroke-width="0" stroke-linecap="round" stroke-linejoin="round" x1="215.163" y1="178.967" x2="214.224" y2="178.967"/>
			
				<line fill="none" stroke="#000000" stroke-width="0" stroke-linecap="round" stroke-linejoin="round" x1="216.103" y1="178.967" x2="215.163" y2="178.967"/>
			
				<line fill="none" stroke="#000000" stroke-width="0" stroke-linecap="round" stroke-linejoin="round" x1="217.043" y1="178.967" x2="216.103" y2="178.967"/>
			<rect x="217.043" y="176.067" fill="#4731EF" width="0.94" height="2.9"/>
			<polygon fill="#4731EF" points="218.922,151.517 217.982,151.517 217.982,176.067 217.982,178.967 218.922,178.967 
				218.922,163.067 			"/>
			<polygon fill="#4731EF" points="218.922,163.067 218.922,178.967 219.814,178.967 219.861,178.967 219.861,163.067 			"/>
			
				<line fill="none" stroke="#000000" stroke-width="0" stroke-linecap="round" stroke-linejoin="round" x1="220.754" y1="178.967" x2="219.861" y2="178.967"/>
			
				<line fill="none" stroke="#000000" stroke-width="0" stroke-linecap="round" stroke-linejoin="round" x1="219.814" y1="178.967" x2="219.861" y2="178.967"/>
			<rect x="220.754" y="171.767" fill="#4731EF" width="0.94" height="7.2"/>
			<polygon fill="#4731EF" points="222.633,167.417 221.694,167.417 221.694,171.767 221.694,178.967 222.633,178.967 
				222.633,176.067 			"/>
			<rect x="222.633" y="176.067" fill="#4731EF" width="0.94" height="2.9"/>
			
				<line fill="none" stroke="#000000" stroke-width="0" stroke-linecap="round" stroke-linejoin="round" x1="224.513" y1="178.967" x2="223.573" y2="178.967"/>
			<polygon fill="#4731EF" points="224.513,174.617 224.513,178.967 225.405,178.967 225.452,178.967 225.452,174.617 			"/>
			
				<line fill="none" stroke="#000000" stroke-width="0" stroke-linecap="round" stroke-linejoin="round" x1="226.345" y1="178.967" x2="225.452" y2="178.967"/>
			
				<line fill="none" stroke="#000000" stroke-width="0" stroke-linecap="round" stroke-linejoin="round" x1="225.405" y1="178.967" x2="225.452" y2="178.967"/>
			
				<line fill="none" stroke="#000000" stroke-width="0" stroke-linecap="round" stroke-linejoin="round" x1="227.284" y1="178.967" x2="226.345" y2="178.967"/>
			
				<line fill="none" stroke="#000000" stroke-width="0" stroke-linecap="round" stroke-linejoin="round" x1="228.224" y1="178.967" x2="227.284" y2="178.967"/>
			<rect x="228.224" y="177.517" fill="#4731EF" width="0.94" height="1.45"/>
			
				<line fill="none" stroke="#000000" stroke-width="0" stroke-linecap="round" stroke-linejoin="round" x1="230.103" y1="178.967" x2="229.164" y2="178.967"/>
			<polygon fill="#4731EF" points="231.043,177.517 231.043,176.067 230.103,176.067 230.103,178.967 230.996,178.967 
				230.996,177.517 			"/>
			<polygon fill="#4731EF" points="231.043,177.517 230.996,177.517 230.996,178.967 231.936,178.967 231.936,177.517 			"/>
			
				<line fill="none" stroke="#000000" stroke-width="0" stroke-linecap="round" stroke-linejoin="round" x1="232.875" y1="178.967" x2="231.936" y2="178.967"/>
			<rect x="232.875" y="170.317" fill="#4731EF" width="0.94" height="8.65"/>
			
				<line fill="none" stroke="#000000" stroke-width="0" stroke-linecap="round" stroke-linejoin="round" x1="234.754" y1="178.967" x2="233.815" y2="178.967"/>
			<rect x="234.754" y="132.767" fill="#4731EF" width="0.94" height="46.2"/>
			<polygon fill="#4731EF" points="236.634,177.517 236.634,118.317 235.694,118.317 235.694,132.767 235.694,178.967 
				236.587,178.967 236.587,177.517 			"/>
			<polygon fill="#4731EF" points="236.634,177.517 236.587,177.517 236.587,178.967 237.526,178.967 237.526,177.517 			"/>
			<polygon fill="#4731EF" points="237.526,170.317 237.526,177.517 237.526,178.967 238.466,178.967 238.466,170.317 			"/>
			
				<line fill="none" stroke="#000000" stroke-width="0" stroke-linecap="round" stroke-linejoin="round" x1="239.406" y1="178.967" x2="238.466" y2="178.967"/>
			
				<line fill="none" stroke="#000000" stroke-width="0" stroke-linecap="round" stroke-linejoin="round" x1="240.345" y1="178.967" x2="239.406" y2="178.967"/>
			
				<line fill="none" stroke="#000000" stroke-width="0" stroke-linecap="round" stroke-linejoin="round" x1="241.285" y1="178.967" x2="240.345" y2="178.967"/>
			
				<line fill="none" stroke="#000000" stroke-width="0" stroke-linecap="round" stroke-linejoin="round" x1="242.177" y1="178.967" x2="241.285" y2="178.967"/>
			
				<line fill="none" stroke="#000000" stroke-width="0" stroke-linecap="round" stroke-linejoin="round" x1="243.117" y1="178.967" x2="242.177" y2="178.967"/>
			<rect x="243.117" y="177.517" fill="#4731EF" width="0.94" height="1.45"/>
			<polygon fill="#4731EF" points="244.057,176.067 244.057,177.517 244.057,178.967 244.996,178.967 244.996,176.067 			"/>
			
				<line fill="none" stroke="#000000" stroke-width="0" stroke-linecap="round" stroke-linejoin="round" x1="245.936" y1="178.967" x2="244.996" y2="178.967"/>
			
				<line fill="none" stroke="#000000" stroke-width="0" stroke-linecap="round" stroke-linejoin="round" x1="246.875" y1="178.967" x2="245.936" y2="178.967"/>
			
				<line fill="none" stroke="#000000" stroke-width="0" stroke-linecap="round" stroke-linejoin="round" x1="247.815" y1="178.967" x2="246.875" y2="178.967"/>
			
				<line fill="none" stroke="#000000" stroke-width="0" stroke-linecap="round" stroke-linejoin="round" x1="248.708" y1="178.967" x2="247.815" y2="178.967"/>
			
				<line fill="none" stroke="#000000" stroke-width="0" stroke-linecap="round" stroke-linejoin="round" x1="249.647" y1="178.967" x2="248.708" y2="178.967"/>
			
				<line fill="none" stroke="#000000" stroke-width="0" stroke-linecap="round" stroke-linejoin="round" x1="250.587" y1="178.967" x2="249.647" y2="178.967"/>
			<polygon fill="#4731EF" points="251.527,168.867 250.587,168.867 250.587,178.967 251.527,178.967 251.527,171.767 			"/>
			<rect x="251.527" y="171.767" fill="#4731EF" width="0.94" height="7.2"/>
			
				<line fill="none" stroke="#000000" stroke-width="0" stroke-linecap="round" stroke-linejoin="round" x1="253.406" y1="178.967" x2="252.466" y2="178.967"/>
			
				<line fill="none" stroke="#000000" stroke-width="0" stroke-linecap="round" stroke-linejoin="round" x1="254.298" y1="178.967" x2="253.406" y2="178.967"/>
			<rect x="254.298" y="177.517" fill="#4731EF" width="0.94" height="1.45"/>
			
				<line fill="none" stroke="#000000" stroke-width="0" stroke-linecap="round" stroke-linejoin="round" x1="256.178" y1="178.967" x2="255.238" y2="178.967"/>
			<rect x="256.178" y="152.967" fill="#4731EF" width="0.94" height="26"/>
			
				<line fill="none" stroke="#000000" stroke-width="0" stroke-linecap="round" stroke-linejoin="round" x1="258.057" y1="178.967" x2="257.117" y2="178.967"/>
			<polygon fill="#4731EF" points="258.997,165.967 258.057,165.967 258.057,178.967 258.997,178.967 258.997,177.517 			"/>
			<rect x="258.997" y="177.517" fill="#4731EF" width="0.893" height="1.45"/>
			<polygon fill="#4731EF" points="259.889,174.617 259.889,177.517 259.889,178.967 260.829,178.967 260.829,174.617 			"/>
			<polygon fill="#4731EF" points="261.768,171.767 260.829,171.767 260.829,174.617 260.829,178.967 261.768,178.967 
				261.768,174.617 			"/>
			<rect x="261.768" y="174.617" fill="#4731EF" width="0.94" height="4.35"/>
			<polygon fill="#4731EF" points="263.648,170.317 262.708,170.317 262.708,174.617 262.708,178.967 263.648,178.967 
				263.648,177.517 			"/>
			<rect x="263.648" y="177.517" fill="#4731EF" width="0.94" height="1.45"/>
			
				<line fill="none" stroke="#000000" stroke-width="0" stroke-linecap="round" stroke-linejoin="round" x1="265.48" y1="178.967" x2="264.587" y2="178.967"/>
			
				<line fill="none" stroke="#000000" stroke-width="0" stroke-linecap="round" stroke-linejoin="round" x1="266.42" y1="178.967" x2="265.48" y2="178.967"/>
			<rect x="266.42" y="176.067" fill="#4731EF" width="0.94" height="2.9"/>
			
				<line fill="none" stroke="#000000" stroke-width="0" stroke-linecap="round" stroke-linejoin="round" x1="268.299" y1="178.967" x2="267.359" y2="178.967"/>
			<polygon fill="#4731EF" points="269.238,170.317 268.299,170.317 268.299,178.967 269.238,178.967 269.238,176.067 			"/>
			<rect x="269.238" y="176.067" fill="#4731EF" width="0.94" height="2.9"/>
			
				<line fill="none" stroke="#000000" stroke-width="0" stroke-linecap="round" stroke-linejoin="round" x1="271.071" y1="178.967" x2="270.178" y2="178.967"/>
			
				<line fill="none" stroke="#000000" stroke-width="0" stroke-linecap="round" stroke-linejoin="round" x1="272.01" y1="178.967" x2="271.071" y2="178.967"/>
			
				<line fill="none" stroke="#000000" stroke-width="0" stroke-linecap="round" stroke-linejoin="round" x1="272.95" y1="178.967" x2="272.01" y2="178.967"/>
			
				<line fill="none" stroke="#000000" stroke-width="0" stroke-linecap="round" stroke-linejoin="round" x1="273.89" y1="178.967" x2="272.95" y2="178.967"/>
			
				<line fill="none" stroke="#000000" stroke-width="0" stroke-linecap="round" stroke-linejoin="round" x1="274.829" y1="178.967" x2="273.89" y2="178.967"/>
			
				<line fill="none" stroke="#000000" stroke-width="0" stroke-linecap="round" stroke-linejoin="round" x1="275.769" y1="178.967" x2="274.829" y2="178.967"/>
			<rect x="275.769" y="177.517" fill="#4731EF" width="0.94" height="1.45"/>
			
				<line fill="none" stroke="#000000" stroke-width="0" stroke-linecap="round" stroke-linejoin="round" x1="277.601" y1="178.967" x2="276.708" y2="178.967"/>
			
				<line fill="none" stroke="#000000" stroke-width="0" stroke-linecap="round" stroke-linejoin="round" x1="278.541" y1="178.967" x2="277.601" y2="178.967"/>
			<rect x="278.541" y="177.517" fill="#4731EF" width="0.94" height="1.45"/>
			
				<line fill="none" stroke="#000000" stroke-width="0" stroke-linecap="round" stroke-linejoin="round" x1="280.42" y1="178.967" x2="279.48" y2="178.967"/>
			
				<line fill="none" stroke="#000000" stroke-width="0" stroke-linecap="round" stroke-linejoin="round" x1="281.36" y1="178.967" x2="280.42" y2="178.967"/>
			
				<line fill="none" stroke="#000000" stroke-width="0" stroke-linecap="round" stroke-linejoin="round" x1="282.299" y1="178.967" x2="281.36" y2="178.967"/>
			
				<line fill="none" stroke="#000000" stroke-width="0" stroke-linecap="round" stroke-linejoin="round" x1="283.192" y1="178.967" x2="282.299" y2="178.967"/>
			
				<line fill="none" stroke="#000000" stroke-width="0" stroke-linecap="round" stroke-linejoin="round" x1="284.131" y1="178.967" x2="283.192" y2="178.967"/>
			<rect x="284.131" y="176.067" fill="#4731EF" width="0.94" height="2.9"/>
			<polygon fill="#4731EF" points="286.011,176.067 285.071,176.067 285.071,178.967 286.011,178.967 286.011,177.517 			"/>
			<rect x="286.011" y="177.517" fill="#4731EF" width="0.94" height="1.45"/>
			<rect x="286.95" y="177.517" fill="#4731EF" width="0.94" height="1.45"/>
			
				<line fill="none" stroke="#000000" stroke-width="0" stroke-linecap="round" stroke-linejoin="round" x1="288.783" y1="178.967" x2="287.89" y2="178.967"/>
			
				<line fill="none" stroke="#000000" stroke-width="0" stroke-linecap="round" stroke-linejoin="round" x1="289.722" y1="178.967" x2="288.783" y2="178.967"/>
			
				<line fill="none" stroke="#000000" stroke-width="0" stroke-linecap="round" stroke-linejoin="round" x1="290.662" y1="178.967" x2="289.722" y2="178.967"/>
			
				<line fill="none" stroke="#000000" stroke-width="0" stroke-linecap="round" stroke-linejoin="round" x1="291.601" y1="178.967" x2="290.662" y2="178.967"/>
			<rect x="291.601" y="177.517" fill="#4731EF" width="0.94" height="1.45"/>
			
				<line fill="none" stroke="#000000" stroke-width="0" stroke-linecap="round" stroke-linejoin="round" x1="293.481" y1="178.967" x2="292.541" y2="178.967"/>
			<rect x="293.481" y="177.517" fill="#4731EF" width="0.893" height="1.45"/>
			<polygon fill="#4731EF" points="295.313,173.167 294.373,173.167 294.373,177.517 294.373,178.967 295.313,178.967 
				295.313,177.517 			"/>
			<rect x="295.313" y="177.517" fill="#4731EF" width="0.94" height="1.45"/>
			<rect x="296.253" y="177.517" fill="#4731EF" width="0.94" height="1.45"/>
			
				<line fill="none" stroke="#000000" stroke-width="0" stroke-linecap="round" stroke-linejoin="round" x1="298.132" y1="178.967" x2="297.192" y2="178.967"/>
			
				<line fill="none" stroke="#000000" stroke-width="0" stroke-linecap="round" stroke-linejoin="round" x1="299.071" y1="178.967" x2="298.132" y2="178.967"/>
			<polygon fill="#4731EF" points="300.011,176.067 300.011,171.767 299.071,171.767 299.071,178.967 299.964,178.967 
				299.964,176.067 			"/>
			<polygon fill="#4731EF" points="300.011,176.067 299.964,176.067 299.964,178.967 300.904,178.967 300.904,176.067 			"/>
			<polygon fill="#4731EF" points="301.843,176.067 300.904,176.067 300.904,178.967 301.843,178.967 301.843,177.517 			"/>
			<rect x="301.843" y="177.517" fill="#4731EF" width="0.94" height="1.45"/>
			
				<line fill="none" stroke="#000000" stroke-width="0" stroke-linecap="round" stroke-linejoin="round" x1="303.723" y1="178.967" x2="302.783" y2="178.967"/>
			
				<line fill="none" stroke="#000000" stroke-width="0" stroke-linecap="round" stroke-linejoin="round" x1="304.662" y1="178.967" x2="303.723" y2="178.967"/>
			<rect x="304.662" y="177.517" fill="#4731EF" width="0.893" height="1.45"/>
			<polygon fill="#4731EF" points="305.555,176.067 305.555,177.517 305.555,178.967 306.494,178.967 306.494,176.067 			"/>
			
				<line fill="none" stroke="#000000" stroke-width="0" stroke-linecap="round" stroke-linejoin="round" x1="307.434" y1="178.967" x2="306.494" y2="178.967"/>
			<rect x="307.434" y="174.617" fill="#4731EF" width="0.94" height="4.35"/>
		</g>
	</g>
	<g>
		<polygon fill="#EF9B31" points="23.336,180.531 23.336,178.992 22.384,178.992 22.384,182.046 23.336,182.046 		"/>
		<rect x="23.336" y="178.992" fill="#EF9B31" width="0.904" height="1.539"/>
		<polygon fill="#EF9B31" points="24.24,185.123 25.191,185.123 25.191,178.992 24.24,178.992 24.24,180.531 		"/>
		<polygon fill="#EF9B31" points="25.191,188.2 26.095,188.2 26.095,178.992 25.191,178.992 25.191,185.123 		"/>
		<polygon fill="#EF9B31" points="26.095,192.84 27.046,192.84 27.046,189.762 27.046,178.992 26.095,178.992 26.095,188.2 		"/>
		<polygon fill="#EF9B31" points="27.997,189.762 27.997,185.123 27.997,178.992 27.046,178.992 27.046,189.762 		"/>
		<polygon fill="#EF9B31" points="28.949,185.123 28.949,182.046 28.901,182.046 28.901,178.992 27.997,178.992 27.997,185.123 		
			"/>
		<polygon fill="#EF9B31" points="28.949,182.046 29.853,182.046 29.853,178.992 28.901,178.992 28.901,182.046 		"/>
		<polygon fill="#EF9B31" points="29.853,191.277 30.804,191.277 30.804,186.685 30.756,186.685 30.756,178.992 29.853,178.992 
			29.853,182.046 		"/>
		<polygon fill="#EF9B31" points="30.804,186.685 31.708,186.685 31.708,178.992 30.756,178.992 30.756,186.685 		"/>
		<polygon fill="#EF9B31" points="31.708,189.762 32.659,189.762 32.659,182.046 32.612,182.046 32.612,178.992 31.708,178.992 
			31.708,186.685 		"/>
		<polygon fill="#EF9B31" points="32.659,182.046 33.563,182.046 33.563,178.992 32.612,178.992 32.612,182.046 		"/>
		<polygon fill="#EF9B31" points="33.563,188.2 34.514,188.2 34.514,178.992 33.563,178.992 33.563,182.046 		"/>
		<polygon fill="#EF9B31" points="34.514,200.509 35.466,200.509 35.466,182.046 35.418,182.046 35.418,178.992 34.514,178.992 
			34.514,188.2 		"/>
		<polygon fill="#EF9B31" points="35.466,182.046 36.369,182.046 36.369,178.992 35.418,178.992 35.418,182.046 		"/>
		<polygon fill="#EF9B31" points="36.369,192.84 37.273,192.84 37.273,178.992 36.369,178.992 36.369,182.046 		"/>
		<polygon fill="#EF9B31" points="37.321,192.84 38.225,192.84 38.225,178.992 37.273,178.992 37.273,192.84 		"/>
		<rect x="38.225" y="178.992" fill="#EF9B31" width="0.951" height="13.848"/>
		<polygon fill="#EF9B31" points="39.176,197.432 40.127,197.432 40.127,194.355 40.08,194.355 40.08,178.992 39.176,178.992 
			39.176,192.84 		"/>
		<polygon fill="#EF9B31" points="40.127,194.355 41.031,194.355 41.031,180.531 41.031,178.992 40.08,178.992 40.08,194.355 		"/>
		<rect x="41.031" y="178.992" fill="#EF9B31" width="0.904" height="1.539"/>
		<polygon fill="#EF9B31" points="41.935,188.2 42.886,188.2 42.886,185.123 42.886,178.992 41.935,178.992 41.935,180.531 		"/>
		<polygon fill="#EF9B31" points="43.838,185.123 43.838,180.531 43.79,180.531 43.79,178.992 42.886,178.992 42.886,185.123 		"/>
		<polygon fill="#EF9B31" points="43.838,180.531 44.742,180.531 44.742,178.992 43.79,178.992 43.79,180.531 		"/>
		<polygon fill="#EF9B31" points="44.742,191.277 45.693,191.277 45.693,185.123 45.693,178.992 44.742,178.992 44.742,180.531 		
			"/>
		<rect x="45.693" y="178.992" fill="#EF9B31" width="0.951" height="6.131"/>
		<polygon fill="#EF9B31" points="47.548,192.84 48.499,192.84 48.499,182.046 48.452,182.046 48.452,178.992 47.548,178.992 		"/>
		<polygon fill="#EF9B31" points="48.499,182.046 49.403,182.046 49.403,178.992 48.452,178.992 48.452,182.046 		"/>
		<polygon fill="#EF9B31" points="49.403,188.2 50.355,188.2 50.355,180.531 50.355,178.992 49.403,178.992 49.403,182.046 		"/>
		<rect x="50.355" y="178.992" fill="#EF9B31" width="0.904" height="1.539"/>
		<polygon fill="#EF9B31" points="51.258,203.586 52.21,203.586 52.21,192.84 52.21,178.992 51.258,178.992 51.258,180.531 		"/>
		<rect x="52.21" y="178.992" fill="#EF9B31" width="0.951" height="13.848"/>
		<polygon fill="#EF9B31" points="54.065,185.123 55.016,185.123 55.016,183.608 54.969,183.608 54.969,178.992 54.065,178.992 		
			"/>
		<polygon fill="#EF9B31" points="55.016,183.608 55.92,183.608 55.92,182.046 55.92,178.992 54.969,178.992 54.969,183.608 		"/>
		<rect x="55.92" y="178.992" fill="#EF9B31" width="0.951" height="3.054"/>
		<polygon fill="#EF9B31" points="56.872,183.608 57.823,183.608 57.823,182.046 57.775,182.046 57.775,178.992 56.872,178.992 
			56.872,182.046 		"/>
		<polygon fill="#EF9B31" points="57.823,182.046 58.727,182.046 58.727,178.992 57.775,178.992 57.775,182.046 		"/>
		<polygon fill="#EF9B31" points="58.727,183.608 59.678,183.608 59.678,178.992 58.727,178.992 58.727,182.046 		"/>
		<rect x="60.582" y="178.992" fill="#EF9B31" width="0.951" height="6.131"/>
		<polygon fill="#EF9B31" points="61.533,185.123 61.533,189.762 62.437,189.762 62.437,178.992 61.533,178.992 		"/>
		<polygon fill="#EF9B31" points="62.437,195.917 63.388,195.917 63.388,178.992 62.437,178.992 62.437,189.762 		"/>
		<polygon fill="#EF9B31" points="63.388,200.509 64.34,200.509 64.34,185.123 64.292,185.123 64.292,178.992 63.388,178.992 
			63.388,195.917 		"/>
		<polygon fill="#EF9B31" points="64.34,185.123 65.244,185.123 65.244,178.992 64.292,178.992 64.292,185.123 		"/>
		<polygon fill="#EF9B31" points="65.244,188.2 66.195,188.2 66.195,180.531 66.147,180.531 66.147,178.992 65.244,178.992 
			65.244,185.123 		"/>
		<polygon fill="#EF9B31" points="66.195,180.531 67.099,180.531 67.099,178.992 66.147,178.992 66.147,180.531 		"/>
		<rect x="68.05" y="178.992" fill="#EF9B31" width="0.904" height="1.539"/>
		<polygon fill="#EF9B31" points="68.954,186.685 69.905,186.685 69.905,178.992 68.954,178.992 68.954,180.531 		"/>
		<rect x="72.712" y="178.992" fill="#EF9B31" width="0.951" height="16.925"/>
		<rect x="74.567" y="178.992" fill="#EF9B31" width="0.904" height="1.539"/>
		<polygon fill="#EF9B31" points="75.471,200.509 76.422,200.509 76.422,188.2 76.422,178.992 75.471,178.992 75.471,180.531 		"/>
		<rect x="76.422" y="178.992" fill="#EF9B31" width="0.904" height="9.208"/>
		<polygon fill="#EF9B31" points="77.374,188.2 78.277,188.2 78.277,180.531 78.277,178.992 77.326,178.992 77.326,188.2 		"/>
		<rect x="78.277" y="178.992" fill="#EF9B31" width="0.951" height="1.539"/>
		<polygon fill="#EF9B31" points="79.229,182.046 80.18,182.046 80.18,178.992 79.229,178.992 79.229,180.531 		"/>
		<rect x="81.084" y="178.992" fill="#EF9B31" width="0.904" height="1.539"/>
		<polygon fill="#EF9B31" points="81.988,178.992 81.988,180.531 82.035,180.531 82.939,180.531 82.939,178.992 		"/>
		<polygon fill="#EF9B31" points="82.939,180.531 82.939,205.149 83.891,205.149 83.891,197.432 83.891,178.992 82.939,178.992 		
			"/>
		<polygon fill="#EF9B31" points="84.842,197.432 84.842,194.355 84.794,194.355 84.794,178.992 83.891,178.992 83.891,197.432 		
			"/>
		<polygon fill="#EF9B31" points="84.842,194.355 85.746,194.355 85.746,178.992 84.794,178.992 84.794,194.355 		"/>
		<polygon fill="#EF9B31" points="85.746,198.994 86.697,198.994 86.697,178.992 85.746,178.992 85.746,194.355 		"/>
		<polygon fill="#EF9B31" points="87.601,185.123 88.552,185.123 88.552,180.531 88.552,178.992 87.601,178.992 		"/>
		<rect x="88.552" y="178.992" fill="#EF9B31" width="0.951" height="1.539"/>
		<rect x="90.407" y="178.992" fill="#EF9B31" width="0.904" height="1.539"/>
		<polygon fill="#EF9B31" points="91.311,178.992 91.311,180.531 91.359,180.531 92.263,180.531 92.263,178.992 		"/>
		<polygon fill="#EF9B31" points="92.263,180.531 92.263,189.762 93.166,189.762 93.166,178.992 92.263,178.992 		"/>
		<polygon fill="#EF9B31" points="93.166,206.664 94.118,206.664 94.118,186.685 94.118,178.992 93.166,178.992 93.166,189.762 		
			"/>
		<polygon fill="#EF9B31" points="95.069,186.685 95.069,182.046 95.069,178.992 94.118,178.992 94.118,186.685 		"/>
		<rect x="95.069" y="178.992" fill="#EF9B31" width="0.951" height="3.054"/>
		<rect x="97.828" y="178.992" fill="#EF9B31" width="0.951" height="4.616"/>
		<rect x="104.345" y="178.992" fill="#EF9B31" width="0.951" height="4.616"/>
		<polygon fill="#EF9B31" points="106.248,185.123 106.248,178.992 105.296,178.992 105.296,183.608 105.296,185.123 		"/>
		<polygon fill="#EF9B31" points="108.103,186.685 109.054,186.685 109.054,180.531 109.007,180.531 109.007,178.992 
			108.103,178.992 		"/>
		<polygon fill="#EF9B31" points="109.054,180.531 109.958,180.531 109.958,178.992 109.007,178.992 109.007,180.531 		"/>
		<rect x="111.813" y="178.992" fill="#EF9B31" width="0.951" height="1.539"/>
		<polygon fill="#EF9B31" points="112.765,180.531 112.765,185.123 113.716,185.123 113.716,178.992 112.765,178.992 		"/>
		<polygon fill="#EF9B31" points="115.524,182.046 116.475,182.046 116.475,180.531 116.475,178.992 115.524,178.992 		"/>
		<rect x="116.475" y="178.992" fill="#EF9B31" width="0.951" height="1.539"/>
		<rect x="120.185" y="178.992" fill="#EF9B31" width="0.951" height="1.539"/>
		<rect x="121.137" y="178.992" fill="#EF9B31" width="0.951" height="1.539"/>
		<polygon fill="#EF9B31" points="122.088,180.531 122.088,182.046 122.992,182.046 122.992,178.992 122.088,178.992 		"/>
		<polygon fill="#EF9B31" points="122.992,188.2 123.943,188.2 123.943,182.046 123.943,178.992 122.992,178.992 122.992,182.046 		
			"/>
		<rect x="123.943" y="178.992" fill="#EF9B31" width="0.904" height="3.054"/>
		<polygon fill="#EF9B31" points="124.847,185.123 125.798,185.123 125.798,178.992 124.847,178.992 124.847,182.046 		"/>
		<rect x="127.654" y="178.992" fill="#EF9B31" width="0.951" height="12.285"/>
		<polygon fill="#EF9B31" points="128.605,191.277 128.605,198.994 129.556,198.994 129.556,178.992 128.605,178.992 		"/>
		<rect x="130.46" y="178.992" fill="#EF9B31" width="0.951" height="12.285"/>
		<rect x="132.315" y="178.992" fill="#EF9B31" width="0.951" height="1.539"/>
		<polygon fill="#EF9B31" points="134.171,183.608 134.171,178.992 133.267,178.992 133.267,180.531 133.267,183.608 		"/>
		<polygon fill="#EF9B31" points="134.218,183.608 135.122,183.608 135.122,178.992 134.171,178.992 134.171,183.608 		"/>
		<rect x="136.977" y="178.992" fill="#EF9B31" width="0.951" height="3.054"/>
		<polygon fill="#EF9B31" points="138.832,195.917 139.784,195.917 139.784,183.608 139.784,178.992 138.832,178.992 		"/>
		<rect x="139.784" y="178.992" fill="#EF9B31" width="0.951" height="4.616"/>
		<rect x="144.445" y="178.992" fill="#EF9B31" width="0.951" height="1.539"/>
		<rect x="148.156" y="178.992" fill="#EF9B31" width="0.951" height="3.054"/>
		<rect x="151.866" y="178.992" fill="#EF9B31" width="0.951" height="4.616"/>
		<polygon fill="#EF9B31" points="152.817,183.608 152.817,194.355 153.769,194.355 153.769,180.531 153.721,180.531 
			153.721,178.992 152.817,178.992 		"/>
		<polygon fill="#EF9B31" points="153.769,180.531 154.673,180.531 154.673,178.992 153.721,178.992 153.721,180.531 		"/>
		<polygon fill="#EF9B31" points="156.528,188.2 157.479,188.2 157.479,180.531 157.479,178.992 156.528,178.992 		"/>
		<rect x="157.479" y="178.992" fill="#EF9B31" width="0.951" height="1.539"/>
		<rect x="159.334" y="178.992" fill="#EF9B31" width="0.951" height="9.208"/>
		<rect x="161.19" y="178.992" fill="#EF9B31" width="0.951" height="1.539"/>
		<rect x="165.851" y="178.992" fill="#EF9B31" width="0.951" height="1.539"/>
		<rect x="172.368" y="178.992" fill="#EF9B31" width="0.951" height="1.539"/>
		<polygon fill="#EF9B31" points="173.32,180.531 173.32,182.046 174.223,182.046 174.223,178.992 173.32,178.992 		"/>
		<polygon fill="#EF9B31" points="174.223,185.123 175.175,185.123 175.175,178.992 174.223,178.992 174.223,182.046 		"/>
		<rect x="177.03" y="178.992" fill="#EF9B31" width="0.951" height="4.616"/>
		<rect x="178.885" y="178.992" fill="#EF9B31" width="0.951" height="1.539"/>
		<rect x="180.74" y="178.992" fill="#EF9B31" width="0.951" height="1.539"/>
		<rect x="181.692" y="178.992" fill="#EF9B31" width="0.951" height="1.539"/>
		<polygon fill="#EF9B31" points="182.643,180.531 182.643,185.123 183.594,185.123 183.594,180.531 183.547,180.531 
			183.547,178.992 182.643,178.992 		"/>
		<polygon fill="#EF9B31" points="183.594,180.531 184.498,180.531 184.498,178.992 183.547,178.992 183.547,180.531 		"/>
		<polygon fill="#EF9B31" points="184.498,186.685 185.45,186.685 185.45,178.992 184.498,178.992 184.498,180.531 		"/>
		<rect x="189.16" y="178.992" fill="#EF9B31" width="0.904" height="4.616"/>
		<polygon fill="#EF9B31" points="190.064,178.992 190.064,183.608 190.111,183.608 191.015,183.608 191.015,180.531 
			191.015,178.992 		"/>
		<rect x="191.015" y="178.992" fill="#EF9B31" width="0.951" height="1.539"/>
		<rect x="207.759" y="178.992" fill="#EF9B31" width="0.951" height="3.054"/>
		<rect x="213.372" y="178.992" fill="#EF9B31" width="0.951" height="23.079"/>
		<polygon fill="#EF9B31" points="217.083,188.2 218.034,188.2 218.034,182.046 218.034,178.992 217.083,178.992 		"/>
		<rect x="218.034" y="178.992" fill="#EF9B31" width="0.951" height="3.054"/>
		<rect x="220.841" y="178.992" fill="#EF9B31" width="0.904" height="3.054"/>
		<polygon fill="#EF9B31" points="221.744,194.355 222.696,194.355 222.696,182.046 222.696,178.992 221.744,178.992 
			221.744,182.046 		"/>
		<rect x="222.696" y="178.992" fill="#EF9B31" width="0.904" height="3.054"/>
		<polygon fill="#EF9B31" points="223.6,185.123 224.551,185.123 224.551,178.992 223.6,178.992 223.6,182.046 		"/>
		<polygon fill="#EF9B31" points="224.551,189.762 225.502,189.762 225.502,178.992 224.551,178.992 224.551,185.123 		"/>
		<polygon fill="#EF9B31" points="226.406,186.685 227.357,186.685 227.357,182.046 227.357,178.992 226.406,178.992 		"/>
		<rect x="227.357" y="178.992" fill="#EF9B31" width="0.904" height="3.054"/>
		<polygon fill="#EF9B31" points="228.261,188.2 229.213,188.2 229.213,178.992 228.261,178.992 228.261,182.046 		"/>
		<polygon fill="#EF9B31" points="229.213,198.994 230.164,198.994 230.164,191.277 230.116,191.277 230.116,178.992 
			229.213,178.992 229.213,188.2 		"/>
		<polygon fill="#EF9B31" points="230.164,191.277 231.068,191.277 231.068,183.608 231.068,178.992 230.116,178.992 
			230.116,191.277 		"/>
		<rect x="231.068" y="178.992" fill="#EF9B31" width="0.951" height="4.616"/>
		<rect x="232.019" y="178.992" fill="#EF9B31" width="0.904" height="4.616"/>
		<polygon fill="#EF9B31" points="232.923,185.123 233.874,185.123 233.874,182.046 233.874,178.992 232.923,178.992 
			232.923,183.608 		"/>
		<rect x="233.874" y="178.992" fill="#EF9B31" width="0.904" height="3.054"/>
		<polygon fill="#EF9B31" points="234.778,188.2 235.73,188.2 235.73,178.992 234.778,178.992 234.778,182.046 		"/>
		<polygon fill="#EF9B31" points="235.73,197.432 236.681,197.432 236.681,185.123 236.633,185.123 236.633,178.992 235.73,178.992 
			235.73,188.2 		"/>
		<polygon fill="#EF9B31" points="236.681,185.123 237.585,185.123 237.585,178.992 236.633,178.992 236.633,185.123 		"/>
		<rect x="237.585" y="178.992" fill="#EF9B31" width="0.951" height="6.131"/>
		<rect x="241.295" y="178.992" fill="#EF9B31" width="0.951" height="1.539"/>
		<polygon fill="#EF9B31" points="243.198,183.608 243.198,178.992 242.246,178.992 242.246,180.531 242.246,183.608 		"/>
		<rect x="247.812" y="178.992" fill="#EF9B31" width="0.951" height="4.616"/>
		<polygon fill="#EF9B31" points="249.715,192.84 249.715,178.992 248.763,178.992 248.763,183.608 248.763,192.84 		"/>
		<rect x="250.619" y="178.992" fill="#EF9B31" width="0.951" height="3.054"/>
		<rect x="253.425" y="178.992" fill="#EF9B31" width="0.951" height="3.054"/>
		<rect x="254.376" y="178.992" fill="#EF9B31" width="0.951" height="3.054"/>
		<polygon fill="#EF9B31" points="256.232,195.917 257.183,195.917 257.183,191.277 257.135,191.277 257.135,178.992 
			256.232,178.992 		"/>
		<polygon fill="#EF9B31" points="257.183,191.277 258.087,191.277 258.087,183.608 258.087,178.992 257.135,178.992 
			257.135,191.277 		"/>
		<polygon fill="#EF9B31" points="259.038,183.608 259.038,180.531 259.038,178.992 258.087,178.992 258.087,183.608 		"/>
		<rect x="259.038" y="178.992" fill="#EF9B31" width="0.904" height="1.539"/>
		<polygon fill="#EF9B31" points="259.942,183.608 260.893,183.608 260.893,178.992 259.942,178.992 259.942,180.531 		"/>
		<rect x="261.797" y="178.992" fill="#EF9B31" width="0.951" height="6.131"/>
		<rect x="262.749" y="178.992" fill="#EF9B31" width="0.951" height="6.131"/>
		<rect x="264.604" y="178.992" fill="#EF9B31" width="0.951" height="1.539"/>
		<rect x="270.217" y="178.992" fill="#EF9B31" width="0.951" height="1.539"/>
		<rect x="273.927" y="178.992" fill="#EF9B31" width="0.951" height="1.539"/>
		<rect x="288.816" y="178.992" fill="#EF9B31" width="0.951" height="1.539"/>
		<rect x="291.623" y="178.992" fill="#EF9B31" width="0.951" height="1.539"/>
		<rect x="298.14" y="178.992" fill="#EF9B31" width="0.951" height="7.693"/>
		<rect x="299.995" y="178.992" fill="#EF9B31" width="0.951" height="1.539"/>
		<rect x="302.801" y="178.992" fill="#EF9B31" width="0.951" height="3.054"/>
		<rect x="306.512" y="178.992" fill="#EF9B31" width="0.951" height="1.539"/>
		<polygon fill="#EF9B31" points="308.414,236.726 308.414,195.917 308.367,195.917 308.367,178.992 307.463,178.992 
			307.463,180.531 307.463,236.726 		"/>
		<polygon fill="#EF9B31" points="308.414,195.917 309.318,195.917 309.318,183.608 309.318,178.992 308.367,178.992 
			308.367,195.917 		"/>
		<rect x="309.318" y="178.992" fill="#EF9B31" width="0.951" height="4.616"/>
		<polygon fill="#EF9B31" points="310.27,188.2 311.221,188.2 311.221,178.992 310.27,178.992 310.27,183.608 		"/>
		<rect x="312.125" y="178.992" fill="#EF9B31" width="0.904" height="1.539"/>
		<polygon fill="#EF9B31" points="313.029,178.992 313.029,180.531 313.076,180.531 313.98,180.531 313.98,178.992 		"/>
	</g>
</g>
<style>
#g-verba-tema02-query02-gurtel-vs-ere-mobile-img rect, #g-verba-tema02-query02-gurtel-vs-ere-mobile-img circle, #g-verba-tema02-query02-gurtel-vs-ere-mobile-img path, #g-verba-tema02-query02-gurtel-vs-ere-mobile-img line, #g-verba-tema02-query02-gurtel-vs-ere-mobile-img polyline { vector-effect: non-scaling-stroke; }
</style>
</svg>

