<?xml version="1.0" encoding="utf-8"?>
<!-- Generator: Adobe Illustrator 24.0.3, SVG Export Plug-In . SVG Version: 6.00 Build 0)  -->
<svg version="1.2" baseProfile="tiny" id="g-verba-vignette08-vox-mobile-img" xmlns="http://www.w3.org/2000/svg" xmlns:xlink="http://www.w3.org/1999/xlink"
	 x="0px" y="0px" viewBox="0 0 320 440" xml:space="preserve">
<g>
	<g transform="translate(0,130.5)">
		<line fill="none" stroke="#212529" stroke-opacity="0.12" x1="22.934" y1="106.189" x2="311.931" y2="106.189"/>
	</g>
	<g transform="translate(0,111.92857142857143)">
		<line fill="none" stroke="#212529" stroke-opacity="0.12" x1="22.934" y1="115.475" x2="311.931" y2="115.475"/>
	</g>
	<g transform="translate(0,93.35714285714286)">
		<line fill="none" stroke="#212529" stroke-opacity="0.12" x1="22.934" y1="124.76" x2="311.931" y2="124.76"/>
	</g>
	<g transform="translate(0,74.78571428571428)">
		<line fill="none" stroke="#212529" stroke-opacity="0.12" x1="22.934" y1="134.046" x2="311.931" y2="134.046"/>
	</g>
	<g transform="translate(0,56.214285714285715)">
		<line fill="none" stroke="#212529" stroke-opacity="0.12" x1="22.934" y1="143.332" x2="311.931" y2="143.332"/>
	</g>
	<g transform="translate(0,37.64285714285714)">
		<line fill="none" stroke="#212529" stroke-opacity="0.12" x1="22.934" y1="152.617" x2="311.931" y2="152.617"/>
	</g>
	<g transform="translate(0,19.071428571428577)">
		<line fill="none" stroke="#212529" stroke-opacity="0.12" x1="22.934" y1="161.903" x2="311.931" y2="161.903"/>
	</g>
	<g transform="translate(0,0.5)">
		<line fill="none" stroke="#212529" stroke-opacity="0.12" x1="22.934" y1="171.189" x2="311.931" y2="171.189"/>
	</g>
	<g>
		<rect x="22.559" y="235.489" width="0.897" height="1.85"/>
		<polygon points="23.456,236.439 24.4,236.439 24.4,236.439 		"/>
		<rect x="24.4" y="234.589" width="0.897" height="3.7"/>
		<polygon points="25.297,236.439 26.241,236.439 26.241,236.439 		"/>
		<polygon points="26.241,236.439 27.138,236.439 27.138,236.439 		"/>
		<polygon points="27.138,236.439 28.035,236.439 28.035,236.439 		"/>
		<polygon points="28.035,236.439 28.979,236.439 28.979,236.439 		"/>
		<polygon points="28.979,236.439 29.876,236.439 29.876,236.439 		"/>
		<polygon points="29.876,236.439 30.82,236.439 30.82,236.439 		"/>
		<polygon points="30.82,236.439 31.717,236.439 31.717,236.439 		"/>
		<polygon points="31.717,236.439 32.614,236.439 32.614,236.439 		"/>
		<polygon points="32.614,236.439 33.558,236.439 33.558,236.439 		"/>
		<polygon points="33.558,236.439 34.455,236.439 34.455,236.439 		"/>
		<polygon points="34.455,236.439 35.399,236.439 35.399,236.439 		"/>
		<polygon points="35.399,236.439 36.296,236.439 36.296,236.439 		"/>
		<polygon points="36.296,236.439 37.193,236.439 37.193,236.439 		"/>
		<polygon points="37.193,236.439 38.137,236.439 38.137,236.439 		"/>
		<polygon points="38.137,236.439 39.034,236.439 39.034,236.439 		"/>
		<polygon points="39.034,236.439 39.978,236.439 39.978,236.439 		"/>
		<polygon points="39.978,236.439 40.875,236.439 40.875,236.439 		"/>
		<polygon points="40.875,236.439 41.772,236.439 41.772,236.439 		"/>
		<polygon points="41.772,236.439 42.716,236.439 42.716,236.439 		"/>
		<polygon points="42.716,236.439 43.613,236.439 43.613,236.439 		"/>
		<polygon points="43.613,236.439 44.557,236.439 44.557,236.439 		"/>
		<polygon points="44.557,236.439 45.454,236.439 45.454,236.439 		"/>
		<polygon points="45.454,236.439 46.351,236.439 46.351,236.439 		"/>
		<polygon points="46.351,236.439 47.295,236.439 47.295,236.439 		"/>
		<polygon points="47.295,236.439 48.192,236.439 48.192,236.439 		"/>
		<polygon points="48.192,236.439 49.136,236.439 49.136,236.439 		"/>
		<polygon points="49.136,236.439 50.033,236.439 50.033,236.439 		"/>
		<polygon points="50.033,236.439 50.93,236.439 50.93,236.439 		"/>
		<polygon points="50.93,236.439 51.874,236.439 51.874,236.439 		"/>
		<polygon points="51.874,236.439 52.771,236.439 52.771,236.439 		"/>
		<polygon points="52.771,236.439 53.715,236.439 53.715,236.439 		"/>
		<polygon points="53.715,236.439 54.612,236.439 54.612,236.439 		"/>
		<polygon points="54.612,236.439 55.509,236.439 55.509,236.439 		"/>
		<polygon points="55.509,236.439 56.453,236.439 56.453,236.439 		"/>
		<polygon points="56.453,236.439 57.35,236.439 57.35,236.439 		"/>
		<polygon points="57.35,236.439 58.294,236.439 58.294,236.439 		"/>
		<polygon points="58.294,236.439 59.191,236.439 59.191,236.439 		"/>
		<polygon points="59.191,236.439 60.088,236.439 60.088,236.439 		"/>
		<polygon points="60.088,236.439 61.032,236.439 61.032,236.439 		"/>
		<polygon points="61.032,236.439 61.929,236.439 61.929,236.439 		"/>
		<rect x="61.929" y="234.589" width="0.897" height="3.7"/>
		<polygon points="62.873,236.439 63.77,236.439 63.77,236.439 		"/>
		<polygon points="63.77,236.439 64.667,236.439 64.667,236.439 		"/>
		<polygon points="64.667,236.439 65.611,236.439 65.611,236.439 		"/>
		<polygon points="65.611,236.439 66.508,236.439 66.508,236.439 		"/>
		<polygon points="66.508,236.439 67.452,236.439 67.452,236.439 		"/>
		<polygon points="67.452,236.439 68.349,236.439 68.349,236.439 		"/>
		<polygon points="68.349,236.439 69.246,236.439 69.246,236.439 		"/>
		<polygon points="69.246,236.439 70.19,236.439 70.19,236.439 		"/>
		<polygon points="70.19,236.439 71.087,236.439 71.087,236.439 		"/>
		<polygon points="71.087,236.439 72.031,236.439 72.031,236.439 		"/>
		<polygon points="72.031,236.439 72.928,236.439 72.928,236.439 		"/>
		<polygon points="72.928,236.439 73.825,236.439 73.825,236.439 		"/>
		<polygon points="73.825,236.439 74.769,236.439 74.769,236.439 		"/>
		<polygon points="74.769,236.439 75.666,236.439 75.666,236.439 		"/>
		<polygon points="75.666,236.439 76.61,236.439 76.61,236.439 		"/>
		<polygon points="76.61,236.439 77.507,236.439 77.507,236.439 		"/>
		<rect x="77.507" y="235.989" width="0.897" height="0.95"/>
		<polygon points="78.404,236.439 79.348,236.439 79.348,236.439 		"/>
		<polygon points="79.348,236.439 80.245,236.439 80.245,236.439 		"/>
		<polygon points="80.245,236.439 81.189,236.439 81.189,236.439 		"/>
		<polygon points="81.189,236.439 82.086,236.439 82.086,236.439 		"/>
		<polygon points="82.086,236.439 82.983,236.439 82.983,236.439 		"/>
		<polygon points="82.983,236.439 83.927,236.439 83.927,236.439 		"/>
		<polygon points="83.927,236.439 84.824,236.439 84.824,236.439 		"/>
		<polygon points="84.824,236.439 85.768,236.439 85.768,236.439 		"/>
		<polygon points="85.768,236.439 86.665,236.439 86.665,236.439 		"/>
		<polygon points="86.665,236.439 87.562,236.439 87.562,236.439 		"/>
		<polygon points="87.562,236.439 88.506,236.439 88.506,236.439 		"/>
		<polygon points="88.506,236.439 89.403,236.439 89.403,236.439 		"/>
		<polygon points="89.403,236.439 90.347,236.439 90.347,236.439 		"/>
		<polygon points="90.347,236.439 91.244,236.439 91.244,236.439 		"/>
		<polygon points="91.244,236.439 92.141,236.439 92.141,236.439 		"/>
		<polygon points="92.141,236.439 93.085,236.439 93.085,236.439 		"/>
		<polygon points="93.085,236.439 93.982,236.439 93.982,236.439 		"/>
		<polygon points="93.982,236.439 94.879,236.439 94.879,236.439 		"/>
		<polygon points="94.879,236.439 95.823,236.439 95.823,236.439 		"/>
		<polygon points="95.823,236.439 96.72,236.439 96.72,236.439 		"/>
		<polygon points="96.72,236.439 97.664,236.439 97.664,236.439 		"/>
		<polygon points="97.664,236.439 98.561,236.439 98.561,236.439 		"/>
		<polygon points="98.561,236.439 99.458,236.439 99.458,236.439 		"/>
		<rect x="99.458" y="234.139" width="0.897" height="4.65"/>
		<polygon points="100.402,236.439 101.299,236.439 101.299,236.439 		"/>
		<polygon points="101.299,236.439 102.243,236.439 102.243,236.439 		"/>
		<polygon points="102.243,236.439 103.14,236.439 103.14,236.439 		"/>
		<rect x="103.14" y="235.489" width="0.897" height="1.85"/>
		<polygon points="104.037,236.439 104.981,236.439 104.981,236.439 		"/>
		<polygon points="104.981,236.439 105.878,236.439 105.878,236.439 		"/>
		<polygon points="105.878,236.439 106.822,236.439 106.822,236.439 		"/>
		<polygon points="106.822,236.439 107.719,236.439 107.719,236.439 		"/>
		<polygon points="107.719,236.439 108.616,236.439 108.616,236.439 		"/>
		<polygon points="108.616,236.439 109.56,236.439 109.56,236.439 		"/>
		<polygon points="109.56,236.439 110.457,236.439 110.457,236.439 		"/>
		<polygon points="110.457,236.439 111.401,236.439 111.401,236.439 		"/>
		<polygon points="111.401,236.439 112.298,236.439 112.298,236.439 		"/>
		<polygon points="112.298,236.439 113.195,236.439 113.195,236.439 		"/>
		<polygon points="113.195,236.439 114.139,236.439 114.139,236.439 		"/>
		<polygon points="114.139,236.439 115.036,236.439 115.036,236.439 		"/>
		<polygon points="115.036,236.439 115.98,236.439 115.98,236.439 		"/>
		<polygon points="115.98,236.439 116.877,236.439 116.877,236.439 		"/>
		<polygon points="116.877,236.439 117.774,236.439 117.774,236.439 		"/>
		<polygon points="117.774,236.439 118.718,236.439 118.718,236.439 		"/>
		<polygon points="118.718,236.439 119.615,236.439 119.615,236.439 		"/>
		<polygon points="119.615,236.439 120.559,236.439 120.559,236.439 		"/>
		<polygon points="120.559,236.439 121.456,236.439 121.456,236.439 		"/>
		<polygon points="121.456,236.439 122.353,236.439 122.353,236.439 		"/>
		<polygon points="122.353,236.439 123.297,236.439 123.297,236.439 		"/>
		<polygon points="123.297,236.439 124.194,236.439 124.194,236.439 		"/>
		<polygon points="124.194,236.439 125.138,236.439 125.138,236.439 		"/>
		<polygon points="125.138,236.439 126.035,236.439 126.035,236.439 		"/>
		<polygon points="126.035,236.439 126.932,236.439 126.932,236.439 		"/>
		<polygon points="126.932,236.439 127.876,236.439 127.876,236.439 		"/>
		<polygon points="127.876,236.439 128.773,236.439 128.773,236.439 		"/>
		<polygon points="128.773,236.439 129.717,236.439 129.717,236.439 		"/>
		<polygon points="129.717,236.439 130.614,236.439 130.614,236.439 		"/>
		<polygon points="130.614,236.439 131.51,236.439 131.51,236.439 		"/>
		<polygon points="131.51,236.439 132.455,236.439 132.455,236.439 		"/>
		<polygon points="132.455,236.439 133.352,236.439 133.352,236.439 		"/>
		<polygon points="133.352,236.439 134.296,236.439 134.296,236.439 		"/>
		<polygon points="134.296,236.439 135.193,236.439 135.193,236.439 		"/>
		<rect x="135.193" y="235.489" width="0.897" height="1.85"/>
		<polygon points="136.089,236.439 137.034,236.439 137.034,236.439 		"/>
		<polygon points="137.034,236.439 137.93,236.439 137.93,236.439 		"/>
		<polygon points="137.93,236.439 138.875,236.439 138.875,236.439 		"/>
		<rect x="138.875" y="235.489" width="0.897" height="1.85"/>
		<polygon points="139.771,236.439 140.668,236.439 140.668,236.439 		"/>
		<polygon points="140.668,236.439 141.613,236.439 141.613,236.439 		"/>
		<polygon points="141.613,236.439 142.509,236.439 142.509,236.439 		"/>
		<polygon points="142.509,236.439 143.454,236.439 143.454,236.439 		"/>
		<polygon points="143.454,236.439 144.35,236.439 144.35,236.439 		"/>
		<polygon points="144.35,236.439 145.247,236.439 145.247,236.439 		"/>
		<polygon points="145.247,236.439 146.191,236.439 146.191,236.439 		"/>
		<polygon points="146.191,236.439 147.088,236.439 147.088,236.439 		"/>
		<polygon points="147.088,236.439 148.033,236.439 148.033,236.439 		"/>
		<polygon points="148.033,236.439 148.929,236.439 148.929,236.439 		"/>
		<polygon points="148.929,236.439 149.826,236.439 149.826,236.439 		"/>
		<polygon points="149.826,236.439 150.77,236.439 150.77,236.439 		"/>
		<polygon points="150.77,236.439 151.667,236.439 151.667,236.439 		"/>
		<polygon points="151.667,236.439 152.611,236.439 152.611,236.439 		"/>
		<polygon points="152.611,236.439 153.508,236.439 153.508,236.439 		"/>
		<polygon points="153.508,236.439 154.405,236.439 154.405,236.439 		"/>
		<polygon points="154.405,236.439 155.349,236.439 155.349,236.439 		"/>
		<polygon points="155.349,236.439 156.246,236.439 156.246,236.439 		"/>
		<polygon points="156.246,236.439 157.19,236.439 157.19,236.439 		"/>
		<polygon points="157.19,236.439 158.087,236.439 158.087,236.439 		"/>
		<rect x="158.087" y="235.989" width="0.897" height="0.95"/>
		<polygon points="158.984,236.439 159.928,236.439 159.928,236.439 		"/>
		<polygon points="159.928,236.439 160.825,236.439 160.825,236.439 		"/>
		<polygon points="160.825,236.439 161.769,236.439 161.769,236.439 		"/>
		<polygon points="161.769,236.439 162.666,236.439 162.666,236.439 		"/>
		<polygon points="162.666,236.439 163.563,236.439 163.563,236.439 		"/>
		<polygon points="163.563,236.439 164.507,236.439 164.507,236.439 		"/>
		<polygon points="164.507,236.439 165.404,236.439 165.404,236.439 		"/>
		<polygon points="165.404,236.439 166.348,236.439 166.348,236.439 		"/>
		<polygon points="166.348,236.439 167.245,236.439 167.245,236.439 		"/>
		<rect x="167.245" y="235.989" width="0.897" height="0.95"/>
		<polygon points="168.142,236.439 169.086,236.439 169.086,236.439 		"/>
		<polygon points="169.086,236.439 169.983,236.439 169.983,236.439 		"/>
		<polygon points="169.983,236.439 170.927,236.439 170.927,236.439 		"/>
		<polygon points="170.927,236.439 171.824,236.439 171.824,236.439 		"/>
		<polygon points="171.824,236.439 172.721,236.439 172.721,236.439 		"/>
		<rect x="172.721" y="235.989" width="0.897" height="0.95"/>
		<polygon points="173.665,236.439 174.562,236.439 174.562,236.439 		"/>
		<polygon points="174.562,236.439 175.506,236.439 175.506,236.439 		"/>
		<polygon points="175.506,236.439 176.403,236.439 176.403,236.439 		"/>
		<polygon points="176.403,236.439 177.3,236.439 177.3,236.439 		"/>
		<polygon points="177.3,236.439 178.244,236.439 178.244,236.439 		"/>
		<polygon points="178.244,236.439 179.141,236.439 179.141,236.439 		"/>
		<polygon points="179.141,236.439 180.085,236.439 180.085,236.439 		"/>
		<polygon points="180.085,236.439 180.982,236.439 180.982,236.439 		"/>
		<polygon points="180.982,236.439 181.879,236.439 181.879,236.439 		"/>
		<polygon points="181.879,236.439 182.823,236.439 182.823,236.439 		"/>
		<polygon points="182.823,236.439 183.72,236.439 183.72,236.439 		"/>
		<polygon points="183.72,236.439 184.664,236.439 184.664,236.439 		"/>
		<polygon points="184.664,236.439 185.561,236.439 185.561,236.439 		"/>
		<polygon points="185.561,236.439 186.458,236.439 186.458,236.439 		"/>
		<polygon points="186.458,236.439 187.402,236.439 187.402,236.439 		"/>
		<polygon points="187.402,236.439 188.299,236.439 188.299,236.439 		"/>
		<polygon points="188.299,236.439 189.243,236.439 189.243,236.439 		"/>
		<polygon points="189.243,236.439 190.14,236.439 190.14,236.439 		"/>
		<polygon points="190.14,236.439 191.037,236.439 191.037,236.439 		"/>
		<polygon points="191.037,236.439 191.981,236.439 191.981,236.439 		"/>
		<polygon points="191.981,236.439 192.878,236.439 192.878,236.439 		"/>
		<polygon points="192.878,236.439 193.822,236.439 193.822,236.439 		"/>
		<polygon points="193.822,236.439 194.719,236.439 194.719,236.439 		"/>
		<polygon points="194.719,236.439 195.616,236.439 195.616,236.439 		"/>
		<polygon points="195.616,236.439 196.56,236.439 196.56,236.439 		"/>
		<polygon points="196.56,236.439 197.457,236.439 197.457,236.439 		"/>
		<polygon points="197.457,236.439 198.401,236.439 198.401,236.439 		"/>
		<polygon points="198.401,236.439 199.298,236.439 199.298,236.439 		"/>
		<polygon points="199.298,236.439 200.195,236.439 200.195,236.439 		"/>
		<polygon points="200.195,236.439 201.139,236.439 201.139,236.439 		"/>
		<rect x="201.139" y="235.489" width="0.897" height="1.85"/>
		<polygon points="202.036,236.439 202.98,236.439 202.98,236.439 		"/>
		<polygon points="202.98,236.439 203.877,236.439 203.877,236.439 		"/>
		<polygon points="203.877,236.439 204.774,236.439 204.774,236.439 		"/>
		<polygon points="204.774,236.439 205.718,236.439 205.718,236.439 		"/>
		<polygon points="205.718,236.439 206.615,236.439 206.615,236.439 		"/>
		<polygon points="206.615,236.439 207.559,236.439 207.559,236.439 		"/>
		<rect x="207.559" y="235.039" width="0.897" height="2.8"/>
		<polygon points="208.456,236.439 209.353,236.439 209.353,236.439 		"/>
		<polygon points="209.353,236.439 210.297,236.439 210.297,236.439 		"/>
		<polygon points="210.297,236.439 211.194,236.439 211.194,236.439 		"/>
		<polygon points="211.194,236.439 212.138,236.439 212.138,236.439 		"/>
		<polygon points="212.138,236.439 213.035,236.439 213.035,236.439 		"/>
		<polygon points="213.035,236.439 213.932,236.439 213.932,236.439 		"/>
		<polygon points="213.932,236.439 214.876,236.439 214.876,236.439 		"/>
		<rect x="214.876" y="235.989" width="0.897" height="0.95"/>
		<polygon points="215.773,236.439 216.717,236.439 216.717,236.439 		"/>
		<polygon points="216.717,236.439 217.614,236.439 217.614,236.439 		"/>
		<polygon points="217.614,236.439 218.511,236.439 218.511,236.439 		"/>
		<rect x="218.511" y="235.489" width="0.897" height="1.85"/>
		<polygon points="219.455,236.439 220.352,236.439 220.352,236.439 		"/>
		<polygon points="220.352,236.439 221.296,236.439 221.296,236.439 		"/>
		<polygon points="221.296,236.439 222.193,236.439 222.193,236.439 		"/>
		<polygon points="222.193,236.439 223.09,236.439 223.09,236.439 		"/>
		<polygon points="223.09,236.439 224.034,236.439 224.034,236.439 		"/>
		<polygon points="224.034,236.439 224.931,236.439 224.931,236.439 		"/>
		<polygon points="224.931,236.439 225.875,236.439 225.875,236.439 		"/>
		<polygon points="225.875,236.439 226.772,236.439 226.772,236.439 		"/>
		<polygon points="226.772,236.439 227.669,236.439 227.669,236.439 		"/>
		<polygon points="227.669,236.439 228.613,236.439 228.613,236.439 		"/>
		<rect x="228.613" y="235.989" width="0.897" height="0.95"/>
		<polygon points="229.51,236.439 230.454,236.439 230.454,236.439 		"/>
		<polygon points="230.454,236.439 231.351,236.439 231.351,236.439 		"/>
		<polygon points="231.351,236.439 232.248,236.439 232.248,236.439 		"/>
		<polygon points="232.248,236.439 233.192,236.439 233.192,236.439 		"/>
		<polygon points="233.192,236.439 234.089,236.439 234.089,236.439 		"/>
		<polygon points="234.089,236.439 235.033,236.439 235.033,236.439 		"/>
		<polygon points="235.033,236.439 235.93,236.439 235.93,236.439 		"/>
		<polygon points="235.93,236.439 236.827,236.439 236.827,236.439 		"/>
		<polygon points="236.827,236.439 237.771,236.439 237.771,236.439 		"/>
		<polygon points="237.771,236.439 238.668,236.439 238.668,236.439 		"/>
		<polygon points="238.668,236.439 239.612,236.439 239.612,236.439 		"/>
		<polygon points="239.612,236.439 240.509,236.439 240.509,236.439 		"/>
		<polygon points="240.509,236.439 241.406,236.439 241.406,236.439 		"/>
		<polygon points="241.406,236.439 242.35,236.439 242.35,236.439 		"/>
		<polygon points="242.35,236.439 243.247,236.439 243.247,236.439 		"/>
		<polygon points="243.247,236.439 244.144,236.439 244.144,236.439 		"/>
		<polygon points="244.144,236.439 245.088,236.439 245.088,236.439 		"/>
		<polygon points="245.088,236.439 245.985,236.439 245.985,236.439 		"/>
		<polygon points="245.985,236.439 246.929,236.439 246.929,236.439 		"/>
		<rect x="246.929" y="235.989" width="0.897" height="0.95"/>
		<rect x="247.826" y="233.189" width="0.897" height="6.5"/>
		<rect x="248.723" y="229.939" width="0.897" height="13"/>
		<rect x="249.667" y="235.489" width="0.897" height="1.85"/>
		<rect x="250.564" y="235.489" width="0.897" height="1.85"/>
		<rect x="251.508" y="230.889" width="0.897" height="11.15"/>
		<rect x="252.405" y="232.239" width="0.897" height="8.35"/>
		<rect x="253.302" y="234.139" width="0.897" height="4.65"/>
		<rect x="254.246" y="235.039" width="0.897" height="2.8"/>
		<rect x="255.143" y="225.289" width="0.897" height="22.3"/>
		<rect x="256.087" y="199.739" width="0.897" height="73.35"/>
		<rect x="256.984" y="227.139" width="0.897" height="18.55"/>
		<rect x="257.881" y="233.189" width="0.897" height="6.5"/>
		<rect x="258.825" y="205.789" width="0.897" height="61.3"/>
		<rect x="259.722" y="201.139" width="0.897" height="70.55"/>
		<rect x="260.666" y="175.139" width="0.897" height="122.55"/>
		<rect x="261.563" y="198.839" width="0.897" height="75.2"/>
		<rect x="262.46" y="230.389" width="0.897" height="12.05"/>
		<rect x="263.404" y="232.239" width="0.897" height="8.35"/>
		<rect x="264.301" y="221.589" width="0.897" height="29.7"/>
		<rect x="265.245" y="227.139" width="0.897" height="18.55"/>
		<rect x="266.142" y="218.789" width="0.897" height="35.3"/>
		<rect x="267.039" y="224.839" width="0.897" height="23.2"/>
		<rect x="267.983" y="221.589" width="0.897" height="29.7"/>
		<rect x="268.88" y="228.539" width="0.897" height="15.8"/>
		<rect x="269.824" y="228.089" width="0.897" height="16.7"/>
		<rect x="270.721" y="225.739" width="0.897" height="21.35"/>
		<rect x="271.617" y="230.889" width="0.897" height="11.15"/>
		<rect x="272.562" y="222.039" width="0.897" height="28.8"/>
		<rect x="273.459" y="224.839" width="0.897" height="23.2"/>
		<rect x="274.403" y="225.739" width="0.897" height="21.35"/>
		<rect x="275.3" y="204.389" width="0.897" height="64.05"/>
		<rect x="276.196" y="231.789" width="0.897" height="9.3"/>
		<rect x="277.141" y="227.639" width="0.897" height="17.65"/>
		<rect x="278.037" y="216.939" width="0.897" height="39"/>
		<rect x="278.982" y="194.639" width="0.897" height="83.55"/>
		<rect x="279.879" y="207.189" width="0.897" height="58.5"/>
		<rect x="280.775" y="175.139" width="0.897" height="122.55"/>
		<rect x="281.72" y="208.589" width="0.897" height="55.7"/>
		<rect x="282.616" y="203.489" width="0.897" height="65.95"/>
		<rect x="283.561" y="193.739" width="0.897" height="85.45"/>
		<rect x="284.457" y="206.239" width="0.897" height="60.35"/>
		<rect x="285.354" y="220.189" width="0.897" height="32.5"/>
		<rect x="286.299" y="224.389" width="0.897" height="24.15"/>
		<rect x="287.195" y="227.639" width="0.897" height="17.65"/>
		<rect x="288.14" y="233.189" width="0.897" height="6.5"/>
		<rect x="289.036" y="219.239" width="0.897" height="34.35"/>
		<rect x="289.933" y="234.139" width="0.897" height="4.65"/>
		<rect x="290.878" y="231.339" width="0.897" height="10.2"/>
		<rect x="291.774" y="233.189" width="0.897" height="6.5"/>
		<rect x="292.719" y="228.989" width="0.897" height="14.85"/>
		<rect x="293.615" y="228.089" width="0.897" height="16.7"/>
		<rect x="294.512" y="232.239" width="0.897" height="8.35"/>
		<rect x="295.456" y="220.639" width="0.897" height="31.55"/>
		<rect x="296.353" y="225.739" width="0.897" height="21.35"/>
		<rect x="297.297" y="228.539" width="0.897" height="15.8"/>
		<rect x="298.194" y="216.939" width="0.897" height="39"/>
		<rect x="299.091" y="218.339" width="0.897" height="36.2"/>
		<rect x="300.035" y="221.139" width="0.897" height="30.65"/>
		<rect x="300.932" y="217.389" width="0.897" height="38.05"/>
		<rect x="301.876" y="226.239" width="0.897" height="20.45"/>
		<rect x="302.773" y="216.939" width="0.897" height="39"/>
		<rect x="303.67" y="196.989" width="0.897" height="78.95"/>
		<rect x="304.614" y="228.089" width="0.897" height="16.7"/>
		<rect x="305.511" y="233.639" width="0.897" height="5.55"/>
		<rect x="306.455" y="222.489" width="0.897" height="27.85"/>
		<rect x="307.352" y="217.889" width="0.897" height="37.15"/>
		<rect x="308.249" y="221.139" width="0.897" height="30.65"/>
		<rect x="309.193" y="211.839" width="0.897" height="49.2"/>
		<rect x="310.09" y="217.889" width="0.897" height="37.15"/>
		<rect x="311.034" y="227.139" width="0.897" height="18.55"/>
	</g>
	<line style="opacity:0.8;" fill="none" stroke="#000000" stroke-miterlimit="10" x1="0" y1="20" x2="320" y2="20"/>
	<line style="opacity:0.8;" fill="none" stroke="#000000" stroke-miterlimit="10" x1="0" y1="420" x2="320" y2="420"/>
	<g>
		<path fill="none" stroke="#000000" stroke-miterlimit="10" d="M24.989,254.318c-0.011,15.504,0.003,15.119,0.003,25.074"/>
		<g>
			<path d="M24.992,249.789c-0.791,2.13-2.14,4.772-3.569,6.409l3.567-1.289l3.566,1.291
				C27.128,254.562,25.781,251.919,24.992,249.789z"/>
		</g>
	</g>
	<g>
		<path fill="none" stroke="#000000" stroke-miterlimit="10" d="M251.732,256.064c0.06,24.325,0.326,34.715-3.262,35.088"/>
		<g>
			<path d="M251.724,251.532c-0.786,2.131-2.129,4.777-3.554,6.418l3.564-1.297l3.569,1.283
				C253.872,256.301,252.518,253.661,251.724,251.532z"/>
		</g>
	</g>
	<g>
		<path fill="none" stroke="#000000" stroke-miterlimit="10" d="M247.783,218.164c0.255-32.318,2.085-56.18-7.377-61.314"/>
		<g>
			<path d="M247.759,222.69c0.815-2.121,2.194-4.747,3.641-6.369l-3.582,1.249l-3.551-1.331
				C245.677,217.893,246.994,220.551,247.759,222.69z"/>
		</g>
	</g>
	
		<line fill="none" stroke="#000000" stroke-width="0.5" stroke-miterlimit="10" stroke-dasharray="8" x1="256.087" y1="85.824" x2="256.087" y2="377.333"/>
</g>
<style>
#g-verba-vignette08-vox-mobile-img rect, #g-verba-vignette08-vox-mobile-img circle, #g-verba-vignette08-vox-mobile-img path, #g-verba-vignette08-vox-mobile-img line, #g-verba-vignette08-vox-mobile-img polyline { vector-effect: non-scaling-stroke; }
</style>
</svg>

