<?xml version="1.0" encoding="utf-8"?>
<!-- Generator: Adobe Illustrator 24.0.3, SVG Export Plug-In . SVG Version: 6.00 Build 0)  -->
<svg version="1.2" baseProfile="tiny" id="g-verba-vignette10-venezuela-mobile-img" xmlns="http://www.w3.org/2000/svg" xmlns:xlink="http://www.w3.org/1999/xlink"
	 x="0px" y="0px" viewBox="0 0 321 466.05" xml:space="preserve">
<g>
	
		<line style="opacity:0.8;" fill="none" stroke="#000000" stroke-miterlimit="10" x1="0.5" y1="20" x2="320.5" y2="20"/>
	
		<line style="opacity:0.8;" fill="none" stroke="#000000" stroke-miterlimit="10" x1="0.5" y1="446.05" x2="320.5" y2="446.05"/>
	<g transform="translate(30.963826886524892, 275)">
		<path display="none" fill="none" stroke="#212529" d="M-7.609,26.125h286.096"/>
		<g transform="translate(23.958277001652394,0)">
			<line display="none" fill="none" stroke="#212529" x1="-20.584" y1="-104.125" x2="-20.584" y2="25.875"/>
		</g>
		<g transform="translate(49.09707826348205,0)">
			<line display="none" fill="none" stroke="#212529" x1="-33.953" y1="-104.125" x2="-33.953" y2="25.875"/>
			
				
		</g>
		<g transform="translate(74.51213008862851,0)">
			<line display="none" fill="none" stroke="#212529" x1="-47.469" y1="-104.125" x2="-47.469" y2="25.875"/>
		</g>
		<g transform="translate(99.93869235391318,0)">
			<line display="none" fill="none" stroke="#212529" x1="-60.991" y1="-104.125" x2="-60.991" y2="25.875"/>
			
				
		</g>
		<g transform="translate(124.78973261228782,0)">
			<line display="none" fill="none" stroke="#212529" x1="-74.207" y1="-104.125" x2="-74.207" y2="25.875"/>
		</g>
		<g transform="translate(149.92853387411748,0)">
			<line display="none" fill="none" stroke="#212529" x1="-87.576" y1="-104.125" x2="-87.576" y2="25.875"/>
			
				
		</g>
		<g transform="translate(175.34358569926394,0)">
			<line display="none" fill="none" stroke="#212529" x1="-101.092" y1="-104.125" x2="-101.092" y2="25.875"/>
		</g>
		<g transform="translate(200.7701479645486,0)">
			<line display="none" fill="none" stroke="#212529" x1="-114.614" y1="-104.125" x2="-114.614" y2="25.875"/>
			
				
		</g>
		<g transform="translate(225.89743878624006,0)">
			<line display="none" fill="none" stroke="#212529" x1="-127.977" y1="-104.125" x2="-127.977" y2="25.875"/>
		</g>
		<g transform="translate(251.03624004806971,0)">
			<line display="none" fill="none" stroke="#212529" x1="-141.346" y1="-104.125" x2="-141.346" y2="25.875"/>
			
				
		</g>
		<g transform="translate(276.4512918732162,0)">
			<line display="none" fill="none" stroke="#212529" x1="-154.862" y1="-104.125" x2="-154.862" y2="25.875"/>
		</g>
		<g transform="translate(301.8778541385008,0)">
			<line display="none" fill="none" stroke="#212529" x1="-168.384" y1="-104.125" x2="-168.384" y2="25.875"/>
			
				
		</g>
		<g transform="translate(326.7288943968755,0)">
			<line display="none" fill="none" stroke="#212529" x1="-181.6" y1="-104.125" x2="-181.6" y2="25.875"/>
		</g>
		<g transform="translate(351.86769565870514,0)">
			<line display="none" fill="none" stroke="#212529" x1="-194.969" y1="-104.125" x2="-194.969" y2="25.875"/>
			
				
		</g>
		<g transform="translate(377.2827474838516,0)">
			<line display="none" fill="none" stroke="#212529" x1="-208.485" y1="-104.125" x2="-208.485" y2="25.875"/>
		</g>
		<g transform="translate(402.70930974913625,0)">
			<line display="none" fill="none" stroke="#212529" x1="-222.007" y1="-104.125" x2="-222.007" y2="25.875"/>
			
				
		</g>
		<g transform="translate(427.5603500075109,0)">
			<line display="none" fill="none" stroke="#212529" x1="-235.223" y1="-104.125" x2="-235.223" y2="25.875"/>
		</g>
		<g transform="translate(452.6991512693405,0)">
			<line display="none" fill="none" stroke="#212529" x1="-248.592" y1="-104.125" x2="-248.592" y2="25.875"/>
			
				
		</g>
		<g transform="translate(478.11420309448704,0)">
			<line display="none" fill="none" stroke="#212529" x1="-262.108" y1="-104.125" x2="-262.108" y2="25.875"/>
		</g>
		<g transform="translate(503.5407653597717,0)">
			<line display="none" fill="none" stroke="#212529" x1="-275.63" y1="-104.125" x2="-275.63" y2="25.875"/>
			
				
		</g>
		<g transform="translate(528.3918056181463,0)">
			<line display="none" fill="none" stroke="#212529" x1="-288.846" y1="-104.125" x2="-288.846" y2="25.875"/>
		</g>
		<g transform="translate(553.530606879976,0)">
			<line display="none" fill="none" stroke="#212529" x1="-302.215" y1="-104.125" x2="-302.215" y2="25.875"/>
			
				
		</g>
		<g transform="translate(578.9456587051225,0)">
			<line display="none" fill="none" stroke="#212529" x1="-315.731" y1="-104.125" x2="-315.731" y2="25.875"/>
		</g>
		<g transform="translate(604.372220970407,0)">
			<line display="none" fill="none" stroke="#212529" x1="-329.253" y1="-104.125" x2="-329.253" y2="25.875"/>
			
				
		</g>
	</g>
	<g transform="translate(30.963826886524892, 290)">
		<path display="none" fill="none" stroke="#212529" d="M-7.609,18.625h286.096"/>
		<g transform="translate(99.93869235391318,0)">
			<line display="none" fill="none" stroke="#212529" x1="-60.991" y1="-111.625" x2="-60.991" y2="18.375"/>
			
				<text transform="matrix(1 0 0 1 -75.1989 125.4251)" display="none" fill="#212529" font-family="'ElMessiri-Bold'" font-size="10px">2015</text>
		</g>
		<g transform="translate(200.7701479645486,0)">
			<line display="none" fill="none" stroke="#212529" x1="-114.614" y1="-111.625" x2="-114.614" y2="18.375"/>
			
				<text transform="matrix(1 0 0 1 -128.8219 125.4251)" display="none" fill="#212529" font-family="'ElMessiri-Bold'" font-size="10px">2016</text>
		</g>
		<g transform="translate(301.8778541385008,0)">
			<line display="none" fill="none" stroke="#212529" x1="-168.384" y1="-111.625" x2="-168.384" y2="18.375"/>
			
				<text transform="matrix(1 0 0 1 -182.5912 125.4251)" display="none" fill="#212529" font-family="'ElMessiri-Bold'" font-size="10px">2017</text>
		</g>
		<g transform="translate(402.70930974913625,0)">
			<line display="none" fill="none" stroke="#212529" x1="-222.007" y1="-111.625" x2="-222.007" y2="18.375"/>
			
				<text transform="matrix(1 0 0 1 -236.2142 125.4251)" display="none" fill="#212529" font-family="'ElMessiri-Bold'" font-size="10px">2018</text>
		</g>
		<g transform="translate(503.5407653597717,0)">
			<line display="none" fill="none" stroke="#212529" x1="-275.63" y1="-111.625" x2="-275.63" y2="18.375"/>
			
				<text transform="matrix(1 0 0 1 -289.8376 125.4251)" display="none" fill="#212529" font-family="'ElMessiri-Bold'" font-size="10px">2019</text>
		</g>
		<g transform="translate(604.372220970407,0)">
			<line display="none" fill="none" stroke="#212529" x1="-329.253" y1="-111.625" x2="-329.253" y2="18.375"/>
			
				<text transform="matrix(1 0 0 1 -343.4601 125.4251)" display="none" fill="#212529" font-family="'ElMessiri-Bold'" font-size="10px">2020</text>
		</g>
	</g>
	<g transform="translate(30, 0)">
		<path display="none" fill="none" stroke="#212529" d="M-10.33,228.625h3.25v-65h-3.25"/>
		<g transform="translate(0,130.5)">
			<line fill="none" stroke="#212529" stroke-opacity="0.12" x1="-7.33" y1="98.125" x2="279.672" y2="98.125"/>
			
				
		</g>
		<g transform="translate(0,110.5)">
			<line fill="none" stroke="#212529" stroke-opacity="0.12" x1="-7.33" y1="108.125" x2="279.672" y2="108.125"/>
		</g>
		<g transform="translate(0,90.5)">
			<line fill="none" stroke="#212529" stroke-opacity="0.12" x1="-7.33" y1="118.125" x2="279.672" y2="118.125"/>
			
				
		</g>
		<g transform="translate(0,70.5)">
			<line fill="none" stroke="#212529" stroke-opacity="0.12" x1="-7.33" y1="128.125" x2="279.672" y2="128.125"/>
		</g>
		<g transform="translate(0,50.49999999999999)">
			<line fill="none" stroke="#212529" stroke-opacity="0.12" x1="-7.33" y1="138.125" x2="279.672" y2="138.125"/>
			
				
		</g>
		<g transform="translate(0,30.499999999999993)">
			<line fill="none" stroke="#212529" stroke-opacity="0.12" x1="-7.33" y1="148.125" x2="279.672" y2="148.125"/>
		</g>
		<g transform="translate(0,10.499999999999993)">
			<line fill="none" stroke="#212529" stroke-opacity="0.12" x1="-7.33" y1="158.125" x2="279.672" y2="158.125"/>
			
				
		</g>
	</g>
	<g>
		<rect x="22.67" y="224.375" width="0.905" height="8"/>
		<rect x="23.575" y="226.375" width="0.905" height="4"/>
		<rect x="24.481" y="224.375" width="0.905" height="8"/>
		<polygon points="25.386,228.375 26.291,228.375 26.291,228.375 		"/>
		<rect x="26.291" y="226.875" width="0.905" height="3"/>
		<rect x="27.197" y="222.375" width="0.905" height="12"/>
		<rect x="28.102" y="213.875" width="0.905" height="29"/>
		<rect x="29.007" y="218.875" width="0.905" height="19"/>
		<rect x="29.913" y="215.375" width="0.905" height="26"/>
		<rect x="30.818" y="222.875" width="0.905" height="11"/>
		<rect x="31.723" y="216.375" width="0.905" height="24"/>
		<rect x="32.629" y="223.875" width="0.905" height="9"/>
		<rect x="33.534" y="223.875" width="0.905" height="9"/>
		<rect x="34.44" y="225.875" width="0.905" height="5"/>
		<rect x="35.345" y="224.875" width="0.905" height="7"/>
		<rect x="36.25" y="227.375" width="0.905" height="2"/>
		<polygon points="37.156,228.375 38.061,228.375 38.061,228.375 		"/>
		<rect x="38.061" y="225.375" width="0.905" height="6"/>
		<polygon points="38.966,228.375 39.872,228.375 39.872,228.375 		"/>
		<rect x="39.872" y="224.375" width="0.905" height="8"/>
		<polygon points="40.777,228.375 41.683,228.375 41.683,228.375 		"/>
		<rect x="41.683" y="225.875" width="0.905" height="5"/>
		<rect x="42.588" y="223.875" width="0.905" height="9"/>
		<polygon points="43.493,228.375 44.399,228.375 44.399,228.375 		"/>
		<rect x="44.399" y="227.875" width="0.905" height="1"/>
		<polygon points="45.304,228.375 46.209,228.375 46.209,228.375 		"/>
		<rect x="46.209" y="226.875" width="0.905" height="3"/>
		<rect x="47.115" y="227.375" width="0.905" height="2"/>
		<rect x="48.02" y="225.875" width="0.905" height="5"/>
		<rect x="48.925" y="224.875" width="0.905" height="7"/>
		<rect x="49.831" y="227.875" width="0.905" height="1"/>
		<rect x="50.736" y="225.375" width="0.905" height="6"/>
		<rect x="51.642" y="226.875" width="0.905" height="3"/>
		<polygon points="52.547,228.375 53.452,228.375 53.452,228.375 		"/>
		<rect x="53.452" y="226.375" width="0.905" height="4"/>
		<polygon points="54.358,228.375 55.263,228.375 55.263,228.375 		"/>
		<polygon points="55.263,228.375 56.168,228.375 56.168,228.375 		"/>
		<polygon points="56.168,228.375 57.074,228.375 57.074,228.375 		"/>
		<rect x="57.074" y="225.375" width="0.905" height="6"/>
		<rect x="57.979" y="227.875" width="0.905" height="1"/>
		<rect x="58.885" y="226.875" width="0.905" height="3"/>
		<rect x="59.79" y="226.875" width="0.905" height="3"/>
		<rect x="60.695" y="224.875" width="0.905" height="7"/>
		<polygon points="61.601,228.375 62.506,228.375 62.506,228.375 		"/>
		<rect x="62.506" y="227.375" width="0.905" height="2"/>
		<rect x="63.411" y="226.375" width="0.905" height="4"/>
		<rect x="64.317" y="226.375" width="0.905" height="4"/>
		<polygon points="65.222,228.375 66.127,228.375 66.127,228.375 		"/>
		<rect x="66.127" y="224.375" width="0.905" height="8"/>
		<rect x="67.033" y="225.375" width="0.905" height="6"/>
		<polygon points="67.938,228.375 68.844,228.375 68.844,228.375 		"/>
		<rect x="68.844" y="222.875" width="0.905" height="11"/>
		<polygon points="69.749,228.375 70.654,228.375 70.654,228.375 		"/>
		<rect x="70.654" y="225.875" width="0.905" height="5"/>
		<rect x="71.56" y="221.375" width="0.905" height="14"/>
		<rect x="72.465" y="226.375" width="0.905" height="4"/>
		<rect x="73.37" y="227.875" width="0.905" height="1"/>
		<rect x="74.276" y="225.875" width="0.905" height="5"/>
		<rect x="75.181" y="211.875" width="0.905" height="33"/>
		<rect x="76.087" y="215.875" width="0.905" height="25"/>
		<rect x="76.992" y="215.875" width="0.905" height="25"/>
		<rect x="77.897" y="201.875" width="0.905" height="53"/>
		<rect x="78.803" y="227.875" width="0.905" height="1"/>
		<rect x="79.708" y="227.375" width="0.905" height="2"/>
		<rect x="80.613" y="226.375" width="0.905" height="4"/>
		<rect x="81.519" y="220.875" width="0.905" height="15"/>
		<rect x="82.424" y="220.375" width="0.905" height="16"/>
		<rect x="83.329" y="218.875" width="0.905" height="19"/>
		<rect x="84.235" y="226.875" width="0.905" height="3"/>
		<rect x="85.14" y="227.375" width="0.905" height="2"/>
		<rect x="86.046" y="225.875" width="0.905" height="5"/>
		<rect x="86.951" y="219.875" width="0.905" height="17"/>
		<rect x="87.856" y="224.875" width="0.905" height="7"/>
		<rect x="88.762" y="222.875" width="0.905" height="11"/>
		<rect x="89.667" y="212.375" width="0.905" height="32"/>
		<rect x="90.572" y="220.375" width="0.905" height="16"/>
		<rect x="91.478" y="223.375" width="0.905" height="10"/>
		<rect x="92.383" y="223.875" width="0.905" height="9"/>
		<polygon points="93.289,228.375 94.194,228.375 94.194,228.375 		"/>
		<rect x="94.194" y="226.875" width="0.905" height="3"/>
		<rect x="95.099" y="227.375" width="0.905" height="2"/>
		<rect x="96.005" y="224.375" width="0.905" height="8"/>
		<rect x="96.91" y="225.375" width="0.905" height="6"/>
		<rect x="97.815" y="227.875" width="0.905" height="1"/>
		<rect x="98.721" y="225.375" width="0.905" height="6"/>
		<rect x="99.626" y="216.375" width="0.905" height="24"/>
		<rect x="100.531" y="224.875" width="0.905" height="7"/>
		<rect x="101.437" y="221.875" width="0.905" height="13"/>
		<rect x="102.342" y="218.875" width="0.905" height="19"/>
		<rect x="103.248" y="226.875" width="0.905" height="3"/>
		<polygon points="104.153,228.375 105.058,228.375 105.058,228.375 		"/>
		<polygon points="105.058,228.375 105.964,228.375 105.964,228.375 		"/>
		<rect x="105.964" y="226.875" width="0.905" height="3"/>
		<rect x="106.869" y="227.875" width="0.905" height="1"/>
		<rect x="107.774" y="223.875" width="0.905" height="9"/>
		<rect x="108.68" y="227.375" width="0.905" height="2"/>
		<rect x="109.585" y="226.375" width="0.905" height="4"/>
		<polygon points="110.491,228.375 111.396,228.375 111.396,228.375 		"/>
		<rect x="111.396" y="224.875" width="0.905" height="7"/>
		<rect x="112.301" y="216.375" width="0.905" height="24"/>
		<rect x="113.207" y="212.875" width="0.905" height="31"/>
		<rect x="114.112" y="226.875" width="0.905" height="3"/>
		<rect x="115.017" y="225.375" width="0.905" height="6"/>
		<rect x="115.923" y="225.375" width="0.905" height="6"/>
		<rect x="116.828" y="222.875" width="0.905" height="11"/>
		<rect x="117.733" y="223.375" width="0.905" height="10"/>
		<rect x="118.639" y="221.875" width="0.905" height="13"/>
		<rect x="119.544" y="226.875" width="0.905" height="3"/>
		<rect x="120.45" y="225.875" width="0.905" height="5"/>
		<rect x="121.355" y="226.875" width="0.905" height="3"/>
		<rect x="122.26" y="224.375" width="0.905" height="8"/>
		<rect x="123.166" y="227.375" width="0.905" height="2"/>
		<rect x="124.071" y="225.375" width="0.905" height="6"/>
		<rect x="124.976" y="227.375" width="0.905" height="2"/>
		<rect x="125.882" y="224.375" width="0.905" height="8"/>
		<polygon points="126.787,228.375 127.693,228.375 127.693,228.375 		"/>
		<rect x="127.693" y="223.375" width="0.905" height="10"/>
		<rect x="128.598" y="222.375" width="0.905" height="12"/>
		<rect x="129.503" y="225.375" width="0.905" height="6"/>
		<rect x="130.409" y="224.875" width="0.905" height="7"/>
		<rect x="131.314" y="221.375" width="0.905" height="14"/>
		<rect x="132.219" y="226.375" width="0.905" height="4"/>
		<rect x="133.125" y="220.875" width="0.905" height="15"/>
		<rect x="134.03" y="197.875" width="0.905" height="61"/>
		<rect x="134.935" y="206.375" width="0.905" height="44"/>
		<rect x="135.841" y="217.375" width="0.905" height="22"/>
		<rect x="136.746" y="213.875" width="0.905" height="29"/>
		<rect x="137.652" y="217.875" width="0.905" height="21"/>
		<rect x="138.557" y="225.875" width="0.905" height="5"/>
		<rect x="139.462" y="227.375" width="0.905" height="2"/>
		<rect x="140.368" y="225.875" width="0.905" height="5"/>
		<rect x="141.273" y="225.875" width="0.905" height="5"/>
		<rect x="142.178" y="225.875" width="0.905" height="5"/>
		<rect x="143.084" y="222.375" width="0.905" height="12"/>
		<rect x="143.989" y="224.875" width="0.905" height="7"/>
		<rect x="144.895" y="224.875" width="0.905" height="7"/>
		<rect x="145.8" y="227.375" width="0.905" height="2"/>
		<rect x="146.705" y="227.375" width="0.905" height="2"/>
		<rect x="147.611" y="222.375" width="0.905" height="12"/>
		<rect x="148.516" y="226.875" width="0.905" height="3"/>
		<rect x="149.421" y="226.375" width="0.905" height="4"/>
		<rect x="150.327" y="227.375" width="0.905" height="2"/>
		<rect x="151.232" y="227.375" width="0.905" height="2"/>
		<rect x="152.137" y="225.875" width="0.905" height="5"/>
		<polygon points="153.043,228.375 153.948,228.375 153.948,228.375 		"/>
		<rect x="153.948" y="226.875" width="0.905" height="3"/>
		<rect x="154.854" y="211.875" width="0.905" height="33"/>
		<rect x="155.759" y="222.375" width="0.905" height="12"/>
		<rect x="156.664" y="226.875" width="0.905" height="3"/>
		<rect x="157.57" y="227.875" width="0.905" height="1"/>
		<rect x="158.475" y="225.875" width="0.905" height="5"/>
		<rect x="159.38" y="226.875" width="0.905" height="3"/>
		<rect x="160.286" y="225.875" width="0.905" height="5"/>
		<rect x="161.191" y="225.875" width="0.905" height="5"/>
		<rect x="162.097" y="227.375" width="0.905" height="2"/>
		<rect x="163.002" y="227.875" width="0.905" height="1"/>
		<polygon points="163.907,228.375 164.813,228.375 164.813,228.375 		"/>
		<rect x="164.813" y="227.875" width="0.905" height="1"/>
		<rect x="165.718" y="227.375" width="0.905" height="2"/>
		<rect x="166.623" y="226.875" width="0.905" height="3"/>
		<rect x="167.529" y="226.375" width="0.905" height="4"/>
		<polygon points="168.434,228.375 169.339,228.375 169.339,228.375 		"/>
		<rect x="169.339" y="213.375" width="0.905" height="30"/>
		<rect x="170.245" y="227.375" width="0.905" height="2"/>
		<rect x="171.15" y="227.375" width="0.905" height="2"/>
		<rect x="172.056" y="226.375" width="0.905" height="4"/>
		<rect x="172.961" y="227.875" width="0.905" height="1"/>
		<rect x="173.866" y="224.375" width="0.905" height="8"/>
		<rect x="174.772" y="200.875" width="0.905" height="55"/>
		<rect x="175.677" y="218.375" width="0.905" height="20"/>
		<rect x="176.582" y="219.375" width="0.905" height="18"/>
		<rect x="177.488" y="209.375" width="0.905" height="38"/>
		<rect x="178.393" y="207.375" width="0.905" height="42"/>
		<rect x="179.299" y="211.375" width="0.905" height="34"/>
		<rect x="180.204" y="216.375" width="0.905" height="24"/>
		<rect x="181.109" y="221.375" width="0.905" height="14"/>
		<rect x="182.015" y="225.875" width="0.905" height="5"/>
		<rect x="182.92" y="221.875" width="0.905" height="13"/>
		<rect x="183.825" y="225.875" width="0.905" height="5"/>
		<rect x="184.731" y="224.375" width="0.905" height="8"/>
		<rect x="185.636" y="224.375" width="0.905" height="8"/>
		<rect x="186.541" y="218.375" width="0.905" height="20"/>
		<rect x="187.447" y="206.875" width="0.905" height="43"/>
		<rect x="188.352" y="206.875" width="0.905" height="43"/>
		<rect x="189.258" y="213.875" width="0.905" height="29"/>
		<rect x="190.163" y="207.875" width="0.905" height="41"/>
		<rect x="191.068" y="189.375" width="0.905" height="78"/>
		<rect x="191.974" y="204.375" width="0.905" height="48"/>
		<rect x="192.879" y="212.375" width="0.905" height="32"/>
		<rect x="193.784" y="218.375" width="0.905" height="20"/>
		<rect x="194.69" y="221.875" width="0.905" height="13"/>
		<rect x="195.595" y="223.875" width="0.905" height="9"/>
		<rect x="196.501" y="226.875" width="0.905" height="3"/>
		<rect x="197.406" y="223.375" width="0.905" height="10"/>
		<rect x="198.311" y="224.375" width="0.905" height="8"/>
		<rect x="199.217" y="227.375" width="0.905" height="2"/>
		<rect x="200.122" y="225.375" width="0.905" height="6"/>
		<rect x="201.027" y="226.375" width="0.905" height="4"/>
		<rect x="201.933" y="225.875" width="0.905" height="5"/>
		<rect x="202.838" y="222.875" width="0.905" height="11"/>
		<rect x="203.743" y="225.375" width="0.905" height="6"/>
		<rect x="204.649" y="207.875" width="0.905" height="41"/>
		<rect x="205.554" y="224.875" width="0.905" height="7"/>
		<rect x="206.46" y="227.375" width="0.905" height="2"/>
		<rect x="207.365" y="226.875" width="0.905" height="3"/>
		<rect x="208.27" y="225.875" width="0.905" height="5"/>
		<rect x="209.176" y="226.875" width="0.905" height="3"/>
		<rect x="210.081" y="221.875" width="0.905" height="13"/>
		<rect x="210.986" y="225.375" width="0.905" height="6"/>
		<rect x="211.892" y="227.875" width="0.905" height="1"/>
		<rect x="212.797" y="223.375" width="0.905" height="10"/>
		<rect x="213.703" y="213.375" width="0.905" height="30"/>
		<rect x="214.608" y="224.875" width="0.905" height="7"/>
		<rect x="215.513" y="223.875" width="0.905" height="9"/>
		<rect x="216.419" y="227.375" width="0.905" height="2"/>
		<rect x="217.324" y="224.875" width="0.905" height="7"/>
		<polygon points="218.229,228.375 219.135,228.375 219.135,228.375 		"/>
		<polygon points="219.135,228.375 220.04,228.375 220.04,228.375 		"/>
		<rect x="220.04" y="226.375" width="0.905" height="4"/>
		<rect x="220.945" y="227.375" width="0.905" height="2"/>
		<rect x="221.851" y="222.375" width="0.905" height="12"/>
		<rect x="222.756" y="226.875" width="0.905" height="3"/>
		<rect x="223.662" y="222.875" width="0.905" height="11"/>
		<rect x="224.567" y="222.875" width="0.905" height="11"/>
		<rect x="225.472" y="227.875" width="0.905" height="1"/>
		<rect x="226.378" y="225.875" width="0.905" height="5"/>
		<rect x="227.283" y="227.375" width="0.905" height="2"/>
		<rect x="228.188" y="217.375" width="0.905" height="22"/>
		<rect x="229.094" y="219.875" width="0.905" height="17"/>
		<rect x="229.999" y="225.875" width="0.905" height="5"/>
		<polygon points="230.905,228.375 231.81,228.375 231.81,228.375 		"/>
		<rect x="231.81" y="226.875" width="0.905" height="3"/>
		<polygon points="232.715,228.375 233.621,228.375 233.621,228.375 		"/>
		<polygon points="233.621,228.375 234.526,228.375 234.526,228.375 		"/>
		<polygon points="234.526,228.375 235.431,228.375 235.431,228.375 		"/>
		<polygon points="235.431,228.375 236.337,228.375 236.337,228.375 		"/>
		<rect x="236.337" y="227.875" width="0.905" height="1"/>
		<rect x="237.242" y="226.875" width="0.905" height="3"/>
		<rect x="238.147" y="224.375" width="0.905" height="8"/>
		<rect x="239.053" y="218.375" width="0.905" height="20"/>
		<rect x="239.958" y="222.375" width="0.905" height="12"/>
		<rect x="240.864" y="221.375" width="0.905" height="14"/>
		<rect x="241.769" y="222.375" width="0.905" height="12"/>
		<rect x="242.674" y="218.875" width="0.905" height="19"/>
		<rect x="243.58" y="220.875" width="0.905" height="15"/>
		<rect x="244.485" y="220.375" width="0.905" height="16"/>
		<rect x="245.39" y="217.875" width="0.905" height="21"/>
		<rect x="246.296" y="226.875" width="0.905" height="3"/>
		<rect x="247.201" y="219.375" width="0.905" height="18"/>
		<rect x="248.107" y="226.875" width="0.905" height="3"/>
		<rect x="249.012" y="223.375" width="0.905" height="10"/>
		<rect x="249.917" y="226.875" width="0.905" height="3"/>
		<rect x="250.823" y="227.875" width="0.905" height="1"/>
		<rect x="251.728" y="226.375" width="0.905" height="4"/>
		<rect x="252.633" y="226.375" width="0.905" height="4"/>
		<rect x="253.539" y="226.875" width="0.905" height="3"/>
		<rect x="254.444" y="225.875" width="0.905" height="5"/>
		<rect x="255.349" y="223.875" width="0.905" height="9"/>
		<polygon points="256.255,228.375 257.16,228.375 257.16,228.375 		"/>
		<rect x="257.16" y="225.875" width="0.905" height="5"/>
		<rect x="258.066" y="225.875" width="0.905" height="5"/>
		<rect x="258.971" y="223.875" width="0.905" height="9"/>
		<polygon points="259.876,228.375 260.782,228.375 260.782,228.375 		"/>
		<rect x="260.782" y="181.875" width="0.905" height="93"/>
		<rect x="261.687" y="167.375" width="0.905" height="122"/>
		<rect x="262.592" y="179.375" width="0.905" height="98"/>
		<rect x="263.498" y="199.375" width="0.905" height="58"/>
		<rect x="264.403" y="184.875" width="0.905" height="87"/>
		<rect x="265.309" y="203.375" width="0.905" height="50"/>
		<rect x="266.214" y="207.375" width="0.905" height="42"/>
		<rect x="267.119" y="219.875" width="0.905" height="17"/>
		<rect x="268.025" y="218.875" width="0.905" height="19"/>
		<rect x="268.93" y="218.875" width="0.905" height="19"/>
		<rect x="269.835" y="219.875" width="0.905" height="17"/>
		<rect x="270.741" y="223.875" width="0.905" height="9"/>
		<rect x="271.646" y="226.375" width="0.905" height="4"/>
		<rect x="272.551" y="227.875" width="0.905" height="1"/>
		<rect x="273.457" y="186.875" width="0.905" height="83"/>
		<rect x="274.362" y="219.875" width="0.905" height="17"/>
		<rect x="275.268" y="221.375" width="0.905" height="14"/>
		<rect x="276.173" y="224.875" width="0.905" height="7"/>
		<rect x="277.078" y="227.875" width="0.905" height="1"/>
		<rect x="277.984" y="224.875" width="0.905" height="7"/>
		<rect x="278.889" y="227.375" width="0.905" height="2"/>
		<rect x="279.794" y="224.875" width="0.905" height="7"/>
		<rect x="280.7" y="224.875" width="0.905" height="7"/>
		<rect x="281.605" y="219.875" width="0.905" height="17"/>
		<rect x="282.511" y="225.875" width="0.905" height="5"/>
		<polygon points="283.416,228.375 284.321,228.375 284.321,228.375 		"/>
		<rect x="284.321" y="225.875" width="0.905" height="5"/>
		<polygon points="285.227,228.375 286.132,228.375 286.132,228.375 		"/>
		<rect x="286.132" y="223.875" width="0.905" height="9"/>
		<rect x="287.037" y="227.375" width="0.905" height="2"/>
		<polygon points="287.943,228.375 288.848,228.375 288.848,228.375 		"/>
		<rect x="288.848" y="227.375" width="0.905" height="2"/>
		<rect x="289.753" y="227.375" width="0.905" height="2"/>
		<rect x="290.659" y="225.875" width="0.905" height="5"/>
		<polygon points="291.564,228.375 292.47,228.375 292.47,228.375 		"/>
		<rect x="292.47" y="226.375" width="0.905" height="4"/>
		<rect x="293.375" y="227.375" width="0.905" height="2"/>
		<rect x="294.28" y="225.375" width="0.905" height="6"/>
		<polygon points="295.186,228.375 296.091,228.375 296.091,228.375 		"/>
		<polygon points="296.091,228.375 296.996,228.375 296.996,228.375 		"/>
		<polygon points="296.996,228.375 297.902,228.375 297.902,228.375 		"/>
		<rect x="297.902" y="227.375" width="0.905" height="2"/>
		<rect x="298.807" y="226.875" width="0.905" height="3"/>
		<polygon points="299.713,228.375 300.618,228.375 300.618,228.375 		"/>
		<rect x="300.618" y="226.875" width="0.905" height="3"/>
		<polygon points="301.523,228.375 302.429,228.375 302.429,228.375 		"/>
		<polygon points="302.429,228.375 303.334,228.375 303.334,228.375 		"/>
		<rect x="303.334" y="227.875" width="0.905" height="1"/>
		<rect x="304.239" y="226.375" width="0.905" height="4"/>
		<rect x="305.145" y="226.875" width="0.905" height="3"/>
		<rect x="306.05" y="222.375" width="0.905" height="12"/>
		<rect x="306.956" y="227.375" width="0.905" height="2"/>
		<rect x="307.861" y="220.375" width="0.905" height="16"/>
		<rect x="308.766" y="226.875" width="0.905" height="3"/>
	</g>
	<g>
		<g>
			<g>
				<path fill="none" stroke="#000000" stroke-miterlimit="10" d="M191.581,284.673c-0.064,20.954-1.095,25.297-6.85,26.49"/>
				<g>
					<path d="M191.581,280.146c-0.816,2.12-2.196,4.746-3.644,6.367l3.582-1.247l3.55,1.333
						C193.662,284.944,192.345,282.285,191.581,280.146z"/>
				</g>
			</g>
		</g>
	</g>
	<g>
		<g>
			<g>
				<path fill="none" stroke="#000000" stroke-miterlimit="10" d="M262.032,145.489c0.052-17.626,0.108-17.142,0.108-26.019"/>
				<g>
					<path d="M262.02,150.018c0.799-2.127,2.158-4.764,3.593-6.396l-3.572,1.276l-3.561-1.304
						C259.901,145.237,261.239,147.885,262.02,150.018z"/>
				</g>
			</g>
		</g>
	</g>
</g>
<style>
#g-verba-vignette10-venezuela-mobile-img rect, #g-verba-vignette10-venezuela-mobile-img circle, #g-verba-vignette10-venezuela-mobile-img path, #g-verba-vignette10-venezuela-mobile-img line, #g-verba-vignette10-venezuela-mobile-img polyline { vector-effect: non-scaling-stroke; }
</style>
</svg>

