<?xml version="1.0" encoding="utf-8"?>
<!-- Generator: Adobe Illustrator 24.0.3, SVG Export Plug-In . SVG Version: 6.00 Build 0)  -->
<svg version="1.2" baseProfile="tiny" id="g-verba-vignette11-loteria-desktop-img" xmlns="http://www.w3.org/2000/svg" xmlns:xlink="http://www.w3.org/1999/xlink"
	 x="0px" y="0px" viewBox="0 0 673 500" xml:space="preserve">
<g>
	<g transform="translate(30.969926933736456, 275)">
		<path display="none" fill="none" stroke="#212529" d="M0.5,120.5h611.054"/>
		<g transform="translate(24.107218442932727,0)">
			<line display="none" fill="none" stroke="#212529" x1="0" y1="-140" x2="0" y2="120"/>
			
				
		</g>
		<g transform="translate(49.40563114134543,0)">
			<line display="none" fill="none" stroke="#212529" x1="0" y1="-140" x2="0" y2="120"/>
			
				
		</g>
		<g transform="translate(74.98204837490552,0)">
			<line display="none" fill="none" stroke="#212529" x1="0" y1="-140" x2="0" y2="120"/>
			
				
		</g>
		<g transform="translate(100.57004913076342,0)">
			<line display="none" fill="none" stroke="#212529" x1="0" y1="-140" x2="0" y2="120"/>
			
				
		</g>
		<g transform="translate(125.57887377173093,0)">
			<line display="none" fill="none" stroke="#212529" x1="0" y1="-140" x2="0" y2="120"/>
			
				
		</g>
		<g transform="translate(150.87728647014362,0)">
			<line display="none" fill="none" stroke="#212529" x1="0" y1="-140" x2="0" y2="120"/>
			
				
		</g>
		<g transform="translate(176.45370370370372,0)">
			<line display="none" fill="none" stroke="#212529" x1="0" y1="-140" x2="0" y2="120"/>
			
				
		</g>
		<g transform="translate(202.0417044595616,0)">
			<line display="none" fill="none" stroke="#212529" x1="0" y1="-140" x2="0" y2="120"/>
			
				
		</g>
		<g transform="translate(227.32853363567648,0)">
			<line display="none" fill="none" stroke="#212529" x1="0" y1="-140" x2="0" y2="120"/>
			
				
		</g>
		<g transform="translate(252.6269463340892,0)">
			<line display="none" fill="none" stroke="#212529" x1="0" y1="-140" x2="0" y2="120"/>
			
				
		</g>
		<g transform="translate(278.20336356764926,0)">
			<line display="none" fill="none" stroke="#212529" x1="0" y1="-140" x2="0" y2="120"/>
			
				
		</g>
		<g transform="translate(303.7913643235072,0)">
			<line display="none" fill="none" stroke="#212529" x1="0" y1="-140" x2="0" y2="120"/>
			
				
		</g>
		<g transform="translate(328.8001889644747,0)">
			<line display="none" fill="none" stroke="#212529" x1="0" y1="-140" x2="0" y2="120"/>
			
				
		</g>
		<g transform="translate(354.0986016628874,0)">
			<line display="none" fill="none" stroke="#212529" x1="0" y1="-140" x2="0" y2="120"/>
			
				
		</g>
		<g transform="translate(379.6750188964475,0)">
			<line display="none" fill="none" stroke="#212529" x1="0" y1="-140" x2="0" y2="120"/>
			
				
		</g>
		<g transform="translate(405.2630196523054,0)">
			<line display="none" fill="none" stroke="#212529" x1="0" y1="-140" x2="0" y2="120"/>
			
				
		</g>
		<g transform="translate(430.27184429327286,0)">
			<line display="none" fill="none" stroke="#212529" x1="0" y1="-140" x2="0" y2="120"/>
			
				
		</g>
		<g transform="translate(455.5702569916856,0)">
			<line display="none" fill="none" stroke="#212529" x1="0" y1="-140" x2="0" y2="120"/>
			
				
		</g>
		<g transform="translate(481.1466742252457,0)">
			<line display="none" fill="none" stroke="#212529" x1="0" y1="-140" x2="0" y2="120"/>
			
				
		</g>
		<g transform="translate(506.7346749811036,0)">
			<line display="none" fill="none" stroke="#212529" x1="0" y1="-140" x2="0" y2="120"/>
			
				
		</g>
		<g transform="translate(531.7434996220711,0)">
			<line display="none" fill="none" stroke="#212529" x1="0" y1="-140" x2="0" y2="120"/>
			
				
		</g>
		<g transform="translate(557.0419123204838,0)">
			<line display="none" fill="none" stroke="#212529" x1="0" y1="-140" x2="0" y2="120"/>
			
				
		</g>
		<g transform="translate(582.6183295540438,0)">
			<line display="none" fill="none" stroke="#212529" x1="0" y1="-140" x2="0" y2="120"/>
			
				
		</g>
		<g transform="translate(608.2063303099018,0)">
			<line display="none" fill="none" stroke="#212529" x1="0" y1="-140" x2="0" y2="120"/>
			
				
		</g>
	</g>
	<g transform="translate(30.969926933736456, 290)">
		<path display="none" fill="none" stroke="#212529" d="M0.5,120.5h611.054"/>
		<g transform="translate(100.57004913076342,0)">
			<line display="none" fill="none" stroke="#212529" x1="0" y1="-140" x2="0" y2="120"/>
			
				<text transform="matrix(1 0 0 1 -11.1231 136.1)" display="none" fill="#212529" font-family="'ElMessiri-Bold'" font-size="10px">2015</text>
		</g>
		<g transform="translate(202.0417044595616,0)">
			<line display="none" fill="none" stroke="#212529" x1="0" y1="-140" x2="0" y2="120"/>
			
				<text transform="matrix(1 0 0 1 -11.123 136.1)" display="none" fill="#212529" font-family="'ElMessiri-Bold'" font-size="10px">2016</text>
		</g>
		<g transform="translate(303.7913643235072,0)">
			<line display="none" fill="none" stroke="#212529" x1="0" y1="-140" x2="0" y2="120"/>
			
				<text transform="matrix(1 0 0 1 -11.123 136.1)" display="none" fill="#212529" font-family="'ElMessiri-Bold'" font-size="10px">2017</text>
		</g>
		<g transform="translate(405.2630196523054,0)">
			<line display="none" fill="none" stroke="#212529" x1="0" y1="-140" x2="0" y2="120"/>
			
				<text transform="matrix(1 0 0 1 -11.123 136.1)" display="none" fill="#212529" font-family="'ElMessiri-Bold'" font-size="10px">2018</text>
		</g>
		<g transform="translate(506.7346749811036,0)">
			<line display="none" fill="none" stroke="#212529" x1="0" y1="-140" x2="0" y2="120"/>
			
				<text transform="matrix(1 0 0 1 -11.1231 136.1)" display="none" fill="#212529" font-family="'ElMessiri-Bold'" font-size="10px">2019</text>
		</g>
		<g transform="translate(608.2063303099018,0)">
			<line display="none" fill="none" stroke="#212529" x1="0" y1="-140" x2="0" y2="120"/>
			
				<text transform="matrix(1 0 0 1 -11.1231 136.1)" display="none" fill="#212529" font-family="'ElMessiri-Bold'" font-size="10px">2020</text>
		</g>
	</g>
	<g transform="translate(30, 0)">
		<path display="none" fill="none" stroke="#212529" d="M-6,250.5h6.5v-130H-6"/>
		<g transform="translate(0,130.5)">
			<line fill="none" stroke="#212529" stroke-opacity="0.12" x1="0" y1="120" x2="613" y2="120"/>
			
				
		</g>
		<g transform="translate(0,94.38888888888889)">
			<line fill="none" stroke="#212529" stroke-opacity="0.12" x1="0" y1="120" x2="613" y2="120"/>
			
				
		</g>
		<g transform="translate(0,58.27777777777777)">
			<line fill="none" stroke="#212529" stroke-opacity="0.12" x1="0" y1="120" x2="613" y2="120"/>
			
				
		</g>
		<g transform="translate(0,22.16666666666666)">
			<line fill="none" stroke="#212529" stroke-opacity="0.12" x1="0" y1="120" x2="613" y2="120"/>
			
				
		</g>
	</g>
	<g>
		<polygon points="30,250 31.946,250 31.946,250 		"/>
		<polygon points="31.946,250 33.892,250 33.892,250 		"/>
		<polygon points="33.892,250 35.838,250 35.838,250 		"/>
		<polygon points="35.838,250 37.784,250 37.784,250 		"/>
		<polygon points="37.784,250 39.73,250 39.73,250 		"/>
		<polygon points="39.73,250 41.676,250 41.676,250 		"/>
		<polygon points="41.676,250 43.622,250 43.622,250 		"/>
		<polygon points="43.622,250 45.568,250 45.568,250 		"/>
		<polygon points="45.568,250 47.514,250 47.514,250 		"/>
		<polygon points="47.514,250 49.46,250 49.46,250 		"/>
		<polygon points="49.46,250 51.406,250 51.406,250 		"/>
		<polygon points="51.406,250 53.352,250 53.352,250 		"/>
		<polygon points="53.352,250 55.298,250 55.298,250 		"/>
		<polygon points="55.298,250 57.244,250 57.244,250 		"/>
		<polygon points="57.244,250 59.19,250 59.19,250 		"/>
		<polygon points="59.19,250 61.137,250 61.137,250 		"/>
		<polygon points="61.137,250 63.083,250 63.083,250 		"/>
		<polygon points="63.083,250 65.029,250 65.029,250 		"/>
		<polygon points="65.029,250 66.975,250 66.975,250 		"/>
		<polygon points="66.975,250 68.921,250 68.921,250 		"/>
		<polygon points="68.921,250 70.867,250 70.867,250 		"/>
		<polygon points="70.867,250 72.813,250 72.813,250 		"/>
		<polygon points="72.813,250 74.759,250 74.759,250 		"/>
		<polygon points="74.759,250 76.705,250 76.705,250 		"/>
		<polygon points="76.705,250 78.651,250 78.651,250 		"/>
		<polygon points="78.651,250 80.597,250 80.597,250 		"/>
		<polygon points="80.597,250 82.543,250 82.543,250 		"/>
		<rect x="82.543" y="221.111" width="1.946" height="57.778"/>
		<polygon points="84.489,250 86.435,250 86.435,250 		"/>
		<polygon points="86.435,250 88.381,250 88.381,250 		"/>
		<polygon points="88.381,250 90.327,250 90.327,250 		"/>
		<polygon points="90.327,250 92.273,250 92.273,250 		"/>
		<polygon points="92.273,250 94.219,250 94.219,250 		"/>
		<polygon points="94.219,250 96.165,250 96.165,250 		"/>
		<polygon points="96.165,250 98.111,250 98.111,250 		"/>
		<polygon points="98.111,250 100.057,250 100.057,250 		"/>
		<polygon points="100.057,250 102.003,250 102.003,250 		"/>
		<polygon points="102.003,250 103.949,250 103.949,250 		"/>
		<polygon points="103.949,250 105.895,250 105.895,250 		"/>
		<polygon points="105.895,250 107.841,250 107.841,250 		"/>
		<rect x="107.841" y="242.778" width="1.946" height="14.444"/>
		<polygon points="109.787,250 111.733,250 111.733,250 		"/>
		<polygon points="111.733,250 113.679,250 113.679,250 		"/>
		<polygon points="113.679,250 115.625,250 115.625,250 		"/>
		<rect x="115.625" y="213.889" width="1.946" height="72.222"/>
		<rect x="117.571" y="235.556" width="1.946" height="28.889"/>
		<polygon points="119.517,250 121.463,250 121.463,250 		"/>
		<polygon points="121.463,250 123.41,250 123.41,250 		"/>
		<rect x="123.41" y="206.667" width="1.946" height="86.667"/>
		<rect x="125.356" y="206.667" width="1.946" height="86.667"/>
		<rect x="127.302" y="156.111" width="1.946" height="187.778"/>
		<rect x="129.248" y="242.778" width="1.946" height="14.444"/>
		<polygon points="131.194,250 133.14,250 133.14,250 		"/>
		<polygon points="133.14,250 135.086,250 135.086,250 		"/>
		<polygon points="135.086,250 137.032,250 137.032,250 		"/>
		<polygon points="137.032,250 138.978,250 138.978,250 		"/>
		<polygon points="138.978,250 140.924,250 140.924,250 		"/>
		<polygon points="140.924,250 142.87,250 142.87,250 		"/>
		<polygon points="142.87,250 144.816,250 144.816,250 		"/>
		<polygon points="144.816,250 146.762,250 146.762,250 		"/>
		<polygon points="146.762,250 148.708,250 148.708,250 		"/>
		<polygon points="148.708,250 150.654,250 150.654,250 		"/>
		<polygon points="150.654,250 152.6,250 152.6,250 		"/>
		<polygon points="152.6,250 154.546,250 154.546,250 		"/>
		<polygon points="154.546,250 156.492,250 156.492,250 		"/>
		<polygon points="156.492,250 158.438,250 158.438,250 		"/>
		<polygon points="158.438,250 160.384,250 160.384,250 		"/>
		<polygon points="160.384,250 162.33,250 162.33,250 		"/>
		<polygon points="162.33,250 164.276,250 164.276,250 		"/>
		<polygon points="164.276,250 166.222,250 166.222,250 		"/>
		<polygon points="166.222,250 168.168,250 168.168,250 		"/>
		<polygon points="168.168,250 170.114,250 170.114,250 		"/>
		<polygon points="170.114,250 172.06,250 172.06,250 		"/>
		<polygon points="172.06,250 174.006,250 174.006,250 		"/>
		<polygon points="174.006,250 175.952,250 175.952,250 		"/>
		<polygon points="175.952,250 177.898,250 177.898,250 		"/>
		<polygon points="177.898,250 179.844,250 179.844,250 		"/>
		<polygon points="179.844,250 181.79,250 181.79,250 		"/>
		<polygon points="181.79,250 183.737,250 183.737,250 		"/>
		<rect x="183.737" y="213.889" width="1.946" height="72.222"/>
		<polygon points="185.683,250 187.629,250 187.629,250 		"/>
		<polygon points="187.629,250 189.575,250 189.575,250 		"/>
		<polygon points="189.575,250 191.521,250 191.521,250 		"/>
		<polygon points="191.521,250 193.467,250 193.467,250 		"/>
		<polygon points="193.467,250 195.413,250 195.413,250 		"/>
		<polygon points="195.413,250 197.359,250 197.359,250 		"/>
		<polygon points="197.359,250 199.305,250 199.305,250 		"/>
		<polygon points="199.305,250 201.251,250 201.251,250 		"/>
		<polygon points="201.251,250 203.197,250 203.197,250 		"/>
		<polygon points="203.197,250 205.143,250 205.143,250 		"/>
		<polygon points="205.143,250 207.089,250 207.089,250 		"/>
		<polygon points="207.089,250 209.035,250 209.035,250 		"/>
		<rect x="209.035" y="235.556" width="1.946" height="28.889"/>
		<polygon points="210.981,250 212.927,250 212.927,250 		"/>
		<polygon points="212.927,250 214.873,250 214.873,250 		"/>
		<polygon points="214.873,250 216.819,250 216.819,250 		"/>
		<rect x="216.819" y="228.333" width="1.946" height="43.333"/>
		<rect x="218.765" y="213.889" width="1.946" height="72.222"/>
		<polygon points="220.711,250 222.657,250 222.657,250 		"/>
		<polygon points="222.657,250 224.603,250 224.603,250 		"/>
		<rect x="224.603" y="242.778" width="1.946" height="14.444"/>
		<rect x="226.549" y="148.889" width="1.946" height="202.222"/>
		<rect x="228.495" y="134.444" width="1.946" height="231.111"/>
		<rect x="230.441" y="242.778" width="1.946" height="14.444"/>
		<rect x="232.387" y="235.556" width="1.946" height="28.889"/>
		<polygon points="234.333,250 236.279,250 236.279,250 		"/>
		<polygon points="236.279,250 238.225,250 238.225,250 		"/>
		<polygon points="238.225,250 240.171,250 240.171,250 		"/>
		<polygon points="240.171,250 242.117,250 242.117,250 		"/>
		<polygon points="242.117,250 244.063,250 244.063,250 		"/>
		<polygon points="244.063,250 246.01,250 246.01,250 		"/>
		<polygon points="246.01,250 247.956,250 247.956,250 		"/>
		<polygon points="247.956,250 249.902,250 249.902,250 		"/>
		<polygon points="249.902,250 251.848,250 251.848,250 		"/>
		<polygon points="251.848,250 253.794,250 253.794,250 		"/>
		<polygon points="253.794,250 255.74,250 255.74,250 		"/>
		<polygon points="255.74,250 257.686,250 257.686,250 		"/>
		<polygon points="257.686,250 259.632,250 259.632,250 		"/>
		<polygon points="259.632,250 261.578,250 261.578,250 		"/>
		<polygon points="261.578,250 263.524,250 263.524,250 		"/>
		<polygon points="263.524,250 265.47,250 265.47,250 		"/>
		<polygon points="265.47,250 267.416,250 267.416,250 		"/>
		<polygon points="267.416,250 269.362,250 269.362,250 		"/>
		<polygon points="269.362,250 271.308,250 271.308,250 		"/>
		<polygon points="271.308,250 273.254,250 273.254,250 		"/>
		<polygon points="273.254,250 275.2,250 275.2,250 		"/>
		<polygon points="275.2,250 277.146,250 277.146,250 		"/>
		<polygon points="277.146,250 279.092,250 279.092,250 		"/>
		<polygon points="279.092,250 281.038,250 281.038,250 		"/>
		<polygon points="281.038,250 282.984,250 282.984,250 		"/>
		<polygon points="282.984,250 284.93,250 284.93,250 		"/>
		<rect x="284.93" y="221.111" width="1.946" height="57.778"/>
		<rect x="286.876" y="228.333" width="1.946" height="43.333"/>
		<polygon points="288.822,250 290.768,250 290.768,250 		"/>
		<polygon points="290.768,250 292.714,250 292.714,250 		"/>
		<polygon points="292.714,250 294.66,250 294.66,250 		"/>
		<polygon points="294.66,250 296.606,250 296.606,250 		"/>
		<polygon points="296.606,250 298.552,250 298.552,250 		"/>
		<polygon points="298.552,250 300.498,250 300.498,250 		"/>
		<polygon points="300.498,250 302.444,250 302.444,250 		"/>
		<polygon points="302.444,250 304.391,250 304.391,250 		"/>
		<polygon points="304.39,250 306.337,250 306.337,250 		"/>
		<polygon points="306.337,250 308.283,250 308.283,250 		"/>
		<polygon points="308.283,250 310.229,250 310.229,250 		"/>
		<rect x="310.229" y="228.333" width="1.946" height="43.333"/>
		<polygon points="312.175,250 314.121,250 314.121,250 		"/>
		<polygon points="314.121,250 316.067,250 316.067,250 		"/>
		<polygon points="316.067,250 318.013,250 318.013,250 		"/>
		<polygon points="318.013,250 319.959,250 319.959,250 		"/>
		<rect x="319.959" y="213.889" width="1.946" height="72.222"/>
		<rect x="321.905" y="228.333" width="1.946" height="43.333"/>
		<rect x="323.851" y="235.556" width="1.946" height="28.889"/>
		<rect x="325.797" y="221.111" width="1.946" height="57.778"/>
		<rect x="327.743" y="213.889" width="1.946" height="72.222"/>
		<rect x="329.689" y="127.222" width="1.946" height="245.556"/>
		<rect x="331.635" y="242.778" width="1.946" height="14.444"/>
		<rect x="333.581" y="228.333" width="1.946" height="43.333"/>
		<polygon points="335.527,250 337.473,250 337.473,250 		"/>
		<polygon points="337.473,250 339.419,250 339.419,250 		"/>
		<polygon points="339.419,250 341.365,250 341.365,250 		"/>
		<polygon points="341.365,250 343.311,250 343.311,250 		"/>
		<polygon points="343.311,250 345.257,250 345.257,250 		"/>
		<polygon points="345.257,250 347.203,250 347.203,250 		"/>
		<polygon points="347.203,250 349.149,250 349.149,250 		"/>
		<polygon points="349.149,250 351.095,250 351.095,250 		"/>
		<polygon points="351.095,250 353.041,250 353.041,250 		"/>
		<polygon points="353.041,250 354.987,250 354.987,250 		"/>
		<polygon points="354.987,250 356.933,250 356.933,250 		"/>
		<polygon points="356.933,250 358.879,250 358.879,250 		"/>
		<polygon points="358.879,250 360.825,250 360.825,250 		"/>
		<polygon points="360.825,250 362.771,250 362.771,250 		"/>
		<polygon points="362.771,250 364.717,250 364.717,250 		"/>
		<polygon points="364.717,250 366.664,250 366.664,250 		"/>
		<polygon points="366.663,250 368.61,250 368.61,250 		"/>
		<polygon points="368.61,250 370.556,250 370.556,250 		"/>
		<polygon points="370.556,250 372.502,250 372.502,250 		"/>
		<polygon points="372.502,250 374.448,250 374.448,250 		"/>
		<polygon points="374.448,250 376.394,250 376.394,250 		"/>
		<rect x="376.394" y="242.778" width="1.946" height="14.444"/>
		<polygon points="378.34,250 380.286,250 380.286,250 		"/>
		<polygon points="380.286,250 382.232,250 382.232,250 		"/>
		<polygon points="382.232,250 384.178,250 384.178,250 		"/>
		<polygon points="384.178,250 386.124,250 386.124,250 		"/>
		<rect x="386.124" y="221.111" width="1.946" height="57.778"/>
		<polygon points="388.07,250 390.016,250 390.016,250 		"/>
		<polygon points="390.016,250 391.962,250 391.962,250 		"/>
		<polygon points="391.962,250 393.908,250 393.908,250 		"/>
		<polygon points="393.908,250 395.854,250 395.854,250 		"/>
		<polygon points="395.854,250 397.8,250 397.8,250 		"/>
		<polygon points="397.8,250 399.746,250 399.746,250 		"/>
		<rect x="399.746" y="235.556" width="1.946" height="28.889"/>
		<polygon points="401.692,250 403.638,250 403.638,250 		"/>
		<polygon points="403.638,250 405.584,250 405.584,250 		"/>
		<polygon points="405.584,250 407.53,250 407.53,250 		"/>
		<polygon points="407.53,250 409.476,250 409.476,250 		"/>
		<polygon points="409.476,250 411.422,250 411.422,250 		"/>
		<rect x="411.422" y="221.111" width="1.946" height="57.778"/>
		<polygon points="413.368,250 415.314,250 415.314,250 		"/>
		<rect x="415.314" y="242.778" width="1.946" height="14.444"/>
		<polygon points="417.26,250 419.206,250 419.206,250 		"/>
		<polygon points="419.206,250 421.152,250 421.152,250 		"/>
		<rect x="421.152" y="177.778" width="1.946" height="144.444"/>
		<polygon points="423.098,250 425.044,250 425.044,250 		"/>
		<polygon points="425.044,250 426.99,250 426.99,250 		"/>
		<rect x="426.99" y="235.556" width="1.946" height="28.889"/>
		<rect x="428.936" y="221.111" width="1.946" height="57.778"/>
		<rect x="430.883" y="141.667" width="1.946" height="216.667"/>
		<rect x="432.829" y="242.778" width="1.946" height="14.444"/>
		<rect x="434.775" y="206.667" width="1.946" height="86.667"/>
		<polygon points="436.721,250 438.667,250 438.667,250 		"/>
		<rect x="438.667" y="228.333" width="1.946" height="43.333"/>
		<polygon points="440.613,250 442.559,250 442.559,250 		"/>
		<polygon points="442.559,250 444.505,250 444.505,250 		"/>
		<polygon points="444.505,250 446.451,250 446.451,250 		"/>
		<polygon points="446.451,250 448.397,250 448.397,250 		"/>
		<polygon points="448.397,250 450.343,250 450.343,250 		"/>
		<polygon points="450.343,250 452.289,250 452.289,250 		"/>
		<polygon points="452.289,250 454.235,250 454.235,250 		"/>
		<polygon points="454.235,250 456.181,250 456.181,250 		"/>
		<polygon points="456.181,250 458.127,250 458.127,250 		"/>
		<polygon points="458.127,250 460.073,250 460.073,250 		"/>
		<polygon points="460.073,250 462.019,250 462.019,250 		"/>
		<polygon points="462.019,250 463.965,250 463.965,250 		"/>
		<polygon points="463.965,250 465.911,250 465.911,250 		"/>
		<polygon points="465.911,250 467.857,250 467.857,250 		"/>
		<polygon points="467.857,250 469.803,250 469.803,250 		"/>
		<polygon points="469.803,250 471.749,250 471.749,250 		"/>
		<polygon points="471.749,250 473.695,250 473.695,250 		"/>
		<polygon points="473.695,250 475.641,250 475.641,250 		"/>
		<polygon points="475.641,250 477.587,250 477.587,250 		"/>
		<polygon points="477.587,250 479.533,250 479.533,250 		"/>
		<polygon points="479.533,250 481.479,250 481.479,250 		"/>
		<polygon points="481.479,250 483.425,250 483.425,250 		"/>
		<polygon points="483.425,250 485.371,250 485.371,250 		"/>
		<polygon points="485.371,250 487.317,250 487.317,250 		"/>
		<rect x="487.317" y="228.333" width="1.946" height="43.333"/>
		<polygon points="489.263,250 491.21,250 491.21,250 		"/>
		<polygon points="491.21,250 493.156,250 493.156,250 		"/>
		<polygon points="493.156,250 495.102,250 495.102,250 		"/>
		<polygon points="495.102,250 497.048,250 497.048,250 		"/>
		<polygon points="497.048,250 498.994,250 498.994,250 		"/>
		<polygon points="498.994,250 500.94,250 500.94,250 		"/>
		<polygon points="500.94,250 502.886,250 502.886,250 		"/>
		<polygon points="502.886,250 504.832,250 504.832,250 		"/>
		<polygon points="504.832,250 506.778,250 506.778,250 		"/>
		<polygon points="506.778,250 508.724,250 508.724,250 		"/>
		<polygon points="508.724,250 510.67,250 510.67,250 		"/>
		<rect x="510.67" y="242.778" width="1.946" height="14.444"/>
		<polygon points="512.616,250 514.562,250 514.562,250 		"/>
		<polygon points="514.562,250 516.508,250 516.508,250 		"/>
		<polygon points="516.508,250 518.454,250 518.454,250 		"/>
		<polygon points="518.454,250 520.4,250 520.4,250 		"/>
		<polygon points="520.4,250 522.346,250 522.346,250 		"/>
		<rect x="522.346" y="228.333" width="1.946" height="43.333"/>
		<polygon points="524.292,250 526.238,250 526.238,250 		"/>
		<polygon points="526.238,250 528.184,250 528.184,250 		"/>
		<rect x="528.184" y="228.333" width="1.946" height="43.333"/>
		<rect x="530.13" y="206.667" width="1.946" height="86.667"/>
		<rect x="532.076" y="163.333" width="1.946" height="173.333"/>
		<rect x="534.022" y="228.333" width="1.946" height="43.333"/>
		<rect x="535.968" y="228.333" width="1.946" height="43.333"/>
		<polygon points="537.914,250 539.86,250 539.86,250 		"/>
		<polygon points="539.86,250 541.806,250 541.806,250 		"/>
		<rect x="541.806" y="242.778" width="1.946" height="14.444"/>
		<polygon points="543.752,250 545.698,250 545.698,250 		"/>
		<polygon points="545.698,250 547.644,250 547.644,250 		"/>
		<polygon points="547.644,250 549.591,250 549.591,250 		"/>
		<polygon points="549.59,250 551.536,250 551.536,250 		"/>
		<polygon points="551.536,250 553.483,250 553.483,250 		"/>
		<polygon points="553.483,250 555.429,250 555.429,250 		"/>
		<rect x="555.429" y="242.778" width="1.946" height="14.444"/>
		<polygon points="557.375,250 559.321,250 559.321,250 		"/>
		<polygon points="559.321,250 561.267,250 561.267,250 		"/>
		<polygon points="561.267,250 563.213,250 563.213,250 		"/>
		<polygon points="563.213,250 565.159,250 565.159,250 		"/>
		<polygon points="565.159,250 567.105,250 567.105,250 		"/>
		<polygon points="567.105,250 569.051,250 569.051,250 		"/>
		<polygon points="569.051,250 570.997,250 570.997,250 		"/>
		<polygon points="570.997,250 572.943,250 572.943,250 		"/>
		<polygon points="572.943,250 574.889,250 574.889,250 		"/>
		<polygon points="574.889,250 576.835,250 576.835,250 		"/>
		<polygon points="576.835,250 578.781,250 578.781,250 		"/>
		<polygon points="578.781,250 580.727,250 580.727,250 		"/>
		<polygon points="580.727,250 582.673,250 582.673,250 		"/>
		<polygon points="582.673,250 584.619,250 584.619,250 		"/>
		<polygon points="584.619,250 586.565,250 586.565,250 		"/>
		<polygon points="586.565,250 588.511,250 588.511,250 		"/>
		<polygon points="588.511,250 590.457,250 590.457,250 		"/>
		<polygon points="590.457,250 592.403,250 592.403,250 		"/>
		<polygon points="592.403,250 594.349,250 594.349,250 		"/>
		<polygon points="594.349,250 596.295,250 596.295,250 		"/>
		<polygon points="596.295,250 598.241,250 598.241,250 		"/>
		<polygon points="598.241,250 600.187,250 600.187,250 		"/>
		<polygon points="600.187,250 602.133,250 602.133,250 		"/>
		<polygon points="602.133,250 604.079,250 604.079,250 		"/>
		<polygon points="604.079,250 606.025,250 606.025,250 		"/>
		<polygon points="606.025,250 607.971,250 607.971,250 		"/>
		<polygon points="607.971,250 609.917,250 609.917,250 		"/>
		<polygon points="609.917,250 611.864,250 611.864,250 		"/>
		<polygon points="611.863,250 613.81,250 613.81,250 		"/>
		<polygon points="613.81,250 615.756,250 615.756,250 		"/>
		<polygon points="615.756,250 617.702,250 617.702,250 		"/>
		<polygon points="617.702,250 619.648,250 619.648,250 		"/>
		<rect x="619.648" y="242.778" width="1.946" height="14.444"/>
		<polygon points="621.594,250 623.54,250 623.54,250 		"/>
		<rect x="623.54" y="213.889" width="1.946" height="72.222"/>
		<rect x="625.486" y="228.333" width="1.946" height="43.333"/>
		<polygon points="627.432,250 629.378,250 629.378,250 		"/>
		<polygon points="629.378,250 631.324,250 631.324,250 		"/>
		<rect x="631.324" y="177.778" width="1.946" height="144.444"/>
		<rect x="633.27" y="141.667" width="1.946" height="216.667"/>
		<rect x="635.216" y="228.333" width="1.946" height="43.333"/>
		<polygon points="637.162,250 639.108,250 639.108,250 		"/>
		<polygon points="639.108,250 641.054,250 641.054,250 		"/>
		<rect x="641.054" y="242.778" width="1.946" height="14.444"/>
	</g>
	<g>
		<g>
			<g>
				<path fill="none" stroke="#000000" stroke-miterlimit="10" d="M633.959,127.607c-0.577-6.357-2.033-12.561-4.079-17.633
					c-3.157-7.197-7.555-11.932-12.178-12.689"/>
				<g>
					<path d="M634.165,130.617c0.402-1.46,1.145-3.293,1.999-4.463l-2.295,1.063l-2.443-0.651
						C632.47,127.571,633.518,129.248,634.165,130.617z"/>
				</g>
			</g>
		</g>
	</g>
</g>
<style>
#g-verba-vignette11-loteria-desktop-img rect, #g-verba-vignette11-loteria-desktop-img circle, #g-verba-vignette11-loteria-desktop-img path, #g-verba-vignette11-loteria-desktop-img line, #g-verba-vignette11-loteria-desktop-img polyline { vector-effect: non-scaling-stroke; }
</style>
</svg>

