<?xml version="1.0" encoding="utf-8"?>
<!-- Generator: Adobe Illustrator 24.0.3, SVG Export Plug-In . SVG Version: 6.00 Build 0)  -->
<svg version="1.2" baseProfile="tiny" id="g-verba-vignette06-BOTH-mobile-img" xmlns="http://www.w3.org/2000/svg" xmlns:xlink="http://www.w3.org/1999/xlink"
	 x="0px" y="0px" viewBox="0 0 320 508" xml:space="preserve">
<g>
	<g transform="translate(35.37547831632653, 275)">
		<path display="none" fill="none" stroke="#212529" d="M-4.875,177.537h301.027"/>
		<g transform="translate(39.529230442176875,0)">
			<line display="none" fill="none" stroke="#212529" x1="-27.728" y1="47.287" x2="-27.728" y2="177.287"/>
			
				
		</g>
		<g transform="translate(83.31494472789117,0)">
			<line display="none" fill="none" stroke="#212529" x1="-46.783" y1="47.287" x2="-46.783" y2="177.287"/>
		</g>
		<g transform="translate(131.72682823129253,0)">
			<line display="none" fill="none" stroke="#212529" x1="-76.919" y1="47.287" x2="-76.919" y2="177.287"/>
			
				
		</g>
		<g transform="translate(178.64009353741497,0)">
			<line display="none" fill="none" stroke="#212529" x1="-94.445" y1="47.287" x2="-94.445" y2="177.287"/>
		</g>
		<g transform="translate(227.1171343537415,0)">
			<line display="none" fill="none" stroke="#212529" x1="-118.684" y1="47.287" x2="-118.684" y2="177.287"/>
		</g>
		<g transform="translate(274.0303996598639,0)">
			<line display="none" fill="none" stroke="#212529" x1="-152.844" y1="47.287" x2="-152.844" y2="177.287"/>
			
				
		</g>
		<g transform="translate(322.5074404761904,0)">
			<line display="none" fill="none" stroke="#212529" x1="-166.379" y1="47.287" x2="-166.379" y2="177.287"/>
		</g>
		<g transform="translate(370.984481292517,0)">
			<line display="none" fill="none" stroke="#212529" x1="-190.617" y1="47.287" x2="-190.617" y2="177.287"/>
		</g>
		<g transform="translate(417.89774659863946,0)">
			<line display="none" fill="none" stroke="#212529" x1="-229.603" y1="47.287" x2="-229.603" y2="177.287"/>
			
				
		</g>
		<g transform="translate(466.43994472789115,0)">
			<line display="none" fill="none" stroke="#212529" x1="-238.345" y1="47.287" x2="-238.345" y2="177.287"/>
		</g>
		<g transform="translate(513.3532100340136,0)">
			<line display="none" fill="none" stroke="#212529" x1="-261.802" y1="47.287" x2="-261.802" y2="177.287"/>
		</g>
		<g transform="translate(561.8302508503401,0)">
			<line display="none" fill="none" stroke="#212529" x1="-306.397" y1="47.287" x2="-306.397" y2="177.287"/>
			
				
		</g>
	</g>
	<g transform="translate(35.37547831632653, 290)">
		<path display="none" fill="none" stroke="#212529" d="M-5.506,171.003h280.833"/>
		<g transform="translate(561.8302508503401,0)">
			<line display="none" fill="none" stroke="#212529" x1="-305.499" y1="40.753" x2="-305.499" y2="170.753"/>
			
				<text transform="matrix(0.9329 0 0 1 -312.4881 183.8705)" display="none" fill="#212529" font-family="'ElMessiri-Bold'" font-size="10px">2020</text>
		</g>
	</g>
	<g transform="translate(35.37547831632653, 290)">
		<path display="none" fill="none" stroke="#212529" d="M-268.799,172.994H32.228"/>
		<g transform="translate(561.8302508503401,0)">
			<line display="none" fill="none" stroke="#212529" x1="-549.964" y1="42.744" x2="-549.964" y2="172.744"/>
			
				<text transform="matrix(1 0 0 1 -573.463 183.8708)" display="none" fill="#212529" font-family="'ElMessiri-Bold'" font-size="10px">2019</text>
		</g>
	</g>
	<g transform="translate(30, 0)">
		<path display="none" fill="none" stroke="#212529" d="M-5.437,325.037h3.25v-65h-3.25"/>
		<g transform="translate(0,130.5)">
			<line fill="none" stroke="#212529" stroke-opacity="0.12" x1="-2.437" y1="194.537" x2="282.17" y2="194.537"/>
			
				<text transform="matrix(0.9329 0 0 1 -13.2097 196.136)" display="none" fill="#212529" font-family="'ElMessiri-Regular'" font-size="10px">0</text>
		</g>
		<g transform="translate(0,98)">
			<line fill="none" stroke="#212529" stroke-opacity="0.12" x1="-2.437" y1="210.787" x2="282.17" y2="210.787"/>
		</g>
		<g transform="translate(0,65.5)">
			<line fill="none" stroke="#212529" stroke-opacity="0.12" x1="-2.437" y1="227.037" x2="282.17" y2="227.037"/>
			
				<text transform="matrix(0.9329 0 0 1 -21.5031 228.636)" display="none" fill="#212529" font-family="'ElMessiri-Regular'" font-size="10px">100</text>
		</g>
		<g transform="translate(0,33)">
			<line fill="none" stroke="#212529" stroke-opacity="0.12" x1="-2.437" y1="243.287" x2="282.17" y2="243.287"/>
		</g>
		<g transform="translate(0,0.5)">
			<line fill="none" stroke="#212529" stroke-opacity="0.12" x1="-2.437" y1="259.537" x2="282.17" y2="259.537"/>
			
				<text transform="matrix(1 0 0 1 -23.6976 261.1361)" display="none" fill="#212529" font-family="'ElMessiri-Regular'" font-size="10px">200</text>
		</g>
	</g>
	<g>
		<g transform="translate(0,130.5)">
			<line fill="none" stroke="#212529" stroke-opacity="0.12" x1="27.563" y1="259.335" x2="312.17" y2="259.335"/>
			
				<text transform="matrix(1 0 0 1 6.3024 260.934)" display="none" fill="#212529" font-family="'ElMessiri-Regular'" font-size="10px">200</text>
		</g>
		<g transform="translate(0,98)">
			<line fill="none" stroke="#212529" stroke-opacity="0.12" x1="27.563" y1="275.585" x2="312.17" y2="275.585"/>
		</g>
		<g transform="translate(0,65.5)">
			<line fill="none" stroke="#212529" stroke-opacity="0.12" x1="27.563" y1="291.835" x2="312.17" y2="291.835"/>
			
				<text transform="matrix(1 0 0 1 8.5533 293.434)" display="none" fill="#212529" font-family="'ElMessiri-Regular'" font-size="10px">100</text>
		</g>
		<g transform="translate(0,33)">
			<line fill="none" stroke="#212529" stroke-opacity="0.12" x1="27.563" y1="308.085" x2="312.17" y2="308.085"/>
		</g>
	</g>
	<g id="PEDRO_SANCHEZ_2_">
		<rect x="26.231" y="306.912" fill="#4731EF" width="5.106" height="17.875"/>
		<polygon fill="#4731EF" points="31.337,303.987 31.337,306.912 31.337,324.787 36.443,324.787 36.443,303.987 		"/>
		<polygon fill="#4731EF" points="41.549,295.212 36.443,295.212 36.443,303.987 36.443,324.787 41.549,324.787 41.549,297.162 		
			"/>
		<rect x="41.549" y="297.162" fill="#4731EF" width="5.106" height="27.625"/>
		<polygon fill="#4731EF" points="46.655,281.887 46.655,297.162 46.655,324.787 51.761,324.787 51.761,281.887 		"/>
		<polygon fill="#4731EF" points="56.867,270.512 51.761,270.512 51.761,281.887 51.761,324.787 56.867,324.787 56.867,291.962 		
			"/>
		<polygon fill="#4731EF" points="61.973,291.962 56.867,291.962 56.867,324.787 61.973,324.787 61.973,306.587 		"/>
		<polygon fill="#4731EF" points="67.079,306.587 61.973,306.587 61.973,324.787 67.079,324.787 67.079,311.787 		"/>
		<rect x="67.079" y="311.787" fill="#4731EF" width="5.106" height="13"/>
		<polygon fill="#4731EF" points="77.291,301.387 72.185,301.387 72.185,311.787 72.185,324.787 77.291,324.787 77.291,311.462 		
			"/>
		<rect x="77.291" y="311.462" fill="#4731EF" width="5.106" height="13.325"/>
		<polygon fill="#4731EF" points="82.397,302.687 82.397,311.462 82.397,324.787 87.503,324.787 87.503,302.687 		"/>
		<polygon fill="#4731EF" points="92.609,301.387 87.503,301.387 87.503,302.687 87.503,324.787 92.609,324.787 92.609,302.037 		
			"/>
		<rect x="92.609" y="302.037" fill="#4731EF" width="5.106" height="22.75"/>
		<polygon fill="#4731EF" points="102.822,284.812 97.715,284.812 97.715,302.037 97.715,324.787 102.822,324.787 102.822,285.787 
					"/>
		<polygon fill="#4731EF" points="107.928,285.787 102.822,285.787 102.822,324.787 107.928,324.787 107.928,300.737 		"/>
		<rect x="107.928" y="300.737" fill="#4731EF" width="5.106" height="24.05"/>
		<polygon fill="#4731EF" points="118.14,300.412 113.034,300.412 113.034,300.737 113.034,324.787 118.14,324.787 118.14,301.712 
					"/>
		<polygon fill="#4731EF" points="123.246,301.712 118.14,301.712 118.14,324.787 123.246,324.787 123.246,305.287 		"/>
		<rect x="123.246" y="305.287" fill="#4731EF" width="5.106" height="19.5"/>
		<polygon fill="#4731EF" points="128.352,303.337 128.352,305.287 128.352,324.787 133.458,324.787 133.458,303.337 		"/>
		<polygon fill="#4731EF" points="138.564,298.137 133.458,298.137 133.458,303.337 133.458,324.787 138.564,324.787 
			138.564,299.762 		"/>
		<rect x="138.564" y="299.762" fill="#4731EF" width="5.106" height="25.025"/>
		<polygon fill="#4731EF" points="143.67,296.187 143.67,299.762 143.67,324.787 148.776,324.787 148.776,296.187 		"/>
		<polygon fill="#4731EF" points="153.882,298.137 153.882,280.262 148.776,280.262 148.776,296.187 148.776,324.787 
			153.882,324.787 153.882,298.137 		"/>
		<polygon fill="#4731EF" points="153.882,298.137 153.882,298.137 153.882,324.787 158.988,324.787 158.988,298.137 		"/>
		<polygon fill="#4731EF" points="158.988,296.837 158.988,298.137 158.988,324.787 164.094,324.787 164.094,296.837 		"/>
		<polygon fill="#4731EF" points="164.094,288.062 164.094,296.837 164.094,324.787 169.2,324.787 169.2,288.062 		"/>
		<polygon fill="#4731EF" points="174.306,273.112 169.2,273.112 169.2,288.062 169.2,324.787 174.306,324.787 174.306,294.887 		
			"/>
		<rect x="174.306" y="294.887" fill="#4731EF" width="5.106" height="29.9"/>
		<polygon fill="#4731EF" points="184.518,290.662 179.412,290.662 179.412,294.887 179.412,324.787 184.518,324.787 
			184.518,312.762 		"/>
		<rect x="184.518" y="312.762" fill="#4731EF" width="5.106" height="12.025"/>
		<polygon fill="#4731EF" points="189.624,311.787 189.624,312.762 189.624,324.787 194.731,324.787 194.731,311.787 		"/>
		<polygon fill="#4731EF" points="199.837,295.212 194.731,295.212 194.731,311.787 194.731,324.787 199.837,324.787 
			199.837,295.537 		"/>
		<polygon fill="#4731EF" points="204.943,295.537 199.837,295.537 199.837,324.787 204.943,324.787 204.943,297.487 		"/>
		<rect x="204.943" y="297.487" fill="#4731EF" width="5.106" height="27.3"/>
		<polygon fill="#4731EF" points="215.155,295.537 210.049,295.537 210.049,297.487 210.049,324.787 215.155,324.787 
			215.155,299.112 		"/>
		<rect x="215.155" y="299.112" fill="#4731EF" width="5.106" height="25.675"/>
		<polygon fill="#4731EF" points="225.367,300.087 225.367,296.837 220.261,296.837 220.261,299.112 220.261,324.787 
			225.367,324.787 225.367,300.087 		"/>
		<polygon fill="#4731EF" points="230.473,300.087 225.367,300.087 225.367,300.087 225.367,324.787 230.473,324.787 
			230.473,300.412 		"/>
		<polygon fill="#4731EF" points="235.579,300.412 230.473,300.412 230.473,324.787 235.579,324.787 235.579,307.237 		"/>
		<rect x="235.579" y="307.237" fill="#4731EF" width="5.106" height="17.55"/>
		<polygon fill="#4731EF" points="240.685,294.237 240.685,307.237 240.685,324.787 245.791,324.787 245.791,294.237 		"/>
		<polygon fill="#4731EF" points="245.791,288.062 245.791,294.237 245.791,324.787 250.897,324.787 250.897,288.062 		"/>
		<polygon fill="#4731EF" points="256.003,281.237 250.897,281.237 250.897,288.062 250.897,324.787 256.003,324.787 
			256.003,293.262 		"/>
		<polygon fill="#4731EF" points="261.109,305.287 261.109,293.262 256.003,293.262 256.003,324.787 261.109,324.787 
			261.109,305.287 		"/>
		<polygon fill="#4731EF" points="261.109,305.287 261.109,305.287 261.109,324.787 266.215,324.787 266.215,305.287 		"/>
		<polygon fill="#4731EF" points="271.321,295.862 266.215,295.862 266.215,305.287 266.215,324.787 271.321,324.787 		"/>
		<polygon fill="#4731EF" points="271.321,290.987 271.321,324.787 276.427,324.787 276.427,301.387 276.427,290.987 		"/>
		<polygon fill="#4731EF" points="281.533,324.787 281.533,311.137 281.533,301.387 276.427,301.387 276.427,324.787 		"/>
		<rect x="281.533" y="311.137" fill="#4731EF" width="5.106" height="13.65"/>
		<rect x="286.64" y="266.937" fill="#4731EF" width="5.106" height="57.85"/>
		<polygon fill="#4731EF" points="296.852,261.087 291.746,261.087 291.746,266.937 291.746,324.787 296.852,324.787 
			296.852,298.137 		"/>
		<rect x="296.852" y="298.137" fill="#4731EF" width="5.106" height="26.65"/>
		<polygon fill="#4731EF" points="307.064,292.937 301.958,292.937 301.958,298.137 301.958,324.787 307.064,324.787 		"/>
		<rect x="307.064" y="303.012" fill="#4731EF" width="5.106" height="21.775"/>
	</g>
	<g>
		<rect x="26.231" y="324.787" fill="#EF9B31" width="5.106" height="11.932"/>
		<polygon fill="#EF9B31" points="31.337,343.857 36.443,343.857 36.443,332.175 36.443,324.787 31.337,324.787 31.337,336.718 		
			"/>
		<rect x="36.443" y="324.787" fill="#EF9B31" width="5.106" height="7.389"/>
		<polygon fill="#EF9B31" points="41.549,339.314 46.655,339.314 46.655,332.175 46.655,324.787 41.549,324.787 41.549,332.175 		
			"/>
		<rect x="46.655" y="324.787" fill="#EF9B31" width="5.106" height="7.389"/>
		<polygon fill="#EF9B31" points="51.761,345.155 56.867,345.155 56.867,324.787 51.761,324.787 51.761,332.175 		"/>
		<polygon fill="#EF9B31" points="56.867,350.996 61.973,350.996 61.973,345.155 61.973,324.787 56.867,324.787 56.867,345.155 		
			"/>
		<rect x="61.973" y="324.787" fill="#EF9B31" width="5.106" height="20.368"/>
		<polygon fill="#EF9B31" points="67.079,346.777 72.185,346.777 72.185,324.787 67.079,324.787 67.079,345.155 		"/>
		<polygon fill="#EF9B31" points="72.185,348.724 77.291,348.724 77.291,335.42 77.291,324.787 72.185,324.787 72.185,346.777 		"/>
		<rect x="77.291" y="324.787" fill="#EF9B31" width="5.106" height="10.634"/>
		<polygon fill="#EF9B31" points="82.397,339.314 87.503,339.314 87.503,324.787 82.397,324.787 82.397,335.42 		"/>
		<polygon fill="#EF9B31" points="87.503,343.208 92.609,343.208 92.609,324.787 87.503,324.787 87.503,339.314 		"/>
		<polygon fill="#EF9B31" points="92.609,348.4 97.715,348.4 97.715,345.155 97.715,324.787 92.609,324.787 92.609,343.208 		"/>
		<polygon fill="#EF9B31" points="102.822,345.155 102.822,344.181 102.822,324.787 97.715,324.787 97.715,345.155 		"/>
		<rect x="102.822" y="324.787" fill="#EF9B31" width="5.106" height="19.395"/>
		<polygon fill="#EF9B31" points="107.928,353.592 113.034,353.592 113.034,350.996 113.034,324.787 107.928,324.787 
			107.928,344.181 		"/>
		<rect x="113.034" y="324.787" fill="#EF9B31" width="5.106" height="26.209"/>
		<polygon fill="#EF9B31" points="118.14,356.836 123.246,356.836 123.246,346.128 123.246,324.787 118.14,324.787 		"/>
		<rect x="123.246" y="324.787" fill="#EF9B31" width="5.106" height="21.342"/>
		<polygon fill="#EF9B31" points="128.352,371.438 133.458,371.438 133.458,350.996 133.458,324.787 128.352,324.787 
			128.352,346.128 		"/>
		<rect x="133.458" y="324.787" fill="#EF9B31" width="5.106" height="26.209"/>
		<polygon fill="#EF9B31" points="138.564,367.22 143.67,367.22 143.67,351.969 143.67,324.787 138.564,324.787 138.564,350.996 		
			"/>
		<polygon fill="#EF9B31" points="148.776,351.969 148.776,348.4 148.776,324.787 143.67,324.787 143.67,351.969 		"/>
		<polygon fill="#EF9B31" points="153.882,348.4 153.882,344.181 153.882,324.787 148.776,324.787 148.776,348.4 		"/>
		<rect x="153.882" y="324.787" fill="#EF9B31" width="5.106" height="19.395"/>
		<polygon fill="#EF9B31" points="158.988,352.294 164.094,352.294 164.094,324.787 158.988,324.787 158.988,344.181 		"/>
		<polygon fill="#EF9B31" points="164.094,358.134 169.2,358.134 169.2,324.787 164.094,324.787 164.094,352.294 		"/>
		<polygon fill="#EF9B31" points="169.2,359.432 174.306,359.432 174.306,346.777 174.306,324.787 169.2,324.787 169.2,358.134 		
			"/>
		<polygon fill="#EF9B31" points="179.412,346.777 179.412,341.91 179.412,341.91 179.412,324.787 174.306,324.787 174.306,346.777 
					"/>
		<polygon fill="#EF9B31" points="179.412,341.91 184.518,341.91 184.518,333.473 184.518,324.787 179.412,324.787 179.412,341.91 
					"/>
		<rect x="184.518" y="324.787" fill="#EF9B31" width="5.106" height="8.687"/>
		<polygon fill="#EF9B31" points="189.625,335.745 194.731,335.745 194.731,324.787 189.625,324.787 189.625,333.473 		"/>
		<polygon fill="#EF9B31" points="194.731,344.506 199.837,344.506 199.837,324.787 194.731,324.787 194.731,335.745 		"/>
		<polygon fill="#EF9B31" points="199.837,351.32 204.943,351.32 204.943,347.426 204.943,324.787 199.837,324.787 199.837,344.506 
					"/>
		<polygon fill="#EF9B31" points="210.049,347.426 210.049,341.586 210.049,324.787 204.943,324.787 204.943,347.426 		"/>
		<polygon fill="#EF9B31" points="215.155,341.586 215.155,335.745 215.155,335.745 215.155,324.787 210.049,324.787 
			210.049,341.586 		"/>
		<polygon fill="#EF9B31" points="215.155,335.745 220.261,335.745 220.261,324.787 215.155,324.787 215.155,335.745 		"/>
		<polygon fill="#EF9B31" points="220.261,351.645 225.367,351.645 225.367,350.347 225.367,324.787 220.261,324.787 
			220.261,335.745 		"/>
		<polygon fill="#EF9B31" points="230.473,350.347 230.473,328.282 230.473,324.787 225.367,324.787 225.367,350.347 		"/>
		<rect x="230.473" y="324.787" fill="#EF9B31" width="5.106" height="3.495"/>
		<polygon fill="#EF9B31" points="235.579,331.202 240.685,331.202 240.685,324.787 235.579,324.787 235.579,328.282 		"/>
		<polygon fill="#EF9B31" points="240.685,356.188 245.791,356.188 245.791,342.884 245.791,324.787 240.685,324.787 
			240.685,331.202 		"/>
		<rect x="245.791" y="324.787" fill="#EF9B31" width="5.106" height="18.097"/>
		<polygon fill="#EF9B31" points="250.897,371.763 256.003,371.763 256.003,358.459 256.003,324.787 250.897,324.787 
			250.897,342.884 		"/>
		<polygon fill="#EF9B31" points="261.109,358.459 261.109,354.89 261.109,324.787 256.003,324.787 256.003,358.459 		"/>
		<polygon fill="#EF9B31" points="266.215,354.89 266.215,350.996 266.215,324.787 261.109,324.787 261.109,354.89 		"/>
		<rect x="266.215" y="324.787" fill="#EF9B31" width="5.106" height="26.209"/>
		<polygon fill="#EF9B31" points="271.321,352.943 276.427,352.943 276.427,349.049 276.427,324.787 271.321,324.787 		"/>
		<polygon fill="#EF9B31" points="281.533,349.049 281.533,338.665 281.533,324.787 276.427,324.787 276.427,349.049 		"/>
		<rect x="281.533" y="324.787" fill="#EF9B31" width="5.106" height="13.878"/>
		<polygon fill="#EF9B31" points="286.64,364.949 291.746,364.949 291.746,351.32 291.746,324.787 286.64,324.787 		"/>
		<polygon fill="#EF9B31" points="296.852,351.32 296.852,336.718 296.852,324.787 291.746,324.787 291.746,351.32 		"/>
		<polygon fill="#EF9B31" points="301.958,336.718 301.958,331.202 301.958,324.787 296.852,324.787 296.852,336.718 		"/>
		<rect x="301.958" y="324.787" fill="#EF9B31" width="5.106" height="6.415"/>
		<rect x="307.064" y="324.787" fill="#EF9B31" width="5.106" height="5.117"/>
	</g>
	<g>
		
			<line fill="none" stroke="#000000" stroke-width="0.5" stroke-miterlimit="10" x1="107.927" y1="85.573" x2="107.927" y2="89.573"/>
		
			<line fill="none" stroke="#000000" stroke-width="0.5" stroke-miterlimit="10" stroke-dasharray="8.0393,8.0393" x1="107.927" y1="97.612" x2="107.927" y2="431.243"/>
		
			<line fill="none" stroke="#000000" stroke-width="0.5" stroke-miterlimit="10" x1="107.927" y1="435.263" x2="107.927" y2="439.263"/>
	</g>
	<g>
		
			<line fill="none" stroke="#000000" stroke-width="0.5" stroke-miterlimit="10" x1="128.352" y1="153.955" x2="128.352" y2="157.955"/>
		
			<line fill="none" stroke="#000000" stroke-width="0.5" stroke-miterlimit="10" stroke-dasharray="7.9231,7.9231" x1="128.352" y1="165.878" x2="128.352" y2="431.302"/>
		
			<line fill="none" stroke="#000000" stroke-width="0.5" stroke-miterlimit="10" x1="128.352" y1="435.263" x2="128.352" y2="439.263"/>
	</g>
	<g>
		
			<line fill="none" stroke="#000000" stroke-width="0.5" stroke-miterlimit="10" x1="256.003" y1="216.478" x2="256.003" y2="220.478"/>
		
			<line fill="none" stroke="#000000" stroke-width="0.5" stroke-miterlimit="10" stroke-dasharray="7.955,7.955" x1="256.003" y1="228.433" x2="256.003" y2="431.286"/>
		
			<line fill="none" stroke="#000000" stroke-width="0.5" stroke-miterlimit="10" x1="256.003" y1="435.263" x2="256.003" y2="439.263"/>
	</g>
	
		<line style="opacity:0.8;" fill="none" stroke="#000000" stroke-miterlimit="10" x1="0.25" y1="19.999" x2="320.25" y2="19.999"/>
	
		<line style="opacity:0.8;" fill="none" stroke="#000000" stroke-miterlimit="10" x1="0.25" y1="487.451" x2="320.25" y2="487.451"/>
</g>
<style>
#g-verba-vignette06-BOTH-mobile-img rect, #g-verba-vignette06-BOTH-mobile-img circle, #g-verba-vignette06-BOTH-mobile-img path, #g-verba-vignette06-BOTH-mobile-img line, #g-verba-vignette06-BOTH-mobile-img polyline { vector-effect: non-scaling-stroke; }
</style>
</svg>

