<?xml version="1.0" encoding="utf-8"?>
<!-- Generator: Adobe Illustrator 24.0.3, SVG Export Plug-In . SVG Version: 6.00 Build 0)  -->
<svg version="1.2" baseProfile="tiny" id="g-verba-vignette08-vox-desktop-img" xmlns="http://www.w3.org/2000/svg" xmlns:xlink="http://www.w3.org/1999/xlink"
	 x="0px" y="0px" viewBox="0 0 673 407.52" xml:space="preserve">
<g>
	<g transform="translate(30.96686728889601, 275)">
		<path display="none" fill="none" stroke="#212529" d="M6.5,66.648h611.1"/>
		<g transform="translate(22.092638637733575,0)">
			<line display="none" fill="none" stroke="#212529" x1="6" y1="-193.852" x2="6" y2="66.148"/>
			
				
		</g>
		<g transform="translate(47.310993068113326,0)">
			<line display="none" fill="none" stroke="#212529" x1="6" y1="-193.852" x2="6" y2="66.148"/>
			
				
		</g>
		<g transform="translate(72.80647227245328,0)">
			<line display="none" fill="none" stroke="#212529" x1="6" y1="-193.852" x2="6" y2="66.148"/>
			
				
		</g>
		<g transform="translate(98.31349834237491,0)">
			<line display="none" fill="none" stroke="#212529" x1="6" y1="-193.852" x2="6" y2="66.148"/>
			
				
		</g>
		<g transform="translate(123.24318113321277,0)">
			<line display="none" fill="none" stroke="#212529" x1="6" y1="-193.852" x2="6" y2="66.148"/>
			
				
		</g>
		<g transform="translate(148.46153556359252,0)">
			<line display="none" fill="none" stroke="#212529" x1="6" y1="-193.852" x2="6" y2="66.148"/>
			
				
		</g>
		<g transform="translate(173.9570147679325,0)">
			<line display="none" fill="none" stroke="#212529" x1="6" y1="-193.852" x2="6" y2="66.148"/>
			
				
		</g>
		<g transform="translate(199.46404083785413,0)">
			<line display="none" fill="none" stroke="#212529" x1="6" y1="-193.852" x2="6" y2="66.148"/>
			
				
		</g>
		<g transform="translate(224.6708484026522,0)">
			<line display="none" fill="none" stroke="#212529" x1="6" y1="-193.852" x2="6" y2="66.148"/>
			
				
		</g>
		<g transform="translate(249.88920283303193,0)">
			<line display="none" fill="none" stroke="#212529" x1="6" y1="-193.852" x2="6" y2="66.148"/>
			
				
		</g>
		<g transform="translate(275.3846820373719,0)">
			<line display="none" fill="none" stroke="#212529" x1="6" y1="-193.852" x2="6" y2="66.148"/>
			
				
		</g>
		<g transform="translate(300.89170810729354,0)">
			<line display="none" fill="none" stroke="#212529" x1="6" y1="-193.852" x2="6" y2="66.148"/>
			
				
		</g>
		<g transform="translate(325.8213908981314,0)">
			<line display="none" fill="none" stroke="#212529" x1="6" y1="-193.852" x2="6" y2="66.148"/>
			
				
		</g>
		<g transform="translate(351.0397453285112,0)">
			<line display="none" fill="none" stroke="#212529" x1="6" y1="-193.852" x2="6" y2="66.148"/>
			
				
		</g>
		<g transform="translate(376.5352245328511,0)">
			<line display="none" fill="none" stroke="#212529" x1="6" y1="-193.852" x2="6" y2="66.148"/>
			
				
		</g>
		<g transform="translate(402.04225060277275,0)">
			<line display="none" fill="none" stroke="#212529" x1="6" y1="-193.852" x2="6" y2="66.148"/>
			
				
		</g>
		<g transform="translate(426.97193339361064,0)">
			<line display="none" fill="none" stroke="#212529" x1="6" y1="-193.852" x2="6" y2="66.148"/>
			
				
		</g>
		<g transform="translate(452.19028782399033,0)">
			<line display="none" fill="none" stroke="#212529" x1="6" y1="-193.852" x2="6" y2="66.148"/>
			
				
		</g>
		<g transform="translate(477.6857670283303,0)">
			<line display="none" fill="none" stroke="#212529" x1="6" y1="-193.852" x2="6" y2="66.148"/>
			
				
		</g>
		<g transform="translate(503.19279309825197,0)">
			<line display="none" fill="none" stroke="#212529" x1="6" y1="-193.852" x2="6" y2="66.148"/>
			
				
		</g>
		<g transform="translate(528.1224758890899,0)">
			<line display="none" fill="none" stroke="#212529" x1="6" y1="-193.852" x2="6" y2="66.148"/>
			
				
		</g>
		<g transform="translate(553.3408303194695,0)">
			<line display="none" fill="none" stroke="#212529" x1="6" y1="-193.852" x2="6" y2="66.148"/>
			
				
		</g>
		<g transform="translate(578.8363095238095,0)">
			<line display="none" fill="none" stroke="#212529" x1="6" y1="-193.852" x2="6" y2="66.148"/>
			
				
		</g>
		<g transform="translate(604.3433355937311,0)">
			<line display="none" fill="none" stroke="#212529" x1="6" y1="-193.852" x2="6" y2="66.148"/>
			
				
		</g>
	</g>
	<g transform="translate(30.96686728889601, 290)">
		<path display="none" fill="none" stroke="#212529" d="M6.5,66.648h611.1"/>
		<g transform="translate(98.31349834237491,0)">
			<line display="none" fill="none" stroke="#212529" x1="6" y1="-193.852" x2="6" y2="66.148"/>
			
				<text transform="matrix(1 0 0 1 -5.123 82.2484)" display="none" fill="#212529" font-family="'Helvetica-Bold'" font-size="10px">2015</text>
		</g>
		<g transform="translate(199.46404083785413,0)">
			<line display="none" fill="none" stroke="#212529" x1="6" y1="-193.852" x2="6" y2="66.148"/>
			
				<text transform="matrix(1 0 0 1 -5.123 82.2484)" display="none" fill="#212529" font-family="'Helvetica-Bold'" font-size="10px">2016</text>
		</g>
		<g transform="translate(300.89170810729354,0)">
			<line display="none" fill="none" stroke="#212529" x1="6" y1="-193.852" x2="6" y2="66.148"/>
			
				<text transform="matrix(1 0 0 1 -5.1231 82.2484)" display="none" fill="#212529" font-family="'Helvetica-Bold'" font-size="10px">2017</text>
		</g>
		<g transform="translate(402.04225060277275,0)">
			<line display="none" fill="none" stroke="#212529" x1="6" y1="-193.852" x2="6" y2="66.148"/>
			
				<text transform="matrix(1 0 0 1 -5.1231 82.2484)" display="none" fill="#212529" font-family="'Helvetica-Bold'" font-size="10px">2018</text>
		</g>
		<g transform="translate(503.19279309825197,0)">
			<line display="none" fill="none" stroke="#212529" x1="6" y1="-193.852" x2="6" y2="66.148"/>
			
				<text transform="matrix(1 0 0 1 -5.123 82.2484)" display="none" fill="#212529" font-family="'Helvetica-Bold'" font-size="10px">2019</text>
		</g>
		<g transform="translate(604.3433355937311,0)">
			<line display="none" fill="none" stroke="#212529" x1="6" y1="-193.852" x2="6" y2="66.148"/>
			
				<text transform="matrix(1 0 0 1 -5.1231 82.2484)" display="none" fill="#212529" font-family="'Helvetica-Bold'" font-size="10px">2020</text>
		</g>
	</g>
	<g transform="translate(30, 0)">
		<path display="none" fill="none" stroke="#212529" d="M0,196.648h6.5v-130H0"/>
		<g transform="translate(0,130.5)">
			<line fill="none" stroke="#212529" stroke-opacity="0.12" x1="6" y1="66.148" x2="619" y2="66.148"/>
			
				
		</g>
		<g transform="translate(0,111.92857142857143)">
			<line fill="none" stroke="#212529" stroke-opacity="0.12" x1="6" y1="66.148" x2="619" y2="66.148"/>
			
				
		</g>
		<g transform="translate(0,93.35714285714286)">
			<line fill="none" stroke="#212529" stroke-opacity="0.12" x1="6" y1="66.148" x2="619" y2="66.148"/>
			
				
		</g>
		<g transform="translate(0,74.78571428571428)">
			<line fill="none" stroke="#212529" stroke-opacity="0.12" x1="6" y1="66.148" x2="619" y2="66.148"/>
			
				
		</g>
		<g transform="translate(0,56.214285714285715)">
			<line fill="none" stroke="#212529" stroke-opacity="0.12" x1="6" y1="66.148" x2="619" y2="66.148"/>
			
				
		</g>
		<g transform="translate(0,37.64285714285714)">
			<line fill="none" stroke="#212529" stroke-opacity="0.12" x1="6" y1="66.148" x2="619" y2="66.148"/>
			
				
		</g>
		<g transform="translate(0,19.071428571428577)">
			<line fill="none" stroke="#212529" stroke-opacity="0.12" x1="6" y1="66.148" x2="619" y2="66.148"/>
			
				
		</g>
		<g transform="translate(0,0.5)">
			<line fill="none" stroke="#212529" stroke-opacity="0.12" x1="6" y1="66.148" x2="619" y2="66.148"/>
			
				
		</g>
	</g>
	<g>
		<rect x="36" y="194.248" width="1.9" height="3.7"/>
		<polygon points="37.9,196.148 39.9,196.148 39.9,196.148 		"/>
		<rect x="39.9" y="192.448" width="1.9" height="7.4"/>
		<polygon points="41.8,196.148 43.8,196.148 43.8,196.148 		"/>
		<polygon points="43.8,196.148 45.7,196.148 45.7,196.148 		"/>
		<polygon points="45.7,196.148 47.6,196.148 47.6,196.148 		"/>
		<polygon points="47.6,196.148 49.6,196.148 49.6,196.148 		"/>
		<polygon points="49.6,196.148 51.5,196.148 51.5,196.148 		"/>
		<polygon points="51.5,196.148 53.5,196.148 53.5,196.148 		"/>
		<polygon points="53.5,196.148 55.4,196.148 55.4,196.148 		"/>
		<polygon points="55.4,196.148 57.3,196.148 57.3,196.148 		"/>
		<polygon points="57.3,196.148 59.3,196.148 59.3,196.148 		"/>
		<polygon points="59.3,196.148 61.2,196.148 61.2,196.148 		"/>
		<polygon points="61.2,196.148 63.2,196.148 63.2,196.148 		"/>
		<polygon points="63.2,196.148 65.1,196.148 65.1,196.148 		"/>
		<polygon points="65.1,196.148 67,196.148 67,196.148 		"/>
		<polygon points="67,196.148 69,196.148 69,196.148 		"/>
		<polygon points="69,196.148 70.9,196.148 70.9,196.148 		"/>
		<polygon points="70.9,196.148 72.9,196.148 72.9,196.148 		"/>
		<polygon points="72.9,196.148 74.8,196.148 74.8,196.148 		"/>
		<polygon points="74.8,196.148 76.7,196.148 76.7,196.148 		"/>
		<polygon points="76.7,196.148 78.7,196.148 78.7,196.148 		"/>
		<polygon points="78.7,196.148 80.6,196.148 80.6,196.148 		"/>
		<polygon points="80.6,196.148 82.6,196.148 82.6,196.148 		"/>
		<polygon points="82.6,196.148 84.5,196.148 84.5,196.148 		"/>
		<polygon points="84.5,196.148 86.4,196.148 86.4,196.148 		"/>
		<polygon points="86.4,196.148 88.4,196.148 88.4,196.148 		"/>
		<polygon points="88.4,196.148 90.3,196.148 90.3,196.148 		"/>
		<polygon points="90.3,196.148 92.3,196.148 92.3,196.148 		"/>
		<polygon points="92.3,196.148 94.2,196.148 94.2,196.148 		"/>
		<polygon points="94.2,196.148 96.1,196.148 96.1,196.148 		"/>
		<polygon points="96.1,196.148 98.1,196.148 98.1,196.148 		"/>
		<polygon points="98.1,196.148 100,196.148 100,196.148 		"/>
		<polygon points="100,196.148 102,196.148 102,196.148 		"/>
		<polygon points="102,196.148 103.9,196.148 103.9,196.148 		"/>
		<polygon points="103.9,196.148 105.8,196.148 105.8,196.148 		"/>
		<polygon points="105.8,196.148 107.8,196.148 107.8,196.148 		"/>
		<polygon points="107.8,196.148 109.7,196.148 109.7,196.148 		"/>
		<polygon points="109.7,196.148 111.7,196.148 111.7,196.148 		"/>
		<polygon points="111.7,196.148 113.6,196.148 113.6,196.148 		"/>
		<polygon points="113.6,196.148 115.5,196.148 115.5,196.148 		"/>
		<polygon points="115.5,196.148 117.5,196.148 117.5,196.148 		"/>
		<polygon points="117.5,196.148 119.4,196.148 119.4,196.148 		"/>
		<rect x="119.4" y="192.448" width="1.9" height="7.4"/>
		<polygon points="121.4,196.148 123.3,196.148 123.3,196.148 		"/>
		<polygon points="123.3,196.148 125.2,196.148 125.2,196.148 		"/>
		<polygon points="125.2,196.148 127.2,196.148 127.2,196.148 		"/>
		<polygon points="127.2,196.148 129.1,196.148 129.1,196.148 		"/>
		<polygon points="129.1,196.148 131.1,196.148 131.1,196.148 		"/>
		<polygon points="131.1,196.148 133,196.148 133,196.148 		"/>
		<polygon points="133,196.148 134.9,196.148 134.9,196.148 		"/>
		<polygon points="134.9,196.148 136.9,196.148 136.9,196.148 		"/>
		<polygon points="136.9,196.148 138.8,196.148 138.8,196.148 		"/>
		<polygon points="138.8,196.148 140.8,196.148 140.8,196.148 		"/>
		<polygon points="140.8,196.148 142.7,196.148 142.7,196.148 		"/>
		<polygon points="142.7,196.148 144.6,196.148 144.6,196.148 		"/>
		<polygon points="144.6,196.148 146.6,196.148 146.6,196.148 		"/>
		<polygon points="146.6,196.148 148.5,196.148 148.5,196.148 		"/>
		<polygon points="148.5,196.148 150.5,196.148 150.5,196.148 		"/>
		<polygon points="150.5,196.148 152.4,196.148 152.4,196.148 		"/>
		<rect x="152.4" y="195.248" width="1.9" height="1.9"/>
		<polygon points="154.3,196.148 156.3,196.148 156.3,196.148 		"/>
		<polygon points="156.3,196.148 158.2,196.148 158.2,196.148 		"/>
		<polygon points="158.2,196.148 160.2,196.148 160.2,196.148 		"/>
		<polygon points="160.2,196.148 162.1,196.148 162.1,196.148 		"/>
		<polygon points="162.1,196.148 164,196.148 164,196.148 		"/>
		<polygon points="164,196.148 166,196.148 166,196.148 		"/>
		<polygon points="166,196.148 167.9,196.148 167.9,196.148 		"/>
		<polygon points="167.9,196.148 169.9,196.148 169.9,196.148 		"/>
		<polygon points="169.9,196.148 171.8,196.148 171.8,196.148 		"/>
		<polygon points="171.8,196.148 173.7,196.148 173.7,196.148 		"/>
		<polygon points="173.7,196.148 175.7,196.148 175.7,196.148 		"/>
		<polygon points="175.7,196.148 177.6,196.148 177.6,196.148 		"/>
		<polygon points="177.6,196.148 179.6,196.148 179.6,196.148 		"/>
		<polygon points="179.6,196.148 181.5,196.148 181.5,196.148 		"/>
		<polygon points="181.5,196.148 183.4,196.148 183.4,196.148 		"/>
		<polygon points="183.4,196.148 185.4,196.148 185.4,196.148 		"/>
		<polygon points="185.4,196.148 187.3,196.148 187.3,196.148 		"/>
		<polygon points="187.3,196.148 189.2,196.148 189.2,196.148 		"/>
		<polygon points="189.2,196.148 191.2,196.148 191.2,196.148 		"/>
		<polygon points="191.2,196.148 193.1,196.148 193.1,196.148 		"/>
		<polygon points="193.1,196.148 195.1,196.148 195.1,196.148 		"/>
		<polygon points="195.1,196.148 197,196.148 197,196.148 		"/>
		<polygon points="197,196.148 198.9,196.148 198.9,196.148 		"/>
		<rect x="198.9" y="191.548" width="1.9" height="9.3"/>
		<polygon points="200.9,196.148 202.8,196.148 202.8,196.148 		"/>
		<polygon points="202.8,196.148 204.8,196.148 204.8,196.148 		"/>
		<polygon points="204.8,196.148 206.7,196.148 206.7,196.148 		"/>
		<rect x="206.7" y="194.248" width="1.9" height="3.7"/>
		<polygon points="208.6,196.148 210.6,196.148 210.6,196.148 		"/>
		<polygon points="210.6,196.148 212.5,196.148 212.5,196.148 		"/>
		<polygon points="212.5,196.148 214.5,196.148 214.5,196.148 		"/>
		<polygon points="214.5,196.148 216.4,196.148 216.4,196.148 		"/>
		<polygon points="216.4,196.148 218.3,196.148 218.3,196.148 		"/>
		<polygon points="218.3,196.148 220.3,196.148 220.3,196.148 		"/>
		<polygon points="220.3,196.148 222.2,196.148 222.2,196.148 		"/>
		<polygon points="222.2,196.148 224.2,196.148 224.2,196.148 		"/>
		<polygon points="224.2,196.148 226.1,196.148 226.1,196.148 		"/>
		<polygon points="226.1,196.148 228,196.148 228,196.148 		"/>
		<polygon points="228,196.148 230,196.148 230,196.148 		"/>
		<polygon points="230,196.148 231.9,196.148 231.9,196.148 		"/>
		<polygon points="231.9,196.148 233.9,196.148 233.9,196.148 		"/>
		<polygon points="233.9,196.148 235.8,196.148 235.8,196.148 		"/>
		<polygon points="235.8,196.148 237.7,196.148 237.7,196.148 		"/>
		<polygon points="237.7,196.148 239.7,196.148 239.7,196.148 		"/>
		<polygon points="239.7,196.148 241.6,196.148 241.6,196.148 		"/>
		<polygon points="241.6,196.148 243.6,196.148 243.6,196.148 		"/>
		<polygon points="243.6,196.148 245.5,196.148 245.5,196.148 		"/>
		<polygon points="245.5,196.148 247.4,196.148 247.4,196.148 		"/>
		<polygon points="247.4,196.148 249.4,196.148 249.4,196.148 		"/>
		<polygon points="249.4,196.148 251.3,196.148 251.3,196.148 		"/>
		<polygon points="251.3,196.148 253.3,196.148 253.3,196.148 		"/>
		<polygon points="253.3,196.148 255.2,196.148 255.2,196.148 		"/>
		<polygon points="255.2,196.148 257.1,196.148 257.1,196.148 		"/>
		<polygon points="257.1,196.148 259.1,196.148 259.1,196.148 		"/>
		<polygon points="259.1,196.148 261,196.148 261,196.148 		"/>
		<polygon points="261,196.148 263,196.148 263,196.148 		"/>
		<polygon points="263,196.148 264.9,196.148 264.9,196.148 		"/>
		<polygon points="264.9,196.148 266.8,196.148 266.8,196.148 		"/>
		<polygon points="266.8,196.148 268.8,196.148 268.8,196.148 		"/>
		<polygon points="268.8,196.148 270.7,196.148 270.7,196.148 		"/>
		<polygon points="270.7,196.148 272.7,196.148 272.7,196.148 		"/>
		<polygon points="272.7,196.148 274.6,196.148 274.6,196.148 		"/>
		<rect x="274.6" y="194.248" width="1.9" height="3.7"/>
		<polygon points="276.5,196.148 278.5,196.148 278.5,196.148 		"/>
		<polygon points="278.5,196.148 280.4,196.148 280.4,196.148 		"/>
		<polygon points="280.4,196.148 282.4,196.148 282.4,196.148 		"/>
		<rect x="282.4" y="194.248" width="1.9" height="3.7"/>
		<polygon points="284.3,196.148 286.2,196.148 286.2,196.148 		"/>
		<polygon points="286.2,196.148 288.2,196.148 288.2,196.148 		"/>
		<polygon points="288.2,196.148 290.1,196.148 290.1,196.148 		"/>
		<polygon points="290.1,196.148 292.1,196.148 292.1,196.148 		"/>
		<polygon points="292.1,196.148 294,196.148 294,196.148 		"/>
		<polygon points="294,196.148 295.9,196.148 295.9,196.148 		"/>
		<polygon points="295.9,196.148 297.9,196.148 297.9,196.148 		"/>
		<polygon points="297.9,196.148 299.8,196.148 299.8,196.148 		"/>
		<polygon points="299.8,196.148 301.8,196.148 301.8,196.148 		"/>
		<polygon points="301.8,196.148 303.7,196.148 303.7,196.148 		"/>
		<polygon points="303.7,196.148 305.6,196.148 305.6,196.148 		"/>
		<polygon points="305.6,196.148 307.6,196.148 307.6,196.148 		"/>
		<polygon points="307.6,196.148 309.5,196.148 309.5,196.148 		"/>
		<polygon points="309.5,196.148 311.5,196.148 311.5,196.148 		"/>
		<polygon points="311.5,196.148 313.4,196.148 313.4,196.148 		"/>
		<polygon points="313.4,196.148 315.3,196.148 315.3,196.148 		"/>
		<polygon points="315.3,196.148 317.3,196.148 317.3,196.148 		"/>
		<polygon points="317.3,196.148 319.2,196.148 319.2,196.148 		"/>
		<polygon points="319.2,196.148 321.2,196.148 321.2,196.148 		"/>
		<polygon points="321.2,196.148 323.1,196.148 323.1,196.148 		"/>
		<rect x="323.1" y="195.248" width="1.9" height="1.9"/>
		<polygon points="325,196.148 327,196.148 327,196.148 		"/>
		<polygon points="327,196.148 328.9,196.148 328.9,196.148 		"/>
		<polygon points="328.9,196.148 330.9,196.148 330.9,196.148 		"/>
		<polygon points="330.9,196.148 332.8,196.148 332.8,196.148 		"/>
		<polygon points="332.8,196.148 334.7,196.148 334.7,196.148 		"/>
		<polygon points="334.7,196.148 336.7,196.148 336.7,196.148 		"/>
		<polygon points="336.7,196.148 338.6,196.148 338.6,196.148 		"/>
		<polygon points="338.6,196.148 340.6,196.148 340.6,196.148 		"/>
		<polygon points="340.6,196.148 342.5,196.148 342.5,196.148 		"/>
		<rect x="342.5" y="195.248" width="1.9" height="1.9"/>
		<polygon points="344.4,196.148 346.4,196.148 346.4,196.148 		"/>
		<polygon points="346.4,196.148 348.3,196.148 348.3,196.148 		"/>
		<polygon points="348.3,196.148 350.3,196.148 350.3,196.148 		"/>
		<polygon points="350.3,196.148 352.2,196.148 352.2,196.148 		"/>
		<polygon points="352.2,196.148 354.1,196.148 354.1,196.148 		"/>
		<rect x="354.1" y="195.248" width="1.9" height="1.9"/>
		<polygon points="356.1,196.148 358,196.148 358,196.148 		"/>
		<polygon points="358,196.148 360,196.148 360,196.148 		"/>
		<polygon points="360,196.148 361.9,196.148 361.9,196.148 		"/>
		<polygon points="361.9,196.148 363.8,196.148 363.8,196.148 		"/>
		<polygon points="363.8,196.148 365.8,196.148 365.8,196.148 		"/>
		<polygon points="365.8,196.148 367.7,196.148 367.7,196.148 		"/>
		<polygon points="367.7,196.148 369.7,196.148 369.7,196.148 		"/>
		<polygon points="369.7,196.148 371.6,196.148 371.6,196.148 		"/>
		<polygon points="371.6,196.148 373.5,196.148 373.5,196.148 		"/>
		<polygon points="373.5,196.148 375.5,196.148 375.5,196.148 		"/>
		<polygon points="375.5,196.148 377.4,196.148 377.4,196.148 		"/>
		<polygon points="377.4,196.148 379.4,196.148 379.4,196.148 		"/>
		<polygon points="379.4,196.148 381.3,196.148 381.3,196.148 		"/>
		<polygon points="381.3,196.148 383.2,196.148 383.2,196.148 		"/>
		<polygon points="383.2,196.148 385.2,196.148 385.2,196.148 		"/>
		<polygon points="385.2,196.148 387.1,196.148 387.1,196.148 		"/>
		<polygon points="387.1,196.148 389.1,196.148 389.1,196.148 		"/>
		<polygon points="389.1,196.148 391,196.148 391,196.148 		"/>
		<polygon points="391,196.148 392.9,196.148 392.9,196.148 		"/>
		<polygon points="392.9,196.148 394.9,196.148 394.9,196.148 		"/>
		<polygon points="394.9,196.148 396.8,196.148 396.8,196.148 		"/>
		<polygon points="396.8,196.148 398.8,196.148 398.8,196.148 		"/>
		<polygon points="398.8,196.148 400.7,196.148 400.7,196.148 		"/>
		<polygon points="400.7,196.148 402.6,196.148 402.6,196.148 		"/>
		<polygon points="402.6,196.148 404.6,196.148 404.6,196.148 		"/>
		<polygon points="404.6,196.148 406.5,196.148 406.5,196.148 		"/>
		<polygon points="406.5,196.148 408.5,196.148 408.5,196.148 		"/>
		<polygon points="408.5,196.148 410.4,196.148 410.4,196.148 		"/>
		<polygon points="410.4,196.148 412.3,196.148 412.3,196.148 		"/>
		<polygon points="412.3,196.148 414.3,196.148 414.3,196.148 		"/>
		<rect x="414.3" y="194.248" width="1.9" height="3.7"/>
		<polygon points="416.2,196.148 418.2,196.148 418.2,196.148 		"/>
		<polygon points="418.2,196.148 420.1,196.148 420.1,196.148 		"/>
		<polygon points="420.1,196.148 422,196.148 422,196.148 		"/>
		<polygon points="422,196.148 424,196.148 424,196.148 		"/>
		<polygon points="424,196.148 425.9,196.148 425.9,196.148 		"/>
		<polygon points="425.9,196.148 427.9,196.148 427.9,196.148 		"/>
		<rect x="427.9" y="193.348" width="1.9" height="5.6"/>
		<polygon points="429.8,196.148 431.7,196.148 431.7,196.148 		"/>
		<polygon points="431.7,196.148 433.7,196.148 433.7,196.148 		"/>
		<polygon points="433.7,196.148 435.6,196.148 435.6,196.148 		"/>
		<polygon points="435.6,196.148 437.6,196.148 437.6,196.148 		"/>
		<polygon points="437.6,196.148 439.5,196.148 439.5,196.148 		"/>
		<polygon points="439.5,196.148 441.4,196.148 441.4,196.148 		"/>
		<polygon points="441.4,196.148 443.4,196.148 443.4,196.148 		"/>
		<rect x="443.4" y="195.248" width="1.9" height="1.9"/>
		<polygon points="445.3,196.148 447.3,196.148 447.3,196.148 		"/>
		<polygon points="447.3,196.148 449.2,196.148 449.2,196.148 		"/>
		<polygon points="449.2,196.148 451.1,196.148 451.1,196.148 		"/>
		<rect x="451.1" y="194.248" width="1.9" height="3.7"/>
		<polygon points="453.1,196.148 455,196.148 455,196.148 		"/>
		<polygon points="455,196.148 457,196.148 457,196.148 		"/>
		<polygon points="457,196.148 458.9,196.148 458.9,196.148 		"/>
		<polygon points="458.9,196.148 460.8,196.148 460.8,196.148 		"/>
		<polygon points="460.8,196.148 462.8,196.148 462.8,196.148 		"/>
		<polygon points="462.8,196.148 464.7,196.148 464.7,196.148 		"/>
		<polygon points="464.7,196.148 466.7,196.148 466.7,196.148 		"/>
		<polygon points="466.7,196.148 468.6,196.148 468.6,196.148 		"/>
		<polygon points="468.6,196.148 470.5,196.148 470.5,196.148 		"/>
		<polygon points="470.5,196.148 472.5,196.148 472.5,196.148 		"/>
		<rect x="472.5" y="195.248" width="1.9" height="1.9"/>
		<polygon points="474.4,196.148 476.4,196.148 476.4,196.148 		"/>
		<polygon points="476.4,196.148 478.3,196.148 478.3,196.148 		"/>
		<polygon points="478.3,196.148 480.2,196.148 480.2,196.148 		"/>
		<polygon points="480.2,196.148 482.2,196.148 482.2,196.148 		"/>
		<polygon points="482.2,196.148 484.1,196.148 484.1,196.148 		"/>
		<polygon points="484.1,196.148 486.1,196.148 486.1,196.148 		"/>
		<polygon points="486.1,196.148 488,196.148 488,196.148 		"/>
		<polygon points="488,196.148 489.9,196.148 489.9,196.148 		"/>
		<polygon points="489.9,196.148 491.9,196.148 491.9,196.148 		"/>
		<polygon points="491.9,196.148 493.8,196.148 493.8,196.148 		"/>
		<polygon points="493.8,196.148 495.8,196.148 495.8,196.148 		"/>
		<polygon points="495.8,196.148 497.7,196.148 497.7,196.148 		"/>
		<polygon points="497.7,196.148 499.6,196.148 499.6,196.148 		"/>
		<polygon points="499.6,196.148 501.6,196.148 501.6,196.148 		"/>
		<polygon points="501.6,196.148 503.5,196.148 503.5,196.148 		"/>
		<polygon points="503.5,196.148 505.4,196.148 505.4,196.148 		"/>
		<polygon points="505.4,196.148 507.4,196.148 507.4,196.148 		"/>
		<polygon points="507.4,196.148 509.3,196.148 509.3,196.148 		"/>
		<polygon points="509.3,196.148 511.3,196.148 511.3,196.148 		"/>
		<rect x="511.3" y="195.248" width="1.9" height="1.9"/>
		<rect x="513.2" y="189.648" width="1.9" height="13"/>
		<rect x="515.1" y="183.148" width="1.9" height="26"/>
		<rect x="517.1" y="194.248" width="1.9" height="3.7"/>
		<rect x="519" y="194.248" width="1.9" height="3.7"/>
		<rect x="521" y="185.048" width="1.9" height="22.3"/>
		<rect x="522.9" y="187.748" width="1.9" height="16.7"/>
		<rect x="524.8" y="191.548" width="1.9" height="9.3"/>
		<rect x="526.8" y="193.348" width="1.9" height="5.6"/>
		<rect x="528.7" y="173.848" width="1.9" height="44.6"/>
		<rect x="530.7" y="122.748" width="1.9" height="146.7"/>
		<rect x="532.6" y="177.548" width="1.9" height="37.1"/>
		<rect x="534.5" y="189.648" width="1.9" height="13"/>
		<rect x="536.5" y="134.848" width="1.9" height="122.6"/>
		<rect x="538.4" y="125.548" width="1.9" height="141.1"/>
		<rect x="540.4" y="73.548" width="1.9" height="245.1"/>
		<rect x="542.3" y="120.948" width="1.9" height="150.4"/>
		<rect x="544.2" y="184.048" width="1.9" height="24.1"/>
		<rect x="546.2" y="187.748" width="1.9" height="16.7"/>
		<rect x="548.1" y="166.448" width="1.9" height="59.4"/>
		<rect x="550.1" y="177.548" width="1.9" height="37.1"/>
		<rect x="552" y="160.848" width="1.9" height="70.6"/>
		<rect x="553.9" y="172.948" width="1.9" height="46.4"/>
		<rect x="555.9" y="166.448" width="1.9" height="59.4"/>
		<rect x="557.8" y="180.348" width="1.9" height="31.6"/>
		<rect x="559.8" y="179.448" width="1.9" height="33.4"/>
		<rect x="561.7" y="174.748" width="1.9" height="42.7"/>
		<rect x="563.6" y="185.048" width="1.9" height="22.3"/>
		<rect x="565.6" y="167.348" width="1.9" height="57.6"/>
		<rect x="567.5" y="172.948" width="1.9" height="46.4"/>
		<rect x="569.5" y="174.748" width="1.9" height="42.7"/>
		<rect x="571.4" y="132.048" width="1.9" height="128.1"/>
		<rect x="573.3" y="186.848" width="1.9" height="18.6"/>
		<rect x="575.3" y="178.548" width="1.9" height="35.3"/>
		<rect x="577.2" y="157.148" width="1.9" height="78"/>
		<rect x="579.2" y="112.548" width="1.9" height="167.1"/>
		<rect x="581.1" y="137.648" width="1.9" height="117"/>
		<rect x="583" y="73.548" width="1.9" height="245.1"/>
		<rect x="585" y="140.448" width="1.9" height="111.4"/>
		<rect x="586.9" y="130.248" width="1.9" height="131.9"/>
		<rect x="588.9" y="110.748" width="1.9" height="170.9"/>
		<rect x="590.8" y="135.748" width="1.9" height="120.7"/>
		<rect x="592.7" y="163.648" width="1.9" height="65"/>
		<rect x="594.7" y="172.048" width="1.9" height="48.3"/>
		<rect x="596.6" y="178.548" width="1.9" height="35.3"/>
		<rect x="598.6" y="189.648" width="1.9" height="13"/>
		<rect x="600.5" y="161.748" width="1.9" height="68.7"/>
		<rect x="602.4" y="191.548" width="1.9" height="9.3"/>
		<rect x="604.4" y="185.948" width="1.9" height="20.4"/>
		<rect x="606.3" y="189.648" width="1.9" height="13"/>
		<rect x="608.3" y="181.248" width="1.9" height="29.7"/>
		<rect x="610.2" y="179.448" width="1.9" height="33.4"/>
		<rect x="612.1" y="187.748" width="1.9" height="16.7"/>
		<rect x="614.1" y="164.548" width="1.9" height="63.1"/>
		<rect x="616" y="174.748" width="1.9" height="42.7"/>
		<rect x="618" y="180.348" width="1.9" height="31.6"/>
		<rect x="619.9" y="157.148" width="1.9" height="78"/>
		<rect x="621.8" y="159.948" width="1.9" height="72.4"/>
		<rect x="623.8" y="165.548" width="1.9" height="61.3"/>
		<rect x="625.7" y="158.048" width="1.9" height="76.1"/>
		<rect x="627.7" y="175.748" width="1.9" height="40.9"/>
		<rect x="629.6" y="157.148" width="1.9" height="78"/>
		<rect x="631.5" y="117.248" width="1.9" height="157.9"/>
		<rect x="633.5" y="179.448" width="1.9" height="33.4"/>
		<rect x="635.4" y="190.548" width="1.9" height="11.1"/>
		<rect x="637.4" y="168.248" width="1.9" height="55.7"/>
		<rect x="639.3" y="159.048" width="1.9" height="74.3"/>
		<rect x="641.2" y="165.548" width="1.9" height="61.3"/>
		<rect x="643.2" y="146.948" width="1.9" height="98.4"/>
		<rect x="645.1" y="159.048" width="1.9" height="74.3"/>
		<rect x="647.1" y="177.548" width="1.9" height="37.1"/>
	</g>
	<g>
		<g>
			<path fill="none" stroke="#000000" stroke-miterlimit="10" d="M40.737,216.698c0.3,3.9,1.7,7.8,3.8,10.9
				c2.8,3.8,6.7,6.3,10.8,6.7"/>
			<g>
				<path d="M43.037,217.898l-2.3-0.9l-2.4,0.9c0.9-1.1,1.9-2.9,2.4-4.3C41.337,215.098,42.237,216.898,43.037,217.898z"/>
			</g>
		</g>
	</g>
	<g>
		<path fill="none" stroke="#000000" stroke-miterlimit="10" d="M523.402,224.693c-0.987,4.767-3.237,9.394-6.345,13.207
			c-5.005,5.645-11.977,9.359-19.307,9.953"/>
		<g>
			<path d="M523.85,221.708c-0.747,1.318-1.916,2.913-3.03,3.839l2.485-0.469l2.21,1.229
				C524.749,225.076,524.143,223.193,523.85,221.708z"/>
		</g>
	</g>
	<g>
		<path fill="none" stroke="#000000" stroke-miterlimit="10" d="M474.4,94.106c8.731,1.637,17.461,9.279,24.401,20.742
			c8.124,14.596,13.594,34.667,14.85,55.936"/>
		<g>
			<path d="M513.8,173.798c-0.62-1.382-1.633-3.08-2.656-4.107l2.43,0.701l2.315-1.016
				C515.011,170.529,514.231,172.347,513.8,173.798z"/>
		</g>
	</g>
	
		<line style="opacity:0.8;" fill="none" stroke="#000000" stroke-miterlimit="10" x1="19.5" y1="19.998" x2="653" y2="19.998"/>
	
		<line style="opacity:0.8;" fill="none" stroke="#000000" stroke-miterlimit="10" x1="19.9" y1="387.522" x2="647" y2="387.522"/>
</g>
<style>
#g-verba-vignette08-vox-desktop-img rect, #g-verba-vignette08-vox-desktop-img circle, #g-verba-vignette08-vox-desktop-img path, #g-verba-vignette08-vox-desktop-img line, #g-verba-vignette08-vox-desktop-img polyline { vector-effect: non-scaling-stroke; }
</style>
</svg>

