<?xml version="1.0" encoding="utf-8"?>
<!-- Generator: Adobe Illustrator 21.0.0, SVG Export Plug-In . SVG Version: 6.00 Build 0)  -->
<svg version="1.2" baseProfile="tiny" id="g-verba-tema02-query02-gurtel-vs-ere-mobile-img" xmlns="http://www.w3.org/2000/svg" xmlns:xlink="http://www.w3.org/1999/xlink"
	 x="0px" y="0px" viewBox="0 0 320 376.63" overflow="scroll" xml:space="preserve">
<g>
	
		<line style="opacity:0.8;" fill="none" stroke="#000000" stroke-miterlimit="10" x1="0" y1="21.918" x2="320" y2="21.918"/>
	<g transform="translate(30, 0)">
		<path display="none" fill="none" stroke="#212529" d="M-12.781,179.285h3.25v-65h-3.25"/>
		<g transform="translate(0,130.5)">
			<line fill="none" stroke="#212529" stroke-opacity="0.12" x1="-9.781" y1="48.785" x2="283.719" y2="48.785"/>
			
		</g>
		<g transform="translate(0,98)">
			<line fill="none" stroke="#212529" stroke-opacity="0.12" x1="-9.781" y1="65.035" x2="283.719" y2="65.035"/>
		</g>
		<g transform="translate(0,65.5)">
			<line fill="none" stroke="#212529" stroke-opacity="0.12" x1="-9.781" y1="81.285" x2="283.719" y2="81.285"/>
			
		</g>
		<g transform="translate(0,33)">
			<line fill="none" stroke="#212529" stroke-opacity="0.12" x1="-9.781" y1="97.535" x2="283.719" y2="97.535"/>
		</g>
		<g transform="translate(0,0.5)">
			<line fill="none" stroke="#212529" stroke-opacity="0.12" x1="-9.781" y1="113.785" x2="283.719" y2="113.785"/>
			
		</g>
	</g>
	<g transform="translate(30, 0)">
		<path display="none" fill="none" stroke="#212529" d="M-12.781,244.035h3.25v-65h-3.25"/>
		<g transform="translate(0,130.5)">
			<line fill="none" stroke="#212529" stroke-opacity="0.12" x1="283.719" y1="48.535" x2="-9.781" y2="48.535"/>
		</g>
		<g transform="translate(0,98)">
			<line fill="none" stroke="#212529" stroke-opacity="0.12" x1="283.719" y1="97.285" x2="-9.781" y2="97.285"/>
		</g>
		<g transform="translate(0,65.5)">
			<line fill="none" stroke="#212529" stroke-opacity="0.12" x1="283.719" y1="146.035" x2="-9.781" y2="146.035"/>
			
		</g>
		<g transform="translate(0,33)">
			<line fill="none" stroke="#212529" stroke-opacity="0.12" x1="283.719" y1="194.785" x2="-9.781" y2="194.785"/>
		</g>
		<g transform="translate(0,0.5)">
			<line fill="none" stroke="#212529" stroke-opacity="0.12" x1="283.719" y1="243.535" x2="-9.781" y2="243.535"/>
			
		</g>
	</g>
	<g id="GURTEL_EXPANDED_2_">
		<g>
			<rect x="20.219" y="177.585" fill="#4731EF" width="0.959" height="1.45"/>
		</g>
		<g>
			
				<line fill="none" stroke="#000000" stroke-width="0" stroke-linecap="round" stroke-linejoin="round" x1="22.136" y1="179.035" x2="21.178" y2="179.035"/>
		</g>
		<g>
			<polygon fill="#4731EF" points="23.095,174.685 22.136,174.685 22.136,179.035 23.095,179.035 23.095,176.135 			"/>
		</g>
		<g>
			<polygon fill="#4731EF" points="23.095,176.135 23.095,179.035 24.005,179.035 24.053,179.035 24.053,176.135 			"/>
		</g>
		<g>
			
				<line fill="none" stroke="#000000" stroke-width="0" stroke-linecap="round" stroke-linejoin="round" x1="24.964" y1="179.035" x2="24.053" y2="179.035"/>
		</g>
		<g>
			
				<line fill="none" stroke="#000000" stroke-width="0" stroke-linecap="round" stroke-linejoin="round" x1="24.005" y1="179.035" x2="24.053" y2="179.035"/>
		</g>
		<g>
			<rect x="24.964" y="177.585" fill="#4731EF" width="0.959" height="1.45"/>
		</g>
		<g>
			<polygon fill="#4731EF" points="26.881,160.235 25.922,160.235 25.922,177.585 25.922,179.035 26.881,179.035 26.881,176.135 			
				"/>
		</g>
		<g>
			<polygon fill="#4731EF" points="27.839,176.135 26.881,176.135 26.881,179.035 27.839,179.035 27.839,177.585 			"/>
		</g>
		<g>
			<rect x="27.839" y="177.585" fill="#4731EF" width="0.959" height="1.45"/>
		</g>
		<g>
			<polygon fill="#4731EF" points="28.798,167.485 28.798,177.585 28.798,179.035 29.708,179.035 29.708,167.485 			"/>
		</g>
		<g>
			<polygon fill="#4731EF" points="30.667,167.485 29.756,167.485 29.708,167.485 29.708,179.035 30.667,179.035 30.667,177.585 			
				"/>
		</g>
		<g>
			<rect x="30.667" y="177.585" fill="#4731EF" width="0.959" height="1.45"/>
		</g>
		<g>
			<polygon fill="#4731EF" points="32.584,161.685 31.625,161.685 31.625,177.585 31.625,179.035 32.584,179.035 32.584,177.585 			
				"/>
		</g>
		<g>
			<rect x="32.584" y="177.585" fill="#4731EF" width="0.959" height="1.45"/>
		</g>
		<g>
			
				<line fill="none" stroke="#000000" stroke-width="0" stroke-linecap="round" stroke-linejoin="round" x1="34.501" y1="179.035" x2="33.542" y2="179.035"/>
		</g>
		<g>
			<polygon fill="#4731EF" points="34.501,176.135 34.501,179.035 35.411,179.035 35.459,179.035 35.459,176.135 			"/>
		</g>
		<g>
			
				<line fill="none" stroke="#000000" stroke-width="0" stroke-linecap="round" stroke-linejoin="round" x1="35.411" y1="179.035" x2="35.459" y2="179.035"/>
		</g>
		<g>
			
				<line fill="none" stroke="#000000" stroke-width="0" stroke-linecap="round" stroke-linejoin="round" x1="36.37" y1="179.035" x2="35.459" y2="179.035"/>
		</g>
		<g>
			
				<line fill="none" stroke="#000000" stroke-width="0" stroke-linecap="round" stroke-linejoin="round" x1="37.328" y1="179.035" x2="36.37" y2="179.035"/>
		</g>
		<g>
			
				<line fill="none" stroke="#000000" stroke-width="0" stroke-linecap="round" stroke-linejoin="round" x1="38.287" y1="179.035" x2="37.328" y2="179.035"/>
		</g>
		<g>
			<polygon fill="#4731EF" points="39.246,174.685 38.287,174.685 38.287,179.035 39.246,179.035 39.246,177.585 			"/>
		</g>
		<g>
			<rect x="39.246" y="177.585" fill="#4731EF" width="0.959" height="1.45"/>
		</g>
		<g>
			
				<line fill="none" stroke="#000000" stroke-width="0" stroke-linecap="round" stroke-linejoin="round" x1="41.115" y1="179.035" x2="40.204" y2="179.035"/>
		</g>
		<g>
			<polygon fill="#4731EF" points="42.073,173.235 41.115,173.235 41.115,179.035 42.073,179.035 42.073,174.685 			"/>
		</g>
		<g>
			<polygon fill="#4731EF" points="43.032,174.685 42.073,174.685 42.073,179.035 43.032,179.035 43.032,176.135 			"/>
		</g>
		<g>
			<rect x="43.032" y="176.135" fill="#4731EF" width="0.959" height="2.9"/>
		</g>
		<g>
			<rect x="43.99" y="176.135" fill="#4731EF" width="0.959" height="2.9"/>
		</g>
		<g>
			<polygon fill="#4731EF" points="44.949,174.685 44.949,176.135 44.949,179.035 45.907,179.035 45.907,174.685 			"/>
		</g>
		<g>
			<polygon fill="#4731EF" points="46.866,176.135 46.866,174.685 45.907,174.685 45.907,179.035 46.818,179.035 46.818,176.135 			
				"/>
		</g>
		<g>
			<polygon fill="#4731EF" points="46.866,176.135 46.818,176.135 46.818,179.035 47.776,179.035 47.776,176.135 			"/>
		</g>
		<g>
			
				<line fill="none" stroke="#000000" stroke-width="0" stroke-linecap="round" stroke-linejoin="round" x1="48.735" y1="179.035" x2="47.776" y2="179.035"/>
		</g>
		<g>
			<rect x="48.735" y="173.235" fill="#4731EF" width="0.959" height="5.8"/>
		</g>
		<g>
			<polygon fill="#4731EF" points="50.652,167.485 49.693,167.485 49.693,173.235 49.693,179.035 50.652,179.035 50.652,177.585 			
				"/>
		</g>
		<g>
			<rect x="50.652" y="177.585" fill="#4731EF" width="0.959" height="1.45"/>
		</g>
		<g>
			
				<line fill="none" stroke="#000000" stroke-width="0" stroke-linecap="round" stroke-linejoin="round" x1="52.521" y1="179.035" x2="51.61" y2="179.035"/>
		</g>
		<g>
			
				<line fill="none" stroke="#000000" stroke-width="0" stroke-linecap="round" stroke-linejoin="round" x1="53.479" y1="179.035" x2="52.521" y2="179.035"/>
		</g>
		<g>
			
				<line fill="none" stroke="#000000" stroke-width="0" stroke-linecap="round" stroke-linejoin="round" x1="54.438" y1="179.035" x2="53.479" y2="179.035"/>
		</g>
		<g>
			
				<line fill="none" stroke="#000000" stroke-width="0" stroke-linecap="round" stroke-linejoin="round" x1="55.396" y1="179.035" x2="54.438" y2="179.035"/>
		</g>
		<g>
			
				<line fill="none" stroke="#000000" stroke-width="0" stroke-linecap="round" stroke-linejoin="round" x1="56.355" y1="179.035" x2="55.396" y2="179.035"/>
		</g>
		<g>
			
				<line fill="none" stroke="#000000" stroke-width="0" stroke-linecap="round" stroke-linejoin="round" x1="57.313" y1="179.035" x2="56.355" y2="179.035"/>
		</g>
		<g>
			<rect x="57.313" y="176.135" fill="#4731EF" width="0.959" height="2.9"/>
		</g>
		<g>
			
				<line fill="none" stroke="#000000" stroke-width="0" stroke-linecap="round" stroke-linejoin="round" x1="59.182" y1="179.035" x2="58.272" y2="179.035"/>
		</g>
		<g>
			<rect x="59.182" y="177.585" fill="#4731EF" width="0.959" height="1.45"/>
		</g>
		<g>
			<rect x="60.141" y="177.585" fill="#4731EF" width="0.959" height="1.45"/>
		</g>
		<g>
			<polygon fill="#4731EF" points="61.099,176.135 61.099,177.585 61.099,179.035 62.058,179.035 62.058,176.135 			"/>
		</g>
		<g>
			
				<line fill="none" stroke="#000000" stroke-width="0" stroke-linecap="round" stroke-linejoin="round" x1="63.016" y1="179.035" x2="62.058" y2="179.035"/>
		</g>
		<g>
			
				<line fill="none" stroke="#000000" stroke-width="0" stroke-linecap="round" stroke-linejoin="round" x1="63.975" y1="179.035" x2="63.016" y2="179.035"/>
		</g>
		<g>
			<polygon fill="#4731EF" points="64.933,177.585 64.933,173.235 63.975,173.235 63.975,179.035 64.885,179.035 64.885,177.585 			
				"/>
		</g>
		<g>
			<polygon fill="#4731EF" points="64.933,177.585 64.885,177.585 64.885,179.035 65.844,179.035 65.844,177.585 			"/>
		</g>
		<g>
			<polygon fill="#4731EF" points="66.802,148.685 65.844,148.685 65.844,177.585 65.844,179.035 66.802,179.035 66.802,170.385 			
				"/>
		</g>
		<g>
			<polygon fill="#4731EF" points="67.761,170.385 66.802,170.385 66.802,179.035 67.761,179.035 67.761,173.235 			"/>
		</g>
		<g>
			<rect x="67.761" y="173.235" fill="#4731EF" width="0.959" height="5.8"/>
		</g>
		<g>
			<polygon fill="#4731EF" points="69.678,170.385 68.719,170.385 68.719,173.235 68.719,179.035 69.678,179.035 69.678,177.585 			
				"/>
		</g>
		<g>
			<rect x="69.678" y="177.585" fill="#4731EF" width="0.911" height="1.45"/>
		</g>
		<g>
			<polygon fill="#4731EF" points="70.636,177.585 70.589,177.585 70.589,179.035 71.547,179.035 71.547,177.585 			"/>
		</g>
		<g>
			<rect x="71.547" y="177.585" fill="#4731EF" width="0.959" height="1.45"/>
		</g>
		<g>
			<polygon fill="#4731EF" points="72.506,167.485 72.506,177.585 72.506,179.035 73.464,179.035 73.464,167.485 			"/>
		</g>
		<g>
			<polygon fill="#4731EF" points="74.423,166.035 73.464,166.035 73.464,167.485 73.464,179.035 74.423,179.035 74.423,177.585 			
				"/>
		</g>
		<g>
			<rect x="74.423" y="177.585" fill="#4731EF" width="0.959" height="1.45"/>
		</g>
		<g>
			
				<line fill="none" stroke="#000000" stroke-width="0" stroke-linecap="round" stroke-linejoin="round" x1="76.292" y1="179.035" x2="75.381" y2="179.035"/>
		</g>
		<g>
			<polygon fill="#4731EF" points="77.25,173.235 76.292,173.235 76.292,179.035 77.25,179.035 77.25,176.135 			"/>
		</g>
		<g>
			<polygon fill="#4731EF" points="78.209,176.135 77.25,176.135 77.25,179.035 78.209,179.035 78.209,177.585 			"/>
		</g>
		<g>
			<rect x="78.209" y="177.585" fill="#4731EF" width="0.959" height="1.45"/>
		</g>
		<g>
			<polygon fill="#4731EF" points="79.167,168.935 79.167,177.585 79.167,179.035 80.126,179.035 80.126,168.935 			"/>
		</g>
		<g>
			<polygon fill="#4731EF" points="81.084,163.135 80.126,163.135 80.126,168.935 80.126,179.035 81.084,179.035 81.084,176.135 			
				"/>
		</g>
		<g>
			<polygon fill="#4731EF" points="81.084,176.135 81.084,179.035 81.995,179.035 82.043,179.035 82.043,176.135 			"/>
		</g>
		<g>
			
				<line fill="none" stroke="#000000" stroke-width="0" stroke-linecap="round" stroke-linejoin="round" x1="81.995" y1="179.035" x2="82.043" y2="179.035"/>
		</g>
		<g>
			
				<line fill="none" stroke="#000000" stroke-width="0" stroke-linecap="round" stroke-linejoin="round" x1="82.953" y1="179.035" x2="82.043" y2="179.035"/>
		</g>
		<g>
			<polygon fill="#4731EF" points="83.912,167.485 82.953,167.485 82.953,179.035 83.912,179.035 83.912,177.585 			"/>
		</g>
		<g>
			<rect x="83.912" y="177.585" fill="#4731EF" width="0.959" height="1.45"/>
		</g>
		<g>
			
				<line fill="none" stroke="#000000" stroke-width="0" stroke-linecap="round" stroke-linejoin="round" x1="85.829" y1="179.035" x2="84.87" y2="179.035"/>
		</g>
		<g>
			<rect x="85.829" y="173.235" fill="#4731EF" width="0.959" height="5.8"/>
		</g>
		<g>
			
				<line fill="none" stroke="#000000" stroke-width="0" stroke-linecap="round" stroke-linejoin="round" x1="87.746" y1="179.035" x2="86.787" y2="179.035"/>
		</g>
		<g>
			
				<line fill="none" stroke="#000000" stroke-width="0" stroke-linecap="round" stroke-linejoin="round" x1="88.656" y1="179.035" x2="87.746" y2="179.035"/>
		</g>
		<g>
			
				<line fill="none" stroke="#000000" stroke-width="0" stroke-linecap="round" stroke-linejoin="round" x1="89.615" y1="179.035" x2="88.656" y2="179.035"/>
		</g>
		<g>
			
				<line fill="none" stroke="#000000" stroke-width="0" stroke-linecap="round" stroke-linejoin="round" x1="90.573" y1="179.035" x2="89.615" y2="179.035"/>
		</g>
		<g>
			
				<line fill="none" stroke="#000000" stroke-width="0" stroke-linecap="round" stroke-linejoin="round" x1="91.532" y1="179.035" x2="90.573" y2="179.035"/>
		</g>
		<g>
			<rect x="91.532" y="177.585" fill="#4731EF" width="0.959" height="1.45"/>
		</g>
		<g>
			<rect x="92.49" y="177.585" fill="#4731EF" width="0.959" height="1.45"/>
		</g>
		<g>
			<polygon fill="#4731EF" points="93.449,174.685 93.449,177.585 93.449,179.035 94.359,179.035 94.407,179.035 94.407,174.685 			
				"/>
		</g>
		<g>
			
				<line fill="none" stroke="#000000" stroke-width="0" stroke-linecap="round" stroke-linejoin="round" x1="95.318" y1="179.035" x2="94.407" y2="179.035"/>
		</g>
		<g>
			
				<line fill="none" stroke="#000000" stroke-width="0" stroke-linecap="round" stroke-linejoin="round" x1="94.407" y1="179.035" x2="94.359" y2="179.035"/>
		</g>
		<g>
			
				<line fill="none" stroke="#000000" stroke-width="0" stroke-linecap="round" stroke-linejoin="round" x1="96.276" y1="179.035" x2="95.318" y2="179.035"/>
		</g>
		<g>
			<rect x="96.276" y="177.585" fill="#4731EF" width="0.959" height="1.45"/>
		</g>
		<g>
			
				<line fill="none" stroke="#000000" stroke-width="0" stroke-linecap="round" stroke-linejoin="round" x1="98.193" y1="179.035" x2="97.235" y2="179.035"/>
		</g>
		<g>
			
				<line fill="none" stroke="#000000" stroke-width="0" stroke-linecap="round" stroke-linejoin="round" x1="99.152" y1="179.035" x2="98.193" y2="179.035"/>
		</g>
		<g>
			<polygon fill="#4731EF" points="99.152,166.035 99.152,179.035 100.062,179.035 100.11,179.035 100.11,166.035 			"/>
		</g>
		<g>
			
				<line fill="none" stroke="#000000" stroke-width="0" stroke-linecap="round" stroke-linejoin="round" x1="101.021" y1="179.035" x2="100.11" y2="179.035"/>
		</g>
		<g>
			
				<line fill="none" stroke="#000000" stroke-width="0" stroke-linecap="round" stroke-linejoin="round" x1="100.062" y1="179.035" x2="100.11" y2="179.035"/>
		</g>
		<g>
			<rect x="101.021" y="174.685" fill="#4731EF" width="0.959" height="4.35"/>
		</g>
		<g>
			
				<line fill="none" stroke="#000000" stroke-width="0" stroke-linecap="round" stroke-linejoin="round" x1="102.938" y1="179.035" x2="101.979" y2="179.035"/>
		</g>
		<g>
			
				<line fill="none" stroke="#000000" stroke-width="0" stroke-linecap="round" stroke-linejoin="round" x1="103.896" y1="179.035" x2="102.938" y2="179.035"/>
		</g>
		<g>
			
				<line fill="none" stroke="#000000" stroke-width="0" stroke-linecap="round" stroke-linejoin="round" x1="104.855" y1="179.035" x2="103.896" y2="179.035"/>
		</g>
		<g>
			
				<line fill="none" stroke="#000000" stroke-width="0" stroke-linecap="round" stroke-linejoin="round" x1="105.766" y1="179.035" x2="104.855" y2="179.035"/>
		</g>
		<g>
			
				<line fill="none" stroke="#000000" stroke-width="0" stroke-linecap="round" stroke-linejoin="round" x1="106.724" y1="179.035" x2="105.766" y2="179.035"/>
		</g>
		<g>
			
				<line fill="none" stroke="#000000" stroke-width="0" stroke-linecap="round" stroke-linejoin="round" x1="107.683" y1="179.035" x2="106.724" y2="179.035"/>
		</g>
		<g>
			
				<line fill="none" stroke="#000000" stroke-width="0" stroke-linecap="round" stroke-linejoin="round" x1="108.641" y1="179.035" x2="107.683" y2="179.035"/>
		</g>
		<g>
			
				<line fill="none" stroke="#000000" stroke-width="0" stroke-linecap="round" stroke-linejoin="round" x1="109.6" y1="179.035" x2="108.641" y2="179.035"/>
		</g>
		<g>
			
				<line fill="none" stroke="#000000" stroke-width="0" stroke-linecap="round" stroke-linejoin="round" x1="110.558" y1="179.035" x2="109.6" y2="179.035"/>
		</g>
		<g>
			
				<line fill="none" stroke="#000000" stroke-width="0" stroke-linecap="round" stroke-linejoin="round" x1="111.469" y1="179.035" x2="110.558" y2="179.035"/>
		</g>
		<g>
			<rect x="111.469" y="174.685" fill="#4731EF" width="0.959" height="4.35"/>
		</g>
		<g>
			
				<line fill="none" stroke="#000000" stroke-width="0" stroke-linecap="round" stroke-linejoin="round" x1="113.386" y1="179.035" x2="112.427" y2="179.035"/>
		</g>
		<g>
			
				<line fill="none" stroke="#000000" stroke-width="0" stroke-linecap="round" stroke-linejoin="round" x1="114.344" y1="179.035" x2="113.386" y2="179.035"/>
		</g>
		<g>
			
				<line fill="none" stroke="#000000" stroke-width="0" stroke-linecap="round" stroke-linejoin="round" x1="115.303" y1="179.035" x2="114.344" y2="179.035"/>
		</g>
		<g>
			
				<line fill="none" stroke="#000000" stroke-width="0" stroke-linecap="round" stroke-linejoin="round" x1="116.261" y1="179.035" x2="115.303" y2="179.035"/>
		</g>
		<g>
			
				<line fill="none" stroke="#000000" stroke-width="0" stroke-linecap="round" stroke-linejoin="round" x1="117.172" y1="179.035" x2="116.261" y2="179.035"/>
		</g>
		<g>
			
				<line fill="none" stroke="#000000" stroke-width="0" stroke-linecap="round" stroke-linejoin="round" x1="118.13" y1="179.035" x2="117.172" y2="179.035"/>
		</g>
		<g>
			
				<line fill="none" stroke="#000000" stroke-width="0" stroke-linecap="round" stroke-linejoin="round" x1="119.089" y1="179.035" x2="118.13" y2="179.035"/>
		</g>
		<g>
			
				<line fill="none" stroke="#000000" stroke-width="0" stroke-linecap="round" stroke-linejoin="round" x1="120.047" y1="179.035" x2="119.089" y2="179.035"/>
		</g>
		<g>
			
				<line fill="none" stroke="#000000" stroke-width="0" stroke-linecap="round" stroke-linejoin="round" x1="121.006" y1="179.035" x2="120.047" y2="179.035"/>
		</g>
		<g>
			
				<line fill="none" stroke="#000000" stroke-width="0" stroke-linecap="round" stroke-linejoin="round" x1="121.964" y1="179.035" x2="121.006" y2="179.035"/>
		</g>
		<g>
			
				<line fill="none" stroke="#000000" stroke-width="0" stroke-linecap="round" stroke-linejoin="round" x1="122.923" y1="179.035" x2="121.964" y2="179.035"/>
		</g>
		<g>
			
				<line fill="none" stroke="#000000" stroke-width="0" stroke-linecap="round" stroke-linejoin="round" x1="123.833" y1="179.035" x2="122.923" y2="179.035"/>
		</g>
		<g>
			<polygon fill="#4731EF" points="124.792,174.685 123.833,174.685 123.833,179.035 124.792,179.035 124.792,176.135 			"/>
		</g>
		<g>
			<rect x="124.792" y="176.135" fill="#4731EF" width="0.959" height="2.9"/>
		</g>
		<g>
			
				<line fill="none" stroke="#000000" stroke-width="0" stroke-linecap="round" stroke-linejoin="round" x1="126.709" y1="179.035" x2="125.75" y2="179.035"/>
		</g>
		<g>
			
				<line fill="none" stroke="#000000" stroke-width="0" stroke-linecap="round" stroke-linejoin="round" x1="127.667" y1="179.035" x2="126.709" y2="179.035"/>
		</g>
		<g>
			<rect x="127.667" y="168.935" fill="#4731EF" width="0.959" height="10.1"/>
		</g>
		<g>
			
				<line fill="none" stroke="#000000" stroke-width="0" stroke-linecap="round" stroke-linejoin="round" x1="129.536" y1="179.035" x2="128.626" y2="179.035"/>
		</g>
		<g>
			
				<line fill="none" stroke="#000000" stroke-width="0" stroke-linecap="round" stroke-linejoin="round" x1="130.495" y1="179.035" x2="129.536" y2="179.035"/>
		</g>
		<g>
			
				<line fill="none" stroke="#000000" stroke-width="0" stroke-linecap="round" stroke-linejoin="round" x1="131.453" y1="179.035" x2="130.495" y2="179.035"/>
		</g>
		<g>
			
				<line fill="none" stroke="#000000" stroke-width="0" stroke-linecap="round" stroke-linejoin="round" x1="132.412" y1="179.035" x2="131.453" y2="179.035"/>
		</g>
		<g>
			<polygon fill="#4731EF" points="133.37,171.835 132.412,171.835 132.412,179.035 133.37,179.035 133.37,177.585 			"/>
		</g>
		<g>
			<rect x="133.37" y="177.585" fill="#4731EF" width="0.959" height="1.45"/>
		</g>
		<g>
			
				<line fill="none" stroke="#000000" stroke-width="0" stroke-linecap="round" stroke-linejoin="round" x1="135.239" y1="179.035" x2="134.329" y2="179.035"/>
		</g>
		<g>
			<rect x="135.239" y="177.585" fill="#4731EF" width="0.959" height="1.45"/>
		</g>
		<g>
			<polygon fill="#4731EF" points="136.198,174.685 136.198,177.585 136.198,179.035 137.156,179.035 137.156,174.685 			"/>
		</g>
		<g>
			
				<line fill="none" stroke="#000000" stroke-width="0" stroke-linecap="round" stroke-linejoin="round" x1="138.115" y1="179.035" x2="137.156" y2="179.035"/>
		</g>
		<g>
			<rect x="138.115" y="174.685" fill="#4731EF" width="0.959" height="4.35"/>
		</g>
		<g>
			
				<line fill="none" stroke="#000000" stroke-width="0" stroke-linecap="round" stroke-linejoin="round" x1="140.032" y1="179.035" x2="139.073" y2="179.035"/>
		</g>
		<g>
			<polygon fill="#4731EF" points="140.99,176.135 140.99,174.685 140.032,174.685 140.032,179.035 140.943,179.035 
				140.943,176.135 			"/>
		</g>
		<g>
			<polygon fill="#4731EF" points="141.901,176.135 140.99,176.135 140.943,176.135 140.943,179.035 141.901,179.035 
				141.901,177.585 			"/>
		</g>
		<g>
			<rect x="141.901" y="177.585" fill="#4731EF" width="0.959" height="1.45"/>
		</g>
		<g>
			<rect x="142.86" y="177.585" fill="#4731EF" width="0.959" height="1.45"/>
		</g>
		<g>
			
				<line fill="none" stroke="#000000" stroke-width="0" stroke-linecap="round" stroke-linejoin="round" x1="144.777" y1="179.035" x2="143.818" y2="179.035"/>
		</g>
		<g>
			<rect x="144.777" y="176.135" fill="#4731EF" width="0.959" height="2.9"/>
		</g>
		<g>
			
				<line fill="none" stroke="#000000" stroke-width="0" stroke-linecap="round" stroke-linejoin="round" x1="146.646" y1="179.035" x2="145.735" y2="179.035"/>
		</g>
		<g>
			
				<line fill="none" stroke="#000000" stroke-width="0" stroke-linecap="round" stroke-linejoin="round" x1="147.604" y1="179.035" x2="146.646" y2="179.035"/>
		</g>
		<g>
			
				<line fill="none" stroke="#000000" stroke-width="0" stroke-linecap="round" stroke-linejoin="round" x1="148.563" y1="179.035" x2="147.604" y2="179.035"/>
		</g>
		<g>
			<rect x="148.563" y="176.135" fill="#4731EF" width="0.959" height="2.9"/>
		</g>
		<g>
			
				<line fill="none" stroke="#000000" stroke-width="0" stroke-linecap="round" stroke-linejoin="round" x1="150.48" y1="179.035" x2="149.521" y2="179.035"/>
		</g>
		<g>
			
				<line fill="none" stroke="#000000" stroke-width="0" stroke-linecap="round" stroke-linejoin="round" x1="151.438" y1="179.035" x2="150.48" y2="179.035"/>
		</g>
		<g>
			
				<line fill="none" stroke="#000000" stroke-width="0" stroke-linecap="round" stroke-linejoin="round" x1="152.397" y1="179.035" x2="151.438" y2="179.035"/>
		</g>
		<g>
			<polygon fill="#4731EF" points="152.397,177.585 152.397,179.035 153.307,179.035 153.355,179.035 153.355,177.585 			"/>
		</g>
		<g>
			
				<line fill="none" stroke="#000000" stroke-width="0" stroke-linecap="round" stroke-linejoin="round" x1="153.307" y1="179.035" x2="153.355" y2="179.035"/>
		</g>
		<g>
			
				<line fill="none" stroke="#000000" stroke-width="0" stroke-linecap="round" stroke-linejoin="round" x1="154.266" y1="179.035" x2="153.355" y2="179.035"/>
		</g>
		<g>
			<polygon fill="#4731EF" points="155.224,173.235 154.266,173.235 154.266,179.035 155.224,179.035 155.224,176.135 			"/>
		</g>
		<g>
			<rect x="155.224" y="176.135" fill="#4731EF" width="0.959" height="2.9"/>
		</g>
		<g>
			
				<line fill="none" stroke="#000000" stroke-width="0" stroke-linecap="round" stroke-linejoin="round" x1="157.141" y1="179.035" x2="156.183" y2="179.035"/>
		</g>
		<g>
			<rect x="157.141" y="176.135" fill="#4731EF" width="0.959" height="2.9"/>
		</g>
		<g>
			<polygon fill="#4731EF" points="158.1,160.235 158.1,176.135 158.1,179.035 159.01,179.035 159.01,160.235 			"/>
		</g>
		<g>
			<polygon fill="#4731EF" points="159.969,150.135 159.01,150.135 159.01,160.235 159.01,179.035 159.969,179.035 159.969,174.685 
							"/>
		</g>
		<g>
			<rect x="159.969" y="174.685" fill="#4731EF" width="0.959" height="4.35"/>
		</g>
		<g>
			<polygon fill="#4731EF" points="161.886,155.935 160.927,155.935 160.927,174.685 160.927,179.035 161.886,179.035 
				161.886,174.685 			"/>
		</g>
		<g>
			<polygon fill="#4731EF" points="162.844,174.685 161.886,174.685 161.886,179.035 162.844,179.035 162.844,176.135 			"/>
		</g>
		<g>
			<rect x="162.844" y="176.135" fill="#4731EF" width="0.959" height="2.9"/>
		</g>
		<g>
			
				<line fill="none" stroke="#000000" stroke-width="0" stroke-linecap="round" stroke-linejoin="round" x1="164.713" y1="179.035" x2="163.803" y2="179.035"/>
		</g>
		<g>
			<rect x="164.713" y="177.585" fill="#4731EF" width="0.959" height="1.45"/>
		</g>
		<g>
			<polygon fill="#4731EF" points="165.672,176.135 165.672,177.585 165.672,179.035 166.63,179.035 166.63,176.135 			"/>
		</g>
		<g>
			
				<line fill="none" stroke="#000000" stroke-width="0" stroke-linecap="round" stroke-linejoin="round" x1="167.589" y1="179.035" x2="166.63" y2="179.035"/>
		</g>
		<g>
			<rect x="167.589" y="176.135" fill="#4731EF" width="0.959" height="2.9"/>
		</g>
		<g>
			
				<line fill="none" stroke="#000000" stroke-width="0" stroke-linecap="round" stroke-linejoin="round" x1="169.506" y1="179.035" x2="168.547" y2="179.035"/>
		</g>
		<g>
			
				<line fill="none" stroke="#000000" stroke-width="0" stroke-linecap="round" stroke-linejoin="round" x1="170.416" y1="179.035" x2="169.506" y2="179.035"/>
		</g>
		<g>
			
				<line fill="none" stroke="#000000" stroke-width="0" stroke-linecap="round" stroke-linejoin="round" x1="171.375" y1="179.035" x2="170.416" y2="179.035"/>
		</g>
		<g>
			
				<line fill="none" stroke="#000000" stroke-width="0" stroke-linecap="round" stroke-linejoin="round" x1="172.333" y1="179.035" x2="171.375" y2="179.035"/>
		</g>
		<g>
			<polygon fill="#4731EF" points="173.292,167.485 172.333,167.485 172.333,179.035 173.292,179.035 173.292,171.835 			"/>
		</g>
		<g>
			<polygon fill="#4731EF" points="174.25,171.835 173.292,171.835 173.292,179.035 174.25,179.035 174.25,176.135 			"/>
		</g>
		<g>
			<rect x="174.25" y="176.135" fill="#4731EF" width="0.959" height="2.9"/>
		</g>
		<g>
			<polygon fill="#4731EF" points="176.167,160.235 176.167,155.935 175.209,155.935 175.209,176.135 175.209,179.035 
				176.12,179.035 176.12,160.235 			"/>
		</g>
		<g>
			<polygon fill="#4731EF" points="177.078,160.235 176.167,160.235 176.12,160.235 176.12,179.035 177.078,179.035 
				177.078,176.135 			"/>
		</g>
		<g>
			<rect x="177.078" y="176.135" fill="#4731EF" width="0.959" height="2.9"/>
		</g>
		<g>
			<rect x="178.037" y="176.135" fill="#4731EF" width="0.959" height="2.9"/>
		</g>
		<g>
			<rect x="178.995" y="176.135" fill="#4731EF" width="0.959" height="2.9"/>
		</g>
		<g>
			
				<line fill="none" stroke="#000000" stroke-width="0" stroke-linecap="round" stroke-linejoin="round" x1="180.912" y1="179.035" x2="179.954" y2="179.035"/>
		</g>
		<g>
			<polygon fill="#4731EF" points="180.912,176.135 180.912,179.035 181.823,179.035 181.871,179.035 181.871,176.135 			"/>
		</g>
		<g>
			
				<line fill="none" stroke="#000000" stroke-width="0" stroke-linecap="round" stroke-linejoin="round" x1="181.823" y1="179.035" x2="181.871" y2="179.035"/>
		</g>
		<g>
			
				<line fill="none" stroke="#000000" stroke-width="0" stroke-linecap="round" stroke-linejoin="round" x1="182.781" y1="179.035" x2="181.871" y2="179.035"/>
		</g>
		<g>
			
				<line fill="none" stroke="#000000" stroke-width="0" stroke-linecap="round" stroke-linejoin="round" x1="183.74" y1="179.035" x2="182.781" y2="179.035"/>
		</g>
		<g>
			
				<line fill="none" stroke="#000000" stroke-width="0" stroke-linecap="round" stroke-linejoin="round" x1="184.698" y1="179.035" x2="183.74" y2="179.035"/>
		</g>
		<g>
			<polygon fill="#4731EF" points="185.657,155.935 184.698,155.935 184.698,179.035 185.657,179.035 185.657,170.385 			"/>
		</g>
		<g>
			<rect x="185.657" y="170.385" fill="#4731EF" width="0.959" height="8.65"/>
		</g>
		<g>
			
				<line fill="none" stroke="#000000" stroke-width="0" stroke-linecap="round" stroke-linejoin="round" x1="187.574" y1="179.035" x2="186.615" y2="179.035"/>
		</g>
		<g>
			<rect x="187.574" y="177.585" fill="#4731EF" width="0.911" height="1.45"/>
		</g>
		<g>
			<polygon fill="#4731EF" points="188.484,176.135 188.484,177.585 188.484,179.035 189.443,179.035 189.443,176.135 			"/>
		</g>
		<g>
			<rect x="189.443" y="176.135" fill="#4731EF" width="0.959" height="2.9"/>
		</g>
		<g>
			<polygon fill="#4731EF" points="190.401,171.835 190.401,176.135 190.401,179.035 191.36,179.035 191.36,171.835 			"/>
		</g>
		<g>
			
				<line fill="none" stroke="#000000" stroke-width="0" stroke-linecap="round" stroke-linejoin="round" x1="192.318" y1="179.035" x2="191.36" y2="179.035"/>
		</g>
		<g>
			<rect x="192.318" y="177.585" fill="#4731EF" width="0.959" height="1.45"/>
		</g>
		<g>
			<polygon fill="#4731EF" points="193.277,167.485 193.277,177.585 193.277,179.035 194.187,179.035 194.235,179.035 
				194.235,167.485 			"/>
		</g>
		<g>
			
				<line fill="none" stroke="#000000" stroke-width="0" stroke-linecap="round" stroke-linejoin="round" x1="195.146" y1="179.035" x2="194.235" y2="179.035"/>
		</g>
		<g>
			
				<line fill="none" stroke="#000000" stroke-width="0" stroke-linecap="round" stroke-linejoin="round" x1="194.187" y1="179.035" x2="194.235" y2="179.035"/>
		</g>
		<g>
			<rect x="195.146" y="176.135" fill="#4731EF" width="0.959" height="2.9"/>
		</g>
		<g>
			
				<line fill="none" stroke="#000000" stroke-width="0" stroke-linecap="round" stroke-linejoin="round" x1="197.063" y1="179.035" x2="196.104" y2="179.035"/>
		</g>
		<g>
			
				<line fill="none" stroke="#000000" stroke-width="0" stroke-linecap="round" stroke-linejoin="round" x1="198.021" y1="179.035" x2="197.063" y2="179.035"/>
		</g>
		<g>
			<rect x="198.021" y="163.135" fill="#4731EF" width="0.959" height="15.9"/>
		</g>
		<g>
			
				<line fill="none" stroke="#000000" stroke-width="0" stroke-linecap="round" stroke-linejoin="round" x1="199.89" y1="179.035" x2="198.98" y2="179.035"/>
		</g>
		<g>
			
				<line fill="none" stroke="#000000" stroke-width="0" stroke-linecap="round" stroke-linejoin="round" x1="200.849" y1="179.035" x2="199.89" y2="179.035"/>
		</g>
		<g>
			
				<line fill="none" stroke="#000000" stroke-width="0" stroke-linecap="round" stroke-linejoin="round" x1="201.807" y1="179.035" x2="200.849" y2="179.035"/>
		</g>
		<g>
			<rect x="201.807" y="177.585" fill="#4731EF" width="0.959" height="1.45"/>
		</g>
		<g>
			<polygon fill="#4731EF" points="202.766,164.585 202.766,177.585 202.766,179.035 203.724,179.035 203.724,164.585 			"/>
		</g>
		<g>
			
				<line fill="none" stroke="#000000" stroke-width="0" stroke-linecap="round" stroke-linejoin="round" x1="204.683" y1="179.035" x2="203.724" y2="179.035"/>
		</g>
		<g>
			
				<line fill="none" stroke="#000000" stroke-width="0" stroke-linecap="round" stroke-linejoin="round" x1="205.593" y1="179.035" x2="204.683" y2="179.035"/>
		</g>
		<g>
			
				<line fill="none" stroke="#000000" stroke-width="0" stroke-linecap="round" stroke-linejoin="round" x1="206.552" y1="179.035" x2="205.593" y2="179.035"/>
		</g>
		<g>
			
				<line fill="none" stroke="#000000" stroke-width="0" stroke-linecap="round" stroke-linejoin="round" x1="207.51" y1="179.035" x2="206.552" y2="179.035"/>
		</g>
		<g>
			
				<line fill="none" stroke="#000000" stroke-width="0" stroke-linecap="round" stroke-linejoin="round" x1="208.469" y1="179.035" x2="207.51" y2="179.035"/>
		</g>
		<g>
			<rect x="208.469" y="174.685" fill="#4731EF" width="0.959" height="4.35"/>
		</g>
		<g>
			
				<line fill="none" stroke="#000000" stroke-width="0" stroke-linecap="round" stroke-linejoin="round" x1="210.386" y1="179.035" x2="209.427" y2="179.035"/>
		</g>
		<g>
			<polygon fill="#4731EF" points="210.386,167.485 210.386,179.035 211.297,179.035 211.344,179.035 211.344,167.485 			"/>
		</g>
		<g>
			
				<line fill="none" stroke="#000000" stroke-width="0" stroke-linecap="round" stroke-linejoin="round" x1="212.255" y1="179.035" x2="211.344" y2="179.035"/>
		</g>
		<g>
			
				<line fill="none" stroke="#000000" stroke-width="0" stroke-linecap="round" stroke-linejoin="round" x1="211.297" y1="179.035" x2="211.344" y2="179.035"/>
		</g>
		<g>
			<polygon fill="#4731EF" points="213.214,168.935 212.255,168.935 212.255,179.035 213.214,179.035 213.214,173.235 			"/>
		</g>
		<g>
			<rect x="213.214" y="173.235" fill="#4731EF" width="0.959" height="5.8"/>
		</g>
		<g>
			
				<line fill="none" stroke="#000000" stroke-width="0" stroke-linecap="round" stroke-linejoin="round" x1="215.131" y1="179.035" x2="214.172" y2="179.035"/>
		</g>
		<g>
			<rect x="215.131" y="177.585" fill="#4731EF" width="0.959" height="1.45"/>
		</g>
		<g>
			
				<line fill="none" stroke="#000000" stroke-width="0" stroke-linecap="round" stroke-linejoin="round" x1="217.048" y1="179.035" x2="216.089" y2="179.035"/>
		</g>
		<g>
			
				<line fill="none" stroke="#000000" stroke-width="0" stroke-linecap="round" stroke-linejoin="round" x1="217.958" y1="179.035" x2="217.048" y2="179.035"/>
		</g>
		<g>
			
				<line fill="none" stroke="#000000" stroke-width="0" stroke-linecap="round" stroke-linejoin="round" x1="218.917" y1="179.035" x2="217.958" y2="179.035"/>
		</g>
		<g>
			
				<line fill="none" stroke="#000000" stroke-width="0" stroke-linecap="round" stroke-linejoin="round" x1="219.875" y1="179.035" x2="218.917" y2="179.035"/>
		</g>
		<g>
			
				<line fill="none" stroke="#000000" stroke-width="0" stroke-linecap="round" stroke-linejoin="round" x1="220.834" y1="179.035" x2="219.875" y2="179.035"/>
		</g>
		<g>
			<rect x="220.834" y="176.135" fill="#4731EF" width="0.959" height="2.9"/>
		</g>
		<g>
			<polygon fill="#4731EF" points="222.751,151.585 221.792,151.585 221.792,176.135 221.792,179.035 222.751,179.035 
				222.751,163.135 			"/>
		</g>
		<g>
			<polygon fill="#4731EF" points="222.751,163.135 222.751,179.035 223.661,179.035 223.709,179.035 223.709,163.135 			"/>
		</g>
		<g>
			
				<line fill="none" stroke="#000000" stroke-width="0" stroke-linecap="round" stroke-linejoin="round" x1="224.62" y1="179.035" x2="223.709" y2="179.035"/>
		</g>
		<g>
			
				<line fill="none" stroke="#000000" stroke-width="0" stroke-linecap="round" stroke-linejoin="round" x1="223.661" y1="179.035" x2="223.709" y2="179.035"/>
		</g>
		<g>
			<rect x="224.62" y="171.835" fill="#4731EF" width="0.959" height="7.2"/>
		</g>
		<g>
			<polygon fill="#4731EF" points="226.537,167.485 225.578,167.485 225.578,171.835 225.578,179.035 226.537,179.035 
				226.537,176.135 			"/>
		</g>
		<g>
			<rect x="226.537" y="176.135" fill="#4731EF" width="0.959" height="2.9"/>
		</g>
		<g>
			
				<line fill="none" stroke="#000000" stroke-width="0" stroke-linecap="round" stroke-linejoin="round" x1="228.454" y1="179.035" x2="227.495" y2="179.035"/>
		</g>
		<g>
			<polygon fill="#4731EF" points="228.454,174.685 228.454,179.035 229.364,179.035 229.412,179.035 229.412,174.685 			"/>
		</g>
		<g>
			
				<line fill="none" stroke="#000000" stroke-width="0" stroke-linecap="round" stroke-linejoin="round" x1="229.364" y1="179.035" x2="229.412" y2="179.035"/>
		</g>
		<g>
			
				<line fill="none" stroke="#000000" stroke-width="0" stroke-linecap="round" stroke-linejoin="round" x1="230.323" y1="179.035" x2="229.412" y2="179.035"/>
		</g>
		<g>
			
				<line fill="none" stroke="#000000" stroke-width="0" stroke-linecap="round" stroke-linejoin="round" x1="231.281" y1="179.035" x2="230.323" y2="179.035"/>
		</g>
		<g>
			
				<line fill="none" stroke="#000000" stroke-width="0" stroke-linecap="round" stroke-linejoin="round" x1="232.24" y1="179.035" x2="231.281" y2="179.035"/>
		</g>
		<g>
			<rect x="232.24" y="177.585" fill="#4731EF" width="0.959" height="1.45"/>
		</g>
		<g>
			
				<line fill="none" stroke="#000000" stroke-width="0" stroke-linecap="round" stroke-linejoin="round" x1="234.157" y1="179.035" x2="233.198" y2="179.035"/>
		</g>
		<g>
			<polygon fill="#4731EF" points="235.115,177.585 235.115,176.135 234.157,176.135 234.157,179.035 235.067,179.035 
				235.067,177.585 			"/>
		</g>
		<g>
			<polygon fill="#4731EF" points="235.115,177.585 235.067,177.585 235.067,179.035 236.026,179.035 236.026,177.585 			"/>
		</g>
		<g>
			
				<line fill="none" stroke="#000000" stroke-width="0" stroke-linecap="round" stroke-linejoin="round" x1="236.984" y1="179.035" x2="236.026" y2="179.035"/>
		</g>
		<g>
			<rect x="236.984" y="170.385" fill="#4731EF" width="0.959" height="8.65"/>
		</g>
		<g>
			
				<line fill="none" stroke="#000000" stroke-width="0" stroke-linecap="round" stroke-linejoin="round" x1="238.901" y1="179.035" x2="237.943" y2="179.035"/>
		</g>
		<g>
			<rect x="238.901" y="132.835" fill="#4731EF" width="0.959" height="46.2"/>
		</g>
		<g>
			<polygon fill="#4731EF" points="240.818,177.585 240.77,177.585 240.77,179.035 241.729,179.035 241.729,177.585 			"/>
		</g>
		<g>
			<polygon fill="#4731EF" points="241.729,170.385 241.729,177.585 241.729,179.035 242.687,179.035 242.687,170.385 			"/>
		</g>
		<g>
			
				<line fill="none" stroke="#000000" stroke-width="0" stroke-linecap="round" stroke-linejoin="round" x1="243.646" y1="179.035" x2="242.687" y2="179.035"/>
		</g>
		<g>
			
				<line fill="none" stroke="#000000" stroke-width="0" stroke-linecap="round" stroke-linejoin="round" x1="244.604" y1="179.035" x2="243.646" y2="179.035"/>
		</g>
		<g>
			
				<line fill="none" stroke="#000000" stroke-width="0" stroke-linecap="round" stroke-linejoin="round" x1="245.563" y1="179.035" x2="244.604" y2="179.035"/>
		</g>
		<g>
			
				<line fill="none" stroke="#000000" stroke-width="0" stroke-linecap="round" stroke-linejoin="round" x1="246.474" y1="179.035" x2="245.563" y2="179.035"/>
		</g>
		<g>
			
				<line fill="none" stroke="#000000" stroke-width="0" stroke-linecap="round" stroke-linejoin="round" x1="247.432" y1="179.035" x2="246.474" y2="179.035"/>
		</g>
		<g>
			<rect x="247.432" y="177.585" fill="#4731EF" width="0.959" height="1.45"/>
		</g>
		<g>
			<polygon fill="#4731EF" points="248.391,176.135 248.391,177.585 248.391,179.035 249.349,179.035 249.349,176.135 			"/>
		</g>
		<g>
			
				<line fill="none" stroke="#000000" stroke-width="0" stroke-linecap="round" stroke-linejoin="round" x1="250.308" y1="179.035" x2="249.349" y2="179.035"/>
		</g>
		<g>
			
				<line fill="none" stroke="#000000" stroke-width="0" stroke-linecap="round" stroke-linejoin="round" x1="251.266" y1="179.035" x2="250.308" y2="179.035"/>
		</g>
		<g>
			
				<line fill="none" stroke="#000000" stroke-width="0" stroke-linecap="round" stroke-linejoin="round" x1="252.225" y1="179.035" x2="251.266" y2="179.035"/>
		</g>
		<g>
			
				<line fill="none" stroke="#000000" stroke-width="0" stroke-linecap="round" stroke-linejoin="round" x1="253.135" y1="179.035" x2="252.225" y2="179.035"/>
		</g>
		<g>
			
				<line fill="none" stroke="#000000" stroke-width="0" stroke-linecap="round" stroke-linejoin="round" x1="254.094" y1="179.035" x2="253.135" y2="179.035"/>
		</g>
		<g>
			
				<line fill="none" stroke="#000000" stroke-width="0" stroke-linecap="round" stroke-linejoin="round" x1="255.052" y1="179.035" x2="254.094" y2="179.035"/>
		</g>
		<g>
			<polygon fill="#4731EF" points="256.011,168.935 255.052,168.935 255.052,179.035 256.011,179.035 256.011,171.835 			"/>
		</g>
		<g>
			<rect x="256.011" y="171.835" fill="#4731EF" width="0.959" height="7.2"/>
		</g>
		<g>
			
				<line fill="none" stroke="#000000" stroke-width="0" stroke-linecap="round" stroke-linejoin="round" x1="257.928" y1="179.035" x2="256.969" y2="179.035"/>
		</g>
		<g>
			
				<line fill="none" stroke="#000000" stroke-width="0" stroke-linecap="round" stroke-linejoin="round" x1="258.838" y1="179.035" x2="257.928" y2="179.035"/>
		</g>
		<g>
			<rect x="258.838" y="177.585" fill="#4731EF" width="0.959" height="1.45"/>
		</g>
		<g>
			
				<line fill="none" stroke="#000000" stroke-width="0" stroke-linecap="round" stroke-linejoin="round" x1="260.755" y1="179.035" x2="259.797" y2="179.035"/>
		</g>
		<g>
			<rect x="260.755" y="153.035" fill="#4731EF" width="0.959" height="26"/>
		</g>
		<g>
			
				<line fill="none" stroke="#000000" stroke-width="0" stroke-linecap="round" stroke-linejoin="round" x1="262.672" y1="179.035" x2="261.714" y2="179.035"/>
		</g>
		<g>
			<polygon fill="#4731EF" points="263.631,166.035 262.672,166.035 262.672,179.035 263.631,179.035 263.631,177.585 			"/>
		</g>
		<g>
			<polygon fill="#4731EF" points="240.794,118.035 239.836,118.035 239.836,179.035 240.794,179.035 240.794,172.231 			"/>
		</g>
		<g>
			<rect x="263.631" y="177.585" fill="#4731EF" width="0.911" height="1.45"/>
		</g>
		<g>
			<polygon fill="#4731EF" points="264.541,174.685 264.541,177.585 264.541,179.035 265.5,179.035 265.5,174.685 			"/>
		</g>
		<g>
			<polygon fill="#4731EF" points="266.458,171.835 265.5,171.835 265.5,174.685 265.5,179.035 266.458,179.035 266.458,174.685 			
				"/>
		</g>
		<g>
			<rect x="266.458" y="174.685" fill="#4731EF" width="0.959" height="4.35"/>
		</g>
		<g>
			<polygon fill="#4731EF" points="268.375,170.385 267.417,170.385 267.417,174.685 267.417,179.035 268.375,179.035 
				268.375,177.585 			"/>
		</g>
		<g>
			<rect x="268.375" y="177.585" fill="#4731EF" width="0.959" height="1.45"/>
		</g>
		<g>
			
				<line fill="none" stroke="#000000" stroke-width="0" stroke-linecap="round" stroke-linejoin="round" x1="270.244" y1="179.035" x2="269.334" y2="179.035"/>
		</g>
		<g>
			
				<line fill="none" stroke="#000000" stroke-width="0" stroke-linecap="round" stroke-linejoin="round" x1="271.203" y1="179.035" x2="270.244" y2="179.035"/>
		</g>
		<g>
			<rect x="271.203" y="176.135" fill="#4731EF" width="0.959" height="2.9"/>
		</g>
		<g>
			
				<line fill="none" stroke="#000000" stroke-width="0" stroke-linecap="round" stroke-linejoin="round" x1="273.12" y1="179.035" x2="272.161" y2="179.035"/>
		</g>
		<g>
			<polygon fill="#4731EF" points="274.078,170.385 273.12,170.385 273.12,179.035 274.078,179.035 274.078,176.135 			"/>
		</g>
		<g>
			<rect x="274.078" y="176.135" fill="#4731EF" width="0.959" height="2.9"/>
		</g>
		<g>
			
				<line fill="none" stroke="#000000" stroke-width="0" stroke-linecap="round" stroke-linejoin="round" x1="275.947" y1="179.035" x2="275.037" y2="179.035"/>
		</g>
		<g>
			
				<line fill="none" stroke="#000000" stroke-width="0" stroke-linecap="round" stroke-linejoin="round" x1="276.906" y1="179.035" x2="275.947" y2="179.035"/>
		</g>
		<g>
			
				<line fill="none" stroke="#000000" stroke-width="0" stroke-linecap="round" stroke-linejoin="round" x1="277.864" y1="179.035" x2="276.906" y2="179.035"/>
		</g>
		<g>
			
				<line fill="none" stroke="#000000" stroke-width="0" stroke-linecap="round" stroke-linejoin="round" x1="278.823" y1="179.035" x2="277.864" y2="179.035"/>
		</g>
		<g>
			
				<line fill="none" stroke="#000000" stroke-width="0" stroke-linecap="round" stroke-linejoin="round" x1="279.781" y1="179.035" x2="278.823" y2="179.035"/>
		</g>
		<g>
			
				<line fill="none" stroke="#000000" stroke-width="0" stroke-linecap="round" stroke-linejoin="round" x1="280.74" y1="179.035" x2="279.781" y2="179.035"/>
		</g>
		<g>
			<rect x="280.74" y="177.585" fill="#4731EF" width="0.959" height="1.45"/>
		</g>
		<g>
			
				<line fill="none" stroke="#000000" stroke-width="0" stroke-linecap="round" stroke-linejoin="round" x1="282.609" y1="179.035" x2="281.698" y2="179.035"/>
		</g>
		<g>
			
				<line fill="none" stroke="#000000" stroke-width="0" stroke-linecap="round" stroke-linejoin="round" x1="283.568" y1="179.035" x2="282.609" y2="179.035"/>
		</g>
		<g>
			<rect x="283.568" y="177.585" fill="#4731EF" width="0.959" height="1.45"/>
		</g>
		<g>
			
				<line fill="none" stroke="#000000" stroke-width="0" stroke-linecap="round" stroke-linejoin="round" x1="285.485" y1="179.035" x2="284.526" y2="179.035"/>
		</g>
		<g>
			
				<line fill="none" stroke="#000000" stroke-width="0" stroke-linecap="round" stroke-linejoin="round" x1="286.443" y1="179.035" x2="285.485" y2="179.035"/>
		</g>
		<g>
			
				<line fill="none" stroke="#000000" stroke-width="0" stroke-linecap="round" stroke-linejoin="round" x1="287.402" y1="179.035" x2="286.443" y2="179.035"/>
		</g>
		<g>
			
				<line fill="none" stroke="#000000" stroke-width="0" stroke-linecap="round" stroke-linejoin="round" x1="288.312" y1="179.035" x2="287.402" y2="179.035"/>
		</g>
		<g>
			
				<line fill="none" stroke="#000000" stroke-width="0" stroke-linecap="round" stroke-linejoin="round" x1="289.271" y1="179.035" x2="288.312" y2="179.035"/>
		</g>
		<g>
			<rect x="289.271" y="176.135" fill="#4731EF" width="0.959" height="2.9"/>
		</g>
		<g>
			<polygon fill="#4731EF" points="291.188,176.135 290.229,176.135 290.229,179.035 291.188,179.035 291.188,177.585 			"/>
		</g>
		<g>
			<rect x="291.188" y="177.585" fill="#4731EF" width="0.959" height="1.45"/>
		</g>
		<g>
			<rect x="292.146" y="177.585" fill="#4731EF" width="0.959" height="1.45"/>
		</g>
		<g>
			
				<line fill="none" stroke="#000000" stroke-width="0" stroke-linecap="round" stroke-linejoin="round" x1="294.015" y1="179.035" x2="293.105" y2="179.035"/>
		</g>
		<g>
			
				<line fill="none" stroke="#000000" stroke-width="0" stroke-linecap="round" stroke-linejoin="round" x1="294.974" y1="179.035" x2="294.015" y2="179.035"/>
		</g>
		<g>
			
				<line fill="none" stroke="#000000" stroke-width="0" stroke-linecap="round" stroke-linejoin="round" x1="295.932" y1="179.035" x2="294.974" y2="179.035"/>
		</g>
		<g>
			
				<line fill="none" stroke="#000000" stroke-width="0" stroke-linecap="round" stroke-linejoin="round" x1="296.891" y1="179.035" x2="295.932" y2="179.035"/>
		</g>
		<g>
			<rect x="296.891" y="177.585" fill="#4731EF" width="0.959" height="1.45"/>
		</g>
		<g>
			
				<line fill="none" stroke="#000000" stroke-width="0" stroke-linecap="round" stroke-linejoin="round" x1="298.808" y1="179.035" x2="297.849" y2="179.035"/>
		</g>
		<g>
			<rect x="298.808" y="177.585" fill="#4731EF" width="0.911" height="1.45"/>
		</g>
		<g>
			<polygon fill="#4731EF" points="300.677,173.235 299.718,173.235 299.718,177.585 299.718,179.035 300.677,179.035 
				300.677,177.585 			"/>
		</g>
		<g>
			<rect x="300.677" y="177.585" fill="#4731EF" width="0.959" height="1.45"/>
		</g>
		<g>
			<rect x="301.635" y="177.585" fill="#4731EF" width="0.959" height="1.45"/>
		</g>
		<g>
			
				<line fill="none" stroke="#000000" stroke-width="0" stroke-linecap="round" stroke-linejoin="round" x1="303.552" y1="179.035" x2="302.594" y2="179.035"/>
		</g>
		<g>
			
				<line fill="none" stroke="#000000" stroke-width="0" stroke-linecap="round" stroke-linejoin="round" x1="304.511" y1="179.035" x2="303.552" y2="179.035"/>
		</g>
		<g>
			<polygon fill="#4731EF" points="305.469,176.135 305.469,171.835 304.511,171.835 304.511,179.035 305.421,179.035 
				305.421,176.135 			"/>
		</g>
		<g>
			<polygon fill="#4731EF" points="305.469,176.135 305.421,176.135 305.421,179.035 306.38,179.035 306.38,176.135 			"/>
		</g>
		<g>
			<polygon fill="#4731EF" points="307.338,176.135 306.38,176.135 306.38,179.035 307.338,179.035 307.338,177.585 			"/>
		</g>
		<g>
			<rect x="307.338" y="177.585" fill="#4731EF" width="0.959" height="1.45"/>
		</g>
		<g>
			
				<line fill="none" stroke="#000000" stroke-width="0" stroke-linecap="round" stroke-linejoin="round" x1="309.255" y1="179.035" x2="308.297" y2="179.035"/>
		</g>
		<g>
			
				<line fill="none" stroke="#000000" stroke-width="0" stroke-linecap="round" stroke-linejoin="round" x1="310.214" y1="179.035" x2="309.255" y2="179.035"/>
		</g>
		<g>
			<rect x="310.214" y="177.585" fill="#4731EF" width="0.911" height="1.45"/>
		</g>
		<g>
			<polygon fill="#4731EF" points="311.124,176.135 311.124,177.585 311.124,179.035 312.083,179.035 312.083,176.135 			"/>
		</g>
		<g>
			
				<line fill="none" stroke="#000000" stroke-width="0" stroke-linecap="round" stroke-linejoin="round" x1="313.042" y1="179.035" x2="312.083" y2="179.035"/>
		</g>
		<g>
			<rect x="313.042" y="174.685" fill="#4731EF" width="0.959" height="4.35"/>
		</g>
	</g>
	<g id="ERE_3_">
		<g>
			<polygon fill="#EF9B31" points="21.178,182.285 21.178,180.685 21.178,179.035 20.219,179.035 20.219,182.285 			"/>
			<rect x="21.178" y="179.035" fill="#EF9B31" width="0.911" height="1.65"/>
			<polygon fill="#EF9B31" points="22.088,185.535 23.047,185.535 23.047,179.035 22.088,179.035 22.088,180.685 			"/>
			<polygon fill="#EF9B31" points="23.047,188.785 23.957,188.785 23.957,179.035 23.047,179.035 23.047,185.535 			"/>
			<polygon fill="#EF9B31" points="23.957,193.685 24.916,193.685 24.916,190.435 24.916,179.035 23.957,179.035 23.957,188.785 			
				"/>
			<polygon fill="#EF9B31" points="25.874,190.435 25.874,185.535 25.874,179.035 24.916,179.035 24.916,190.435 			"/>
			<polygon fill="#EF9B31" points="26.833,185.535 26.833,182.285 26.785,182.285 26.785,179.035 25.874,179.035 25.874,185.535 			
				"/>
			<polygon fill="#EF9B31" points="26.833,182.285 27.743,182.285 27.743,179.035 26.785,179.035 26.785,182.285 			"/>
			<polygon fill="#EF9B31" points="27.743,192.035 28.702,192.035 28.702,187.185 28.654,187.185 28.654,179.035 27.743,179.035 
				27.743,182.285 			"/>
			<polygon fill="#EF9B31" points="28.702,187.185 29.613,187.185 29.613,179.035 28.654,179.035 28.654,187.185 			"/>
			<polygon fill="#EF9B31" points="29.613,190.435 30.571,190.435 30.571,182.285 30.523,182.285 30.523,179.035 29.613,179.035 
				29.613,187.185 			"/>
			<polygon fill="#EF9B31" points="30.571,182.285 31.482,182.285 31.482,179.035 30.523,179.035 30.523,182.285 			"/>
			<polygon fill="#EF9B31" points="31.482,188.785 32.44,188.785 32.44,179.035 31.482,179.035 31.482,182.285 			"/>
			<polygon fill="#EF9B31" points="32.44,201.785 33.399,201.785 33.399,182.285 33.351,182.285 33.351,179.035 32.44,179.035 
				32.44,188.785 			"/>
			<polygon fill="#EF9B31" points="33.399,182.285 34.309,182.285 34.309,179.035 33.351,179.035 33.351,182.285 			"/>
			<polygon fill="#EF9B31" points="34.309,193.685 35.22,193.685 35.22,179.035 34.309,179.035 34.309,182.285 			"/>
			<polygon fill="#EF9B31" points="35.268,193.685 36.178,193.685 36.178,179.035 35.22,179.035 35.22,193.685 			"/>
			<rect x="36.178" y="179.035" fill="#EF9B31" width="0.959" height="14.65"/>
			<polygon fill="#EF9B31" points="37.137,198.535 38.095,198.535 38.095,195.285 38.047,195.285 38.047,179.035 37.137,179.035 
				37.137,193.685 			"/>
			<polygon fill="#EF9B31" points="38.095,195.285 39.006,195.285 39.006,180.685 39.006,179.035 38.047,179.035 38.047,195.285 			
				"/>
			<rect x="39.006" y="179.035" fill="#EF9B31" width="0.911" height="1.65"/>
			<polygon fill="#EF9B31" points="39.916,188.785 40.875,188.785 40.875,185.535 40.875,179.035 39.916,179.035 39.916,180.685 			
				"/>
			<polygon fill="#EF9B31" points="41.833,185.535 41.833,180.685 41.786,180.685 41.786,179.035 40.875,179.035 40.875,185.535 			
				"/>
			<polygon fill="#EF9B31" points="41.833,180.685 42.744,180.685 42.744,179.035 41.786,179.035 41.786,180.685 			"/>
			<polygon fill="#EF9B31" points="42.744,192.035 43.703,192.035 43.703,185.535 43.703,179.035 42.744,179.035 42.744,180.685 			
				"/>
			<polygon fill="#EF9B31" points="44.661,185.535 44.661,179.035 44.613,179.035 43.703,179.035 43.703,185.535 			"/>
			<polygon fill="#EF9B31" points="46.53,193.685 46.53,182.285 46.482,182.285 46.482,179.035 45.572,179.035 45.572,193.685 			
				"/>
			<polygon fill="#EF9B31" points="46.53,182.285 47.441,182.285 47.441,179.035 46.482,179.035 46.482,182.285 			"/>
			<polygon fill="#EF9B31" points="47.441,188.785 48.399,188.785 48.399,180.685 48.399,179.035 47.441,179.035 47.441,182.285 			
				"/>
			<rect x="48.399" y="179.035" fill="#EF9B31" width="0.911" height="1.65"/>
			<polygon fill="#EF9B31" points="49.31,205.035 50.268,205.035 50.268,193.685 50.268,179.035 49.31,179.035 49.31,180.685 			"/>
			<polygon fill="#EF9B31" points="51.227,193.685 51.227,179.035 51.179,179.035 50.268,179.035 50.268,193.685 			"/>
			<polygon fill="#EF9B31" points="53.096,185.535 53.096,183.935 53.048,183.935 53.048,179.035 52.137,179.035 52.137,185.535 			
				"/>
			<polygon fill="#EF9B31" points="53.096,183.935 54.006,183.935 54.006,182.285 54.006,179.035 53.048,179.035 53.048,183.935 			
				"/>
			<rect x="54.006" y="179.035" fill="#EF9B31" width="0.959" height="3.25"/>
			<polygon fill="#EF9B31" points="54.965,183.935 55.923,183.935 55.923,182.285 55.876,182.285 55.876,179.035 54.965,179.035 
				54.965,182.285 			"/>
			<polygon fill="#EF9B31" points="55.923,182.285 56.834,182.285 56.834,179.035 55.876,179.035 55.876,182.285 			"/>
			<polygon fill="#EF9B31" points="56.834,183.935 57.793,183.935 57.793,179.035 57.745,179.035 56.834,179.035 56.834,182.285 			
				"/>
			<rect x="58.703" y="179.035" fill="#EF9B31" width="0.959" height="6.5"/>
			<polygon fill="#EF9B31" points="59.662,190.435 60.572,190.435 60.572,179.035 59.662,179.035 59.662,185.535 			"/>
			<polygon fill="#EF9B31" points="60.572,196.935 61.531,196.935 61.531,179.035 60.572,179.035 60.572,190.435 			"/>
			<polygon fill="#EF9B31" points="61.531,201.785 62.489,201.785 62.489,185.535 62.441,185.535 62.441,179.035 61.531,179.035 
				61.531,196.935 			"/>
			<polygon fill="#EF9B31" points="62.489,185.535 63.4,185.535 63.4,179.035 62.441,179.035 62.441,185.535 			"/>
			<polygon fill="#EF9B31" points="63.4,188.785 64.358,188.785 64.358,180.685 64.31,180.685 64.31,179.035 63.4,179.035 
				63.4,185.535 			"/>
			<polygon fill="#EF9B31" points="64.358,180.685 65.269,180.685 65.269,179.035 64.31,179.035 64.31,180.685 			"/>
			<rect x="66.227" y="179.035" fill="#EF9B31" width="0.911" height="1.65"/>
			<polygon fill="#EF9B31" points="67.138,187.185 68.096,187.185 68.096,179.035 67.138,179.035 67.138,180.685 			"/>
			<polygon fill="#EF9B31" points="71.882,196.935 71.882,179.035 71.835,179.035 70.924,179.035 70.924,196.935 			"/>
			<rect x="72.793" y="179.035" fill="#EF9B31" width="0.911" height="1.65"/>
			<polygon fill="#EF9B31" points="73.704,201.785 74.662,201.785 74.662,188.785 74.662,179.035 73.704,179.035 73.704,180.685 			
				"/>
			<rect x="74.662" y="179.035" fill="#EF9B31" width="0.911" height="9.75"/>
			<polygon fill="#EF9B31" points="75.621,188.785 76.531,188.785 76.531,180.685 76.531,179.035 75.573,179.035 75.573,188.785 			
				"/>
			<rect x="76.531" y="179.035" fill="#EF9B31" width="0.959" height="1.65"/>
			<polygon fill="#EF9B31" points="77.49,182.285 78.448,182.285 78.448,179.035 78.4,179.035 77.49,179.035 77.49,180.685 			"/>
			<rect x="79.359" y="179.035" fill="#EF9B31" width="0.911" height="1.65"/>
			<polygon fill="#EF9B31" points="80.317,180.685 81.228,180.685 81.228,179.035 80.269,179.035 80.269,180.685 			"/>
			<polygon fill="#EF9B31" points="81.228,206.685 82.186,206.685 82.186,198.535 82.186,179.035 81.228,179.035 81.228,180.685 			
				"/>
			<polygon fill="#EF9B31" points="83.145,198.535 83.145,195.285 83.097,195.285 83.097,179.035 82.186,179.035 82.186,198.535 			
				"/>
			<polygon fill="#EF9B31" points="83.145,195.285 84.055,195.285 84.055,179.035 83.097,179.035 83.097,195.285 			"/>
			<polygon fill="#EF9B31" points="84.055,200.185 85.014,200.185 85.014,179.035 84.966,179.035 84.055,179.035 84.055,195.285 			
				"/>
			<polygon fill="#EF9B31" points="86.883,185.535 86.883,180.685 86.883,179.035 85.925,179.035 85.925,185.535 			"/>
			<polygon fill="#EF9B31" points="87.842,180.685 87.842,179.035 87.794,179.035 86.883,179.035 86.883,180.685 			"/>
			<rect x="88.752" y="179.035" fill="#EF9B31" width="0.911" height="1.65"/>
			<polygon fill="#EF9B31" points="89.711,180.685 90.621,180.685 90.621,179.035 89.663,179.035 89.663,180.685 			"/>
			<polygon fill="#EF9B31" points="90.621,190.435 91.532,190.435 91.532,179.035 90.621,179.035 90.621,180.685 			"/>
			<polygon fill="#EF9B31" points="91.532,208.285 92.49,208.285 92.49,187.185 92.49,179.035 91.532,179.035 91.532,190.435 			"/>
			<polygon fill="#EF9B31" points="93.449,187.185 93.449,182.285 93.449,179.035 92.49,179.035 92.49,187.185 			"/>
			<polygon fill="#EF9B31" points="94.407,182.285 94.407,179.035 94.359,179.035 93.449,179.035 93.449,182.285 			"/>
			<rect x="96.228" y="179.035" fill="#EF9B31" width="0.959" height="4.9"/>
			<rect x="102.794" y="179.035" fill="#EF9B31" width="0.959" height="4.9"/>
			<polygon fill="#EF9B31" points="103.753,185.535 104.711,185.535 104.711,179.035 103.753,179.035 103.753,183.935 			"/>
			<polygon fill="#EF9B31" points="107.539,187.185 107.539,180.685 107.491,180.685 107.491,179.035 106.58,179.035 
				106.58,187.185 			"/>
			<polygon fill="#EF9B31" points="107.539,180.685 108.449,180.685 108.449,179.035 107.491,179.035 107.491,180.685 			"/>
			<rect x="110.318" y="179.035" fill="#EF9B31" width="0.959" height="1.65"/>
			<polygon fill="#EF9B31" points="111.277,185.535 112.235,185.535 112.235,179.035 112.187,179.035 111.277,179.035 
				111.277,180.685 			"/>
			<polygon fill="#EF9B31" points="115.015,182.285 115.015,180.685 115.015,179.035 114.057,179.035 114.057,182.285 			"/>
			<rect x="115.015" y="179.035" fill="#EF9B31" width="0.959" height="1.65"/>
			<rect x="118.753" y="179.035" fill="#EF9B31" width="0.959" height="1.65"/>
			<rect x="119.712" y="179.035" fill="#EF9B31" width="0.959" height="1.65"/>
			<polygon fill="#EF9B31" points="120.67,182.285 121.581,182.285 121.581,179.035 120.67,179.035 120.67,180.685 			"/>
			<polygon fill="#EF9B31" points="121.581,188.785 122.539,188.785 122.539,182.285 122.539,179.035 121.581,179.035 
				121.581,182.285 			"/>
			<rect x="122.539" y="179.035" fill="#EF9B31" width="0.911" height="3.25"/>
			<polygon fill="#EF9B31" points="123.45,185.535 124.408,185.535 124.408,179.035 123.45,179.035 123.45,182.285 			"/>
			<rect x="126.277" y="179.035" fill="#EF9B31" width="0.959" height="13"/>
			<polygon fill="#EF9B31" points="127.236,200.185 128.194,200.185 128.194,179.035 128.147,179.035 127.236,179.035 
				127.236,192.035 			"/>
			<polygon fill="#EF9B31" points="130.064,192.035 130.064,179.035 130.016,179.035 129.105,179.035 129.105,192.035 			"/>
			<rect x="130.974" y="179.035" fill="#EF9B31" width="0.959" height="1.65"/>
			<polygon fill="#EF9B31" points="131.933,183.935 132.843,183.935 132.843,179.035 131.933,179.035 131.933,180.685 			"/>
			<polygon fill="#EF9B31" points="132.891,183.935 133.802,183.935 133.802,179.035 132.843,179.035 132.843,183.935 			"/>
			<polygon fill="#EF9B31" points="136.629,182.285 136.629,179.035 136.581,179.035 135.671,179.035 135.671,182.285 			"/>
			<polygon fill="#EF9B31" points="138.498,196.935 138.498,183.935 138.498,179.035 137.54,179.035 137.54,196.935 			"/>
			<polygon fill="#EF9B31" points="139.457,183.935 139.457,179.035 139.409,179.035 138.498,179.035 138.498,183.935 			"/>
			<polygon fill="#EF9B31" points="144.154,180.685 144.154,179.035 144.106,179.035 143.195,179.035 143.195,180.685 			"/>
			<rect x="146.933" y="179.035" fill="#EF9B31" width="0.959" height="3.25"/>
			<rect x="150.671" y="179.035" fill="#EF9B31" width="0.959" height="4.9"/>
			<polygon fill="#EF9B31" points="151.63,195.285 152.588,195.285 152.588,180.685 152.54,180.685 152.54,179.035 151.63,179.035 
				151.63,183.935 			"/>
			<polygon fill="#EF9B31" points="152.588,180.685 153.499,180.685 153.499,179.035 152.54,179.035 152.54,180.685 			"/>
			<polygon fill="#EF9B31" points="156.326,188.785 156.326,180.685 156.326,179.035 155.368,179.035 155.368,188.785 			"/>
			<polygon fill="#EF9B31" points="157.285,180.685 157.285,179.035 157.237,179.035 156.326,179.035 156.326,180.685 			"/>
			<rect x="158.196" y="179.035" fill="#EF9B31" width="0.959" height="9.75"/>
			<rect x="160.065" y="179.035" fill="#EF9B31" width="0.959" height="1.65"/>
			<rect x="164.761" y="179.035" fill="#EF9B31" width="0.959" height="1.65"/>
			<rect x="171.327" y="179.035" fill="#EF9B31" width="0.959" height="1.65"/>
			<polygon fill="#EF9B31" points="172.286,182.285 173.196,182.285 173.196,179.035 172.286,179.035 172.286,180.685 			"/>
			<polygon fill="#EF9B31" points="173.196,185.535 174.155,185.535 174.155,179.035 173.196,179.035 173.196,182.285 			"/>
			<rect x="176.024" y="179.035" fill="#EF9B31" width="0.959" height="4.9"/>
			<rect x="177.893" y="179.035" fill="#EF9B31" width="0.959" height="1.65"/>
			<rect x="179.762" y="179.035" fill="#EF9B31" width="0.959" height="1.65"/>
			<rect x="180.72" y="179.035" fill="#EF9B31" width="0.959" height="1.65"/>
			<polygon fill="#EF9B31" points="181.679,185.535 182.637,185.535 182.637,180.685 182.589,180.685 182.589,179.035 
				181.679,179.035 181.679,180.685 			"/>
			<polygon fill="#EF9B31" points="182.637,180.685 183.548,180.685 183.548,179.035 182.589,179.035 182.589,180.685 			"/>
			<polygon fill="#EF9B31" points="183.548,187.185 184.506,187.185 184.506,179.035 184.459,179.035 183.548,179.035 
				183.548,180.685 			"/>
			<rect x="188.245" y="179.035" fill="#EF9B31" width="0.911" height="4.9"/>
			<polygon fill="#EF9B31" points="189.203,183.935 190.114,183.935 190.114,180.685 190.114,179.035 189.155,179.035 
				189.155,183.935 			"/>
			<polygon fill="#EF9B31" points="191.072,180.685 191.072,179.035 191.024,179.035 190.114,179.035 190.114,180.685 			"/>
			<rect x="206.983" y="179.035" fill="#EF9B31" width="0.959" height="3.25"/>
			<polygon fill="#EF9B31" points="213.597,203.435 213.597,179.035 213.549,179.035 212.638,179.035 212.638,203.435 			"/>
			<polygon fill="#EF9B31" points="217.335,188.785 217.335,182.285 217.335,179.035 216.377,179.035 216.377,188.785 			"/>
			<polygon fill="#EF9B31" points="218.294,182.285 218.294,179.035 218.246,179.035 217.335,179.035 217.335,182.285 			"/>
			<rect x="220.163" y="179.035" fill="#EF9B31" width="0.911" height="3.25"/>
			<polygon fill="#EF9B31" points="221.073,195.285 222.032,195.285 222.032,182.285 222.032,179.035 221.073,179.035 
				221.073,182.285 			"/>
			<rect x="222.032" y="179.035" fill="#EF9B31" width="0.911" height="3.25"/>
			<polygon fill="#EF9B31" points="222.942,185.535 223.901,185.535 223.901,179.035 222.942,179.035 222.942,182.285 			"/>
			<polygon fill="#EF9B31" points="223.901,190.435 224.859,190.435 224.859,179.035 224.811,179.035 223.901,179.035 
				223.901,185.535 			"/>
			<polygon fill="#EF9B31" points="226.728,187.185 226.728,182.285 226.728,179.035 225.77,179.035 225.77,187.185 			"/>
			<rect x="226.728" y="179.035" fill="#EF9B31" width="0.911" height="3.25"/>
			<polygon fill="#EF9B31" points="227.639,188.785 228.597,188.785 228.597,179.035 227.639,179.035 227.639,182.285 			"/>
			<polygon fill="#EF9B31" points="228.597,200.185 229.556,200.185 229.556,192.035 229.508,192.035 229.508,179.035 
				228.597,179.035 228.597,188.785 			"/>
			<polygon fill="#EF9B31" points="229.556,192.035 230.467,192.035 230.467,183.935 230.467,179.035 229.508,179.035 
				229.508,192.035 			"/>
			<rect x="230.467" y="179.035" fill="#EF9B31" width="0.959" height="4.9"/>
			<rect x="231.425" y="179.035" fill="#EF9B31" width="0.911" height="4.9"/>
			<polygon fill="#EF9B31" points="232.336,185.535 233.294,185.535 233.294,182.285 233.294,179.035 232.336,179.035 
				232.336,183.935 			"/>
			<rect x="233.294" y="179.035" fill="#EF9B31" width="0.911" height="3.25"/>
			<polygon fill="#EF9B31" points="234.205,188.785 235.163,188.785 235.163,179.035 234.205,179.035 234.205,182.285 			"/>
			<polygon fill="#EF9B31" points="235.163,198.535 236.122,198.535 236.122,185.535 236.074,185.535 236.074,179.035 
				235.163,179.035 235.163,188.785 			"/>
			<polygon fill="#EF9B31" points="236.122,185.535 237.032,185.535 237.032,179.035 236.074,179.035 236.074,185.535 			"/>
			<rect x="237.032" y="179.035" fill="#EF9B31" width="0.959" height="6.5"/>
			<rect x="240.77" y="179.035" fill="#EF9B31" width="0.959" height="1.65"/>
			<polygon fill="#EF9B31" points="241.729,183.935 242.687,183.935 242.687,179.035 241.729,179.035 241.729,180.685 			"/>
			<rect x="247.336" y="179.035" fill="#EF9B31" width="0.959" height="4.9"/>
			<polygon fill="#EF9B31" points="248.295,193.685 249.253,193.685 249.253,179.035 248.295,179.035 248.295,183.935 			"/>
			<rect x="250.164" y="179.035" fill="#EF9B31" width="0.959" height="3.25"/>
			<rect x="252.991" y="179.035" fill="#EF9B31" width="0.959" height="3.25"/>
			<polygon fill="#EF9B31" points="254.908,182.285 254.908,179.035 254.86,179.035 253.95,179.035 253.95,182.285 			"/>
			<polygon fill="#EF9B31" points="256.777,196.935 256.777,192.035 256.73,192.035 256.73,179.035 255.819,179.035 
				255.819,196.935 			"/>
			<polygon fill="#EF9B31" points="256.777,192.035 257.688,192.035 257.688,183.935 257.688,179.035 256.73,179.035 
				256.73,192.035 			"/>
			<polygon fill="#EF9B31" points="258.647,183.935 258.647,180.685 258.647,179.035 257.688,179.035 257.688,183.935 			"/>
			<rect x="258.647" y="179.035" fill="#EF9B31" width="0.911" height="1.65"/>
			<polygon fill="#EF9B31" points="259.557,183.935 260.516,183.935 260.516,179.035 259.557,179.035 259.557,180.685 			"/>
			<rect x="261.426" y="179.035" fill="#EF9B31" width="0.959" height="6.5"/>
			<polygon fill="#EF9B31" points="263.343,185.535 263.343,179.035 263.295,179.035 262.385,179.035 262.385,185.535 			"/>
			<rect x="264.254" y="179.035" fill="#EF9B31" width="0.959" height="1.65"/>
			<polygon fill="#EF9B31" points="270.867,180.685 270.867,179.035 270.82,179.035 269.909,179.035 269.909,180.685 			"/>
			<polygon fill="#EF9B31" points="274.606,180.685 274.606,179.035 274.558,179.035 273.647,179.035 273.647,180.685 			"/>
			<rect x="288.648" y="179.035" fill="#EF9B31" width="0.959" height="1.65"/>
			<rect x="291.475" y="179.035" fill="#EF9B31" width="0.959" height="1.65"/>
			<rect x="298.041" y="179.035" fill="#EF9B31" width="0.959" height="8.15"/>
			<rect x="299.91" y="179.035" fill="#EF9B31" width="0.959" height="1.65"/>
			<rect x="302.738" y="179.035" fill="#EF9B31" width="0.959" height="3.25"/>
			<rect x="306.476" y="179.035" fill="#EF9B31" width="0.959" height="1.65"/>
			<polygon fill="#EF9B31" points="307.434,244.035 308.393,244.035 308.393,196.935 308.345,196.935 308.345,179.035 
				307.434,179.035 307.434,180.685 			"/>
			<polygon fill="#EF9B31" points="308.393,196.935 309.303,196.935 309.303,183.935 309.303,179.035 308.345,179.035 
				308.345,196.935 			"/>
			<rect x="309.303" y="179.035" fill="#EF9B31" width="0.959" height="4.9"/>
			<polygon fill="#EF9B31" points="310.262,188.785 311.22,188.785 311.22,179.035 311.172,179.035 310.262,179.035 
				310.262,183.935 			"/>
			<rect x="312.131" y="179.035" fill="#EF9B31" width="0.911" height="1.65"/>
			<polygon fill="#EF9B31" points="313.089,180.685 314,180.685 314,179.035 313.042,179.035 313.042,180.685 			"/>
		</g>
		<g>
			<polygon fill="#EF9B31" points="21.178,182.285 21.178,180.685 21.178,179.035 20.219,179.035 20.219,182.285 			"/>
			<rect x="21.178" y="179.035" fill="#EF9B31" width="0.911" height="1.65"/>
			<polygon fill="#EF9B31" points="22.088,185.535 23.047,185.535 23.047,179.035 22.088,179.035 22.088,180.685 			"/>
			<polygon fill="#EF9B31" points="23.047,188.785 23.957,188.785 23.957,179.035 23.047,179.035 23.047,185.535 			"/>
			<polygon fill="#EF9B31" points="23.957,193.685 24.916,193.685 24.916,190.435 24.916,179.035 23.957,179.035 23.957,188.785 			
				"/>
			<polygon fill="#EF9B31" points="25.874,190.435 25.874,185.535 25.874,179.035 24.916,179.035 24.916,190.435 			"/>
			<polygon fill="#EF9B31" points="26.833,185.535 26.833,182.285 26.785,182.285 26.785,179.035 25.874,179.035 25.874,185.535 			
				"/>
			<polygon fill="#EF9B31" points="26.833,182.285 27.743,182.285 27.743,179.035 26.785,179.035 26.785,182.285 			"/>
			<polygon fill="#EF9B31" points="27.743,192.035 28.702,192.035 28.702,187.185 28.654,187.185 28.654,179.035 27.743,179.035 
				27.743,182.285 			"/>
			<polygon fill="#EF9B31" points="28.702,187.185 29.613,187.185 29.613,179.035 28.654,179.035 28.654,187.185 			"/>
			<polygon fill="#EF9B31" points="29.613,190.435 30.571,190.435 30.571,182.285 30.523,182.285 30.523,179.035 29.613,179.035 
				29.613,187.185 			"/>
			<polygon fill="#EF9B31" points="30.571,182.285 31.482,182.285 31.482,179.035 30.523,179.035 30.523,182.285 			"/>
			<polygon fill="#EF9B31" points="31.482,188.785 32.44,188.785 32.44,179.035 31.482,179.035 31.482,182.285 			"/>
			<polygon fill="#EF9B31" points="32.44,201.785 33.399,201.785 33.399,182.285 33.351,182.285 33.351,179.035 32.44,179.035 
				32.44,188.785 			"/>
			<polygon fill="#EF9B31" points="33.399,182.285 34.309,182.285 34.309,179.035 33.351,179.035 33.351,182.285 			"/>
			<polygon fill="#EF9B31" points="34.309,193.685 35.22,193.685 35.22,179.035 34.309,179.035 34.309,182.285 			"/>
			<polygon fill="#EF9B31" points="35.268,193.685 36.178,193.685 36.178,179.035 35.22,179.035 35.22,193.685 			"/>
			<rect x="36.178" y="179.035" fill="#EF9B31" width="0.959" height="14.65"/>
			<polygon fill="#EF9B31" points="37.137,198.535 38.095,198.535 38.095,195.285 38.047,195.285 38.047,179.035 37.137,179.035 
				37.137,193.685 			"/>
			<polygon fill="#EF9B31" points="38.095,195.285 39.006,195.285 39.006,180.685 39.006,179.035 38.047,179.035 38.047,195.285 			
				"/>
			<rect x="39.006" y="179.035" fill="#EF9B31" width="0.911" height="1.65"/>
			<polygon fill="#EF9B31" points="39.916,188.785 40.875,188.785 40.875,185.535 40.875,179.035 39.916,179.035 39.916,180.685 			
				"/>
			<polygon fill="#EF9B31" points="41.833,185.535 41.833,180.685 41.786,180.685 41.786,179.035 40.875,179.035 40.875,185.535 			
				"/>
			<polygon fill="#EF9B31" points="41.833,180.685 42.744,180.685 42.744,179.035 41.786,179.035 41.786,180.685 			"/>
			<polygon fill="#EF9B31" points="42.744,192.035 43.703,192.035 43.703,185.535 43.703,179.035 42.744,179.035 42.744,180.685 			
				"/>
			<polygon fill="#EF9B31" points="44.661,185.535 44.661,179.035 44.613,179.035 43.703,179.035 43.703,185.535 			"/>
			<polygon fill="#EF9B31" points="46.53,193.685 46.53,182.285 46.482,182.285 46.482,179.035 45.572,179.035 45.572,193.685 			
				"/>
			<polygon fill="#EF9B31" points="46.53,182.285 47.441,182.285 47.441,179.035 46.482,179.035 46.482,182.285 			"/>
			<polygon fill="#EF9B31" points="47.441,188.785 48.399,188.785 48.399,180.685 48.399,179.035 47.441,179.035 47.441,182.285 			
				"/>
			<rect x="48.399" y="179.035" fill="#EF9B31" width="0.911" height="1.65"/>
			<polygon fill="#EF9B31" points="49.31,205.035 50.268,205.035 50.268,193.685 50.268,179.035 49.31,179.035 49.31,180.685 			"/>
			<polygon fill="#EF9B31" points="51.227,193.685 51.227,179.035 51.179,179.035 50.268,179.035 50.268,193.685 			"/>
			<polygon fill="#EF9B31" points="53.096,185.535 53.096,183.935 53.048,183.935 53.048,179.035 52.137,179.035 52.137,185.535 			
				"/>
			<polygon fill="#EF9B31" points="53.096,183.935 54.006,183.935 54.006,182.285 54.006,179.035 53.048,179.035 53.048,183.935 			
				"/>
			<rect x="54.006" y="179.035" fill="#EF9B31" width="0.959" height="3.25"/>
			<polygon fill="#EF9B31" points="54.965,183.935 55.923,183.935 55.923,182.285 55.876,182.285 55.876,179.035 54.965,179.035 
				54.965,182.285 			"/>
			<polygon fill="#EF9B31" points="55.923,182.285 56.834,182.285 56.834,179.035 55.876,179.035 55.876,182.285 			"/>
			<polygon fill="#EF9B31" points="56.834,183.935 57.793,183.935 57.793,179.035 57.745,179.035 56.834,179.035 56.834,182.285 			
				"/>
			<rect x="58.703" y="179.035" fill="#EF9B31" width="0.959" height="6.5"/>
			<polygon fill="#EF9B31" points="59.662,190.435 60.572,190.435 60.572,179.035 59.662,179.035 59.662,185.535 			"/>
			<polygon fill="#EF9B31" points="60.572,196.935 61.531,196.935 61.531,179.035 60.572,179.035 60.572,190.435 			"/>
			<polygon fill="#EF9B31" points="61.531,201.785 62.489,201.785 62.489,185.535 62.441,185.535 62.441,179.035 61.531,179.035 
				61.531,196.935 			"/>
			<polygon fill="#EF9B31" points="62.489,185.535 63.4,185.535 63.4,179.035 62.441,179.035 62.441,185.535 			"/>
			<polygon fill="#EF9B31" points="63.4,188.785 64.358,188.785 64.358,180.685 64.31,180.685 64.31,179.035 63.4,179.035 
				63.4,185.535 			"/>
			<polygon fill="#EF9B31" points="64.358,180.685 65.269,180.685 65.269,179.035 64.31,179.035 64.31,180.685 			"/>
			<rect x="66.227" y="179.035" fill="#EF9B31" width="0.911" height="1.65"/>
			<polygon fill="#EF9B31" points="67.138,187.185 68.096,187.185 68.096,179.035 67.138,179.035 67.138,180.685 			"/>
			<polygon fill="#EF9B31" points="71.882,196.935 71.882,179.035 71.835,179.035 70.924,179.035 70.924,196.935 			"/>
			<rect x="72.793" y="179.035" fill="#EF9B31" width="0.911" height="1.65"/>
			<polygon fill="#EF9B31" points="73.704,201.785 74.662,201.785 74.662,188.785 74.662,179.035 73.704,179.035 73.704,180.685 			
				"/>
			<rect x="74.662" y="179.035" fill="#EF9B31" width="0.911" height="9.75"/>
			<polygon fill="#EF9B31" points="75.621,188.785 76.531,188.785 76.531,180.685 76.531,179.035 75.573,179.035 75.573,188.785 			
				"/>
			<rect x="76.531" y="179.035" fill="#EF9B31" width="0.959" height="1.65"/>
			<polygon fill="#EF9B31" points="77.49,182.285 78.448,182.285 78.448,179.035 78.4,179.035 77.49,179.035 77.49,180.685 			"/>
			<rect x="79.359" y="179.035" fill="#EF9B31" width="0.911" height="1.65"/>
			<polygon fill="#EF9B31" points="80.317,180.685 81.228,180.685 81.228,179.035 80.269,179.035 80.269,180.685 			"/>
			<polygon fill="#EF9B31" points="81.228,206.685 82.186,206.685 82.186,198.535 82.186,179.035 81.228,179.035 81.228,180.685 			
				"/>
			<polygon fill="#EF9B31" points="83.145,198.535 83.145,195.285 83.097,195.285 83.097,179.035 82.186,179.035 82.186,198.535 			
				"/>
			<polygon fill="#EF9B31" points="83.145,195.285 84.055,195.285 84.055,179.035 83.097,179.035 83.097,195.285 			"/>
			<polygon fill="#EF9B31" points="84.055,200.185 85.014,200.185 85.014,179.035 84.966,179.035 84.055,179.035 84.055,195.285 			
				"/>
			<polygon fill="#EF9B31" points="86.883,185.535 86.883,180.685 86.883,179.035 85.925,179.035 85.925,185.535 			"/>
			<polygon fill="#EF9B31" points="87.842,180.685 87.842,179.035 87.794,179.035 86.883,179.035 86.883,180.685 			"/>
			<rect x="88.752" y="179.035" fill="#EF9B31" width="0.911" height="1.65"/>
			<polygon fill="#EF9B31" points="89.711,180.685 90.621,180.685 90.621,179.035 89.663,179.035 89.663,180.685 			"/>
			<polygon fill="#EF9B31" points="90.621,190.435 91.532,190.435 91.532,179.035 90.621,179.035 90.621,180.685 			"/>
			<polygon fill="#EF9B31" points="91.532,208.285 92.49,208.285 92.49,187.185 92.49,179.035 91.532,179.035 91.532,190.435 			"/>
			<polygon fill="#EF9B31" points="93.449,187.185 93.449,182.285 93.449,179.035 92.49,179.035 92.49,187.185 			"/>
			<polygon fill="#EF9B31" points="94.407,182.285 94.407,179.035 94.359,179.035 93.449,179.035 93.449,182.285 			"/>
			<rect x="96.228" y="179.035" fill="#EF9B31" width="0.959" height="4.9"/>
			<rect x="102.794" y="179.035" fill="#EF9B31" width="0.959" height="4.9"/>
			<polygon fill="#EF9B31" points="103.753,185.535 104.711,185.535 104.711,179.035 103.753,179.035 103.753,183.935 			"/>
			<polygon fill="#EF9B31" points="107.539,187.185 107.539,180.685 107.491,180.685 107.491,179.035 106.58,179.035 
				106.58,187.185 			"/>
			<polygon fill="#EF9B31" points="107.539,180.685 108.449,180.685 108.449,179.035 107.491,179.035 107.491,180.685 			"/>
			<rect x="110.318" y="179.035" fill="#EF9B31" width="0.959" height="1.65"/>
			<polygon fill="#EF9B31" points="111.277,185.535 112.235,185.535 112.235,179.035 112.187,179.035 111.277,179.035 
				111.277,180.685 			"/>
			<polygon fill="#EF9B31" points="115.015,182.285 115.015,180.685 115.015,179.035 114.057,179.035 114.057,182.285 			"/>
			<rect x="115.015" y="179.035" fill="#EF9B31" width="0.959" height="1.65"/>
			<rect x="118.753" y="179.035" fill="#EF9B31" width="0.959" height="1.65"/>
			<rect x="119.712" y="179.035" fill="#EF9B31" width="0.959" height="1.65"/>
			<polygon fill="#EF9B31" points="120.67,182.285 121.581,182.285 121.581,179.035 120.67,179.035 120.67,180.685 			"/>
			<polygon fill="#EF9B31" points="121.581,188.785 122.539,188.785 122.539,182.285 122.539,179.035 121.581,179.035 
				121.581,182.285 			"/>
			<rect x="122.539" y="179.035" fill="#EF9B31" width="0.911" height="3.25"/>
			<polygon fill="#EF9B31" points="123.45,185.535 124.408,185.535 124.408,179.035 123.45,179.035 123.45,182.285 			"/>
			<rect x="126.277" y="179.035" fill="#EF9B31" width="0.959" height="13"/>
			<polygon fill="#EF9B31" points="127.236,200.185 128.194,200.185 128.194,179.035 128.147,179.035 127.236,179.035 
				127.236,192.035 			"/>
			<polygon fill="#EF9B31" points="130.064,192.035 130.064,179.035 130.016,179.035 129.105,179.035 129.105,192.035 			"/>
			<rect x="130.974" y="179.035" fill="#EF9B31" width="0.959" height="1.65"/>
			<polygon fill="#EF9B31" points="131.933,183.935 132.843,183.935 132.843,179.035 131.933,179.035 131.933,180.685 			"/>
			<polygon fill="#EF9B31" points="132.891,183.935 133.802,183.935 133.802,179.035 132.843,179.035 132.843,183.935 			"/>
			<polygon fill="#EF9B31" points="136.629,182.285 136.629,179.035 136.581,179.035 135.671,179.035 135.671,182.285 			"/>
			<polygon fill="#EF9B31" points="138.498,196.935 138.498,183.935 138.498,179.035 137.54,179.035 137.54,196.935 			"/>
			<polygon fill="#EF9B31" points="139.457,183.935 139.457,179.035 139.409,179.035 138.498,179.035 138.498,183.935 			"/>
			<polygon fill="#EF9B31" points="144.154,180.685 144.154,179.035 144.106,179.035 143.195,179.035 143.195,180.685 			"/>
			<rect x="146.933" y="179.035" fill="#EF9B31" width="0.959" height="3.25"/>
			<rect x="150.671" y="179.035" fill="#EF9B31" width="0.959" height="4.9"/>
			<polygon fill="#EF9B31" points="151.63,195.285 152.588,195.285 152.588,180.685 152.54,180.685 152.54,179.035 151.63,179.035 
				151.63,183.935 			"/>
			<polygon fill="#EF9B31" points="152.588,180.685 153.499,180.685 153.499,179.035 152.54,179.035 152.54,180.685 			"/>
			<polygon fill="#EF9B31" points="156.326,188.785 156.326,180.685 156.326,179.035 155.368,179.035 155.368,188.785 			"/>
			<polygon fill="#EF9B31" points="157.285,180.685 157.285,179.035 157.237,179.035 156.326,179.035 156.326,180.685 			"/>
			<rect x="158.196" y="179.035" fill="#EF9B31" width="0.959" height="9.75"/>
			<rect x="160.065" y="179.035" fill="#EF9B31" width="0.959" height="1.65"/>
			<rect x="164.761" y="179.035" fill="#EF9B31" width="0.959" height="1.65"/>
			<rect x="171.327" y="179.035" fill="#EF9B31" width="0.959" height="1.65"/>
			<polygon fill="#EF9B31" points="172.286,182.285 173.196,182.285 173.196,179.035 172.286,179.035 172.286,180.685 			"/>
			<polygon fill="#EF9B31" points="173.196,185.535 174.155,185.535 174.155,179.035 173.196,179.035 173.196,182.285 			"/>
			<rect x="176.024" y="179.035" fill="#EF9B31" width="0.959" height="4.9"/>
			<rect x="177.893" y="179.035" fill="#EF9B31" width="0.959" height="1.65"/>
			<rect x="179.762" y="179.035" fill="#EF9B31" width="0.959" height="1.65"/>
			<rect x="180.72" y="179.035" fill="#EF9B31" width="0.959" height="1.65"/>
			<polygon fill="#EF9B31" points="181.679,185.535 182.637,185.535 182.637,180.685 182.589,180.685 182.589,179.035 
				181.679,179.035 181.679,180.685 			"/>
			<polygon fill="#EF9B31" points="182.637,180.685 183.548,180.685 183.548,179.035 182.589,179.035 182.589,180.685 			"/>
			<polygon fill="#EF9B31" points="183.548,187.185 184.506,187.185 184.506,179.035 184.459,179.035 183.548,179.035 
				183.548,180.685 			"/>
			<rect x="188.245" y="179.035" fill="#EF9B31" width="0.911" height="4.9"/>
			<polygon fill="#EF9B31" points="189.203,183.935 190.114,183.935 190.114,180.685 190.114,179.035 189.155,179.035 
				189.155,183.935 			"/>
			<polygon fill="#EF9B31" points="191.072,180.685 191.072,179.035 191.024,179.035 190.114,179.035 190.114,180.685 			"/>
			<rect x="206.983" y="179.035" fill="#EF9B31" width="0.959" height="3.25"/>
			<polygon fill="#EF9B31" points="213.597,203.435 213.597,179.035 213.549,179.035 212.638,179.035 212.638,203.435 			"/>
			<polygon fill="#EF9B31" points="217.335,188.785 217.335,182.285 217.335,179.035 216.377,179.035 216.377,188.785 			"/>
			<polygon fill="#EF9B31" points="218.294,182.285 218.294,179.035 218.246,179.035 217.335,179.035 217.335,182.285 			"/>
			<rect x="220.163" y="179.035" fill="#EF9B31" width="0.911" height="3.25"/>
			<polygon fill="#EF9B31" points="221.073,195.285 222.032,195.285 222.032,182.285 222.032,179.035 221.073,179.035 
				221.073,182.285 			"/>
			<rect x="222.032" y="179.035" fill="#EF9B31" width="0.911" height="3.25"/>
			<polygon fill="#EF9B31" points="222.942,185.535 223.901,185.535 223.901,179.035 222.942,179.035 222.942,182.285 			"/>
			<polygon fill="#EF9B31" points="223.901,190.435 224.859,190.435 224.859,179.035 224.811,179.035 223.901,179.035 
				223.901,185.535 			"/>
			<polygon fill="#EF9B31" points="226.728,187.185 226.728,182.285 226.728,179.035 225.77,179.035 225.77,187.185 			"/>
			<rect x="226.728" y="179.035" fill="#EF9B31" width="0.911" height="3.25"/>
			<polygon fill="#EF9B31" points="227.639,188.785 228.597,188.785 228.597,179.035 227.639,179.035 227.639,182.285 			"/>
			<polygon fill="#EF9B31" points="228.597,200.185 229.556,200.185 229.556,192.035 229.508,192.035 229.508,179.035 
				228.597,179.035 228.597,188.785 			"/>
			<polygon fill="#EF9B31" points="229.556,192.035 230.467,192.035 230.467,183.935 230.467,179.035 229.508,179.035 
				229.508,192.035 			"/>
			<rect x="230.467" y="179.035" fill="#EF9B31" width="0.959" height="4.9"/>
			<rect x="231.425" y="179.035" fill="#EF9B31" width="0.911" height="4.9"/>
			<polygon fill="#EF9B31" points="232.336,185.535 233.294,185.535 233.294,182.285 233.294,179.035 232.336,179.035 
				232.336,183.935 			"/>
			<rect x="233.294" y="179.035" fill="#EF9B31" width="0.911" height="3.25"/>
			<polygon fill="#EF9B31" points="234.205,188.785 235.163,188.785 235.163,179.035 234.205,179.035 234.205,182.285 			"/>
			<polygon fill="#EF9B31" points="235.163,198.535 236.122,198.535 236.122,185.535 236.074,185.535 236.074,179.035 
				235.163,179.035 235.163,188.785 			"/>
			<polygon fill="#EF9B31" points="236.122,185.535 237.032,185.535 237.032,179.035 236.074,179.035 236.074,185.535 			"/>
			<rect x="237.032" y="179.035" fill="#EF9B31" width="0.959" height="6.5"/>
			<rect x="240.77" y="179.035" fill="#EF9B31" width="0.959" height="1.65"/>
			<polygon fill="#EF9B31" points="241.729,183.935 242.687,183.935 242.687,179.035 241.729,179.035 241.729,180.685 			"/>
			<rect x="247.336" y="179.035" fill="#EF9B31" width="0.959" height="4.9"/>
			<polygon fill="#EF9B31" points="248.295,193.685 249.253,193.685 249.253,179.035 248.295,179.035 248.295,183.935 			"/>
			<rect x="250.164" y="179.035" fill="#EF9B31" width="0.959" height="3.25"/>
			<rect x="252.991" y="179.035" fill="#EF9B31" width="0.959" height="3.25"/>
			<polygon fill="#EF9B31" points="254.908,182.285 254.908,179.035 254.86,179.035 253.95,179.035 253.95,182.285 			"/>
			<polygon fill="#EF9B31" points="256.777,196.935 256.777,192.035 256.73,192.035 256.73,179.035 255.819,179.035 
				255.819,196.935 			"/>
			<polygon fill="#EF9B31" points="256.777,192.035 257.688,192.035 257.688,183.935 257.688,179.035 256.73,179.035 
				256.73,192.035 			"/>
			<polygon fill="#EF9B31" points="258.647,183.935 258.647,180.685 258.647,179.035 257.688,179.035 257.688,183.935 			"/>
			<rect x="258.647" y="179.035" fill="#EF9B31" width="0.911" height="1.65"/>
			<polygon fill="#EF9B31" points="259.557,183.935 260.516,183.935 260.516,179.035 259.557,179.035 259.557,180.685 			"/>
			<rect x="261.426" y="179.035" fill="#EF9B31" width="0.959" height="6.5"/>
			<polygon fill="#EF9B31" points="263.343,185.535 263.343,179.035 263.295,179.035 262.385,179.035 262.385,185.535 			"/>
			<rect x="264.254" y="179.035" fill="#EF9B31" width="0.959" height="1.65"/>
			<polygon fill="#EF9B31" points="270.867,180.685 270.867,179.035 270.82,179.035 269.909,179.035 269.909,180.685 			"/>
			<polygon fill="#EF9B31" points="274.606,180.685 274.606,179.035 274.558,179.035 273.647,179.035 273.647,180.685 			"/>
			<rect x="288.648" y="179.035" fill="#EF9B31" width="0.959" height="1.65"/>
			<rect x="291.475" y="179.035" fill="#EF9B31" width="0.959" height="1.65"/>
			<rect x="298.041" y="179.035" fill="#EF9B31" width="0.959" height="8.15"/>
			<rect x="299.91" y="179.035" fill="#EF9B31" width="0.959" height="1.65"/>
			<rect x="302.738" y="179.035" fill="#EF9B31" width="0.959" height="3.25"/>
			<rect x="306.476" y="179.035" fill="#EF9B31" width="0.959" height="1.65"/>
			<polygon fill="#EF9B31" points="307.434,244.035 308.393,244.035 308.393,196.935 308.345,196.935 308.345,179.035 
				307.434,179.035 307.434,180.685 			"/>
			<polygon fill="#EF9B31" points="308.393,196.935 309.303,196.935 309.303,183.935 309.303,179.035 308.345,179.035 
				308.345,196.935 			"/>
			<rect x="309.303" y="179.035" fill="#EF9B31" width="0.959" height="4.9"/>
			<polygon fill="#EF9B31" points="310.262,188.785 311.22,188.785 311.22,179.035 311.172,179.035 310.262,179.035 
				310.262,183.935 			"/>
			<rect x="312.131" y="179.035" fill="#EF9B31" width="0.911" height="1.65"/>
			<polygon fill="#EF9B31" points="313.089,180.685 314,180.685 314,179.035 313.042,179.035 313.042,180.685 			"/>
		</g>
	</g>
	<g transform="translate(30, 275)">
		<path display="none" fill="none" stroke="#212529" d="M-111-75.771h611.1"/>
		<g transform="translate(1.0409906864954184,0)">
			<line display="none" fill="none" stroke="#212529" x1="-2.5" y1="-202.271" x2="-2.5" y2="57.729"/>
			
				<text transform="matrix(1 0 0 1 -13.6231 73.779)" display="none" fill="#212529" font-family="'ElMessiri-Bold'" font-size="10px">2014</text>
		</g>
		<g transform="translate(101.87244629713084,0)">
			<line display="none" fill="none" stroke="#212529" x1="-55.282" y1="-202.271" x2="-55.282" y2="57.729"/>
			
				<text transform="matrix(1 0 0 1 -66.4053 73.779)" display="none" fill="#212529" font-family="'ElMessiri-Bold'" font-size="10px">2015</text>
		</g>
		<g transform="translate(202.70390190776627,0)">
			<line display="none" fill="none" stroke="#212529" x1="-108.265" y1="-202.271" x2="-108.265" y2="57.729"/>
			
				<text transform="matrix(1 0 0 1 -119.3881 73.779)" display="none" fill="#212529" font-family="'ElMessiri-Bold'" font-size="10px">2016</text>
		</g>
		<g transform="translate(303.81160808171853,0)">
			<line display="none" fill="none" stroke="#212529" x1="-161.019" y1="-202.271" x2="-161.019" y2="57.729"/>
			
				<text transform="matrix(1 0 0 1 -172.1416 73.779)" display="none" fill="#212529" font-family="'ElMessiri-Bold'" font-size="10px">2017</text>
		</g>
		<g transform="translate(404.6430636923539,0)">
			<line display="none" fill="none" stroke="#212529" x1="-214.456" y1="-202.271" x2="-214.456" y2="57.729"/>
			
				<text transform="matrix(1 0 0 1 -225.5786 73.779)" display="none" fill="#212529" font-family="'ElMessiri-Bold'" font-size="10px">2018</text>
		</g>
		<g transform="translate(505.47451930298934,0)">
			<line display="none" fill="none" stroke="#212529" x1="-267.278" y1="-202.271" x2="-267.278" y2="57.729"/>
			
				<text transform="matrix(1 0 0 1 -278.4014 73.779)" display="none" fill="#212529" font-family="'ElMessiri-Bold'" font-size="10px">2019</text>
		</g>
		<g transform="translate(606.3059749136247,0)">
			<line display="none" fill="none" stroke="#212529" x1="-321.5" y1="-202.271" x2="-321.5" y2="57.729"/>
		</g>
	</g>
	
		<line style="opacity:0.8;" fill="none" stroke="#000000" stroke-miterlimit="10" x1="0" y1="356.629" x2="320" y2="356.629"/>
	<g>
		<path fill="none" stroke="#000000" stroke-miterlimit="10" d="M241.331,97.302c0.051-16.94,0.186-24.206-2.536-24.473"/>
		<g>
			<path d="M241.321,101.829c0.795-2.128,2.149-4.768,3.581-6.403l-3.57,1.283l-3.563-1.298
				C239.193,97.052,240.536,99.698,241.321,101.829z"/>
		</g>
	</g>
	<g>
		<path fill="none" stroke="#000000" stroke-miterlimit="10" d="M307.895,259.458c0.051,16.94,0.186,24.206-2.536,24.473"/>
		<g>
			<path d="M307.885,254.932c-0.786,2.132-2.129,4.777-3.553,6.418l3.564-1.298l3.569,1.283
				C310.033,259.699,308.679,257.06,307.885,254.932z"/>
		</g>
	</g>
</g>
<style>
#g-verba-tema02-query02-gurtel-vs-ere-mobile-img rect, #g-verba-tema02-query02-gurtel-vs-ere-mobile-img circle, #g-verba-tema02-query02-gurtel-vs-ere-mobile-img path, #g-verba-tema02-query02-gurtel-vs-ere-mobile-img line, #g-verba-tema02-query02-gurtel-vs-ere-mobile-img polyline { vector-effect: non-scaling-stroke; }
</style>
</svg>

